<?xml version="1.0" encoding="UTF-8" standalone="no"?>
<!-- Created with Inkscape (http://www.inkscape.org/) -->

<svg
   width="210mm"
   height="297mm"
   viewBox="0 0 210 297"
   version="1.1"
   id="svg464"
   inkscape:export-filename="test.png"
   inkscape:export-xdpi="96"
   inkscape:export-ydpi="96"
   inkscape:version="1.2.1 (9c6d41e410, 2022-07-14)"
   sodipodi:docname="가톨릭대학교.svg"
   xmlns:inkscape="http://www.inkscape.org/namespaces/inkscape"
   xmlns:sodipodi="http://sodipodi.sourceforge.net/DTD/sodipodi-0.dtd"
   xmlns="http://www.w3.org/2000/svg"
   xmlns:svg="http://www.w3.org/2000/svg">
  <sodipodi:namedview
     id="namedview466"
     pagecolor="#ffffff"
     bordercolor="#000000"
     borderopacity="0.25"
     inkscape:showpageshadow="2"
     inkscape:pageopacity="0.0"
     inkscape:pagecheckerboard="true"
     inkscape:deskcolor="#d1d1d1"
     inkscape:document-units="mm"
     showgrid="false"
     inkscape:zoom="2.3786088"
     inkscape:cx="487.68003"
     inkscape:cy="601.19176"
     inkscape:window-width="2560"
     inkscape:window-height="1494"
     inkscape:window-x="-11"
     inkscape:window-y="-11"
     inkscape:window-maximized="1"
     inkscape:current-layer="layer1" />
  <defs
     id="defs461" />
  <g
     inkscape:label="Layer 1"
     inkscape:groupmode="layer"
     id="layer1">
    <path
       d="m 87.012561,155.51375 h 4.633324 v 0.34406 h -4.633324 v 1.69303 h 5.488055 v -0.64857 H 87.99636 v -0.3976 h 4.504256 v -1.63847 h -5.488055 z"
       style="fill:#60513a;fill-opacity:1;fill-rule:nonzero;stroke:none;stroke-width:0.34444"
       id="path18"
       inkscape:export-filename="가톨릭대학교.png"
       inkscape:export-xdpi="96"
       inkscape:export-ydpi="96" />
    <path
       d="m 90.266905,153.45484 h 2.2868 v -0.62913 h -4.606117 v -0.31679 h 4.499942 v -0.62879 h -4.499942 v -0.33417 h 4.606117 v -0.62811 h -5.584609 v 2.53869 h 0.978492 v -0.002 h 1.337176 v 0.35531 h -2.820349 v 0.75428 h 6.587331 v -0.75428 h -2.784841 v -0.35531 z"
       style="fill:#60513a;fill-opacity:1;fill-rule:nonzero;stroke:none;stroke-width:0.34444"
       id="path20" />
    <path
       d="m 122.23899,151.66292 v 4.34117 h 1.15236 v -5.09647 h -5.73791 l -0.0949,0.12617 0.46984,0.62913 z"
       style="fill:#60513a;fill-opacity:1;fill-rule:nonzero;stroke:none;stroke-width:0.34444"
       id="path22" />
    <path
       d="m 94.32223,152.47312 v 2.33955 l 4.846013,-0.40476 v 0.45727 h 1.151697 v -4.13146 h -1.151697 v 3.00243 l -3.694317,0.27621 v -0.82589 h 2.733075 v -2.23452 h -4.1751 l -0.09457,0.12515 0.470496,0.62913 h 2.647146 v 0.76689 z"
       style="fill:#60513a;fill-opacity:1;fill-rule:nonzero;stroke:none;stroke-width:0.34444"
       id="path24" />
    <path
       d="m 84.608963,150.73372 h -1.151696 v 6.95726 h 1.151696 v -4.19795 h 0.810267 v -0.75428 h -0.810267 z"
       style="fill:#60513a;fill-opacity:1;fill-rule:nonzero;stroke:none;stroke-width:0.34444"
       id="path26" />
    <path
       d="m 115.7595,150.73372 h -1.15236 v 4.08782 h 1.15236 v -1.32851 h 1.09528 v -0.75428 h -1.09528 z"
       style="fill:#60513a;fill-opacity:1;fill-rule:nonzero;stroke:none;stroke-width:0.34444"
       id="path28" />
    <path
       d="m 121.47949,156.54968 v -2.80228 h -0.97385 v 2.80228 h -0.85274 v -2.80228 h -0.97319 v 2.80228 h -1.45264 l -0.0949,0.12583 0.47017,0.62879 h 6.30164 v -0.75462 z"
       style="fill:#60513a;fill-opacity:1;fill-rule:nonzero;stroke:none;stroke-width:0.34444"
       id="path30" />
    <path
       d="m 94.361713,155.36815 0.470831,0.62912 h 4.33802 v 1.68621 h 1.152356 v -2.44014 h -5.866642 z"
       style="fill:#60513a;fill-opacity:1;fill-rule:nonzero;stroke:none;stroke-width:0.34444"
       id="path32" />
    <path
       d="m 109.77274,155.36815 0.4695,0.62912 h 4.35461 v 1.68621 h 1.15203 v -2.44014 h -5.88191 z"
       style="fill:#60513a;fill-opacity:1;fill-rule:nonzero;stroke:none;stroke-width:0.34444"
       id="path34" />
    <path
       d="m 107.04231,152.73875 h -0.52889 v -2.00503 h -1.01599 v 4.1642 l -2.48821,0.25915 v -3.45084 h 1.77947 v -0.75428 h -2.93183 v 5.04328 l 3.64057,-0.38362 v 2.07937 h 1.01599 v -4.19795 h 0.52889 v 4.19795 h 1.01599 v -6.95726 h -1.01599 z"
       style="fill:#60513a;fill-opacity:1;fill-rule:nonzero;stroke:none;stroke-width:0.34444"
       id="path36" />
    <path
       d="m 111.71015,154.89962 c 1.17392,0 2.12554,-0.861 2.12554,-1.92354 0,-0.49955 -0.21202,-0.95341 -0.55743,-1.29577 h 0.71404 v -0.75496 h -1.67461 v -0.67209 h -1.15237 v 0.67209 h -2.03098 l -0.0946,0.12549 0.47051,0.62947 h 0.63175 c -0.34508,0.34236 -0.55743,0.79622 -0.55743,1.29577 0,1.06254 0.95162,1.92354 2.12554,1.92354 m 0,-3.09962 c 0.6228,0 1.12748,0.51865 1.12748,1.15801 0,0.64175 -0.50468,1.16005 -1.12748,1.16005 -0.62246,0 -1.12747,-0.5183 -1.12747,-1.16005 0,-0.63936 0.50501,-1.15801 1.12747,-1.15801 z"
       style="fill:#60513a;fill-opacity:1;fill-rule:nonzero;stroke:none;stroke-width:0.34444"
       id="path38" />
    <path
       d="m 82.531864,150.99833 h -3.718542 l -0.09523,0.12514 0.470172,0.62913 h 2.140472 c 0,0 -0.05275,0.78053 -0.558762,1.73054 -0.710727,1.33737 -1.458281,1.81135 -2.045246,2.13904 l 0.221646,0.52411 c 0.566061,-0.24279 1.439704,-0.75291 2.047237,-1.48196 1.616226,-1.94092 1.538252,-3.666 1.538253,-3.666 z"
       style="fill:#60513a;fill-opacity:1;fill-rule:nonzero;stroke:none;stroke-width:0.34444"
       id="path40" />
    <path
       d="m 121.57272,117.30692 c -6.22333,-2.68498 -13.69028,-4.04554 -20.482,-4.04554 -6.793375,0 -14.259991,1.36056 -20.482663,4.04554 -0.4058,0.2063 -0.601898,0.39009 -0.601898,0.86305 v 21.65983 c 0,0.4733 0.196098,0.65641 0.601898,0.8634 6.222672,2.68463 13.689288,4.04621 20.482663,4.04621 6.79172,0 14.25867,-1.36158 20.482,-4.04621 0.40514,-0.20699 0.60157,-0.3901 0.60157,-0.8634 v -21.65983 c 0,-0.47296 -0.19643,-0.65675 -0.60157,-0.86305 m -6.14503,0.34474 c 0.20838,-0.76996 0.8398,-1.1696 1.53593,-0.97115 0.19112,0.0546 0.3464,0.13708 0.47348,0.25302 l 0.009,0.008 -0.13305,0.38089 -0.0189,-0.0218 c -0.11116,-0.13059 -0.24885,-0.21993 -0.40912,-0.26495 -0.22131,-0.0631 -0.43798,-0.0385 -0.62644,0.0713 -0.21999,0.12787 -0.38523,0.36247 -0.46553,0.6605 -0.08,0.29632 -0.0551,0.58515 0.071,0.81361 0.10519,0.19164 0.27673,0.32872 0.48245,0.38771 0.14334,0.0409 0.36897,0.06 0.50401,0.0143 l 0.0279,-0.009 -0.0846,0.3959 -0.0109,0.002 c -0.14599,0.0242 -0.32085,0.007 -0.53421,-0.0532 -0.71636,-0.20425 -1.03821,-0.85862 -0.82055,-1.66677 m -2.97762,-2.02277 0.004,-0.0167 0.35437,0.0733 -0.50799,2.59632 -0.35437,-0.073 0.50467,-2.57995 m -4.18572,-0.68982 0.002,-0.0164 0.35868,0.0484 c 0,0 -0.28701,2.23179 -0.29132,2.26521 0.0318,0.004 0.94929,0.12855 0.94929,0.12855 l -0.0465,0.36077 -1.30731,-0.17731 0.33512,-2.60927 m -5.32647,0.87907 c 0.0219,-0.44124 0.17254,-0.8119 0.42338,-1.04446 0.20307,-0.18822 0.46685,-0.27961 0.76216,-0.26359 0.66826,0.0351 1.08932,0.60867 1.04851,1.42638 -0.0219,0.44567 -0.17022,0.81735 -0.41741,1.0465 -0.20207,0.1872 -0.46785,0.27791 -0.76813,0.26188 -0.30062,-0.016 -0.55577,-0.13435 -0.73827,-0.34201 -0.22264,-0.25404 -0.3328,-0.63937 -0.31024,-1.0847 m -4.438558,-1.2927 c 0,0 0.03418,1.05946 0.03551,1.09288 0.03154,-0.001 1.029589,-0.0355 1.061109,-0.0368 -0.0011,-0.0327 -0.03517,-1.09288 -0.03517,-1.09288 l 0.345077,-0.0119 0.01658,-3.5e-4 0.08494,2.64679 -0.361006,0.0126 c 0,0 -0.03749,-1.15733 -0.03849,-1.19006 -0.03182,7e-4 -1.029924,0.0348 -1.061777,0.0361 7.06e-4,0.0331 0.03882,1.19006 0.03882,1.19006 l -0.361668,0.0123 -0.08494,-2.64679 0.361001,-0.0119 m -0.688163,3.65918 c 1.156674,-0.0699 2.267223,-0.10571 3.287193,-0.10571 4.88384,0 11.82521,0.80645 16.10915,2.36479 H 97.811176 v -2.25908 m 0,3.4679 h 20.399714 c 0.003,0.0501 0.005,0.0989 0.006,0.14219 v 0.59811 h -18.17388 v 5.10738 h 8.36415 v 0.74029 H 97.81129 v -6.58797 m 3.40631,4.63954 v -0.74132 h 16.99938 v 0.74132 H 101.2176 m 16.99938,1.20814 v 0.74029 h -8.63424 v -0.74029 h 8.63424 m -16.99938,-3.15759 v -0.74132 h 16.99938 v 0.74132 H 101.2176 m 7.18956,5.10636 v 4.63954 H 93.924526 v -0.74166 h 11.970204 v -3.15691 H 93.924526 v -9.75647 h -8.907642 c 3.089105,-1.11812 7.545581,-1.84682 11.618824,-2.16701 v 11.18251 h 11.771452 m -13.19689,-14.69234 0.01658,-0.002 0.03916,0.36145 c 0,0 -0.675224,0.0788 -0.706748,0.0829 0.0035,0.0331 0.249188,2.26999 0.249188,2.26999 l -0.359015,0.0419 c 0,0 -0.245533,-2.23759 -0.249185,-2.27067 -0.03154,0.004 -0.707739,0.0822 -0.707739,0.0822 l -0.03982,-0.36179 1.757574,-0.20392 m -5.451231,0.82316 0.349726,-0.0685 0.01094,-0.003 1.447998,2.41218 -0.386557,0.076 c 0,0 -0.337442,-0.58275 -0.349056,-0.60287 -0.02222,0.005 -1.056798,0.20801 -1.079362,0.21244 -0.0035,0.0228 -0.107837,0.69289 -0.107837,0.69289 l -0.373281,0.073 0.487419,-2.79239 m -4.874218,1.52287 c 0.153628,-0.28166 0.406463,-0.48012 0.731633,-0.57457 0.190458,-0.0549 0.364984,-0.0665 0.532878,-0.0351 l 0.01094,0.002 0.07864,0.39691 -0.02723,-0.009 c -0.16026,-0.0522 -0.323176,-0.0552 -0.483768,-0.009 -0.220983,0.0641 -0.393523,0.20051 -0.499702,0.39487 -0.123758,0.22676 -0.146985,0.51524 -0.06503,0.81327 0.153627,0.56093 0.607204,0.86884 1.079359,0.73245 0.143675,-0.0416 0.346075,-0.1456 0.437987,-0.25608 l 0.01891,-0.0228 0.127748,0.38361 -0.0086,0.008 c -0.11182,0.0982 -0.274405,0.17868 -0.483775,0.23869 -0.329812,0.0955 -0.645361,0.0648 -0.9118,-0.089 -0.297963,-0.17186 -0.515623,-0.48284 -0.629433,-0.89885 -0.106511,-0.3901 -0.07432,-0.77167 0.09125,-1.07481 m -0.903506,4.69205 c 0.0011,-0.0464 0.0035,-0.0989 0.0066,-0.15276 h 8.760322 v 8.54799 h -8.766958 v -8.39523 m 0,9.60337 h 20.737159 v 0.74166 H 92.748195 v 3.15759 h 16.834465 v -5.84836 h 8.63424 v 6.17776 c -0.005,0.24654 -0.0352,0.62913 -0.20108,0.85214 -0.13803,0.18653 -0.32915,0.30212 -0.45424,0.36384 -2.13882,0.82486 -5.01258,1.45058 -7.97892,1.86966 v -2.67475 H 84.017404 c -0.02554,-0.14662 -0.03383,-0.29393 -0.03617,-0.41089 v -4.22865 m 24.425836,5.84802 v 1.62108 c -2.56651,0.31371 -5.13899,0.4733 -7.30867,0.4733 -4.591188,0 -10.987394,-0.71472 -15.308164,-2.09438 h 22.616844 m -24.575819,3.43173 c -0.243216,-0.0856 -0.414757,-0.23051 -0.509655,-0.43101 -0.118452,-0.24893 -0.113474,-0.5698 0.01496,-0.95342 l 0.484435,-1.44887 0.0056,-0.016 0.341097,0.12071 -0.473819,1.41887 c -0.106842,0.31883 -0.120114,0.55445 -0.04114,0.72154 0.05442,0.11389 0.150639,0.19369 0.293648,0.24415 0.141016,0.0501 0.267769,0.0474 0.377261,-0.008 0.162253,-0.0815 0.292985,-0.27621 0.399828,-0.59537 l 0.473815,-1.41819 0.341429,0.12003 -0.48908,1.46524 c -0.23326,0.69801 -0.666267,0.97524 -1.218392,0.77985 m 2.862819,0.8726 c 0,0 -0.385557,-2.21168 -0.404142,-2.3167 -0.02953,0.10536 -0.571697,2.02549 -0.571697,2.02549 l -0.347402,-0.10366 0.71471,-2.52675 0.0043,-0.0164 0.454572,0.13538 c 0,0 0.371623,2.15439 0.390532,2.26418 0.03087,-0.10911 0.560419,-1.98014 0.560419,-1.98014 l 0.346075,0.10332 -0.718358,2.54346 -0.429023,-0.12821 m 1.496772,0.40578 -0.350385,-0.0907 0.628438,-2.55062 0.004,-0.0167 0.350051,0.0907 -0.632086,2.56733 m 1.283755,0.31201 -0.30128,-2.75625 -0.0028,-0.0232 0.393852,0.0887 c 0,0 0.204392,2.27681 0.211695,2.35728 0.03981,-0.0699 1.167952,-2.04766 1.167952,-2.04766 l 0.371291,0.0832 -1.41714,2.39308 -0.423718,-0.0951 m 3.423899,-1.64528 c 0,0 -0.908484,-0.16402 -0.940004,-0.16982 -0.0053,0.0314 -0.117789,0.68812 -0.12343,0.71915 0.03154,0.005 0.856385,0.15481 0.856385,0.15481 l -0.06105,0.35804 c 0,0 -0.824868,-0.14867 -0.856061,-0.1548 -0.0056,0.0321 -0.134048,0.7836 -0.139354,0.81497 0.03154,0.005 0.939669,0.16981 0.939669,0.16981 l -0.06105,0.35838 -1.296035,-0.23392 0.443957,-2.59222 0.0032,-0.0164 1.295368,0.23427 -0.06138,0.3577 m 1.936083,0.64788 c -0.03915,0.2953 -0.252501,0.50297 -0.532215,0.53195 0.08229,0.058 0.12476,0.12685 0.170551,0.28371 l 0.299286,1.11675 -0.40646,-0.0566 -0.231602,-0.95785 c -0.06437,-0.25608 -0.159597,-0.26938 -0.332469,-0.29359 0,0 -0.151303,-0.0212 -0.178844,-0.0246 -0.0043,0.0327 -0.152961,1.15017 -0.152961,1.15017 l -0.358016,-0.0505 0.346738,-2.60689 0.0021,-0.017 0.572365,0.0801 c 0.260135,0.0365 0.546812,0.1023 0.700108,0.30962 0.07532,0.10161 0.112484,0.22778 0.112484,0.38259 0,0.0477 -0.0037,0.0982 -0.01094,0.15208 m 1.191178,0.47535 c 0.26445,0.18277 0.564399,0.38941 0.516622,0.88555 -0.04944,0.50331 -0.386884,0.76042 -0.92607,0.70518 -0.165569,-0.0167 -0.318861,-0.087 -0.46187,-0.15754 l -0.01129,-0.006 0.07366,-0.37952 0.0199,0.0126 c 0.05973,0.0358 0.2681,0.15379 0.453908,0.17254 0.09556,0.01 0.234255,-0.0113 0.338113,-0.0985 0.07698,-0.0648 0.12144,-0.15379 0.132391,-0.26495 0.02455,-0.25677 -0.159932,-0.38157 -0.373613,-0.52581 -0.248193,-0.16743 -0.529893,-0.35702 -0.486096,-0.80509 0.04247,-0.43988 0.363326,-0.69426 0.817566,-0.64822 0.164578,0.0167 0.340766,0.0696 0.483111,0.14492 l 0.01161,0.006 -0.08693,0.37305 -0.01923,-0.0106 c -0.15827,-0.0914 -0.24487,-0.13299 -0.410778,-0.15004 -0.07432,-0.008 -0.214012,-0.008 -0.310896,0.0733 -0.05906,0.0494 -0.09357,0.12275 -0.102531,0.21721 -0.0199,0.20595 0.147983,0.32189 0.342424,0.4559 m 1.35111,1.70224 -0.360009,-0.0273 0.187469,-2.62428 0.0011,-0.0167 0.360341,0.0269 -0.1888,2.64133 m 2.35814,-2.16155 c 0,0 -0.679866,-0.0314 -0.711391,-0.0327 -0.0018,0.0338 -0.09887,2.28261 -0.09887,2.28261 l -0.360676,-0.0167 c 0,0 0.09755,-2.24885 0.09888,-2.28193 -0.03154,-0.002 -0.711059,-0.0331 -0.711059,-0.0331 l 0.01559,-0.34611 7.05e-4,-0.017 1.782456,0.0815 -0.01559,0.36351 m 2.429483,-0.32292 c 0,0 -0.89057,1.51195 -0.89222,1.51025 0,3.4e-4 -0.002,1.11061 -0.002,1.11061 l -0.36101,-3.4e-4 c 0,0 0.002,-1.09663 0.002,-1.10652 -0.005,-0.008 -0.89023,-1.51776 -0.89023,-1.51776 l -0.0153,-0.0262 0.42239,7e-4 c 0,0 0.64304,1.10993 0.67058,1.15699 0.0272,-0.0471 0.65863,-1.1546 0.65863,-1.1546 l 0.42272,0.001 -0.0152,0.0256 m 3.00781,2.21849 c -0.1805,0.20937 -0.43499,0.3294 -0.73528,0.34782 -0.67854,0.0419 -1.14771,-0.46784 -1.19582,-1.29816 -0.0471,-0.8177 0.36963,-1.39432 1.03722,-1.43558 0.66859,-0.0402 1.14904,0.48148 1.19649,1.2985 0.0255,0.44568 -0.0816,0.83168 -0.30261,1.08742 m 1.28774,0.14015 -0.36001,0.0375 -0.25947,-2.63485 1.22768,-0.12787 0.0166,-0.002 0.0352,0.36179 c 0,0 -0.85241,0.0887 -0.88427,0.0921 0.003,0.0317 0.0687,0.69426 0.0717,0.72631 0.0315,-0.004 0.84511,-0.0876 0.84511,-0.0876 l 0.0358,0.36145 c 0,0 -0.81359,0.0846 -0.84544,0.0876 0.004,0.0334 0.11713,1.18528 0.11713,1.18528 m 4.07888,-0.56093 c 0,0 -0.47315,0.076 -0.48709,0.0716 0,0 -1.0996,-1.01309 -1.16464,-1.0731 0.0133,0.0873 0.18714,1.23575 0.18714,1.23575 l -0.35702,0.0573 -0.39584,-2.61712 0.35635,-0.0569 c 0,0 0.15496,1.02536 0.16757,1.10822 0.11447,-0.18618 0.77111,-1.25315 0.78173,-1.26031 l 0.43201,-0.0689 0.0365,-0.006 c 0,0 -0.87564,1.38613 -0.89123,1.41034 0.0219,0.0191 1.37035,1.19313 1.37035,1.19313 l -0.0358,0.006 m 1.24261,-0.20493 c -0.66626,0.13741 -1.19947,-0.30144 -1.35874,-1.11675 -0.15661,-0.80304 0.17918,-1.43354 0.83516,-1.56857 0.65597,-0.13469 1.20179,0.31371 1.3584,1.11675 0.15894,0.81531 -0.16855,1.43148 -0.83482,1.56857 m 2.85983,-0.71745 -0.55975,-0.80168 c -0.15164,-0.21312 -0.24554,-0.18925 -0.41509,-0.14628 0,0 -0.14799,0.0385 -0.17486,0.045 0.008,0.0324 0.27274,1.12698 0.27274,1.12698 l -0.35038,0.0897 -0.62181,-2.5704 0.56075,-0.14322 c 0.2545,-0.0648 0.54383,-0.11321 0.76149,0.0211 0.13969,0.0866 0.2336,0.23631 0.28735,0.4583 0.0133,0.0546 0.0196,0.10911 0.0196,0.16231 0,0.22642 -0.11945,0.4259 -0.32119,0.53468 0.0956,0.0221 0.15993,0.0702 0.26014,0.19811 l 0.67953,0.92375 -0.39849,0.10161 m 0.89521,-0.24585 -0.71902,-2.54346 1.24758,-0.37203 0.0163,-0.005 0.0982,0.34918 c 0,0 -0.88592,0.26426 -0.91644,0.27381 0.009,0.03 0.18912,0.67039 0.19809,0.70108 0.0305,-0.009 0.83448,-0.24927 0.83448,-0.24927 l 0.0989,0.34952 c 0,0 -0.80363,0.23938 -0.83449,0.24893 0.009,0.0307 0.21634,0.76382 0.22464,0.79485 0.0309,-0.01 0.91644,-0.27382 0.91644,-0.27382 l 0.0992,0.34918 -1.26385,0.3768 m 3.43286,-1.10959 c 0,0 -0.41143,-0.53025 -0.42504,-0.54798 -0.0216,0.007 -1.0203,0.35293 -1.04153,0.36009 -7.1e-4,0.0232 -0.016,0.70176 -0.016,0.70176 l -0.36001,0.12446 0.1158,-2.83466 0.33678,-0.11731 0.0109,-0.004 1.75193,2.18849 -0.37295,0.12855 M 104.00494,116.8816 c 0.18747,0.01 0.34839,-0.046 0.47779,-0.1664 0.17951,-0.16675 0.29232,-0.45762 0.30925,-0.79861 0.0169,-0.33928 -0.069,-0.64209 -0.23525,-0.82997 -0.1178,-0.13333 -0.26943,-0.20494 -0.45159,-0.21346 -0.18084,-0.0109 -0.33911,0.0443 -0.46951,0.16401 -0.18448,0.16948 -0.30061,0.46171 -0.31753,0.80099 -0.0233,0.46307 0.14268,1.01445 0.68684,1.04344 m 13.50347,23.05381 c 0.0412,-0.0143 0.77775,-0.26972 0.81889,-0.28405 -0.0272,-0.0355 -0.73926,-0.95546 -0.79135,-1.02263 -0.002,0.0859 -0.0269,1.26167 -0.0276,1.30668 m 5.70174,-23.07256 c -0.20107,-0.31372 -0.48643,-0.49513 -0.64735,-0.57867 -6.31027,-2.79306 -14.16145,-4.34697 -21.46912,-4.34697 -7.308013,0 -15.160515,1.55391 -21.470453,4.34697 -0.160264,0.0835 -0.445615,0.26495 -0.646688,0.57867 -0.219325,0.34031 -0.259471,0.9234 -0.266107,1.29815 v 21.67382 c 0.0066,0.37578 0.04678,0.95785 0.266107,1.29884 0.182161,0.28473 0.435328,0.46136 0.600901,0.55411 6.322878,2.80773 14.190313,4.36914 21.51624,4.36914 7.3246,0 15.19236,-1.56141 21.51557,-4.36914 0.16491,-0.0927 0.41841,-0.26938 0.6009,-0.55411 0.21899,-0.34099 0.25981,-0.92306 0.26545,-1.29884 V 118.161 c -0.006,-0.37475 -0.0464,-0.95784 -0.26545,-1.29815 m -0.59015,22.98201 c 0,0.45898 -0.0518,0.58071 -0.11878,0.74132 -0.0979,0.23562 -0.36764,0.38156 -0.36764,0.38156 -6.24524,2.82888 -14.04399,4.23718 -21.0401,4.23718 -6.997108,0 -14.795525,-1.4083 -21.040764,-4.23718 0,0 -0.270422,-0.14594 -0.36764,-0.38156 -0.06735,-0.16061 -0.119447,-0.28234 -0.119447,-0.74132 v -21.67007 c 0,-0.45863 0.05209,-0.58036 0.119447,-0.74131 0.09722,-0.23529 0.36764,-0.38055 0.36764,-0.38055 6.245239,-2.82853 14.043656,-4.23751 21.040764,-4.23751 6.99611,0 14.79486,1.40898 21.0401,4.23751 0,0 0.26976,0.14526 0.36764,0.38055 0.067,0.16095 0.11878,0.28268 0.11878,0.74131 v 21.67007 m -17.84846,1.4765 c -0.13106,-0.11935 -0.29,-0.17289 -0.47183,-0.16061 -0.18116,0.01 -0.33246,0.0825 -0.44926,0.21653 -0.16524,0.18993 -0.24886,0.49307 -0.22895,0.83236 0.0196,0.34099 0.13471,0.63118 0.31555,0.79622 0.13073,0.11901 0.29166,0.17356 0.47913,0.16197 0.18747,-0.0116 0.34109,-0.0849 0.45689,-0.21892 0.16026,-0.18584 0.24089,-0.4883 0.22132,-0.82929 -0.0196,-0.33929 -0.13704,-0.63016 -0.32285,-0.79826 M 94.0665,140.7993 c 0,0 -0.266439,-0.0375 -0.295639,-0.0419 -0.0043,0.0317 -0.09589,0.72188 -0.100206,0.75325 0.02917,0.004 0.260135,0.0368 0.260135,0.0368 0.164242,0.0228 0.300616,-0.004 0.394518,-0.0767 0.073,-0.0573 0.117126,-0.13946 0.131064,-0.24449 0.0028,-0.0208 0.004,-0.0413 0.004,-0.0607 0,-0.1988 -0.140687,-0.33076 -0.393855,-0.36622 m 17.749923,-0.47739 c -0.146,-0.0999 -0.31057,-0.13094 -0.48908,-0.0924 -0.17851,0.0348 -0.31821,0.12821 -0.41576,0.27722 -0.13803,0.21142 -0.18017,0.52411 -0.11546,0.85726 0.0889,0.45454 0.38223,0.9466 0.91611,0.83714 0.18382,-0.0378 0.32616,-0.13299 0.42272,-0.282 0.13438,-0.20733 0.17387,-0.51797 0.10784,-0.85317 -0.064,-0.33246 -0.21933,-0.60389 -0.42637,-0.74404 m 1.70116,-0.54934 c 0,0 -0.26047,0.0668 -0.28933,0.074 0.007,0.0307 0.17055,0.70687 0.17818,0.73756 0.0421,-0.0109 0.25482,-0.0648 0.25482,-0.0648 0.24786,-0.0631 0.38556,-0.208 0.38556,-0.39657 0,-0.0324 -0.004,-0.0665 -0.0126,-0.10196 -0.0554,-0.2271 -0.24354,-0.31781 -0.51662,-0.24824 M 90.004893,115.95834 c -0.01295,0.0856 -0.192447,1.24599 -0.199083,1.29066 0.0428,-0.008 0.805621,-0.1589 0.848759,-0.16743 -0.02258,-0.0389 -0.606542,-1.04855 -0.649676,-1.12323 z"
       style="fill:#0c2e86;fill-opacity:1;fill-rule:nonzero;stroke:none;stroke-width:0.34444"
       id="path42" />
    <path
       style="fill:#ffffff;stroke-width:0.594555"
       d="m 414.70206,518.97135 v -4.97862 H 366.24583 317.7896 v -8.62105 -8.62105 h 38.94335 c 38.54698,0 38.94335,0.0121 38.94335,1.18911 0,1.16825 -0.39637,1.18911 -22.59309,1.18911 h -22.59309 v 6.24283 6.24283 h 32.10597 32.10597 v -10.99927 -10.99926 h 16.10494 16.10493 l -0.23366,12.33701 c -0.12852,6.78536 -0.44426,12.79529 -0.70165,13.3554 -0.86094,1.87352 -11.81829,5.1778 -24.8831,7.50372 l -6.39146,1.13787 z"
       id="path821"
       transform="scale(0.26458333)" />
    <path
       style="fill:#ffffff;stroke-width:0.594555"
       d="m 368.0742,525.84169 c -13.34588,-0.95458 -31.65933,-3.83836 -39.00896,-6.14267 -2.33443,-0.73191 2.34695,-0.83938 38.81562,-0.89107 l 41.4702,-0.0588 v 2.90426 2.90427 l -3.12141,0.37242 c -12.07091,1.44017 -26.08439,1.77497 -38.15545,0.91157 z"
       id="path823"
       transform="scale(0.26458333)" />
    <path
       style="fill:#ffffff;stroke-width:0.297277"
       d="m 355.09793,505.37168 v -1.33775 h 22.59308 22.59309 v -6.09419 -6.09418 h -22.59309 -22.59308 v -18.42865 -18.42864 l -16.12731,-0.0769 -16.1273,-0.0769 2.20172,-0.69154 c 6.04942,-1.90007 15.31579,-3.91658 23.39538,-5.0912 4.88864,-0.71072 14.3996,-1.79146 15.79879,-1.79523 l 0.96615,-0.003 v 21.1067 21.1067 h 22.14717 22.14717 v 8.62104 8.62105 h -27.20089 -27.20088 z"
       id="path825"
       transform="scale(0.26458333)" />
    <path
       style="fill:#ffffff;stroke-width:0.297277"
       d="m 369.9618,472.22524 v -12.18837 h 38.34879 38.34879 v 1.18911 1.18911 h -34.33554 -34.33555 v 9.81015 9.81016 h 15.75571 15.7557 v 1.18911 1.18911 H 389.73075 369.9618 Z"
       id="path827"
       transform="scale(0.26458333)" />
    <path
       style="fill:#ffffff;stroke-width:0.297277"
       d="m 382.74473,468.50928 v -1.33775 h 31.95733 31.95732 v 1.33775 1.33774 h -31.95732 -31.95733 z"
       id="path829"
       transform="scale(0.26458333)" />
    <path
       style="fill:#ffffff;stroke-width:0.297277"
       d="m 382.74473,475.94121 v -1.33775 h 31.95733 31.95732 v 1.33775 1.33775 h -31.95732 -31.95733 z"
       id="path831"
       transform="scale(0.26458333)" />
    <path
       style="fill:#ffffff;stroke-width:0.297277"
       d="m 414.25614,483.22451 v -1.18911 h 16.20162 16.20162 v 1.18911 1.18911 h -16.20162 -16.20162 z"
       id="path833"
       transform="scale(0.26458333)" />
    <path
       style="fill:#ffffff;stroke-width:0.297277"
       d="m 369.9618,450.85453 v -4.12862 l 6.9117,-0.21232 c 15.66695,-0.48127 36.16418,1.46261 52.05,4.9362 3.82151,0.83561 12.05316,3.10254 12.35236,3.40174 0.0724,0.0724 -15.94366,0.13162 -35.59122,0.13162 H 369.9618 Z"
       id="path835"
       transform="scale(0.26458333)" />
    <path
       style="fill:#ffffff;stroke-width:0.297277"
       d="m 317.64097,475.94121 v -15.90434 h 16.35026 16.35026 v 15.90434 15.90435 h -16.35026 -16.35026 z"
       id="path837"
       transform="scale(0.26458333)" />
    <path
       style="fill:#ffffff;stroke-width:0.297277"
       d="m 369.9618,548.31893 c -22.30062,-1.44866 -43.46268,-6.02223 -61.83371,-13.36358 -4.99986,-1.99802 -6.20953,-2.64519 -6.69342,-3.58093 -0.38419,-0.74293 -0.44124,-6.42613 -0.44124,-43.95045 v -43.09719 l 0.74192,-0.88173 c 1.59694,-1.89785 16.11621,-7.19822 28.24263,-10.31019 33.62746,-8.62972 69.48095,-8.72981 103.09925,-0.28783 9.76741,2.45272 20.06742,5.92366 26.77635,9.02319 2.20541,1.0189 2.64256,1.3432 3.01628,2.23764 0.64532,1.54449 0.66074,85.27298 0.016,86.81611 -0.55612,1.33098 -1.08707,1.64574 -6.56603,3.8926 -16.27386,6.67372 -35.4634,11.10619 -56.63026,13.08066 -5.81969,0.54287 -23.91178,0.79951 -29.72775,0.4217 z m 29.72774,-1.90232 c 20.96575,-2.02202 38.81426,-6.14585 55.95332,-12.9278 3.51627,-1.39139 4.85918,-2.07042 5.42531,-2.74323 l 0.75236,-0.89413 v -42.37844 -42.37845 l -0.99672,-0.92693 c -1.05134,-0.97774 -1.71594,-1.27232 -9.17192,-4.06555 -23.83894,-8.93076 -53.78727,-13.36242 -80.2037,-11.8683 -19.31184,1.09229 -37.84771,4.60713 -54.80054,10.39149 -4.51029,1.53893 -11.09316,4.09136 -12.71544,4.93028 -1.84623,0.95472 -1.74967,-1.48071 -1.74967,44.13334 0,46.33442 -0.1629,42.84712 2.0543,43.97826 0.63263,0.32274 2.53616,1.14164 4.23008,1.81978 18.05295,7.22729 39.2913,11.8468 61.34624,13.3433 5.82916,0.39553 24.11088,0.14243 29.87638,-0.41362 z"
       id="path839"
       transform="scale(0.26458333)" />
  </g>
</svg>
