<?xml version="1.0" encoding="UTF-8" standalone="no"?>
<!-- Created with Inkscape (http://www.inkscape.org/) -->

<svg
   version="1.1"
   id="svg79412"
   width="793.7005"
   height="1122.5195"
   viewBox="0 0 793.7005 1122.5195"
   sodipodi:docname="강원대학교.svg"
   inkscape:version="1.2.1 (9c6d41e410, 2022-07-14)"
   xmlns:inkscape="http://www.inkscape.org/namespaces/inkscape"
   xmlns:sodipodi="http://sodipodi.sourceforge.net/DTD/sodipodi-0.dtd"
   xmlns="http://www.w3.org/2000/svg"
   xmlns:svg="http://www.w3.org/2000/svg">
  <defs
     id="defs79416" />
  <sodipodi:namedview
     id="namedview79414"
     pagecolor="#ffffff"
     bordercolor="#000000"
     borderopacity="0.25"
     inkscape:showpageshadow="2"
     inkscape:pageopacity="0.0"
     inkscape:pagecheckerboard="0"
     inkscape:deskcolor="#d1d1d1"
     showgrid="false"
     inkscape:zoom="1.6819306"
     inkscape:cx="225.33629"
     inkscape:cy="451.86169"
     inkscape:window-width="2560"
     inkscape:window-height="1494"
     inkscape:window-x="-11"
     inkscape:window-y="-11"
     inkscape:window-maximized="1"
     inkscape:current-layer="g79420">
    <inkscape:page
       x="0"
       y="0"
       id="page79418"
       width="793.7005"
       height="1122.5195" />
  </sodipodi:namedview>
  <g
     id="g79420"
     inkscape:groupmode="layer"
     inkscape:label="Page 1"
     transform="matrix(1.3333333,0,0,-1.3333333,0,1122.5195)">
    <path
       d="m 167.19336,638.48047 9.78906,-13.5293 13.52637,9.78613 -9.7832,13.52735 z"
       style="fill:#f25c19;fill-opacity:1;fill-rule:nonzero;stroke:none"
       id="path79422"
       inkscape:export-filename="..\OneDrive\바탕 화면\잉스케이프-로고\강원대학교.png"
       inkscape:export-xdpi="137.22327"
       inkscape:export-ydpi="137.22327" />
    <path
       d="m 290.63379,595.75684 -18.69824,29.19433 H 255.99707 V 575.2666 h 15.18945 v 28.23242 l 18.75586,-28.23242 h 15.88086 v 49.68457 h -15.18945 z"
       style="fill:#3555ae;fill-opacity:1;fill-rule:nonzero;stroke:none"
       id="path79424" />
    <path
       d="m 346.3584,624.95117 v -27.8623 c 0,-3.72998 0,-9.37451 -6.85059,-9.37451 -6.85254,0 -6.85254,5.64453 -6.85254,9.37451 v 27.8623 h -16.02636 v -29.67822 c 0,-17.23584 12.43945,-20.84619 22.8789,-20.84619 10.43457,0 22.8711,3.61035 22.8711,20.84619 v 29.67822 z"
       style="fill:#3555ae;fill-opacity:1;fill-rule:nonzero;stroke:none"
       id="path79426" />
    <path
       d="m 197.58789,624.95117 15.4541,-21.36572 0.003,21.36914 h -15.45703 v -0.003 z"
       style="fill:#3555ae;fill-opacity:1;fill-rule:nonzero;stroke:none"
       id="path79428" />
    <path
       d="m 232.91602,600.55029 16.63183,24.4043 H 231.76367 L 215.2002,600.60107 233.52832,575.2666 h 17.71387 z"
       style="fill:#3555ae;fill-opacity:1;fill-rule:nonzero;stroke:none"
       id="path79430" />
    <path
       d="m 197.58594,575.2666 h 15.33691 l -15.33691,21.19873 z"
       style="fill:#3555ae;fill-opacity:1;fill-rule:nonzero;stroke:none"
       id="path79432" />
    <path
       d="m 197.58789,522.38525 h 1.37109 v -3.16796 h 0.0332 l 2.12793,3.16796 h 1.57617 l -2.53906,-3.52295 2.73925,-3.95312 h -1.66113 l -2.24316,3.51318 h -0.0332 v -3.51318 h -1.37109 z"
       style="fill:#3555ae;fill-opacity:1;fill-rule:nonzero;stroke:none"
       id="path79434" />
    <path
       d="m 205.63379,517.76221 1.02246,3.49218 h 0.0225 l 0.94629,-3.49218 h -1.99121 m 2.80176,-2.85303 h 1.41504 l -2.40918,7.47607 h -1.50098 l -2.50684,-7.47607 h 1.37012 l 0.53809,1.79736 h 2.57031 z"
       style="fill:#3555ae;fill-opacity:1;fill-rule:nonzero;stroke:none"
       id="path79436" />
    <path
       d="m 211.12891,522.38525 h 1.62597 l 2.48438,-5.8706 h 0.0225 v 5.8706 h 1.24316 v -7.47607 h -1.6416 l -2.47461,5.83301 h -0.0205 v -5.83301 h -1.23925 v 7.47607 z"
       style="fill:#3555ae;fill-opacity:1;fill-rule:nonzero;stroke:none"
       id="path79438" />
    <path
       d="m 221.48926,519.10156 h 2.41699 v -3.9126 c -0.38672,-0.20361 -1.04883,-0.38427 -2.02148,-0.38427 -2.39942,0 -3.67969,1.62353 -3.67969,3.84326 0,2.22217 1.28027,3.84619 3.67969,3.84619 0.85449,0 1.52539,-0.19531 1.81543,-0.32031 l -0.0723,-1.23096 c -0.4375,0.27002 -1.03906,0.45361 -1.72266,0.45361 -1.458,0 -2.24023,-1.19189 -2.24023,-2.74853 0,-1.68213 0.75976,-2.75049 2.16504,-2.75049 0.31933,0 0.6084,0.0601 0.79004,0.13525 v 2.01075 h -1.13086 v 1.0581 z"
       style="fill:#3555ae;fill-opacity:1;fill-rule:nonzero;stroke:none"
       id="path79440" />
    <path
       d="m 229.56543,521.04297 h -0.0225 l -1.18359,-6.13379 h -1.61231 l -1.51269,7.47607 h 1.29003 l 1.0459,-5.76367 h 0.0205 l 1.125,5.76367 h 1.6709 l 1.12012,-5.76367 h 0.0205 l 1.0918,5.76367 h 1.23926 l -1.54004,-7.47607 h -1.64063 l -1.1123,6.13379 z"
       style="fill:#3555ae;fill-opacity:1;fill-rule:nonzero;stroke:none"
       id="path79442" />
    <path
       d="m 236.15625,518.64795 c 0,2.05957 0.69434,2.79346 1.56445,2.79346 0.86133,0 1.56153,-0.73389 1.56153,-2.79346 0,-2.05811 -0.7002,-2.79346 -1.56153,-2.79346 -0.87011,0 -1.56445,0.73535 -1.56445,2.79346 m -1.41602,0 c 0,-2.69043 1.42579,-3.84326 2.98047,-3.84326 1.55078,0 2.97364,1.15283 2.97364,3.84326 0,2.68896 -1.42286,3.84619 -2.97364,3.84619 -1.55468,0 -2.98047,-1.15723 -2.98047,-3.84619 z"
       style="fill:#3555ae;fill-opacity:1;fill-rule:nonzero;stroke:none"
       id="path79444" />
    <path
       d="m 242.40137,522.38525 h 1.625 l 2.48828,-5.8706 h 0.0225 v 5.8706 h 1.24219 v -7.47607 h -1.64063 l -2.47558,5.83301 h -0.0195 v -5.83301 h -1.24218 v 7.47607 z"
       style="fill:#3555ae;fill-opacity:1;fill-rule:nonzero;stroke:none"
       id="path79446" />
    <path
       d="m 252.98535,522.38525 h 1.62988 l 2.48536,-5.8706 h 0.0205 v 5.8706 h 1.24414 v -7.47607 h -1.64062 l -2.47461,5.83301 h -0.0205 v -5.83301 h -1.24414 v 7.47607 z"
       style="fill:#3555ae;fill-opacity:1;fill-rule:nonzero;stroke:none"
       id="path79448" />
    <path
       d="m 261.83496,517.76221 1.02637,3.49218 h 0.0205 l 0.94726,-3.49218 h -1.99414 m 2.80567,-2.85303 h 1.41113 l -2.40528,7.47607 h -1.50097 l -2.50684,-7.47607 h 1.36719 l 0.53809,1.79736 h 2.57226 z"
       style="fill:#3555ae;fill-opacity:1;fill-rule:nonzero;stroke:none"
       id="path79450" />
    <path
       d="m 267.85352,521.29346 h -1.67286 v 1.09179 h 4.70801 v -1.09179 h -1.66211 v -6.38428 h -1.37304 z"
       style="fill:#3555ae;fill-opacity:1;fill-rule:nonzero;stroke:none"
       id="path79452" />
    <path
       d="m 272.34668,522.38525 h 1.37207 v -7.47607 h -1.37207 z"
       style="fill:#3555ae;fill-opacity:1;fill-rule:nonzero;stroke:none"
       id="path79454" />
    <path
       d="m 276.85449,518.64795 c 0,2.05957 0.69629,2.79346 1.56446,2.79346 0.86621,0 1.56543,-0.73389 1.56543,-2.79346 0,-2.05811 -0.69922,-2.79346 -1.56543,-2.79346 -0.86817,0 -1.56446,0.73535 -1.56446,2.79346 m -1.41211,0 c 0,-2.69043 1.41992,-3.84326 2.97657,-3.84326 1.55468,0 2.97851,1.15283 2.97851,3.84326 0,2.68896 -1.42383,3.84619 -2.97851,3.84619 -1.55665,0 -2.97657,-1.15723 -2.97657,-3.84619 z"
       style="fill:#3555ae;fill-opacity:1;fill-rule:nonzero;stroke:none"
       id="path79456" />
    <path
       d="m 283.09961,522.38525 h 1.62891 l 2.48535,-5.8706 h 0.0215 v 5.8706 h 1.24317 v -7.47607 h -1.6377 l -2.47559,5.83301 h -0.0225 v -5.83301 h -1.24316 v 7.47607 z"
       style="fill:#3555ae;fill-opacity:1;fill-rule:nonzero;stroke:none"
       id="path79458" />
    <path
       d="m 291.95117,517.76221 1.02344,3.49218 h 0.0225 l 0.94531,-3.49218 h -1.99121 m 2.80078,-2.85303 h 1.41895 l -2.41211,7.47607 h -1.49512 l -2.51269,-7.47607 h 1.37597 l 0.53223,1.79736 h 2.57227 z"
       style="fill:#3555ae;fill-opacity:1;fill-rule:nonzero;stroke:none"
       id="path79460" />
    <path
       d="m 297.39355,522.38525 h 1.36817 v -6.38427 h 2.46875 v -1.0918 h -3.83692 z"
       style="fill:#3555ae;fill-opacity:1;fill-rule:nonzero;stroke:none"
       id="path79462" />
    <path
       d="m 307.16113,522.38525 v -4.84033 c 0,-1.24902 0.37891,-1.64746 1.18067,-1.64746 0.77929,0 1.16601,0.39844 1.16601,1.64746 v 4.84033 h 1.37305 v -4.84033 c 0,-1.96631 -1.1377,-2.74023 -2.53906,-2.74023 -1.41602,0 -2.55176,0.77392 -2.55176,2.74023 v 4.84033 z"
       style="fill:#3555ae;fill-opacity:1;fill-rule:nonzero;stroke:none"
       id="path79464" />
    <path
       d="m 312.82227,522.38525 h 1.62304 l 2.48731,-5.8706 h 0.0195 v 5.8706 h 1.24707 v -7.47607 h -1.6416 l -2.47168,5.83301 h -0.0244 v -5.83301 h -1.23925 v 7.47607 z"
       style="fill:#3555ae;fill-opacity:1;fill-rule:nonzero;stroke:none"
       id="path79466" />
    <path
       d="m 320.20508,522.38525 h 1.37793 v -7.47607 h -1.37793 z"
       style="fill:#3555ae;fill-opacity:1;fill-rule:nonzero;stroke:none"
       id="path79468" />
    <path
       d="m 322.90234,522.38525 h 1.47852 l 1.50684,-5.76367 h 0.0195 l 1.55664,5.76367 h 1.41015 l -2.27734,-7.47607 h -1.44336 l -2.25098,7.47607 z"
       style="fill:#3555ae;fill-opacity:1;fill-rule:nonzero;stroke:none"
       id="path79470" />
    <path
       d="m 330.18945,522.38525 h 3.92676 v -1.09179 h -2.5625 v -1.98828 h 2.42383 v -1.09864 h -2.42383 v -2.20556 h 2.6709 v -1.0918 h -4.03516 z"
       style="fill:#3555ae;fill-opacity:1;fill-rule:nonzero;stroke:none"
       id="path79472" />
    <path
       d="m 337.27637,519.13086 v 2.20605 h 0.55761 c 0.77149,0 1.21973,-0.21045 1.21973,-1.06836 0,-0.76025 -0.48926,-1.13769 -1.21973,-1.13769 h -0.55761 m -1.37012,-4.22168 h 1.37012 v 3.2124 h 0.30957 c 0.50586,0 0.86035,-0.19238 1.04101,-0.78125 l 0.73828,-2.43115 h 1.45801 l -0.97363,2.85303 c -0.2334,0.69189 -0.54785,0.82177 -0.82715,0.86474 v 0.0322 c 0.83887,0.12793 1.44727,0.78662 1.44727,1.75732 0,1.36719 -0.89942,1.96875 -2.22754,1.96875 h -2.33594 v -7.47607 z"
       style="fill:#3555ae;fill-opacity:1;fill-rule:nonzero;stroke:none"
       id="path79474" />
    <path
       d="m 342.25488,516.35303 c 0.26856,-0.16699 0.85938,-0.45557 1.58887,-0.45557 0.59863,0 1.1377,0.32471 1.1377,1.07813 0,0.53613 -0.31348,0.77246 -0.9795,1.13476 l -0.69336,0.38721 c -0.74023,0.40918 -1.22265,0.99951 -1.22265,1.96191 0,1.33545 1.10351,2.03467 2.35644,2.03467 0.79688,0 1.35059,-0.20361 1.56641,-0.27051 l -0.0654,-1.13769 c -0.33301,0.12695 -0.76856,0.31054 -1.40332,0.31054 -0.68652,0 -1.03711,-0.35351 -1.03711,-0.87304 0,-0.55811 0.37402,-0.77246 0.79199,-1.00684 l 0.80469,-0.44824 c 0.87988,-0.49561 1.29492,-0.96924 1.29492,-2.01611 0,-1.51807 -1.08203,-2.24756 -2.50879,-2.24756 -0.74902,0 -1.33008,0.10449 -1.70605,0.33105 l 0.0752,1.21729 z"
       style="fill:#3555ae;fill-opacity:1;fill-rule:nonzero;stroke:none"
       id="path79476" />
    <path
       d="m 348.14941,522.38525 h 1.3711 v -7.47607 h -1.3711 z"
       style="fill:#3555ae;fill-opacity:1;fill-rule:nonzero;stroke:none"
       id="path79478" />
    <path
       d="m 352.64648,521.29346 h -1.66894 v 1.09179 h 4.70605 v -1.09179 h -1.66406 v -6.38428 h -1.37305 z"
       style="fill:#3555ae;fill-opacity:1;fill-rule:nonzero;stroke:none"
       id="path79480" />
    <path
       d="m 358.62891,517.90723 -2.20801,4.47802 h 1.47558 l 1.45704,-2.98535 1.37402,2.98535 h 1.48047 l -2.20996,-4.50732 v -2.96875 h -1.36914 z"
       style="fill:#3555ae;fill-opacity:1;fill-rule:nonzero;stroke:none"
       id="path79482" />
    <path
       d="m 197.58789,557.51514 v -2.31446 h 12.47754 l -0.0508,-0.23388 c -1.01074,-5.17041 -6.07422,-8.13233 -13.9082,-8.13233 0,0 -0.083,0 -0.14551,0 0.24609,-0.43603 1.12597,-2.00244 1.21289,-2.1582 0.0107,0 0.0332,0 0.0332,0 10.78711,0 17.41797,4.33594 17.73731,11.60205 v 1.23682 h -17.35645 z"
       style="fill:#3555ae;fill-opacity:1;fill-rule:nonzero;stroke:none"
       id="path79484" />
    <path
       d="m 223.99707,550.31152 h 3.20898 v 2.31592 h -3.20898 v 6.0127 h -4.34766 v -16.59278 l -0.24902,0.1001 c -2.04394,0.81885 -4.67285,1.24219 -7.60059,1.24219 -7.63378,0 -12.20117,-2.64307 -12.20117,-7.06152 0,-4.41553 4.56739,-7.05274 12.20117,-7.05274 7.63086,0 12.19727,2.63721 12.19727,7.05274 v 13.98339 m -12.13281,-18.7666 c -4.85449,0 -7.75391,1.78516 -7.75391,4.78321 0,3.00488 2.89942,4.7915 7.75391,4.7915 4.85644,0 7.75293,-1.78662 7.75293,-4.7915 0,-2.99805 -2.89649,-4.78321 -7.75293,-4.78321 z"
       style="fill:#3555ae;fill-opacity:1;fill-rule:nonzero;stroke:none"
       id="path79486" />
    <path
       d="m 242.5625,558.64014 c -4.76172,0 -9.57715,-1.80176 -9.57715,-5.82373 0,-4.02246 4.81543,-5.82325 9.57715,-5.82325 4.76855,0 9.57813,1.80079 9.57813,5.82325 0,4.02197 -4.80958,5.82373 -9.57813,5.82373 m 0,-9.42041 c -2.52246,0 -5.22949,0.9458 -5.22949,3.59668 0,2.65429 2.70703,3.59277 5.22949,3.59277 2.53418,0 5.23633,-0.93848 5.23633,-3.59277 0,-2.65088 -2.70215,-3.59668 -5.23633,-3.59668 z"
       style="fill:#3555ae;fill-opacity:1;fill-rule:nonzero;stroke:none"
       id="path79488" />
    <path
       d="m 236.75098,530.11084 h 23.41797 v 28.5293 h -4.34668 v -13.13965 h -23.99805 v -2.30322 h 8.37988 v -4.38086 h 4.3418 v 4.38086 h 11.27637 v -2.56202 h -7.18848 v -2.30322 h 7.18848 V 532.4126 H 239.0791 v 5.79687 h -4.34375 v -5.74414 c 0,-1.29638 0.89844,-2.35449 2.01563,-2.35449 z"
       style="fill:#3555ae;fill-opacity:1;fill-rule:nonzero;stroke:none"
       id="path79490" />
    <path
       d="m 316.64844,554.11719 -0.30957,0.33447 h 3.18652 v 2.30566 h -7.43555 v 2.81836 h -4.4707 v -2.81836 h -7.28223 v -2.30566 h 3.29004 l -0.30078,-0.33447 c -1.16797,-1.24756 -1.78613,-2.771 -1.78613,-4.41992 0,-4.08399 3.54394,-7.05127 8.44141,-7.05127 4.8125,0 8.45214,3.02978 8.45214,7.05127 0,1.64892 -0.62011,3.17236 -1.78515,4.41992 m -6.66699,-9.24463 c -2.36915,0 -4.1709,2.0791 -4.1709,4.82471 0,2.76269 1.80175,4.83642 4.1709,4.83642 2.70703,0 4.16894,-2.48584 4.16894,-4.83642 0,-2.79004 -1.75293,-4.82471 -4.16894,-4.82471 z"
       style="fill:#3555ae;fill-opacity:1;fill-rule:nonzero;stroke:none"
       id="path79492" />
    <path
       d="m 330.55664,552.62451 h -3.20508 v 6.01563 h -4.34668 v -18.05518 h -20.40136 v -2.30029 h 20.40136 v -8.42188 h 4.34668 v 20.44873 h 3.20508 z"
       style="fill:#3555ae;fill-opacity:1;fill-rule:nonzero;stroke:none"
       id="path79494" />
    <path
       d="m 360.41992,557.1333 h -24.47168 v -2.30713 h 20.12989 v -21.15332 h -3.96583 v 11.43213 h -4.34863 v -11.43213 h -4.15527 v 11.43213 h -4.35156 v -11.43213 h -4.92481 v -2.30762 h 27.89649 v 2.30762 h -1.8086 z"
       style="fill:#3555ae;fill-opacity:1;fill-rule:nonzero;stroke:none"
       id="path79496" />
    <path
       d="m 294.31641,529.86279 v 28.77735 h -4.1836 v -8.64746 h -2.12109 v 8.64746 h -4.18262 v -18.05811 h -11.66504 v 14.61865 h 8.03809 v 2.31446 h -12.38477 v -16.87989 c 0,-1.29785 0.89746,-2.35058 2.0127,-2.35058 h 13.99902 v -8.42188 h 4.18262 v 17.67334 h 2.12109 v -17.67334 z"
       style="fill:#3555ae;fill-opacity:1;fill-rule:nonzero;stroke:none"
       id="path79498" />
    <path
       d="m 115.75293,431.71777 6.28711,-8.68896 8.68945,6.28564 -6.28515,8.68897 z"
       style="fill:#f25c19;fill-opacity:1;fill-rule:nonzero;stroke:none"
       id="path79500" />
    <path
       d="m 195.04102,404.27734 -12.00977,18.75147 h -10.23633 v -31.91358 h 9.75293 v 18.13379 l 12.04883,-18.13379 h 10.2002 v 31.91358 h -9.75586 z"
       style="fill:#3555ae;fill-opacity:1;fill-rule:nonzero;stroke:none"
       id="path79502" />
    <path
       d="m 230.83301,423.02881 v -17.896 c 0,-2.39843 0,-6.02148 -4.39942,-6.02148 -4.40234,0 -4.40234,3.62305 -4.40234,6.02148 v 17.896 H 211.7373 v -19.06592 c 0,-11.06738 7.98926,-13.39062 14.69629,-13.39062 6.7002,0 14.69043,2.32324 14.69043,13.39062 v 19.06592 z"
       style="fill:#3555ae;fill-opacity:1;fill-rule:nonzero;stroke:none"
       id="path79504" />
    <path
       d="m 135.27539,423.02881 9.92676,-13.72412 0.002,13.72656 h -9.92871 v -0.002 z"
       style="fill:#3555ae;fill-opacity:1;fill-rule:nonzero;stroke:none"
       id="path79506" />
    <path
       d="m 157.96582,407.35449 10.68457,15.67676 h -11.42383 l -10.63867,-15.64258 11.77246,-16.27344 h 11.37793 z"
       style="fill:#3555ae;fill-opacity:1;fill-rule:nonzero;stroke:none"
       id="path79508" />
    <path
       d="m 135.27246,391.11523 h 9.85352 l -9.85352,13.61915 z"
       style="fill:#3555ae;fill-opacity:1;fill-rule:nonzero;stroke:none"
       id="path79510" />
    <path
       d="m 260.27441,383.23438 h 1.44727 v -3.33692 h 0.0332 l 2.24024,3.33692 h 1.66406 l -2.67578,-3.70997 2.88476,-4.16601 h -1.74902 l -2.36426,3.70117 h -0.0332 v -3.70117 h -1.44727 z"
       style="fill:#3555ae;fill-opacity:1;fill-rule:nonzero;stroke:none"
       id="path79512" />
    <path
       d="m 268.75391,378.36328 1.07714,3.68164 h 0.0225 l 0.99707,-3.68164 h -2.09668 m 2.95214,-3.00488 h 1.49122 l -2.54004,7.87598 h -1.58008 l -2.64356,-7.87598 h 1.44825 l 0.56543,1.89355 h 2.70703 z"
       style="fill:#3555ae;fill-opacity:1;fill-rule:nonzero;stroke:none"
       id="path79514" />
    <path
       d="m 274.54492,383.23438 h 1.71192 l 2.62011,-6.18555 h 0.0205 v 6.18555 h 1.31055 v -7.87598 h -1.72949 l -2.60645,6.14355 h -0.0225 v -6.14355 h -1.30469 v 7.87598 z"
       style="fill:#3555ae;fill-opacity:1;fill-rule:nonzero;stroke:none"
       id="path79516" />
    <path
       d="m 285.45898,379.77246 h 2.54688 v -4.11914 c -0.40723,-0.2168 -1.10547,-0.40918 -2.13184,-0.40918 -2.52734,0 -3.875,1.71289 -3.875,4.05176 0,2.34277 1.34766,4.05273 3.875,4.05273 0.90235,0 1.61133,-0.20312 1.91602,-0.33691 l -0.0791,-1.29492 c -0.45996,0.2832 -1.0918,0.47558 -1.81348,0.47558 -1.53711,0 -2.3584,-1.25879 -2.3584,-2.89648 0,-1.77344 0.79883,-2.89649 2.2793,-2.89649 0.33594,0 0.63965,0.0645 0.83301,0.14551 v 2.11621 h -1.19239 z"
       style="fill:#3555ae;fill-opacity:1;fill-rule:nonzero;stroke:none"
       id="path79518" />
    <path
       d="m 293.96777,381.81934 h -0.0225 l -1.24609,-6.46094 h -1.70215 l -1.5918,7.87598 h 1.36036 l 1.10058,-6.07422 h 0.0225 l 1.1836,6.07422 h 1.76269 l 1.17969,-6.07422 h 0.0234 l 1.14843,6.07422 h 1.30469 l -1.62012,-7.87598 h -1.72949 l -1.17383,6.46094 z"
       style="fill:#3555ae;fill-opacity:1;fill-rule:nonzero;stroke:none"
       id="path79520" />
    <path
       d="m 300.91211,379.2959 c 0,2.17285 0.73242,2.94433 1.65137,2.94433 0.90625,0 1.64355,-0.77148 1.64355,-2.94433 0,-2.16895 -0.7373,-2.94043 -1.64355,-2.94043 -0.91895,0 -1.65137,0.77148 -1.65137,2.94043 m -1.49023,0 c 0,-2.83203 1.50292,-4.05176 3.1416,-4.05176 1.63183,0 3.13281,1.21973 3.13281,4.05176 0,2.83594 -1.50098,4.05273 -3.13281,4.05273 -1.63868,0 -3.1416,-1.21679 -3.1416,-4.05273 z"
       style="fill:#3555ae;fill-opacity:1;fill-rule:nonzero;stroke:none"
       id="path79522" />
    <path
       d="m 307.49316,383.23438 h 1.71289 l 2.62305,-6.18555 h 0.0225 v 6.18555 h 1.3086 v -7.87598 h -1.72657 l -2.60937,6.14355 h -0.0225 v -6.14355 h -1.3086 z"
       style="fill:#3555ae;fill-opacity:1;fill-rule:nonzero;stroke:none"
       id="path79524" />
    <path
       d="m 318.64648,383.23438 h 1.71582 l 2.61915,-6.18555 h 0.0205 v 6.18555 h 1.3125 v -7.87598 h -1.72949 l -2.60742,6.14355 h -0.0225 v -6.14355 h -1.3086 v 7.87598 z"
       style="fill:#3555ae;fill-opacity:1;fill-rule:nonzero;stroke:none"
       id="path79526" />
    <path
       d="m 327.9707,378.36328 1.08106,3.68164 h 0.0234 l 0.99707,-3.68164 h -2.10157 m 2.95801,-3.00488 h 1.48731 l -2.53711,7.87598 h -1.58106 l -2.6416,-7.87598 h 1.44141 l 0.5664,1.89355 h 2.70996 z"
       style="fill:#3555ae;fill-opacity:1;fill-rule:nonzero;stroke:none"
       id="path79528" />
    <path
       d="m 334.3125,382.08398 h -1.76172 v 1.1504 h 4.95801 v -1.1504 h -1.75098 v -6.72558 h -1.44531 z"
       style="fill:#3555ae;fill-opacity:1;fill-rule:nonzero;stroke:none"
       id="path79530" />
    <path
       d="m 339.04492,383.23438 h 1.44434 v -7.87598 h -1.44434 z"
       style="fill:#3555ae;fill-opacity:1;fill-rule:nonzero;stroke:none"
       id="path79532" />
    <path
       d="m 343.79492,379.2959 c 0,2.17285 0.73242,2.94433 1.64844,2.94433 0.91406,0 1.64941,-0.77148 1.64941,-2.94433 0,-2.16895 -0.73535,-2.94043 -1.64941,-2.94043 -0.91602,0 -1.64844,0.77148 -1.64844,2.94043 m -1.48535,0 c 0,-2.83203 1.49609,-4.05176 3.13379,-4.05176 1.63769,0 3.13867,1.21973 3.13867,4.05176 0,2.83594 -1.50098,4.05273 -3.13867,4.05273 -1.6377,0 -3.13379,-1.21679 -3.13379,-4.05273 z"
       style="fill:#3555ae;fill-opacity:1;fill-rule:nonzero;stroke:none"
       id="path79534" />
    <path
       d="m 350.37598,383.23438 h 1.71582 l 2.62011,-6.18555 h 0.0225 v 6.18555 h 1.30859 v -7.87598 h -1.72461 l -2.61133,6.14355 h -0.0195 v -6.14355 h -1.31152 v 7.87598 z"
       style="fill:#3555ae;fill-opacity:1;fill-rule:nonzero;stroke:none"
       id="path79536" />
    <path
       d="m 359.70313,378.36328 1.07714,3.68164 h 0.0234 l 0.99609,-3.68164 h -2.09667 m 2.95312,-3.00488 h 1.49219 l -2.54102,7.87598 h -1.57617 l -2.64551,-7.87598 h 1.44824 l 0.5625,1.89355 h 2.70997 z"
       style="fill:#3555ae;fill-opacity:1;fill-rule:nonzero;stroke:none"
       id="path79538" />
    <path
       d="m 365.43945,383.23438 h 1.44043 v -6.72559 h 2.59766 v -1.15039 h -4.03809 z"
       style="fill:#3555ae;fill-opacity:1;fill-rule:nonzero;stroke:none"
       id="path79540" />
    <path
       d="m 375.73047,383.23438 v -5.09961 c 0,-1.31446 0.39551,-1.73536 1.24219,-1.73536 0.82129,0 1.22754,0.4209 1.22754,1.73536 v 5.09961 h 1.44824 v -5.09961 c 0,-2.07422 -1.2002,-2.89063 -2.67578,-2.89063 -1.49317,0 -2.6875,0.81641 -2.6875,2.89063 v 5.09961 z"
       style="fill:#3555ae;fill-opacity:1;fill-rule:nonzero;stroke:none"
       id="path79542" />
    <path
       d="m 381.69238,383.23438 h 1.71289 l 2.61817,-6.18555 h 0.0225 v 6.18555 h 1.31152 v -7.87598 h -1.72656 l -2.60645,6.14355 h -0.0225 v -6.14355 h -1.30957 z"
       style="fill:#3555ae;fill-opacity:1;fill-rule:nonzero;stroke:none"
       id="path79544" />
    <path
       d="m 389.47363,383.23438 h 1.45117 v -7.87598 h -1.45117 z"
       style="fill:#3555ae;fill-opacity:1;fill-rule:nonzero;stroke:none"
       id="path79546" />
    <path
       d="m 392.31152,383.23438 h 1.55957 l 1.58789,-6.07422 h 0.0225 l 1.63964,6.07422 h 1.48731 l -2.40039,-7.87598 h -1.52344 l -2.37305,7.87598 z"
       style="fill:#3555ae;fill-opacity:1;fill-rule:nonzero;stroke:none"
       id="path79548" />
    <path
       d="m 399.99023,383.23438 h 4.14063 v -1.1504 h -2.69824 v -2.09472 h 2.55078 v -1.15821 h -2.55078 v -2.32226 h 2.8125 v -1.15039 h -4.25489 z"
       style="fill:#3555ae;fill-opacity:1;fill-rule:nonzero;stroke:none"
       id="path79550" />
    <path
       d="m 407.45898,379.80566 v 2.32618 h 0.5879 c 0.81347,0 1.2871,-0.22364 1.2871,-1.12891 0,-0.80176 -0.51562,-1.19727 -1.2871,-1.19727 h -0.5879 m -1.44238,-4.44726 h 1.44238 v 3.38379 h 0.32618 c 0.53515,0 0.9082,-0.20313 1.09765,-0.82129 l 0.7793,-2.5625 h 1.53516 l -1.02539,3.00488 c -0.25098,0.72949 -0.57911,0.86621 -0.87208,0.91113 v 0.0332 c 0.88282,0.13672 1.52637,0.82715 1.52637,1.85449 0,1.43945 -0.94922,2.07227 -2.35058,2.07227 h -2.45899 v -7.87598 z"
       style="fill:#3555ae;fill-opacity:1;fill-rule:nonzero;stroke:none"
       id="path79552" />
    <path
       d="m 412.70605,376.87598 c 0.28418,-0.17578 0.90528,-0.47657 1.67383,-0.47657 0.63282,0 1.19727,0.33985 1.19727,1.13672 0,0.56543 -0.32813,0.81348 -1.03027,1.19434 l -0.73243,0.40723 c -0.77929,0.43164 -1.28613,1.05273 -1.28613,2.06933 0,1.40625 1.16406,2.1416 2.48438,2.1416 0.83789,0 1.42285,-0.21484 1.64843,-0.28125 l -0.0693,-1.20312 c -0.34864,0.13574 -0.81055,0.32812 -1.47657,0.32812 -0.72363,0 -1.09472,-0.37304 -1.09472,-0.91601 0,-0.59082 0.39258,-0.81836 0.83301,-1.06348 l 0.84961,-0.47363 c 0.9248,-0.52149 1.36425,-1.01953 1.36425,-2.12207 0,-1.60156 -1.13867,-2.37305 -2.64258,-2.37305 -0.79101,0 -1.40136,0.11426 -1.79687,0.35059 l 0.0781,1.28125 z"
       style="fill:#3555ae;fill-opacity:1;fill-rule:nonzero;stroke:none"
       id="path79554" />
    <path
       d="m 418.91699,383.23438 h 1.44531 v -7.87598 h -1.44531 z"
       style="fill:#3555ae;fill-opacity:1;fill-rule:nonzero;stroke:none"
       id="path79556" />
    <path
       d="m 423.65723,382.08398 h -1.76075 v 1.1504 h 4.95704 v -1.1504 h -1.75098 v -6.72558 h -1.44531 z"
       style="fill:#3555ae;fill-opacity:1;fill-rule:nonzero;stroke:none"
       id="path79558" />
    <path
       d="m 429.95605,378.5166 -2.32226,4.71778 h 1.55371 l 1.53516,-3.14454 1.44824,3.14454 h 1.55957 l -2.3291,-4.74903 v -3.12695 h -1.44532 z"
       style="fill:#3555ae;fill-opacity:1;fill-rule:nonzero;stroke:none"
       id="path79560" />
    <path
       d="m 260.27441,420.24902 v -2.43945 h 13.14649 l -0.0498,-0.24512 c -1.06836,-5.44726 -6.40234,-8.5664 -14.65722,-8.5664 0,0 -0.0879,0 -0.15332,0 0.25879,-0.46192 1.18652,-2.11133 1.27539,-2.27539 0.0137,0 0.0391,0 0.0391,0 11.36523,0 18.35352,4.56738 18.6875,12.22363 v 1.30273 h -18.28809 z"
       style="fill:#3555ae;fill-opacity:1;fill-rule:nonzero;stroke:none"
       id="path79562" />
    <path
       d="m 288.10059,412.66016 h 3.38086 v 2.43945 h -3.38086 v 6.33301 h -4.58106 v -17.48145 l -0.26172,0.10645 c -2.15234,0.86035 -4.92383,1.30859 -8.00781,1.30859 -8.04492,0 -12.85547,-2.78223 -12.85547,-7.43848 0,-4.65332 4.81055,-7.43066 12.85547,-7.43066 8.04004,0 12.85059,2.77734 12.85059,7.43066 v 14.73243 m -12.78321,-19.77344 c -5.11425,0 -8.16797,1.87988 -8.16797,5.04101 0,3.16407 3.05372,5.0459 8.16797,5.0459 5.11914,0 8.16895,-1.88183 8.16895,-5.0459 0,-3.16113 -3.04981,-5.04101 -8.16895,-5.04101 z"
       style="fill:#3555ae;fill-opacity:1;fill-rule:nonzero;stroke:none"
       id="path79564" />
    <path
       d="m 307.66504,421.43262 c -5.01856,0 -10.09082,-1.89649 -10.09082,-6.13477 0,-4.23926 5.07226,-6.13281 10.09082,-6.13281 5.02344,0 10.09082,1.89355 10.09082,6.13281 0,4.23828 -5.06738,6.13477 -10.09082,6.13477 m 0,-9.91992 c -2.65918,0 -5.51074,0.99414 -5.51074,3.78515 0,2.7959 2.85156,3.78711 5.51074,3.78711 2.66894,0 5.51758,-0.99121 5.51758,-3.78711 0,-2.79101 -2.84864,-3.78515 -5.51758,-3.78515 z"
       style="fill:#3555ae;fill-opacity:1;fill-rule:nonzero;stroke:none"
       id="path79566" />
    <path
       d="m 301.53809,391.375 h 24.67773 v 30.05762 h -4.58105 V 407.5918 h -25.28516 v -2.43164 h 8.8291 v -4.61133 h 4.5752 v 4.61133 h 11.88086 v -2.69825 h -7.57227 v -2.42578 h 7.57227 v -6.23535 h -17.64258 v 6.10938 h -4.57617 v -6.05371 c 0,-1.36817 0.94726,-2.48145 2.12207,-2.48145 z"
       style="fill:#3555ae;fill-opacity:1;fill-rule:nonzero;stroke:none"
       id="path79568" />
    <path
       d="m 385.72559,416.6709 -0.32618,0.35058 h 3.35645 v 2.43165 h -7.83398 v 2.96826 h -4.70997 v -2.96826 h -7.67382 v -2.43165 h 3.46875 l -0.32032,-0.35058 c -1.22851,-1.31445 -1.88281,-2.92188 -1.88281,-4.65723 0,-4.30469 3.73438,-7.42969 8.89551,-7.42969 5.07129,0 8.90625,3.18848 8.90625,7.42969 0,1.73535 -0.65137,3.34278 -1.87988,4.65723 m -7.02637,-9.74512 c -2.49512,0 -4.39453,2.19434 -4.39453,5.08789 0,2.91113 1.89941,5.09375 4.39453,5.09375 2.85449,0 4.39453,-2.61426 4.39453,-5.09375 0,-2.94043 -1.84668,-5.08789 -4.39453,-5.08789 z"
       style="fill:#3555ae;fill-opacity:1;fill-rule:nonzero;stroke:none"
       id="path79570" />
    <path
       d="m 400.37988,415.09668 h -3.38086 v 6.33594 h -4.57617 v -19.01856 h -21.49414 v -2.42578 h 21.49414 v -8.87305 h 4.57617 v 21.54493 h 3.38086 z"
       style="fill:#3555ae;fill-opacity:1;fill-rule:nonzero;stroke:none"
       id="path79572" />
    <path
       d="m 431.8418,419.85059 h -25.78028 v -2.43653 h 21.20703 v -22.28515 h -4.17675 v 12.04199 h -4.58203 v -12.04199 h -4.38086 v 12.04199 h -4.58106 v -12.04199 h -5.18847 v -2.43164 h 29.39257 v 2.43164 h -1.91015 z"
       style="fill:#3555ae;fill-opacity:1;fill-rule:nonzero;stroke:none"
       id="path79574" />
    <path
       d="m 362.19531,391.11523 v 30.31739 h -4.40722 v -9.10938 h -2.23536 v 9.10938 h -4.4082 v -19.02344 h -12.29199 v 15.40039 h 8.4707 v 2.43945 h -13.0498 v -17.78418 c 0,-1.36523 0.94629,-2.47656 2.12011,-2.47656 h 14.75098 v -8.87305 h 4.4082 v 18.61817 h 2.23536 v -18.61817 z"
       style="fill:#3555ae;fill-opacity:1;fill-rule:nonzero;stroke:none"
       id="path79576" />
  </g>
</svg>
