<?xml version="1.0" encoding="UTF-8" standalone="no"?>
<!-- Created with Inkscape (http://www.inkscape.org/) -->

<svg
   version="1.1"
   id="svg288"
   width="793.70135"
   height="1122.52"
   viewBox="0 0 793.70135 1122.52"
   sodipodi:docname="경상국립대학교.svg"
   inkscape:version="1.2.1 (9c6d41e410, 2022-07-14)"
   xmlns:inkscape="http://www.inkscape.org/namespaces/inkscape"
   xmlns:sodipodi="http://sodipodi.sourceforge.net/DTD/sodipodi-0.dtd"
   xmlns="http://www.w3.org/2000/svg"
   xmlns:svg="http://www.w3.org/2000/svg">
  <defs
     id="defs292">
    <clipPath
       clipPathUnits="userSpaceOnUse"
       id="clipPath312">
      <path
         d="M 0,841.89 H 595.276 V 0 H 0 Z"
         id="path310" />
    </clipPath>
  </defs>
  <sodipodi:namedview
     id="namedview290"
     pagecolor="#ffffff"
     bordercolor="#000000"
     borderopacity="0.25"
     inkscape:showpageshadow="2"
     inkscape:pageopacity="0.0"
     inkscape:pagecheckerboard="true"
     inkscape:deskcolor="#d1d1d1"
     showgrid="false"
     inkscape:zoom="1.6819299"
     inkscape:cx="174.20465"
     inkscape:cy="268.73891"
     inkscape:window-width="2560"
     inkscape:window-height="1494"
     inkscape:window-x="-11"
     inkscape:window-y="-11"
     inkscape:window-maximized="1"
     inkscape:current-layer="g308">
    <inkscape:page
       x="0"
       y="0"
       id="page294"
       width="793.70135"
       height="1122.52" />
  </sodipodi:namedview>
  <g
     id="g296"
     inkscape:groupmode="layer"
     inkscape:label="Page 1"
     transform="matrix(1.3333333,0,0,-1.3333333,0,1122.52)">
    <g
       id="g306">
      <g
         id="g308"
         clip-path="url(#clipPath312)">
        <g
           id="g910"
           transform="translate(199.7266,599.1735)" />
        <g
           id="g816"
           transform="translate(296.53481,607.21478)"
           inkscape:export-filename="..\OneDrive\바탕 화면\잉스케이프-로고\경상국립대학교.png"
           inkscape:export-xdpi="96"
           inkscape:export-ydpi="96">
          <path
             d="m 0,0 v -8.475 c 0,-11.073 -9.009,-20.082 -20.082,-20.082 -11.073,0 -20.082,9.009 -20.082,20.082 V 0 h -5.569 v -8.475 c 0,-14.144 11.506,-25.651 25.651,-25.651 14.145,0 25.652,11.507 25.652,25.651 v 3.158 h 16.084 v -44.376 h -195.977 v 44.376 h 16.34 c -0.209,-0.994 -0.256,-2.2 -0.256,-3.158 0,-14.144 11.508,-25.651 25.653,-25.651 14.144,0 25.651,11.507 25.651,25.651 v 0.356 h -26.007 v -5.318 h 19.747 c -2.12,-8.952 -10.266,-15.12 -19.391,-15.12 -11.074,0 -20.083,9.009 -20.083,20.082 0,2.764 0.558,5.448 1.657,7.977 L -150.795,0 h -29.098 V -55.011 H 27.225 V 0 Z"
             style="fill:#0098d8;fill-opacity:1;fill-rule:nonzero;stroke:none"
             id="path818" />
        </g>
        <path
           d="m 201.81591,607.21518 h -5.57 v -33.14 h 5.57 z"
           style="fill:#0098d8;fill-opacity:1;fill-rule:nonzero;stroke:none"
           id="path820" />
        <g
           id="g822"
           transform="translate(242.89421,574.07468)">
          <path
             d="M 0,0 V 33.14 H -5.569 V 8.521 L -30.187,33.14 h -7.878 L -4.925,0 Z"
             style="fill:#0098d8;fill-opacity:1;fill-rule:nonzero;stroke:none"
             id="path824" />
        </g>
        <path
           d="m 224.27691,526.71018 h 3.534 v 13.912 h -3.534 z"
           style="fill:#485157;fill-opacity:1;fill-rule:nonzero;stroke:none"
           id="path826" />
        <g
           id="g828"
           transform="translate(282.15201,518.18108)">
          <path
             d="m 0,0 h 24.161 v 2.947 h -9.039 v 9.578 H 11.588 V 2.947 H 8.56 v 9.578 H 5.026 V 2.947 H 0 Z"
             style="fill:#485157;fill-opacity:1;fill-rule:nonzero;stroke:none"
             id="path830" />
        </g>
        <g
           id="g832"
           transform="translate(151.06121,525.99748)">
          <path
             d="M 0,0 H 3.534 V 14.625 H 0 V 11.556 H -4.048 V 8.609 H 0 V 6.057 H -4.048 V 3.11 H 0 Z"
             style="fill:#485157;fill-opacity:1;fill-rule:nonzero;stroke:none"
             id="path834" />
        </g>
        <g
           id="g836"
           transform="translate(134.08811,528.29588)">
          <path
             d="m 0,0 1.466,-2.689 c 4.665,2.124 9.411,4.877 9.411,9.178 v 5.243 H 0.186 V 8.785 H 7.314 V 6.536 C 7.314,5.658 7.314,3.606 0,0"
             style="fill:#485157;fill-opacity:1;fill-rule:nonzero;stroke:none"
             id="path838" />
        </g>
        <g
           id="g840"
           transform="translate(146.35861,516.46718)">
          <path
             d="M 0,0 C -3.237,0 -5.207,1.095 -5.207,2.895 -5.207,4.694 -3.237,5.79 0,5.79 3.237,5.79 5.208,4.694 5.208,2.895 5.208,1.095 3.237,0 0,0 m 0,8.744 c -5.447,0 -8.761,-2.213 -8.761,-5.849 0,-3.637 3.314,-5.849 8.761,-5.849 5.447,0 8.762,2.212 8.762,5.849 0,3.636 -3.315,5.849 -8.762,5.849"
             style="fill:#485157;fill-opacity:1;fill-rule:nonzero;stroke:none"
             id="path842" />
        </g>
        <g
           id="g844"
           transform="translate(169.66811,516.46718)">
          <path
             d="M 0,0 C -3.236,0 -5.207,1.095 -5.207,2.895 -5.207,4.694 -3.236,5.79 0,5.79 3.237,5.79 5.208,4.694 5.208,2.895 5.208,1.095 3.237,0 0,0 m 0,8.744 c -5.446,0 -8.761,-2.213 -8.761,-5.849 0,-3.637 3.315,-5.849 8.761,-5.849 5.448,0 8.762,2.212 8.762,5.849 0,3.636 -3.314,5.849 -8.762,5.849"
             style="fill:#485157;fill-opacity:1;fill-rule:nonzero;stroke:none"
             id="path846" />
        </g>
        <g
           id="g848"
           transform="translate(174.37081,525.99748)">
          <path
             d="M 0,0 H 3.534 V 6.142 H 7.582 V 9.089 H 3.534 v 5.536 H 0 Z"
             style="fill:#485157;fill-opacity:1;fill-rule:nonzero;stroke:none"
             id="path850" />
        </g>
        <g
           id="g852"
           transform="translate(274.31411,526.42718)">
          <path
             d="M 0,0 H 3.534 V 5.712 H 7.582 V 8.659 H 3.534 v 5.536 H 0 Z"
             style="fill:#485157;fill-opacity:1;fill-rule:nonzero;stroke:none"
             id="path854" />
        </g>
        <path
           d="m 224.27691,516.61418 h -7.63 v 2.669 h 7.63 z m -11.164,-2.589 h 14.698 v 11.045 h -3.534 v -3.197 h -7.63 v 3.197 h -3.534 z"
           style="fill:#485157;fill-opacity:1;fill-rule:nonzero;stroke:none"
           id="path856" />
        <g
           id="g858"
           transform="translate(208.18721,526.80118)">
          <path
             d="M 0,0 H 11.815 V 2.804 H 3.534 v 2.589 h 8.281 v 8.055 H 0 V 10.644 H 8.281 V 8.197 H 0 Z"
             style="fill:#485157;fill-opacity:1;fill-rule:nonzero;stroke:none"
             id="path860" />
        </g>
        <g
           id="g862"
           transform="translate(231.83561,523.87198)">
          <path
             d="M 0,0 H 10.243 V 2.947 H 3.534 V 13.43 h 6.709 v 2.947 H 0 Z"
             style="fill:#485157;fill-opacity:1;fill-rule:nonzero;stroke:none"
             id="path864" />
        </g>
        <g
           id="g866"
           transform="translate(264.77311,529.28948)">
          <path
             d="m 0,0 c -1.798,0 -3.007,1.227 -3.007,3.053 0,1.826 1.209,3.054 3.007,3.054 1.798,0 3.007,-1.228 3.007,-3.054 C 3.007,1.227 1.798,0 0,0 m -7.584,7.439 h 3.157 L -4.583,7.306 C -5.835,6.247 -6.496,4.737 -6.496,2.942 c 0,-3.506 2.61,-5.861 6.496,-5.861 3.886,0 6.496,2.355 6.496,5.861 0,1.796 -0.661,3.305 -1.913,4.364 L 4.426,7.439 h 3.158 v 2.947 H 1.767 v 3.063 h -3.534 v -3.063 h -5.817 z"
             style="fill:#485157;fill-opacity:1;fill-rule:nonzero;stroke:none"
             id="path868" />
        </g>
        <g
           id="g870"
           transform="translate(250.82491,514.02488)">
          <path
             d="M 0,0 H 3.534 V 26.597 H 0 v -8.21 h -2.573 v 8.21 H -6.106 V 0 h 3.533 V 15.44 H 0 Z"
             style="fill:#485157;fill-opacity:1;fill-rule:nonzero;stroke:none"
             id="path872" />
        </g>
        <g
           id="g874"
           transform="translate(300.57001,524.80168)">
          <path
             d="m 0,0 h 3.534 v 14.874 h -19.04 V 12.067 H 0 Z"
             style="fill:#485157;fill-opacity:1;fill-rule:nonzero;stroke:none"
             id="path876" />
        </g>
        <g
           id="g878"
           transform="translate(274.31411,514.02488)">
          <path
             d="M 0,0 H 3.534 V 10.12 H -11.932 V 7.313 H 0 Z"
             style="fill:#485157;fill-opacity:1;fill-rule:nonzero;stroke:none"
             id="path880" />
        </g>
        <g
           id="g882"
           transform="translate(198.91031,514.02488)">
          <path
             d="m 0,0 h 3.535 v 9.833 h -8.056 v 3.71 H 6.19 v 2.939 h -3.3 v 9.521 h -16.755 v -2.939 h 13.22 v -6.582 h -15.876 v -2.939 h 8.465 v -3.71 h -5.809 V 6.894 H 0 Z"
             style="fill:#485157;fill-opacity:1;fill-rule:nonzero;stroke:none"
             id="path884" />
        </g>
        <g
           id="g886"
           transform="translate(156.77851,529.01898)">
          <path
             d="M 0,0 1.773,-2.729 C 4.5,-0.958 6.694,0.516 8.062,1.969 l 0.049,0.052 0.055,-0.046 5.506,-4.678 2.246,2.625 -6.066,5.154 0.012,0.045 c 0.203,0.779 0.302,1.647 0.302,2.654 v 3.234 H 6.528 V 7.775 C 6.528,5.04 6.249,4.063 0,0"
             style="fill:#485157;fill-opacity:1;fill-rule:nonzero;stroke:none"
             id="path888" />
        </g>
        <g
           id="g964"
           transform="translate(179.02121,540.62148)">
          <path
             d="M 0,0 H 1"
             style="fill:none;stroke:#595757;stroke-width:0.3;stroke-linecap:butt;stroke-linejoin:miter;stroke-miterlimit:10;stroke-dasharray:none;stroke-opacity:1"
             id="path966" />
        </g>
      </g>
    </g>
  </g>
</svg>
