<?xml version="1.0" encoding="UTF-8" standalone="no"?>
<!-- Created with Inkscape (http://www.inkscape.org/) -->

<svg
   version="1.1"
   id="svg208"
   width="1600"
   height="1600"
   viewBox="0 0 1600 1600"
   sodipodi:docname="단국대학교.svg"
   inkscape:version="1.2.1 (9c6d41e410, 2022-07-14)"
   xmlns:inkscape="http://www.inkscape.org/namespaces/inkscape"
   xmlns:sodipodi="http://sodipodi.sourceforge.net/DTD/sodipodi-0.dtd"
   xmlns="http://www.w3.org/2000/svg"
   xmlns:svg="http://www.w3.org/2000/svg">
  <defs
     id="defs212">
    <clipPath
       clipPathUnits="userSpaceOnUse"
       id="clipPath224">
      <path
         d="M 0,1200 H 1200 V 0 H 0 Z"
         id="path222" />
    </clipPath>
  </defs>
  <sodipodi:namedview
     id="namedview210"
     pagecolor="#ffffff"
     bordercolor="#000000"
     borderopacity="0.25"
     inkscape:showpageshadow="2"
     inkscape:pageopacity="0.0"
     inkscape:pagecheckerboard="true"
     inkscape:deskcolor="#d1d1d1"
     showgrid="false"
     inkscape:zoom="0.834386"
     inkscape:cx="612.42638"
     inkscape:cy="731.67575"
     inkscape:window-width="2560"
     inkscape:window-height="1494"
     inkscape:window-x="-11"
     inkscape:window-y="-11"
     inkscape:window-maximized="1"
     inkscape:current-layer="g216">
    <inkscape:page
       x="0"
       y="0"
       id="page214"
       width="1600"
       height="1600" />
  </sodipodi:namedview>
  <g
     id="g216"
     inkscape:groupmode="layer"
     inkscape:label="Page 1"
     transform="matrix(1.3333333,0,0,-1.3333333,0,1600)">
    <g
       id="g218">
      <g
         id="g220"
         clip-path="url(#clipPath224)">
        <g
           id="g226"
           transform="translate(503.436,438.1924)">
          <path
             d="m 0,0 v -5.309 c 0,-0.535 0.094,-0.992 0.28,-1.369 0.188,-0.373 0.416,-0.591 0.664,-0.694 0.06,-0.043 0.417,-0.079 1.046,-0.131 0.631,-0.043 0.958,-0.071 0.999,-0.071 0.027,0 0.362,0.028 0.992,0.071 0.629,0.052 0.967,0.088 0.998,0.131 0.29,0.147 0.538,0.215 0.758,0.215 0.222,0 0.337,0.298 0.337,0.9 0,0.548 -0.041,1.111 -0.095,1.687 -0.067,0.563 -0.175,1.087 -0.335,1.543 -0.222,0.829 -0.657,1.475 -1.3,1.928 C 3.686,-0.643 2.948,-0.107 2.13,0.496 -1.825,3.34 -4.397,5.447 -5.606,6.8 -6.798,8.153 -7.401,9.791 -7.401,11.72 v 3.38 c 0,2.519 0.811,4.396 2.44,5.618 1.635,1.218 3.66,1.837 6.1,1.888 h 1.02 0.969 1.048 0.992 c 2.406,-0.051 4.392,-0.75 5.959,-2.13 1.569,-1.381 2.347,-3.273 2.347,-5.646 V 8.209 H 6.261 v 3.99 c 0,1.33 -0.095,2.227 -0.282,2.687 -0.194,0.468 -0.462,0.789 -0.811,0.964 -0.032,0.051 -0.369,0.091 -1.018,0.147 -0.653,0.039 -1.008,0.063 -1.067,0.063 -0.026,0 -0.335,0.02 -0.899,0.072 -0.575,0.051 -0.972,0 -1.192,-0.135 C 0.71,15.806 0.454,15.659 0.234,15.54 0.012,15.434 -0.095,14.977 -0.095,14.199 c 0,-0.548 -0.014,-0.829 -0.026,-0.86 -0.014,-0.025 -0.014,-0.235 0.026,-0.655 C 0,11.493 0.716,10.47 2.063,9.656 3.406,8.823 5.658,7.359 8.822,5.241 9.833,4.562 10.898,3.436 11.998,1.864 c 1.113,-1.551 1.664,-2.935 1.664,-4.126 v -2.832 c 0,-2.48 -0.817,-4.559 -2.468,-6.233 -1.642,-1.679 -3.714,-2.564 -6.215,-2.654 H 3.956 2.936 1.942 0.897 c -2.398,0.09 -4.418,0.829 -6.044,2.21 -1.637,1.368 -2.45,3.233 -2.45,5.578 V 0 Z"
             style="fill:#004898;fill-opacity:1;fill-rule:nonzero;stroke:none"
             id="path228" />
        </g>
        <path
           d="m 524.382,460.397 h 7.598 v -35.706 h -7.598 z m 0,16.315 h 7.598 v -8.256 h -7.598 z"
           style="fill:#004898;fill-opacity:1;fill-rule:nonzero;stroke:none"
           id="path230" />
        <g
           id="g232"
           transform="translate(553.0151,424.6914)">
          <path
             d="m 0,0 v 27.284 c 0,0.511 -0.089,0.928 -0.264,1.273 -0.165,0.349 -0.412,0.54 -0.728,0.591 -0.035,0.04 -0.375,0.083 -1.019,0.096 -0.651,0.024 -1.007,0.039 -1.074,0.039 -0.025,0 -0.374,-0.015 -1.045,-0.039 -0.657,-0.013 -1.026,-0.056 -1.085,-0.096 -0.254,-0.095 -0.471,-0.325 -0.645,-0.654 -0.174,-0.349 -0.254,-0.726 -0.254,-1.14 V 0 h -7.595 v 35.623 h 7.595 v -1.381 c 0.403,0.457 0.998,0.846 1.776,1.127 0.772,0.31 1.574,0.485 2.392,0.52 0.068,0.044 0.436,0.072 1.113,0.044 0.684,-0.024 1.059,-0.044 1.121,-0.044 0.127,0 0.516,0.02 1.186,0.044 0.665,0.028 1.057,0 1.188,-0.044 1.292,-0.131 2.432,-0.706 3.412,-1.71 0.984,-1.007 1.472,-2.416 1.472,-4.209 L 7.546,0 Z"
             style="fill:#004898;fill-opacity:1;fill-rule:nonzero;stroke:none"
             id="path234" />
        </g>
        <g
           id="g236"
           transform="translate(581.3428,445.5)">
          <path
             d="M 0,0 V 6.693 C 0,7.189 -0.08,7.613 -0.234,7.963 -0.395,8.3 -0.617,8.542 -0.896,8.689 -0.93,8.729 -1.282,8.772 -1.942,8.796 -2.615,8.813 -2.99,8.824 -3.085,8.824 -3.111,8.824 -3.466,8.813 -4.128,8.796 -4.785,8.772 -5.154,8.729 -5.215,8.689 -5.469,8.594 -5.684,8.367 -5.858,8.002 -6.033,7.63 -6.118,7.189 -6.118,6.693 v -19.226 c 0,-0.512 0.079,-0.941 0.232,-1.318 0.163,-0.36 0.369,-0.614 0.623,-0.749 0.061,-0.051 0.423,-0.091 1.095,-0.147 0.657,-0.039 1.018,-0.052 1.083,-0.052 0.07,0 0.411,0.013 1.047,0.052 0.629,0.056 0.967,0.096 0.992,0.147 0.29,0.095 0.53,0.322 0.738,0.699 0.207,0.36 0.308,0.817 0.308,1.368 v 6.554 h 7.55 v -6.772 C 7.55,-15.04 6.758,-17 5.177,-18.635 3.594,-20.27 1.628,-21.126 -0.708,-21.222 H -1.851 -2.99 -4.035 -5.12 c -2.468,0.147 -4.519,1.044 -6.148,2.722 -1.63,1.687 -2.447,3.741 -2.447,6.17 V 6.491 c 0,2.428 0.791,4.475 2.372,6.154 1.583,1.673 3.58,2.586 5.981,2.721 h 1.194 1.178 1.167 1.158 C 1.718,15.191 3.674,14.318 5.223,12.752 6.771,11.196 7.55,9.236 7.55,6.892 V 0 Z"
             style="fill:#004898;fill-opacity:1;fill-rule:nonzero;stroke:none"
             id="path238" />
        </g>
        <g
           id="g240"
           transform="translate(609.6914,452.1934)">
          <path
             d="M 0,0 C 0,0.496 -0.087,0.92 -0.26,1.27 -0.434,1.606 -0.664,1.849 -0.943,1.996 -0.972,2.035 -1.325,2.079 -1.989,2.103 -2.653,2.119 -3.022,2.131 -3.082,2.131 -3.11,2.131 -3.451,2.119 -4.102,2.103 -4.752,2.079 -5.105,2.035 -5.167,1.996 -5.455,1.9 -5.69,1.674 -5.88,1.309 -6.065,0.937 -6.165,0.496 -6.165,0 V -6.062 H 0 Z m -6.165,-12.339 v -6.888 c 0,-0.511 0.1,-0.956 0.285,-1.34 0.19,-0.389 0.425,-0.631 0.713,-0.726 0.062,-0.052 0.415,-0.092 1.065,-0.147 0.651,-0.039 0.992,-0.052 1.02,-0.052 0.06,0 0.422,0.013 1.065,0.052 0.651,0.055 0.992,0.095 1.02,0.147 0.295,0.095 0.521,0.337 0.716,0.726 0.188,0.384 0.281,0.829 0.281,1.34 v 4.825 h 7.503 v -5.042 c 0,-2.289 -0.806,-4.249 -2.4,-5.884 -1.597,-1.635 -3.613,-2.491 -6.046,-2.587 H -2.017 -3.13 -4.175 -5.263 c -2.406,0.146 -4.409,1.044 -6.006,2.722 -1.593,1.686 -2.398,3.741 -2.398,6.17 v 18.821 c 0,2.428 0.777,4.474 2.307,6.153 1.535,1.674 3.471,2.587 5.81,2.722 h 1.234 1.186 1.179 1.196 C 1.592,8.538 3.547,7.669 5.13,6.059 6.712,4.463 7.503,2.491 7.503,0.198 v -12.537 z"
             style="fill:#004898;fill-opacity:1;fill-rule:nonzero;stroke:none"
             id="path242" />
        </g>
        <g
           id="g244"
           transform="translate(635.0244,424.7627)">
          <path
             d="m 0,0 v 26.221 h -3.218 v 5.165 h 0.751 c 0.429,0 0.699,0.011 0.779,0.04 0.715,0.254 1.313,0.829 1.783,1.729 0.462,0.898 0.696,1.742 0.696,2.532 H 5.767 L 5.767,0 Z"
             style="fill:#004898;fill-opacity:1;fill-rule:nonzero;stroke:none"
             id="path246" />
        </g>
        <g
           id="g248"
           transform="translate(655.6504,454.3916)">
          <path
             d="M 0,0 C 0,0.321 -0.06,0.575 -0.178,0.75 -0.299,0.948 -0.474,1.059 -0.716,1.083 -0.744,1.126 -0.97,1.139 -1.412,1.166 -1.862,1.178 -2.103,1.178 -2.15,1.178 H -2.9 c -0.458,0 -0.706,0 -0.746,-0.039 C -3.866,1.071 -4.026,0.948 -4.147,0.75 -4.269,0.575 -4.334,0.333 -4.334,0.052 v -8.178 c 0,-0.254 0.06,-0.472 0.164,-0.67 0.109,-0.175 0.248,-0.321 0.423,-0.417 0.067,0 0.329,-0.016 0.785,-0.052 0.457,-0.027 0.733,-0.039 0.812,-0.039 0.047,0 0.296,0 0.77,0.024 0.464,0.015 0.718,0.04 0.757,0.067 0.203,0.067 0.35,0.202 0.457,0.405 C -0.06,-8.609 0,-8.38 0,-8.126 Z m -4.334,-16.211 v -7.562 c 0,-0.254 0.065,-0.484 0.2,-0.699 0.127,-0.186 0.308,-0.317 0.522,-0.388 0.04,-0.039 0.29,-0.064 0.75,-0.091 0.45,-0.04 0.69,-0.056 0.712,-0.056 0.047,0 0.296,0.016 0.77,0.028 0.464,0.012 0.718,0.043 0.757,0.067 0.203,0.068 0.35,0.199 0.457,0.429 0.106,0.226 0.166,0.444 0.166,0.658 v 10.644 c -0.127,-0.202 -0.361,-0.364 -0.702,-0.523 -0.335,-0.158 -0.71,-0.254 -1.12,-0.293 -0.086,-0.028 -0.402,-0.044 -0.946,-0.044 H -3.68 -4.396 -5.114 c -1.434,0.067 -2.588,0.603 -3.479,1.583 -0.891,0.992 -1.335,2.36 -1.335,4.09 v 7.991 c 0,1.983 0.565,3.526 1.692,4.638 1.125,1.102 2.594,1.694 4.398,1.797 h 0.829 0.831 0.778 0.777 C 1.248,5.99 2.744,5.399 3.87,4.276 5.001,3.162 5.564,1.622 5.564,-0.321 v -22.738 c 0,-1.892 -0.581,-3.488 -1.755,-4.789 -1.172,-1.285 -2.663,-1.983 -4.457,-2.063 h -0.786 -0.784 -0.791 -0.804 c -1.73,0.08 -3.183,0.778 -4.358,2.052 -1.172,1.269 -1.757,2.852 -1.757,4.745 v 6.903 z"
             style="fill:#004898;fill-opacity:1;fill-rule:nonzero;stroke:none"
             id="path250" />
        </g>
        <g
           id="g252"
           transform="translate(674.75,450.4238)">
          <path
             d="M 0,0 -3.902,-15.798 H 0 Z m 5.605,-21.135 v -4.526 H 0 v 4.526 h -9.044 v 5.019 l 6.94,26.141 h 7.709 v -25.823 h 3.873 v -5.337 z"
             style="fill:#004898;fill-opacity:1;fill-rule:nonzero;stroke:none"
             id="path254" />
        </g>
        <g
           id="g256"
           transform="translate(695.2891,424.7627)">
          <path
             d="m 0,0 h -6.187 l 8.466,30.712 h -9.117 v 4.975 H 8.459 v -5.071 z"
             style="fill:#004898;fill-opacity:1;fill-rule:nonzero;stroke:none"
             id="path258" />
        </g>
        <g
           id="g260"
           transform="translate(433.0088,520.5674)">
          <path
             d="M 0,0 C -45.055,-10.699 -74.477,-13.584 -77.131,-5.887 -80.095,2.655 -49.806,23.718 0,48.923 Z m 433.684,175.377 c -4.245,11.676 -44.051,9.879 -103.994,-3.206 v 31.402 h -42.003 v -83.209 c 2.754,-0.92 5.242,-2.436 7.319,-4.407 8.648,4.383 17.155,8.835 25.455,13.394 7.393,3.983 9.229,10.902 9.229,14.707 v 22.686 c 45.222,9.664 75.134,11.648 78.031,4.006 2.652,-6.998 -17.503,-21.542 -52.397,-39.789 -15.417,-8.045 -33.736,-16.841 -54.238,-25.998 0.236,-1.234 0.375,-2.519 0.375,-3.82 0,-8.928 -5.771,-16.489 -13.774,-19.227 V -3.725 c 0,-4.975 -1.983,-8.328 -6.724,-8.328 -4.84,0 -6.407,3.353 -6.407,8.328 v 85.641 c -4.003,1.369 -7.442,3.94 -9.887,7.308 C 236.15,77.302 204.792,65.063 171.952,53.16 145.728,43.662 120.249,34.993 96.194,27.297 96.019,27.253 95.854,27.189 95.672,27.134 81.125,22.496 67.115,18.219 53.782,14.343 V -3.07 c 0,-11.895 -3.995,-11.895 -11.952,-11.895 v 189.389 c 7.957,0 11.952,0 11.952,-11.918 V 21.663 c 12.549,3.903 26.645,8.406 41.89,13.501 v 130.465 c 0,38.424 -35.77,37.393 -35.77,37.393 L 0,203.022 V 54.874 C -65.467,22.377 -104.81,-5.938 -100.103,-18.864 -95.955,-30.259 -57.742,-29.172 0,-17.254 v -26.748 h 60.164 c 0,0 35.508,-1.477 35.508,38.773 V 7.424 c 7.802,2.348 15.761,4.816 23.823,7.39 v -58.669 h 41.616 v 72.56 c 1.664,0.575 3.339,1.162 5.003,1.753 l 11.781,-74.313 h 42.892 l -16.975,88.108 c 9.893,3.754 19.574,7.538 29.04,11.335 V -6.906 c 0,-32.443 27.419,-38.409 48.48,-38.409 20.835,0 48.358,6.03 48.358,38.757 V 98.69 c 67.84,33.743 108.797,63.507 103.994,76.687 M 260.778,101.143 c 0,8.926 5.766,16.5 13.778,19.221 v 83.209 H 232.852 V 87.038 c 9.371,4.035 18.73,8.193 28.014,12.465 -0.04,0.552 -0.088,1.088 -0.088,1.64 m -66.102,-9.467 23.99,111.56 h -39.079 l -18.476,-95.992 v 95.992 H 119.495 V 43.277 c 24.711,8.594 51.519,18.449 78.834,29.414 z"
             style="fill:#004898;fill-opacity:1;fill-rule:nonzero;stroke:none"
             id="path262" />
        </g>
        <g
           id="g264"
           transform="translate(236.9736,674.6392)">
          <path
             d="m 0,0 c -0.746,0.27 -1.5,0.254 -2.263,-0.04 -0.764,-0.281 -1.365,-0.793 -1.801,-1.5 -0.087,-0.067 -0.435,-1.023 -1.056,-2.828 -0.617,-1.837 -0.942,-2.793 -0.976,-2.889 l 44.868,-15.964 c 0.04,0.095 0.375,1.031 1.004,2.816 0.644,1.782 0.948,2.75 0.926,2.841 0.113,0.845 -0.014,1.607 -0.389,2.333 -0.375,0.71 -0.96,1.222 -1.755,1.5 z m -18.139,-16.517 7.119,19.989 c 1.144,3.221 3.135,5.752 5.964,7.629 2.832,1.892 6.278,2.103 10.327,0.658 L 41.902,-1.285 c 3.733,-1.314 6.215,-3.555 7.449,-6.666 1.232,-3.122 1.224,-6.435 -0.016,-9.919 L 42.17,-37.996 Z"
             style="fill:#004898;fill-opacity:1;fill-rule:nonzero;stroke:none"
             id="path266" />
        </g>
        <g
           id="g268"
           transform="translate(289.3877,700.5937)">
          <path
             d="M 0,0 -7.267,5.031 0.321,15.997 7.58,10.998 Z M 13.372,-11.263 6.153,-21.706 -39.528,24.939 -30.506,38.008 29.288,11.788 22.075,1.33 -19.441,20.714 Z"
             style="fill:#004898;fill-opacity:1;fill-rule:nonzero;stroke:none"
             id="path270" />
        </g>
        <g
           id="g272"
           transform="translate(345.0723,737.999)">
          <path
             d="m 0,0 -35.836,18.369 25.592,-27.796 -7.857,-7.237 -43.41,47.165 10.673,9.828 35.452,-19.988 -26.217,28.49 7.805,7.185 L 9.613,8.851 Z"
             style="fill:#004898;fill-opacity:1;fill-rule:nonzero;stroke:none"
             id="path274" />
        </g>
        <g
           id="g276"
           transform="translate(384.1255,766.7822)">
          <path
             d="m 0,0 -20.801,15.124 12.892,-20.174 -10.698,-6.836 -34.525,53.999 10.7,6.84 11.522,-18.02 -3.19,23.356 10.76,6.877 4.664,-31.68 L 12.47,7.967 Z"
             style="fill:#004898;fill-opacity:1;fill-rule:nonzero;stroke:none"
             id="path278" />
        </g>
        <g
           id="g280"
           transform="translate(406.2202,838.5518)">
          <path
             d="M 0,0 C -0.212,0.472 -0.496,0.779 -0.871,0.967 -1.232,1.142 -1.648,1.156 -2.119,1.007 -2.184,1.033 -2.68,0.861 -3.618,0.472 -4.544,0.081 -5.052,-0.143 -5.14,-0.173 c -0.095,-0.04 -0.597,-0.282 -1.515,-0.684 -0.919,-0.415 -1.414,-0.669 -1.482,-0.762 -0.375,-0.23 -0.603,-0.549 -0.71,-0.98 -0.095,-0.419 -0.054,-0.831 0.135,-1.234 L 8.97,-42.994 c 0.163,-0.364 0.429,-0.642 0.812,-0.848 0.381,-0.183 0.77,-0.266 1.172,-0.211 0.109,0 0.643,0.175 1.609,0.548 0.966,0.377 1.496,0.579 1.589,0.619 0.081,0.039 0.583,0.293 1.51,0.773 0.91,0.485 1.386,0.756 1.406,0.821 0.349,0.294 0.578,0.631 0.67,1.044 0.108,0.431 0.074,0.821 -0.092,1.182 z m -19.264,-10.468 c -1.396,3.094 -1.408,6.217 -0.042,9.383 1.368,3.168 3.756,5.659 7.174,7.44 0.174,0.083 0.751,0.35 1.743,0.792 0.986,0.442 1.542,0.696 1.677,0.75 0.132,0.069 0.67,0.311 1.608,0.738 0.938,0.418 1.482,0.657 1.609,0.726 3.619,1.446 7.092,1.646 10.425,0.603 3.322,-1.046 5.683,-3.112 7.083,-6.209 l 16.733,-37.072 c 1.496,-3.295 1.496,-6.364 0.008,-9.208 -1.482,-2.841 -4.05,-5.15 -7.683,-6.919 -0.182,-0.076 -0.732,-0.338 -1.65,-0.75 -0.917,-0.413 -1.466,-0.655 -1.641,-0.739 -0.176,-0.079 -0.726,-0.317 -1.644,-0.737 -0.917,-0.413 -1.467,-0.667 -1.641,-0.75 -3.58,-1.42 -6.993,-1.674 -10.23,-0.75 -3.245,0.924 -5.511,2.817 -6.784,5.646 z"
             style="fill:#004898;fill-opacity:1;fill-rule:nonzero;stroke:none"
             id="path282" />
        </g>
        <g
           id="g284"
           transform="translate(458.6558,857.6587)">
          <path
             d="M 0,0 C -0.147,0.484 -0.395,0.831 -0.744,1.057 -1.085,1.273 -1.496,1.339 -1.97,1.246 -2.039,1.299 -2.553,1.18 -3.527,0.91 -4.503,0.643 -5.035,0.496 -5.128,0.47 -5.215,0.43 -5.751,0.266 -6.717,-0.03 -7.681,-0.324 -8.199,-0.508 -8.278,-0.591 -8.673,-0.78 -8.948,-1.058 -9.101,-1.464 -9.25,-1.876 -9.264,-2.292 -9.131,-2.722 L 3.486,-43.789 c 0.115,-0.373 0.348,-0.684 0.704,-0.938 0.347,-0.242 0.724,-0.361 1.126,-0.361 0.107,-0.028 0.665,0.079 1.669,0.338 1.005,0.253 1.555,0.384 1.648,0.412 0.096,0.029 0.617,0.23 1.597,0.591 0.972,0.349 1.474,0.561 1.501,0.631 0.382,0.242 0.651,0.561 0.804,0.964 0.149,0.389 0.175,0.777 0.054,1.166 z m -20.433,-7.963 c -0.991,3.246 -0.616,6.34 1.14,9.316 1.757,2.961 4.439,5.122 8.057,6.475 0.183,0.053 0.792,0.241 1.825,0.565 1.032,0.308 1.623,0.484 1.756,0.537 0.141,0.036 0.704,0.213 1.688,0.52 0.994,0.296 1.555,0.472 1.696,0.512 C -0.496,10.938 2.976,10.714 6.14,9.25 9.304,7.79 11.383,5.443 12.389,2.2 l 11.937,-38.881 c 1.06,-3.447 0.679,-6.505 -1.158,-9.145 -1.837,-2.627 -4.668,-4.584 -8.486,-5.883 -0.189,-0.054 -0.765,-0.243 -1.73,-0.539 -0.967,-0.295 -1.542,-0.471 -1.724,-0.537 -0.181,-0.051 -0.756,-0.228 -1.724,-0.52 -0.97,-0.295 -1.539,-0.471 -1.726,-0.523 -3.727,-0.968 -7.149,-0.792 -10.244,0.536 -3.096,1.329 -5.11,3.471 -6.02,6.446 z"
             style="fill:#004898;fill-opacity:1;fill-rule:nonzero;stroke:none"
             id="path286" />
        </g>
        <g
           id="g288"
           transform="translate(522.6147,817.7441)">
          <path
             d="m 0,0 -13.541,21.869 4.309,-23.559 -12.494,-2.277 -11.537,63.054 12.495,2.277 3.855,-21.049 5.871,22.832 L 1.52,65.455 -6.142,34.348 14.552,2.672 Z"
             style="fill:#004898;fill-opacity:1;fill-rule:nonzero;stroke:none"
             id="path290" />
        </g>
        <g
           id="g292"
           transform="translate(589.7832,888.4419)">
          <path
             d="m 0,0 0.744,-53.899 c 0.006,-0.467 0.155,-0.844 0.448,-1.151 0.29,-0.296 0.677,-0.508 1.161,-0.615 0.101,-0.058 0.643,-0.069 1.623,-0.058 0.991,0 1.507,0.016 1.555,0.016 0.093,0 0.65,0.014 1.662,0.026 1.006,0.016 1.535,0.054 1.583,0.105 0.426,0.123 0.789,0.338 1.071,0.649 0.282,0.319 0.431,0.696 0.415,1.15 L 9.526,0.131 22.222,0.307 22.96,-52.759 c 0.039,-3.549 -1.206,-6.354 -3.748,-8.407 -2.541,-2.049 -5.885,-3.146 -10.022,-3.323 -0.146,0 -0.737,0 -1.769,-0.025 -1.033,-0.016 -1.622,-0.028 -1.772,-0.028 -0.09,0 -0.654,0 -1.688,-0.012 -1.033,-0.018 -1.602,-0.029 -1.703,-0.029 -3.793,0.053 -7.118,0.979 -9.961,2.75 -2.836,1.77 -4.282,4.611 -4.336,8.513 l -0.732,53.143 z"
             style="fill:#004898;fill-opacity:1;fill-rule:nonzero;stroke:none"
             id="path294" />
        </g>
        <g
           id="g296"
           transform="translate(652.7627,821.769)">
          <path
             d="M 0,0 -10.271,38.946 -13.87,1.327 -24.501,2.343 -18.401,66.147 -3.968,64.782 4.854,25.045 8.541,63.574 19.099,62.571 13.003,-1.234 Z"
             style="fill:#004898;fill-opacity:1;fill-rule:nonzero;stroke:none"
             id="path298" />
        </g>
        <g
           id="g300"
           transform="translate(681.6211,817.814)">
          <path
             d="M 0,0 11.858,62.89 24.341,60.544 12.476,-2.361 Z"
             style="fill:#004898;fill-opacity:1;fill-rule:nonzero;stroke:none"
             id="path302" />
        </g>
        <g
           id="g304"
           transform="translate(736.374,804.5547)">
          <path
             d="m 0,0 -17.261,5.001 7.777,64.473 11.85,-3.418 -4.92,-42.69 18.509,38.746 11.991,-3.471 z"
             style="fill:#004898;fill-opacity:1;fill-rule:nonzero;stroke:none"
             id="path306" />
        </g>
        <g
           id="g308"
           transform="translate(759.6426,796.7642)">
          <path
             d="M 0,0 25.163,58.857 52.769,47.058 49.567,39.562 33.639,46.374 26.834,30.446 41.696,24.106 38.659,17.001 23.799,23.34 14.882,2.492 l 16.062,-6.86 -3.206,-7.498 z"
             style="fill:#004898;fill-opacity:1;fill-rule:nonzero;stroke:none"
             id="path310" />
        </g>
        <g
           id="g312"
           transform="translate(845.8906,812.4355)">
          <path
             d="m 0,0 c 0.442,0.738 0.533,1.557 0.308,2.496 -0.235,0.922 -0.75,1.66 -1.542,2.198 -0.041,0.028 -0.87,0.523 -2.488,1.475 -1.608,0.963 -2.459,1.475 -2.541,1.516 l -8.903,-14.951 c 0.082,-0.054 0.927,-0.549 2.548,-1.516 1.608,-0.952 2.435,-1.447 2.473,-1.471 0.879,-0.407 1.772,-0.497 2.676,-0.312 0.899,0.188 1.57,0.672 2.037,1.45 z m -26.935,-45.22 c 0.468,0.979 1.085,2.023 1.835,3.161 0.752,1.127 2.067,3.246 3.916,6.356 l 1.006,1.679 0.999,1.674 c 1.152,1.956 2.506,4.237 4.049,6.879 1.548,2.638 2.325,3.98 2.365,4.031 0.43,0.726 0.516,1.532 0.256,2.417 -0.256,0.873 -0.792,1.594 -1.581,2.13 -0.056,0.028 -0.873,0.512 -2.488,1.476 -1.609,0.966 -2.462,1.462 -2.541,1.516 L -34.886,-40.38 -45.798,-33.877 -13.005,21.187 5.041,10.443 C 8.096,8.62 10.349,6.316 11.785,3.514 13.226,0.71 12.95,-2.372 10.952,-5.725 l -4.223,-7.078 c -1.065,-1.795 -2.722,-3.122 -4.973,-3.995 -2.26,-0.857 -4.559,-1.059 -6.905,-0.591 1.648,-1.634 2.622,-3.714 2.896,-6.205 0.268,-2.508 -0.215,-4.801 -1.461,-6.895 l -5.867,-9.851 c -2.232,-3.742 -3.808,-6.341 -4.739,-7.805 -0.918,-1.443 -1.489,-2.638 -1.701,-3.578 z"
             style="fill:#004898;fill-opacity:1;fill-rule:nonzero;stroke:none"
             id="path314" />
        </g>
        <g
           id="g316"
           transform="translate(865.4766,764.1206)">
          <path
             d="m 0,0 -8.297,-9.899 c -0.362,-0.424 -0.543,-0.885 -0.537,-1.365 0,-0.484 0.168,-0.936 0.496,-1.368 0.041,-0.096 0.429,-0.496 1.166,-1.195 0.738,-0.694 1.139,-1.071 1.22,-1.138 0.101,-0.08 0.563,-0.429 1.367,-1.044 0.819,-0.607 1.262,-0.9 1.329,-0.884 0.482,-0.254 0.944,-0.326 1.379,-0.218 0.442,0.111 0.839,0.376 1.208,0.82 l 3.164,3.766 c 1.06,1.261 1.368,3.245 0.925,5.927 -0.429,2.694 -0.711,4.92 -0.832,6.634 -0.375,7.939 -0.55,13.33 -0.51,16.167 0.04,2.857 0.825,5.189 2.347,7.014 l 4.491,5.325 c 2.214,2.654 5.095,4.019 8.627,4.114 3.533,0.093 6.872,-1.099 10.008,-3.579 0.101,-0.095 0.538,-0.456 1.296,-1.087 0.75,-0.631 1.172,-0.98 1.239,-1.043 0.08,-0.052 0.49,-0.401 1.24,-1.044 0.758,-0.634 1.16,-0.967 1.193,-0.992 2.769,-2.404 4.372,-5.221 4.834,-8.451 0.456,-3.233 -0.31,-6.03 -2.319,-8.418 l -7.751,-9.24 -8.948,7.526 7.861,9.367 c 0.296,0.349 0.498,0.765 0.617,1.246 0.137,0.484 0.083,0.904 -0.133,1.234 0,0.071 -0.389,0.444 -1.166,1.138 -0.778,0.687 -1.201,1.063 -1.274,1.131 -0.107,0.079 -0.543,0.44 -1.3,1.083 -0.751,0.631 -1.193,0.968 -1.287,0.98 -0.523,0.135 -0.993,0.159 -1.406,0.068 -0.424,-0.096 -0.927,-0.481 -1.51,-1.183 l -3.82,-4.649 c -1.02,-1.29 -1.442,-2.842 -1.268,-4.654 0.175,-1.806 0.322,-3.619 0.451,-5.412 0.448,-7.697 0.871,-13.465 1.279,-17.274 0.402,-3.805 -0.304,-6.808 -2.118,-8.966 l -3.492,-4.17 c -2.261,-2.683 -5.183,-4.087 -8.776,-4.21 -3.595,-0.119 -6.984,1.083 -10.196,3.634 -0.107,0.08 -0.544,0.445 -1.293,1.087 -0.764,0.627 -1.169,0.976 -1.248,1.044 -0.108,0.095 -0.55,0.456 -1.3,1.087 -0.751,0.631 -1.185,0.992 -1.301,1.087 -2.869,2.571 -4.587,5.507 -5.135,8.808 -0.548,3.309 0.215,6.209 2.293,8.676 l 8.353,9.931 z"
             style="fill:#004898;fill-opacity:1;fill-rule:nonzero;stroke:none"
             id="path318" />
        </g>
        <g
           id="g320"
           transform="translate(877.1143,720.3872)">
          <path
             d="M 0,0 48.117,42.218 56.496,32.684 8.379,-9.545 Z"
             style="fill:#004898;fill-opacity:1;fill-rule:nonzero;stroke:none"
             id="path322" />
        </g>
        <g
           id="g324"
           transform="translate(953.5811,710.4771)">
          <path
             d="m 0,0 -47.534,-29.185 -6.65,10.831 47.542,29.185 -4.949,8.045 7.012,4.317 16.547,-26.931 -7.019,-4.32 z"
             style="fill:#004898;fill-opacity:1;fill-rule:nonzero;stroke:none"
             id="path326" />
        </g>
        <g
           id="g328"
           transform="translate(960.5674,645.2368)">
          <path
             d="m 0,0 -15.394,0.535 -21.973,-6.526 -3.639,12.255 21.571,6.407 c 0.899,0.322 2.716,1.365 5.444,3.123 2.721,1.753 5.295,3.432 7.722,5.003 2.085,1.325 5.336,3.698 9.754,7.118 4.418,3.436 8.81,6.514 13.186,9.267 L 20.122,25.57 -1.737,10.323 25.144,8.688 28.4,-2.25 Z"
             style="fill:#004898;fill-opacity:1;fill-rule:nonzero;stroke:none"
             id="path330" />
        </g>
        <g
           id="g332"
           transform="translate(919.9844,437.2285)">
          <path
             d="m 0,0 -29.214,36.281 c -4.66,5.817 -9.473,6.662 -15.893,1.517 l -46.954,-37.786 5.771,-7.169 44.572,35.845 30.423,-37.778 -7.361,-5.915 -23.857,29.645 -10.708,-8.606 23.867,-29.669 -8.354,-6.716 -23.878,29.657 -11.087,-8.919 23.87,-29.669 -9.324,-7.494 5.912,-7.36 L 9.732,-4.277 3.818,3.07 Z"
             style="fill:#004898;fill-opacity:1;fill-rule:nonzero;stroke:none"
             id="path334" />
        </g>
        <g
           id="g336"
           transform="translate(614.9687,376.2129)">
          <path
             d="M 0,0 H 13.922 V -69.485 H -0.014 v 34.722 h -6.503 v -34.722 h -13.166 l -0.02,7.803 -32.15,-1.114 c -5.703,-0.107 -9.887,4.063 -9.98,9.45 L -61.827,0 h 33.985 v -9.704 h -19.486 v -43.642 l 27.445,0.952 L -19.869,0 H -6.517 V -24.439 H 0 Z"
             style="fill:#004898;fill-opacity:1;fill-rule:evenodd;stroke:none"
             id="path338" />
        </g>
        <g
           id="g340"
           transform="translate(427.6187,408.4727)">
          <path
             d="m 0,0 -2.869,-9.265 56.685,-17.603 -4.739,-15.445 -59.212,18.42 -2.668,-8.541 29.214,-9.062 -3.338,-10.712 -27.445,8.526 -2.682,-8.649 57.946,-18.016 -4.634,-14.882 14.448,-4.479 5.148,16.568 c 1.138,3.666 0,7.633 -4.641,9.066 l -22.401,6.974 3.324,10.712 32.666,-10.136 2.648,8.514 -4.489,1.38 4.283,13.566 c 2.367,7.632 -1.367,12.603 -6.872,14.29 z"
             style="fill:#004898;fill-opacity:1;fill-rule:evenodd;stroke:none"
             id="path342" />
        </g>
        <g
           id="g344"
           transform="translate(724.4619,376.2529)">
          <path
             d="M 0,0 C 6.944,1.932 13.703,-0.643 15.132,-5.749 16.546,-10.831 12.08,-16.54 5.149,-18.477 -1.784,-20.417 -8.546,-17.83 -9.946,-12.752 -11.381,-7.626 -6.945,-1.944 0,0 m -23.916,-17.159 c 2.62,-9.387 16.663,-13.692 31.371,-9.573 14.701,4.089 24.509,15.028 21.88,24.411 -1.562,5.634 -7.219,9.403 -14.64,10.673 l 11.517,3.216 -2.48,8.626 -18.523,-5.166 -1.333,4.778 -15.366,-4.345 1.302,-4.706 -19.977,-5.589 2.516,-8.626 10.752,3.004 c -5.694,-4.948 -8.582,-11.102 -7.019,-16.703 m 70.989,-2.039 -61.887,-17.271 2.533,-9.061 56.363,15.703 3.769,-13.529 14.185,3.967 -4.003,14.319 c -1.295,4.626 -4.854,7.573 -10.96,5.872 m 0.369,30.072 -4.614,16.517 -14.096,-3.928 11.396,-40.888 14.11,3.936 -4.255,15.27 10.288,2.857 -2.553,9.105 z"
             style="fill:#004898;fill-opacity:1;fill-rule:evenodd;stroke:none"
             id="path346" />
        </g>
        <g
           id="g348"
           transform="translate(362.0986,417.7598)">
          <path
             d="M 0,0 14.741,16.842 3.803,26.428 -14.063,6.034 l -36.333,29.2 12.763,14.578 25.447,-22.286 6.381,7.32 -36.32,31.815 -19.922,-22.725 c -2.896,-3.297 -3.332,-8.15 0.643,-11.637 l 41.114,-33.37 -8.91,-10.16 10.94,-9.585 11.864,13.54 8.368,-7.364 6.409,7.321 z M -42.499,-12.803 -67.29,8.903 -57.47,20.127 -69.025,30.26 -78.672,19.27 c -4.801,-5.487 -4.009,-9.426 -0.911,-12.192 l 48.532,-42.511 6.22,7.118 -17.682,15.489 z"
             style="fill:#004898;fill-opacity:1;fill-rule:nonzero;stroke:none"
             id="path350" />
        </g>
        <g
           id="g352"
           transform="translate(154.7666,599.6665)">
          <path
             d="m 0,0 c 0,184.803 199.635,335.137 445.031,335.137 245.397,0 445.037,-150.334 445.037,-335.137 0,-184.787 -199.64,-335.132 -445.037,-335.132 C 199.635,-335.132 0,-184.787 0,0 m -5.322,0 c 0,-187.708 202.023,-340.429 450.353,-340.429 248.33,0 450.354,152.721 450.354,340.429 0,187.739 -202.024,340.443 -450.354,340.443 C 196.701,340.443 -5.322,187.739 -5.322,0"
             style="fill:#004898;fill-opacity:1;fill-rule:nonzero;stroke:none"
             id="path354" />
        </g>
        <g
           id="g356"
           transform="translate(176.4902,599.6665)">
          <path
             d="M 0,0 C 0,172.805 189.913,313.403 423.307,313.403 656.723,313.403 846.619,172.805 846.619,0 846.619,-172.801 656.723,-313.387 423.307,-313.387 189.913,-313.387 0,-172.801 0,0 m -11.079,0 c 0,-178.911 194.871,-324.46 434.386,-324.46 239.529,0 434.381,145.549 434.381,324.46 0,178.927 -194.852,324.488 -434.381,324.488 C 183.792,324.488 -11.079,178.927 -11.079,0"
             style="fill:#004898;fill-opacity:1;fill-rule:nonzero;stroke:none"
             id="path358" />
        </g>
        <g
           id="g360"
           transform="translate(176.4902,599.6665)">
          <path
             d="M 0,0 C 0,172.805 189.913,313.403 423.307,313.403 656.723,313.403 846.619,172.805 846.619,0 846.619,-172.801 656.723,-313.387 423.307,-313.387 189.913,-313.387 0,-172.801 0,0 m -11.079,0 c 0,-178.911 194.871,-324.46 434.386,-324.46 239.529,0 434.381,145.549 434.381,324.46 0,178.927 -194.852,324.488 -434.381,324.488 C 183.792,324.488 -11.079,178.927 -11.079,0"
             style="fill:#004898;fill-opacity:1;fill-rule:nonzero;stroke:none"
             id="path362" />
        </g>
        <g
           id="g364"
           transform="translate(973.6582,537.5244)">
          <path
             d="m 0,0 c 0,-5.761 -4.666,-10.43 -10.417,-10.43 -5.759,0 -10.417,4.669 -10.417,10.43 0,5.741 4.658,10.419 10.417,10.419 C -4.666,10.419 0,5.741 0,0"
             style="fill:#004898;fill-opacity:1;fill-rule:nonzero;stroke:none"
             id="path366" />
        </g>
        <g
           id="g368"
           transform="translate(225.9385,537.5244)">
          <path
             d="m 0,0 c 0,-5.761 4.662,-10.43 10.417,-10.43 5.758,0 10.416,4.669 10.416,10.43 0,5.741 -4.658,10.419 -10.416,10.419 C 4.662,10.419 0,5.741 0,0"
             style="fill:#004898;fill-opacity:1;fill-rule:nonzero;stroke:none"
             id="path370" />
        </g>
      </g>
    </g>
    <path
       style="fill:#ffffff;stroke-width:1.19849"
       d="m 780.21443,1217.4495 c -153.02682,-3.7223 -298.73573,-54.7529 -402.69132,-141.0318 -15.37642,-12.7618 -43.17346,-40.417 -56.19344,-55.9068 -48.22884,-57.37752 -75.58477,-118.63019 -83.49954,-186.96384 -2.39457,-20.67403 -1.79089,-58.13454 1.24574,-77.30235 16.08182,-101.51164 75.0415,-189.12503 174.40182,-259.1591 119.25334,-84.05565 285.93636,-125.14923 450.63077,-111.0973 249.25574,21.2668 451.09854,163.62656 491.82744,346.88592 9.7854,44.02904 9.7932,91.54375 0.022,135.24798 -40.4122,180.75959 -235.9389,320.99999 -482.29818,345.92559 -15.99233,1.618 -76.2216,4.5945 -79.66295,3.9368 -0.65917,-0.126 -6.86133,-0.3668 -13.78259,-0.5351 z m 31.16064,-48.9256 v -23.3705 h 4.1947 4.1947 v 23.3705 23.3705 h 9.58789 9.58789 v -46.741 -46.7409 h -9.58789 -9.58789 v 16.1795 16.1796 h -4.1947 -4.1947 v -16.1796 -16.1795 h -8.98865 -8.98864 v 34.7561 34.7561 l -9.88751,0.01 c -5.43813,0 -13.52791,0.3523 -17.97729,0.7725 l -8.08978,0.764 v -28.9369 -28.937 h 13.18334 13.18335 v -6.5917 -6.5916 h -23.37048 -23.37048 v 37.2125 c 0,41.0413 0.24899,42.6075 7.2331,45.5005 2.85822,1.1839 9.14543,1.3731 26.42321,0.7952 l 22.67254,-0.7582 v 5.366 5.366 h 8.98864 8.98865 z m -169.16311,-5.6928 c 2.10121,-6.7565 3.8095,-13.1982 3.79621,-14.315 -0.0562,-4.7166 -5.2502,-7.8908 -20.39844,-12.4661 -8.23959,-2.4887 -15.17391,-4.6625 -15.40961,-4.8308 -1.0856,-0.775 2.85596,-12.4325 4.20361,-12.4325 0.83832,0 10.14293,2.6966 20.67694,5.9925 10.534,3.2958 19.88134,5.9924 20.77188,5.9924 1.77078,0 5.27696,-11.1185 3.68377,-11.6816 -4.40319,-1.5563 -4.46243,-2.3085 -1.05636,-13.412 2.2745,-7.4147 3.10586,-12.1683 2.59988,-14.8654 -1.48429,-7.912 -4.28169,-9.2401 -48.15529,-22.8623 -22.46729,-6.9758 -41.45739,-12.6833 -42.20021,-12.6833 -1.21647,0 -5.55133,11.8719 -4.66023,12.763 0.2038,0.2038 17.05568,5.5606 37.44863,11.904 20.39293,6.3434 37.19056,11.6355 37.32805,11.7603 0.40935,0.3717 -5.15781,17.4187 -5.9459,18.2068 -0.53974,0.5397 -68.49236,-19.8106 -77.17604,-23.1126 -1.24476,-0.4733 -6.0732,11.1973 -5.03925,12.1802 0.23194,0.2205 8.78116,2.9478 18.99826,6.0608 10.21709,3.1129 18.74874,5.8113 18.95922,5.9964 0.54444,0.4788 -2.41037,10.5544 -3.45025,11.7649 -0.65596,0.7637 -26.71875,-6.3081 -35.34333,-9.5899 -1.03084,-0.3922 -5.86506,11.4939 -4.99914,12.2917 0.14549,0.134 17.25307,5.5037 38.01684,11.9326 20.76377,6.4288 37.95965,11.859 38.21306,12.0669 0.25341,0.2079 -0.78858,4.7017 -2.31555,9.9861 -1.52695,5.2844 -2.54327,9.8138 -2.25847,10.0653 0.84029,0.7419 15.92797,5.3078 17.99474,5.4456 1.38982,0.093 2.91741,-3.156 5.71698,-12.158 z m 344.63684,-13.483 c 20.1215,-5.6029 36.7998,-10.1871 37.0628,-10.1871 0.263,0 1.3892,3.3708 2.5027,7.4905 1.1135,4.1198 2.2335,8.1316 2.489,8.915 0.34,1.0427 2.8105,0.7694 9.2194,-1.0201 4.8152,-1.3444 9.2426,-2.9046 9.8388,-3.4671 1.6287,-1.5366 -4.0824,-21.3753 -7.1948,-24.9928 -2.1777,-2.5311 -3.632,-3.0706 -7.8682,-2.9189 -4.6265,0.1657 -85.43052,22.1209 -86.92902,23.6193 -0.51687,0.5169 0.0185,2.7594 2.68566,11.2503 0.25883,0.8239 0.72674,1.4981 1.03981,1.4981 0.31307,0 17.0323,-4.5842 37.15385,-10.1872 z m -14.63596,-13.9387 c 9.58095,-2.0435 18.13643,-6.2492 24.33428,-11.9621 6.85748,-6.321 9.18098,-10.6437 9.28108,-17.2664 0.1113,-7.357 -3.3206,-12.5456 -10.82003,-16.3588 l -6.28795,-3.1973 3.91048,-0.8505 c 9.1597,-1.9923 9.3049,-2.1585 7.4047,-8.4724 -0.93747,-3.115 -1.9086,-5.8677 -2.15808,-6.1172 -0.24946,-0.2495 -5.34198,0.9209 -11.31671,2.6007 -13.22609,3.7187 -12.95697,3.7144 -14.18891,0.2275 l -0.99874,-2.8268 -10.59785,3.0204 c -10.3697,2.9553 -10.58382,3.0905 -9.94552,6.282 0.64632,3.2316 0.53638,3.2924 -11.92492,6.5954 -6.9175,1.8335 -12.81074,3.7114 -13.0961,4.1731 -0.28535,0.4617 0.17554,3.2044 1.02421,6.0948 1.63615,5.5725 2.62973,6.0087 9.61686,4.2221 l 3.42823,-0.8766 -2.60083,4.2083 c -3.87143,6.2641 -5.00074,11.2856 -3.65882,16.2691 3.18014,11.8102 20.32123,18.1323 38.59462,14.2347 z m 57.88596,-16.1023 c 3.955,-1.1068 7.5571,-2.2242 8.0047,-2.483 0.4475,-0.2588 -0.4346,-5.0077 -1.9602,-10.553 l -2.774,-10.0823 5.859,-1.4056 c 3.2224,-0.773 6.1746,-1.9162 6.5604,-2.5405 0.5931,-0.9597 -1.6377,-13.006 -2.4086,-13.006 -0.1442,0 -3.1098,0.8457 -6.5903,1.8793 -3.4805,1.0336 -6.5517,1.6557 -6.8249,1.3825 -0.2732,-0.2732 -1.7863,-4.9323 -3.3624,-10.3536 -1.5762,-5.4212 -3.1279,-10.119 -3.4483,-10.4394 -1.2282,-1.2282 -18.8229,4.7377 -18.8229,6.3824 0,0.9157 3.2359,13.2576 7.1909,27.4264 3.955,14.1688 7.191,26.0468 7.191,26.3955 0,0.3487 0.9438,0.3585 2.0973,0.022 1.1536,-0.3367 5.3333,-1.5177 9.2883,-2.6245 z m -583.93542,-33.3848 4.42962,-5.2992 -28.17482,-24.7612 -28.17482,-24.7613 5.12284,-5.9891 c 8.2791,-9.6791 8.21506,-8.7451 1.03387,-15.0792 -9.88479,-8.7187 -9.43867,-8.661 -15.39281,-1.9917 -12.90232,14.4523 -14.73431,19.2133 -9.5815,24.901 2.29407,2.5323 65.52732,58.28 66.10549,58.28 0.11133,0 2.19585,-2.3847 4.63213,-5.2993 z m 753.15242,-29.875 c 21.8792,-17.5703 40.0396,-32.3653 40.3563,-32.8778 0.3168,-0.5125 -1.3352,-3.2325 -3.6711,-6.0446 -4.0777,-4.909 -4.3382,-5.0302 -6.5364,-3.0409 -2.7797,2.5156 -0.4326,4.9024 -23.144,-23.53526 -9.739,-12.1946 -19.3756,-23.65512 -21.4147,-25.46783 -4.0618,-3.61099 -10.2057,-4.34285 -14.7355,-1.75526 -5.2023,2.97183 -66.3629,52.87115 -66.316,54.10555 0.027,0.7051 1.6531,3.1592 3.6141,5.4537 3.296,3.8566 3.7676,4.0461 6.2433,2.5085 1.4729,-0.9149 14.9212,-11.5524 29.885,-23.639 l 27.2071,-21.97562 19.8908,24.56892 19.8909,24.569 -3.3532,2.9501 c -1.8442,1.6226 -4.0155,2.9672 -4.8251,2.9881 -0.8096,0.021 -8.1961,-8.345 -16.4144,-18.5907 -8.2183,-10.2457 -15.321,-18.73995 -15.7837,-18.87615 -1.1186,-0.32927 -14.7566,10.26535 -14.8195,11.51245 -0.027,0.5355 6.9948,9.6575 15.6041,20.2711 l 15.6532,19.2974 -3.3687,2.8159 c -6.8439,5.7207 -6.3027,5.9653 -17.2035,-7.7734 -5.5743,-7.0254 -12.7401,-15.912 -15.9241,-19.748 l -5.7892,-6.9746 -6.7949,5.6712 c -3.7373,3.1192 -7.2486,6.0552 -7.8031,6.5244 -0.5544,0.4693 6.12,9.6637 14.832,20.4319 l 15.84,19.5786 -6.1153,5.2525 -6.1153,5.2525 4.3246,5.2776 c 2.7966,3.4128 4.7982,4.9133 5.6652,4.2467 0.7373,-0.567 19.2418,-15.4066 41.1211,-32.977 z m -737.47324,12.1034 c 1.04477,-1.4831 4.29055,-5.3682 7.21283,-8.6336 l 5.31322,-5.937 4.91334,4.4389 c 2.70234,2.4414 5.38833,4.4389 5.9689,4.4389 0.58056,0 2.99073,-2.142 5.35593,-4.76 l 4.30035,-4.7599 -5.40354,-5.1276 -5.40353,-5.1275 9.68025,-11.0456 9.68027,-11.0455 -4.73669,-4.2793 c -8.0367,-7.2607 -11.0724,-9.3367 -12.04955,-8.2403 -1.43416,1.6092 -20.761,23.6843 -21.74765,24.8402 -1.26485,1.4817 -48.03144,-36.30123 -47.02397,-37.9909 1.79714,-3.01407 14.04324,-16.35762 15.01226,-16.35762 0.5689,0 8.40953,6.47629 17.42362,14.39177 l 16.38926,14.39175 4.48099,-5.1035 c 2.46455,-2.80691 4.37071,-5.42685 4.23593,-5.82209 -0.41414,-1.21442 -47.7688,-42.4269 -48.75007,-42.4269 -0.50639,0 -7.4626,7.47044 -15.45826,16.60098 -12.94417,14.78143 -14.53464,17.08022 -14.51091,20.9735 0.0146,2.4049 0.95847,5.49874 2.09735,6.87521 1.13889,1.37649 13.66605,11.846 27.83815,23.2655 14.1721,11.4196 26.25696,21.1918 26.85526,21.716 0.61209,0.5362 -1.4606,3.9359 -4.73951,7.774 l -5.82733,6.8209 7.1365,6.3841 c 3.92506,3.5112 7.7486,6.3971 8.49675,6.4131 0.74814,0.016 2.21509,-1.1844 3.25985,-2.6675 z m 223.97218,-36.7551 c 3.55231,-3.174 3.91399,-4.128 3.91399,-10.3242 0,-6.5552 -0.20893,-7.0124 -5.2477,-11.4839 l -5.2477,-4.6569 h 5.54732 c 5.4609,0 5.54722,-0.061 5.54064,-3.8951 -0.0108,-6.0903 -2.10823,-12.13931 -4.78897,-13.80912 -3.88156,-2.41779 -12.11082,-3.01928 -17.34304,-1.26763 -6.0333,2.01983 -8.07882,5.74779 -7.42625,13.53435 0.44947,5.3632 1.07322,6.451 6.3427,11.0614 l 5.8442,5.1132 -6.29205,0.025 -6.29205,0.025 v 5.7258 c 0,9.7101 4.02578,13.238 15.26178,13.3741 5.29669,0.064 6.88239,-0.4684 10.18713,-3.4212 z m 23.68901,-21.0718 v -24.56901 h -5.39318 -5.39319 v 24.56901 24.5689 h 5.39319 5.39318 z m 20.37427,4.7143 v -19.85462 l 3.29583,0.37922 3.29584,0.37923 0.32931,19.47537 0.32931,19.4754 h 5.3635 5.3635 v -22.5855 c 0,-28.09259 0.84044,-26.78652 -16.92141,-26.29645 l -12.4415,0.34329 -0.32703,22.73436 c -0.17987,12.5038 -0.062,23.4251 0.262,24.2693 0.35887,0.9352 2.71116,1.535 6.01985,1.535 h 5.4308 z m 51.72625,16.4373 c 3.34406,-2.9879 3.8916,-4.3432 4.35766,-10.7864 l 0.53302,-7.369 h -6.07081 -6.07081 l -0.36528,5.6928 c -0.30986,4.829 -0.76805,5.7501 -3.01952,6.0702 -3.54078,0.5035 -4.12537,-2.2155 -3.68858,-17.1562 l 0.35038,-11.98487 3.29584,-0.37923 c 3.16964,-0.36471 3.29583,-0.16971 3.29583,5.0936 v 5.4728 h 6.13648 6.13647 l -0.52397,-7.24404 c -0.42375,-5.85815 -1.13997,-7.85996 -3.7438,-10.46379 -2.83469,-2.8347 -4.1625,-3.22256 -11.10127,-3.24277 -7.39906,-0.0216 -8.09569,0.21662 -11.38133,3.89104 l -3.49987,3.91398 0.0424,16.46028 c 0.0567,21.9671 2.06361,25.3174 15.21931,25.4064 5.23789,0.035 6.90432,-0.5214 10.09777,-3.3748 z m 38.94025,-0.6341 c 2.13393,-2.4809 2.81541,-4.7075 2.81541,-9.1988 v -5.9256 h -5.32083 c -5.28342,0 -5.32346,0.032 -5.69281,4.4944 -0.32244,3.8957 -0.77101,4.4943 -3.36819,4.4943 -2.66816,0 -3.03657,-0.5577 -3.36475,-5.0936 l -0.36854,-5.0935 h 9.05756 9.05756 v -10.2467 c 0,-12.01683 -1.7667,-16.44653 -7.33334,-18.38707 -7.58955,-2.64573 -17.50098,-0.43865 -20.13537,4.48376 -0.75496,1.41065 -1.29495,9.5879 -1.29495,19.60981 0,22.7591 1.65419,25.2839 16.06074,24.514 5.96536,-0.3188 7.51269,-0.8901 9.88751,-3.651 z m 58.59948,1.1097 c 2.87889,-2.8789 2.94175,-3.3527 2.94175,-22.172 0,-17.63228 -0.19918,-19.42944 -2.39697,-21.62723 -1.75779,-1.75779 -3.99495,-2.39698 -8.38941,-2.39698 -8.9589,0 -10.78637,2.36989 -10.78637,13.98785 0,11.03966 1.60276,13.57736 8.57516,13.57736 h 4.60819 v 6.5916 c 0,5.7927 -0.29054,6.5917 -2.39698,6.5917 -2.04186,0 -2.39697,-0.799 -2.39697,-5.3932 0,-5.3646 -0.0222,-5.3932 -4.1947,-5.3932 h -4.1947 v 6.6462 c 0,8.6059 3.37782,12.5296 10.78637,12.5296 3.60757,0 5.6801,-0.7772 7.84463,-2.9417 z m -24.62343,-22.2265 v -23.96971 h -3.51469 c -2.43137,0 -3.7432,0.71992 -4.25601,2.33567 -0.40772,1.28461 -1.79237,2.66926 -3.07698,3.07698 -3.36194,1.06704 -3.30907,7.7707 0.0613,7.7707 2.28678,0 2.39698,0.799 2.39698,17.37806 v 17.378 h 4.1947 4.1947 z m 52.73339,20.9735 c 0,-2.397 0.59924,-2.9962 2.99621,-2.9962 2.53014,0 2.99622,-0.5593 2.99622,-3.5955 0,-3.0361 -0.46608,-3.5954 -2.99622,-3.5954 h -2.99621 v -17.4437 -17.44374 l -5.5897,0.36529 -5.58969,0.36529 -4.58447,17.37806 c -2.52146,9.5579 -4.5903,18.8612 -4.59744,20.6739 -0.0125,3.1577 0.23812,3.2958 5.97946,3.2958 5.59294,0 5.99243,0.1998 5.99243,2.9962 0,2.6253 0.51934,2.9962 4.1947,2.9962 3.67537,0 4.19471,-0.3709 4.19471,-2.9962 z m 21.42146,-0.8988 c 4.62952,-14.6238 9.73917,-35.21341 9.73917,-39.24461 v -4.7998 h -10.78637 -10.78638 v 3.59546 c 0,3.51556 0.13317,3.59546 5.99243,3.59546 3.29584,0 5.99244,0.39068 5.99244,0.86817 0,1.05745 -9.35636,35.48552 -10.34124,38.05202 -0.55732,1.4524 0.29146,1.8283 4.12764,1.8283 4.39641,0 4.93972,-0.349 6.06231,-3.895 z M 709.50375,970.17447 v -5.99243 h -5.39318 -5.39319 v 5.99243 5.99244 h 5.39319 5.39318 z m 272.61285,-7.16016 c 15.78617,-5.07387 26.855,-14.55897 32.0927,-27.50083 2.6978,-6.66622 2.7072,-6.92321 3.0552,-83.6169 l 0.3491,-76.93013 20.0252,-10.45562 c 75.2482,-39.28888 118.9003,-72.17028 118.9003,-89.56305 0,-16.84718 -42.9703,-18.18074 -118.0273,-3.66293 -8.5822,1.65999 -16.8174,3.31151 -18.3005,3.67004 l -2.6966,0.65187 v -21.10344 -21.10343 h -28.76369 -28.76367 v 56.32884 c 0,30.98087 0.46406,56.32885 1.03124,56.32885 0.56718,0 3.04061,1.36359 5.49651,3.0302 l 4.46526,3.03022 17.24511,-9.07509 c 28.27174,-14.87774 29.22274,-16.24573 29.26294,-42.09292 l 0.026,-16.94315 16.4792,-3.14253 c 31.418,-5.99128 41.2058,-7.15477 60.8713,-7.23587 16.4712,-0.0679 19.689,0.22502 22.4717,2.04571 1.7862,1.16874 3.2476,3.09511 3.2476,4.28082 0,6.35847 -14.8962,19.09492 -39.3866,33.67599 -17.3213,10.31273 -62.6319,33.52629 -87.69262,44.92671 l -15.0208,6.83314 -0.0907,6.27561 c -0.13549,9.37376 -5.54332,18.21405 -13.68185,22.36602 l -4.72452,2.41027 v 59.63328 c 0,52.03305 -0.23778,59.97274 -1.86568,62.29691 -2.2637,3.23188 -8.309,3.58872 -11.52292,0.68016 -2.06802,-1.87149 -2.19176,-5.3881 -2.19176,-62.2905 v -60.30701 l -3.89508,-1.96533 c -2.14229,-1.08092 -5.34637,-3.32245 -7.12018,-4.98117 l -3.22509,-3.01586 -36.32495,14.47715 C 812.5371,833.37395 737.00181,859.8142 658.95811,883.18861 l -10.39635,3.11375 -0.39003,16.73797 c -0.44028,18.89568 -1.19422,20.61795 -9.67828,22.10894 l -4.49432,0.78984 V 800.04376 674.14842 h 4.06193 c 2.23405,0 5.33514,1.03084 6.8913,2.29075 l 2.82936,2.29075 0.32655,99.69846 c 0.25606,78.17598 0.64414,99.57938 1.79773,99.14684 0.80915,-0.30338 13.74068,-4.4974 28.73674,-9.32006 l 27.26556,-8.76845 -0.0237,-88.17482 c -0.0137,-50.70138 -0.52115,-91.74024 -1.19415,-96.56423 -2.41085,-17.28095 -12.49379,-30.34779 -28.33238,-36.71698 -6.86578,-2.76094 -7.91718,-2.82368 -53.44489,-3.18905 l -46.44135,-0.37269 v 98.84542 98.84542 l -18.87616,9.86073 c -55.37355,28.92668 -94.9418,55.24145 -108.10645,71.896 -10.42228,13.18518 -8.31062,22.04228 6.12334,25.68348 19.37267,4.88708 57.24371,2.37408 106.72099,-7.08162 l 14.13828,-2.70199 v 17.78207 17.78208 l 42.84588,-0.0177 c 46.51421,-0.0193 53.37201,-0.73921 63.48352,-6.66495 15.8758,-9.30384 23.01668,-25.60732 23.08335,-52.70208 l 0.0237,-9.64757 12.88373,-3.98517 c 7.08605,-2.19184 13.82753,-4.25034 14.98108,-4.57442 1.96665,-0.55253 2.09735,1.84672 2.09735,38.50133 l 10e-6,39.0906 h 28.16442 28.16442 v -48.5773 -48.57731 l 2.6966,-1.02183 c 2.28472,-0.86577 2.83699,-0.53953 3.61581,2.13596 0.85313,2.93076 15.26034,92.59113 15.26034,94.96963 0,0.59967 12.91979,1.07085 29.36291,1.07085 16.1496,0 29.35789,-0.13483 29.35176,-0.29962 -0.006,-0.16479 -5.10691,-26.70404 -11.33507,-58.97611 -6.22815,-32.27208 -11.21184,-58.73979 -11.07484,-58.81715 1.31052,-0.74009 35.34312,-13.74059 35.97,-13.74059 0.45809,0 0.83697,19.01099 0.84194,42.24664 0.005,23.47756 0.56286,45.65981 1.2556,49.92923 3.10973,19.16583 15.19397,31.84095 35.93961,37.69697 9.81447,2.7704 12.19681,2.96632 31.70869,2.60762 14.70224,-0.27027 19.49787,-0.81921 26.32396,-3.01321 z M 322.75651,895.62606 c 1.18881,-0.61005 3.20924,-2.82755 4.48984,-4.92777 8.92627,-14.63939 -11.14263,-29.44352 -22.91988,-16.90722 -4.17586,4.445 -4.16365,14.55432 0.023,19.01076 4.71257,5.0163 11.96649,6.12929 18.40708,2.82423 z m 970.40999,-0.85726 c 1.6479,-1.1626 3.7671,-4.29498 4.7094,-6.96086 3.3883,-9.58579 -3.0747,-18.50605 -13.4082,-18.50605 -9.0383,0 -14.0725,5.04338 -14.0725,14.09825 0,7.2543 3.3102,11.58024 10.7864,14.09646 2.797,0.94136 8.6829,-0.3983 11.9849,-2.7278 z M 758.09744,841.31419 c 24.36793,-8.68725 43.00756,-15.65355 65.66112,-24.53987 17.23953,-6.76255 18.91924,-7.67877 18.36393,-10.01678 -0.33617,-1.41536 -1.50805,-7.16597 -2.60419,-12.77914 l -1.99295,-10.20576 15.68853,-72.88773 c 8.62868,-40.08825 15.68852,-73.65245 15.68852,-74.58713 0,-1.41539 -4.40664,-1.69941 -26.36669,-1.69941 -14.50168,0 -26.3735,0.13483 -26.38181,0.29963 -0.008,0.16479 -5.35848,27.80487 -11.88924,61.42241 l -11.87412,61.12279 -0.0956,-61.42241 -0.0956,-61.42242 H 764.03487 735.87045 V 741.9911 c 0,101.79239 0.10942,107.34994 2.09735,106.5722 1.15354,-0.4513 10.21188,-3.71339 20.12964,-7.24911 z m 148.67522,-59.00241 18.27449,-8.08978 0.80544,-5.36506 c 0.443,-2.95078 1.80094,-7.31639 3.01766,-9.70136 2.44246,-4.78764 9.21097,-11.25179 13.06105,-12.47377 2.45565,-0.77939 2.47572,-1.24197 2.47572,-57.03384 v -56.24808 h -28.76366 -28.76367 v 78.50084 c 0,43.17546 0.36415,78.50083 0.80923,78.50083 0.44507,0 9.03275,-3.6404 19.08374,-8.08978 z M 379.57767,732.27499 c 3.13651,-9.04175 4.01545,-13.27148 3.5792,-17.22421 -0.99134,-8.98239 -4.14439,-10.99068 -33.93682,-21.61563 -14.51778,-5.17751 -28.0551,-9.77807 -30.08294,-10.22345 -4.42018,-0.97084 -10.60032,1.39046 -14.37718,5.49322 -2.41795,2.62659 -14.17178,33.13847 -13.15668,34.15356 0.2391,0.23911 18.45542,6.86089 40.4807,14.71509 l 40.04598,14.28036 1.64515,-3.79705 c 0.90483,-2.08836 3.51599,-9.19022 5.80259,-15.78189 z m 871.46843,10.09708 c 9.1371,-2.7674 22.3013,-2.93033 49.3113,-0.61027 10.2171,0.87761 18.6918,1.50367 18.8326,1.39125 0.1409,-0.11242 -0.8284,-3.81944 -2.1539,-8.23783 l -2.4101,-8.03342 -9.2317,-0.14008 c -5.0774,-0.0771 -12.6488,-0.48154 -16.8253,-0.89886 l -7.5937,-0.75879 13.2865,-9.31286 c 7.3076,-5.12206 13.2865,-9.94055 13.2865,-10.70774 0,-2.83154 -3.9421,-15.33474 -4.8348,-15.33474 -0.5079,0 -5.6952,3.49979 -11.5273,7.7773 -27.4138,20.10644 -33.3236,23.51278 -49.3201,28.4276 -8.3142,2.55446 -15.343,4.87078 -15.6196,5.14738 -0.5576,0.55764 1.5409,9.48695 3.3444,14.23056 l 1.1568,3.04273 6.3408,-1.83765 c 3.4875,-1.01071 9.7683,-2.87577 13.9576,-4.14458 z m -848.81103,-58.19388 2.04659,-3.75282 -7.98608,-7.47059 c -4.39235,-4.10883 -7.98609,-7.98406 -7.98609,-8.61163 0,-0.62757 1.38174,-2.9526 3.07054,-5.16673 l 3.07055,-4.02569 10.22933,4.70361 c 5.62614,2.58699 10.59829,4.47557 11.04926,4.19687 1.36819,-0.8456 10.10318,-13.9057 9.60165,-14.35591 -0.84516,-0.75872 -80.57687,-35.46272 -80.78805,-35.1638 -3.70689,5.24702 -10.39989,15.6886 -10.91237,17.02411 -0.46667,1.2161 9.15216,11.89744 29.69099,32.97074 l 30.38128,31.17186 3.2429,-3.88361 c 1.7836,-2.13597 4.16387,-5.57236 5.2895,-7.63641 z M 1240.1569,672.8198 c 16.3015,-9.99057 30.0182,-18.37901 30.4815,-18.64102 0.4634,-0.26198 2.0813,1.69291 3.5955,4.34423 1.5141,2.65131 3.2923,4.82196 3.9515,4.82365 0.6592,10e-4 3.2274,-1.22518 5.7072,-2.72641 l 4.5087,-2.7295 -10.9836,-17.93825 c -6.041,-9.86602 -11.1678,-18.15972 -11.3929,-18.43044 -0.5336,-0.64183 -8.8076,3.76541 -9.6903,5.16162 -0.3735,0.59067 0.5918,3.40032 2.1451,6.24366 1.5532,2.84332 2.5775,5.3792 2.2763,5.63527 -0.3013,0.25607 -14.451,8.9675 -31.4438,19.35875 l -30.8961,18.89317 3.2332,5.55823 c 5.491,9.43972 5.7772,9.798 7.3446,9.19651 0.8382,-0.32165 14.8616,-8.7589 31.1631,-18.74947 z m -27.1683,-47.99591 c 17.4015,-15.26347 31.8128,-28.18874 32.0251,-28.72279 0.4036,-1.01564 -10.3568,-13.05305 -11.6359,-13.0168 -0.7808,0.0222 -3.9706,2.77506 -41.2071,35.56261 l -23.6934,20.8626 5.7161,6.51795 c 3.1439,3.58488 6.0401,6.52476 6.436,6.53308 0.396,0.008 14.9576,-12.47317 32.3592,-27.73665 z m -770.78319,8.66843 5.35724,-4.63 -9.55195,-10.41459 c -15.75024,-17.1727 -21.52993,-23.80212 -20.30279,-23.28768 0.63963,0.26813 10.51124,5.24517 21.93688,11.06006 l 20.77391,10.57253 6.36237,-5.77859 c 3.4993,-3.17822 6.42054,-6.15865 6.49165,-6.62317 0.20175,-1.31806 -57.52043,-63.4394 -58.57099,-63.03485 -0.5137,0.19782 -3.19365,2.41425 -5.95544,4.92539 l -5.02143,4.56572 9.37073,10.21501 c 14.57631,15.88958 21.00454,23.19981 20.40069,23.19981 -0.30483,0 -9.61919,-5.08832 -20.69856,-11.30736 -14.46068,-8.11704 -20.67259,-11.01672 -22.01665,-10.27723 -1.02979,0.56658 -4.49038,3.7081 -7.69021,6.98118 l -5.81786,5.95102 28.58909,31.18859 c 15.72401,17.15373 29.12843,31.21909 29.7876,31.25636 0.65916,0.0373 3.60924,-2.01571 6.55572,-4.5622 z m 721.50239,-17.17086 c 5.3234,-3.65486 10.8259,-11.58985 11.0415,-15.92266 0.097,-1.954 -0.2571,-11.7067 -0.7873,-21.67266 l -0.9641,-18.11992 4.2045,-4.58793 c 4.1955,-4.57805 4.2114,-4.5834 7.4153,-2.48413 5.1042,3.34438 4.93,5.01626 -1.2799,12.28498 l -5.7947,6.78282 5.9443,5.23076 c 3.2694,2.87692 6.317,5.23075 6.7723,5.23075 1.5705,0 13.032,-14.61022 13.7708,-17.55384 1.0055,-4.00641 -0.1489,-10.37608 -2.5428,-14.02954 -3.4624,-5.28427 -14.4882,-12.92186 -19.6548,-13.61483 -9.1763,-1.23081 -12.7732,0.31544 -19.4796,8.37403 l -6.1671,7.41053 0.7026,21.36137 0.7026,21.36138 -3.3213,3.71715 -3.3212,3.71715 -3.7966,-2.80693 c -2.0881,-1.5438 -3.7966,-3.56329 -3.7966,-4.48774 0,-0.92444 2.4777,-4.58094 5.5059,-8.12552 3.0282,-3.54459 5.3203,-6.9415 5.0936,-7.54869 -0.5433,-1.45447 -10.5566,-9.75938 -11.767,-9.75938 -0.983,0 -8.705,8.96585 -12.3076,14.29006 -2.7961,4.13232 -2.7147,12.86013 0.1639,17.58073 2.4557,4.02717 10.5769,11.03328 16.3074,14.06839 5.2966,2.80526 12.6875,2.50874 17.3559,-0.69633 z M 494.99075,589.47782 c 3.61662,-2.40462 6.78376,-4.54527 7.03811,-4.75701 0.25434,-0.21175 -2.82646,-5.52514 -6.84624,-11.80753 -4.01975,-6.2824 -7.05333,-11.42256 -6.74125,-11.42256 0.31206,0 5.73066,3.81337 12.04132,8.47416 l 11.47392,8.47415 6.21194,-3.76481 c 13.50481,-8.18478 14.42585,-5.9409 -9.07344,-22.10515 -11.39163,-7.83583 -20.84009,-14.33056 -20.99659,-14.43272 -0.15651,-0.10216 -1.64642,-9.54747 -3.3109,-20.98961 -1.66449,-11.44214 -3.24451,-21.02205 -3.51116,-21.2887 -0.36989,-0.36989 -12.82499,6.95219 -14.84007,8.72416 -0.34073,0.29962 1.3197,14.23348 2.92543,24.5494 0.57112,3.66911 -0.19877,2.88072 -6.14442,-6.29205 -3.73855,-5.76772 -7.2805,-10.48675 -7.871,-10.48675 -2.3421,0 -14.45263,8.6688 -13.9464,9.98293 1.14126,2.96263 45.42715,71.51412 46.19982,71.51412 0.44839,0 3.7743,-1.96741 7.39093,-4.37203 z m 622.35035,-21.34598 c 7.4141,-12.30805 9.5335,-19.58331 7.0544,-24.21561 -1.1224,-2.09723 -0.6948,-2.49501 4.0452,-3.76274 5.7179,-1.5293 9.9905,-6.2424 14.954,-16.49563 3.2896,-6.79539 2.3597,-11.32283 -3.5165,-17.1199 -5.59,-5.5148 -28.6616,-18.85428 -30.1081,-17.40781 -1.5325,1.53252 -43.1175,71.46673 -43.1175,72.51148 0,0.81972 13.4085,9.43698 14.684,9.43698 0.3233,0 4.4996,-6.60665 9.2806,-14.68145 13.4706,-22.75091 11.5184,-20.48871 15.5998,-18.0778 1.9283,1.13906 3.7971,2.82989 4.1531,3.75741 0.3559,0.92752 -3.6721,8.91259 -8.9511,17.74461 -5.279,8.83201 -9.5982,16.47831 -9.5982,16.99176 0,0.51346 3.3661,2.91888 7.4803,5.34539 l 7.4802,4.41186 1.685,-3.25157 c 0.9268,-1.78835 4.9204,-8.6225 8.8748,-15.18698 z M 566.45965,550.08 c 12.3838,-5.47419 17.60901,-13.05474 14.82115,-21.50203 -2.9451,-8.92376 -24.087,-53.93181 -26.58046,-56.58597 -3.26241,-3.47268 -10.72596,-5.60223 -15.78152,-4.50289 -7.10921,1.54592 -18.67452,7.79751 -21.33355,11.53179 -1.4839,2.08393 -2.81621,6.0752 -3.07624,9.21567 -0.40841,4.93223 0.85109,8.43097 11.48587,31.90638 11.88178,26.22807 15.64456,32.26278 20.80653,33.36936 4.89887,1.05017 12.53331,-0.2828 19.65822,-3.43231 z m 486.25315,-1.2352 c 1.2319,-2.9953 2.0409,-5.6292 1.7977,-5.85312 -0.2431,-0.2239 -4.4869,-2.1167 -9.4306,-4.2062 -4.9438,-2.08951 -9.4257,-4.23213 -9.9598,-4.76137 -0.8831,-0.87496 7.7595,-23.53919 9.7243,-25.50088 0.4591,-0.45834 5.1043,1.02475 10.3228,3.29576 5.2184,2.27101 9.549,3.99431 9.6234,3.82956 0.074,-0.16475 1.0921,-2.40093 2.2614,-4.9693 1.1694,-2.56835 1.6927,-5.0801 1.163,-5.58165 -0.5297,-0.50154 -4.4687,-2.36023 -8.7533,-4.13042 -4.2846,-1.77019 -8.2022,-3.60753 -8.7059,-4.08298 -1.2349,-1.16582 6.4124,-19.2875 8.1393,-19.2875 0.7508,0 5.6348,1.86446 10.8533,4.14325 l 9.4883,4.14325 2.0085,-4.44287 c 1.1046,-2.44358 2.0484,-5.05452 2.0973,-5.80208 0.1073,-1.64005 -36.1145,-17.41908 -37.2894,-16.24413 -1.0766,1.07655 -33.3324,76.40744 -33.3324,77.84502 0,0.85162 34.5025,16.61138 37.1531,16.97049 0.3296,0.0447 1.6071,-2.36951 2.839,-5.36483 z M 630.04953,526.18686 c 10.40227,-3.76116 14.73598,-8.26687 14.73598,-15.32083 0,-4.84969 -13.86876,-52.50781 -17.60055,-60.48191 -1.96602,-4.20099 -9.7633,-8.742 -15.01073,-8.742 -6.90651,0 -19.40043,4.98875 -23.99126,9.57958 -3.95647,3.95647 -4.52025,5.22877 -4.52025,10.20098 0,5.59152 13.87451,53.74291 17.51315,60.77927 3.83072,7.4078 15.10396,8.96364 28.87366,3.98491 z M 1000.428,489.87682 c 9.9486,-20.93096 18.2674,-38.79271 18.4864,-39.69277 0.2678,-1.10117 -2.1503,-2.37236 -7.3922,-3.88605 -4.2845,-1.23725 -8.084,-2.25166 -8.4432,-2.25423 -0.3591,-0.003 -5.48265,10.20059 -11.38558,22.6737 -5.90291,12.47311 -10.89974,21.94862 -11.10405,21.05669 -0.20431,-0.89193 0.7395,-11.37767 2.09735,-23.30164 1.35786,-11.92398 2.46883,-22.66774 2.46883,-23.87503 0,-1.68786 -1.81216,-2.6856 -7.84262,-4.31797 -4.31344,-1.16759 -8.04366,-1.92179 -8.28937,-1.67599 -0.5599,0.5601 -10.23583,79.81752 -10.2316,83.80901 0.002,2.64236 1.02876,3.23697 10.48675,6.07788 5.76602,1.73194 11.06356,3.21507 11.77234,3.29583 0.70877,0.0808 9.42842,-16.97847 19.37695,-37.90943 z m -321.95366,23.66857 6.72291,-1.29262 -2.23438,-12.21711 c -1.22889,-6.71941 -2.08998,-12.65023 -1.91352,-13.17961 0.17646,-0.52937 3.45627,4.17555 7.28848,10.45538 3.8322,6.27983 7.48718,11.73899 8.12219,12.13143 1.30539,0.80678 17.93768,-1.8154 19.3634,-3.05274 0.50956,-0.44224 -5.24455,-10.26613 -12.78692,-21.83087 l -13.71341,-21.0268 5.15969,-20.53306 5.15968,-20.53305 -3.75837,0.0965 c -2.06712,0.053 -6.14135,0.7272 -9.05386,1.49811 l -5.29547,1.40166 -3.3267,12.41738 c -1.82968,6.82955 -3.54293,12.63361 -3.80722,12.89789 -0.26428,0.26428 -1.43851,-4.97336 -2.6094,-11.63921 l -2.12889,-12.11972 -3.7495,0.76709 c -2.06222,0.4219 -6.0416,1.08883 -8.84306,1.48208 -2.80146,0.39325 -5.09357,1.05646 -5.09357,1.47381 0,1.03496 14.17578,79.16029 14.95121,82.39888 0.40429,1.68847 1.34863,2.43155 2.72146,2.14147 1.15629,-0.24432 5.12766,-1.0259 8.82525,-1.73684 z m 255.43997,-42.20914 c 4.37756,-23.21826 7.72687,-42.44736 7.4429,-42.73133 -0.63938,-0.63938 -16.58827,-3.6788 -17.02296,-3.24411 -0.80514,0.80515 -15.95508,83.72274 -15.3987,84.27913 0.5733,0.57331 12.71351,3.49191 15.75876,3.78853 0.7274,0.0708 4.62802,-17.73667 9.22,-42.09222 z m -45.28708,29.93055 c 1.06851,-7.82052 7.83598,-80.41074 7.51982,-80.66001 -0.15329,-0.12086 -3.56866,-0.57852 -7.58972,-1.01702 l -7.31099,-0.79729 -1.34791,13.52217 c -0.74135,7.43719 -1.71701,18.07166 -2.16814,23.63216 -0.97453,12.01202 -1.06151,11.81677 -7.07978,-15.89304 -3.14814,-14.49499 -5.23465,-21.66711 -6.48983,-22.30813 -1.01747,-0.51962 -5.76001,-1.25661 -10.53898,-1.63776 l -8.68902,-0.693 -0.0718,3.22611 c -0.0394,1.77436 -1.80539,21.11538 -3.92425,42.98005 l -3.8525,39.75394 3.47482,0.69496 c 6.75437,1.35087 11.37123,0.8105 11.98158,-1.40238 0.31816,-1.15355 1.24808,-10.18714 2.06648,-20.07465 0.81838,-9.88751 1.82716,-18.94105 2.24172,-20.11898 0.45419,-1.29054 3.15478,7.04471 6.79535,20.97351 l 6.04163,23.1152 5.30114,0.71886 c 12.59455,1.70788 12.86954,1.62694 13.64035,-4.0147 z m -80.41111,-1.35288 c 2.17524,-0.90887 5.12417,-3.13888 6.55318,-4.95557 2.50263,-3.18158 2.59794,-4.3661 2.59102,-32.20473 -0.004,-15.89591 -0.35524,-33.37302 -0.78064,-38.83802 l -0.77347,-9.93635 -8.50762,0.34847 -8.50762,0.34846 0.47761,36.3731 c 0.51681,39.35972 0.65313,38.47439 -5.93073,38.51393 -5.85592,0.0352 -5.9325,-0.46277 -5.9325,-38.5729 v -35.71489 l -9.28827,-8.8e-4 -9.28827,-8.8e-4 0.36428,36.85433 c 0.40876,41.3534 0.78589,43.42345 8.62437,47.33922 5.29942,2.64735 24.45797,2.92889 30.39866,0.44671 z"
       id="path495"
       transform="matrix(0.75000002,0,0,-0.75000002,0,1200)" />
    <path
       style="fill:#ffffff;stroke-width:1.19849"
       d="m 479.67567,916.93469 c -2.1524,-0.98467 -4.21387,-2.57318 -4.58104,-3.53 -3.4622,-9.02237 31.17359,-34.48635 87.29496,-64.17864 l 14.08221,-7.45051 v 31.81751 31.81751 l -2.69659,0.61969 c -36.48545,8.38449 -55.20029,11.44907 -74.00652,12.11868 -12.75032,0.45398 -17.00901,0.19663 -20.09302,-1.21424 z"
       id="path497"
       transform="matrix(0.75000002,0,0,-0.75000002,0,1200)" />
    <path
       style="fill:#ffffff;stroke-width:1.19849"
       d="m 960.37742,1121.8319 c -8.94061,-3.8889 -9.53117,-12.3316 -1.32706,-18.9717 11.64488,-9.425 30.65405,-2.6981 25.66746,9.0831 -2.07234,4.896 -5.39565,7.8423 -11.16817,9.901 -5.77865,2.0609 -8.41148,2.0585 -13.17223,-0.012 z"
       id="path499"
       transform="matrix(0.75000002,0,0,-0.75000002,0,1200)" />
    <path
       style="fill:#ffffff;stroke-width:1.19849"
       d="m 1111.962,528.18463 -3.2292,-2.12966 5.4351,-9.22274 5.4351,-9.22274 3.5486,1.83507 c 1.9517,1.00929 3.8456,2.60894 4.2085,3.55477 0.9027,2.35219 -8.0223,17.33268 -10.3205,17.32286 -1.0166,-0.004 -3.3015,-0.96624 -5.0776,-2.13756 z"
       id="path501"
       transform="matrix(0.75000002,0,0,-0.75000002,0,1200)" />
    <path
       style="fill:#ffffff;stroke-width:1.19849"
       d="m 612.56721,500.66756 c -10.57915,-33.98873 -12.12569,-39.23765 -12.12569,-41.15434 0,-1.33111 1.60439,-2.40646 4.80089,-3.21781 2.64048,-0.67023 5.00077,-0.87066 5.24507,-0.44541 0.24431,0.42526 4.04213,12.52627 8.4396,26.89113 4.39747,14.36487 8.29818,26.90697 8.66824,27.87134 0.45588,1.18799 -0.70951,2.33097 -3.61409,3.54459 -2.35782,0.98516 -4.82039,1.79119 -5.47239,1.79119 -0.65199,0 -3.32572,-6.87631 -5.94163,-15.28069 z"
       id="path503"
       transform="matrix(0.75000002,0,0,-0.75000002,0,1200)" />
    <path
       style="fill:#ffffff;stroke-width:1.19849"
       d="m 553.86721,537.82062 c -2.94136,-5.52694 -22.93788,-50.68369 -22.93788,-51.79901 0,-1.90458 8.20532,-5.50568 9.47491,-4.15828 1.28446,1.36318 24.0827,51.86997 24.0827,53.35236 0,1.12961 -6.2968,4.70229 -8.28772,4.70229 -0.66871,0 -1.71811,-0.94381 -2.33201,-2.09736 z"
       id="path505"
       transform="matrix(0.75000002,0,0,-0.75000002,0,1200)" />
    <path
       style="fill:#ffffff;stroke-width:1.19849"
       d="m 346.36247,723.24421 c -41.24757,-14.78973 -37.43137,-13.05813 -36.56603,-16.59186 1.69024,-6.90224 1.88897,-6.8825 30.05909,2.98523 14.45508,5.06347 27.02491,9.88944 27.93295,10.72436 1.68076,1.54542 0.98627,10.19532 -0.80643,10.04406 -0.4645,-0.0392 -9.74331,-3.262 -20.61958,-7.16179 z"
       id="path507"
       transform="matrix(0.75000002,0,0,-0.75000002,0,1200)" />
    <path
       style="fill:#ffffff;stroke-width:1.19849"
       d="m 760.0086,1245.6921 c -191.535,-9.5133 -367.41156,-90.3998 -467.49959,-215.0053 -47.43177,-59.05065 -75.36037,-123.68407 -83.36984,-192.93769 -3.6583,-31.63134 -1.78457,-72.65631 4.80178,-105.13417 29.95837,-147.72737 159.63951,-276.3506 341.05681,-338.27455 59.47857,-20.30208 114.50609,-31.64488 184.46815,-38.02435 24.97897,-2.2777 99.93612,-1.91023 127.03952,0.6228 147.58857,13.79332 273.73477,62.92446 373.92767,145.63655 28.1146,23.20941 61.472,59.02397 82.5818,88.66481 119.2263,167.40938 82.0796,375.7628 -91.7163,514.4307 -122.8331,98.0057 -293.90562,148.8317 -471.29,140.0212 z m 77.13392,-13.0533 c 69.72223,-3.6155 131.6313,-14.8051 193.36778,-34.9498 142.905,-46.6301 253.3679,-132.5689 310.1556,-241.29749 18.3773,-35.18619 31.1458,-75.91874 36.6296,-116.85202 2.3285,-17.38035 1.9468,-65.68001 -0.6536,-82.69554 -6.3202,-41.35738 -16.5464,-73.76856 -34.4107,-109.06223 -60.1095,-118.75608 -185.7057,-211.20263 -346.64091,-255.14913 -86.82015,-23.70794 -188.43511,-31.033 -283.09032,-20.40698 -182.3667,20.47255 -341.73665,105.84452 -427.66744,229.09468 -32.09508,46.03384 -53.1008,97.62468 -61.37108,150.72972 -2.6388,16.9442 -3.66413,62.61266 -1.82008,81.06612 4.61385,46.17082 20.20952,94.32672 44.19337,136.4591 27.57308,48.43757 71.82952,97.62577 121.72553,135.29007 118.42192,89.3915 283.73352,136.3739 449.58225,127.7735 z"
       id="path509"
       transform="matrix(0.75000002,0,0,-0.75000002,0,1200)"
       inkscape:export-filename="..\OneDrive\바탕 화면\잉스케이프-로고\단국대학교.png"
       inkscape:export-xdpi="96"
       inkscape:export-ydpi="96" />
  </g>
</svg>
