<?xml version="1.0" encoding="UTF-8" standalone="no"?>
<!-- Created with Inkscape (http://www.inkscape.org/) -->

<svg
   version="1.1"
   id="svg242"
   width="1122.5195"
   height="793.7005"
   viewBox="0 0 1122.5195 793.7005"
   sodipodi:docname="동국대학교.svg"
   inkscape:version="1.2.1 (9c6d41e410, 2022-07-14)"
   xmlns:inkscape="http://www.inkscape.org/namespaces/inkscape"
   xmlns:sodipodi="http://sodipodi.sourceforge.net/DTD/sodipodi-0.dtd"
   xmlns="http://www.w3.org/2000/svg"
   xmlns:svg="http://www.w3.org/2000/svg">
  <defs
     id="defs246" />
  <sodipodi:namedview
     id="namedview244"
     pagecolor="#ffffff"
     bordercolor="#000000"
     borderopacity="0.25"
     inkscape:showpageshadow="2"
     inkscape:pageopacity="0.0"
     inkscape:pagecheckerboard="true"
     inkscape:deskcolor="#d1d1d1"
     showgrid="false"
     inkscape:zoom="3.3640337"
     inkscape:cx="423.89588"
     inkscape:cy="425.08493"
     inkscape:window-width="2560"
     inkscape:window-height="1494"
     inkscape:window-x="-11"
     inkscape:window-y="-11"
     inkscape:window-maximized="1"
     inkscape:current-layer="g250">
    <inkscape:page
       x="0"
       y="0"
       id="page248"
       width="1122.5195"
       height="793.7005" />
  </sodipodi:namedview>
  <g
     id="g250"
     inkscape:groupmode="layer"
     inkscape:label="Page 1"
     transform="matrix(1.3333333,0,0,-1.3333333,0,793.70052)">
    <text
       xml:space="preserve"
       transform="matrix(0.89999857,0,0,-1,34.19336,433.95313)"
       style="font-variant:normal;font-weight:normal;font-size:7px;font-family:YGO12;-inkscape-font-specification:YGO12;writing-mode:lr-tb;fill:#4f4c4d;fill-opacity:1;fill-rule:nonzero;stroke:none"
       id="text258"><tspan
         x="0 6.2300701 12.46014 18.69021 24.92028 27.650351 33.880421 40.110489 46.340561 49.070629 52.815701 59.045769 65.275841 68.005913 74.235977 80.466049 83.196121 89.426193 95.656258 101.88633 108.1164 110.84647 117.07654 123.30661 129.81668 136.32675"
         y="0"
         sodipodi:role="line"
         id="tspan252">사성제를 뜻하는 4개의 원과 팔정도를 상징하는 </tspan><tspan
         x="0 4.1580701 10.66814 17.178209 20.18828 26.698351 33.20842 39.718491 42.728561 49.238628 55.748699 62.25877 65.268837 70.182907 74.291977 76.189049 80.347122 84.491188 87.039261 88.57933 90.476402 94.312469 97.32254 101.36861 105.51268 109.87375 114.01782 120.52789 123.67796 129.76804"
         y="12.00003"
         sodipodi:role="line"
         id="tspan254">8개의 점으로 구성된 Authority Logo는 동국</tspan><tspan
         x="0 5.9500699 11.90014 17.85021 23.80028 26.250351 32.20042 38.15049 44.100559 46.550629 52.500702 58.450771 64.400841 66.850906 72.80098 78.751053 84.701118 90.651192 93.101257 99.19133 105.2814 111.37147 117.88154 124.81161 131.74168"
         y="23.99999"
         sodipodi:role="line"
         id="tspan256">대학교의 전통과 권위를 나타내는 상징요소로서 </tspan></text>
    <text
       xml:space="preserve"
       transform="matrix(0.89999857,0,0,-1,34.19336,397.95313)"
       style="font-variant:normal;font-weight:normal;font-size:7px;font-family:YGO12;-inkscape-font-specification:YGO12;writing-mode:lr-tb;fill:#4f4c4d;fill-opacity:1;fill-rule:nonzero;stroke:none"
       id="text264"><tspan
         x="0 6.6500702 13.30014 19.950211 26.600281 29.750351 36.400421 43.050491 49.700562 52.850632 59.500702 66.150772 69.300842 75.950912 79.100983 85.751053 92.401123 99.051193 102.20126 108.85133 115.5014 122.15147 128.80154"
         y="0"
         sodipodi:role="line"
         id="tspan260">부처님의 교법과 진체 및 진리의 원만성과 </tspan><tspan
         x="0 6.6500702 13.30014 19.950211 26.600281 29.750351 36.400421 43.050491 49.700562 56.350632"
         y="12.00003"
         sodipodi:role="line"
         id="tspan262">진취성을 보여준다.</tspan></text>
    <text
       xml:space="preserve"
       transform="matrix(0.89999857,0,0,-1,34.19336,373.95313)"
       style="font-variant:normal;font-weight:normal;font-size:7px;font-family:YGO12;-inkscape-font-specification:YGO12;writing-mode:lr-tb;fill:#4f4c4d;fill-opacity:1;fill-rule:nonzero;stroke:none"
       id="text268"><tspan
         x="0 6.6500702 13.30014 19.950211 23.100281 29.750351 36.400421 43.050491 49.700562 56.350632 63.000702 66.150772 72.800842 79.450912 86.100983 92.751053 95.901123 102.55119 109.20126 115.85133 122.5014"
         y="0"
         sodipodi:role="line"
         id="tspan266">따라서 동국대학교의 이미지가 올바르게 </tspan></text>
    <text
       xml:space="preserve"
       transform="matrix(0.89999857,0,0,-1,34.19336,361.95313)"
       style="font-variant:normal;font-weight:normal;font-size:7px;font-family:YGO12;-inkscape-font-specification:YGO12;writing-mode:lr-tb;fill:#4f4c4d;fill-opacity:1;fill-rule:nonzero;stroke:none"
       id="text274"><tspan
         x="0 6.6500702 13.30014 19.950211 23.100281 29.750351 32.900421 39.550491 46.200562 52.850632 56.000702 62.650768 69.300842 75.950912 82.600983 85.751053 92.401123 99.051193 105.70126 112.35133 115.5014 122.15147 128.80154 135.45161"
         y="0"
         sodipodi:role="line"
         id="tspan270">전달될 수 있도록 매뉴얼에 예시되는 항목별 </tspan><tspan
         x="0 6.6500702 13.30014 19.950211 23.100281 29.750351 36.400421 39.550491 46.200562 52.850632 59.500702 66.150772 69.300842 75.950912 82.600983 89.251053 95.901123 99.051193 105.70126 112.35133"
         y="12.00003"
         sodipodi:role="line"
         id="tspan272">규정에 따라 정확하게 사용해야 한다.</tspan></text>
    <text
       xml:space="preserve"
       transform="matrix(0.89999857,0,0,-1,34.19336,337.95313)"
       style="font-variant:normal;font-weight:normal;font-size:7px;font-family:YGO12;-inkscape-font-specification:YGO12;writing-mode:lr-tb;fill:#4f4c4d;fill-opacity:1;fill-rule:nonzero;stroke:none"
       id="text282"><tspan
         x="0 6.6500702 13.30014 19.950211 23.100281 29.750351 36.400421 43.050491 46.200562 52.850632 59.500702 66.150772 72.800842 79.450912 86.100983 89.251053 95.901123 102.55119 104.44826 107.59833 114.2484 120.89847 124.04854 130.69861"
         y="0"
         sodipodi:role="line"
         id="tspan276">제작물 개발시 아이덴티티의 왜곡, 변형 및 </tspan><tspan
         x="0 6.6500702 13.30014 19.950211 23.100281 29.750351 36.400421 39.550491 46.200562 52.850632 56.000702 62.650768 69.300842 75.950912 79.100983 85.751053 92.401123 95.551193 102.20126 108.85133 115.5014 118.65147 125.30154 131.95161"
         y="12.00003"
         sodipodi:role="line"
         id="tspan278">오남용 등에 따른 이미지 손상 방지를 위해 </tspan><tspan
         x="0 6.6500702 13.30014 16.450211 23.100281 29.750351 36.400421 39.550491 46.200562 52.850632 56.000702 62.650768 69.300842 75.950912 79.100983 85.751053 92.401123 99.051193 102.20126 108.85133 115.5014 122.15147"
         y="23.99999"
         sodipodi:role="line"
         id="tspan280">로고 적용에 따른 규정과 원칙을 반드시 </tspan></text>
    <text
       xml:space="preserve"
       transform="matrix(0.89999857,0,0,-1,34.19336,301.95313)"
       style="font-variant:normal;font-weight:normal;font-size:7px;font-family:YGO12;-inkscape-font-specification:YGO12;writing-mode:lr-tb;fill:#4f4c4d;fill-opacity:1;fill-rule:nonzero;stroke:none"
       id="text286"><tspan
         x="0 6.6500702 13.30014 19.950211 26.600281 29.750351 36.400421 43.050491"
         y="0"
         sodipodi:role="line"
         id="tspan284">준수해야 한다.</tspan></text>
    <text
       xml:space="preserve"
       transform="matrix(1,0,0,-1,34.19336,481.625)"
       style="font-variant:normal;font-weight:bold;font-size:18px;font-family:Univers;-inkscape-font-specification:Univers-Bold;writing-mode:lr-tb;fill:#48494f;fill-opacity:1;fill-rule:nonzero;stroke:none"
       id="text290"><tspan
         x="0 12.996 23.993999 30.996 41.993999 52.992001 59.993999 64.998001 72 82.008003 87.012001 97.019997 108.018 119.016"
         y="0"
         sodipodi:role="line"
         id="tspan288">Authority Logo</tspan></text>
    <text
       xml:space="preserve"
       transform="matrix(1,0,0,-1,34.07764,30.07715)"
       style="font-variant:normal;font-weight:normal;font-size:10px;font-family:Univers;-inkscape-font-specification:Univers;writing-mode:lr-tb;fill:#65636a;fill-opacity:1;fill-rule:nonzero;stroke:none"
       id="text294"><tspan
         x="0 5.5599999 8.3400002 11.12 16.68"
         y="0"
         sodipodi:role="line"
         id="tspan292">1. 03</tspan></text>
    <path
       d="m 439.75195,301.14258 c -3.16992,0.041 -7.11914,-0.70313 -7.15429,-4.69336 -0.0547,-3.70313 3.62304,-4.77734 7.03711,-4.80957 2.86523,-0.0381 7.04296,0.44629 7.08789,4.6582 0.043,3.9541 -3.80078,4.81543 -6.97071,4.84473 m -0.0859,-6.77246 c -1.75782,0.0186 -5.06641,0.0635 -5.03321,2.05566 0.0156,2.0332 3.32813,2.00391 5.07617,1.98242 1.72461,-0.0215 5,-0.0332 4.97852,-2.09472 -0.0195,-2.01172 -3.30078,-1.95215 -5.02148,-1.94336 m -157.417,35.10449 c 1.20264,0 2.17041,0.96582 2.17041,2.16602 0,1.20117 -0.96777,2.1748 -2.17041,2.1748 -1.19238,0 -2.1748,-0.97363 -2.1748,-2.1748 0,-1.2002 0.98242,-2.16602 2.1748,-2.16602 m 16.62744,28.35205 -5.60644,-5.46924 1.42285,-1.44971 12.97949,12.67432 -1.40332,1.44531 -5.64453,-5.49267 -1.14746,1.17334 c 0.22949,0.23095 4.10254,4.00146 4.10254,4.00146 l -1.40234,1.45655 -8.1377,-7.94239 -1.48633,1.53321 7.99121,7.78076 -1.42187,1.45068 -9.68555,-9.46289 4.30762,-4.41504 c 0,0 3.75683,3.66113 3.9873,3.89063 l 1.14453,-1.17432 m 2.9043,-1.18652 c -1.67383,-1.64063 -2.70605,-3.09229 -3.13379,-4.43604 -0.45312,-1.37207 -0.30957,-2.45508 0.42774,-3.21972 0.73828,-0.7544 1.81836,-0.91944 3.21875,-0.50245 1.34277,0.37647 2.86328,1.38965 4.51172,3.00049 1.62988,1.58496 2.68457,3.08545 3.11132,4.44287 0.44336,1.37451 0.29102,2.4585 -0.4375,3.21729 l -0.0107,0.008 c -0.74219,0.74512 -1.83203,0.9082 -3.19043,0.51514 -1.35937,-0.41114 -2.8291,-1.39258 -4.49707,-3.02539 m 5.79297,0.6416 c 0.32422,-0.32764 0.30566,-0.89697 -0.0508,-1.68506 -0.37598,-0.83545 -1.08789,-1.75732 -2.07129,-2.72803 -1.00391,-0.96826 -1.94727,-1.65674 -2.80957,-2.01709 -0.79199,-0.33349 -1.36523,-0.33349 -1.67871,0 -0.16992,0.16699 -0.24805,0.38965 -0.24805,0.65625 0,0.29883 0.10156,0.6416 0.29199,1.04541 0.375,0.84424 1.07618,1.76367 2.07813,2.73291 1.00488,0.97803 1.95019,1.64942 2.7832,1.99951 0.80664,0.33643 1.37305,0.33643 1.70508,-0.004 m 23.45801,22.36767 c -0.0801,0.86914 -0.29883,1.93116 -0.67481,3.23633 l -0.92968,3.02442 -12.96192,-5.80811 0.84571,-1.86084 c 0,0 10.12792,4.53467 10.47265,4.6875 0.0889,-0.31738 0.65723,-2.38965 0.65723,-2.38965 0.26953,-1.00146 0.40137,-1.8623 0.40137,-1.8623 l -11.64454,-5.19824 0.83594,-1.87891 6.87988,3.08008 c 0.12012,-0.27246 1.08106,-2.42725 1.19629,-2.69824 l -4.97265,-2.22852 0.84961,-1.85889 10.36718,4.63867 1.6543,-3.67529 2.22266,0.9917 -2.48828,5.54248 -5.39258,-2.41113 -1.20313,2.69433 7.46289,3.33985 -0.83398,1.86621 -2.74414,-1.23145 m -57.15283,-109.52343 0.99414,-3.2041 13.04248,4.05175 -0.77344,2.50293 -9.75781,-3.02441 8.21093,8.03027 -1.0039,3.23047 -13.0625,-4.05469 0.7876,-2.50781 9.8164,3.05469 -8.2539,-8.0791 m 12.72119,-9.5752 -1.90528,-1.00683 1.36914,-2.55567 -3.1372,-1.69336 c -0.31104,0.35938 -0.66455,0.83985 -1.02295,1.4961 -1.38184,2.57812 -0.34619,5.08593 2.10303,6.39062 2.46826,1.32617 5.20068,0.79297 6.71337,-2.02148 0.5127,-0.96778 0.95118,-2.28516 1.02735,-3.44629 l 2.12305,0.93359 c -0.26368,1.2002 -0.66114,2.40234 -1.41407,3.80859 -2.18554,4.08887 -5.84277,5.36719 -9.96826,3.15333 -4.06787,-2.18165 -4.5791,-5.94043 -2.47949,-9.83204 0.69092,-1.29394 1.67285,-2.48046 2.70947,-3.57129 l 6.48926,3.46973 -2.60742,4.875 m 151.35107,28.67676 c -3.17383,0.50488 -6.41406,0.17578 -7.01758,-3.57715 -0.48242,-3.04394 1.20899,-4.79492 4.13282,-5.26172 2.49609,-0.39258 4.34961,0.73633 4.75586,3.28418 0.17773,1.1377 -0.0957,2.03516 -0.93555,2.82715 l 0.0469,0.0322 c 1.98633,-0.39746 4.0293,-1.53711 3.66016,-3.87598 -0.1543,-0.91016 -0.50391,-1.61133 -0.92383,-2.2793 l 2.13672,-0.69336 c 0.47266,0.88086 0.77149,1.78125 0.92774,2.76563 0.69531,4.3623 -3.125,6.19336 -6.78321,6.77832 m -0.0586,-4.63281 c -0.19727,-1.29395 -1.50195,-1.6416 -2.81641,-1.43067 -1.20117,0.19043 -2.33789,0.91797 -2.13672,2.16797 0.22071,1.33106 1.4336,1.69238 2.70703,1.48731 1.35157,-0.21387 2.45899,-0.91016 2.2461,-2.22461 m -163.36084,14.79492 c 5.39746,-0.53613 7.15625,2.99902 7.58398,7.17285 l 0.36573,3.7207 -13.5918,1.35743 -0.37256,-3.72559 c -0.41309,-4.16211 0.62012,-7.99024 6.01465,-8.52539 m -3.92236,7.78515 0.1455,1.52344 9.30957,-0.92676 -0.1455,-1.5205 c -0.22999,-2.28028 -2.14454,-4.31348 -5.09815,-4.01465 -2.97412,0.29394 -4.44092,2.65918 -4.21142,4.93847 m 5.59716,-24.08105 c 4.11768,0.41504 6.75684,3.09375 6.33008,7.36621 -0.43555,4.32129 -3.49805,6.37598 -7.67383,5.9541 -4.15234,-0.41211 -6.83447,-3.0039 -6.39062,-7.36914 0.4292,-4.30664 3.63037,-6.36719 7.73437,-5.95117 m -5.59668,6.16699 c -0.27734,2.78809 2.08838,4.06153 4.55664,4.31543 2.39502,0.23731 4.9585,-0.63183 5.22413,-3.33301 0.27636,-2.7041 -2.06592,-4.06543 -4.45997,-4.30566 -2.45605,-0.24023 -5.04101,0.53906 -5.3208,3.32324 m 127.69532,84.29004 0.80566,1.94922 -2.33887,0.96387 c 0.13086,0.29297 1.88867,4.51318 1.88867,4.51318 l -2.16894,0.89404 -4.49609,-10.7749 2.15527,-0.90088 c 0,0 1.68555,4.03418 1.81152,4.32959 l 2.34278,-0.97412 m 15.63281,-20.05859 c 0.22851,0.22656 4.26172,4.35644 4.26172,4.35644 l -1.69922,1.68067 -4.27246,-4.37744 -1.64746,1.62597 4.2666,4.35987 -1.69336,1.67968 -4.29297,-4.38232 -2.98047,2.9165 -1.41211,-1.46093 12.97266,-12.69776 1.43262,1.46143 -4.93555,4.83789 m -119.00098,-105.41016 -1.68555,-1.35058 1.83008,-2.25098 -2.76953,-2.24902 c -0.37988,0.30371 -0.81738,0.69824 -1.28906,1.28125 -1.83203,2.2705 -1.28613,4.92675 0.87891,6.66992 2.16503,1.76172 4.95898,1.74023 6.96386,-0.73731 0.70117,-0.85254 1.375,-2.06445 1.65235,-3.19336 l 1.90625,1.32032 c -0.46875,1.13769 -1.07911,2.24414 -2.08594,3.47265 -2.91211,3.61035 -6.74512,4.1875 -10.38965,1.24414 -3.58008,-2.91015 -3.37793,-6.6914 -0.58984,-10.1289 0.91211,-1.14161 2.10547,-2.11719 3.31933,-2.99414 l 5.71875,4.625 -3.45996,4.29101 m 91.29688,136.11084 5.78125,-2.42041 0.72265,1.75342 -5.78222,2.41943 -0.72168,-1.75244 m 36.24072,-25.46826 c 0,0 -2.63525,-2.47266 -6.13232,-4.82568 l 1.63574,-1.62745 c 4.95556,3.40332 7.77783,6.12354 7.77783,6.12354 l -10.2915,10.07422 -1.43067,-1.48584 8.44092,-8.25879 m 9.83789,-47.53711 c -0.19727,-0.97754 -0.22656,-1.92578 -0.0898,-2.91992 0.6289,-4.38477 4.81836,-4.99317 8.48437,-4.4707 3.17774,0.44628 6.17969,1.71777 5.6582,5.48046 -0.4414,3.05957 -2.57421,4.22559 -5.50781,3.80469 -2.5039,-0.34961 -3.92969,-1.97754 -3.5664,-4.53613 0.16211,-1.14551 0.70507,-1.91406 1.73046,-2.41895 l -0.043,-0.0469 c -2.01758,-0.21192 -4.29493,0.27734 -4.62891,2.62305 -0.14258,0.91796 0,1.68457 0.19141,2.4414 l -2.22852,0.043 m 9.34766,-0.75684 c 1.20507,0.1709 2.50586,-0.18554 2.68359,-1.44238 0.19141,-1.33203 -0.86523,-2.03515 -2.14453,-2.21973 -1.35352,-0.18847 -2.625,0.14063 -2.81055,1.46485 -0.17773,1.2959 0.96094,2.01172 2.27149,2.19726 m -84.16748,66.62696 v 2.09277 c -2.78125,-0.34668 -5.57715,-0.2749 -5.57715,-0.2749 v 7.81201 h 4.8916 l -0.0127,2.08203 h -7.21972 v -12.03564 c 0,0 4.44336,-0.0791 7.91797,0.32373 M 432.125,329.47461 c 1.19141,0 2.16406,0.96582 2.16406,2.16602 0,1.20117 -0.97265,2.1748 -2.16406,2.1748 -1.20703,0 -2.17578,-0.97363 -2.17578,-2.1748 0,-1.2002 0.96875,-2.16602 2.17578,-2.16602 m -49.42139,53.2207 10.73243,-4.48535 0.72558,1.76465 -10.72266,4.47021 -0.73535,-1.74951 m -22.05664,-0.78369 h 1.94727 v -9.03857 l 2.29297,-0.005 0.0215,17.94629 h -2.31445 v -6.71582 h -1.94727 v 6.74073 h -2.3164 v -17.04737 l 2.3164,-0.007 v 8.12646 m 28.80371,-16.78027 2.23438,-0.93067 2.20508,5.28565 -12.4502,5.20361 -0.7666,-1.78467 10.24609,-4.27832 -1.46875,-3.4956 m -3.99707,9.09033 c 1.42285,-0.59961 2.67285,-0.80908 3.74121,-0.60791 1.04981,0.21045 1.75586,0.73291 2.09961,1.55762 0.34082,0.80908 0.21973,1.67578 -0.36523,2.56591 -0.58691,0.87208 -1.58106,1.59913 -3.05371,2.20411 -1.39063,0.58886 -2.63184,0.78906 -3.67481,0.61035 -1.1123,-0.18213 -1.81543,-0.68067 -2.16015,-1.51758 -0.12696,-0.29297 -0.19141,-0.59229 -0.19141,-0.90234 0,-0.54883 0.20703,-1.12891 0.61231,-1.7168 0.61816,-0.88037 1.62207,-1.625 2.99218,-2.19336 m -1.09082,3.83594 c 0.14453,0.3457 0.44727,0.54687 0.89356,0.59619 0.49414,0.0727 1.13379,-0.062 1.92773,-0.39063 0.78418,-0.33252 1.33203,-0.6958 1.62305,-1.06787 0.26074,-0.35644 0.31348,-0.70215 0.18652,-1.03613 -0.15234,-0.35449 -0.45019,-0.55957 -0.9082,-0.63867 -0.46191,-0.0801 -1.1084,0.0371 -1.89551,0.36621 -0.78418,0.32812 -1.32129,0.6958 -1.62207,1.09863 -0.27637,0.38086 -0.34473,0.73438 -0.20508,1.07227 m -26.75683,19.29687 c -53.6836,0 -97.35987,-43.66797 -97.35987,-97.34961 0,-53.66797 43.67627,-97.34765 97.35987,-97.34765 53.66601,0 97.34326,43.67968 97.34326,97.34765 0,53.68164 -43.67725,97.34961 -97.34326,97.34961 m 0,-192.88379 c -52.67676,0 -95.53907,42.86328 -95.53907,95.53418 0,52.67823 42.86231,95.54053 95.53907,95.54053 52.67578,0 95.52881,-42.8623 95.52881,-95.54053 0,-52.6709 -42.85303,-95.53418 -95.52881,-95.53418 m 49.86425,38.30664 9.22364,-10.083 2.01855,1.84863 -9.22949,10.08398 -2.0127,-1.84961 M 397.3052,227.238 l -0.0166,0.042 c 1.4375,1.00489 1.78028,2.68262 1.04004,4.10645 -1.73828,3.37305 -4.80371,1.68457 -7.42187,0.33594 l -2.62598,-1.36328 6.28418,-12.13868 2.4209,1.26172 -2.60156,5.04102 0.78222,0.40039 c 1.02442,0.53808 1.52735,0.35351 2.33887,-0.36719 l 3.4209,-3.03906 2.71387,1.39258 -4.40332,3.74902 c -0.52246,0.40723 -1.24512,0.87305 -1.93164,0.5791 m -3.09961,-0.38769 -0.80567,-0.417 -1.68847,3.27637 0.80078,0.41797 c 1.21484,0.61816 2.6289,1.20117 3.39453,-0.26465 0.78711,-1.50879 -0.50781,-2.39453 -1.70117,-3.01269 m 8.93261,7.66601 c -0.86718,1.20899 -0.12597,2.25098 0.62305,2.80664 0.77734,0.56348 1.68848,0.95215 2.59863,1.16309 l -1.12011,1.96582 c -1.00391,-0.31836 -1.98731,-0.84082 -2.93555,-1.52637 -1.94824,-1.41601 -3.2002,-3.71777 -1.39844,-6.18164 2.66211,-3.65625 6.86524,0.73438 8.39063,-1.36523 0.73828,-0.99414 -0.0732,-2.24317 -0.917,-2.85254 -0.86914,-0.63086 -1.93554,-0.99707 -2.99218,-1.1377 l 1.24218,-2.14844 c 1.28711,0.52344 1.94727,0.75684 3.15235,1.63086 2.22461,1.62793 3.46484,3.94532 1.7041,6.36719 -2.6875,3.70313 -6.94727,-0.63476 -8.34766,1.27832 m -18.57714,-17.73144 -1.23633,3.63379 4.62304,1.55371 -0.68652,2.04199 -4.61914,-1.55469 -1.07227,3.18945 5.03321,1.70215 -0.68457,2.03614 -7.64356,-2.57129 4.36719,-12.94727 7.68262,2.58887 -0.69239,2.04394 -5.07128,-1.71679 m 40.08349,47.7705 -1.51758,-2.46972 3.15039,-5.81348 -6.58252,0.27832 -1.69043,-2.73242 9.65577,-0.10547 4.58984,-2.84277 1.4375,2.33105 -4.58984,2.84278 -4.45313,8.51171 m -5.26611,-12.35546 -1.62891,1.41796 -6.94238,-7.97168 1.61328,-1.40234 2.58398,2.94434 8.6753,-7.57129 1.80078,2.0664 -8.68506,7.56641 2.58301,2.9502 m -47.0459,-37.60254 -0.0361,-0.006 -5.22657,10.00976 -2.90918,-0.48828 6.90528,-12.70703 3.3164,0.56543 2.28418,14.23535 -2.6914,-0.44726 -1.64258,-11.16211 m -14.72656,137.85742 c -28.92774,0 -52.45703,-23.5332 -52.45703,-52.45117 0,-28.91504 23.52929,-52.44825 52.45703,-52.44825 28.91894,0 52.4414,23.53321 52.4414,52.44825 0,28.91797 -23.52246,52.45117 -52.4414,52.45117 m 0,-102.69727 c -27.72071,0 -50.26367,22.53907 -50.26367,50.2461 0,27.71093 22.54296,50.25879 50.26367,50.25879 27.6914,0 50.24218,-22.54786 50.24218,-50.25879 0,-27.70703 -22.55078,-50.2461 -50.24218,-50.2461 m 59.52929,55.3086 c -2.78418,0 -5.0664,-2.27149 -5.0664,-5.06641 0,-2.80469 2.28222,-5.06641 5.0664,-5.06641 2.78614,0 5.05616,2.26172 5.05616,5.06641 0,2.79492 -2.27002,5.06641 -5.05616,5.06641 m -59.52929,40.32324 c -25.04785,0 -45.39453,-20.36035 -45.39453,-45.38477 0,-25.0166 20.34668,-45.38086 45.39453,-45.38086 25.01367,0 45.37988,20.36426 45.37988,45.38086 0,25.02442 -20.36621,45.38477 -45.37988,45.38477 m 0,-88.54004 c -23.82617,0 -43.17676,19.35937 -43.17676,43.15527 0,23.81446 19.35059,43.1753 43.17676,43.1753 23.78515,0 43.15429,-19.36084 43.15429,-43.1753 0,-23.7959 -19.36914,-43.15527 -43.15429,-43.15527 m 0.009,81.40381 c -21.10254,0 -38.26563,-17.15772 -38.26563,-38.24951 0,-21.08692 17.16309,-38.24219 38.26563,-38.24219 21.07714,0 38.22949,17.15527 38.22949,38.24219 0,21.09179 -17.15235,38.24951 -38.22949,38.24951 m 0,-74.29737 c -19.89356,0 -36.06348,16.16895 -36.06348,36.04786 0,19.88183 16.16992,36.05322 36.06348,36.05322 19.87597,0 36.04296,-16.17139 36.04296,-36.05322 0,-19.87891 -16.16699,-36.04786 -36.04296,-36.04786 m 2.15136,-39.81933 0.56739,-13.64942 2.74316,0.10743 -0.57812,13.65527 -2.73243,-0.11328 m 66.75342,75.86816 c 0,38.00147 -30.92139,68.92383 -68.91943,68.92383 -38.02246,0 -68.92481,-30.92236 -68.92481,-68.92383 0,-37.99511 30.90235,-68.9209 68.92481,-68.9209 37.99804,0 68.91943,30.92579 68.91943,68.9209 m -68.9197,-67.04353 c -36.98242,0 -67.0586,30.08301 -67.0586,67.04394 0,36.97754 30.07618,67.05664 67.0586,67.05664 36.97656,0 67.04638,-30.0791 67.04638,-67.05664 0,-36.96093 -30.06982,-67.04394 -67.04638,-67.04394 m -45.6709,28.53125 -0.01,-0.01 c -0.95117,-0.94336 -1.47558,-2.21679 -1.47558,-3.56836 0,-1.35742 0.52441,-2.63281 1.47558,-3.58398 1.98926,-1.96485 5.20411,-1.96485 7.16407,0 0.96875,0.96289 1.49218,2.22656 1.49218,3.58984 -0.009,1.35156 -0.5332,2.62305 -1.49218,3.57227 -1.95215,1.97461 -5.17481,1.97461 -7.1543,0 m 87.76465,75.54492 c 1.35547,0 2.62695,0.52197 3.58789,1.48096 1.97656,1.98291 1.97656,5.18701 0,7.16455 -1.98145,1.96875 -5.19336,1.96875 -7.15332,0 -0.96192,-0.96192 -1.49317,-2.22852 -1.49317,-3.58399 0,-1.35888 0.53125,-2.62597 1.49317,-3.58056 0.94629,-0.95655 2.21289,-1.48096 3.56543,-1.48096 m -47.30567,-126.43066 3.33399,-0.28614 1.18945,13.60645 -2.6123,0.22754 -0.89746,-10.17383 -4.33399,10.63769 -3.34863,0.292 -1.19336,-13.61036 2.61719,-0.23632 0.89355,10.25097 4.35156,-10.708 m -30.04687,22.29003 -7.2168,-2.61035 2.9502,5.08399 -2.375,1.37011 -6.84082,-11.82519 2.375,-1.37402 3.16601,5.49414 0.0381,-0.0215 1.07226,-7.94922 3.1045,-1.79882 -1.45215,9.18359 8.08789,2.75976 -2.90918,1.6875 m 35.26465,121.58399 c 2.77636,0 5.05859,2.26855 5.05859,5.05273 0,2.79102 -2.28223,5.06299 -5.05859,5.06299 -2.79883,0 -5.07422,-2.27197 -5.07422,-5.06299 0,-2.78418 2.27539,-5.05273 5.07422,-5.05273 M 338.25049,218.52344 c -0.61719,-2.24805 -1.74121,-3.52149 -3.75195,-2.96582 -2.01954,0.55761 -2.33497,2.22265 -1.73047,4.46875 l 2.11621,7.60449 -2.64844,0.73242 -2.32129,-8.41406 c -0.9668,-3.53613 0.62402,-5.53906 4,-6.46192 3.38281,-0.93945 5.78516,-0.0371 6.75879,3.49122 l 2.31934,8.41894 -2.63965,0.7334 -2.10254,-7.60742 M 311.9292,338.5127 c 1.97949,-1.97266 5.20215,-1.96875 7.1543,0.005 0.95898,0.95019 1.49218,2.22168 1.49218,3.57568 0,1.36035 -0.52343,2.63721 -1.49218,3.58887 -1.95996,1.96289 -5.17481,1.96289 -7.16407,-0.004 -0.95117,-0.95752 -1.47558,-2.22021 -1.47558,-3.57275 0,-1.36035 0.52441,-2.63281 1.47558,-3.5874 l 0.01,-0.005 m 84.19922,-77.03028 c -1.98242,-1.97168 -1.98242,-5.1748 0,-7.15234 1.97168,-1.96485 5.18164,-1.96485 7.15332,0 0.95117,0.95117 1.48535,2.22656 1.48535,3.58398 0,1.35157 -0.53418,2.625 -1.48535,3.56836 -1.98145,1.98438 -5.19336,1.98438 -7.15332,0 m -84.93555,-21.32324 -5.1123,-6.0166 c -1.51075,-1.77246 -3.0586,-2.45801 -4.66114,-1.10352 -1.59863,1.36133 -1.17285,3.00391 0.33692,4.77832 l 5.11426,6.01075 -2.10157,1.78613 -5.64453,-6.65821 c -2.3623,-2.79394 -1.76855,-5.28808 0.90723,-7.55175 2.6709,-2.27344 5.22851,-2.46485 7.5918,0.32129 l 5.65429,6.65429 -2.08496,1.7793 m 46.41309,5.37891 c -2.79883,0 -5.07422,-2.27637 -5.07422,-5.05664 0,-2.79102 2.27539,-5.06543 5.07422,-5.06543 2.77636,0 5.05859,2.27441 5.05859,5.06543 0,2.78027 -2.28223,5.05664 -5.05859,5.05664 m 71.0874,29.66894 1.8457,-4.78027 2.11719,0.75879 -1.09766,2.77441 10.05079,-3.21582 0.83007,2.61035 -13.0039,4.16309 -0.74219,-2.31055 m -130.62744,29.85938 c -2.78711,0 -5.06348,-2.27149 -5.06348,-5.06641 0,-2.80469 2.27637,-5.06641 5.06348,-5.06641 2.79004,0 5.0791,2.26172 5.0791,5.06641 0,2.79492 -2.28906,5.06641 -5.0791,5.06641 m 59.54199,26.03711 c -17.14844,0 -31.11719,-13.94922 -31.11719,-31.09961 0,-17.14453 13.96875,-31.09473 31.11719,-31.09473 17.1416,0 31.09668,13.9502 31.09668,31.09473 0,17.15039 -13.95508,31.09961 -31.09668,31.09961 m 1.14648,-2.25782 c 5.47559,-0.21484 10.56446,-1.95898 14.84961,-4.82129 h -14.84961 v 4.82129 m 0,-12.17871 h 11.1084 c 0.24903,0 2.04395,-0.62011 2.04395,-2.75683 h -13.15235 v 2.75683 m 0,-5.07715 h 13.16895 c 0,-2.25195 -1.84277,-2.75586 -2.06055,-2.75586 h -11.1084 v 2.75586 m -2.31445,17.25489 v -4.82032 h -14.83691 c 4.28027,2.8584 9.36621,4.60254 14.83691,4.82032 m -15.40625,-40.66211 v -11.80078 c -7.4375,5.22754 -12.31152,13.8623 -12.31152,23.62207 0,8.66504 3.84179,16.44238 9.90722,21.73828 h 17.81055 v -2.75489 h -11.52344 c 0,0 -4.1416,-0.24023 -4.1416,-6.33203 0,-6.07422 4.1416,-6.12695 4.1416,-6.12695 h 11.52344 v -2.75586 h -10.41406 c -1.49805,-0.0742 -2.67578,-0.56738 -3.60742,-1.53223 -1.38477,-1.44531 -1.38477,-3.31835 -1.38477,-3.52148 v -3.88672 c 0,-0.6543 0.54688,-1.19824 1.2207,-1.19824 0.65332,0 1.18262,0.54394 1.18262,1.19824 v 4.02246 c 0,0.12891 0.0293,1.11133 0.72754,1.81446 0.53711,0.55761 1.20899,0.78906 2.20117,0.80273 h 10.07422 v -8.23535 h -10.41406 c -1.49805,-0.0752 -2.67578,-0.56836 -3.60742,-1.53125 -1.38477,-1.44727 -1.38477,-3.31836 -1.38477,-3.52246 m 2.25586,25.72754 c 0,2.13672 1.79688,2.75683 2.04004,2.75683 h 11.11035 v -2.75683 h -13.15039 m 13.15039,-2.32032 v -2.75586 h -11.11035 c -0.21582,0 -2.05371,0.50391 -2.05371,2.75586 h 13.16406 m -6.72265,-39.34961 c -2.2129,0.62891 -4.31739,1.51368 -6.28028,2.62305 v 13.45703 c 0,0.12696 0.0293,1.11133 0.72754,1.8125 0.53711,0.55664 1.20899,0.79102 2.20117,0.80274 h 3.35157 v -18.69532 m 13.42187,-0.5664 c -1.78906,-0.34863 -3.63867,-0.53711 -5.53125,-0.53711 -1.90039,0 -3.75586,0.18945 -5.55469,0.54101 v 19.25782 h 11.08594 v -19.26172 m 8.62012,3.18359 c -1.96485,-1.11035 -4.06934,-1.99414 -6.28223,-2.62304 v 18.70117 h 3.34961 c 0.99707,-0.0117 1.66406,-0.2461 2.2041,-0.80274 0.69727,-0.70117 0.72852,-1.68554 0.72852,-1.8125 v -13.46289 m 2.40039,1.5166 v 11.8086 c 0,0.2041 0,2.07519 -1.38184,3.52246 -0.93164,0.96289 -2.11133,1.45605 -3.6084,1.53125 h -10.41504 v 8.23535 h 10.07227 c 0.99707,-0.0137 1.66406,-0.24512 2.2041,-0.80273 0.69727,-0.70313 0.72852,-1.68555 0.72852,-1.81446 v -4.02246 c 0,-0.6543 0.52734,-1.19824 1.18457,-1.19824 0.67187,0 1.21582,0.54394 1.21582,1.19824 v 3.88672 c 0,0.20313 0,2.07617 -1.38184,3.52148 -0.93164,0.96485 -2.11133,1.45801 -3.6084,1.53223 h -10.41504 v 2.75586 h 11.52344 c 0,0 4.1416,0.0527 4.1416,6.12695 0,6.0918 -4.1416,6.33203 -4.1416,6.33203 h -11.52344 v 2.75489 h 17.81641 c 6.06055,-5.2959 9.89941,-13.07324 9.89941,-21.73828 0,-9.76368 -4.87402,-18.40235 -12.31054,-23.62989 z"
       style="fill:#92837b;fill-opacity:1;fill-rule:nonzero;stroke:none"
       id="path296"
       inkscape:export-filename="..\..\..\..\OneDrive\바탕 화면\잉스케이프-로고\동국대학교.png"
       inkscape:export-xdpi="96"
       inkscape:export-ydpi="96" />
    <text
       xml:space="preserve"
       transform="matrix(0.89999987,0,0,-1,347.38135,183.55664)"
       style="font-variant:normal;font-weight:normal;font-size:7.98889px;font-family:YGO12;-inkscape-font-specification:YGO12;writing-mode:lr-tb;fill:#00adef;fill-opacity:1;fill-rule:nonzero;stroke:none"
       id="text300"><tspan
         x="0 7.5895252 15.17905"
         y="0"
         sodipodi:role="line"
         id="tspan298">표준형</tspan></text>
    <text
       xml:space="preserve"
       transform="matrix(0.89999987,0,0,-1,604.95313,183.55664)"
       style="font-variant:normal;font-weight:normal;font-size:7.98889px;font-family:YGO12;-inkscape-font-specification:YGO12;writing-mode:lr-tb;fill:#00adef;fill-opacity:1;fill-rule:nonzero;stroke:none"
       id="text304"><tspan
         x="0 7.5895252 15.17905"
         y="0"
         sodipodi:role="line"
         id="tspan302">응용형</tspan></text>
    <path
       d="m 537.98633,332.08008 c 1.18555,0 2.14453,0.9541 2.14453,2.13965 0,1.18847 -0.95898,2.14941 -2.14453,2.14941 -1.1836,0 -2.14844,-0.96094 -2.14844,-2.14941 0,-1.18555 0.96484,-2.13965 2.14844,-2.13965 z"
       style="fill:#92837b;fill-opacity:1;fill-rule:nonzero;stroke:none"
       id="path306" />
    <path
       d="m 583,384.91602 c 0.0898,-0.3086 0.64844,-2.35645 0.64844,-2.35645 0.26562,-0.98828 0.39648,-1.8457 0.39648,-1.8457 l -11.51367,-5.13184 0.83008,-1.8623 6.80273,3.04687 c 0.1211,-0.26465 1.07227,-2.40234 1.18164,-2.66504 l -4.91797,-2.20215 0.84375,-1.83886 10.24805,4.58398 1.63477,-3.63135 2.19531,0.97608 -2.45508,5.47949 -5.33203,-2.37891 -1.19336,2.65918 7.375,3.30176 -0.82031,1.8457 -2.70899,-1.2163 c -0.0781,0.85498 -0.29687,1.91211 -0.67187,3.20263 l -0.92383,2.98633 -12.80664,-5.74072 0.83789,-1.8418 c 0,0 10.00391,4.48486 10.34961,4.6294 z"
       style="fill:#92837b;fill-opacity:1;fill-rule:nonzero;stroke:none"
       id="path308" />
    <path
       d="m 561.73438,361.92383 c -1.33594,-0.40625 -2.78907,-1.37891 -4.43946,-2.99317 -1.6582,-1.6206 -2.67383,-3.05273 -3.10351,-4.38281 -0.44141,-1.35742 -0.29688,-2.43213 0.42968,-3.17969 0.73243,-0.74755 1.79688,-0.91211 3.18164,-0.49121 1.32422,0.36524 2.82813,1.36866 4.45313,2.95801 1.61719,1.56543 2.6582,3.05078 3.08203,4.39111 0.44141,1.36182 0.28906,2.43116 -0.42969,3.18018 l -0.01,0.006 c -0.73633,0.73828 -1.8125,0.90234 -3.16406,0.51123 m 1.23046,-4.01953 c -0.36132,-0.8252 -1.07226,-1.73828 -2.04101,-2.7002 -0.99219,-0.95849 -1.91992,-1.63476 -2.77149,-1.9917 -0.79296,-0.33056 -1.35546,-0.33056 -1.66601,0 -0.16602,0.16748 -0.24414,0.38281 -0.24414,0.64795 0,0.29492 0.0996,0.63965 0.28711,1.03418 0.36914,0.8335 1.0664,1.74463 2.05859,2.7002 0.99219,0.96875 1.92969,1.63086 2.74805,1.97851 0.80078,0.32764 1.35742,0.32764 1.68359,-0.009 0.32422,-0.32226 0.30469,-0.88574 -0.0547,-1.66015 z"
       style="fill:#92837b;fill-opacity:1;fill-rule:nonzero;stroke:none"
       id="path310" />
    <path
       d="m 553.29883,361.27051 1.11914,-1.16113 -5.53125,-5.40967 1.39844,-1.43018 12.83789,12.52588 -1.38867,1.4292 -5.58008,-5.43018 -1.13477,1.16065 c 0.23047,0.22656 4.05664,3.95605 4.05664,3.95605 l -1.39062,1.44141 -8.04883,-7.85742 -1.46094,1.51855 7.89453,7.69238 -1.40234,1.43262 -9.57227,-9.35058 4.25782,-4.3667 c 0,0 3.71093,3.61963 3.94531,3.84912 z"
       style="fill:#92837b;fill-opacity:1;fill-rule:nonzero;stroke:none"
       id="path312" />
    <path
       d="m 693.67773,304.07227 c -3.125,0.0391 -7.02929,-0.68946 -7.06445,-4.63672 -0.0586,-3.66407 3.58203,-4.72461 6.95899,-4.75782 2.83203,-0.0351 6.95507,0.44434 7.00586,4.60254 0.0352,3.917 -3.76368,4.7627 -6.9004,4.792 m -0.082,-6.69141 c -1.72851,0.0195 -5.00586,0.0615 -4.96875,2.0332 0.0117,2.01074 3.28907,1.97852 5.01172,1.95508 1.71289,-0.0195 4.94727,-0.0342 4.92383,-2.07324 -0.0234,-1.98145 -3.26758,-1.92676 -4.9668,-1.91504 z"
       style="fill:#92837b;fill-opacity:1;fill-rule:nonzero;stroke:none"
       id="path314" />
    <path
       d="m 532.01172,286.22754 c 4.07812,0.41504 6.67969,3.0625 6.25976,7.28613 -0.42968,4.26953 -3.45898,6.29688 -7.58398,5.88379 -4.10352,-0.40234 -6.75977,-2.97266 -6.32031,-7.28418 0.42578,-4.25683 3.58984,-6.29687 7.64453,-5.88574 m -5.53125,6.09863 c -0.27149,2.75293 2.06836,4.01563 4.50586,4.26367 2.36719,0.23731 4.90039,-0.61914 5.16406,-3.28711 0.27344,-2.67968 -2.04297,-4.02148 -4.41211,-4.26074 -2.42383,-0.23926 -4.97656,0.53321 -5.25781,3.28418 z"
       style="fill:#92837b;fill-opacity:1;fill-rule:nonzero;stroke:none"
       id="path316" />
    <path
       d="m 542.2832,263.94727 -1.88086,-0.99805 1.36133,-2.52344 -3.10742,-1.67578 c -0.30859,0.35742 -0.65625,0.83398 -1.00977,1.47949 -1.36132,2.5459 -0.34765,5.02832 2.08008,6.31836 2.43555,1.30664 5.14453,0.78223 6.63282,-1.99707 0.51171,-0.95801 0.93359,-2.26074 1.01757,-3.4082 l 2.09571,0.91992 c -0.25977,1.18555 -0.64453,2.37695 -1.39649,3.76855 -2.15429,4.03907 -5.77539,5.30469 -9.84765,3.11622 -4.02344,-2.15332 -4.53125,-5.87403 -2.45899,-9.72071 0.6875,-1.27539 1.65625,-2.45117 2.68164,-3.52832 l 6.41992,3.43164 z"
       style="fill:#92837b;fill-opacity:1;fill-rule:nonzero;stroke:none"
       id="path318" />
    <path
       d="m 542.82813,276.71973 -9.64649,-2.98438 8.11524,7.9375 -0.99415,3.19238 -12.91406,-4.00976 0.77735,-2.47949 9.70312,3.02343 -8.1582,-7.9873 0.98242,-3.16602 12.89258,4.00489 z"
       style="fill:#92837b;fill-opacity:1;fill-rule:nonzero;stroke:none"
       id="path320" />
    <path
       d="m 530.36523,302.3418 c 5.32422,-0.53028 7.0625,2.96093 7.49024,7.08789 l 0.36719,3.67773 -13.44141,1.34375 -0.37109,-3.68457 c -0.4043,-4.11621 0.61328,-7.89453 5.95507,-8.4248 m -3.88476,7.69043 0.14648,1.50879 9.19922,-0.91602 -0.14062,-1.50293 c -0.23242,-2.25684 -2.12305,-4.26269 -5.03711,-3.96875 -2.94727,0.29004 -4.39844,2.63086 -4.16797,4.87891 z"
       style="fill:#92837b;fill-opacity:1;fill-rule:nonzero;stroke:none"
       id="path322" />
    <path
       d="m 691.90234,292.29102 c -3.13476,0.50195 -6.33789,0.18066 -6.93359,-3.53418 -0.48047,-3.00977 1.19727,-4.73829 4.08008,-5.20313 2.47265,-0.38574 4.30273,0.72949 4.70117,3.24805 0.18359,1.12793 -0.0937,2.01269 -0.92969,2.79297 l 0.0547,0.0332 c 1.95898,-0.3916 3.98047,-1.51465 3.61328,-3.8291 -0.14258,-0.90039 -0.49414,-1.58789 -0.9082,-2.25391 l 2.11719,-0.68945 c 0.46289,0.87695 0.75781,1.76758 0.91796,2.73437 0.67969,4.31055 -3.09179,6.13184 -6.71289,6.70118 m -0.0547,-4.5752 c -0.19532,-1.28027 -1.48633,-1.62402 -2.78321,-1.41602 -1.18945,0.1875 -2.30859,0.90918 -2.11914,2.14356 0.22657,1.3125 1.41992,1.67578 2.67969,1.4707 1.33594,-0.21289 2.43359,-0.90332 2.22266,-2.19824 z"
       style="fill:#92837b;fill-opacity:1;fill-rule:nonzero;stroke:none"
       id="path324" />
    <path
       d="m 550.53516,251.61914 -1.67383,-1.33008 1.8125,-2.22558 -2.73828,-2.22559 c -0.3711,0.29688 -0.8125,0.68945 -1.27149,1.26758 -1.8125,2.24219 -1.27539,4.86816 0.86133,6.59277 2.14453,1.73926 4.91016,1.71485 6.88867,-0.73144 0.69336,-0.83985 1.35938,-2.042 1.63282,-3.15723 l 1.88476,1.30566 c -0.4668,1.12305 -1.06445,2.22071 -2.06445,3.43555 -2.87305,3.56738 -6.66992,4.1416 -10.26953,1.23242 -3.53516,-2.8789 -3.33594,-6.61914 -0.58203,-10.01562 0.90625,-1.13086 2.07617,-2.09375 3.2832,-2.96485 l 5.6543,4.5752 z"
       style="fill:#92837b;fill-opacity:1;fill-rule:nonzero;stroke:none"
       id="path326" />
    <path
       d="m 670.54688,356.22363 1.61328,-1.60644 c 4.89453,3.36328 7.6914,6.05371 7.6914,6.05371 l -10.17578,9.95605 -1.41601,-1.46972 8.34375,-8.15967 c 0,0 -2.60352,-2.44678 -6.05664,-4.77393 z"
       style="fill:#92837b;fill-opacity:1;fill-rule:nonzero;stroke:none"
       id="path328" />
    <path
       d="m 673.04883,351.03809 -4.88086,4.78711 c 0.22656,0.22363 4.20898,4.30517 4.20898,4.30517 l -1.67382,1.66406 -4.22461,-4.32959 -1.62891,1.60401 4.21289,4.31396 -1.67187,1.65723 -4.24415,-4.33203 -2.94335,2.88281 -1.4043,-1.44385 12.83008,-12.55224 z"
       style="fill:#92837b;fill-opacity:1;fill-rule:nonzero;stroke:none"
       id="path330" />
    <path
       d="m 647.2168,385.5127 -5.72657,2.38378 -0.71093,-1.72558 5.71484,-2.39063 z"
       style="fill:#92837b;fill-opacity:1;fill-rule:nonzero;stroke:none"
       id="path332" />
    <path
       d="m 648.60352,372.33545 c 0,0 1.67578,3.98975 1.79296,4.27685 l 2.31446,-0.95556 0.80078,1.91943 -2.3125,0.95606 c 0.125,0.28906 1.86719,4.45898 1.86719,4.45898 l -2.14649,0.88623 -4.4414,-10.65381 z"
       style="fill:#92837b;fill-opacity:1;fill-rule:nonzero;stroke:none"
       id="path334" />
    <path
       d="m 686.32617,314.00098 c -0.19336,-0.96973 -0.21679,-1.90137 -0.084,-2.88379 0.61328,-4.33203 4.75781,-4.93946 8.38281,-4.42383 3.14648,0.44238 6.11328,1.7041 5.5918,5.41797 -0.42774,3.02734 -2.54102,4.17676 -5.44141,3.75976 -2.47266,-0.33984 -3.87695,-1.95117 -3.52734,-4.47754 0.16406,-1.13574 0.70117,-1.89746 1.71484,-2.39355 l -0.0391,-0.0449 c -1.9961,-0.20899 -4.24805,0.27246 -4.57813,2.5957 -0.14257,0.90723 0,1.66016 0.19141,2.4082 l -2.21094,0.042 m 9.24219,-0.7461 c 1.18945,0.167 2.48437,-0.18359 2.6543,-1.43066 0.1875,-1.31445 -0.85547,-2.00586 -2.11524,-2.19043 -1.34179,-0.18555 -2.59765,0.14258 -2.77929,1.44629 -0.17383,1.28418 0.94726,1.99121 2.24023,2.1748 z"
       style="fill:#92837b;fill-opacity:1;fill-rule:nonzero;stroke:none"
       id="path336" />
    <path
       d="m 686.14648,332.08008 c 1.17188,0 2.13672,0.9541 2.13672,2.13965 0,1.18847 -0.96484,2.14941 -2.13672,2.14941 -1.18945,0 -2.14843,-0.96094 -2.14843,-2.14941 0,-1.18555 0.95898,-2.13965 2.14843,-2.13965 z"
       style="fill:#92837b;fill-opacity:1;fill-rule:nonzero;stroke:none"
       id="path338" />
    <path
       d="m 648.61523,381.99854 -10.5957,4.42041 -0.72851,-1.72999 10.60546,-4.4331 z"
       style="fill:#92837b;fill-opacity:1;fill-rule:nonzero;stroke:none"
       id="path340" />
    <path
       d="m 612.36914,379.11816 v 2.07325 c -2.74805,-0.34961 -5.50976,-0.27539 -5.50976,-0.27539 v 7.71972 h 4.83203 l -0.008,2.05664 h -7.13867 v -11.89843 c 0,0 4.38867,-0.0742 7.82422,0.32421 z"
       style="fill:#92837b;fill-opacity:1;fill-rule:nonzero;stroke:none"
       id="path342" />
    <path
       d="m 643.96094,367.32813 2.20703,-0.91895 2.18164,5.2207 -12.30469,5.14942 -0.75976,-1.76465 10.1289,-4.23145 z"
       style="fill:#92837b;fill-opacity:1;fill-rule:nonzero;stroke:none"
       id="path344" />
    <path
       d="m 615.48438,383.91016 h 1.92382 v -8.92774 l 2.26953,-0.007 0.0234,17.74218 h -2.29297 v -6.6416 h -1.92382 v 6.66211 h -2.28711 v -16.84912 l 2.28711,-0.006 v 8.02735 z"
       style="fill:#92837b;fill-opacity:1;fill-rule:nonzero;stroke:none"
       id="path346" />
    <path
       d="m 640.00977,376.31445 c 1.41015,-0.59472 2.64257,-0.79882 3.69921,-0.60302 1.03711,0.21289 1.73243,0.72949 2.08008,1.54052 0.32617,0.79883 0.21289,1.65381 -0.37109,2.54004 -0.57617,0.86035 -1.56055,1.58106 -3.01367,2.17969 -1.37891,0.57812 -2.60938,0.77539 -3.63672,0.59863 -1.09375,-0.17724 -1.79492,-0.67187 -2.13672,-1.49609 -0.12305,-0.29199 -0.1875,-0.58692 -0.1875,-0.89551 0,-0.54004 0.20898,-1.11816 0.60547,-1.69238 0.60742,-0.87744 1.60351,-1.61084 2.96094,-2.17188 m -1.07618,3.78907 c 0.14454,0.34668 0.4375,0.54248 0.87891,0.59179 0.49023,0.0772 1.11719,-0.0576 1.9082,-0.38574 0.77735,-0.32666 1.31641,-0.69141 1.59961,-1.05518 0.26563,-0.35644 0.31446,-0.69384 0.18946,-1.02392 -0.15039,-0.35254 -0.44336,-0.55274 -0.89454,-0.63184 -0.46093,-0.0791 -1.10156,0.0332 -1.8789,0.36328 -0.77344,0.32471 -1.30469,0.68799 -1.60352,1.08204 -0.27148,0.37793 -0.33984,0.72705 -0.19922,1.05957 z"
       style="fill:#92837b;fill-opacity:1;fill-rule:nonzero;stroke:none"
       id="path348" />
    <path
       d="m 612.48047,400.54492 c -53.82422,0 -97.60938,-43.78125 -97.60938,-97.5957 0,-53.81152 43.78516,-97.59473 97.60938,-97.59473 53.8125,0 97.58984,43.78321 97.58984,97.59473 0,53.81445 -43.77734,97.5957 -97.58984,97.5957 m 0,-191.49804 c -51.78125,0 -93.91016,42.12207 -93.91016,93.90234 0,51.78418 42.12891,93.91113 93.91016,93.91113 51.7793,0 93.90039,-42.12695 93.90039,-93.91113 0,-51.78027 -42.12109,-93.90234 -93.90039,-93.90234 z"
       style="fill:#92837b;fill-opacity:1;fill-rule:nonzero;stroke:none"
       id="path350" />
    <path
       d="m 566.59766,243.78613 -5.05469,-5.94238 c -1.49024,-1.75781 -3.02344,-2.43164 -4.60547,-1.08984 -1.58008,1.33789 -1.15234,2.96386 0.33594,4.71972 l 5.05273,5.94141 -2.07422,1.7666 -5.58203,-6.58105 c -2.33594,-2.76465 -1.75,-5.23047 0.89844,-7.46778 2.63867,-2.24609 5.16992,-2.43359 7.5,0.32032 l 5.59766,6.57812 z"
       style="fill:#92837b;fill-opacity:1;fill-rule:nonzero;stroke:none"
       id="path352" />
    <path
       d="m 651.72266,231.02246 -0.01,0.0371 c 1.41992,0.98926 1.75391,2.64941 1.02344,4.05859 -1.72266,3.33204 -4.75,1.66407 -7.33399,0.33497 l -2.59179,-1.35059 6.20117,-12.00098 2.39453,1.25098 -2.56641,4.97949 0.77149,0.39453 c 1.00976,0.53223 1.50976,0.34571 2.30859,-0.35742 l 3.37891,-3.00781 2.68555,1.3789 -4.35157,3.7002 c -0.51172,0.40625 -1.23047,0.86719 -1.91015,0.58203 m -3.06055,-0.3916 -0.80273,-0.40527 -1.66797,3.23632 0.79297,0.41114 c 1.19726,0.61133 2.60156,1.1875 3.35937,-0.25977 0.77734,-1.49316 -0.50391,-2.37207 -1.68164,-2.98242 z"
       style="fill:#92837b;fill-opacity:1;fill-rule:nonzero;stroke:none"
       id="path354" />
    <path
       d="m 639.12109,220.68164 -1.21679,3.59277 4.56836,1.53516 -0.67578,2.01856 -4.56055,-1.53809 -1.06836,3.15723 4.97851,1.67968 -0.67578,2.01368 -7.5625,-2.54395 4.32813,-12.7959 7.5918,2.55567 -0.68555,2.01953 z"
       style="fill:#92837b;fill-opacity:1;fill-rule:nonzero;stroke:none"
       id="path356" />
    <path
       d="m 673.54688,255.69336 -1.61524,1.4043 -6.85937,-7.88184 1.59179,-1.38769 2.55664,2.91113 8.57227,-7.48145 1.7793,2.03907 -8.58008,7.47363 z"
       style="fill:#92837b;fill-opacity:1;fill-rule:nonzero;stroke:none"
       id="path358" />
    <path
       d="m 657.49219,238.20703 c -0.86133,1.19922 -0.12891,2.22852 0.61523,2.77539 0.77149,0.56055 1.66992,0.93946 2.56446,1.15039 l -1.10938,1.94141 c -0.98633,-0.31055 -1.96094,-0.8252 -2.89453,-1.50195 -1.92969,-1.40039 -3.16406,-3.67969 -1.38477,-6.11133 2.62696,-3.61719 6.78516,0.72168 8.29493,-1.35059 0.73437,-0.98242 -0.0742,-2.21777 -0.90625,-2.82031 -0.85547,-0.62207 -1.91407,-0.98926 -2.95704,-1.12793 l 1.22657,-2.11914 c 1.27539,0.51172 1.91992,0.74414 3.11132,1.60742 2.20118,1.61231 3.4336,3.89649 1.68946,6.29688 -2.65821,3.66308 -6.86328,-0.63086 -8.25,1.25976 z"
       style="fill:#92837b;fill-opacity:1;fill-rule:nonzero;stroke:none"
       id="path360" />
    <path
       d="m 661.77539,246.37695 9.11719,-9.9707 1.99414,1.83398 -9.125,9.9629 z"
       style="fill:#92837b;fill-opacity:1;fill-rule:nonzero;stroke:none"
       id="path362" />
    <path
       d="m 614.61523,227.9502 0.55665,-13.49707 2.71289,0.11425 -0.56836,13.48731 z"
       style="fill:#92837b;fill-opacity:1;fill-rule:nonzero;stroke:none"
       id="path364" />
    <path
       d="m 627.03906,218.51855 -0.0371,-0.004 -5.16992,9.89355 -2.87305,-0.47851 6.83008,-12.56348 3.27344,0.55762 2.25391,14.07031 -2.6543,-0.43945 -1.62305,-11.03614 z"
       style="fill:#92837b;fill-opacity:1;fill-rule:nonzero;stroke:none"
       id="path366" />
    <path
       d="m 671.32617,307.95117 c -2.75195,0 -5.01172,-2.24609 -5.01172,-5.00683 0,-2.77832 2.25977,-5.01075 5.01172,-5.01075 2.75391,0 5,2.23243 5,5.01075 0,2.76074 -2.24609,5.00683 -5,5.00683 z"
       style="fill:#92837b;fill-opacity:1;fill-rule:nonzero;stroke:none"
       id="path368" />
    <path
       d="m 612.48047,347.81055 c -24.76367,0 -44.875,-20.12793 -44.875,-44.86133 0,-24.73242 20.11133,-44.85938 44.875,-44.85938 24.72851,0 44.85937,20.12696 44.85937,44.85938 0,24.7334 -20.13086,44.86133 -44.85937,44.86133 m 0,-87.52539 c -23.55274,0 -42.68359,19.13476 -42.68359,42.66406 0,23.54004 19.13085,42.6748 42.68359,42.6748 23.51172,0 42.66016,-19.13476 42.66016,-42.6748 0,-23.5293 -19.14844,-42.66406 -42.66016,-42.66406 z"
       style="fill:#92837b;fill-opacity:1;fill-rule:nonzero;stroke:none"
       id="path370" />
    <path
       d="m 612.48438,340.75537 c -20.85157,0 -37.82813,-16.95849 -37.82813,-37.80615 0,-20.84961 16.97656,-37.80274 37.82813,-37.80274 20.83984,0 37.79687,16.95313 37.79687,37.80274 0,20.84766 -16.95703,37.80615 -37.79687,37.80615 m 0,-73.43994 c -19.66602,0 -35.64649,15.97363 -35.64649,35.63379 0,19.65234 15.98047,35.63769 35.64649,35.63769 19.65039,0 35.63085,-15.98535 35.63085,-35.63769 0,-19.66016 -15.98046,-35.63379 -35.63085,-35.63379 z"
       style="fill:#92837b;fill-opacity:1;fill-rule:nonzero;stroke:none"
       id="path372" />
    <path
       d="m 612.48438,333.69043 c -16.95899,0 -30.76563,-13.79199 -30.76563,-30.74121 0,-16.95215 13.80664,-30.74219 30.76563,-30.74219 16.9414,0 30.74218,13.79004 30.74218,30.74219 0,16.94922 -13.80078,30.74121 -30.74218,30.74121 m 1.13671,-2.2334 c 5.40821,-0.21289 10.44336,-1.93457 14.67969,-4.76269 h -14.67969 v 4.76269 m 0,-12.03613 h 10.97852 c 0.24414,0 2.01758,-0.61524 2.01758,-2.72754 h -12.9961 v 2.72754 m 0,-5.02539 h 13.00782 c 0,-2.21973 -1.81836,-2.72168 -2.0293,-2.72168 h -10.97852 v 2.72168 m -2.29101,17.06152 v -4.76269 H 596.6543 c 4.23437,2.82421 9.26367,4.54785 14.67578,4.76269 M 596.10352,291.26074 V 279.5957 c -7.35743,5.17285 -12.17188,13.70703 -12.17188,23.35352 0,8.56445 3.79883,16.25195 9.79297,21.48828 h 17.60547 v -2.72559 H 599.9375 c 0,0 -4.09375,-0.23339 -4.09375,-6.25586 0,-6.00781 4.09375,-6.05761 4.09375,-6.05761 h 11.39258 V 306.6709 H 601.0293 c -1.48242,-0.0732 -2.64063,-0.56152 -3.56055,-1.51758 -1.36523,-1.42383 -1.36523,-3.27637 -1.36523,-3.47656 v -3.84473 c 0,-0.64746 0.53906,-1.18262 1.19921,-1.18262 0.64844,0 1.16993,0.53516 1.16993,1.18262 v 3.98047 c 0,0.125 0.0254,1.09961 0.7207,1.79492 0.52734,0.54883 1.18945,0.77832 2.18164,0.79492 h 9.95508 v -8.14746 H 601.0293 c -1.48242,-0.0703 -2.64063,-0.56054 -3.56055,-1.51074 -1.36523,-1.42871 -1.36523,-3.2832 -1.36523,-3.4834 m 2.22656,25.43262 c 0,2.1123 1.77344,2.72754 2.01562,2.72754 h 10.98438 v -2.72754 h -13 m 13,-2.29785 v -2.72168 H 600.3457 c -0.21093,0 -2.02929,0.50195 -2.02929,2.72168 h 13.01367 m -6.64649,-38.89356 c -2.18945,0.61914 -4.26953,1.49707 -6.21093,2.58985 v 13.30761 c 0,0.12207 0.0254,1.09571 0.7207,1.792 0.52734,0.55078 1.18945,0.77832 2.18164,0.79297 h 3.30859 v -18.48243 m 13.26954,-0.56054 c -1.77149,-0.34082 -3.59766,-0.5293 -5.46875,-0.5293 -1.88282,0 -3.71485,0.18848 -5.49219,0.53125 v 19.04102 h 10.96094 v -19.04297 m 8.51757,3.15039 c -1.93945,-1.10157 -4.02148,-1.97461 -6.21093,-2.59375 v 18.48633 h 3.3164 c 0.98242,-0.0146 1.63867,-0.24219 2.17578,-0.79297 0.68946,-0.69629 0.71875,-1.66993 0.71875,-1.792 V 278.0918 m 2.375,1.49707 v 11.67187 c 0,0.2002 0,2.05469 -1.37109,3.4834 -0.92383,0.9502 -2.08398,1.44043 -3.5625,1.51074 h -10.29102 v 8.14746 h 9.95508 c 0.98242,-0.0166 1.63867,-0.24609 2.17578,-0.79492 0.68946,-0.69531 0.71875,-1.66992 0.71875,-1.79492 v -3.98047 c 0,-0.64746 0.52149,-1.18262 1.17383,-1.18262 0.6582,0 1.20117,0.53516 1.20117,1.18262 v 3.84473 c 0,0.20019 0,2.05273 -1.37109,3.47656 -0.92383,0.95606 -2.08398,1.44434 -3.5625,1.51758 h -10.29102 v 2.72754 h 11.38672 c 0,0 4.09375,0.0498 4.09375,6.05761 0,6.02247 -4.09375,6.25586 -4.09375,6.25586 h -11.38672 v 2.72559 h 17.60547 c 5.99219,-5.23633 9.78907,-12.92383 9.78907,-21.48828 0,-9.65918 -4.82227,-18.19141 -12.16993,-23.36035 z"
       style="fill:#92837b;fill-opacity:1;fill-rule:nonzero;stroke:none"
       id="path374" />
    <path
       d="m 680.60547,302.94922 c 0,37.56055 -30.56836,68.13281 -68.13281,68.13281 -37.58203,0 -68.13672,-30.57226 -68.13672,-68.13281 0,-37.55859 30.55469,-68.13184 68.13672,-68.13184 37.56445,0 68.13281,30.57325 68.13281,68.13184 m -68.13281,-66.27344 c -36.55664,0 -66.29297,29.73438 -66.29297,66.27344 0,36.55517 29.73633,66.28808 66.29297,66.28808 36.55468,0 66.28125,-29.73291 66.28125,-66.28808 0,-36.53906 -29.72657,-66.27344 -66.28125,-66.27344 z"
       style="fill:#92837b;fill-opacity:1;fill-rule:nonzero;stroke:none"
       id="path376" />
    <path
       d="m 682.75391,278.43359 1.82226,-4.72265 2.09571,0.74609 -1.08594,2.7461 9.9375,-3.18165 0.82226,2.57911 -12.85937,4.12109 z"
       style="fill:#92837b;fill-opacity:1;fill-rule:nonzero;stroke:none"
       id="path378" />
    <path
       d="m 608.33008,217.91211 -4.28906,10.51269 -3.31446,0.28907 -1.17968,-13.45703 2.59375,-0.22657 0.88281,10.13282 4.30273,-10.58789 3.29883,-0.28418 1.17383,13.45117 -2.58399,0.22363 z"
       style="fill:#92837b;fill-opacity:1;fill-rule:nonzero;stroke:none"
       id="path380" />
    <path
       d="m 654.08594,339.55859 c 1.33984,0 2.59765,0.51172 3.54101,1.46143 1.95899,1.96143 1.95899,5.13037 0,7.08154 -1.95703,1.94922 -5.1289,1.94922 -7.0625,0 -0.95312,-0.95215 -1.48437,-2.20215 -1.48437,-3.54297 0,-1.34375 0.53125,-2.59082 1.48437,-3.53857 0.93555,-0.94482 2.18164,-1.46143 3.52149,-1.46143 z"
       style="fill:#92837b;fill-opacity:1;fill-rule:nonzero;stroke:none"
       id="path382" />
    <path
       d="m 612.48047,356.79785 c 2.74414,0 5.00195,2.24219 5.00195,4.99658 0,2.7583 -2.25781,5.00245 -5.00195,5.00245 -2.76758,0 -5.01758,-2.24415 -5.01758,-5.00245 0,-2.75439 2.25,-4.99658 5.01758,-4.99658 z"
       style="fill:#92837b;fill-opacity:1;fill-rule:nonzero;stroke:none"
       id="path384" />
    <path
       d="m 593.35156,222.40234 c -0.61328,-2.22754 -1.72265,-3.48046 -3.71289,-2.93652 -2,0.55273 -2.30469,2.19727 -1.71289,4.41699 l 2.08985,7.51953 -2.61329,0.72657 -2.29492,-8.32422 c -0.95312,-3.49219 0.61719,-5.47168 3.95313,-6.38184 3.34961,-0.93066 5.72461,-0.0352 6.68164,3.4502 l 2.29492,8.32129 -2.61523,0.72754 z"
       style="fill:#92837b;fill-opacity:1;fill-rule:nonzero;stroke:none"
       id="path386" />
    <path
       d="m 577.62109,236.60938 -7.13671,-2.58399 2.91796,5.02734 -2.3457,1.35938 -6.76172,-11.69824 2.3418,-1.35645 3.13672,5.43262 0.0391,-0.0225 1.05859,-7.85742 3.06641,-1.77442 -1.43945,9.07715 8,2.72363 -2.87696,1.67286 z"
       style="fill:#92837b;fill-opacity:1;fill-rule:nonzero;stroke:none"
       id="path388" />
    <path
       d="m 567.32813,341.01172 c 1.96289,-1.94483 5.14257,-1.94483 7.07226,0.008 0.94336,0.94141 1.4707,2.19482 1.4707,3.53857 0,1.34082 -0.51367,2.60157 -1.4707,3.54297 -1.93359,1.9375 -5.10937,1.9375 -7.08398,-0.004 -0.93555,-0.94825 -1.45508,-2.19629 -1.45508,-3.52832 0,-1.34864 0.51953,-2.60157 1.45508,-3.54932 l 0.0117,-0.008 z"
       style="fill:#92837b;fill-opacity:1;fill-rule:nonzero;stroke:none"
       id="path390" />
    <path
       d="m 612.48047,354.79346 c -28.5957,0 -51.85352,-23.26319 -51.85352,-51.84424 0,-28.58594 23.25782,-51.85254 51.85352,-51.85254 28.5918,0 51.83984,23.2666 51.83984,51.85254 0,28.58105 -23.24804,51.84424 -51.83984,51.84424 m 0,-101.51221 c -27.40234,0 -49.68555,22.27539 -49.68555,49.66797 0,27.39453 22.28321,49.67383 49.68555,49.67383 27.37305,0 49.66211,-22.2793 49.66211,-49.67383 0,-27.39258 -22.28906,-49.66797 -49.66211,-49.66797 z"
       style="fill:#92837b;fill-opacity:1;fill-rule:nonzero;stroke:none"
       id="path392" />
    <path
       d="m 553.62305,307.95117 c -2.75586,0 -5.00782,-2.24609 -5.00782,-5.00683 0,-2.77832 2.25196,-5.01075 5.00782,-5.01075 2.76367,0 5.01953,2.23243 5.01953,5.01075 0,2.76074 -2.25586,5.00683 -5.01953,5.00683 z"
       style="fill:#92837b;fill-opacity:1;fill-rule:nonzero;stroke:none"
       id="path394" />
    <path
       d="m 678.75,267.90527 -1.49414,-2.4414 3.11133,-5.74805 -6.50977,0.28027 -1.67187,-2.70507 9.54687,-0.1045 4.53906,-2.81152 1.41993,2.30566 -4.53907,2.8125 z"
       style="fill:#92837b;fill-opacity:1;fill-rule:nonzero;stroke:none"
       id="path396" />
    <path
       d="m 650.56445,264.86523 c -1.96093,-1.94531 -1.96093,-5.11523 0,-7.06543 1.93946,-1.9414 5.11914,-1.9414 7.0625,0 0.94922,0.93848 1.47071,2.19629 1.47071,3.53711 0,1.34082 -0.52149,2.59961 -1.47071,3.52832 -1.95703,1.96387 -5.1289,1.96387 -7.0625,0 z"
       style="fill:#92837b;fill-opacity:1;fill-rule:nonzero;stroke:none"
       id="path398" />
    <path
       d="m 567.32813,264.875 -0.0117,-0.01 c -0.93555,-0.92871 -1.45508,-2.1875 -1.45508,-3.52832 0,-1.34082 0.51953,-2.59863 1.45508,-3.53711 1.97461,-1.9414 5.15039,-1.9414 7.08398,0 0.95703,0.94629 1.4707,2.19629 1.4707,3.54493 -0.01,1.33984 -0.52734,2.59277 -1.4707,3.53027 -1.92969,1.9541 -5.10937,1.9541 -7.07226,0 z"
       style="fill:#92837b;fill-opacity:1;fill-rule:nonzero;stroke:none"
       id="path400" />
    <path
       d="m 612.48047,249.10156 c -2.76758,0 -5.01758,-2.24804 -5.01758,-4.99804 0,-2.75391 2.25,-5.00098 5.01758,-5.00098 2.74414,0 5.00195,2.24707 5.00195,5.00098 0,2.75 -2.25781,4.99804 -5.00195,4.99804 z"
       style="fill:#92837b;fill-opacity:1;fill-rule:nonzero;stroke:none"
       id="path402" />
    <text
       xml:space="preserve"
       transform="matrix(0.89999857,0,0,-1,291.25293,171.32227)"
       style="font-variant:normal;font-weight:normal;font-size:7px;font-family:YGO12;-inkscape-font-specification:YGO12;writing-mode:lr-tb;fill:#00adef;fill-opacity:1;fill-rule:nonzero;stroke:none"
       id="text406"><tspan
         x="0 6.6500702 13.30014 19.950211 23.100281 29.750351 36.400421 43.050491 49.700562 52.850632 59.500702 66.150772 72.800842 79.450912 86.100983 89.251053 95.901123 102.55119 109.20126 115.85133 119.0014 125.65147 132.30154 138.95161 145.60168"
         y="0"
         sodipodi:role="line"
         id="tspan404">일반적 형태로서 양식류등의 아이템에 적용한다.</tspan></text>
    <text
       xml:space="preserve"
       transform="matrix(0.89999857,0,0,-1,547.4082,171.32227)"
       style="font-variant:normal;font-weight:normal;font-size:7px;font-family:YGO12;-inkscape-font-specification:YGO12;writing-mode:lr-tb;fill:#00adef;fill-opacity:1;fill-rule:nonzero;stroke:none"
       id="text410"><tspan
         x="0 6.6500702 13.30014 19.950211 26.600281 33.250351 36.400421 43.050491 49.700562 56.350632 63.000702 66.150772 72.800842 75.950912 82.600983 89.251053 95.901123 99.051193 105.70126 112.35133 119.0014 122.15147 128.80154 135.45161 142.10168 148.75175"
         y="0"
         sodipodi:role="line"
         id="tspan408">현수막이나 약기등의 큰 아이템 적용시 사용한다.</tspan></text>
    <path
       style="fill:#ffffff;stroke-width:0.594524"
       d="m 499.10321,415.56381 v -8.62934 l -2.01784,-2.20185 -2.01785,-2.20185 -8.08907,-0.23638 -8.08907,-0.23638 v -4.98459 -4.9846 h 7.35876 c 8.70798,0 8.84878,0.0892 9.28792,5.88584 0.28105,3.70978 0.37834,3.92382 1.78358,3.92382 1.46499,0 1.48631,-0.0702 1.48631,-4.89251 0,-4.55296 -0.11429,-5.00682 -1.64676,-6.53976 -1.61978,-1.62029 -1.78292,-1.65044 -9.95828,-1.84084 -8.25064,-0.19215 -8.31153,-0.20371 -8.31153,-1.57793 0,-1.3742 0.0615,-1.38587 8.37277,-1.59 l 8.37277,-0.20565 1.65471,-1.85268 c 3.03619,-3.39944 2.88994,-10.5018 -0.28155,-13.67329 -1.35967,-1.35967 -1.7613,-1.41797 -9.76833,-1.41797 h -8.35037 v -1.78357 -1.78358 h 11.51751 11.5175 l 2.46848,2.67798 c 6.789,7.36519 10.30792,16.01886 10.3945,25.56193 0.0647,7.13433 -0.76898,10.87088 -3.88738,17.42265 -1.70198,3.57587 -3.50969,6.15835 -6.55452,9.36376 -2.3124,2.43437 -4.4379,4.42612 -4.72332,4.42612 -0.28542,0 -0.51894,-3.8832 -0.51894,-8.62933 z"
       id="path481"
       transform="matrix(0.75000002,0,0,-0.75000002,0,595.2754)" />
    <path
       style="fill:#ffffff;stroke-width:0.297262"
       d="m 478.44349,380.06378 v -1.79765 h 8.65776 8.65776 l -0.19299,0.9661 c -0.10614,0.53136 -0.52698,1.30053 -0.93519,1.70926 l -0.74221,0.74316 -7.72256,0.0884 -7.72257,0.0884 z"
       id="path483"
       transform="matrix(0.75000002,0,0,-0.75000002,0,595.2754)" />
    <path
       style="fill:#ffffff;stroke-width:0.297262"
       d="m 482.67947,375.0712 c 2.41154,-0.05 6.3577,-0.05 8.76924,0 2.41154,0.05 0.43846,0.0909 -4.38462,0.0909 -4.82308,0 -6.79615,-0.0409 -4.38462,-0.0909 z"
       id="path485"
       transform="matrix(0.75000002,0,0,-0.75000002,0,595.2754)" />
    <path
       style="fill:#ffffff;stroke-width:0.297262"
       d="m 478.44349,373.36131 v -1.63495 h 7.69802 7.69802 l 0.92258,1.05077 c 0.50742,0.57791 0.92259,1.31364 0.92259,1.63494 0,0.5673 -0.24906,0.58418 -8.62061,0.58418 h -8.6206 z"
       id="path487"
       transform="matrix(0.75000002,0,0,-0.75000002,0,595.2754)" />
    <path
       style="fill:#ffffff;stroke-width:0.297262"
       d="m 457.9324,374.41207 c 0,-0.3213 0.41516,-1.05703 0.92258,-1.63494 l 0.92258,-1.05077 h 7.69802 7.69802 v 1.63495 1.63494 h -8.6206 c -8.37155,0 -8.6206,-0.0169 -8.6206,-0.58418 z"
       id="path489"
       transform="matrix(0.75000002,0,0,-0.75000002,0,595.2754)" />
    <path
       style="fill:#ffffff;stroke-width:0.297262"
       d="m 458.94309,380.82259 c -0.63111,-0.63111 -1.01069,-1.30096 -1.01069,-1.78358 v -0.77288 h 8.6206 8.6206 v 1.78358 1.78357 h -7.60991 -7.60991 z"
       id="path491"
       transform="matrix(0.75000002,0,0,-0.75000002,0,595.2754)" />
    <path
       style="fill:#ffffff;stroke-width:0.297262"
       d="m 452.42669,423.19027 c -6.94365,-5.73189 -11.81816,-14.06627 -13.39343,-22.89992 -0.60389,-3.38641 -0.59503,-9.83153 0.0182,-13.25368 1.30832,-7.30104 4.87658,-14.28671 10.05036,-19.67584 l 2.37274,-2.4715 h 11.84952 11.84951 v 1.63495 1.63494 h -7.73836 c -8.42019,0 -9.08842,0.1068 -10.79343,1.72502 -1.78178,1.6911 -2.12793,2.81278 -2.12793,6.89558 0,3.24125 0.0819,3.86763 0.64162,4.90483 0.77737,1.44063 2.03843,2.67562 3.16783,3.10234 0.51572,0.19485 3.90915,0.31617 8.84355,0.31617 h 8.00672 v 1.78358 1.78357 l -7.80313,0.007 c -8.73256,0.007 -9.39225,0.13298 -11.05604,2.10632 -1.43279,1.69936 -1.65192,2.59466 -1.65192,6.74939 0,3.33088 0.0706,3.89177 0.54362,4.31985 0.6851,0.62001 1.65333,0.63065 2.25914,0.0249 0.36482,-0.36483 0.46713,-1.14476 0.46713,-3.56114 0,-3.56977 0.45998,-5.10087 1.76381,-5.87106 0.74167,-0.43812 1.82117,-0.50486 8.16602,-0.50486 h 7.31137 v 5.35072 5.35072 l -7.6545,0.007 c -7.0528,0.006 -7.75923,0.054 -8.98683,0.61087 -1.68082,0.76241 -2.28591,1.31202 -3.08392,2.80112 -0.59926,1.11824 -0.64606,1.715 -0.78584,10.02106 l -0.14863,8.832 -2.08719,-1.72294 z"
       id="path493"
       transform="matrix(0.75000002,0,0,-0.75000002,0,595.2754)" />
    <path
       style="fill:#ffffff;stroke-width:0.297262"
       d="m 473.83592,431.94262 c -0.16349,-0.0686 -1.20019,-0.21227 -2.30378,-0.31929 l -2.00652,-0.19459 v -12.75861 -12.75861 h 7.28293 7.28292 v 12.74313 12.74313 l -1.26336,0.19126 c -1.61066,0.24384 -8.59879,0.51862 -8.99219,0.35358 z"
       id="path495"
       transform="matrix(0.75000002,0,0,-0.75000002,0,595.2754)" />
    <path
       style="fill:#ffffff;stroke-width:0.297262"
       d="m 463.87764,429.72317 c -1.2262,-0.45772 -3.06551,-1.25575 -4.08735,-1.7734 l -1.85789,-0.9412 v -8.92313 c 0,-9.91328 0.0945,-10.50758 1.84,-11.57178 0.79923,-0.48728 1.50028,-0.60013 3.73366,-0.60103 l 2.74968,-10e-4 v 12.33638 c 0,6.78501 -0.0334,12.32987 -0.0743,12.32192 -0.0409,-0.008 -1.07757,-0.38894 -2.30378,-0.84665 z"
       id="path497"
       transform="matrix(0.75000002,0,0,-0.75000002,0,595.2754)" />
    <path
       style="fill:#ffffff;stroke-width:0.297262"
       d="m 487.36135,418.23189 v -12.32037 h 2.69013 c 2.88599,0 4.04399,0.36859 4.87201,1.55075 0.39704,0.56684 0.46394,2.03931 0.46394,10.21037 v 9.548 l -2.30378,1.07934 c -1.26708,0.59364 -3.07295,1.34326 -4.01304,1.66581 l -1.70926,0.58646 z"
       id="path499"
       transform="matrix(0.75000002,0,0,-0.75000002,0,595.2754)" />
    <path
       style="fill:#ffffff;stroke-width:0.297262"
       d="m 471.01193,441.28313 c -20.39023,-2.80193 -36.89858,-17.90515 -41.02634,-37.53434 -2.24763,-10.68842 -1.01907,-20.86219 3.71295,-30.74694 6.39569,-13.36003 18.11872,-22.64369 33.00309,-26.1357 3.34265,-0.78422 3.97872,-0.83688 10.10692,-0.83688 6.12819,0 6.76426,0.0527 10.10691,0.83688 14.96206,3.51023 26.69051,12.85871 33.14371,26.41809 2.60942,5.48288 3.86543,10.18385 4.48971,16.80398 0.56902,6.03415 -0.22705,12.272 -2.4027,18.82717 -5.3759,16.19739 -19.21597,28.34985 -36.22618,31.80886 -3.29211,0.66945 -11.78613,0.98788 -14.90807,0.55888 z m 13.90602,-6.82114 c 17.46704,-3.55955 30.59628,-17.47036 33.08583,-35.05539 0.56131,-3.96484 0.19664,-11.67352 -0.72686,-15.36499 -3.98178,-15.91624 -15.93088,-27.52581 -31.9964,-31.08724 -4.5136,-1.00059 -12.43035,-1.00059 -16.94395,0 -5.62006,1.24586 -10.15573,3.17027 -14.81078,6.28399 -9.22718,6.17196 -15.85983,16.45545 -17.73277,27.49349 -0.63127,3.72036 -0.64622,10.36506 -0.0311,13.83294 2.98233,16.81418 15.56572,30.06876 32.01249,33.72003 5.38299,1.19505 11.82221,1.26159 17.14356,0.17717 z"
       id="path501"
       transform="matrix(0.75000002,0,0,-0.75000002,0,595.2754)" />
    <path
       style="fill:#ffffff;stroke-width:0.297262"
       d="m 470.74651,450.75558 c -11.59719,-1.21225 -23.26661,-6.41185 -32.13615,-14.31903 -15.2933,-13.63397 -22.14288,-34.371 -17.98148,-54.43873 5.49637,-26.50541 29.05377,-45.64566 56.17967,-45.64566 33.09439,0 59.35235,28.0803 57.19489,61.1643 -1.2257,18.79578 -11.89311,36.01752 -28.28558,45.66501 -10.45731,6.15445 -22.85835,8.84028 -34.97135,7.57411 z m 11.20152,-6.21761 c 6.68686,-0.72946 11.84509,-2.23876 17.7497,-5.19357 14.03342,-7.02266 23.85326,-19.82219 27.24624,-35.51372 0.59257,-2.74047 0.67567,-3.97349 0.68112,-10.10691 0.005,-6.18993 -0.0714,-7.34121 -0.67491,-10.10692 -2.16964,-9.94246 -6.48361,-18.13484 -13.28112,-25.22133 -9.80357,-10.22034 -22.70825,-15.77132 -36.71968,-15.79505 -10.93381,-0.0185 -22.08612,3.64674 -30.62241,10.06419 -19.4926,14.65423 -26.05553,40.67986 -15.82612,62.75925 8.98081,19.38436 30.25856,31.42549 51.44718,29.11406 z"
       id="path503"
       transform="matrix(0.75000002,0,0,-0.75000002,0,595.2754)" />
    <path
       style="fill:#ffffff;stroke-width:0.297262"
       d="m 471.01193,460.30579 c -21.85773,-2.29005 -40.22881,-13.76388 -51.34455,-32.06771 -6.44568,-10.61384 -9.59419,-21.94431 -9.59419,-34.52636 0,-7.94548 0.98603,-14.05361 3.45312,-21.39083 8.33834,-24.7986 30.83271,-42.61715 57.01704,-45.16513 28.59365,-2.78244 56.26153,13.69033 67.67625,40.29274 3.9004,9.09003 5.526,17.82499 5.24511,28.18405 -0.28521,10.51853 -2.42677,19.00986 -7.11329,28.20425 -9.93831,19.49779 -28.51669,32.83511 -50.17911,36.02333 -3.85519,0.56739 -11.77608,0.80024 -15.16038,0.44566 z m 14.97682,-6.67121 c 10.52187,-1.63205 20.69011,-6.13782 29.02252,-12.86052 2.85658,-2.30473 7.97327,-7.60622 10.18158,-10.54931 8.11481,-10.81488 12.13022,-22.95941 12.13016,-36.6874 -4e-5,-9.77079 -2.04328,-18.47755 -6.33923,-27.01307 -8.81158,-17.50751 -24.95217,-29.34327 -44.66284,-32.7509 -4.16933,-0.7208 -14.85546,-0.7208 -19.02478,0 -22.1728,3.83328 -39.74024,18.31133 -47.49437,39.14203 -3.97912,10.68952 -4.68192,24.0744 -1.8574,35.3742 1.98681,7.94843 5.81843,15.90031 10.81432,22.4433 1.85756,2.43279 6.84429,7.54463 9.55438,9.79406 8.99532,7.46632 20.38728,12.22247 32.40158,13.52768 3.39612,0.36895 11.65089,0.14192 15.27408,-0.42007 z"
       id="path505"
       transform="matrix(0.75000002,0,0,-0.75000002,0,595.2754)" />
    <path
       style="fill:#ffffff;stroke-width:0.297262"
       d="m 478.44349,358.46357 v -3.15589 l 2.00652,0.20903 c 5.55586,0.57877 12.35266,2.8386 16.00782,5.32235 l 1.14845,0.78039 h -9.5814 -9.58139 z"
       id="path507"
       transform="matrix(0.75000002,0,0,-0.75000002,0,595.2754)" />
    <path
       style="fill:#ffffff;stroke-width:0.297262"
       d="m 456.59472,361.14003 c 1.04893,-0.81248 6.47209,-3.30905 8.6206,-3.96851 2.66479,-0.81792 5.41777,-1.39084 7.95176,-1.65481 l 2.00652,-0.20903 v 3.15589 3.15588 l -9.5867,-0.009 c -8.71554,-0.009 -9.53268,-0.0513 -8.99218,-0.46997 z"
       id="path509"
       transform="matrix(0.75000002,0,0,-0.75000002,0,595.2754)" />
    <path
       style="fill:#ffffff;stroke-width:0.297262"
       d="m 470.12015,482.72752 c -0.57223,-0.0658 -2.31122,-0.26245 -3.86441,-0.43697 -14.49394,-1.62863 -29.54053,-7.51768 -41.61671,-16.28827 -32.54843,-23.63904 -45.36593,-65.43127 -31.61132,-103.07071 2.90164,-7.94032 8.5302,-17.9439 13.95149,-24.79583 2.83438,-3.58235 11.61561,-12.22884 15.1331,-14.9009 13.6029,-10.33343 28.38055,-16.35481 44.73796,-18.22916 5.14887,-0.59 14.71802,-0.59756 19.76976,-0.0156 17.92553,2.06495 34.41628,9.22634 47.97402,20.83352 13.19588,11.2974 22.70633,25.89578 27.77417,42.63289 2.47237,8.16529 3.55862,15.87798 3.55862,25.26729 0,9.51086 -1.0464,16.81598 -3.64667,25.4583 -4.35032,14.45877 -11.61938,26.58741 -22.4383,37.43898 -13.87366,13.91553 -30.67665,22.36969 -50.5483,25.4326 -2.83683,0.43725 -5.76147,0.62195 -10.9987,0.69458 -3.92386,0.0544 -7.60248,0.0451 -8.17471,-0.0207 z m 9.77851,-3.58103 c 2.96708,-1.47856 4.41234,-4.72841 3.49577,-7.86067 -0.92433,-3.15877 -3.35761,-5.03008 -6.54065,-5.03008 -0.9346,0 -2.12972,0.18038 -2.65583,0.40085 -5.40977,2.26698 -5.74104,9.74856 -0.55103,12.44482 2.12631,1.10463 4.09698,1.11884 6.25174,0.0451 z m 7.18387,-16.17715 c 14.05693,-2.00544 27.53419,-8.58897 37.96011,-18.54319 12.22374,-11.6707 19.81597,-27.2121 21.49615,-44.0029 0.43838,-4.38097 0.2038,-13.07788 -0.46856,-17.37145 -1.89307,-12.08885 -7.16866,-23.96554 -14.87341,-33.48381 -6.19195,-7.6494 -14.91832,-14.57476 -23.77027,-18.86438 -10.01974,-4.85554 -19.25584,-6.95292 -30.618,-6.95292 -7.06126,0 -10.88789,0.45653 -17.2558,2.05867 -7.48665,1.88363 -14.94116,5.19118 -21.35851,9.47674 -4.79646,3.20311 -7.52437,5.49101 -11.77322,9.8742 -10.14413,10.46486 -16.51751,23.26306 -18.92894,38.01066 -0.7553,4.61918 -0.75968,16.15414 -0.008,20.89455 3.60307,22.7205 17.39891,41.78904 37.66597,52.06169 13.15083,6.66569 27.15372,8.95055 41.93241,6.84214 z m -62.85231,-7.27243 c 3.56447,-2.08891 4.38949,-7.08121 1.69119,-10.23356 -1.46195,-1.70797 -2.93627,-2.39406 -5.14449,-2.39406 -4.17399,0 -6.89853,2.7265 -6.87864,6.88361 0.0251,5.23837 5.75707,8.42507 10.33194,5.74401 z m 110.86726,0.60956 c 2.70899,-0.80448 4.60741,-3.44185 4.62166,-6.42059 0.0195,-4.073 -2.74922,-6.81659 -6.87897,-6.81659 -7.6449,0 -9.34588,10.67909 -2.1127,13.26395 1.42456,0.50908 2.58963,0.50195 4.37001,-0.0268 z M 400.51074,399.78691 c 4.75756,-2.37079 5.09314,-8.95112 0.60786,-11.91934 -1.12168,-0.74229 -1.52208,-0.8322 -3.70606,-0.8322 -2.24708,0 -2.55419,0.0743 -3.73309,0.90283 -0.70651,0.49656 -1.58781,1.35281 -1.95844,1.90279 -3.92526,5.82469 2.49086,13.08478 8.78973,9.94592 z m 158.67422,0.0598 c 4.78004,-2.2257 5.16666,-9.00449 0.68279,-11.97178 -1.52697,-1.0105 -4.5706,-1.31217 -6.22893,-0.61738 -4.31307,1.80703 -5.66994,7.05596 -2.79752,10.8219 1.05719,1.38605 3.40567,2.47553 5.33625,2.47553 0.94209,0 2.04327,-0.25934 3.00741,-0.70827 z M 423.38522,343.91658 c 2.55425,-1.06697 4.05581,-3.42729 4.05581,-6.37537 0,-2.2911 -0.73814,-3.93959 -2.3642,-5.27992 -3.35422,-2.76483 -8.68972,-1.67323 -10.54401,2.15722 -1.76478,3.64554 -0.0183,8.2371 3.63745,9.56293 1.39029,0.50422 3.92818,0.47265 5.21495,-0.0649 z m 111.85845,0.12236 c 2.73891,-0.8206 4.43583,-3.3188 4.43583,-6.53041 0,-1.64452 -0.14112,-2.16083 -0.9661,-3.5347 -2.13142,-3.54952 -6.95871,-4.36214 -10.17314,-1.71254 -4.80314,3.95916 -2.04009,12.08273 4.11909,12.11042 0.7985,0.004 1.96145,-0.14615 2.58432,-0.33277 z m -55.36392,-23.62103 c 4.75126,-2.36766 5.09336,-8.95098 0.619,-11.91197 -1.52698,-1.0105 -4.5706,-1.31218 -6.22894,-0.61739 -4.27764,1.7922 -5.66975,7.05621 -2.84535,10.75919 1.0687,1.40113 3.4875,2.54405 5.38409,2.54405 1.03964,0 2.00774,-0.24394 3.0712,-0.77388 z"
       id="path511"
       transform="matrix(0.75000002,0,0,-0.75000002,0,595.2754)" />
    <path
       style="fill:#ffffff;stroke-width:0.297262"
       d="m 470.12015,520.77747 c -0.73573,-0.0631 -3.07667,-0.26095 -5.20209,-0.43972 -2.12543,-0.17877 -6.1836,-0.71242 -9.01817,-1.18588 -40.29247,-6.73017 -75.1553,-32.67866 -93.23042,-69.39165 -9.486,-19.26733 -13.81872,-39.93937 -12.91306,-61.61012 2.04101,-48.83767 32.22948,-92.28613 77.55798,-111.62457 30.3705,-12.95692 65.1142,-13.39279 96.01569,-1.20454 40.27733,15.88629 70.21077,51.80928 78.32169,93.99352 1.78044,9.25994 2.07565,12.70001 2.08192,24.26062 0.006,11.45393 -0.22002,14.33049 -1.81193,23.03782 -6.71209,36.71361 -29.52229,68.82025 -62.24226,87.6095 -14.91032,8.56218 -32.00468,14.08595 -49.51325,15.99945 -3.94523,0.43117 -17.20933,0.79878 -20.0461,0.55557 z m 5.10256,-16.49442 c 0.59536,-6.79346 0.70618,-9.09509 0.4459,-9.26068 -0.19051,-0.1212 -1.04866,-0.22241 -1.907,-0.22491 -1.49975,-0.004 -1.56155,0.0274 -1.58425,0.81292 -0.013,0.44961 -0.26208,3.29218 -0.55353,6.31682 l -0.52992,5.49935 -0.65747,-1.48631 c -0.36161,-0.81747 -1.61741,-3.82725 -2.79066,-6.6884 l -2.1332,-5.20209 -2.22946,-0.18143 c -1.22621,-0.0998 -2.28537,-0.13307 -2.35368,-0.074 -0.16811,0.14545 -1.75029,18.05678 -1.60956,18.22124 0.0612,0.0716 0.89372,0.18671 1.84997,0.25588 l 1.73862,0.12576 0.17571,-1.2963 c 0.0966,-0.71296 0.33504,-3.36969 0.52979,-5.90385 0.19475,-2.53416 0.44324,-4.78166 0.55219,-4.99443 0.11186,-0.21841 1.3387,2.43496 2.81765,6.09388 1.44074,3.5644 2.66941,6.53695 2.73037,6.60566 0.12727,0.14344 3.97082,0.55682 4.41901,0.47527 0.16948,-0.0308 0.63781,-3.93997 1.08952,-9.09442 z m 8.42287,8.77232 c 0.58883,-0.15813 0.59083,-0.247 0.20888,-9.27467 -0.2121,-5.01325 -0.43799,-9.16735 -0.50197,-9.23133 -0.064,-0.064 -0.94667,-0.0199 -1.96154,0.0978 l -1.84521,0.21416 0.19203,4.57334 c 0.10562,2.51533 0.27913,6.64674 0.38559,9.1809 l 0.19356,4.60756 1.36706,-0.004 c 0.75189,-0.002 1.63461,-0.0759 1.9616,-0.16373 z m 13.55056,-1.47219 c 0.74955,-0.10799 1.54243,-0.30735 1.76195,-0.44302 0.2606,-0.16106 0.89497,-3.32451 1.82774,-9.11443 0.78574,-4.87727 1.43087,-9.15007 1.43362,-9.49511 0.005,-0.60695 -0.0554,-0.61657 -1.85288,-0.29574 l -1.85788,0.33162 -1.03374,7.05844 c -0.56855,3.88215 -1.10611,7.05846 -1.19459,7.05846 -0.0885,0 -1.62981,-2.81812 -3.4252,-6.26248 l -3.26434,-6.26248 -1.60723,0.19582 c -1.98815,0.24222 -2.45979,0.41582 -2.34609,0.86351 0.0489,0.19253 2.09543,4.05827 4.54785,8.59054 3.83083,7.0797 4.54268,8.22151 5.05345,8.10584 0.32699,-0.074 1.20779,-0.22299 1.95734,-0.33097 z m -46.07321,-2.61908 c 1.97549,-1.04332 2.70716,-2.52739 4.56852,-9.26637 0.90316,-3.26988 1.64309,-6.10727 1.64427,-6.3053 0.002,-0.31805 -2.5603,-1.27833 -3.396,-1.27277 -0.17469,10e-4 -0.97812,2.43157 -1.78539,5.4009 -1.73164,6.36939 -2.29094,7.60939 -3.79555,8.41503 -1.02267,0.54758 -1.19122,0.55823 -2.35117,0.14863 -1.70931,-0.6036 -2.50501,-1.74575 -2.44588,-3.5108 0.0256,-0.76415 0.73358,-3.84723 1.57329,-6.85128 0.83972,-3.00406 1.47135,-5.51731 1.40365,-5.58502 -0.22823,-0.22823 -3.48076,-1.0799 -3.61427,-0.94639 -0.0727,0.0727 -0.87153,2.80098 -1.7751,6.06278 -1.88819,6.81616 -2.06345,8.74542 -0.96987,10.67621 1.69297,2.98907 7.81511,4.68659 10.9435,3.03438 z m 64.23015,-1.98344 c 2.82498,-0.98097 5.16123,-1.78357 5.19166,-1.78357 0.0304,0 -0.15857,-0.66884 -0.41998,-1.48632 -0.26142,-0.81747 -0.56758,-1.48631 -0.68037,-1.48631 -0.11278,0 -1.49845,0.46819 -3.07926,1.04042 -1.58081,0.57223 -3.04189,1.04042 -3.24683,1.04042 -0.29521,0 -1.67871,-3.48824 -1.67871,-4.23256 0,-0.0975 1.30424,-0.60792 2.89831,-1.13417 1.59407,-0.52625 2.94538,-0.9968 3.0029,-1.04567 0.0575,-0.0489 -0.1167,-0.75514 -0.38718,-1.5695 l -0.49179,-1.48064 -3.01542,1.01549 c -1.65848,0.55852 -3.04511,1.01549 -3.08141,1.01549 -0.13012,0 -1.36235,-3.90431 -1.25975,-3.9915 0.0577,-0.049 1.44255,-0.5253 3.0775,-1.05842 1.63494,-0.53311 3.07369,-1.0604 3.19722,-1.17176 0.18875,-0.17017 -0.57024,-2.99344 -0.80475,-2.99344 -0.35902,0 -9.8843,3.36562 -10.08432,3.56315 -0.20027,0.19777 5.39933,17.52403 5.66842,17.53922 0.0316,0.002 2.36877,-0.79937 5.19376,-1.78033 z m 12.44581,-4.90984 c 0.81204,-0.41148 1.47643,-0.8821 1.47643,-1.04581 0,-0.16371 -0.66884,-1.63048 -1.48631,-3.25948 -0.81747,-1.629 -1.48631,-3.07655 -1.48631,-3.21677 0,-0.32805 1.34943,-0.9449 2.0671,-0.9449 0.30405,0 1.76537,1.07014 3.24739,2.3781 1.48202,1.30795 2.82921,2.3781 2.99376,2.3781 0.58333,0 3.58196,-1.61499 3.56463,-1.91982 -0.0232,-0.40827 -6.20618,-5.53036 -7.05471,-5.84425 l -0.65888,-0.24374 0.5946,-0.97524 c 0.82402,-1.3515 0.79222,-3.42423 -0.072,-4.69404 -1.97574,-2.90296 -3.85425,-2.95903 -9.41836,-0.28115 -2.13627,1.02814 -3.88412,1.99481 -3.88412,2.14815 0,0.30895 7.64857,15.30634 8.10759,15.89744 0.37208,0.47915 0.29022,0.49449 2.0092,-0.37659 z M 424.9363,501.15631 c 0,-0.097 -0.40131,-2.64788 -0.89179,-5.66861 -0.49048,-3.02073 -0.89179,-5.66935 -0.89179,-5.88583 0,-0.24334 2.0427,-1.1018 5.35072,-2.24868 2.9429,-1.0203 5.35072,-1.89248 5.35072,-1.93818 0,-0.0457 -0.91092,-0.60829 -2.02427,-1.25018 l -2.02428,-1.16708 -4.40613,1.59756 c -2.42337,0.87865 -4.45959,1.54409 -4.52494,1.47874 -0.0654,-0.0654 0.68321,-1.49901 1.66346,-3.1859 l 1.78228,-3.06707 -0.84517,-0.51399 c -0.46485,-0.28269 -1.25078,-0.72372 -1.74651,-0.98007 l -0.90133,-0.4661 -4.23332,7.35126 c -2.32832,4.0432 -4.42008,7.6387 -4.64835,7.99001 -0.39305,0.6049 -0.32784,0.68864 1.23078,1.58039 0.9052,0.5179 1.76927,0.86534 1.92016,0.77209 0.15089,-0.0933 1.12182,-1.67392 2.15763,-3.5126 l 1.88329,-3.34304 0.70232,5.21223 0.70231,5.21224 1.97416,1.096 c 1.97301,1.09536 2.42005,1.26841 2.42005,0.93681 z m 120.55691,-9.18201 c 1.41751,-0.83035 3.59228,-3.10533 4.00417,-4.18868 0.69355,-1.82419 0.22256,-4.12935 -1.14187,-5.58865 -1.56673,-1.67565 -3.54902,-2.04438 -6.59518,-1.22675 -2.33182,0.62589 -3.77111,0.58113 -4.15121,-0.12909 -0.90577,-1.69244 0.1778,-3.44868 2.72413,-4.41525 0.73768,-0.28001 1.37927,-0.61997 1.42576,-0.75545 0.15429,-0.44964 -1.21822,-2.57766 -1.66252,-2.57766 -0.89852,0 -3.51593,1.58432 -4.89388,2.96226 -2.25015,2.25015 -2.54706,4.34615 -0.99752,7.04179 0.4737,0.82405 1.13796,1.44207 1.99691,1.85788 1.51294,0.73241 2.40058,0.76616 4.81518,0.18313 4.07895,-0.9849 5.78153,-0.0368 4.47412,2.49141 -0.54218,1.04846 -1.66544,1.79005 -3.63383,2.39908 l -1.54002,0.47649 0.89169,1.54448 0.89171,1.54448 1.0931,-0.45646 c 0.60121,-0.25106 1.63588,-0.77441 2.29926,-1.16301 z m -137.3226,-5.22578 c 0.95614,-0.59093 9.65454,-10.47912 9.61244,-10.92727 -0.0249,-0.26502 -2.63734,-2.43718 -2.89966,-2.41097 -0.11145,0.0111 -1.87474,2.00498 -3.91842,4.43076 -4.12207,4.89277 -5.55039,6.07648 -7.05185,5.84415 -1.27037,-0.19657 -2.33181,-1.00416 -2.92519,-2.22563 -0.44755,-0.92128 -0.44756,-1.09324 -1.5e-4,-2.26477 0.28263,-0.74007 2.08873,-3.16109 4.3389,-5.81619 2.12009,-2.50161 3.85472,-4.64905 3.85472,-4.77208 0,-0.12303 -0.63409,-0.7657 -1.4091,-1.42815 -1.09792,-0.93848 -1.48519,-1.12411 -1.75367,-0.8406 -0.18951,0.20012 -2.04496,2.37038 -4.1232,4.8228 -3.92698,4.634 -5.19576,6.70526 -5.18961,8.47197 0.01,2.77842 3.02637,6.34467 6.44056,7.61385 1.46282,0.54379 3.69702,0.32239 5.02423,-0.49787 z m 80.37979,-1.75204 c 12.91206,-1.78751 24.91044,-5.96277 35.52283,-12.36141 34.29932,-20.68045 51.30439,-60.69809 42.3748,-99.71966 -4.62875,-20.22729 -16.57625,-38.93221 -33.09091,-51.80693 -25.60364,-19.96042 -60.10598,-24.96906 -90.1392,-13.08534 -30.28414,11.983 -51.78591,38.50057 -57.19758,70.54025 -1.82343,10.79562 -1.5473,23.4004 0.75111,34.28624 2.04331,9.67766 5.98278,19.60708 11.28192,28.43609 15.62446,26.03219 44.01351,43.00612 73.99898,44.2443 5.3938,0.22272 12.7548,-0.0153 16.49805,-0.53354 z m 68.63115,-2.80011 1.27641,-1.30057 -6.16647,-6.72551 c -3.39156,-3.69903 -6.25118,-6.7255 -6.35472,-6.7255 -0.10353,0 -0.77137,0.59416 -1.48408,1.32036 l -1.29583,1.32035 3.87472,4.25331 c 2.13109,2.33932 4.8601,5.34582 6.06445,6.68111 1.20435,1.33529 2.32909,2.43887 2.49942,2.45241 0.17033,0.0136 0.88407,-0.56064 1.5861,-1.27596 z m -163.0037,-10.33446 c 2.03918,-1.65794 3.70759,-3.11265 3.70759,-3.23268 0,-0.1789 -3.70642,-4.97346 -4.4117,-5.70689 -0.1122,-0.11669 -0.76943,0.23528 -1.4605,0.78215 l -1.2565,0.9943 1.19041,1.49509 1.19041,1.49509 -1.67737,1.43303 -1.67737,1.43302 -1.26056,-1.39233 c -1.36203,-1.50442 -2.07891,-3.51376 -1.75396,-4.91622 0.31634,-1.36535 1.51589,-3.20311 2.66068,-4.07628 3.69012,-2.8146 7.9383,-1.45897 10.26991,3.27721 0.51894,1.0541 1.02787,1.91655 1.13097,1.91655 0.1031,0 0.69805,-0.34696 1.32211,-0.77102 1.39941,-0.95092 1.33131,-1.4514 -0.59094,-4.34288 -3.03757,-4.56915 -6.97973,-6.39752 -11.16835,-5.17985 -2.20859,0.64206 -4.92502,2.68802 -6.19357,4.66488 -0.88031,1.37184 -1.0384,1.89892 -1.13331,3.77844 -0.13164,2.60682 0.36008,4.14098 2.15604,6.72684 1.08976,1.56907 4.40609,4.63598 5.01299,4.63598 0.12949,0 1.90386,-1.35649 3.94302,-3.01443 z m 172.06559,1.0737 c 0.61891,-0.74042 1.08199,-1.45587 1.02906,-1.58989 -0.0529,-0.13402 -2.30342,-2.15516 -5.00107,-4.49144 -2.69766,-2.33627 -5.21335,-4.54086 -5.59043,-4.89909 l -0.68561,-0.65132 1.28477,-1.46279 c 2.25437,-2.56675 2.18789,-2.35841 1.07544,-3.37001 l -0.989,-0.89934 6.39114,-1.4e-4 6.39113,-1.5e-4 3.11105,1.92521 3.11104,1.92521 0.97932,-1.55319 c 0.53862,-0.85426 0.94452,-1.65158 0.90199,-1.77183 -0.0425,-0.12025 -1.415,-1.06309 -3.04994,-2.0952 l -2.97262,-1.87657 -2.87219,-5.48529 c -1.5797,-3.0169 -2.98857,-5.52408 -3.13083,-5.5715 -0.14225,-0.0474 -0.70067,0.64315 -1.24094,1.53459 l -0.98231,1.6208 1.99655,3.76356 1.99656,3.76356 -4.257,-0.10368 -4.25701,-0.10368 -1.1088,1.78249 c -0.60984,0.98037 -1.4345,2.11691 -1.83259,2.52564 -1.74626,1.79298 -8.83557,10.09855 -8.83557,10.35144 0,0.31887 1.91552,1.84496 2.28395,1.81961 0.13353,-0.009 0.91067,-0.8118 1.72699,-1.78357 0.81632,-0.97178 1.55204,-1.76428 1.63494,-1.7611 0.0829,0.003 2.68232,2.21034 5.77648,4.90482 3.09417,2.69448 5.70776,4.89906 5.80798,4.89906 0.10023,0 0.68861,-0.6058 1.30752,-1.34621 z M 385.34946,453.03182 c 0.32512,-0.30414 0.14693,-0.83625 -1.00826,-3.01083 -0.77175,-1.45277 -1.5826,-2.93422 -1.8019,-3.29212 l -0.39872,-0.65072 -1.3427,0.75045 c -0.73848,0.41275 -1.3427,0.80792 -1.3427,0.87817 0,0.0702 0.3964,0.8301 0.88089,1.68856 l 0.88088,1.56084 -1.89277,1.02147 c -2.16945,1.17077 -2.40345,1.10237 -3.42127,-1.00018 -1.20257,-2.48417 -0.53487,-5.54152 1.55901,-7.1386 4.31351,-3.29008 8.9405,-1.78072 10.73385,3.50145 0.26099,0.76876 0.47454,1.6527 0.47454,1.96433 0,0.88256 0.41813,0.94354 1.91864,0.27979 1.31697,-0.58256 1.3793,-0.66308 1.20623,-1.5582 -0.10037,-0.51915 -0.77704,-2.16832 -1.50372,-3.66483 -2.87613,-5.9231 -7.52042,-7.79513 -12.98949,-5.23584 -2.48861,1.16456 -3.89121,2.43919 -4.85758,4.41437 -0.71059,1.45239 -0.7788,1.87099 -0.66275,4.06702 0.15405,2.915 1.17079,5.26462 3.55112,8.20643 l 1.49318,1.8454 4.0643,-2.12877 c 2.23536,-1.17081 4.24201,-2.295 4.45922,-2.49819 z m -9.833,-17.85425 c 4.61871,-1.43983 8.39765,-2.74078 8.39765,-2.89099 0,-0.15022 -0.20743,-0.98667 -0.46096,-1.85878 -0.44517,-1.53135 -0.48845,-1.57663 -1.26337,-1.32204 -3.16012,1.03822 -10.55237,3.26209 -10.84336,3.26209 -0.19616,0 1.88469,-2.24426 4.62412,-4.98724 l 4.98076,-4.98724 -0.64547,-2.14705 c -0.39446,-1.3121 -0.80461,-2.14706 -1.05466,-2.14706 -0.54012,0 -16.82683,5.05778 -17.09981,5.31028 -0.16729,0.15474 0.52328,3.21178 0.79949,3.53921 0.0372,0.0441 2.64,-0.72502 5.78393,-1.70926 3.14392,-0.98423 5.87087,-1.78951 6.05988,-1.78951 0.18901,0 -1.89548,2.24205 -4.6322,4.98233 -2.73673,2.74028 -4.97586,5.18902 -4.97586,5.44163 0,0.95884 1.26622,4.1759 1.59429,4.05058 0.18585,-0.071 4.11686,-1.30713 8.73557,-2.74695 z m 200.37285,-2.53075 1.19476,-0.35796 -0.61284,-1.60144 c -0.33707,-0.88079 -0.55281,-1.66148 -0.47943,-1.73485 0.0734,-0.0734 3.00242,0.78393 6.509,1.90513 l 6.37559,2.03855 0.57798,-1.75219 c 0.3572,-1.08285 0.47075,-1.84854 0.29726,-2.0044 -0.15439,-0.13872 -3.91675,-1.40945 -8.36079,-2.82385 -4.44404,-1.41439 -8.26701,-2.64336 -8.4955,-2.73104 -0.29634,-0.11372 -0.56398,0.33407 -0.9337,1.56216 l -0.51828,1.72157 1.24829,3.21292 c 0.83083,2.13846 1.37447,3.16451 1.6256,3.06815 0.20752,-0.0796 0.91494,-0.30587 1.57206,-0.50275 z m 16.78686,-13.8044 c 0.77975,-2.52027 0.59775,-5.03773 -0.4822,-6.66964 -1.75877,-2.65768 -5.87144,-4.31145 -10.74913,-4.32239 -2.62856,-0.006 -3.12504,0.0793 -4.28943,0.73648 -1.98671,1.12123 -2.76777,2.78963 -2.64408,5.64799 0.0771,1.78071 0.24064,2.4316 0.81272,3.23371 1.59195,2.23208 6.34237,3.30444 8.6465,1.95186 2.03724,-1.1959 3.05111,-3.64727 2.44605,-5.91413 -0.17593,-0.65913 -0.26726,-1.25105 -0.20294,-1.31536 0.28398,-0.28399 2.00048,0.71989 2.81273,1.645 1.07826,1.22807 1.17966,2.85412 0.29897,4.79454 l -0.57839,1.27438 0.65923,0.24357 c 0.36258,0.13396 0.85989,0.32158 1.10513,0.41691 1.14798,0.44629 1.60664,0.0813 2.16484,-1.72292 z m -220.80118,-3.37456 c 3.25956,-1.467 4.89715,-4.07707 4.90193,-7.81295 0.005,-4.23611 -1.65841,-7.20514 -4.81641,-8.59466 -2.1837,-0.96083 -6.13833,-0.95447 -8.70612,0.014 -3.76377,1.41955 -5.76246,4.72737 -5.40838,8.95082 0.31574,3.76616 2.33103,6.70855 5.35613,7.82011 1.90863,0.70132 6.74356,0.49097 8.67285,-0.37732 z m 219.44546,-11.05301 c 1.50332,-0.4504 3.19192,-1.79226 3.85494,-3.06334 0.28605,-0.54839 0.49843,-1.68166 0.51027,-2.72292 0.0424,-3.72951 -2.23731,-5.76843 -7.18085,-6.4223 -4.55103,-0.60196 -9.24627,0.55857 -10.73853,2.65425 -1.35034,1.89638 -1.40408,4.7688 -0.13004,6.95027 0.67785,1.16064 3.165,2.52515 5.30837,2.91231 1.9131,0.34556 6.793,0.16596 8.37584,-0.30827 z M 371.28263,393.9166 c 3.0877,-1.43787 4.3991,-4.0337 5.10341,-10.10183 0.24355,-2.09832 0.39834,-3.85584 0.34398,-3.9056 -0.10404,-0.0953 -18.19246,-1.90145 -18.28611,-1.82595 -0.24644,0.19868 -0.72234,6.9587 -0.58837,8.35762 0.37747,3.94146 2.18111,6.53074 5.29932,7.60763 2.39179,0.82601 6.2036,0.76417 8.12777,-0.13187 z m 217.55944,-5.39293 c 4.41721,-0.93582 6.17061,-2.49226 6.37208,-5.65626 0.18871,-2.96357 -0.8765,-5.17732 -3.02897,-6.29491 -1.43352,-0.7443 -4.8039,-0.65183 -6.5199,0.17887 -2.87653,1.3925 -3.80006,5.37644 -1.79792,7.75586 l 0.75158,0.89319 h -1.1458 c -1.54463,0 -3.10138,-0.87266 -3.75699,-2.10604 -0.41983,-0.78982 -0.50481,-1.42769 -0.38276,-2.8731 l 0.15687,-1.85789 h -1.59586 -1.59586 l -0.18861,1.412 c -0.5886,4.40649 1.74879,7.87247 5.92943,8.79239 1.32367,0.29127 4.87764,0.16374 6.80271,-0.24411 z M 377.79193,354.14671 c 0.69853,-0.31828 1.66325,-1.84615 1.66325,-2.63417 0,-0.19583 -0.2071,-0.79248 -0.46022,-1.32589 -1.05616,-2.22569 -4.27831,-2.19956 -5.34263,0.0433 -1.26154,2.6585 1.3916,5.1688 4.1396,3.91673 z m 200.38445,-0.37911 c 2.83643,-2.83644 -0.92557,-7.03806 -3.99166,-4.45811 -0.78845,0.66344 -0.91459,0.96729 -0.91459,2.20305 0,1.23575 0.12614,1.5396 0.91459,2.20304 1.23041,1.03532 2.98548,1.05819 3.99166,0.052 z m -22.73788,-28.26139 -3.27521,-3.28453 2.8213,-2.80957 2.82131,-2.80957 -1.09745,-1.12389 c -0.6036,-0.61814 -1.23751,-1.12832 -1.4087,-1.13373 -0.17119,-0.005 -1.51516,1.27428 -2.98661,2.84376 l -2.67536,2.85359 -0.95063,-0.98587 -0.95063,-0.98586 2.78248,-2.97262 2.78247,-2.97262 -1.0747,-1.11474 c -0.59109,-0.6131 -1.16365,-1.11473 -1.27237,-1.11473 -0.10872,0 -1.44657,1.27353 -2.97302,2.83007 l -2.77535,2.83007 -2.01229,-1.99686 -2.01228,-1.99686 -1.02999,1.17331 -1.02999,1.17331 8.67667,8.51664 8.67666,8.51664 1.11945,-1.0757 1.11945,-1.07571 z m -152.10823,3.59431 c 3.03672,-0.91392 7.71341,-5.18543 9.42299,-8.6066 0.62533,-1.25139 0.88707,-2.2085 0.88707,-3.24374 0,-1.27378 -0.13405,-1.60261 -1.01069,-2.47925 -1.36254,-1.36254 -3.08361,-1.39366 -5.80761,-0.10501 -2.6077,1.23364 -7.10071,5.69045 -8.23549,8.16915 -1.34463,2.93705 -1.00643,5.26934 0.90051,6.21012 1.15608,0.57035 2.08739,0.58376 3.84322,0.0553 z m -8.29262,-5.14699 c 1.15754,-1.09695 5.09141,-4.93011 8.74192,-8.51813 l 6.63728,-6.52368 -1.05845,-1.05845 -1.05845,-1.05845 -3.7304,3.68795 -3.73039,3.68794 -0.65233,-0.65232 -0.65233,-0.65233 2.74789,-2.75937 2.7479,-2.75936 -1.04674,-1.01454 -1.04673,-1.01453 -1.26233,1.16874 c -0.69428,0.64281 -3.1402,3.01388 -5.43537,5.26905 l -4.17305,4.10031 -0.88041,-0.93148 -0.88041,-0.93149 5.35072,-5.16003 5.35072,-5.16003 -1.09805,-1.1031 -1.09806,-1.1031 -6.48213,6.34641 c -3.56517,3.49053 -6.5162,6.42557 -6.55784,6.52232 -0.0417,0.0967 1.25894,1.50555 2.89019,3.13068 l 2.9659,2.95477 2.49852,-2.43875 c 1.37419,-1.34131 2.62791,-2.43875 2.78604,-2.43875 0.15813,0 0.50488,0.24019 0.77055,0.53376 0.45444,0.50214 0.27231,0.74394 -3.07518,4.0827 -1.95702,1.95193 -3.55822,3.6775 -3.55822,3.8346 0,0.29178 1.48097,1.95312 1.74107,1.95312 0.0789,0 1.09062,-0.89751 2.24817,-1.99446 z m 165.95546,-2.43404 c 1.94805,-1.45471 4.28232,-3.32163 5.18729,-4.14871 l 1.64538,-1.50379 -6.90518,-6.88236 -6.90518,-6.88236 -1.07555,1.1471 -1.07556,1.14711 5.57871,5.50911 5.5787,5.50911 -1.78714,1.51329 c -0.98293,0.8323 -2.72352,2.21627 -3.86798,3.07548 -1.14446,0.85921 -2.12929,1.69032 -2.18851,1.8469 -0.11056,0.29234 1.6946,2.31404 2.06618,2.31404 0.11382,0 1.80079,-1.19021 3.74884,-2.64492 z m -37.05994,-17.05121 1.44662,-3.49534 -1.09917,-0.46629 c -6.94468,-2.94607 -15.27458,-6.36572 -15.50623,-6.36572 -0.33274,0 -1.19921,1.55272 -1.19921,2.14902 0,0.23416 2.72303,1.52962 6.6884,3.18196 3.67862,1.53285 6.6884,2.81481 6.6884,2.8488 0,0.034 -0.4013,1.03497 -0.89179,2.2244 -0.49048,1.18943 -0.89178,2.21763 -0.89178,2.28488 0,0.23354 2.52899,1.27657 2.92243,1.20531 0.21764,-0.0394 1.04669,-1.64458 1.84233,-3.56702 z m -87.96868,-4.08484 c 3.63708,-1.63494 6.73226,-2.97262 6.87818,-2.97262 0.14592,0 0.72884,1.00326 1.29538,2.22946 0.56654,1.22621 1.19324,2.22653 1.39265,2.22294 0.44652,-0.008 2.88931,-1.1006 2.88931,-1.29226 0,-0.15964 -3.22382,-7.37483 -3.35275,-7.50377 -0.0469,-0.0469 -1.6784,0.6327 -3.62559,1.51018 l -3.54034,1.59541 -0.73075,-1.61514 c -0.40192,-0.88833 -0.67713,-1.66155 -0.61159,-1.71826 0.0655,-0.0567 2.19257,-1.01317 4.72673,-2.12546 2.53416,-1.1123 4.71872,-2.11801 4.85459,-2.23493 0.29924,-0.25749 -0.87803,-2.6614 -1.30337,-2.6614 -0.16561,0 -0.96273,0.33528 -1.77139,0.74505 l -1.47029,0.74506 -0.17785,-0.81937 c -0.24313,-1.12014 -1.95897,-7.33933 -2.05295,-7.44105 -0.10046,-0.10873 -16.88238,7.36982 -17.20776,7.66832 -0.30918,0.28364 0.41666,2.39635 0.88503,2.57608 0.18536,0.0711 3.37552,-1.22611 7.08924,-2.88277 3.71372,-1.65665 6.7908,-2.96905 6.83797,-2.91644 0.15236,0.16996 1.34425,5.09948 1.25464,5.18908 -0.0477,0.0477 -3.42466,1.57038 -7.50444,3.38382 -4.07979,1.81344 -7.52499,3.40373 -7.656,3.53397 -0.26433,0.26276 0.61618,2.70326 0.97531,2.70326 0.12466,0 2.18561,-0.86949 4.57989,-1.9322 2.39428,-1.06271 4.40158,-1.9322 4.46066,-1.9322 0.28558,0 1.38501,3.07378 1.1704,3.27219 -0.13563,0.12539 -1.55085,0.79723 -3.14491,1.49297 -1.59407,0.69575 -2.89831,1.442 -2.89831,1.65834 0,0.36726 0.91558,2.49436 1.07367,2.49436 0.0395,0 3.04756,-1.33768 6.68464,-2.97262 z m 90.91092,-3.04633 c 1.11425,-2.72778 1.35705,-2.92184 2.69717,-2.15576 1.22058,0.69774 1.68108,0.54072 2.19719,-0.74917 0.263,-0.65729 0.47817,-1.264 0.47817,-1.34824 0,-0.0842 -0.63265,-0.42437 -1.4059,-0.75582 -0.77325,-0.33146 -1.44244,-0.63918 -1.48709,-0.68383 -0.0447,-0.0447 0.46414,-1.38632 1.13065,-2.98147 0.66652,-1.59516 1.16576,-2.94638 1.10943,-3.00271 -0.18597,-0.18597 -2.99709,-1.34549 -3.05953,-1.26198 -0.0336,0.045 -0.80828,1.88765 -1.72143,4.09482 -0.91315,2.20717 -2.2666,5.45968 -3.00766,7.22778 l -1.34739,3.21475 1.253,0.5727 c 0.68915,0.31499 1.44383,0.54046 1.67708,0.50104 0.23323,-0.0394 0.90207,-1.24187 1.48631,-2.67211 z m -40.17956,-12.78288 0.0777,-12.11344 h -1.78691 -1.78691 v 4.45894 4.45893 h -1.04041 -1.04042 v -4.45893 -4.45894 h -1.78357 -1.78358 v 11.4446 11.44459 h 1.78358 1.78357 v -5.35072 -5.35072 h 1.04042 1.04041 v 5.8957 c 0,3.24264 0.0952,5.99089 0.21153,6.10723 0.11634,0.11634 0.88551,0.17208 1.70926,0.12386 l 1.49773,-0.0877 z m 33.73089,10.58236 c 0.95301,-0.48234 1.71492,-1.81127 1.71277,-2.98741 -0.002,-1.01031 -1.04653,-2.79033 -2.13803,-3.64297 -2.59882,-2.0301 -7.09656,-2.95883 -9.15228,-1.88982 -3.15762,1.64201 -2.08058,5.63878 2.08989,7.75529 3.02198,1.53366 5.47387,1.78413 7.48765,0.76491 z m -45.594,-3.86199 1.82718,-0.19098 v -1.52294 -1.52294 l -2.45242,0.20397 c -1.34882,0.11218 -3.02092,0.2146 -3.71577,0.2276 l -1.26337,0.0236 v -5.05346 -5.05345 h 3.26988 3.26989 v -1.63494 -1.63495 h -4.90483 -4.90482 v 8.17471 8.17471 h 3.52354 c 1.93794,0 4.34577,-0.0859 5.35072,-0.19097 z m 50.66084,-4.29285 c -0.50043,-0.47585 -14.05256,-5.95633 -14.32004,-5.79101 -0.30461,0.18826 -1.05246,2.22149 -0.87831,2.38793 0.0572,0.0546 3.30933,1.43469 7.22702,3.06679 l 7.12309,2.96745 0.53976,-1.20561 c 0.29687,-0.66308 0.43569,-1.30458 0.30848,-1.42555 z m -2.12407,-3.55665 c 0.1942,-0.64817 0.29821,-1.21877 0.23114,-1.268 -0.10775,-0.0791 -6.40677,-2.74094 -7.31046,-3.08925 -0.41188,-0.15876 -1.36168,1.53114 -1.22709,2.18327 0.0921,0.44605 7.32103,3.68243 7.73858,3.46453 0.11811,-0.0616 0.37364,-0.64238 0.56783,-1.29055 z"
       id="path513"
       transform="matrix(0.75000002,0,0,-0.75000002,0,595.2754)" />
    <path
       style="fill:#ffffff;stroke-width:0.297262"
       d="m 514.85811,292.25313 c -1.7655,-0.82311 -2.30931,-1.40534 -2.17797,-2.33182 0.0812,-0.57316 0.30099,-0.70002 1.34378,-0.77579 2.687,-0.19526 5.78391,2.53054 3.97498,3.49864 -0.85325,0.45665 -1.4936,0.37692 -3.14079,-0.39103 z"
       id="path515"
       transform="matrix(0.75000002,0,0,-0.75000002,0,595.2754)" />
    <path
       style="fill:#ffffff;stroke-width:0.297262"
       d="m 401.3535,325.74981 c -1.21729,-1.21728 2.82069,-6.4709 6.14245,-7.99165 2.47628,-1.13367 3.31025,-0.4612 2.28958,1.84621 -0.71158,1.60865 -3.86212,4.83311 -5.57722,5.70809 -1.2343,0.6297 -2.47275,0.81942 -2.85481,0.43735 z"
       id="path517"
       transform="matrix(0.75000002,0,0,-0.75000002,0,595.2754)" />
    <path
       style="fill:#ffffff;stroke-width:0.297262"
       d="m 365.80656,390.40184 c -3.05192,-0.53703 -4.78163,-2.78571 -4.78163,-6.21627 v -1.91894 l 6.12785,0.58921 6.12785,0.5892 -0.17308,1.46138 c -0.46189,3.89996 -3.47582,6.16853 -7.30099,5.49542 z"
       id="path519"
       transform="matrix(0.75000002,0,0,-0.75000002,0,595.2754)" />
    <path
       style="fill:#ffffff;stroke-width:0.297262"
       d="m 364.99047,412.18273 c -2.58141,-0.65934 -3.96425,-2.33868 -3.96508,-4.81526 -8.4e-4,-2.48802 1.67598,-4.06389 5.08381,-4.77774 2.89925,-0.60732 5.42547,0.20152 6.91689,2.21463 0.8896,1.20077 0.84323,3.63193 -0.0944,4.94868 -1.28629,1.80643 -5.42442,3.07252 -7.94124,2.42969 z"
       id="path521"
       transform="matrix(0.75000002,0,0,-0.75000002,0,595.2754)" />
    <path
       style="fill:#ffffff;stroke-width:0.297262"
       d="m 523.49453,489.4736 -1.03208,-2.04943 1.45502,-0.62593 c 1.94643,-0.83733 2.80005,-0.79953 3.5527,0.15731 0.73878,0.9392 0.77416,1.53417 0.14468,2.43289 -0.41602,0.59394 -2.53613,2.13458 -2.93745,2.13458 -0.0829,0 -0.61523,-0.92224 -1.18287,-2.04942 z"
       id="path523"
       transform="matrix(0.75000002,0,0,-0.75000002,0,595.2754)" />
    <path
       style="fill:#ffffff;stroke-width:0.297262"
       d="m 578.59049,415.33999 c -2.59505,-1.74306 -0.51879,-4.64876 2.70205,-3.78148 1.5467,0.41648 2.38176,1.24304 2.38176,2.35751 0,1.95783 -3.02679,2.80563 -5.08381,1.42397 z"
       id="path525"
       transform="matrix(0.75000002,0,0,-0.75000002,0,595.2754)" />
    <path
       style="fill:#ffffff;stroke-width:0.297262"
       d="m 583.11317,400.86812 c -2.12515,-0.33486 -3.15464,-1.11422 -3.15464,-2.38816 0,-0.72448 0.21613,-1.13786 0.83806,-1.60286 0.73473,-0.54934 1.32121,-0.63815 4.7562,-0.72021 4.38449,-0.10474 5.88875,0.21535 6.80275,1.44756 0.78906,1.06378 0.31425,2.23552 -1.15454,2.84922 -1.30012,0.54323 -5.8054,0.77409 -8.08783,0.41445 z"
       id="path527"
       transform="matrix(0.75000002,0,0,-0.75000002,0,595.2754)" />
    <path
       style="fill:#ffffff;stroke-width:0.297262"
       d="m 586.72124,383.92822 c -1.0386,-0.98107 -0.79064,-2.92554 0.43764,-3.43191 2.01947,-0.83254 4.26392,-0.62893 4.83527,0.43865 0.95957,1.79297 -0.30789,3.32605 -2.89888,3.50637 -1.43012,0.0995 -1.81308,0.0168 -2.37403,-0.51311 z"
       id="path529"
       transform="matrix(0.75000002,0,0,-0.75000002,0,595.2754)" />
  </g>
</svg>
