<?xml version="1.0" encoding="UTF-8" standalone="no"?>
<!-- Created with Inkscape (http://www.inkscape.org/) -->

<svg
   version="1.1"
   id="svg7793"
   width="559.37335"
   height="793.70667"
   viewBox="0 0 559.37335 793.70667"
   sodipodi:docname="부산대학교.svg"
   inkscape:version="1.2.1 (9c6d41e410, 2022-07-14)"
   xmlns:inkscape="http://www.inkscape.org/namespaces/inkscape"
   xmlns:sodipodi="http://sodipodi.sourceforge.net/DTD/sodipodi-0.dtd"
   xmlns="http://www.w3.org/2000/svg"
   xmlns:svg="http://www.w3.org/2000/svg">
  <defs
     id="defs7797">
    <clipPath
       clipPathUnits="userSpaceOnUse"
       id="clipPath7809">
      <path
         d="M 0,595.28 H 419.53 V 0 H 0 Z"
         id="path7807" />
    </clipPath>
  </defs>
  <sodipodi:namedview
     id="namedview7795"
     pagecolor="#ffffff"
     bordercolor="#000000"
     borderopacity="0.25"
     inkscape:showpageshadow="2"
     inkscape:pageopacity="0.0"
     inkscape:pagecheckerboard="true"
     inkscape:deskcolor="#d1d1d1"
     showgrid="false"
     inkscape:zoom="9.5148502"
     inkscape:cx="164.68993"
     inkscape:cy="386.44854"
     inkscape:window-width="2560"
     inkscape:window-height="1494"
     inkscape:window-x="-11"
     inkscape:window-y="-11"
     inkscape:window-maximized="1"
     inkscape:current-layer="g7801">
    <inkscape:page
       x="0"
       y="0"
       id="page7799"
       width="559.37335"
       height="793.70667" />
  </sodipodi:namedview>
  <g
     id="g7801"
     inkscape:groupmode="layer"
     inkscape:label="Page 1"
     transform="matrix(1.3333333,0,0,-1.3333333,0,793.70667)">
    <g
       id="g7803">
      <g
         id="g7805"
         clip-path="url(#clipPath7809)">
        <g
           id="g7811"
           transform="translate(103.8008,311.8853)">
          <path
             d="m 0,0 c -0.154,-0.767 -0.644,-1.276 -1.308,-1.143 -0.684,0.135 -0.99,0.849 -0.852,1.513 0.025,0.15 0.073,0.29 0.166,0.415 -0.072,-0.512 0.132,-1.122 0.702,-1.234 0.521,-0.104 0.801,0.221 0.898,0.69 0.027,0.141 0.044,0.281 0.047,0.418 l -2.676,0.53 C -3.355,1.257 -3.59,1.31 -3.832,1.031 l -0.02,0.005 0.236,1.17 0.019,-0.005 c 0.045,-0.32 0.491,-0.372 0.76,-0.424 L -0.6,1.334 C -0.335,1.281 0.094,1.162 0.272,1.43 L 0.289,1.428 Z"
             style="fill:#004ea2;fill-opacity:1;fill-rule:nonzero;stroke:none"
             id="path7813" />
        </g>
        <g
           id="g7815"
           transform="translate(99.8301,307.8525)">
          <path
             d="m 0,0 c -0.342,0.272 -0.47,0.77 -0.458,1.19 0.016,0.397 0.157,0.813 0.461,1.073 0.359,0.307 0.768,0.281 1.201,0.265 L 2.817,2.478 C 3.09,2.468 3.532,2.412 3.657,2.714 H 3.674 L 3.635,1.575 H 3.621 C 3.513,1.877 3.073,1.859 2.801,1.864 L 1.185,1.915 C 0.38,1.945 -0.004,1.62 -0.025,1.004 -0.036,0.667 0.09,0.319 0.365,0.114 0.546,-0.024 0.696,-0.022 0.914,-0.029 L 2.735,-0.092 C 3.003,-0.099 3.446,-0.149 3.573,0.147 L 3.591,0.146 3.55,-0.99 3.533,-0.994 c -0.104,0.31 -0.547,0.288 -0.825,0.295 l -2.282,0.077 c -0.272,0.007 -0.711,0.059 -0.835,-0.244 h -0.019 l 0.03,0.88 z"
             style="fill:#004ea2;fill-opacity:1;fill-rule:nonzero;stroke:none"
             id="path7817" />
        </g>
        <g
           id="g7819"
           transform="translate(103.0244,304.1924)">
          <path
             d="M 0,0 C 0.206,0.261 0.298,0.65 0.254,0.983 0.21,1.321 0.022,1.733 -0.393,1.68 c -0.822,-0.104 -0.54,-2.15 -1.65,-2.29 -0.645,-0.086 -1.332,0.505 -1.452,1.43 -0.049,0.365 -0.042,0.734 0.039,1.088 l 0.729,0.273 C -2.988,1.79 -3.115,1.276 -3.053,0.811 -3.011,0.475 -2.739,-0.011 -2.32,0.039 -1.383,0.163 -1.82,2.188 -0.547,2.35 0.208,2.442 0.599,1.718 0.692,0.99 0.732,0.694 0.729,0.384 0.676,0.087 Z"
             style="fill:#004ea2;fill-opacity:1;fill-rule:nonzero;stroke:none"
             id="path7821" />
        </g>
        <g
           id="g7823"
           transform="translate(102.0107,300.9517)">
          <path
             d="m 0,0 -0.733,-0.54 c -0.363,-0.271 -0.413,-0.333 -0.626,-0.087 l -0.016,-0.006 0.342,-1.182 0.015,0.005 c 0.078,0.376 0.374,0.573 0.666,0.797 l 2.64,2.046 -0.26,0.91 -0.02,-0.005 C 1.999,1.638 1.726,1.675 1.493,1.698 L -1.211,1.976 C -1.579,2.01 -1.934,2.017 -2.198,2.305 l -0.016,-0.006 0.301,-1.062 0.019,0.006 c 0.027,0.307 0.206,0.315 0.569,0.282 L -0.421,1.459 Z M 0.38,0.293 0.054,1.432 1.685,1.272 Z"
             style="fill:#004ea2;fill-opacity:1;fill-rule:nonzero;stroke:none"
             id="path7825" />
        </g>
        <g
           id="g7827"
           transform="translate(102.1016,298.585)">
          <path
             d="m 0,0 c -0.306,-0.147 -0.526,-0.247 -0.553,-0.615 l -0.016,-0.007 -0.469,0.954 0.017,0.007 C -0.714,0.135 -0.496,0.242 -0.193,0.39 L 1.978,1.435 C 2.285,1.585 2.502,1.69 2.527,2.05 L 2.544,2.06 2.931,1.271 2.923,1.269 C 2.869,1.217 2.851,1.182 2.827,1.122 L 2.756,0.993 1.215,-2.193 l 2.06,0.996 c 0.309,0.148 0.528,0.247 0.548,0.612 l 0.016,0.007 0.467,-0.951 -0.014,-0.006 c -0.303,0.201 -0.519,0.097 -0.825,-0.05 l -3.05,-1.478 c -0.056,0.448 0.041,0.7 0.232,1.088 l 1.456,2.994 z"
             style="fill:#004ea2;fill-opacity:1;fill-rule:nonzero;stroke:none"
             id="path7829" />
        </g>
        <g
           id="g7831"
           transform="translate(105.5083,292.7373)">
          <path
             d="m 0,0 c -0.252,-0.223 -0.439,-0.379 -0.363,-0.74 l -0.012,-0.012 -0.717,0.787 0.012,0.014 c 0.354,-0.112 0.535,0.047 0.786,0.271 L 1.502,1.924 C 1.753,2.146 1.932,2.309 1.856,2.66 L 1.869,2.672 2.463,2.02 2.459,2.018 C 2.417,1.955 2.414,1.914 2.405,1.85 L 2.372,1.707 1.778,-1.777 3.48,-0.256 c 0.253,0.227 0.438,0.381 0.356,0.738 L 3.852,0.494 4.564,-0.291 4.55,-0.303 C 4.204,-0.193 4.025,-0.348 3.773,-0.576 L 1.25,-2.832 c -0.181,0.416 -0.156,0.686 -0.078,1.113 l 0.565,3.272 z"
             style="fill:#004ea2;fill-opacity:1;fill-rule:nonzero;stroke:none"
             id="path7833" />
        </g>
        <g
           id="g7835"
           transform="translate(110.3613,288.9521)">
          <path
             d="M 0,0 -0.27,-0.869 C -0.4,-1.297 -0.403,-1.381 -0.718,-1.303 l -0.014,-0.015 0.981,-0.756 0.014,0.013 c -0.167,0.348 -0.045,0.68 0.057,1.032 L 1.235,2.168 0.48,2.752 0.469,2.734 C 0.64,2.484 0.395,2.359 0.195,2.238 L -2.152,0.881 C -2.471,0.693 -2.759,0.492 -3.147,0.566 l -0.007,-0.015 0.878,-0.676 0.007,0.016 c -0.16,0.259 -0.019,0.375 0.29,0.558 l 0.771,0.479 z m 0.133,0.453 -0.94,0.731 1.41,0.826 z"
             style="fill:#004ea2;fill-opacity:1;fill-rule:nonzero;stroke:none"
             id="path7837" />
        </g>
        <g
           id="g7839"
           transform="translate(112.4087,286.7549)">
          <path
             d="m 0,0 c -0.179,-0.297 -0.3,-0.498 -0.118,-0.816 l -0.006,-0.014 -1.039,0.592 0.01,0.017 c 0.317,-0.052 0.51,0.346 0.647,0.58 L 0.849,2.672 0.388,2.938 C 0.162,3.064 -0.105,3.145 -0.355,3.09 L -0.373,3.1 0.172,3.609 0.188,3.602 C 0.235,3.537 0.303,3.498 0.364,3.451 L 0.499,3.375 2.449,2.25 C 2.539,2.201 2.623,2.156 2.712,2.15 L 2.727,2.143 2.197,1.619 2.183,1.629 C 2.221,1.85 2.026,1.998 1.856,2.098 L 1.384,2.363 Z"
             style="fill:#004ea2;fill-opacity:1;fill-rule:nonzero;stroke:none"
             id="path7841" />
        </g>
        <g
           id="g7843"
           transform="translate(115.2646,287.9189)">
          <path
             d="M 0,0 C 0.111,0.252 0.328,0.637 0.092,0.863 L 0.098,0.881 1.151,0.422 1.146,0.406 C 0.82,0.422 0.675,0 0.567,-0.246 l -0.917,-2.07 c -0.111,-0.25 -0.321,-0.633 -0.093,-0.86 l -0.007,-0.013 -1.052,0.455 0.009,0.015 c 0.321,-0.021 0.465,0.403 0.573,0.649 z"
             style="fill:#004ea2;fill-opacity:1;fill-rule:nonzero;stroke:none"
             id="path7845" />
        </g>
        <g
           id="g7847"
           transform="translate(118.7788,287.6514)">
          <path
             d="M 0,0 C -1.216,0.367 -2.437,-0.283 -2.746,-1.383 -3.084,-2.566 -2.338,-3.658 -1.185,-3.979 -0.026,-4.301 1.2,-3.715 1.53,-2.535 1.825,-1.496 1.225,-0.332 0,0 M -0.161,-0.406 C 0.76,-0.658 1.074,-1.625 0.836,-2.467 0.594,-3.328 -0.153,-3.814 -1.04,-3.566 c -0.917,0.25 -1.257,1.244 -1.032,2.05 0.25,0.875 1.007,1.362 1.911,1.11"
             style="fill:#004ea2;fill-opacity:1;fill-rule:nonzero;stroke:none"
             id="path7849" />
        </g>
        <g
           id="g7851"
           transform="translate(121.2954,283.8213)">
          <path
             d="m 0,0 c -0.025,-0.338 -0.05,-0.576 0.258,-0.783 l -0.003,-0.018 -1.068,0.08 v 0.016 c 0.334,0.162 0.356,0.402 0.38,0.736 l 0.177,2.385 c 0.025,0.34 0.045,0.576 -0.257,0.779 V 3.213 L 0.37,3.146 0.369,3.143 C 0.388,3.068 0.411,3.039 0.448,2.986 L 0.523,2.859 2.525,-0.068 2.698,2.205 c 0.025,0.33 0.048,0.572 -0.26,0.774 L 2.439,2.994 3.501,2.918 3.498,2.9 C 3.175,2.744 3.156,2.504 3.13,2.168 L 2.879,-1.184 C 2.46,-1.01 2.289,-0.801 2.048,-0.441 L 0.176,2.314 Z"
             style="fill:#004ea2;fill-opacity:1;fill-rule:nonzero;stroke:none"
             id="path7853" />
        </g>
        <g
           id="g7855"
           transform="translate(127.5063,284.4912)">
          <path
             d="M 0,0 0.41,-0.809 C 0.616,-1.211 0.671,-1.271 0.388,-1.43 l 0.001,-0.019 1.237,0.125 -0.005,0.017 c -0.36,0.139 -0.505,0.459 -0.675,0.786 L -0.623,2.416 -1.571,2.318 V 2.301 c 0.3,-0.059 0.213,-0.321 0.147,-0.547 l -0.749,-2.59 c -0.098,-0.352 -0.164,-0.697 -0.496,-0.906 l 10e-4,-0.016 1.108,0.112 -10e-4,0.017 c -0.301,0.078 -0.276,0.256 -0.184,0.602 l 0.224,0.875 z m -0.22,0.426 -1.189,-0.119 0.441,1.56 z"
             style="fill:#004ea2;fill-opacity:1;fill-rule:nonzero;stroke:none"
             id="path7857" />
        </g>
        <g
           id="g7859"
           transform="translate(131.126,284.1729)">
          <path
             d="m 0,0 c 0.408,0.084 0.712,0.309 0.94,0.629 l 0.017,0.004 -0.094,-0.85 -2.404,-0.638 -0.006,0.019 c 0.268,0.184 0.12,0.604 0.048,0.863 l -0.584,2.186 c -0.073,0.266 -0.154,0.701 -0.482,0.728 l -0.005,0.02 1.118,0.295 0.004,-0.018 C -1.716,3.049 -1.56,2.629 -1.491,2.371 l 0.683,-2.525 z"
             style="fill:#004ea2;fill-opacity:1;fill-rule:nonzero;stroke:none"
             id="path7861" />
        </g>
        <g
           id="g7863"
           transform="translate(137.0889,286.7607)">
          <path
             d="m 0,0 c -0.068,-0.43 -0.435,-0.791 -0.806,-0.994 -0.35,-0.19 -0.782,-0.279 -1.163,-0.149 -0.448,0.149 -0.634,0.508 -0.841,0.889 l -0.775,1.408 c -0.13,0.235 -0.303,0.639 -0.632,0.592 l -0.006,0.016 1.01,0.547 0.007,-0.016 C -3.416,2.049 -3.175,1.68 -3.043,1.445 L -2.27,0.037 c 0.388,-0.697 0.864,-0.865 1.41,-0.566 0.299,0.16 0.533,0.441 0.574,0.785 0.028,0.223 -0.047,0.353 -0.153,0.539 l -0.873,1.588 c -0.129,0.236 -0.313,0.638 -0.63,0.596 L -1.951,2.99 -0.943,3.537 -0.929,3.523 C -1.145,3.279 -0.901,2.91 -0.767,2.67 L 0.326,0.684 C 0.456,0.447 0.635,0.047 0.964,0.092 L 0.973,0.076 0.19,-0.346 Z"
             style="fill:#004ea2;fill-opacity:1;fill-rule:nonzero;stroke:none"
             id="path7865" />
        </g>
        <g
           id="g7867"
           transform="translate(139.082,288.5693)">
          <path
             d="m 0,0 c 0.217,-0.258 0.37,-0.447 0.733,-0.387 l 0.015,-0.011 -0.827,-0.684 -0.008,0.016 c 0.125,0.347 -0.03,0.531 -0.248,0.789 l -1.549,1.84 C -2.1,1.814 -2.254,2 -2.613,1.939 l -0.01,0.014 0.679,0.563 0.005,-0.004 C -1.878,2.469 -1.841,2.463 -1.774,2.451 L -1.632,2.412 1.86,1.695 0.388,3.438 C 0.171,3.699 0.021,3.885 -0.342,3.82 L -0.351,3.834 0.467,4.51 0.476,4.494 C 0.352,4.158 0.505,3.973 0.724,3.719 L 2.899,1.135 C 2.476,0.971 2.205,1.004 1.78,1.1 l -3.281,0.681 z"
             style="fill:#004ea2;fill-opacity:1;fill-rule:nonzero;stroke:none"
             id="path7869" />
        </g>
        <g
           id="g7871"
           transform="translate(140.6738,293.1865)">
          <path
             d="M 0,0 C -0.207,0.182 -0.512,0.506 -0.802,0.352 L -0.815,0.363 -0.05,1.215 -0.038,1.203 C -0.154,0.902 0.207,0.635 0.409,0.457 l 1.705,-1.502 c 0.205,-0.184 0.508,-0.502 0.797,-0.35 L 2.925,-1.41 2.16,-2.26 2.145,-2.246 c 0.119,0.293 -0.24,0.562 -0.441,0.74 z"
             style="fill:#004ea2;fill-opacity:1;fill-rule:nonzero;stroke:none"
             id="path7873" />
        </g>
        <g
           id="g7875"
           transform="translate(143.2114,296.1475)">
          <path
             d="m 0,0 c -0.256,0.379 -0.548,0.826 -0.886,0.609 l -0.016,0.006 0.516,0.733 2.505,-3.659 C 1.65,-2.494 1.528,-2.582 1.036,-2.453 l -2.553,0.656 c -0.318,0.084 -0.661,0.207 -0.982,0.109 l -0.012,0.008 0.503,0.721 0.055,-0.045 c 0.11,-0.078 0.42,-0.152 0.557,-0.184 l 2.71,-0.708 z"
             style="fill:#004ea2;fill-opacity:1;fill-rule:nonzero;stroke:none"
             id="path7877" />
        </g>
        <g
           id="g7879"
           transform="translate(146.3628,296.9536)">
          <path
             d="M 0,0 0.403,0.653 C 0.609,0.995 0.68,1.421 0.574,1.809 L 0.577,1.823 1.175,1.238 0.065,-1.01 0.05,-1.001 c 0.039,0.32 -0.384,0.486 -0.627,0.604 l -2.049,0.99 c -0.25,0.12 -0.631,0.345 -0.871,0.117 l -0.014,0.011 0.846,1.724 c 0.044,0.089 0.102,0.176 0.1,0.265 L -2.561,2.728 -1.921,2.419 -1.93,2.404 C -2.208,2.33 -2.337,2.12 -2.459,1.874 -2.552,1.686 -2.641,1.494 -2.692,1.306 l 1.009,-0.492 0.316,0.643 c 0.042,0.086 0.085,0.172 0.085,0.252 L -1.276,1.727 -0.697,1.444 -0.704,1.43 C -0.904,1.419 -1.009,1.189 -1.095,1.025 l -0.194,-0.4 z"
             style="fill:#004ea2;fill-opacity:1;fill-rule:nonzero;stroke:none"
             id="path7881" />
        </g>
        <g
           id="g7883"
           transform="translate(144.4683,301.5376)">
          <path
             d="M 0,0 C 0.252,0.764 0.792,1.047 1.316,0.879 1.82,0.716 2.072,0.149 2.031,-0.353 L 3.339,0.13 C 3.717,0.273 4.134,0.535 4.452,0.793 L 4.276,0.272 C 4.178,-0.033 4.041,-0.197 3.773,-0.298 L 2.673,-0.714 1.691,-0.977 C 1.771,-0.496 1.734,0.104 1.192,0.278 0.778,0.41 0.419,0.133 0.312,-0.254 0.273,-0.386 0.249,-0.518 0.231,-0.654 L 2.807,-1.486 C 3.071,-1.571 3.48,-1.743 3.681,-1.485 L 3.698,-1.492 3.339,-2.583 3.323,-2.578 c -0.01,0.324 -0.448,0.424 -0.706,0.511 l -2.168,0.695 c -0.265,0.088 -0.671,0.264 -0.881,0.009 l -0.015,0.003 z"
             style="fill:#004ea2;fill-opacity:1;fill-rule:nonzero;stroke:none"
             id="path7885" />
        </g>
        <g
           id="g7887"
           transform="translate(146.0859,305.4121)">
          <path
             d="M 0,0 C -0.275,-0.193 -0.472,-0.538 -0.528,-0.871 -0.583,-1.208 -0.522,-1.655 -0.11,-1.718 0.706,-1.856 1.033,0.184 2.136,0.005 2.777,-0.098 3.261,-0.86 3.111,-1.783 3.053,-2.145 2.937,-2.498 2.757,-2.814 L 1.982,-2.862 c 0.359,0.298 0.634,0.75 0.71,1.212 0.054,0.338 -0.063,0.88 -0.481,0.949 -0.929,0.151 -1.103,-1.912 -2.367,-1.706 -0.754,0.121 -0.913,0.931 -0.795,1.655 0.05,0.294 0.141,0.591 0.278,0.859 z"
             style="fill:#004ea2;fill-opacity:1;fill-rule:nonzero;stroke:none"
             id="path7889" />
        </g>
        <g
           id="g7891"
           transform="translate(146.2593,306.4399)">
          <path
             d="m 0,0 c -0.278,0.015 -0.719,0.081 -0.851,-0.214 h -0.014 l 0.064,1.132 h 0.017 C -0.687,0.613 -0.236,0.622 0.034,0.608 L 2.31,0.479 C 2.584,0.464 3.022,0.402 3.156,0.692 H 3.172 L 3.107,-0.441 3.089,-0.439 c -0.09,0.305 -0.538,0.293 -0.811,0.311 z"
             style="fill:#004ea2;fill-opacity:1;fill-rule:nonzero;stroke:none"
             id="path7893" />
        </g>
        <g
           id="g7895"
           transform="translate(148.5796,309.5381)">
          <path
             d="m 0,0 c 0.348,0.02 0.584,0.025 0.752,0.356 l 0.021,0.001 0.063,-1.19 H 0.815 c -0.13,0.294 -0.57,0.236 -0.842,0.218 l -2.694,-0.141 0.029,-0.531 c 0.013,-0.253 0.096,-0.521 0.279,-0.696 L -2.411,-2 l -0.73,0.171 -0.003,0.018 c 0.029,0.07 0.027,0.15 0.03,0.227 l -0.007,0.153 -0.123,2.235 C -3.247,0.906 -3.257,0.999 -3.298,1.077 L -3.3,1.096 -2.569,0.939 V 0.922 C -2.776,0.834 -2.793,0.592 -2.784,0.395 l 0.028,-0.539 z"
             style="fill:#004ea2;fill-opacity:1;fill-rule:nonzero;stroke:none"
             id="path7897" />
        </g>
        <g
           id="g7899"
           transform="translate(148.0435,313.1323)">
          <path
             d="M 0,0 C 0.355,0.071 0.531,0.105 0.688,0.448 L 0.709,0.457 0.946,-0.691 0.927,-0.695 c -0.208,0.257 -0.585,0.138 -0.864,0.083 l -0.877,-0.179 -1.383,-1.296 c -0.228,-0.212 -0.4,-0.368 -0.496,-0.681 l -0.109,0.534 c -0.039,0.189 -0.033,0.368 0.076,0.473 l 1.351,1.257 -1.251,0.505 c -0.169,0.07 -0.481,0.147 -0.576,-0.215 l -0.016,-0.003 -0.213,1.028 2.493,-1.001 z"
             style="fill:#004ea2;fill-opacity:1;fill-rule:nonzero;stroke:none"
             id="path7901" />
        </g>
        <g
           id="g7903"
           transform="translate(103.8276,317.3926)">
          <path
             d="m 0,0 c 0,-0.285 -0.236,-0.519 -0.523,-0.519 -0.293,0 -0.526,0.234 -0.526,0.519 0,0.287 0.233,0.52 0.526,0.52 C -0.236,0.52 0,0.287 0,0"
             style="fill:#004ea2;fill-opacity:1;fill-rule:nonzero;stroke:none"
             id="path7905" />
        </g>
        <g
           id="g7907"
           transform="translate(146.1338,317.3926)">
          <path
             d="m 0,0 c 0,-0.285 -0.237,-0.519 -0.523,-0.519 -0.292,0 -0.527,0.234 -0.527,0.519 0,0.287 0.235,0.52 0.527,0.52 C -0.237,0.52 0,0.287 0,0"
             style="fill:#004ea2;fill-opacity:1;fill-rule:nonzero;stroke:none"
             id="path7909" />
        </g>
        <g
           id="g7911"
           transform="translate(125.9712,332.2104)">
          <path
             d="M 0,0 H -0.513 V 1.231 H -1.128 V -1.96 c -0.209,-0.225 -0.563,-0.211 -0.563,-0.211 h -1.728 c -0.026,0 -0.045,0.022 -0.045,0.047 v 2.492 h 1.85 V 0.862 H -4.08 l 0.003,-2.986 c 0,-0.296 0.242,-0.532 0.54,-0.532 h 1.829 c 0,0 0.303,-0.028 0.58,0.129 v -1.718 h 0.615 v 3.754 H 0 V -4.245 H 0.612 V 1.231 L 0,1.231 Z"
             style="fill:#004ea2;fill-opacity:1;fill-rule:nonzero;stroke:none"
             id="path7913" />
        </g>
        <g
           id="g7915"
           transform="translate(106.0552,320.5723)">
          <path
             d="M 0,0 1.561,1.715 2.937,0.485 3.348,0.938 1.973,2.166 3.531,3.875 3.162,4.206 -0.37,0.328 Z"
             style="fill:#004ea2;fill-opacity:1;fill-rule:nonzero;stroke:none"
             id="path7917" />
        </g>
        <g
           id="g7919"
           transform="translate(107.0581,325.0532)">
          <path
             d="M 0,0 0.55,-0.491 C 0.568,-0.508 0.571,-0.538 0.552,-0.555 L -1.254,-2.54 c -0.017,-0.018 -0.045,-0.02 -0.064,-0.003 l -0.551,0.492 z m -1.73,-2.996 c 0.22,-0.197 0.564,-0.181 0.764,0.04 l 1.967,2.157 c 0.2,0.221 0.182,0.561 -0.04,0.76 l -1.541,1.381 -0.414,-0.453 0.626,-0.557 -1.868,-2.053 -0.627,0.559 -0.41,-0.451 z"
             style="fill:#004ea2;fill-opacity:1;fill-rule:nonzero;stroke:none"
             id="path7921" />
        </g>
        <g
           id="g7923"
           transform="translate(115.7798,331.9502)">
          <path
             d="M 0,0 -0.561,-0.248 1.072,-3.876 1.634,-3.63 0.709,-1.574 1.452,-1.245 1.249,-0.796 0.506,-1.125 Z"
             style="fill:#004ea2;fill-opacity:1;fill-rule:nonzero;stroke:none"
             id="path7925" />
        </g>
        <g
           id="g7927"
           transform="translate(114.8848,326.2261)">
          <path
             d="m 0,0 -0.606,1.347 -0.561,-0.249 0.606,-1.346 c 0.122,-0.271 0.442,-0.393 0.715,-0.271 L 3.118,0.792 2.915,1.24 0.061,-0.022 C 0.038,-0.034 0.011,-0.022 0,0"
             style="fill:#004ea2;fill-opacity:1;fill-rule:nonzero;stroke:none"
             id="path7929" />
        </g>
        <g
           id="g7931"
           transform="translate(113.5381,330.2412)">
          <path
             d="m 0,0 -0.218,0.485 -0.561,-0.248 0.218,-0.486 c 0.647,-1.434 -0.606,-2.344 -0.692,-2.405 l 0.547,-0.208 c 0.287,0.252 0.874,0.856 0.925,1.631 0.616,-0.479 1.458,-0.449 1.839,-0.403 l 0.21,0.54 C 2.141,-1.122 0.642,-1.422 0,0"
             style="fill:#004ea2;fill-opacity:1;fill-rule:nonzero;stroke:none"
             id="path7933" />
        </g>
        <g
           id="g7935"
           transform="translate(142.5225,323.1211)">
          <path
             d="m 0,0 -0.415,0.437 -1.567,-1.454 -0.507,0.537 1.568,1.454 -0.415,0.44 -1.566,-1.455 -0.884,0.936 -0.357,-0.333 3.51,-3.717 0.355,0.332 -1.29,1.368 z"
             style="fill:#004ea2;fill-opacity:1;fill-rule:nonzero;stroke:none"
             id="path7937" />
        </g>
        <g
           id="g7939"
           transform="translate(142.9756,322.5283)">
          <path
             d="m 0,0 c -0.637,-0.59 -1.151,-0.776 -1.151,-0.776 l 0.418,-0.444 c 0,0 0.516,0.188 1.149,0.777 L 2.006,1.031 2.004,1.034 H 2.006 L -0.769,3.973 -1.125,3.642 1.231,1.143 Z"
             style="fill:#004ea2;fill-opacity:1;fill-rule:nonzero;stroke:none"
             id="path7941" />
        </g>
        <g
           id="g7943"
           transform="translate(136.9204,328.5615)">
          <path
             d="m 0,0 0.199,0.453 -0.751,0.321 0.494,1.129 -0.564,0.243 -1.296,-2.96 0.566,-0.243 0.603,1.379 z"
             style="fill:#004ea2;fill-opacity:1;fill-rule:nonzero;stroke:none"
             id="path7945" />
        </g>
        <g
           id="g7947"
           transform="translate(135.4683,327.2832)">
          <path
             d="m 0,0 -3.568,1.536 -0.197,-0.454 3.004,-1.291 -0.606,-1.39 0.564,-0.243 0.803,1.84 -0.001,0.001 z"
             style="fill:#004ea2;fill-opacity:1;fill-rule:nonzero;stroke:none"
             id="path7949" />
        </g>
        <g
           id="g7951"
           transform="translate(133.1411,329.3267)">
          <path
             d="m 0,0 c -0.396,0.17 -0.582,0.622 -0.412,1.007 0.167,0.386 0.627,0.56 1.024,0.39 C 1.006,1.227 1.193,0.776 1.023,0.39 0.854,0.004 0.396,-0.171 0,0 M 2.52,1.117 1.093,1.733 1.339,2.294 0.773,2.538 0.526,1.976 l -1.424,0.613 -0.2,-0.456 0.695,-0.3 C -0.658,1.712 -0.865,1.513 -0.983,1.248 -1.261,0.613 -0.91,-0.149 -0.2,-0.455 0.51,-0.759 1.311,-0.493 1.59,0.14 1.706,0.406 1.71,0.695 1.627,0.962 L 2.323,0.663 Z"
             style="fill:#004ea2;fill-opacity:1;fill-rule:nonzero;stroke:none"
             id="path7953" />
        </g>
        <g
           id="g7955"
           transform="translate(124.4346,334.4575)">
          <path
             d="m 0,0 c -14.741,0 -26.689,-11.948 -26.689,-26.688 0,-14.739 11.948,-26.688 26.689,-26.688 14.738,0 26.687,11.949 26.687,26.688 C 26.687,-11.948 14.738,0 0,0 M 27.057,-26.688 C 27.057,-41.63 14.942,-53.746 0,-53.746 c -14.945,0 -27.058,12.116 -27.058,27.058 0,14.943 12.113,27.058 27.058,27.058 14.942,0 27.057,-12.115 27.057,-27.058"
             style="fill:#004ea2;fill-opacity:1;fill-rule:nonzero;stroke:none"
             id="path7957" />
        </g>
        <g
           id="g7959"
           transform="translate(124.4346,327.0088)">
          <path
             d="m 0,0 c -10.627,0 -19.242,-8.614 -19.242,-19.24 0,-10.626 8.615,-19.239 19.242,-19.239 10.623,0 19.237,8.613 19.237,19.239 C 19.237,-8.614 10.623,0 0,0 m 19.607,-19.24 c 0,-10.829 -8.778,-19.608 -19.607,-19.608 -10.831,0 -19.61,8.779 -19.61,19.608 0,10.83 8.779,19.609 19.61,19.609 10.829,0 19.607,-8.779 19.607,-19.609"
             style="fill:#004ea2;fill-opacity:1;fill-rule:nonzero;stroke:none"
             id="path7961" />
        </g>
        <g
           id="g7963"
           transform="translate(127.6987,311.48)">
          <path
             d="m 0,0 c -2.5,-0.078 -3.288,-1.544 -3.288,-1.544 -0.794,1.537 -3.201,1.539 -3.201,1.539 h -10.309 v -15.633 h 10.095 c 1.376,0 1.864,-0.648 2.027,-1.111 h 2.788 c 0.484,1.17 1.889,1.102 1.889,1.102 h 10.265 l 0,15.647 z m 8.954,-14.349 -9.101,0.003 c -2.814,-0.02 -3.165,-1.877 -3.165,-1.877 -0.577,2.103 -3.286,1.877 -3.286,1.877 h -8.897 v 13.049 h 8.577 c 2.856,-0.053 3.614,-2.311 3.614,-2.311 0.934,2.288 3.884,2.309 3.884,2.309 l 8.374,0.002 z"
             style="fill:#009a54;fill-opacity:1;fill-rule:nonzero;stroke:none"
             id="path7965" />
        </g>
        <path
           d="m 129.744,305.497 h 2.342 v -1.324 h -2.342 z m -4.136,-3.813 h -2.342 v 1.185 h 2.342 z m -6.473,0 h -2.35 v 1.185 h 2.35 z m -0.001,2.486 h -3.761 v -3.786 -0.002 h 5.176 v 0.012 h -0.005 v 2.474 h 1.311 v -2.486 h 5.164 v 2.486 h 1.308 v -2.481 h 5.169 v 1.308 h -3.752 v 1.175 h 3.754 v 3.929 h -5.171 v -2.626 h -1.308 v 2.626 h -1.416 v -2.624 h -2.34 v 2.624 h -1.411 v -2.626 h -1.304 v 2.626 h -5.179 v -1.304 h 3.765 z"
           style="fill:#009a54;fill-opacity:1;fill-rule:nonzero;stroke:none"
           id="path7967" />
        <g
           id="g7969"
           transform="translate(123.6528,318.7173)">
          <path
             d="M 0,0 1.251,0.414 H 0 Z"
             style="fill:#004ea2;fill-opacity:1;fill-rule:nonzero;stroke:none"
             id="path7971" />
        </g>
        <g
           id="g7973"
           transform="translate(136.6523,314.1348)">
          <path
             d="m 0,0 h -8.3 c -2.213,0 -3.245,-0.149 -3.95,-0.914 -0.757,0.734 -1.348,0.911 -3.562,0.911 h -8.634 v 4.459 h 2.714 c 0.269,0.006 0.492,-0.057 0.639,-0.134 0.108,-0.06 0.304,-0.194 0.447,-0.388 0.181,-0.251 1.789,-2.607 1.789,-2.607 h 4.639 c 0,0 0.432,0.893 0.696,1.515 0.272,0.629 0.178,1.071 -0.396,1.113 -0.484,0.038 -0.788,-0.078 -0.839,-0.276 l -0.205,0.703 c -0.125,0.357 -0.037,0.617 0.461,0.617 H -13 c 0,-0.015 0.031,0.486 0.857,0.486 h 2.477 L -10.363,4.842 V 1.327 h 4.807 c 0,0 1.53,2.356 1.71,2.607 0.139,0.194 0.336,0.328 0.447,0.388 0.144,0.077 0.37,0.142 0.637,0.147 L 0,4.467 Z m -15.7,2.789 c 0.46,0.482 0.939,0.42 0.939,0.216 0,-0.206 -0.238,-0.451 -0.238,-0.451 h -2.966 l -1.626,2.342 C -19.997,5.5 -20.516,5.76 -21.377,5.76 h -4.371 v -7.056 c 2.658,0.001 9.196,0.006 9.964,0 2.944,-0.028 3.52,-1.282 3.52,-1.282 0.617,0.976 1.805,1.277 3.638,1.279 H 1.309 L 1.313,5.76 H -3.123 C -3.976,5.76 -4.497,5.5 -4.902,4.896 H -4.904 L -6.564,2.554 H -9.027 V 4.64 l 1.686,1.647 H -9.08 l 0.439,0.384 h -3.526 c -0.709,0 -1.269,-0.288 -1.471,-0.691 h -1.241 c -1.142,0 -1.558,-0.644 -1.326,-1.489 z"
             style="fill:#004ea2;fill-opacity:1;fill-rule:nonzero;stroke:none"
             id="path7975" />
        </g>
        <g
           id="g7977"
           transform="translate(122.3525,298.9951)">
          <path
             d="M 0,0 C 0.18,0.062 0.337,0.19 0.429,0.345 H 0.437 V -0.77 c 0,-0.113 -0.011,-0.202 0.097,-0.272 V -1.049 H 0.118 v 0.007 c 0.123,0.059 0.113,0.152 0.113,0.272 v 0.765 l -0.231,0 z"
             style="fill:#009a54;fill-opacity:1;fill-rule:nonzero;stroke:none"
             id="path7979" />
        </g>
        <g
           id="g7981"
           transform="translate(123.375,298.0308)">
          <path
             d="m 0,0 c 0.323,0.065 0.613,0.356 0.613,0.687 0,0.199 -0.113,0.423 -0.344,0.423 -0.171,0 -0.292,-0.134 -0.292,-0.298 0,-0.183 0.121,-0.324 0.304,-0.324 0.074,0 0.149,0.021 0.212,0.063 L 0.358,0.385 C 0.307,0.367 0.25,0.358 0.194,0.358 c -0.234,0 -0.417,0.175 -0.417,0.407 0,0.293 0.237,0.485 0.518,0.485 0.314,0 0.519,-0.245 0.519,-0.543 C 0.814,0.482 0.692,0.26 0.515,0.121 0.333,-0.023 0.128,-0.094 -0.098,-0.124 Z"
             style="fill:#009a54;fill-opacity:1;fill-rule:nonzero;stroke:none"
             id="path7983" />
        </g>
        <g
           id="g7985"
           transform="translate(124.959,298.2158)">
          <path
             d="M 0,0 V -0.051 C 0,-0.153 0.012,-0.224 -0.097,-0.262 V -0.27 h 0.388 v 0.008 C 0.202,-0.22 0.199,-0.126 0.199,-0.041 V 0 H 0.358 L 0.454,0.239 C 0.385,0.18 0.292,0.157 0.199,0.157 V 1.033 H -0.077 L -0.697,0 Z m 0,0.157 c -0.174,0 -0.317,0.009 -0.425,0.014 L 0,0.888 Z"
             style="fill:#009a54;fill-opacity:1;fill-rule:nonzero;stroke:none"
             id="path7987" />
        </g>
        <g
           id="g7989"
           transform="translate(126.3701,299.1606)">
          <path
             d="m 0,0 c -0.133,-0.018 -0.293,-0.121 -0.391,-0.21 -0.136,-0.127 -0.216,-0.294 -0.216,-0.481 0,-0.204 0.116,-0.424 0.349,-0.424 0.177,0 0.279,0.134 0.279,0.302 0,0.195 -0.104,0.329 -0.308,0.329 -0.076,0 -0.152,-0.023 -0.22,-0.065 l 0.129,0.16 c 0.053,0.024 0.111,0.038 0.175,0.038 0.249,0 0.427,-0.169 0.427,-0.419 0,-0.28 -0.224,-0.476 -0.503,-0.476 -0.313,0 -0.53,0.25 -0.53,0.553 0,0.472 0.477,0.779 0.906,0.816 z"
             style="fill:#009a54;fill-opacity:1;fill-rule:nonzero;stroke:none"
             id="path7991" />
        </g>
        <g
           id="g7993"
           transform="translate(163.6724,295.7471)">
          <path
             d="m 0,0 c 1.475,0 2.599,-0.715 2.599,-1.986 0,-1.305 -1.212,-2.135 -2.494,-2.135 -0.285,0 -0.566,0.033 -0.829,0.162 0.974,0.053 2.033,0.656 2.033,1.746 0,0.996 -0.705,1.395 -1.612,1.395 -0.277,0 -0.533,-0.022 -0.794,-0.069 v -5.117 c 0,-0.635 -0.011,-1.086 0.589,-1.428 v -0.035 h -2.258 v 0.035 c 0.578,0.207 0.51,1.045 0.51,1.553 v 4.277 c 0,0.51 0.068,1.338 -0.496,1.565 l 0,0.037 z"
             style="fill:#004ea2;fill-opacity:1;fill-rule:nonzero;stroke:none"
             id="path7995" />
        </g>
        <g
           id="g7997"
           transform="translate(172.063,289.0303)">
          <path
             d="m 0,0 c -0.499,-0.656 -1.429,-0.928 -2.224,-0.928 -0.751,0 -1.542,0.235 -2.052,0.791 -0.602,0.657 -0.578,1.414 -0.578,2.233 v 3.031 c 0,0.51 0.08,1.34 -0.5,1.553 v 0.037 h 2.153 V 6.68 C -3.766,6.467 -3.699,5.637 -3.699,5.127 V 2.096 c 0,-1.504 0.635,-2.211 1.806,-2.211 0.634,0 1.278,0.261 1.653,0.795 C 0.011,1.023 0,1.305 0,1.715 v 3.412 c 0,0.51 0.069,1.34 -0.499,1.553 V 6.717 H 1.654 L 1.663,6.68 C 1.089,6.467 1.152,5.637 1.152,5.115 V 0.838 c 0,-0.508 -0.063,-1.336 0.511,-1.553 V -0.75 L 0,-0.75 Z"
             style="fill:#004ea2;fill-opacity:1;fill-rule:nonzero;stroke:none"
             id="path7999" />
        </g>
        <g
           id="g8001"
           transform="translate(179.415,294.3955)">
          <path
             d="m 0,0 c -0.44,0.453 -1.146,0.709 -1.779,0.709 -0.648,0 -1.468,-0.244 -1.468,-1.027 0,-1.555 3.902,-1.532 3.902,-3.629 0,-1.211 -1.269,-2.346 -3.038,-2.346 -0.688,0 -1.382,0.1 -2.03,0.336 l -0.328,1.42 c 0.668,-0.578 1.6,-0.943 2.482,-0.943 0.65,0 1.627,0.384 1.627,1.183 0,1.766 -3.904,1.451 -3.904,3.854 0,1.425 1.465,1.972 2.848,1.972 0.567,0 1.148,-0.076 1.688,-0.25 z"
             style="fill:#004ea2;fill-opacity:1;fill-rule:nonzero;stroke:none"
             id="path8003" />
        </g>
        <g
           id="g8005"
           transform="translate(185.2495,291.083)">
          <path
             d="m 0,0 0.61,-1.6 c 0.312,-0.789 0.4,-0.921 -0.155,-1.168 v -0.035 h 2.322 v 0.035 c -0.643,0.33 -0.849,0.965 -1.109,1.614 l -2.36,5.818 H -2.486 V 4.627 c 0.548,-0.168 0.332,-0.65 0.172,-1.055 l -1.895,-4.726 c -0.247,-0.649 -0.439,-1.284 -1.1,-1.614 v -0.035 h 2.092 v 0.035 c -0.551,0.207 -0.47,0.536 -0.226,1.168 L -2.857,0 Z m -0.33,0.842 h -2.232 l 1.121,2.857 z"
             style="fill:#004ea2;fill-opacity:1;fill-rule:nonzero;stroke:none"
             id="path8007" />
        </g>
        <g
           id="g8009"
           transform="translate(189.5991,289.7588)">
          <path
             d="m 0,0 c 0,-0.639 -0.016,-1.09 0.587,-1.443 v -0.036 h -2.006 v 0.036 c 0.602,0.353 0.602,0.804 0.602,1.443 v 4.527 c 0,0.633 0,1.086 -0.591,1.424 V 5.988 H 0.249 V 5.975 C 0.297,5.838 0.338,5.783 0.418,5.695 L 0.576,5.463 4.73,0.229 v 4.298 c 0,0.633 0.009,1.086 -0.593,1.424 V 5.988 H 6.131 V 5.951 C 5.544,5.613 5.544,5.16 5.544,4.527 V -1.84 C 4.739,-1.566 4.391,-1.197 3.889,-0.547 L 0,4.387 Z"
             style="fill:#004ea2;fill-opacity:1;fill-rule:nonzero;stroke:none"
             id="path8011" />
        </g>
        <g
           id="g8013"
           transform="translate(201.1558,289.7588)">
          <path
             d="m 0,0 c 0,-0.639 -0.014,-1.09 0.586,-1.443 v -0.036 h -2.007 v 0.036 c 0.603,0.353 0.603,0.804 0.603,1.443 v 4.527 c 0,0.633 0,1.086 -0.593,1.424 V 5.988 H 0.248 V 5.975 C 0.295,5.838 0.338,5.783 0.42,5.695 L 0.578,5.463 4.727,0.229 v 4.298 c 0,0.633 0.009,1.086 -0.587,1.424 V 5.988 H 6.131 V 5.951 C 5.545,5.613 5.545,5.16 5.545,4.527 V -1.84 c -0.809,0.274 -1.16,0.643 -1.658,1.293 L 0,4.387 Z"
             style="fill:#004ea2;fill-opacity:1;fill-rule:nonzero;stroke:none"
             id="path8015" />
        </g>
        <g
           id="g8017"
           transform="translate(212.5078,291.083)">
          <path
             d="M 0,0 0.609,-1.6 C 0.918,-2.389 1.006,-2.521 0.453,-2.768 v -0.035 h 2.324 v 0.035 c -0.646,0.33 -0.851,0.965 -1.111,1.614 L -0.695,4.664 H -2.482 V 4.627 c 0.539,-0.168 0.33,-0.65 0.169,-1.055 L -4.209,-1.154 C -4.461,-1.803 -4.65,-2.438 -5.311,-2.768 v -0.035 h 2.09 v 0.035 c -0.543,0.207 -0.465,0.536 -0.226,1.168 L -2.861,0 Z m -0.328,0.842 h -2.235 l 1.122,2.857 z"
             style="fill:#004ea2;fill-opacity:1;fill-rule:nonzero;stroke:none"
             id="path8019" />
        </g>
        <g
           id="g8021"
           transform="translate(217.8184,289.7588)">
          <path
             d="m 0,0 c 0,-0.65 -0.01,-1.09 0.588,-1.443 v -0.036 h -2.242 v 0.036 c 0.564,0.216 0.498,1.045 0.498,1.552 V 5.17 h -0.996 c -0.491,0 -1,-0.127 -1.354,-0.457 h -0.037 l 0.4,1.354 h 0.036 C -2.977,6.01 -2.824,6.01 -2.672,5.988 h 0.277 4.233 c 0.193,0 0.375,0.01 0.519,0.079 H 2.396 L 2.031,4.713 H 1.996 C 1.854,5.109 1.396,5.17 1.018,5.17 H 0 Z"
             style="fill:#004ea2;fill-opacity:1;fill-rule:nonzero;stroke:none"
             id="path8023" />
        </g>
        <g
           id="g8025"
           transform="translate(221.5234,294.1455)">
          <path
             d="M 0,0 C 0,0.521 0.08,1.352 -0.494,1.564 V 1.602 H 1.654 V 1.564 C 1.092,1.352 1.158,0.51 1.158,0 v -4.277 c 0,-0.508 -0.066,-1.336 0.496,-1.553 V -5.865 H -0.494 V -5.83 C 0.063,-5.623 0,-4.785 0,-4.277 Z"
             style="fill:#004ea2;fill-opacity:1;fill-rule:nonzero;stroke:none"
             id="path8027" />
        </g>
        <g
           id="g8029"
           transform="translate(228.0059,295.9375)">
          <path
             d="m 0,0 c -2.379,0.056 -4.242,-1.747 -4.242,-3.901 0,-2.327 1.887,-3.934 4.127,-3.934 2.263,0 4.181,1.678 4.181,3.992 C 4.066,-1.804 2.383,0.009 0,0 m -0.078,-0.817 c 1.795,0 2.851,-1.598 2.851,-3.256 0,-1.69 -1.101,-2.949 -2.826,-2.949 -1.779,0 -2.9,1.636 -2.9,3.218 0,1.715 1.121,2.987 2.875,2.987"
             style="fill:#004ea2;fill-opacity:1;fill-rule:nonzero;stroke:none"
             id="path8031" />
        </g>
        <g
           id="g8033"
           transform="translate(233.8438,289.7588)">
          <path
             d="m 0,0 c 0,-0.639 -0.016,-1.09 0.588,-1.443 v -0.036 h -2.002 v 0.036 c 0.6,0.353 0.6,0.804 0.6,1.443 v 4.527 c 0,0.633 0,1.086 -0.588,1.424 v 0.037 h 1.65 V 5.975 C 0.293,5.838 0.34,5.783 0.416,5.695 L 0.576,5.463 4.727,0.229 v 4.298 c 0,0.633 0.013,1.086 -0.59,1.424 V 5.988 H 6.135 V 5.951 C 5.549,5.613 5.549,5.16 5.549,4.527 V -1.84 C 4.74,-1.566 4.395,-1.197 3.891,-0.547 L 0,4.387 Z"
             style="fill:#004ea2;fill-opacity:1;fill-rule:nonzero;stroke:none"
             id="path8035" />
        </g>
        <g
           id="g8037"
           transform="translate(245.1504,291.083)">
          <path
             d="M 0,0 0.611,-1.6 C 0.92,-2.389 1.008,-2.521 0.457,-2.768 v -0.035 h 2.318 v 0.035 C 2.133,-2.438 1.93,-1.803 1.666,-1.154 L -0.695,4.664 H -2.488 V 4.627 c 0.549,-0.168 0.334,-0.65 0.175,-1.055 l -1.892,-4.726 c -0.25,-0.649 -0.443,-1.284 -1.096,-1.614 v -0.035 h 2.082 v 0.035 c -0.543,0.207 -0.467,0.536 -0.232,1.168 L -2.855,0 Z m -0.332,0.842 h -2.234 l 1.123,2.857 z"
             style="fill:#004ea2;fill-opacity:1;fill-rule:nonzero;stroke:none"
             id="path8039" />
        </g>
        <g
           id="g8041"
           transform="translate(251.543,289.0967)">
          <path
             d="M 0,0 C 0.771,-0.043 1.443,0.215 2.008,0.693 H 2.041 L 1.457,-0.816 h -4.666 v 0.035 c 0.578,0.207 0.51,1.045 0.51,1.552 v 4.278 c 0,0.521 0.068,1.351 -0.51,1.564 V 6.65 h 2.168 V 6.613 C -1.627,6.4 -1.539,5.559 -1.539,5.049 V 0.104 Z"
             style="fill:#004ea2;fill-opacity:1;fill-rule:nonzero;stroke:none"
             id="path8043" />
        </g>
        <g
           id="g8045"
           transform="translate(262.0586,289.0303)">
          <path
             d="m 0,0 c -0.5,-0.656 -1.428,-0.928 -2.223,-0.928 -0.754,0 -1.539,0.235 -2.05,0.791 -0.606,0.657 -0.582,1.414 -0.582,2.233 v 3.031 c 0,0.51 0.082,1.34 -0.499,1.553 v 0.037 h 2.153 V 6.68 C -3.762,6.467 -3.697,5.637 -3.697,5.127 V 2.096 c 0,-1.504 0.631,-2.211 1.804,-2.211 0.631,0 1.278,0.261 1.659,0.795 C 0.008,1.023 0,1.305 0,1.715 v 3.412 c 0,0.51 0.068,1.34 -0.5,1.553 V 6.717 H 1.652 L 1.668,6.68 C 1.086,6.467 1.158,5.637 1.158,5.115 V 0.838 c 0,-0.508 -0.072,-1.336 0.51,-1.553 V -0.75 L 0,-0.75 Z"
             style="fill:#004ea2;fill-opacity:1;fill-rule:nonzero;stroke:none"
             id="path8047" />
        </g>
        <g
           id="g8049"
           transform="translate(266.1641,289.7588)">
          <path
             d="m 0,0 c 0,-0.639 -0.02,-1.09 0.584,-1.443 v -0.036 h -2.008 v 0.036 c 0.606,0.353 0.606,0.804 0.606,1.443 v 4.527 c 0,0.633 0,1.086 -0.592,1.424 V 5.988 H 0.246 V 5.975 C 0.289,5.838 0.334,5.783 0.412,5.695 L 0.578,5.463 4.721,0.229 v 4.298 c 0,0.633 0.015,1.086 -0.584,1.424 V 5.988 H 6.131 V 5.951 C 5.543,5.613 5.543,5.16 5.543,4.527 V -1.84 C 4.736,-1.566 4.389,-1.197 3.887,-0.547 L 0,4.387 Z"
             style="fill:#004ea2;fill-opacity:1;fill-rule:nonzero;stroke:none"
             id="path8051" />
        </g>
        <g
           id="g8053"
           transform="translate(273.9531,294.1455)">
          <path
             d="M 0,0 C 0,0.521 0.082,1.352 -0.504,1.564 V 1.602 H 1.662 V 1.564 C 1.092,1.352 1.162,0.51 1.162,0 v -4.277 c 0,-0.508 -0.07,-1.336 0.5,-1.553 V -5.865 H -0.504 V -5.83 C 0.076,-5.623 0,-4.785 0,-4.277 Z"
             style="fill:#004ea2;fill-opacity:1;fill-rule:nonzero;stroke:none"
             id="path8055" />
        </g>
        <g
           id="g8057"
           transform="translate(281.3242,293.6924)">
          <path
             d="m 0,0 c 0.307,0.805 0.689,1.734 -0.01,2.018 v 0.037 h 1.69 l -2.998,-7.809 c -0.787,0.527 -1.051,0.615 -1.381,1.512 l -1.715,4.638 c -0.217,0.579 -0.387,1.237 -0.885,1.622 v 0.037 h 1.66 L -3.65,1.916 c 0,-0.248 0.211,-0.807 0.308,-1.057 l 1.797,-4.929 z"
             style="fill:#004ea2;fill-opacity:1;fill-rule:nonzero;stroke:none"
             id="path8059" />
        </g>
        <g
           id="g8061"
           transform="translate(285.1973,289.2373)">
          <path
             d="M 0,0 1.441,-0.141 C 2.184,-0.207 2.969,0.033 3.533,0.533 H 3.57 L 3.057,-0.957 H -1.67 v 0.035 c 0.582,0.207 0.514,1.045 0.514,1.553 v 4.277 c 0,0.522 0.068,1.352 -0.514,1.565 V 6.51 h 3.629 c 0.191,0 0.389,-0.026 0.535,0.054 H 2.529 V 5.234 H 2.494 C 2.137,5.65 1.674,5.691 1.154,5.691 0.754,5.691 0.359,5.682 0,5.611 V 3.5 h 1.346 c 0.183,0 0.359,0 0.498,0.07 H 1.875 V 2.365 H 1.844 C 1.664,2.693 1.186,2.688 0.836,2.688 H 0 Z"
             style="fill:#004ea2;fill-opacity:1;fill-rule:nonzero;stroke:none"
             id="path8063" />
        </g>
        <g
           id="g8065"
           transform="translate(291.9883,295.7471)">
          <path
             d="m 0,0 c 1.514,0 2.346,-0.795 2.346,-1.83 0,-0.996 -0.871,-1.783 -1.801,-1.992 L 2.18,-5.879 C 2.652,-6.467 3.369,-7.053 4.016,-7.467 H 2.971 c -0.606,0 -0.973,0.153 -1.317,0.571 l -1.384,1.712 -1.043,1.598 c 0.906,0.139 1.962,0.553 1.962,1.625 0,0.815 -0.705,1.287 -1.459,1.254 -0.265,-0.008 -0.515,-0.043 -0.773,-0.088 v -5.084 c 0,-0.517 -0.07,-1.346 0.508,-1.553 v -0.035 h -2.164 v 0.035 c 0.58,0.207 0.492,1.045 0.492,1.553 v 4.277 c 0,0.522 0.088,1.352 -0.492,1.565 V 0 Z"
             style="fill:#004ea2;fill-opacity:1;fill-rule:nonzero;stroke:none"
             id="path8067" />
        </g>
        <g
           id="g8069"
           transform="translate(300.1934,294.3955)">
          <path
             d="m 0,0 c -0.449,0.453 -1.146,0.709 -1.789,0.709 -0.643,0 -1.459,-0.244 -1.459,-1.027 0,-1.555 3.906,-1.532 3.906,-3.629 0,-1.211 -1.275,-2.346 -3.043,-2.346 -0.695,0 -1.385,0.1 -2.033,0.336 l -0.332,1.42 c 0.674,-0.578 1.6,-0.943 2.486,-0.943 0.649,0 1.627,0.384 1.627,1.183 0,1.766 -3.908,1.451 -3.908,3.854 0,1.425 1.465,1.972 2.848,1.972 0.574,0 1.152,-0.076 1.697,-0.25 z"
             style="fill:#004ea2;fill-opacity:1;fill-rule:nonzero;stroke:none"
             id="path8071" />
        </g>
        <g
           id="g8073"
           transform="translate(302.1895,294.1455)">
          <path
             d="m 0,0 c 0,0.521 0.086,1.352 -0.496,1.564 v 0.038 h 2.15 V 1.564 C 1.09,1.352 1.162,0.51 1.162,0 v -4.277 c 0,-0.508 -0.072,-1.336 0.492,-1.553 v -0.035 h -2.15 V -5.83 C 0.068,-5.623 0,-4.785 0,-4.277 Z"
             style="fill:#004ea2;fill-opacity:1;fill-rule:nonzero;stroke:none"
             id="path8075" />
        </g>
        <g
           id="g8077"
           transform="translate(307.8887,289.7588)">
          <path
             d="m 0,0 c 0,-0.65 -0.006,-1.09 0.596,-1.443 v -0.036 h -2.25 v 0.036 c 0.568,0.216 0.498,1.045 0.498,1.552 V 5.17 H -2.152 C -2.641,5.17 -3.148,5.043 -3.5,4.713 h -0.037 l 0.398,1.354 h 0.035 C -2.971,6.01 -2.818,6.01 -2.676,5.988 h 0.285 4.233 c 0.195,0 0.375,0.01 0.525,0.079 H 2.396 L 2.037,4.713 H 2.002 C 1.855,5.109 1.393,5.17 1.027,5.17 H 0 Z"
             style="fill:#004ea2;fill-opacity:1;fill-rule:nonzero;stroke:none"
             id="path8079" />
        </g>
        <g
           id="g8081"
           transform="translate(313.7363,289.7588)">
          <path
             d="m 0,0 c 0,-0.688 0,-1.021 0.58,-1.443 v -0.036 h -2.213 v 0.036 c 0.555,0.283 0.473,1.017 0.473,1.552 v 1.682 l -1.881,3.025 c -0.307,0.498 -0.533,0.879 -1.08,1.172 h 1.033 c 0.361,0 0.701,-0.084 0.85,-0.32 L -0.424,2.709 0.982,4.816 C 1.178,5.102 1.439,5.643 0.805,5.951 V 5.988 H 2.787 L 0,1.791 Z"
             style="fill:#004ea2;fill-opacity:1;fill-rule:nonzero;stroke:none"
             id="path8083" />
        </g>
        <g
           id="g8085"
           transform="translate(246.4902,321.1924)">
          <path
             d="M 0,0 H -2.383 V 5.795 H -5.252 V -9.226 c -0.982,-1.056 -2.637,-0.992 -2.637,-0.992 h -8.058 c -0.116,0 -0.209,0.099 -0.209,0.217 l -0.002,11.735 h 8.633 V 4.056 L -19.029,4.057 -19.025,-10 c 0,-1.392 1.132,-2.507 2.529,-2.507 h 8.539 c 0,0 1.408,-0.13 2.705,0.61 v -8.084 h 2.869 V -2.317 H 0 V -19.981 H 2.865 V 5.795 L 0,5.795 Z"
             style="fill:#004ea2;fill-opacity:1;fill-rule:nonzero;stroke:none"
             id="path8087" />
        </g>
        <g
           id="g8089"
           transform="translate(160.9009,309.8604)">
          <path
             d="m 0,0 h 10.878 v -8.642 h 2.869 V 0 h 10.84 V 2.315 H 0 Z"
             style="fill:#004ea2;fill-opacity:1;fill-rule:nonzero;stroke:none"
             id="path8091" />
        </g>
        <g
           id="g8093"
           transform="translate(179.7002,320.5269)">
          <path
             d="m 0,0 -0.002,-3.461 c 0,-0.121 -0.096,-0.214 -0.213,-0.214 H -12.8 c -0.117,0 -0.212,0.093 -0.212,0.214 L -13.015,0 Z m -13.354,-5.989 h 13.69 c 1.398,0 2.53,1.132 2.53,2.53 L 2.869,6.238 H 0.003 L 0,2.314 h -13.015 v 3.924 h -2.869 l 0.005,-9.697 c 0,-1.398 1.131,-2.53 2.525,-2.53"
             style="fill:#004ea2;fill-opacity:1;fill-rule:nonzero;stroke:none"
             id="path8095" />
        </g>
        <g
           id="g8097"
           transform="translate(215.1758,326.9961)">
          <path
             d="M 0,0 H -2.869 V -18.708 H 0 v 10.593 h 3.803 v 2.316 l -3.803,0 z"
             style="fill:#004ea2;fill-opacity:1;fill-rule:nonzero;stroke:none"
             id="path8099" />
        </g>
        <g
           id="g8101"
           transform="translate(200.3794,304.0918)">
          <path
             d="M 0,0 -0.002,6.945 H -2.867 L -2.871,0 c 0,-1.39 1.134,-2.523 2.528,-2.523 h 15.145 v 2.31 H 0.216 C 0.095,-0.213 0,-0.118 0,0"
             style="fill:#004ea2;fill-opacity:1;fill-rule:nonzero;stroke:none"
             id="path8103" />
        </g>
        <g
           id="g8105"
           transform="translate(202.3481,323.917)">
          <path
             d="M 0,0 V 2.499 H -2.866 V 0 c 0,-7.405 -7.089,-8.926 -7.576,-9.022 l 1.93,-1.934 c 1.71,0.532 5.373,2.008 7.079,5.245 1.702,-3.227 5.348,-4.703 7.061,-5.239 L 7.56,-9.02 C 6.964,-8.899 0,-7.341 0,0"
             style="fill:#004ea2;fill-opacity:1;fill-rule:nonzero;stroke:none"
             id="path8107" />
        </g>
        <g
           id="g8109"
           transform="translate(306.5723,316.0063)">
          <path
             d="M 0,0 H -2.83 V -10.017 H -6.289 V 0 h -2.826 v -10.017 h -6.035 v -2.29 H 8.818 v 2.29 H 0 Z"
             style="fill:#004ea2;fill-opacity:1;fill-rule:nonzero;stroke:none"
             id="path8111" />
        </g>
        <g
           id="g8113"
           transform="translate(310.0547,315.647)">
          <path
             d="m 0,0 c 0,-4.065 -1.008,-6.422 -1.008,-6.422 h 2.867 c 0,0 0.989,2.357 0.989,6.422 V 10.156 H 2.84 v 0.003 H -16.109 V 7.873 L 0,7.873 Z"
             style="fill:#004ea2;fill-opacity:1;fill-rule:nonzero;stroke:none"
             id="path8115" />
        </g>
        <g
           id="g8117"
           transform="translate(280.7637,321.1968)">
          <path
             d="M 0,0 V 5.791 H -2.875 V -9.396 H 0 v 7.072 H 3.814 V 0 Z"
             style="fill:#004ea2;fill-opacity:1;fill-rule:nonzero;stroke:none"
             id="path8119" />
        </g>
        <g
           id="g8121"
           transform="translate(280.7617,310.6602)">
          <path
             d="M 0,0 H -18.162 V -2.322 H -2.873 V -9.443 H 0.002 V -0.01 L 0,-0.01 Z"
             style="fill:#004ea2;fill-opacity:1;fill-rule:nonzero;stroke:none"
             id="path8123" />
        </g>
        <g
           id="g8125"
           transform="translate(263.3086,318.7437)">
          <path
             d="M 0,0 C 0,1.981 1.631,3.586 3.648,3.586 5.662,3.586 7.297,1.981 7.297,0 7.297,-1.977 5.662,-3.585 3.648,-3.585 1.631,-3.585 0,-1.977 0,0 m 10.189,-0.022 c 0,1.365 -0.515,2.616 -1.375,3.612 h 3.538 V 5.926 H 5.088 V 8.813 H 2.209 V 5.926 h -7.26 V 3.59 h 3.537 c -0.859,-0.996 -1.382,-2.247 -1.382,-3.612 0,-3.256 2.931,-5.896 6.544,-5.896 3.614,0 6.541,2.64 6.541,5.896"
             style="fill:#004ea2;fill-opacity:1;fill-rule:nonzero;stroke:none"
             id="path8127" />
        </g>
      </g>
    </g>
    <path
       style="fill:#ffffff;stroke-width:0.105099"
       d="m 165.39471,375.60643 c -0.94444,-0.72307 -0.76161,-0.70732 -8.66602,-0.74668 l -7.12045,-0.0355 v -2.93736 -2.93736 l 1.9706,0.002 c 2.69662,0.003 2.48764,-0.11283 4.13713,2.29613 l 1.30174,1.9011 3.13279,0.002 3.13278,0.002 0.47249,-1.018 c 0.64734,-1.39475 0.76363,-1.85579 0.55992,-2.21985 -0.14209,-0.25393 -0.22632,-0.2862 -0.82084,-0.31449 -0.38514,-0.0183 -0.72241,0.0182 -0.8056,0.0872 -0.11566,0.096 -0.17687,0.003 -0.31935,-0.48754 -0.175,-0.602 -0.17459,-0.60764 0.0588,-0.79664 0.19318,-0.15644 0.42962,-0.19035 1.32696,-0.19035 h 1.0919 v 0.30588 0.30589 l 0.84079,-0.27564 c 0.46243,-0.1516 0.84079,-0.31091 0.84079,-0.35401 0,-0.0431 -0.36653,-0.0922 -0.81452,-0.10907 l -0.81451,-0.0307 0.31021,-0.2102 c 0.27628,-0.1872 0.51198,-0.21333 2.15453,-0.23886 l 1.84431,-0.0287 -0.44667,0.37896 -0.44667,0.37895 v 2.40856 2.40856 h 3.25302 3.25302 l 1.23996,-1.86242 c 0.68197,-1.02433 1.37333,-1.95839 1.53635,-2.0757 0.27065,-0.19476 0.48293,-0.21609 2.44355,-0.24557 l 2.14715,-0.0323 v 2.94878 2.94878 l -6.5424,0.002 c -7.65943,0.002 -8.34131,0.0623 -9.39877,0.82501 l -0.4017,0.28974 -0.45131,-0.34552 z"
       id="path8176"
       transform="matrix(0.75000002,0,0,-0.75000002,0,595.28002)"
       inkscape:export-filename="..\잉스케이프-로고\부산대학교.png"
       inkscape:export-xdpi="503.01727"
       inkscape:export-ydpi="503.01727" />
    <path
       style="fill:#ffffff;stroke-width:0.105099"
       d="m 164.02973,408.87685 c -7.82148,-0.56319 -15.08135,-4.8412 -19.5124,-11.49802 -1.52904,-2.29711 -3.03734,-5.86964 -3.61807,-8.56971 -0.73363,-3.41102 -0.73363,-7.51097 0,-10.92198 0.58073,-2.70008 2.08903,-6.2726 3.61807,-8.56971 6.22378,-9.35008 17.48545,-13.58572 28.24078,-10.62169 8.43423,2.32436 15.11297,8.883 17.68439,17.36636 1.6106,5.31352 1.35569,11.35158 -0.70134,16.6128 -1.28101,3.27639 -3.6342,6.79729 -6.08196,9.09997 -4.58353,4.31186 -9.92941,6.66825 -16.1316,7.11059 -1.61957,0.11551 -1.77962,0.11512 -3.49787,-0.009 z m 3.91545,-8.39218 c 0.0881,-0.17042 0.32369,-0.43453 0.52346,-0.5869 0.7527,-0.57411 0.76009,-0.57462 8.42946,-0.57462 h 7.07747 V 388.8074 378.29164 l -7.33065,0.0371 c -6.57104,0.0333 -7.39598,0.056 -7.96123,0.21927 -0.9475,0.27367 -1.67819,0.66327 -2.27755,1.21438 l -0.53881,0.49544 -0.45443,-0.48582 c -0.24994,-0.26721 -0.71231,-0.6121 -1.02749,-0.76643 -1.20489,-0.58997 -1.26558,-0.59389 -9.2332,-0.59558 l -7.33065,-0.002 v 10.45734 10.45733 h 7.0751 c 6.03383,0 7.15451,0.0236 7.61468,0.16024 0.60742,0.18039 1.11173,0.55868 1.34427,1.00837 l 0.15657,0.30278 h 1.88639 1.88638 z m -1.71129,-22.55588 c 0.37618,-0.42846 1.07185,-0.80897 1.94881,-1.06596 0.53854,-0.15781 1.4523,-0.18184 8.19948,-0.21558 l 7.59339,-0.038 v -4.72319 -4.72319 h -3.34748 c -3.51223,0 -3.77902,0.0294 -4.39122,0.4834 -0.18108,0.13429 -0.88648,1.02636 -1.56755,1.98236 l -1.23831,1.7382 h -1.6117 -1.61169 v -1.34158 -1.34158 l 1.10354,-1.0305 c 0.60694,-0.56678 1.10354,-1.07449 1.10354,-1.12825 0,-0.0539 -0.48016,-0.0977 -1.06931,-0.0977 h -1.06931 l 0.25421,-0.2706 0.25421,-0.27059 -2.83709,0.0341 -2.83709,0.0341 -0.4869,0.28624 c -0.2678,0.15743 -0.51461,0.35843 -0.54847,0.44667 -0.0496,0.12929 -0.26898,0.16043 -1.12994,0.16043 -1.26051,0 -1.8015,0.13793 -2.14578,0.54709 -0.42661,0.507 -0.42648,0.87024 8.4e-4,2.3606 0.21271,0.74185 0.40107,1.36319 0.41859,1.38076 0.0175,0.0176 0.19088,-0.065 0.38526,-0.18353 0.44712,-0.27259 0.82638,-0.28501 0.82638,-0.0271 0,0.4045 -0.18473,0.44142 -2.20894,0.44142 h -1.95671 l -1.24454,-1.79207 c -1.01126,-1.45615 -1.33498,-1.84524 -1.72701,-2.07571 l -0.48247,-0.28363 -3.49453,-0.0315 -3.49454,-0.0315 v 4.72891 4.72891 l 7.43574,0.0392 c 6.59692,0.0348 7.51171,0.0594 8.10911,0.21862 0.82064,0.21869 1.77642,0.71521 2.17246,1.12858 0.16166,0.16873 0.31017,0.30679 0.33002,0.30679 0.0199,0 0.1841,-0.16857 0.365,-0.37459 z"
       id="path8178"
       transform="matrix(0.75000002,0,0,-0.75000002,0,595.28002)" />
    <path
       style="fill:#ffffff;stroke-width:0.105099"
       d="m 165.69774,399.46715 c -0.32402,-0.89606 -1.61948,-1.72632 -3.00469,-1.92571 -0.42636,-0.0614 -3.3319,-0.10678 -6.91025,-0.10798 l -6.17456,-0.002 v -8.6181 -8.61811 h 5.97629 c 3.53144,0 6.20788,0.0429 6.54241,0.10497 1.33728,0.24797 2.74887,1.24271 3.42479,2.41344 l 0.31113,0.5389 0.39533,-0.64048 c 0.67841,-1.09912 1.90676,-1.88814 3.49723,-2.24643 0.64818,-0.14601 1.59204,-0.1704 6.59496,-0.1704 h 5.83851 v 8.61811 8.6181 l -5.96436,8.5e-4 c -6.24385,8.4e-4 -7.35811,0.0584 -8.3603,0.432 -0.71416,0.26622 -1.5418,0.96864 -1.8317,1.55458 l -0.20353,0.41138 -0.13126,-0.36299 z m -0.57163,-3.17219 c 0.53094,-0.28415 0.61838,-1.31249 0.13458,-1.58274 -0.35398,-0.19773 -0.78075,-0.0865 -1.00985,0.26311 -0.16035,0.24472 -0.16284,0.30204 -0.0239,0.5501 0.10578,0.18891 0.27079,0.29527 0.51924,0.33468 l 0.36418,0.0578 -0.39412,0.24163 c -0.21676,0.13289 -0.39412,0.28095 -0.39412,0.32901 0,0.0953 0.48035,-0.0203 0.80403,-0.19357 z m -1.31071,-0.75512 c -0.0186,-0.52038 -0.0658,-0.94443 -0.10509,-0.94236 -0.0393,0.002 -0.21325,0.12009 -0.38667,0.26223 -0.25195,0.20652 -0.27654,0.25855 -0.1224,0.25897 0.17091,4.2e-4 0.18887,0.0784 0.15765,0.68388 -0.0345,0.66825 -0.0294,0.68337 0.2275,0.68339 l 0.26275,2e-5 z m 3.18621,0.83974 c -0.036,-0.0582 0.008,-0.17986 0.0989,-0.27025 0.20892,-0.20892 0.21291,-0.40066 0.007,-0.32153 -0.12829,0.0492 -0.15765,-0.0466 -0.15765,-0.51425 -1e-5,-0.53842 -0.0161,-0.57475 -0.25514,-0.57475 -0.19864,0 -0.33829,0.13689 -0.6306,0.61807 -0.2065,0.33994 -0.37545,0.671 -0.37545,0.73569 0,0.0677 0.1833,0.11763 0.43164,0.11763 0.3405,0 0.41886,0.0333 0.37114,0.15765 -0.0456,0.11874 0.018,0.15765 0.25771,0.15765 0.18698,0 0.29121,-0.0437 0.25275,-0.10591 z m 1.64753,-0.068 c 0.2294,-0.20761 0.25254,-0.69614 0.0413,-0.87148 -0.083,-0.0689 -0.28401,-0.16135 -0.44667,-0.20546 l -0.29574,-0.0802 0.34157,-0.17795 c 0.18787,-0.0979 0.34158,-0.22402 0.34158,-0.28034 0,-0.14605 -0.0878,-0.12953 -0.58125,0.10934 -0.63949,0.30958 -0.86674,0.94618 -0.51633,1.44645 0.20057,0.28636 0.82799,0.31991 1.11558,0.0597 z m -7.90042,-4.71316 v -1.62903 h 0.84079 0.84079 v 1.62903 1.62903 h 3.46827 3.46826 v -1.62903 -1.62903 h 0.84079 0.84079 v 1.62903 1.62903 h 3.52081 3.52081 v -0.89334 -0.89334 h -2.52237 -2.52237 v -0.73569 -0.73569 h 2.52237 2.52237 v -2.68003 -2.68002 h -3.52081 -3.52081 v 1.73413 1.73414 h -0.84079 -0.84079 v -1.73414 -1.73413 h -0.99844 -0.99844 v 1.73413 1.73414 h -1.47138 -1.47139 v -1.73414 -1.73413 h -0.99844 -0.99844 v 1.73413 1.73414 h -0.84079 -0.84079 v -1.73414 -1.73413 h -3.46826 -3.46826 v 0.89334 0.89334 h 2.46982 2.46982 v 0.84079 0.8408 h -2.46982 -2.46982 v 2.57492 2.57492 h 3.46826 3.46826 z"
       id="path8180"
       transform="matrix(0.75000002,0,0,-0.75000002,0,595.28002)" />
    <path
       style="fill:#ffffff;stroke-width:0.105099"
       d="m 164.42718,390.70505 v -0.73569 h 1.52393 1.52394 v 0.73569 0.73569 h -1.52394 -1.52393 z"
       id="path8182"
       transform="matrix(0.75000002,0,0,-0.75000002,0,595.28002)" />
    <path
       style="fill:#ffffff;stroke-width:0.105099"
       d="m 173.04529,387.23678 v -0.84079 h 1.52393 1.52394 v 0.84079 0.8408 h -1.52394 -1.52393 z"
       id="path8184"
       transform="matrix(0.75000002,0,0,-0.75000002,0,595.28002)" />
    <path
       style="fill:#ffffff;stroke-width:0.105099"
       d="m 155.80907,390.70505 v -0.73569 h 1.47139 1.47138 v 0.73569 0.73569 h -1.47138 -1.47139 z"
       id="path8186"
       transform="matrix(0.75000002,0,0,-0.75000002,0,595.28002)" />
    <path
       style="fill:#ffffff;stroke-width:0.105099"
       d="m 162.9558,418.76446 c -7.18929,-0.66826 -13.7166,-3.2831 -19.28565,-7.72581 -1.54012,-1.22864 -4.50406,-4.22462 -5.66362,-5.72486 -4.23046,-5.47336 -6.62658,-11.34689 -7.43888,-18.23465 -0.17679,-1.4991 -0.17679,-5.96293 0,-7.46202 0.819,-6.94461 3.34178,-13.07436 7.59121,-18.44486 1.0908,-1.37857 4.13335,-4.4305 5.45875,-5.47557 3.6307,-2.86281 7.29063,-4.83579 11.48066,-6.18895 5.51845,-1.78218 11.81023,-2.15722 17.52662,-1.04473 11.94085,2.32386 21.81532,10.50636 26.30815,21.80031 4.86443,12.22805 2.51009,26.25835 -6.0756,36.20656 -5.83051,6.75578 -13.56549,10.92179 -22.54472,12.14243 -1.43123,0.19456 -5.90524,0.28709 -7.35692,0.15215 z m 2.67095,-2.12627 c 0.0261,-0.13006 0.099,-1.01683 0.16184,-1.9706 0.16529,-2.50648 0.21334,-2.83594 0.44787,-3.07047 0.11281,-0.11281 0.18935,-0.21856 0.17008,-0.235 -0.0875,-0.0747 -1.45386,-0.12963 -1.45386,-0.0585 0,0.0441 0.0764,0.14357 0.16986,0.2211 0.14759,0.12249 0.16004,0.31366 0.095,1.45798 -0.0412,0.72435 -0.10626,1.50394 -0.14456,1.73243 l -0.0697,0.41542 -1.41041,-2.07073 -1.41041,-2.07073 h -0.61492 -0.61491 l 0.21257,0.28902 c 0.20947,0.2848 0.21025,0.31899 0.0535,2.33845 -0.13128,1.69094 -0.1945,2.09791 -0.36144,2.32657 -0.11128,0.15243 -0.17333,0.30614 -0.1379,0.34157 0.0354,0.0354 0.3713,0.0644 0.74635,0.0644 0.67285,0 0.67941,-0.003 0.49368,-0.208 -0.16954,-0.18734 -0.18086,-0.34653 -0.11392,-1.60276 0.12858,-2.41282 -0.002,-2.40796 1.60268,-0.0596 1.50081,2.19659 2.0599,2.75075 2.17864,2.15942 z m 2.37292,-0.0478 c 0.0284,-0.0257 -0.0307,-0.0928 -0.13138,-0.14918 -0.22803,-0.12762 -0.2297,-0.34776 -0.009,-1.1428 0.19558,-0.70346 0.17394,-0.69052 1.31986,-0.78875 l 0.81109,-0.0695 0.39754,0.81243 c 0.27936,0.57091 0.35849,0.82604 0.26617,0.8582 -0.0723,0.0252 -0.13137,0.0932 -0.13137,0.15107 0,0.0946 1.55738,0.0211 1.6685,-0.0787 0.0217,-0.0195 -0.0965,-0.15115 -0.26275,-0.29256 -0.17529,-0.14913 -0.80835,-1.2086 -1.50737,-2.5227 l -1.20516,-2.26558 -0.63407,0.0633 c -0.64992,0.0648 -0.83964,0.13184 -0.6078,0.21464 0.21196,0.0757 0.16288,0.34562 -0.4598,2.52864 -0.60002,2.10359 -0.80392,2.65061 -0.98801,2.65061 -0.0563,0 -0.1024,0.0502 -0.1024,0.11146 0,0.1067 1.45062,0.0326 1.57561,-0.0805 z m 8.00233,-1.48396 c 0.0943,-0.10059 0.18027,-1.17449 0.094,-1.17449 -0.0392,0 -0.18601,0.12258 -0.32615,0.27239 -0.14013,0.14982 -0.33468,0.31548 -0.43232,0.36813 -0.19535,0.10533 -1.5566,0.40805 -1.5566,0.34616 0,-0.0213 -0.20675,-0.80766 -0.45944,-1.74757 -0.61985,-2.30561 -0.61163,-2.26328 -0.4853,-2.49933 0.13803,-0.2579 0.0916,-0.2601 -0.79407,-0.0376 -0.37315,0.0937 -0.67846,0.21197 -0.67846,0.26275 0,0.0508 0.0656,0.0923 0.14567,0.0923 0.22211,0 0.40966,0.50868 0.96254,2.61068 0.41453,1.57602 0.48429,1.96388 0.38253,2.12683 -0.0685,0.1096 -0.12446,0.22004 -0.12446,0.2454 0,0.065 3.19101,-0.77922 3.27201,-0.86565 z m -16.98741,0.21915 c 1.64068,-0.85522 2.02961,-2.95906 0.8049,-4.35393 -0.69317,-0.78948 -2.2529,-1.17659 -3.32727,-0.8258 -1.61227,0.52641 -2.39996,2.38004 -1.64241,3.86498 0.27276,0.53465 1.05581,1.22745 1.62393,1.43678 0.62925,0.23184 1.98708,0.16663 2.54085,-0.12203 z m -5.93401,-1.38603 c -0.13202,-0.24668 -0.16482,-0.15165 0.86564,-2.5079 0.65912,-1.50714 0.89996,-1.95356 1.11528,-2.06728 l 0.27463,-0.14504 -0.26275,-0.10342 c -0.14451,-0.0569 -0.49267,-0.20313 -0.77368,-0.325 l -0.51094,-0.22159 0.068,0.27095 c 0.0507,0.20219 -0.10967,0.67592 -0.63214,1.86679 -0.98238,2.23914 -1.15943,2.56725 -1.43342,2.65637 -0.20779,0.0676 -0.14355,0.12201 0.49705,0.42103 0.87316,0.40757 0.93379,0.41944 0.79232,0.15509 z M 181.61175,412.79 c 0.39483,-0.17937 1.00759,-0.7631 1.13503,-1.08127 0.0466,-0.1163 0.0755,-0.11463 0.16182,0.009 0.0902,0.12957 0.16582,0.12356 0.5341,-0.0425 0.58619,-0.26434 0.69644,-0.41589 0.40061,-0.55068 -0.34208,-0.15587 -2.32178,-3.75541 -2.31278,-4.20516 l 0.007,-0.33835 -0.43617,0.22217 c -0.2399,0.12219 -0.53951,0.2897 -0.6658,0.37223 l -0.22963,0.15006 0.30311,0.28142 c 0.45341,0.42098 1.81592,2.94102 1.81067,3.34895 -0.0124,0.96426 -1.2733,1.54041 -2.01158,0.91918 -0.42846,-0.36052 -1.83127,-2.92461 -1.81985,-3.32635 0.005,-0.16801 -0.0277,-0.29073 -0.0721,-0.27272 -0.27947,0.11329 -1.27135,0.67278 -1.27155,0.71725 -1.1e-4,0.0297 0.10616,0.10059 0.23622,0.15765 0.15215,0.0668 0.5582,0.68464 1.13871,1.73278 1.0363,1.87111 1.27247,2.10338 2.1349,2.09967 0.29492,-0.001 0.72581,-0.0884 0.95752,-0.1937 z m -31.92869,-0.51096 c -0.0641,-0.33522 0.0176,-0.5056 1.20282,-2.51025 l 0.87689,-1.48309 0.38534,0.24415 c 0.21194,0.13428 0.45971,0.35033 0.55061,0.48011 l 0.16528,0.23596 0.36333,-0.35216 0.36334,-0.35216 -1.54454,-0.88508 c -0.8495,-0.4868 -1.64446,-0.94976 -1.76657,-1.02882 -0.20305,-0.13145 -0.25651,-0.10842 -0.62565,0.26962 l -0.40363,0.41335 h 0.35139 c 0.40986,0 1.28909,0.4079 1.24524,0.5777 -0.0165,0.064 -0.47933,0.88898 -1.02847,1.83336 -0.76491,1.31546 -1.06872,1.74697 -1.29894,1.8449 l -0.30049,0.12783 0.72089,0.42637 c 0.39649,0.23451 0.73823,0.43051 0.75942,0.43558 0.0212,0.005 0.0139,-0.11976 -0.0163,-0.27737 z m -2.20018,-1.57893 c 0.009,-0.27457 0.32208,-1.5397 0.69525,-2.8114 l 0.67847,-2.31217 -0.38614,-0.34566 c -0.21239,-0.19011 -0.47339,-0.39518 -0.58002,-0.45569 -0.16669,-0.0946 -0.18434,-0.08 -0.12591,0.10408 0.0801,0.25228 0.0283,0.28882 -2.39507,1.69205 -0.98515,0.57044 -1.84256,0.99413 -2.10197,1.03869 l -0.43813,0.0753 0.6306,0.49659 0.63059,0.49659 0.0527,-0.28459 c 0.0389,-0.21012 0.22513,-0.39243 0.71164,-0.69665 l 0.65895,-0.41205 0.3919,0.27537 c 0.21554,0.15146 0.56713,0.42914 0.78131,0.61707 l 0.3894,0.34171 -0.26022,0.80749 c -0.21063,0.65357 -0.30434,0.81384 -0.49162,0.84079 -0.19807,0.0285 -0.14101,0.10506 0.39632,0.53174 0.34523,0.27414 0.65413,0.49879 0.68645,0.49922 0.0323,4.2e-4 0.0663,-0.22387 0.0755,-0.49844 z m 38.48957,-0.75858 c 0.54545,-0.49048 0.56228,-0.52004 0.2985,-0.52433 -0.18927,-0.003 -0.41548,-0.14881 -0.70044,-0.45122 -0.5223,-0.55429 -1.90538,-2.2207 -1.87136,-2.25471 0.0138,-0.0138 1.03812,0.1864 2.27634,0.44483 1.23822,0.25843 2.39438,0.46922 2.56924,0.46843 0.38219,-0.002 0.79157,-0.10276 0.78907,-0.19475 -9.4e-4,-0.0366 -0.73145,-0.93493 -1.62324,-1.99627 -1.14585,-1.36371 -1.63084,-2.01958 -1.6535,-2.2361 l -0.0321,-0.30638 -0.5255,0.43363 c -0.55152,0.45511 -0.69629,0.65039 -0.45781,0.61756 0.37987,-0.0523 0.55817,0.0934 1.55855,1.27335 0.59129,0.69743 1.05804,1.28509 1.03724,1.3059 -0.0208,0.0208 -1.0779,-0.1767 -2.34909,-0.4389 -1.27119,-0.26219 -2.36417,-0.47937 -2.42884,-0.48262 -0.0647,-0.003 -0.31046,0.15569 -0.54621,0.35319 l -0.42863,0.35909 0.30565,0.0808 c 0.29131,0.077 0.93436,0.76576 2.61437,2.8003 0.46416,0.56211 0.54665,0.72349 0.49692,0.97216 -0.0328,0.164 -0.0254,0.29765 0.0166,0.29702 0.0419,-6.4e-4 0.33632,-0.23507 0.65424,-0.52095 z m -15.87717,-0.73141 c 3.95691,-0.67798 7.18273,-1.95296 10.40477,-4.11237 6.41053,-4.29635 10.62386,-11.2592 11.45731,-18.93409 0.14247,-1.31195 0.14247,-4.31912 0,-5.63107 -0.62678,-5.77169 -3.14512,-11.14775 -7.19135,-15.35181 -4.03241,-4.1897 -9.10114,-6.81141 -15.00011,-7.75855 -0.94232,-0.1513 -1.762,-0.18914 -3.97243,-0.18338 -2.52693,0.007 -2.9264,0.0327 -4.30906,0.28234 -8.3615,1.50934 -15.24111,6.62441 -19.00917,14.13356 -1.29922,2.58914 -2.07119,5.09392 -2.55115,8.27766 -0.19093,1.26653 -0.19093,5.56491 0,6.83143 0.91162,6.04706 3.34285,10.95442 7.4736,15.08517 4.20655,4.20655 9.44164,6.75812 15.41783,7.51462 1.71749,0.21741 5.59181,0.13571 7.27976,-0.15351 z m -25.80917,-3.68878 c 1.50712,-1.34799 1.937,-1.67893 2.1808,-1.67893 0.16701,0 0.30366,-0.0267 0.30366,-0.0593 0,-0.0968 -0.88635,-1.09666 -0.97216,-1.09672 -0.0434,-3e-5 -0.0788,0.13638 -0.0788,0.30314 0,0.25492 -0.20075,0.48201 -1.26118,1.42662 -0.87802,0.78212 -1.261,1.06519 -1.26056,0.93172 7.3e-4,-0.21981 0.70442,-4.29121 0.78627,-4.54908 0.0344,-0.10828 -0.11845,-0.33981 -0.41895,-0.63472 l -0.47305,-0.46427 v 0.32805 c 0,0.28833 -0.17495,0.48558 -1.44511,1.62929 -1.66606,1.5002 -1.87799,1.65979 -2.20419,1.65979 -0.13164,0 -0.23936,0.0372 -0.23936,0.0828 0,0.0455 0.23648,0.31569 0.5255,0.60036 l 0.52549,0.5176 V 404.19 c 0,-0.28597 0.16371,-0.47479 1.28746,-1.48489 0.70811,-0.63649 1.30155,-1.14318 1.31878,-1.12599 0.0172,0.0172 -0.13649,0.99573 -0.34158,2.17455 -0.20508,1.17881 -0.37223,2.33132 -0.37144,2.56112 0.002,0.46923 0.0943,0.89213 0.19474,0.88813 0.0366,-0.001 0.91128,-0.75817 1.94371,-1.68158 z m 46.7006,-0.21802 c 0.56144,-0.59772 0.67672,-0.79404 0.40506,-0.6898 -0.26364,0.10117 -0.47652,-0.0439 -1.93886,-1.32093 -1.6269,-1.42077 -1.90398,-1.70808 -1.90398,-1.97422 0,-0.32637 0.42651,-0.27085 2.93413,0.38198 2.11377,0.5503 2.30048,0.58209 2.74121,0.4668 0.26012,-0.068 0.50475,-0.15642 0.54362,-0.1964 0.0753,-0.0774 -3.19433,-4.90722 -3.32205,-4.90722 -0.0415,0 -0.24806,0.23296 -0.45897,0.51769 -0.34899,0.47115 -0.36205,0.51209 -0.14523,0.45539 0.16058,-0.042 0.32232,0.0119 0.49627,0.16545 0.27758,0.24499 2.16407,2.92941 2.10216,2.99132 -0.0529,0.053 -3.72664,-0.91244 -3.97213,-1.04382 -0.16209,-0.0867 -0.23393,-0.0652 -0.35389,0.10605 -0.22372,0.31941 -0.76869,0.99349 -1.28432,1.5886 l -0.45646,0.52681 h 0.31065 c 0.24914,0 0.62046,0.27388 1.87529,1.38318 1.70096,1.50369 1.81906,1.62679 1.82405,1.90116 0.002,0.10116 0.0251,0.18392 0.0517,0.18392 0.0266,0 0.27488,-0.24118 0.55177,-0.53596 z m -51.04757,-7.12971 c 1.07914,-0.5338 1.37501,-0.63843 1.65682,-0.5859 l 0.34308,0.0639 -0.34158,-0.69268 c -0.32418,-0.65741 -0.34619,-0.67885 -0.43215,-0.42097 -0.0722,0.21661 -0.40825,0.43083 -1.65681,1.05615 -0.86143,0.43143 -1.56623,0.76132 -1.56623,0.73309 0,-0.0282 0.48068,-1.04609 1.06819,-2.26191 l 1.06819,-2.21059 -0.24537,-0.52386 c -0.27772,-0.59295 -0.36736,-0.64134 -0.46528,-0.2512 -0.058,0.23124 -0.36505,0.41631 -2.02063,1.21802 -1.68007,0.81357 -2.00244,0.93592 -2.31273,0.87771 l -0.36054,-0.0676 0.21921,0.42969 c 0.12057,0.23632 0.26693,0.55519 0.32525,0.70859 l 0.10604,0.27891 0.20938,-0.3443 c 0.16753,-0.27547 0.49474,-0.47988 1.63712,-1.0227 0.78525,-0.37313 1.45268,-0.65347 1.48317,-0.62298 0.0305,0.0305 -0.39657,0.99024 -0.94903,2.13278 -1.03285,2.13602 -1.18212,2.53348 -1.07647,2.86634 0.0677,0.21335 0.42806,0.0653 3.31037,-1.3605 z m 56.12627,-0.60658 0.70795,-1.48298 -0.38641,-0.37733 c -0.21253,-0.20752 -0.40807,-0.37732 -0.43454,-0.37732 -0.0265,0 -0.0488,0.22465 -0.0496,0.49922 -10e-4,0.47494 -0.25653,1.13576 -0.63758,1.65129 -0.14911,0.20173 -0.16938,0.19778 -0.93905,-0.18306 -0.43266,-0.21409 -0.78648,-0.42511 -0.78626,-0.46893 8.4e-4,-0.16123 0.42606,-0.77175 0.57825,-0.83015 0.0864,-0.0331 0.15705,-0.0937 0.15705,-0.13466 0,-0.0658 -0.66874,-0.42861 -0.79004,-0.42861 -0.026,0 -0.17193,0.24829 -0.32437,0.55177 -0.15244,0.30347 -0.29042,0.56677 -0.30662,0.5851 -0.0253,0.0287 -1.09116,-0.47578 -1.18895,-0.56274 -0.0858,-0.0762 0.41728,-1.01789 0.66781,-1.25007 l 0.27741,-0.2571 -0.43899,-0.22396 c -0.24145,-0.12317 -0.44623,-0.20883 -0.45508,-0.19035 -0.009,0.0185 -0.31414,0.64204 -0.67843,1.38567 -0.36428,0.74363 -0.64028,1.37411 -0.61332,1.40107 0.027,0.027 0.13784,10e-4 0.2464,-0.0566 0.22709,-0.12153 0.93999,0.16575 3.06398,1.23473 0.87233,0.43903 1.31689,0.72206 1.35339,0.86167 0.0299,0.11433 0.10266,0.19178 0.16168,0.17211 0.059,-0.0197 0.4259,-0.70311 0.81528,-1.51875 z m 1.31266,-3.18352 c 0.10223,-0.31793 0.2067,-0.63459 0.23217,-0.70371 0.0354,-0.0962 -0.0269,-0.098 -0.26628,-0.008 -0.26709,0.10082 -0.47865,0.0647 -1.45416,-0.24799 l -1.14159,-0.36598 0.73569,-0.1974 c 0.40463,-0.10856 1.15949,-0.36607 1.67746,-0.57223 l 0.94177,-0.37484 0.2572,-0.60522 c 0.14147,-0.33288 0.23125,-0.63118 0.19953,-0.66291 -0.0317,-0.0317 -0.31115,0.10305 -0.62094,0.29951 -0.49745,0.31546 -2.16116,1.02117 -2.4074,1.02117 -0.0506,0 -0.14351,-0.19103 -0.20638,-0.42451 -0.0629,-0.23348 -0.24486,-0.57062 -0.40441,-0.74919 -0.23444,-0.26238 -0.39462,-0.33473 -0.83472,-0.37702 -0.52136,-0.0501 -0.56188,-0.0349 -0.94931,0.35508 -0.32436,0.32652 -0.48077,0.63545 -0.78785,1.55605 -0.21072,0.63175 -0.36468,1.16709 -0.34213,1.18964 0.0225,0.0226 0.13401,-0.0171 0.2477,-0.0881 0.17517,-0.10939 0.53771,-0.0217 2.3765,0.57466 1.51073,0.48999 2.20844,0.76562 2.297,0.90743 0.16071,0.25734 0.22051,0.18738 0.45015,-0.52677 z m -62.54099,0.21943 c 0.0897,-0.17355 1.04652,-0.99594 2.20977,-1.8994 1.12833,-0.87634 2.0515,-1.62228 2.0515,-1.65765 0,-0.0354 -0.0767,-0.33753 -0.17036,-0.67146 -0.16304,-0.5811 -0.1777,-0.59841 -0.34157,-0.40323 -0.16927,0.20163 -0.19835,0.20106 -2.57177,-0.0508 -1.69791,-0.18016 -2.47733,-0.30502 -2.66286,-0.42658 -0.14427,-0.0945 -0.28169,-0.15249 -0.30538,-0.1288 -0.0357,0.0357 0.1524,0.79233 0.3272,1.31612 0.0315,0.0945 0.10943,0.069 0.26534,-0.087 0.12172,-0.12172 0.29163,-0.1935 0.37883,-0.16004 0.087,0.0334 0.42959,0.0607 0.76138,0.0607 h 0.60326 l 0.28646,0.95694 c 0.32508,1.08597 0.39801,0.9015 -0.64315,1.62698 -0.48117,0.33528 -0.57423,0.36604 -0.72685,0.2403 -0.1585,-0.13058 -0.1678,-0.11441 -0.0984,0.1711 0.15587,0.64115 0.39481,1.41883 0.43592,1.41883 0.0233,0 0.11362,-0.13773 0.20067,-0.30606 z m 63.72415,-4.51308 c 0.20056,-0.25249 0.44356,-1.15079 0.44289,-1.63724 -0.001,-0.99788 -0.56409,-1.87049 -1.29461,-2.00753 -0.61761,-0.11587 -1.03597,0.15482 -1.77063,1.14563 -0.72349,0.97574 -0.98384,1.17896 -1.38227,1.07896 -0.57167,-0.14348 -0.5732,-1.17502 -0.003,-1.85295 0.15019,-0.17848 0.25536,-0.34184 0.23371,-0.36302 -0.0216,-0.0212 -0.25218,-0.0546 -0.5123,-0.0744 l -0.47294,-0.0359 -0.17932,0.5255 c -0.21806,0.63901 -0.23948,1.62048 -0.0454,2.07908 0.21482,0.50756 0.52778,0.7313 1.0907,0.77976 0.62762,0.054 1.05114,-0.19054 1.52688,-0.88176 0.48703,-0.70762 1.00789,-1.27503 1.23724,-1.34782 0.29421,-0.0934 0.62475,0.12941 0.7944,0.53544 0.20086,0.48072 0.0297,1.16771 -0.44636,1.79136 -0.19374,0.25381 -0.35225,0.4838 -0.35225,0.5111 0,0.12458 1.01339,-0.0957 1.133,-0.24624 z m -63.61321,-1.21772 c 0.43905,-0.18345 0.70192,-0.5937 1.05117,-1.64054 0.34002,-1.01917 0.50792,-1.256 0.89042,-1.256 0.63836,0 0.97485,1.06605 0.57718,1.82859 -0.0874,0.16756 -0.14211,0.32142 -0.12162,0.34192 0.0205,0.0205 0.26336,0.006 0.53971,-0.0316 l 0.50246,-0.0689 -0.0449,-0.85543 c -0.0751,-1.43109 -0.64799,-2.26479 -1.55626,-2.26479 -0.75599,0 -1.2488,0.53522 -1.60777,1.74614 -0.23673,0.79855 -0.46775,1.18519 -0.75055,1.25617 -0.38514,0.0967 -0.59352,0.0207 -0.83606,-0.30487 -0.28381,-0.38095 -0.30198,-1.42176 -0.0341,-1.95241 0.26285,-0.52065 0.23302,-0.5527 -0.31434,-0.3377 -0.59134,0.23228 -0.70154,0.49271 -0.60555,1.43111 0.1112,1.08696 0.65287,1.93463 1.37419,2.15049 0.43726,0.13084 0.53211,0.12657 0.936,-0.0422 z m 64.30916,-4.67598 c -0.0252,-0.0252 -0.10174,0.0102 -0.17014,0.0786 -0.26091,0.2609 -4.588,0.0541 -4.90691,-0.23446 -0.10129,-0.0917 -0.21592,-0.16667 -0.25472,-0.16667 -0.0388,0 -0.0705,0.3558 -0.0705,0.79066 v 0.79067 l 0.25399,-0.16642 c 0.22468,-0.14722 0.47624,-0.15351 2.1808,-0.0545 2.29469,0.13324 2.54562,0.16939 2.73077,0.39336 0.12279,0.14853 0.15142,0.0667 0.21224,-0.60687 0.0387,-0.4282 0.0497,-0.79915 0.0245,-0.82433 z m -61.31491,-0.37509 c 0,-0.43353 -0.0355,-0.78674 -0.0788,-0.7849 -0.0434,0.002 -0.16852,0.0712 -0.27816,0.15423 -0.16267,0.12314 -0.5106,0.13917 -1.89178,0.0872 -1.88481,-0.071 -2.15095,-0.14843 -2.41396,-0.70267 -0.2011,-0.42379 -0.21339,-0.65265 -0.0589,-1.09594 0.22321,-0.64029 0.46833,-0.70853 2.45017,-0.68209 1.38308,0.0185 1.82889,0.0591 2.01946,0.18393 0.13451,0.0881 0.26987,0.16024 0.30081,0.16024 0.0309,0 0.0563,-0.3558 0.0563,-0.79066 v -0.79067 l -0.2563,0.16793 c -0.21714,0.14228 -0.56107,0.16272 -2.25104,0.1338 -1.88848,-0.0323 -2.01058,-0.0224 -2.29235,0.18594 -0.73857,0.54616 -1.01186,1.83709 -0.57169,2.70047 0.19509,0.38266 0.19509,0.39007 0,0.39007 -0.17299,0 -0.19887,0.082 -0.19887,0.63059 0,0.34683 0.0253,0.6306 0.0562,0.6306 0.0309,0 0.16355,-0.0703 0.2947,-0.15624 0.36633,-0.24003 4.50246,-0.0801 4.76688,0.18427 0.10019,0.10019 0.21932,0.18216 0.26474,0.18216 0.0454,0 0.0826,-0.35471 0.0826,-0.78824 z m 56.96358,-0.24173 c 0,-0.0462 -0.0566,-0.14069 -0.1258,-0.20988 -0.0692,-0.0692 -0.15442,-0.38584 -0.1894,-0.70367 -0.0516,-0.46909 -0.0329,-0.5866 0.0995,-0.6242 0.0897,-0.0255 1.06449,-0.0787 2.16615,-0.11821 1.80074,-0.0647 2.02096,-0.0539 2.1808,0.10588 0.0978,0.0978 0.18138,0.13894 0.18576,0.0915 0.0227,-0.24539 -0.0292,-1.56142 -0.0629,-1.59509 -0.0215,-0.0215 -0.15841,0.0547 -0.30418,0.16935 -0.21778,0.1713 -0.49522,0.22068 -1.55575,0.27689 -0.70988,0.0376 -1.63358,0.0966 -2.05267,0.13114 l -0.76196,0.0627 v -0.58419 c 0,-0.32131 0.0473,-0.61342 0.1051,-0.64915 0.18864,-0.11658 0.1112,-0.23058 -0.22169,-0.32636 l -0.32678,-0.094 0.9311,-0.9122 c 0.51211,-0.5017 1.04993,-1.00471 1.19516,-1.11779 0.37316,-0.29058 1.91474,-0.59559 2.21041,-0.43735 0.31772,0.17004 0.35098,0.0824 0.20822,-0.54858 -0.23172,-1.02422 -0.19842,-0.9755 -0.4836,-0.70759 -0.16063,0.1509 -0.55491,0.30166 -1.09614,0.41911 l -0.84529,0.18344 -1.65276,-0.66322 c -0.90902,-0.36477 -1.67034,-0.64605 -1.69183,-0.62505 -0.0698,0.0682 0.21803,1.41391 0.30247,1.41391 0.0451,0 0.10918,-0.0709 0.14245,-0.15765 0.0896,-0.23358 0.37895,-0.19487 1.33226,0.17828 l 0.85822,0.33593 -0.97106,0.91368 c -0.88685,0.83444 -0.96524,0.93974 -0.90386,1.21428 0.0767,0.34307 0.26405,2.67078 0.30329,3.76818 0.0259,0.72392 0.031,0.73602 0.34158,0.80208 0.46806,0.0996 0.68314,0.10205 0.68314,0.008 z m -57.31087,-4.32545 c 0.49839,-0.30388 0.67973,-0.65518 0.94556,-1.83179 0.27625,-1.22271 0.31016,-1.64568 0.1164,-1.45191 -0.18756,0.18755 -0.44669,0.16213 -2.63983,-0.25904 -1.69939,-0.32634 -2.04119,-0.42353 -2.23861,-0.63656 l -0.23301,-0.25141 -0.12257,0.61029 c -0.0674,0.33566 -0.1474,0.7167 -0.17774,0.84676 -0.0644,0.27603 -0.0411,0.28304 0.31935,0.0961 0.23685,-0.12288 0.51722,-0.0931 2.24537,0.23849 1.85698,0.35631 1.9768,0.39347 2.00961,0.62333 0.0192,0.13444 -0.0228,0.38371 -0.0933,0.55394 -0.45878,1.1076 -1.88261,0.6268 -1.92759,-0.65091 -0.0127,-0.36137 -0.18397,-0.35303 -0.28652,0.0139 -0.42008,1.50325 0.89174,2.8251 2.08289,2.0988 z m 0.66258,-8.20233 c 0.11678,-0.11678 0.2102,-0.35033 0.2102,-0.5255 0,-0.17516 -0.0934,-0.40871 -0.2102,-0.52549 -0.44183,-0.44183 -1.26118,-0.1219 -1.26118,0.49245 0,0.64097 0.81695,1.00278 1.26118,0.55854 z m 56.39032,-0.0478 c 0.66565,-0.66565 -0.20164,-1.59487 -0.97983,-1.04981 -0.16447,0.1152 -0.23358,0.27067 -0.23358,0.52549 0,0.717 0.71275,1.02498 1.21341,0.52432 z m -4.99697,-4.39677 c 0,-0.0544 -0.36653,-0.47578 -0.81452,-0.93647 l -0.81451,-0.83762 1.05099,-0.98232 1.05098,-0.98232 -0.32554,-0.33074 -0.32554,-0.33074 -1.03125,0.9577 -1.03125,0.95769 -0.30743,-0.2926 -0.30742,-0.29261 1.03362,-0.9634 1.03363,-0.96341 -0.21659,-0.29115 c -0.11913,-0.16014 -0.26984,-0.30891 -0.3349,-0.3306 -0.0651,-0.0217 -0.57241,0.38376 -1.12742,0.901 l -1.0091,0.94044 -0.5917,-0.62034 -0.59171,-0.62034 -0.24509,0.23025 c -0.1348,0.12664 -0.24509,0.26909 -0.24509,0.31655 0,0.0475 1.04979,1.19742 2.33287,2.55548 l 2.33287,2.46919 0.24205,-0.2274 c 0.13313,-0.12507 0.24205,-0.27188 0.24205,-0.32624 z m -47.19399,-1.38859 c 0.54661,-0.60687 1.01414,-1.1034 1.03894,-1.1034 0.0248,0 0.44409,0.36223 0.93175,0.80496 l 0.88665,0.80496 0.33403,-0.33719 0.33404,-0.33719 -0.36976,-0.33639 c -0.20336,-0.18502 -0.6227,-0.5614 -0.93185,-0.8364 l -0.5621,-0.50001 1.01068,-1.09142 c 0.55587,-0.60028 1.01068,-1.13837 1.01068,-1.19576 0,-0.0574 -0.12407,-0.18564 -0.27572,-0.285 -0.32571,-0.21342 -0.0235,-0.48453 -2.45901,2.20591 -0.94189,1.04047 -1.90329,2.09194 -2.13644,2.33659 l -0.4239,0.44482 0.24858,0.2646 c 0.13672,0.14553 0.27581,0.26454 0.30908,0.26446 0.0333,-7e-5 0.50774,-0.49666 1.05435,-1.10354 z m 47.88711,-0.24932 c 0.60037,-0.39384 2.89405,-2.44568 2.97043,-2.65725 0.0207,-0.0573 -0.35765,-0.51474 -0.84079,-1.01644 -0.48314,-0.50171 -1.32038,-1.37564 -1.86055,-1.94208 -0.97613,-1.02361 -0.98369,-1.02885 -1.24134,-0.86003 -0.14257,0.0934 -0.24451,0.23377 -0.22652,0.31189 0.018,0.0781 0.71043,0.86186 1.53876,1.74163 1.2394,1.31637 1.4813,1.62333 1.36628,1.7337 -0.95214,0.9137 -2.12957,1.90698 -2.52213,2.12767 l -0.49059,0.27579 0.28039,0.33853 c 0.15422,0.18619 0.30853,0.34194 0.34292,0.34611 0.0344,0.004 0.34181,-0.17561 0.68314,-0.39952 z m -49.11263,-0.49253 c 0.1904,-0.0731 2.83117,-2.95453 3.00225,-3.27588 0.22525,-0.42313 0.0262,-0.73329 -1.12662,-1.75581 l -1.11846,-0.99202 -0.28902,0.27582 c -0.15896,0.1517 -0.28902,0.32108 -0.28902,0.3764 0,0.0553 0.16998,0.2475 0.37773,0.42709 l 0.37773,0.32652 -1.17336,1.28738 c -0.64534,0.70805 -1.2055,1.28545 -1.24479,1.2831 -0.0393,-0.002 -0.23566,-0.14463 -0.43638,-0.31618 l -0.36494,-0.31191 -0.3182,0.3239 -0.31821,0.32391 0.78824,0.73525 c 1.34337,1.25305 1.68937,1.46269 2.13305,1.29243 z m 38.92094,-5.90551 c 0.42048,-0.96981 0.5051,-1.25277 0.3942,-1.31809 -0.30431,-0.17923 -4.4955,-1.96625 -4.61156,-1.96625 -0.13876,0 -0.39663,0.49813 -0.32112,0.62031 0.0269,0.0435 0.92319,0.45111 1.99182,0.90583 1.06863,0.45473 1.92264,0.85965 1.89781,0.89984 -0.0248,0.0402 -0.20956,0.45718 -0.41051,0.92665 l -0.36535,0.85358 0.33807,0.14795 c 0.18594,0.0814 0.38603,0.1518 0.44465,0.15652 0.0586,0.005 0.34751,-0.54714 0.64199,-1.22634 z m -24.84323,0.0761 c 1.0525,-0.46391 1.95254,-0.88236 2.00008,-0.9299 0.10211,-0.10211 -0.1227,-0.6439 -0.26718,-0.6439 -0.0548,0 -0.89953,0.35471 -1.87721,0.78824 -0.97769,0.43353 -1.81775,0.78824 -1.86682,0.78824 -0.0491,0 -0.26833,-0.402 -0.48726,-0.89334 -0.21893,-0.49134 -0.41262,-0.89334 -0.43042,-0.89334 -0.11281,0 -0.77518,0.36828 -0.77518,0.431 0,0.14927 0.77624,1.83124 0.92881,2.01255 0.28243,0.33566 0.79204,0.21455 2.77518,-0.65955 z m -4.35015,-1.8945 c 0.23249,-0.29199 0.50502,-0.75312 0.60563,-1.02471 0.10061,-0.2716 0.19114,-0.50649 0.20118,-0.52196 0.01,-0.0155 0.22629,0.0662 0.48057,0.18161 0.31938,0.14491 0.69137,0.21047 1.20317,0.21207 l 0.74085,0.002 0.12622,-0.34903 c 0.0694,-0.19197 0.12615,-0.36932 0.12607,-0.39412 -7e-5,-0.0248 -0.31931,-0.0473 -0.70941,-0.0499 -1.13334,-0.008 -1.88671,-0.52433 -2.36857,-1.62419 -0.11396,-0.26012 -0.21886,-0.48679 -0.23311,-0.50372 -0.0481,-0.0572 -0.78763,0.33173 -0.78763,0.4142 0,0.045 0.10006,0.33179 0.22234,0.6374 0.41875,1.04652 0.24252,1.98013 -0.52985,2.80695 -0.17769,0.19022 -0.32308,0.36437 -0.32308,0.38699 0,0.0424 0.62841,0.33318 0.75303,0.34846 0.0384,0.005 0.2601,-0.23033 0.49259,-0.52232 z m 30.23853,-0.56622 c 0.19843,-0.45631 0.37773,-0.84662 0.39846,-0.86735 0.0207,-0.0207 0.25293,0.0546 0.516,0.16733 l 0.47831,0.20503 0.1332,-0.32158 c 0.11831,-0.28564 0.11057,-0.33813 -0.0693,-0.46969 -0.11138,-0.0815 -0.30893,-0.17485 -0.43899,-0.2075 -0.2999,-0.0753 -0.29663,-0.1897 0.0263,-0.91985 0.14451,-0.32677 0.26275,-0.6364 0.26275,-0.68807 0,-0.13629 -0.73984,-0.35981 -0.83732,-0.25297 -0.0988,0.10829 -1.68506,3.73643 -1.68506,3.85413 0,0.0952 0.64106,0.39064 0.76903,0.35446 0.0472,-0.0134 0.24823,-0.39762 0.44665,-0.85394 z m -13.82754,-2.2135 v -2.46982 h 0.26275 0.26274 v 2.46982 2.46983 h 0.47295 0.47294 v -3.67846 -3.67847 h -0.47294 -0.47295 v 0.78825 c 0,0.77072 -0.006,0.78824 -0.26274,0.78824 -0.25691,0 -0.26275,-0.0175 -0.26275,-0.78824 v -0.78825 h -0.47295 -0.47294 v 2.13766 2.13766 l -0.26769,0.12197 c -0.15545,0.0708 -0.79445,0.12197 -1.52394,0.12197 h -1.25624 v -1.62904 -1.62903 h 1.26119 1.26119 v -0.36784 -0.36785 h -1.74015 -1.74014 l 0.0323,2.164 c 0.0415,2.7824 -0.12742,2.59206 2.25955,2.54599 l 1.71422,-0.0331 -1.4e-4,1.07726 -1.4e-4,1.07727 h 0.47294 0.47295 z m -11.20586,2.20567 c 0.20937,-0.0875 0.37991,-0.21754 0.37897,-0.28902 -9.4e-4,-0.0715 -0.25898,-0.6975 -0.57342,-1.39115 l -0.57171,-1.26119 0.43873,-0.18936 c 0.56249,-0.24279 0.54885,-0.22218 0.39421,-0.59551 -0.15608,-0.37681 -0.19892,-0.38302 -0.73938,-0.1073 l -0.41431,0.21136 -0.15955,-0.36901 c -0.55134,-1.27519 -0.48489,-1.2136 -1.01407,-0.93995 -0.22666,0.11721 -0.29983,0.21577 -0.25356,0.34157 0.0819,0.22276 2.10174,4.74594 2.11996,4.74748 0.007,6.2e-4 0.18475,-0.0704 0.39413,-0.15792 z m 22.74568,-0.9345 c 0.54556,-0.28385 0.78845,-0.65026 0.83955,-1.26649 l 0.0477,-0.57499 0.29739,0.15378 c 0.16356,0.0846 0.36308,0.15379 0.44338,0.15379 0.17524,0 0.43527,-0.524 0.31614,-0.63706 -0.0461,-0.0438 -0.45433,-0.23397 -0.90713,-0.42266 -0.86343,-0.3598 -0.88846,-0.39692 -0.65016,-0.96401 0.0612,-0.14554 -0.007,-0.21976 -0.3222,-0.35151 -0.42975,-0.17956 -0.42032,-0.18389 -0.73474,0.33751 -0.10718,0.17773 -0.14295,0.17465 -0.68314,-0.0587 -1.36611,-0.59023 -1.22835,-0.56859 -1.40802,-0.22116 -0.0882,0.17067 -0.16046,0.32912 -0.16046,0.35212 0,0.023 0.18172,0.12375 0.40382,0.2239 l 0.40382,0.1821 -0.28881,0.28881 c -0.82009,0.8201 -0.45524,2.30422 0.6898,2.80591 0.41897,0.18356 1.35915,0.18285 1.71308,-10e-4 z"
       id="path8188"
       transform="matrix(0.75000002,0,0,-0.75000002,0,595.28002)" />
    <path
       style="fill:#ffffff;stroke-width:0.105099"
       d="m 156.92892,414.82958 c -1.52908,-0.54519 -1.79973,-2.7109 -0.47083,-3.76756 0.64788,-0.51516 1.65281,-0.49451 2.34267,0.0481 0.89312,0.70253 0.91623,2.51257 0.0423,3.31595 -0.30593,0.28124 -0.94364,0.55845 -1.27024,0.55217 -0.13192,-0.003 -0.42169,-0.0694 -0.64394,-0.14869 z"
       id="path8190"
       transform="matrix(0.75000002,0,0,-0.75000002,0,595.28002)" />
    <path
       style="fill:#ffffff;stroke-width:0.105099"
       d="m 168.25054,413.74707 c 0.0294,-0.10066 0.13281,-0.46679 0.22987,-0.81361 0.0971,-0.34683 0.20179,-0.67363 0.23274,-0.72624 0.0309,-0.0526 0.24101,0.2715 0.46679,0.72023 0.22578,0.44872 0.39566,0.82803 0.37752,0.8429 -0.0181,0.0149 -0.33163,0.0569 -0.69665,0.0934 -0.59823,0.0598 -0.6584,0.0483 -0.61027,-0.11667 z"
       id="path8192"
       transform="matrix(0.75000002,0,0,-0.75000002,0,595.28002)" />
    <path
       style="fill:#ffffff;stroke-width:0.105099"
       d="m 193.8312,392.76411 c -0.38875,-0.12767 -0.73634,-0.26167 -0.77244,-0.29776 -0.0361,-0.0361 -0.01,-0.23419 0.058,-0.4402 0.31315,-0.94885 1.42436,-0.9191 1.68399,0.0451 0.12197,0.45296 0.0458,0.95198 -0.14274,0.93549 -0.066,-0.006 -0.43805,-0.11494 -0.82679,-0.24262 z"
       id="path8194"
       transform="matrix(0.75000002,0,0,-0.75000002,0,595.28002)" />
    <path
       style="fill:#ffffff;stroke-width:0.105099"
       d="m 177.44115,354.47619 c -0.56048,-0.34771 -0.64941,-0.91885 -0.21818,-1.40123 0.34928,-0.39072 0.84758,-0.44466 1.2604,-0.13645 0.57344,0.42814 0.52761,1.24679 -0.0876,1.56493 -0.37853,0.19575 -0.6056,0.18927 -0.9546,-0.0273 z"
       id="path8196"
       transform="matrix(0.75000002,0,0,-0.75000002,0,595.28002)" />
    <path
       style="fill:#ffffff;stroke-width:0.105099"
       d=""
       id="path8198"
       transform="matrix(0.75000002,0,0,-0.75000002,0,595.28002)" />
    <path
       style="fill:#ffffff;stroke-width:0.105099"
       d="m 140.6459,363.29889 -0.27845,-0.29064 1.14232,-1.2563 c 0.62828,-0.69096 1.18446,-1.27033 1.23597,-1.2875 0.0515,-0.0172 0.22086,0.10157 0.37635,0.26386 l 0.28271,0.29508 -1.16348,1.28308 c -0.63991,0.70569 -1.19801,1.28307 -1.24022,1.28307 -0.0422,0 -0.20205,-0.13079 -0.3552,-0.29065 z"
       id="path8200"
       transform="matrix(0.75000002,0,0,-0.75000002,0,595.28002)" />
    <path
       style="fill:#ffffff;stroke-width:0.105099"
       d="m 136.34457,391.22314 -0.17095,-0.63799 0.7004,0.0653 c 1.29576,0.12086 1.28158,0.10147 0.50464,0.68963 -0.37855,0.28657 -0.72762,0.52103 -0.77571,0.52103 -0.0481,0 -0.16437,-0.28709 -0.25838,-0.63799 z"
       id="path8202"
       transform="matrix(0.75000002,0,0,-0.75000002,0,595.28002)" />
  </g>
</svg>
