<?xml version="1.0" encoding="UTF-8" standalone="no"?>
<!-- Created with Inkscape (http://www.inkscape.org/) -->

<svg
   version="1.1"
   id="svg883"
   width="600"
   height="600"
   viewBox="0 0 600 600"
   sodipodi:docname="서울대학교.svg"
   inkscape:version="1.2.1 (9c6d41e410, 2022-07-14)"
   xmlns:inkscape="http://www.inkscape.org/namespaces/inkscape"
   xmlns:sodipodi="http://sodipodi.sourceforge.net/DTD/sodipodi-0.dtd"
   xmlns="http://www.w3.org/2000/svg"
   xmlns:svg="http://www.w3.org/2000/svg">
  <defs
     id="defs887">
    <clipPath
       clipPathUnits="userSpaceOnUse"
       id="clipPath901">
      <path
         d="M 0,450 H 450 V 0 H 0 Z"
         id="path899" />
    </clipPath>
  </defs>
  <sodipodi:namedview
     id="namedview885"
     pagecolor="#ffffff"
     bordercolor="#000000"
     borderopacity="0.25"
     inkscape:showpageshadow="2"
     inkscape:pageopacity="0.0"
     inkscape:pagecheckerboard="true"
     inkscape:deskcolor="#d1d1d1"
     showgrid="false"
     inkscape:zoom="8.9001173"
     inkscape:cx="163.81807"
     inkscape:cy="312.13072"
     inkscape:window-width="2560"
     inkscape:window-height="1494"
     inkscape:window-x="-11"
     inkscape:window-y="-11"
     inkscape:window-maximized="1"
     inkscape:current-layer="g895">
    <inkscape:page
       x="0"
       y="0"
       id="page889"
       width="600"
       height="600" />
  </sodipodi:namedview>
  <g
     inkscape:groupmode="layer"
     id="layer1"
     inkscape:label="Page 2" />
  <g
     id="g891"
     inkscape:groupmode="layer"
     inkscape:label="Page 1"
     transform="matrix(1.3333333,0,0,-1.3333333,0,600)">
    <path
       d="M 428.354,21.646 H 21.647 v 406.707 h 406.707 z"
       style="fill:none;stroke:#dcdddd;stroke-width:1;stroke-linecap:butt;stroke-linejoin:miter;stroke-miterlimit:10;stroke-dasharray:none;stroke-opacity:1"
       id="path893" />
    <g
       id="g895">
      <g
         id="g897"
         clip-path="url(#clipPath901)">
        <g
           id="g903"
           transform="translate(159.5405,201.0664)">
          <path
             d="m 0,0 c 0,0 -3.14,1.804 -3.31,2.095 0,0 -0.331,0.286 -0.331,0.73 0,0 -0.119,0.996 0.698,1.421 0,0 0.348,0.427 1.707,0.427 0,0 1.051,-0.006 1.918,-0.593 L 0.605,5.312 c 0,0 -2.499,0.603 -3.854,-0.065 -1.359,-0.685 -1.683,-1.693 -1.683,-2.415 0,-0.713 0.406,-1.762 1.492,-2.358 0,0 2.803,-1.399 3.487,-2.243 0,0 0.649,-0.901 0.019,-2.039 0,0 -0.685,-0.978 -2.197,-0.978 0,0 -1.646,0 -2.672,0.586 l 0.095,-1.147 c 0,0 1.491,-0.229 2.593,-0.229 0,0 1.803,-0.062 2.695,0.639 0,0 1.146,0.869 1.146,2.213 0,0 0.234,1.583 -1.726,2.724"
             style="fill:#042e86;fill-opacity:1;fill-rule:nonzero;stroke:none"
             id="path905" />
        </g>
        <g
           id="g907"
           transform="translate(164.9834,196.5713)">
          <path
             d="m 0,0 v 4.66 h 3.412 c 0.329,0 0.5,-0.136 0.5,-0.136 V 5.481 H 0 v 3.552 h 3.528 c 0.306,0 0.558,-0.194 0.558,-0.194 L 4.042,9.985 h -5.443 c 0,0 0.197,-0.358 0.197,-0.806 v -9.343 c 0,0 0.042,-0.153 -0.205,-0.698 H 4.456 L 4.613,0.194 C 4.363,-0.016 3.559,0 3.559,0 Z"
             style="fill:#042e86;fill-opacity:1;fill-rule:nonzero;stroke:none"
             id="path909" />
        </g>
        <g
           id="g911"
           transform="translate(176.8945,206.6123)">
          <path
             d="m 0,0 c -2.971,0 -5.379,-2.432 -5.379,-5.438 0,-2.998 2.408,-5.431 5.379,-5.431 2.974,0 5.385,2.433 5.385,5.431 C 5.385,-2.432 2.974,0 0,0 m 0,-10.024 c -2.334,0 -4.221,2.054 -4.221,4.586 0,2.542 1.887,4.595 4.221,4.595 2.334,0 4.221,-2.053 4.221,-4.595 0,-2.532 -1.887,-4.586 -4.221,-4.586"
             style="fill:#042e86;fill-opacity:1;fill-rule:nonzero;stroke:none"
             id="path913" />
        </g>
        <g
           id="g915"
           transform="translate(253.3389,206.6123)">
          <path
             d="m 0,0 c -2.969,0 -5.377,-2.432 -5.377,-5.438 0,-2.998 2.408,-5.431 5.377,-5.431 2.974,0 5.381,2.433 5.381,5.431 C 5.381,-2.432 2.974,0 0,0 m 0,-10.024 c -2.333,0 -4.223,2.054 -4.223,4.586 0,2.542 1.89,4.595 4.223,4.595 2.335,0 4.222,-2.053 4.222,-4.595 0,-2.532 -1.887,-4.586 -4.222,-4.586"
             style="fill:#042e86;fill-opacity:1;fill-rule:nonzero;stroke:none"
             id="path917" />
        </g>
        <g
           id="g919"
           transform="translate(193.2358,206.5508)">
          <path
             d="m 0,0 h -1.447 c 0.155,-0.103 0.177,-0.542 0.177,-0.542 v -6.582 c 0,-1.636 -1.325,-2.955 -2.959,-2.955 -1.636,0 -2.957,1.319 -2.957,2.955 l 0.014,0.151 -0.026,6.941 -1.164,0.027 v -7.148 c 0.03,-2.101 1.867,-3.792 4.125,-3.792 2.282,0 4.131,1.726 4.131,3.845 h -0.013 v 6.569 C -0.119,-0.299 0,0 0,0"
             style="fill:#042e86;fill-opacity:1;fill-rule:nonzero;stroke:none"
             id="path921" />
        </g>
        <g
           id="g923"
           transform="translate(197.6787,196.5039)">
          <path
             d="m 0,0 v 9.36 c 0,0.46 0.187,0.673 0.187,0.673 H -1.326 C -1.169,9.817 -1.202,9.569 -1.202,9.569 V -0.795 H 4.597 L 4.936,0.188 C 4.579,-0.017 4.011,0 4.011,0 Z"
             style="fill:#042e86;fill-opacity:1;fill-rule:nonzero;stroke:none"
             id="path925" />
        </g>
        <g
           id="g927"
           transform="translate(286.8838,196.5039)">
          <path
             d="m 0,0 v 9.36 c 0,0.46 0.182,0.673 0.182,0.673 H -1.327 C -1.165,9.817 -1.205,9.569 -1.205,9.569 V -0.795 H 4.581 L 4.929,0.188 C 4.568,-0.017 4.002,0 4.002,0 Z"
             style="fill:#042e86;fill-opacity:1;fill-rule:nonzero;stroke:none"
             id="path929" />
        </g>
        <g
           id="g931"
           transform="translate(219.333,205.791)">
          <path
             d="m 0,0 v -7.597 l -7.58,8.365 h -1.225 c 0,0 0.213,-0.261 0.213,-0.83 v -9.249 c 0,0 -0.016,-0.461 -0.155,-0.733 v -0.009 h 1.199 c -0.133,0.285 -0.133,0.785 -0.133,0.785 v 8.509 l 8.507,-9.232 v 10.03 c 0,0.316 0.143,0.729 0.143,0.729 H -0.182 C 0.021,0.561 0,0 0,0"
             style="fill:#042e86;fill-opacity:1;fill-rule:nonzero;stroke:none"
             id="path933" />
        </g>
        <g
           id="g935"
           transform="translate(269.9375,205.791)">
          <path
             d="m 0,0 v -7.597 l -7.577,8.365 h -1.236 c 0,0 0.221,-0.261 0.221,-0.83 v -9.249 c 0,0 -0.023,-0.461 -0.158,-0.733 v -0.009 h 1.199 c -0.129,0.285 -0.129,0.785 -0.129,0.785 v 8.509 l 8.508,-9.232 v 10.03 c 0,0.316 0.153,0.729 0.153,0.729 h -1.17 C 0.021,0.561 0,0 0,0"
             style="fill:#042e86;fill-opacity:1;fill-rule:nonzero;stroke:none"
             id="path937" />
        </g>
        <g
           id="g939"
           transform="translate(227.7305,206.5566)">
          <path
             d="m 0,0 h -1.382 c 0,0 0.175,-0.451 0.043,-0.896 l -3.506,-8.93 c 0,0 -0.429,-0.839 -0.679,-1.022 h 1.312 c -0.069,0.34 0.122,0.668 0.122,0.668 l 1.437,3.493 h 4.427 l 1.492,-3.08 c 0.248,-0.636 0.188,-1.081 0.188,-1.081 H 5.31 c -0.702,0.906 -0.99,1.57 -0.99,1.57 z m -2.386,-5.87 1.724,4.376 2.081,-4.376 z"
             style="fill:#042e86;fill-opacity:1;fill-rule:nonzero;stroke:none"
             id="path941" />
        </g>
        <g
           id="g943"
           transform="translate(278.5283,206.5566)">
          <path
             d="m 0,0 h -1.381 c 0,0 0.175,-0.451 0.045,-0.896 l -3.499,-8.93 c 0,0 -0.427,-0.839 -0.672,-1.022 h 1.3 c -0.067,0.34 0.122,0.668 0.122,0.668 l 1.434,3.493 h 4.422 l 1.494,-3.08 c 0.254,-0.636 0.191,-1.081 0.191,-1.081 h 1.85 c -0.701,0.906 -0.993,1.57 -0.993,1.57 z m -2.117,-5.87 1.723,4.376 2.074,-4.376 z"
             style="fill:#042e86;fill-opacity:1;fill-rule:nonzero;stroke:none"
             id="path945" />
        </g>
        <g
           id="g947"
           transform="translate(233.2773,206.5322)">
          <path
             d="M 0,0 -0.084,-0.02 -0.34,-0.95 c 0,0 0.23,0.127 0.669,0.127 h 2.915 v -9.407 c 0,0 -0.043,-0.483 -0.1,-0.62 h 1.567 c 0,0 -0.173,0.363 -0.173,0.647 v 9.356 h 2.273 c 0,0 0.86,0 1.226,-0.232 L 7.825,0 Z"
             style="fill:#042e86;fill-opacity:1;fill-rule:nonzero;stroke:none"
             id="path949" />
        </g>
        <g
           id="g951"
           transform="translate(245.3389,206.5566)">
          <path
             d="m 0,0 h -1.494 c 0,0 0.188,-0.305 0.188,-0.604 v -9.527 c 0,0 -0.024,-0.439 -0.188,-0.743 h 1.49 c 0,0 -0.185,0.304 -0.185,0.77 v 9.524 c 0,0 0.064,0.45 0.189,0.58"
             style="fill:#042e86;fill-opacity:1;fill-rule:nonzero;stroke:none"
             id="path953" />
        </g>
        <g
           id="g955"
           transform="translate(363.0596,201.1338)">
          <path
             d="m 0,0 c 0,0 -3.139,1.799 -3.313,2.09 0,0 -0.333,0.291 -0.333,0.735 0,0 -0.113,0.988 0.699,1.416 0,0 0.347,0.423 1.704,0.423 0,0 1.052,-0.002 1.929,-0.584 L 0.608,5.314 c 0,0 -2.506,0.596 -3.86,-0.081 -1.356,-0.671 -1.685,-1.688 -1.685,-2.402 0,-0.711 0.41,-1.761 1.493,-2.362 0,0 2.804,-1.405 3.487,-2.246 0,0 0.658,-0.9 0.019,-2.034 0,0 -0.682,-0.983 -2.196,-0.983 0,0 -1.646,0 -2.674,0.591 l 0.097,-1.144 c 0,0 1.494,-0.231 2.597,-0.231 0,0 1.803,-0.063 2.69,0.641 0,0 1.153,0.868 1.153,2.198 0,0 0.223,1.595 -1.729,2.739"
             style="fill:#042e86;fill-opacity:1;fill-rule:nonzero;stroke:none"
             id="path957" />
        </g>
        <g
           id="g959"
           transform="translate(341.5264,196.5801)">
          <path
             d="M 0,0 V 4.658 H 3.405 C 3.734,4.658 3.91,4.521 3.91,4.521 V 5.483 H 0 v 3.541 h 3.524 c 0.307,0 0.563,-0.186 0.563,-0.186 L 4.042,9.984 h -5.447 c 0,0 0.202,-0.353 0.202,-0.805 V -0.16 c 0,0 0.035,-0.164 -0.21,-0.709 H 4.454 L 4.613,0.202 C 4.354,-0.018 3.548,0 3.548,0 Z"
             style="fill:#042e86;fill-opacity:1;fill-rule:nonzero;stroke:none"
             id="path961" />
        </g>
        <g
           id="g963"
           transform="translate(306.6973,206.6182)">
          <path
             d="m 0,0 h -1.45 c 0.161,-0.1 0.177,-0.547 0.177,-0.547 v -6.579 c 0,-1.641 -1.318,-2.953 -2.956,-2.953 -1.63,0 -2.955,1.312 -2.955,2.953 l 0.008,0.148 -0.023,6.951 -1.162,0.021 v -7.147 c 0.032,-2.101 1.868,-3.794 4.122,-3.794 2.284,0 4.134,1.718 4.134,3.85 h -0.011 v 6.566 C -0.116,-0.299 0,0 0,0"
             style="fill:#042e86;fill-opacity:1;fill-rule:nonzero;stroke:none"
             id="path965" />
        </g>
        <g
           id="g967"
           transform="translate(319.0869,205.8018)">
          <path
             d="M 0,0 V -7.599 L -7.582,0.76 h -1.225 c 0,0 0.214,-0.248 0.214,-0.82 v -9.246 c 0,0 -0.021,-0.468 -0.157,-0.742 v -0.007 h 1.2 c -0.133,0.287 -0.133,0.777 -0.133,0.777 v 8.517 L 0.83,-9.996 V 0.048 c 0,0.307 0.143,0.712 0.143,0.712 H -0.186 C 0.016,0.558 0,0 0,0"
             style="fill:#042e86;fill-opacity:1;fill-rule:nonzero;stroke:none"
             id="path969" />
        </g>
        <g
           id="g971"
           transform="translate(371.2773,206.5615)">
          <path
             d="M 0,0 -0.086,-0.011 -0.347,-0.94 c 0,0 0.232,0.123 0.668,0.123 h 2.923 v -9.415 c 0,0 -0.051,-0.483 -0.105,-0.61 H 4.7 c 0,0 -0.164,0.362 -0.164,0.647 v 9.353 h 2.276 c 0,0 0.852,0 1.213,-0.23 L 7.814,0 Z"
             style="fill:#042e86;fill-opacity:1;fill-rule:nonzero;stroke:none"
             id="path973" />
        </g>
        <g
           id="g975"
           transform="translate(368.8486,206.6045)">
          <path
             d="m 0,0 h -1.499 c 0,0 0.194,-0.31 0.194,-0.608 v -9.52 c 0,0 -0.03,-0.444 -0.185,-0.751 h 1.481 c 0,0 -0.183,0.307 -0.183,0.771 v 9.523 c 0,0 0.068,0.453 0.192,0.585"
             style="fill:#042e86;fill-opacity:1;fill-rule:nonzero;stroke:none"
             id="path977" />
        </g>
        <g
           id="g979"
           transform="translate(325.4072,206.6045)">
          <path
             d="m 0,0 h -1.5 c 0,0 0.188,-0.31 0.188,-0.608 v -9.52 c 0,0 -0.031,-0.444 -0.182,-0.751 h 1.486 c 0,0 -0.181,0.307 -0.181,0.771 v 9.523 c 0,0 0.057,0.453 0.189,0.585"
             style="fill:#042e86;fill-opacity:1;fill-rule:nonzero;stroke:none"
             id="path981" />
        </g>
        <g
           id="g983"
           transform="translate(336.627,205.8301)">
          <path
             d="M 0,0 -3.681,-8.123 -7.426,0 c -0.295,0.526 -0.148,0.761 -0.148,0.761 h -1.577 c 0,0 0.404,-0.656 0.846,-1.613 l 4.528,-9.488 4.697,10.074 c 0,0 0.429,0.792 0.765,1.027 H 0.146 C 0.146,0.761 0.294,0.526 0,0"
             style="fill:#042e86;fill-opacity:1;fill-rule:nonzero;stroke:none"
             id="path985" />
        </g>
        <g
           id="g987"
           transform="translate(355.4805,197.4102)">
          <path
             d="m 0,0 -3.385,3.964 c 1.003,0 2.05,0.892 2.05,0.892 0.773,0.661 0.773,1.861 0.773,1.861 -0.072,1.125 -0.792,1.687 -0.792,1.687 -0.836,0.85 -2.173,0.785 -2.173,0.785 -2.098,0 -2.953,-0.108 -2.953,-0.108 0,0 0.17,-0.193 0.17,-0.504 V -1.13 c 0,-0.272 -0.127,-0.526 -0.127,-0.526 h 1.483 c -0.172,0.259 -0.161,0.51 -0.161,0.51 v 5.543 h 0.016 l -0.016,0.009 v 3.6 l 0.023,0.112 c 0,0 0.017,0.274 1.009,0.274 0,0 1.104,0.017 1.564,-0.518 0,0 0.659,-0.545 0.659,-1.225 0,0 0.043,-1.116 -0.543,-1.521 0,0 -0.708,-0.722 -2.696,-0.731 l 4.864,-6.037 h 1.71 C 1.11,-1.332 0,0 0,0"
             style="fill:#042e86;fill-opacity:1;fill-rule:nonzero;stroke:none"
             id="path989" />
        </g>
        <g
           id="g991"
           transform="translate(387.4609,206.166)">
          <path
             d="m 0,0 -2.326,-3.976 -2.476,3.877 c -0.175,0.332 -0.102,0.508 -0.102,0.508 h -1.758 c 0,0 0.378,-0.329 0.639,-0.793 l 2.867,-4.46 v -4.999 c 0,0 0.005,-0.371 -0.106,-0.574 h 1.543 c -0.12,0.124 -0.168,0.531 -0.168,0.531 v 5.027 l 2.605,4.031 C 1.514,0.479 1.589,0.446 1.589,0.446 H 0.104 C 0.104,0.212 0,0 0,0"
             style="fill:#042e86;fill-opacity:1;fill-rule:nonzero;stroke:none"
             id="path993" />
        </g>
        <g
           id="g995"
           transform="translate(164.146,246.0122)">
          <path
             d="M 0,0 C -0.09,1.367 -0.039,3.91 -0.039,3.91 H -1.902 -3.76 c 0,0 0.052,-2.543 -0.034,-3.91 -0.273,-4.219 -1.984,-10.926 -8.36,-15.388 l 1.863,-2.748 c 0,0 5.485,2.996 8.389,10.489 2.913,-7.493 8.394,-10.489 8.394,-10.489 l 1.866,2.748 C 1.98,-10.926 0.269,-4.219 0,0"
             style="fill:#042e86;fill-opacity:1;fill-rule:nonzero;stroke:none"
             id="path997" />
        </g>
        <g
           id="g999"
           transform="translate(219.1577,241.4341)">
          <path
             d="m 0,0 c 3.688,0 6.667,2.985 6.667,6.666 0,3.688 -2.979,6.673 -6.667,6.673 -3.681,0 -6.673,-2.985 -6.673,-6.673 C -6.673,2.985 -3.681,0 0,0 m 0,10.163 c 1.934,0 3.485,-1.575 3.485,-3.497 C 3.485,4.74 1.934,3.179 0,3.179 c -1.932,0 -3.486,1.561 -3.486,3.487 0,1.922 1.554,3.497 3.486,3.497"
             style="fill:#042e86;fill-opacity:1;fill-rule:nonzero;stroke:none"
             id="path1001" />
        </g>
        <g
           id="g1003"
           transform="translate(310.1484,238.5435)">
          <path
             d="m 0,0 c 0,-3.613 2.92,-6.536 6.533,-6.536 3.611,0 6.536,2.923 6.536,6.536 0,3.607 -2.925,6.539 -6.536,6.539 C 2.92,6.539 0,3.607 0,0 m 9.853,0 c 0,-1.831 -1.486,-3.317 -3.32,-3.317 -1.828,0 -3.313,1.486 -3.313,3.317 0,1.831 1.485,3.319 3.313,3.319 1.834,0 3.32,-1.488 3.32,-3.319"
             style="fill:#042e86;fill-opacity:1;fill-rule:nonzero;stroke:none"
             id="path1005" />
        </g>
        <g
           id="g1007"
           transform="translate(384.1426,232.0854)">
          <path
             d="M 0,0 C 0,0 -0.41,-6.355 -2.047,-9.99 H 1.469 C 3.07,-5.614 3.333,0.097 3.333,0.097 V 16.898 H 1.237 0 -20.026 V 13.776 H 0 Z"
             style="fill:#042e86;fill-opacity:1;fill-rule:nonzero;stroke:none"
             id="path1009" />
        </g>
        <g
           id="g1011"
           transform="translate(177.6631,217.3906)">
          <path
             d="M 0,0 H 3.663 V 34.187 H 0 V 24.256 H -6.654 V 20.905 H 0 Z"
             style="fill:#042e86;fill-opacity:1;fill-rule:nonzero;stroke:none"
             id="path1013" />
        </g>
        <g
           id="g1015"
           transform="translate(276.4229,237.3945)">
          <path
             d="M 0,0 H 2.752 V -20.004 H 6.406 V 14.183 H 2.752 V 3.354 H 0 V 14.183 H -3.665 V -20.004 H 0 Z"
             style="fill:#042e86;fill-opacity:1;fill-rule:nonzero;stroke:none"
             id="path1017" />
        </g>
        <g
           id="g1019"
           transform="translate(330.8213,217.374)">
          <path
             d="m 0,0 h 3.664 v 10.354 3.125 H 2.338 v 11.443 h 4.913 v 2.999 H 2.338 v 6.283 H -1.326 V 13.479 h -20.619 v -3.125 l 21.945,0 z"
             style="fill:#042e86;fill-opacity:1;fill-rule:nonzero;stroke:none"
             id="path1021" />
        </g>
        <g
           id="g1023"
           transform="translate(231.2334,220.7988)">
          <path
             d="M 0,0 H -21.031 V 2.578 H 0 v 2.208 1.038 2.836 3.252 h -3.352 -7.043 v 4.274 H 1.718 v 3.252 h -27.76 v -3.252 h 12.039 V 11.912 H -24.321 V 8.66 H -3.352 V 5.824 H -24.321 V 3.875 h -0.061 v -7.13 h 0.061 3.29 H 0 Z"
             style="fill:#042e86;fill-opacity:1;fill-rule:nonzero;stroke:none"
             id="path1025" />
        </g>
        <g
           id="g1027"
           transform="translate(378.4902,222.0547)">
          <path
             d="M 0,0 V 15.232 H -3.534 V 0 h -4.071 v 15.232 h -3.536 V 0 h -4.587 V -3.128 H 11.654 V 0 Z"
             style="fill:#042e86;fill-opacity:1;fill-rule:nonzero;stroke:none"
             id="path1029" />
        </g>
        <g
           id="g1031"
           transform="translate(324.998,248.8599)">
          <path
             d="M 0,0 H -6.931 V 3.125 H -10.53 V 0 h -6.932 V -2.999 H 0 Z"
             style="fill:#042e86;fill-opacity:1;fill-rule:nonzero;stroke:none"
             id="path1033" />
        </g>
        <g
           id="g1035"
           transform="translate(269.2178,227.9814)">
          <path
             d="m 0,0 v 3.252 h -9.882 v 14.259 h 9.428 v 3.249 h -9.428 -3.226 -0.382 V -0.021 h 3.608 V 0 Z"
             style="fill:#042e86;fill-opacity:1;fill-rule:nonzero;stroke:none"
             id="path1037" />
        </g>
        <path
           d="M 76.753,224.377 H 74.39 v -2.993 h 2.363 z M 66.421,201.751 c 3.411,-4.505 9.408,-3.479 9.408,-3.479 0.725,6.38 -1.855,8.446 -1.855,8.446 -1.602,-3.384 0.822,-7.469 0.822,-7.469 -3.644,3.365 -8.375,2.502 -8.375,2.502 m 6.221,34.994 -1.144,1.07 c -2.774,-0.703 -4.79,-3.163 -4.79,-3.163 1.304,3.115 0.6,6.03 0.014,7.577 l -0.83,0.682 c -2.408,-4.557 0.259,-9.561 0.259,-9.561 3.697,0.89 5.576,2.349 6.491,3.395 m 7.74,-41.605 c -0.121,1.976 -0.48,3.422 -0.925,4.576 l -2.281,-0.003 c 0.618,-2.165 2.018,-3.797 2.018,-3.797 -4.174,2.684 -8.684,1.017 -8.684,1.017 4.142,-3.848 9.872,-1.793 9.872,-1.793 m -0.559,33.801 v -25.974 h 12.865 c 1.458,-0.034 2.954,-1.175 2.954,-1.175 v 20.775 c -7.794,0.17 -9.366,6.374 -9.366,6.374 z m 6.092,-15.793 h -0.967 v -5.022 h -1.22 v 5.022 h -0.957 v 1.15 h 3.144 z m 6.069,-5.122 c -0.347,0 -0.771,0.105 -1.05,0.313 v 1.162 c 0.287,-0.197 0.564,-0.329 0.926,-0.329 0.391,0 0.704,0.261 0.704,0.674 0,0.472 -0.379,0.653 -0.721,0.901 -0.707,0.474 -1.138,0.93 -1.138,1.833 0,0.974 0.563,1.815 1.612,1.815 0.393,0 0.746,-0.106 1.08,-0.302 v -1.19 c -0.245,0.213 -0.546,0.394 -0.883,0.394 -0.379,0 -0.617,-0.226 -0.617,-0.604 0,-1.016 1.859,-1.073 1.859,-2.742 0,-1.098 -0.626,-1.925 -1.772,-1.925 m 0.902,13.788 h 1.221 v -6.174 h -1.221 z m -3.834,0 h 1.228 c 0.777,0 2.168,-0.083 2.168,-1.771 0,-0.677 -0.271,-1.259 -0.876,-1.591 l 1.074,-2.811 H 91.36 l -1.072,2.849 h -0.016 v -2.849 h -1.22 z m 1.283,-13.688 h -1.3 l -0.23,1.037 h -1.236 l -0.221,-1.037 h -1.212 l 1.433,6.172 h 1.284 z m -1.532,13.688 v -1.148 h -1.237 v -1.343 h 1.088 v -1.145 h -1.088 v -1.392 h 1.251 v -1.145 h -2.468 v 6.164 l -1.712,-6.164 H 83.64 l -1.783,6.173 h 1.305 l 0.737,-2.965 c 0.108,-0.35 0.15,-0.703 0.224,-1.054 h 0.014 c 0.066,0.358 0.093,0.709 0.191,1.07 l 0.741,2.949 z m 20.888,20.545 -3.856,-4.193 0.04,-6.703 c 0,0 -0.119,-1.106 -0.356,-1.656 h 2.479 l 7.082,7.086 z M 76.833,210.247 H 74.47 v -2.987 h 2.363 z m 3.855,29.003 4.96,-4.875 v 3.775 l -4.96,4.958 z m -3.913,-41.806 c 0.313,0 0.561,0.252 0.561,0.562 0,0.309 -0.248,0.561 -0.561,0.561 -0.308,0 -0.559,-0.252 -0.559,-0.561 0,-0.31 0.251,-0.562 0.559,-0.562 m -8.981,39.961 c 0,-0.307 0.252,-0.56 0.56,-0.56 0.312,0 0.562,0.253 0.562,0.56 0,0.31 -0.25,0.564 -0.562,0.564 -0.308,0 -0.56,-0.254 -0.56,-0.564 m 9.015,-35.87 c 0.024,-0.256 0.068,0.057 0.068,0.057 v 3.649 l -0.6,-0.666 c 0.342,-0.923 0.46,-2.246 0.532,-3.04 m 8.839,30.971 v 0.763 l -3.662,3.662 H 73.41 l 4.843,-4.425 z m -18.611,10.413 c 0,0 -0.321,2.001 1.765,4.994 H 61.76 c 0,0 0.299,-0.819 5.277,-4.994 m -6.101,-10.984 c -1.263,-5.512 3.382,-9.446 3.382,-9.446 5.351,3.538 5.273,6.846 5.273,6.846 -3.623,-0.943 -5.196,-5.43 -5.196,-5.43 0.237,4.958 -3.459,8.03 -3.459,8.03 m 4.146,-2.551 c 1.094,4.84 -2.015,8.504 -2.015,8.504 -2.197,-5.209 1.692,-9.89 1.692,-9.89 5.885,2.559 6.381,5.827 6.381,5.827 -3.728,-0.3 -6.058,-4.441 -6.058,-4.441 m 0.495,-2.314 c 0,0.31 -0.252,0.561 -0.56,0.561 -0.313,0 -0.561,-0.251 -0.561,-0.561 0,-0.307 0.248,-0.558 0.561,-0.558 0.308,0 0.56,0.251 0.56,0.558 M 94.27,198.678 h 3.692 c 0,0 0.243,1.603 1.287,1.603 h 15.331 v 26.976 l -1.524,1.604 v -26.73 H 99.328 c 0,0 -1.847,-0.164 -3.294,-1.928 0,0 -1.12,1.686 -3.528,1.845 H 79.099 v 26.573 l -1.647,-1.645 v -26.695 h 14.97 c 0,0 1.848,-0.078 1.848,-1.603 M 70.243,248.25 c -3.846,-4.142 -1.791,-9.871 -1.791,-9.871 6.404,0.391 7.986,3.289 7.986,3.289 -3.605,0.995 -7.211,-2.103 -7.211,-2.103 2.684,4.177 1.016,8.685 1.016,8.685 m 18.071,-36.477 -0.141,0.939 h -0.017 l -0.129,-0.939 -0.262,-1.642 h 0.861 z m 35.426,-11.608 c 0.932,0.58 1.818,1.37 2.555,2.449 0,0 -2.028,0.265 -4.399,-0.539 z m 3.901,24.479 c 0,0 -1.68,4.449 -5.324,5.311 0,0 0,-3.308 5.433,-6.725 0,0 4.552,4.045 3.162,9.524 0,0 -3.625,-3.157 -3.271,-8.11 m -6.826,-13.274 c 0,0 -2.123,-2.535 -0.158,-8.64 0,0 6.084,0.17 8.541,5.258 0,0 -4.805,-0.087 -7.72,-4.107 0,0 1.574,4.487 -0.663,7.489 m 6.676,7.757 c 0,0 -0.88,4.678 -4.315,6.153 0,0 -0.577,-3.255 4.18,-7.563 0,0 5.186,3.192 4.769,8.827 0,0 -4.12,-2.481 -4.634,-7.417 m -4.288,1.404 c 0,0 -1.128,-3.108 2.808,-8.176 0,0 5.658,2.242 6.226,7.867 0,0 -4.482,-1.726 -5.844,-6.501 0,0 -0.061,4.756 -3.19,6.81 m 3.601,-4.177 c 0.312,0 0.563,0.254 0.563,0.565 0,0.31 -0.251,0.56 -0.563,0.56 -0.309,0 -0.558,-0.25 -0.558,-0.56 0,-0.311 0.249,-0.565 0.558,-0.565 m -3.278,-9.593 c 0,0.31 -0.248,0.561 -0.56,0.561 -0.309,0 -0.56,-0.251 -0.56,-0.561 0,-0.31 0.251,-0.561 0.56,-0.561 0.312,0 0.56,0.251 0.56,0.561 m -47.404,33.406 h 0.005 c -0.224,-0.173 -1.781,-1.6 -4.155,-1.885 l 0.808,-0.763 8.5,0.043 -2.637,2.634 H 78.64 l -1.337,1.338 c 0,0 -0.944,-1.206 -1.181,-1.367 m 32.859,-27.498 h -0.017 l -0.131,-0.933 -0.261,-1.644 h 0.859 l -0.311,1.644 z m -17.721,7.366 c 0,0.443 -0.213,0.804 -0.825,0.772 h -0.163 v -1.645 l 0.213,-0.008 c 0.557,0 0.775,0.374 0.775,0.881 m 5.246,2.689 v -20.932 c 0,0 1.182,1.175 2.834,1.175 h 12.99 v 25.974 h -7.007 c 0,0 -1.988,-6.129 -8.817,-6.217 m 1.567,-0.953 h 1.22 v -5.025 h 1.275 v -1.143 h -2.495 z m 3.955,-13.689 -0.293,4.449 h -0.018 l -0.197,-1.523 -0.522,-2.926 h -0.941 l -0.599,2.958 -0.204,1.376 v 0.115 h -0.016 l -0.179,-4.449 h -1.313 l 0.541,6.173 h 1.607 l 0.597,-3.644 h 0.014 l 0.493,3.644 h 1.638 l 0.646,-6.173 z m 7.812,0 -0.23,1.041 h -1.236 l -0.221,-1.041 h -1.209 l 1.43,6.173 h 1.287 l 1.483,-6.173 z m -3.714,13.689 h 1.372 l 0.355,-0.857 c 0.104,-0.305 0.231,-0.62 0.294,-0.94 h 0.014 c 0.067,0.32 0.166,0.628 0.279,0.94 l 0.37,0.857 h 1.316 l -1.316,-2.987 1.414,-3.181 h -1.414 l -0.393,0.978 c -0.115,0.313 -0.189,0.618 -0.27,0.925 h -0.017 c -0.09,-0.307 -0.161,-0.612 -0.27,-0.925 l -0.362,-0.978 h -1.372 l 1.306,3.181 z m 0.331,-7.516 v -1.144 h -1.236 v -1.342 h 1.088 v -1.147 h -1.088 v -1.391 h 1.257 v -1.149 h -2.475 v 6.173 z m -3.139,2.353 c 0.597,0 0.597,0.451 0.604,0.909 v 4.254 h 1.221 v -4.5 c 0,-0.655 -0.075,-1.768 -1.833,-1.768 -1.137,0 -1.817,0.534 -1.817,1.688 v 4.58 h 1.22 v -3.993 c 0,-0.466 -0.058,-1.17 0.605,-1.17 m -23.397,27.191 c 0,0 -0.553,-0.806 -2.656,-1.262 l 2.656,-2.456 z m 6.745,-10.748 c 0,-6.533 4.094,-9.551 9.145,-9.551 5.058,0 9.155,3.01 9.155,9.551 v 18.624 H 86.668 c 0,0 -0.002,-12.099 -0.002,-18.624 m 4.409,13.196 v 2.756 h 8.579 v -3.937 h 2.832 v -2.834 h -2.753 v -1.259 h 2.753 v -3.069 h -2.753 v -9.208 h -2.36 l -3.268,3.266 -2.988,-2.99 -2.164,2.164 4.958,4.959 2.557,-2.558 v 12.71 z m -12.229,-14.432 2.187,-1.927 h 4.929 c -0.237,0.391 -0.161,1.884 -0.161,1.884 z m 39.655,-24.623 c 0,0 -0.397,-0.421 -0.53,-1.053 l 1.187,-1.234 c -0.066,0.772 -0.261,1.552 -0.657,2.287 m -46.61,-5.036 c 1.823,6.153 -0.361,8.634 -0.361,8.634 -2.166,-3.05 -0.488,-7.497 -0.488,-7.497 -3.008,3.948 -7.815,3.921 -7.815,3.921 2.58,-5.029 8.664,-5.058 8.664,-5.058 m -0.304,40.772 c 6.376,-0.723 8.439,1.858 8.439,1.858 -3.378,1.604 -7.469,-0.82 -7.469,-0.82 3.372,3.645 2.51,8.375 2.51,8.375 -4.509,-3.408 -3.48,-9.413 -3.48,-9.413 M 84.935,197.83 c 0.3,-3.727 4.444,-6.056 4.444,-6.056 -4.842,1.089 -8.509,-2.019 -8.509,-2.019 5.208,-2.194 9.89,1.693 9.89,1.693 -2.559,5.884 -5.825,6.382 -5.825,6.382 m -16.248,8.832 c 2.861,5.743 1.145,8.566 1.145,8.566 -2.668,-2.626 -1.786,-7.302 -1.786,-7.302 -2.276,4.414 -7.013,5.22 -7.013,5.22 1.665,-5.398 7.654,-6.484 7.654,-6.484 m 12.865,-6.963 -0.795,0.006 c -0.044,-3.526 3.35,-6.308 3.35,-6.308 -4.581,1.917 -8.728,-0.506 -8.728,-0.506 4.746,-3.068 10.03,-0.051 10.03,-0.051 -1.03,4.287 -2.833,6.126 -3.857,6.859 m -11.817,-2.664 c 0,0 0.875,0.521 2.142,0.709 l -1.404,0.329 -0.137,-0.175 c 0.079,0.114 0.137,0.175 0.137,0.175 l -6.233,-6.557 c 0,0 -0.709,-1.02 -0.037,-1.691 0,0 0.626,-0.513 1.493,0.078 l 6.068,5.31 c -0.612,0.315 -1.954,1.433 -2.029,1.822 m -3.424,14.622 c 3.819,5.156 2.612,8.236 2.612,8.236 -3.076,-2.125 -3.024,-6.882 -3.024,-6.882 -1.47,4.741 -5.999,6.364 -5.999,6.364 0.704,-5.611 6.411,-7.718 6.411,-7.718 m 3.2,36.919 -7.377,7.383 c 0,0 -3.087,-2.213 -0.688,-7.383 z m 3.338,2.689 -4.339,4.379 c -2.687,2.686 -5.875,0.914 -5.875,0.914 l 8.549,-8.51 c 0.572,2.184 1.665,3.217 1.665,3.217 m -7.995,-35.059 c 0,-0.31 0.253,-0.56 0.563,-0.56 0.309,0 0.561,0.25 0.561,0.56 0,0.311 -0.252,0.562 -0.561,0.562 -0.31,0 -0.563,-0.251 -0.563,-0.562 m -0.014,0.777 c 4.658,4.419 4.003,7.658 4.003,7.658 -3.399,-1.556 -4.172,-6.25 -4.172,-6.25 -0.627,4.925 -4.805,7.31 -4.805,7.31 -0.281,-5.652 4.974,-8.718 4.974,-8.718 m 4.089,-10.867 c 0,-0.309 0.251,-0.56 0.561,-0.56 0.311,0 0.559,0.251 0.559,0.56 0,0.311 -0.248,0.562 -0.559,0.562 -0.31,0 -0.561,-0.251 -0.561,-0.562 m 46.936,-8.185 c 0.311,0 0.564,0.251 0.564,0.56 0,0.311 -0.253,0.564 -0.564,0.564 -0.31,0 -0.561,-0.253 -0.561,-0.564 0,-0.309 0.251,-0.56 0.561,-0.56 m 2.982,0.73 -1.972,1.608 c 0.041,-0.505 0.104,-1.034 0.199,-1.602 0,0 0.712,-0.084 1.773,-0.006 m 5.519,9.928 c 0,0 0.771,4.691 -1.954,7.254 0,0 -1.655,-2.861 1.344,-8.534 0,0 5.962,1.224 7.498,6.666 0,0 -4.718,-0.923 -6.888,-5.386 m -37.41,-15.654 c 0,0.306 -0.251,0.56 -0.561,0.56 -0.309,0 -0.562,-0.254 -0.562,-0.56 0,-0.314 0.253,-0.562 0.562,-0.562 0.31,0 0.561,0.248 0.561,0.562 m 26.545,3.383 c 0,0 1.218,1.456 1.816,3.505 l -2.282,0.035 c -0.36,-1.119 -0.635,-2.543 -0.702,-4.346 0,0 4.929,-1.636 8.875,1.221 l -1.52,1.219 c -1.684,0.094 -3.998,-0.154 -6.187,-1.634 m 1.66,9.089 v -2.99 l 13.38,-11.096 h 2.676 l -13.619,14.086 z M 95.565,192.503 v -1.399 c -0.646,1.018 -3.169,4.705 -6.017,4.885 0,0 0.97,-3.295 5.233,-5.23 0,0 -5.349,-0.354 -7.533,-3.285 0,0 4.664,-0.418 8.317,3.21 v -2.277 h 1.417 v 2.443 1.653 z m 2.361,-1.733 c 4.249,1.967 5.193,5.273 5.193,5.273 -3.305,-0.234 -6.137,-5.193 -6.137,-5.193 3.699,-3.778 8.498,-3.305 8.498,-3.305 -2.203,2.908 -7.554,3.225 -7.554,3.225 m 5.491,1.167 c 0,0 4.09,2.426 4.302,6.163 0,0 -3.257,-0.574 -5.676,-6.52 0,0 4.77,-3.777 9.926,-1.461 0,0 -3.736,3.025 -8.552,1.818 m 5.232,1.75 c 0,0 3.177,2.728 3.206,6.133 l -1.135,-0.046 c -1.026,-0.9 -2.527,-2.808 -3.363,-6.678 0,0 5.36,-2.893 10.031,0.286 0,0 -4.208,2.329 -8.739,0.305 m -2.814,-0.538 c 0,-0.309 0.255,-0.56 0.561,-0.56 0.313,0 0.564,0.251 0.564,0.56 0,0.309 -0.251,0.562 -0.564,0.562 -0.306,0 -0.561,-0.253 -0.561,-0.562 m 19.826,40.899 c 0,0 2.896,5.355 -0.282,10.028 0,0 -2.327,-4.203 -0.303,-8.739 0,0 -3.098,3.608 -6.816,3.169 0,0 1.131,-3.107 7.401,-4.458 m -13.609,12.52 1.698,1.758 c -1.444,0.334 -4.164,0.814 -6.358,-0.823 0,0 1.128,-1.277 4.66,-0.935 m 11.295,-9.084 c 0.311,0 0.564,0.251 0.564,0.563 0,0.31 -0.253,0.561 -0.564,0.561 -0.308,0 -0.561,-0.251 -0.561,-0.561 0,-0.312 0.253,-0.563 0.561,-0.563 m 3.836,-8.753 c 0,0 3.776,4.77 1.457,9.929 0,0 -3.021,-3.738 -1.817,-8.556 0,0 -2.425,4.087 -6.16,4.303 0,0 0.574,-3.255 6.52,-5.676 m -8.167,26.875 c 1.765,-0.879 3.191,0.043 3.191,0.043 1.968,0.966 3.393,-0.375 3.393,-0.375 1.373,-1.073 1.149,-2.485 1.149,-2.485 0,-1.082 -0.311,-1.157 -0.311,-1.157 -0.656,-0.451 -0.493,0.312 -0.493,0.312 0.019,0.008 0.15,0.532 0.15,0.532 0.257,2.445 -1.936,2.798 -1.936,2.798 -2.325,0.405 -2.908,-1.747 -2.908,-1.747 -0.146,-0.59 -0.159,-1.116 -0.093,-1.577 l -2.906,2.906 0.137,-2.459 6.491,-6.493 h 2.324 l -2.357,2.357 c 1.245,-0.391 2.336,-0.431 2.336,-0.431 3.315,0.204 3.663,3.373 3.663,3.373 0.875,3.314 -2.266,5.988 -2.266,5.988 -2.095,1.802 -5.264,1.947 -5.264,1.947 -4.505,0.523 -6.107,3.403 -6.107,3.403 -0.527,-1.311 -0.39,-3.249 -0.39,-3.249 0.3,-2.987 2.197,-3.686 2.197,-3.686 m 7.369,-27.794 c 0,-0.311 0.25,-0.562 0.559,-0.562 0.31,0 0.561,0.251 0.561,0.562 0,0.313 -0.251,0.561 -0.561,0.561 -0.309,0 -0.559,-0.248 -0.559,-0.561 m -12.301,20.945 1.369,1.389 c -0.579,1.962 -1.762,4.331 -4.681,5.74 0,0 -0.121,-4.2 3.312,-7.129 m 3.44,-38.781 h -2.363 v -2.99 h 2.363 z m 1.837,29.627 c 1.041,-0.296 2.321,-0.518 3.887,-0.582 0,0 0.71,2.119 0.402,4.688 l -2.045,-1.957 c 0.22,-0.518 0.499,-1.044 0.847,-1.559 0,0 -0.565,0.467 -1.468,0.966 z m -44.857,6.385 c 0,-0.31 0.251,-0.561 0.56,-0.561 0.31,0 0.56,0.251 0.56,0.561 0,0.31 -0.25,0.561 -0.56,0.561 -0.309,0 -0.56,-0.251 -0.56,-0.561 m 49.392,-0.674 -6.061,6.059 -5.43,-5.902 5.826,-5.749 z m -12.866,-0.2 -1.22,-1.456 6.611,-6.611 1.338,1.34 z m 6.376,-20.5 h -2.365 v -2.991 h 2.365 z m -28.288,28.555 c 0,0 1.858,-1.228 5.122,1.021 0,0 -4.042,1.662 -5.122,-1.021 m 21.053,-2.117 c 0,0 -1.836,0.558 -4.152,-0.232 l -0.005,-2.114 c 1.41,0.027 2.846,0.367 5.438,1.739 0,0 -1.225,5.956 -6.663,7.496 0,0 0.92,-4.718 5.382,-6.889 m -24.37,-2.632 0.045,2.058 c -2.289,0.673 -4.606,0.237 -4.606,0.237 4.41,2.273 5.219,7.01 5.219,7.01 -5.397,-1.663 -6.486,-7.652 -6.486,-7.652 2.491,-1.24 4.432,-1.62 5.828,-1.653 m -1.697,-1.189 c -3.051,2.168 -7.5,0.488 -7.5,0.488 3.952,3.007 3.923,7.814 3.923,7.814 -5.029,-2.577 -5.059,-8.663 -5.059,-8.663 6.154,-1.823 8.636,0.361 8.636,0.361 m -0.348,4.514 c 0,-0.31 0.251,-0.561 0.559,-0.561 0.311,0 0.561,0.251 0.561,0.561 0,0.31 -0.25,0.561 -0.561,0.561 -0.308,0 -0.559,-0.251 -0.559,-0.561 m 1.358,0.59 4.233,0.062 c -1.317,0.793 -2.756,0.761 -2.756,0.761 4.741,1.478 6.092,5.7 6.092,5.7 -5.609,-0.701 -7.718,-6.412 -7.718,-6.412 0.075,-0.054 0.077,-0.054 0.149,-0.111 m 22.6,-0.283 c 0,0.307 -0.249,0.558 -0.561,0.558 -0.309,0 -0.56,-0.251 -0.56,-0.558 0,-0.312 0.251,-0.56 0.56,-0.56 0.312,0 0.561,0.248 0.561,0.56 m -2.972,1.106 c 0,0 -1.441,0.032 -2.754,-0.761 l 4.232,-0.062 c 0.074,0.057 0.074,0.057 0.149,0.111 0,0 -2.109,5.711 -7.717,6.412 0,0 1.353,-4.222 6.09,-5.7 m -9.1,0.649 c 0.414,0 0.751,0.34 0.751,0.753 0,0.415 -0.337,0.752 -0.751,0.752 -0.414,0 -0.751,-0.337 -0.751,-0.752 0,-0.413 0.337,-0.753 0.751,-0.753 m 6.573,-0.388 c -1.18,2.638 -5.156,0.828 -5.156,0.828 3.343,-2.127 5.156,-0.828 5.156,-0.828"
           style="fill:#042e86;fill-opacity:1;fill-rule:nonzero;stroke:none"
           id="path1039"
           inkscape:export-filename="..\OneDrive\바탕 화면\잉스케이프-로고\서울대학교.png"
           inkscape:export-xdpi="375.69855"
           inkscape:export-ydpi="375.69855" />
      </g>
    </g>
    <path
       style="fill:#ffffff;stroke-width:0.158898"
       d="m 127.63517,292.81141 -2.18329,-2.1833 -1.98769,1.98291 -1.98769,1.98292 -1.38844,-1.38844 -1.38844,-1.38844 3.2541,-3.25701 3.2541,-3.257 1.71018,1.70487 1.71018,1.70488 v -8.53807 -8.53808 h -3.57521 -3.57522 v -1.74788 -1.74788 h 5.64089 5.64089 v 2.62182 2.62182 h 1.90678 1.90678 v 1.74789 1.74788 h -1.82733 -1.82733 v 0.95339 0.95339 h 1.82733 1.82733 v 1.98623 1.98622 h -1.82733 -1.82733 v 6.11759 6.11758 h -1.54998 -1.54998 z"
       id="path1157"
       transform="matrix(0.75000002,0,0,-0.75000002,0,450.00001)" />
    <path
       style="fill:#ffffff;stroke-width:0.112358"
       d="m 141.62735,312.46457 c 0,-0.0327 0.37813,-0.9876 0.8403,-2.12208 l 0.84031,-2.06268 -0.84031,-1.92619 c -0.46217,-1.05941 -0.8403,-1.94996 -0.8403,-1.97899 0,-0.029 0.37206,-0.0528 0.8268,-0.0528 h 0.82681 l 0.35634,0.90175 c 0.19598,0.49596 0.38625,1.05131 0.42281,1.23411 0.0813,0.40644 0.22039,0.34501 0.32332,-0.14279 0.0422,-0.20013 0.2278,-0.73045 0.41238,-1.17847 l 0.33561,-0.8146 h 0.77602 c 0.42681,0 0.77602,0.0415 0.77602,0.0922 0,0.0507 -0.37663,0.94047 -0.83696,1.97725 l -0.83696,1.88506 0.93035,2.09573 0.93035,2.09572 -0.84205,0.0332 c -0.46476,0.0183 -0.87241,-0.016 -0.9098,-0.0765 -0.056,-0.0906 -0.67729,-1.77128 -0.87698,-2.37238 -0.0308,-0.0927 -0.25656,0.42556 -0.5017,1.15167 l -0.44572,1.32021 h -0.83332 c -0.45833,0 -0.83332,-0.0267 -0.83332,-0.0594 z"
       id="path1161"
       transform="matrix(0.75000002,0,0,-0.75000002,0,450.00001)" />
    <path
       style="fill:#ffffff;stroke-width:0.112358"
       d="m 136.81204,312.47562 c -0.54798,-0.17882 -0.95762,-0.51693 -1.23462,-1.01905 -0.15903,-0.28829 -0.19109,-0.82901 -0.22145,-3.73591 l -0.0355,-3.39883 h 0.78906 0.78905 l 0.0329,3.25454 c 0.0295,2.91251 0.0534,3.27501 0.22798,3.44939 0.29178,0.29153 0.96423,0.25594 1.22393,-0.0648 0.19438,-0.24005 0.21024,-0.50026 0.21024,-3.44939 v -3.18976 h 0.79392 0.79392 l -0.0355,3.39883 c -0.0327,3.13306 -0.0531,3.43398 -0.26022,3.84827 -0.14568,0.29135 -0.38946,0.53953 -0.6931,0.70561 -0.5993,0.32779 -1.70594,0.42126 -2.38066,0.20108 z"
       id="path1163"
       transform="matrix(0.75000002,0,0,-0.75000002,0,450.00001)" />
    <path
       style="fill:#ffffff;stroke-width:0.112358"
       d="m 130.84097,308.4229 v -4.10107 h 0.73033 0.73033 v 3.37074 3.37074 h 0.84268 0.84269 v 0.73033 0.73033 h -1.57302 -1.57301 z"
       id="path1165"
       transform="matrix(0.75000002,0,0,-0.75000002,0,450.00001)" />
    <path
       style="fill:#ffffff;stroke-width:0.112358"
       d="m 130.39154,322.46843 c 0,-0.0305 0.15168,-1.75825 0.33707,-3.83951 0.18539,-2.08126 0.33708,-3.87652 0.33708,-3.98948 0,-0.18419 0.10765,-0.20538 1.04348,-0.20538 h 1.04349 l 0.37634,2.33143 c 0.20698,1.28228 0.41092,2.37039 0.45319,2.41802 0.0423,0.0476 0.22185,-1.00152 0.39905,-2.33143 l 0.32218,-2.41802 h 1.04627 c 0.57544,0 1.04912,0.0379 1.05261,0.0843 0.003,0.0463 0.19514,1.86654 0.42588,4.04489 l 0.41955,3.96062 h -0.75788 -0.75787 l -0.057,-0.36517 c -0.0313,-0.20084 -0.11459,-1.40166 -0.18501,-2.6685 -0.16311,-2.9344 -0.244,-3.3173 -0.42726,-2.02245 -0.0744,0.52528 -0.29528,1.87779 -0.49096,3.00558 l -0.35578,2.05054 h -0.58162 -0.58161 l -0.46219,-2.38761 c -0.2542,-1.31319 -0.49651,-2.6657 -0.53847,-3.00558 -0.13164,-1.06641 -0.22885,-0.2481 -0.31857,2.68189 l -0.083,2.7113 h -0.82948 c -0.45622,0 -0.82949,-0.0249 -0.82949,-0.0554 z"
       id="path1167"
       transform="matrix(0.75000002,0,0,-0.75000002,0,450.00001)" />
    <path
       style="fill:#ffffff;stroke-width:0.112358"
       d="m 138.70604,318.47895 v -4.04489 h 1.57301 1.57301 v 0.67415 0.67414 h -0.7865 -0.78651 v 0.95505 0.95504 h 0.73033 0.73032 v 0.73033 0.73033 h -0.73032 -0.73033 v 0.95504 0.95504 h 0.84269 0.84268 v 0.73033 0.73033 h -1.62919 -1.62919 z"
       id="path1169"
       transform="matrix(0.75000002,0,0,-0.75000002,0,450.00001)" />
    <path
       style="fill:#ffffff;stroke-width:0.112358"
       d="m 142.75715,322.1025 c 0.29828,-1.32726 1.69591,-7.30663 1.74647,-7.47182 0.0501,-0.16356 0.19667,-0.19662 0.87197,-0.19662 h 0.81178 l 0.71746,3.00558 c 0.39461,1.65306 0.82893,3.47326 0.96517,4.04489 l 0.24771,1.03931 h -0.81676 -0.81676 l -0.1378,-0.73033 -0.13781,-0.73033 h -0.87683 -0.87683 l -0.12167,0.56732 c -0.0669,0.31203 -0.12167,0.64068 -0.12167,0.73033 0,0.12667 -0.17265,0.16301 -0.77456,0.16301 h -0.77456 z m 3.12094,-2.6966 c -0.0562,-0.29353 -0.1967,-1.08099 -0.3122,-1.74991 -0.1155,-0.66891 -0.23379,-1.24 -0.26287,-1.26909 -0.0291,-0.0291 -0.11108,0.34125 -0.1822,0.82296 -0.0711,0.48171 -0.19667,1.29296 -0.279,1.80279 l -0.14968,0.92695 h 0.64408 0.64408 z"
       id="path1171"
       transform="matrix(0.75000002,0,0,-0.75000002,0,450.00001)" />
    <path
       style="fill:#ffffff;stroke-width:0.112358"
       d="m 121.6557,322.35633 c -0.35524,-0.1544 -0.36516,-0.17751 -0.36516,-0.85031 0,-0.61412 0.022,-0.68267 0.19662,-0.6119 0.62375,0.2528 0.85888,0.29812 1.20744,0.23273 0.47212,-0.0886 0.73193,-0.43136 0.72717,-0.95944 -0.004,-0.48388 -0.10673,-0.62084 -0.89912,-1.20293 -0.91814,-0.67447 -1.30249,-1.16309 -1.44778,-1.84058 -0.20642,-0.96249 0.0929,-1.92805 0.77584,-2.5027 0.53802,-0.45272 1.43253,-0.5318 2.27687,-0.20129 0.2895,0.11332 0.30898,0.16363 0.30898,0.79787 0,0.37231 -0.0195,0.67693 -0.0433,0.67693 -0.0238,0 -0.18816,-0.0755 -0.36517,-0.16784 -0.41651,-0.21723 -0.937,-0.21487 -1.25187,0.006 -0.19574,0.1371 -0.24972,0.28524 -0.24972,0.68538 0,0.55653 0.0977,0.68167 1.33058,1.70504 0.71377,0.59246 0.92208,0.89659 1.03577,1.51223 0.195,1.0559 -0.30773,2.24422 -1.12606,2.6617 -0.52872,0.26974 -1.56037,0.29878 -2.11106,0.0594 z"
       id="path1175"
       transform="matrix(0.75000002,0,0,-0.75000002,0,450.00001)" />
    <path
       style="fill:#ffffff;stroke-width:0.112358"
       d="m 114.99848,322.25676 c 0,-0.0851 0.40449,-1.88938 0.89887,-4.00952 0.49437,-2.12013 0.89886,-3.87071 0.89886,-3.89017 0,-0.0195 0.36811,-0.0354 0.81801,-0.0354 h 0.81801 l 0.59415,2.49997 c 0.32678,1.37498 0.76114,3.19518 0.96525,4.04489 l 0.37109,1.54492 h -0.81359 -0.81359 l -0.13263,-0.67415 -0.13263,-0.67415 h -0.88756 -0.88756 l -0.13263,0.67415 -0.13263,0.67415 h -0.71571 c -0.53288,0 -0.71571,-0.0395 -0.71571,-0.15472 z m 3.07398,-3.24411 c -0.0871,-0.44803 -0.21574,-1.19381 -0.28595,-1.65728 -0.0702,-0.46348 -0.16264,-0.8833 -0.2054,-0.93293 -0.0676,-0.0784 -0.28319,1.11411 -0.51907,2.8711 l -0.0717,0.5337 h 0.62019 0.62019 z"
       id="path1177"
       transform="matrix(0.75000002,0,0,-0.75000002,0,450.00001)" />
    <path
       style="fill:#ffffff;stroke-width:0.112358"
       d="m 111.7401,319.09692 v -3.31457 h -0.67415 -0.67415 v -0.73032 -0.73033 h 2.07863 2.07862 v 0.73033 0.73032 h -0.67415 -0.67415 v 3.31457 3.31456 h -0.73032 -0.73033 z"
       id="path1179"
       transform="matrix(0.75000002,0,0,-0.75000002,0,450.00001)" />
    <path
       style="fill:#ffffff;stroke-width:0.112358"
       d="m 110.45297,308.56335 c -0.60938,-2.11655 -1.13114,-3.93675 -1.15946,-4.04489 -0.0455,-0.1736 0.0417,-0.19663 0.74378,-0.19663 h 0.79528 l 0.11228,0.42134 c 0.38749,1.45417 1.13232,4.59288 1.13232,4.77159 0,0.11744 0.0506,0.18227 0.11236,0.14408 0.0618,-0.0382 0.11124,-0.2055 0.10987,-0.3718 -0.001,-0.16629 0.26173,-1.35149 0.58466,-2.63378 l 0.58717,-2.33143 h 0.76362 c 0.42,0 0.76365,0.0379 0.76367,0.0843 3e-5,0.0464 -0.49295,1.86643 -1.09549,4.04464 l -1.09553,3.96037 -0.62328,2.5e-4 -0.62329,2.5e-4 z"
       id="path1181"
       transform="matrix(0.75000002,0,0,-0.75000002,0,450.00001)" />
    <path
       style="fill:#ffffff;stroke-width:0.112358"
       d="m 115.2232,308.36672 v -4.04489 h 1.57301 1.57302 v 0.67415 0.67415 h -0.84269 -0.84269 v 0.95504 0.95504 h 0.73033 0.73033 v 0.73033 0.73033 h -0.73033 -0.73033 v 0.95504 0.95505 h 0.84269 0.84269 v 0.73032 0.73033 h -1.57302 -1.57301 z"
       id="path1183"
       transform="matrix(0.75000002,0,0,-0.75000002,0,450.00001)" />
    <path
       style="fill:#ffffff;stroke-width:0.112358"
       d="m 118.81866,308.35544 v -4.05618 l 1.43256,0.0402 c 1.27278,0.0357 1.48645,0.0709 1.91564,0.31599 0.63293,0.36139 0.92863,0.85942 1.00403,1.69097 0.0763,0.84181 -0.16876,1.53831 -0.70789,2.01167 -0.21228,0.18639 -0.38596,0.37886 -0.38596,0.42771 0,0.068 0.93604,2.54813 1.3174,3.49061 0.0457,0.11303 -0.12316,0.1382 -0.75411,0.11236 l -0.81305,-0.0333 -0.66934,-1.79773 c -0.36813,-0.98875 -0.71643,-1.84576 -0.77398,-1.90447 -0.0647,-0.066 -0.10465,0.63091 -0.10465,1.82582 v 1.93256 h -0.73032 -0.73033 z m 2.58138,-0.77237 c 0.28375,-0.28375 0.38481,-0.69247 0.30088,-1.2168 -0.0847,-0.52907 -0.425,-0.8085 -0.98462,-0.8085 h -0.43699 v 1.12358 1.12358 h 0.44944 c 0.29769,0 0.52433,-0.0749 0.67129,-0.22186 z"
       id="path1185"
       transform="matrix(0.75000002,0,0,-0.75000002,0,450.00001)" />
    <path
       style="fill:#ffffff;stroke-width:0.112358"
       d="m 123.87477,308.36672 v -4.04489 h 0.78651 0.7865 v 4.04489 4.04489 h -0.7865 -0.78651 z"
       id="path1187"
       transform="matrix(0.75000002,0,0,-0.75000002,0,450.00001)" />
  </g>
</svg>
