<?xml version="1.0" encoding="UTF-8" standalone="no"?>
<!-- Created with Inkscape (http://www.inkscape.org/) -->

<svg
   version="1.1"
   id="svg7106"
   width="1600"
   height="1600"
   viewBox="0 0 1600 1600"
   sodipodi:docname="숙명여자대학교.svg"
   inkscape:version="1.2.1 (9c6d41e410, 2022-07-14)"
   xmlns:inkscape="http://www.inkscape.org/namespaces/inkscape"
   xmlns:sodipodi="http://sodipodi.sourceforge.net/DTD/sodipodi-0.dtd"
   xmlns="http://www.w3.org/2000/svg"
   xmlns:svg="http://www.w3.org/2000/svg">
  <defs
     id="defs7110">
    <clipPath
       clipPathUnits="userSpaceOnUse"
       id="clipPath7122">
      <path
         d="M 0,1200 H 1200 V 0 H 0 Z"
         id="path7120" />
    </clipPath>
  </defs>
  <sodipodi:namedview
     id="namedview7108"
     pagecolor="#ffffff"
     bordercolor="#000000"
     borderopacity="0.25"
     inkscape:showpageshadow="2"
     inkscape:pageopacity="0.0"
     inkscape:pagecheckerboard="true"
     inkscape:deskcolor="#d1d1d1"
     showgrid="false"
     inkscape:zoom="0.834386"
     inkscape:cx="557.29602"
     inkscape:cy="739.46591"
     inkscape:window-width="2560"
     inkscape:window-height="1494"
     inkscape:window-x="-11"
     inkscape:window-y="-11"
     inkscape:window-maximized="1"
     inkscape:current-layer="g7114">
    <inkscape:page
       x="0"
       y="0"
       id="page7112"
       width="1600"
       height="1600" />
  </sodipodi:namedview>
  <g
     id="g7114"
     inkscape:groupmode="layer"
     inkscape:label="Page 1"
     transform="matrix(1.3333333,0,0,-1.3333333,0,1600)">
    <g
       id="g7116"
       inkscape:export-filename="..\OneDrive\바탕 화면\잉스케이프-로고\숙명여자대학교.png"
       inkscape:export-xdpi="28.523661"
       inkscape:export-ydpi="28.523661">
      <g
         id="g7118"
         clip-path="url(#clipPath7122)">
        <g
           id="g7124"
           transform="translate(137.3633,605.4917)">
          <path
             d="m 0,0 c 0,-258.876 210.624,-469.496 469.481,-469.496 258.901,0 469.529,210.62 469.529,469.496 0,258.904 -210.628,469.514 -469.529,469.514 C 210.624,469.514 0,258.904 0,0"
             style="fill:#0c2d83;fill-opacity:1;fill-rule:nonzero;stroke:none"
             id="path7126" />
        </g>
        <g
           id="g7128"
           transform="translate(249.9331,605.5146)">
          <path
             d="m 0,0 c 0,-196.804 160.121,-356.939 356.917,-356.939 196.809,0 356.944,160.135 356.944,356.939 0,196.819 -160.135,356.921 -356.944,356.921 C 160.121,356.921 0,196.819 0,0"
             style="fill:#ffffff;fill-opacity:1;fill-rule:nonzero;stroke:none"
             id="path7130" />
        </g>
        <g
           id="g7132"
           transform="translate(368.6406,507.499)">
          <path
             d="M 0,0 -13.056,-22.585 5.02,-32.756 31.057,-17.72 Z"
             style="fill:#1f60a9;fill-opacity:1;fill-rule:nonzero;stroke:none"
             id="path7134" />
        </g>
        <g
           id="g7136"
           transform="translate(376.9346,447.9395)">
          <path
             d="M 0,0 26.098,0.027 26.267,35.729 0.238,20.694 Z"
             style="fill:#1f60a9;fill-opacity:1;fill-rule:nonzero;stroke:none"
             id="path7138" />
        </g>
        <g
           id="g7140"
           transform="translate(836.0869,762.3428)">
          <path
             d="m 0,0 -26.084,-0.015 -0.149,-35.753 26.027,15.02 z"
             style="fill:#1f60a9;fill-opacity:1;fill-rule:nonzero;stroke:none"
             id="path7142" />
        </g>
        <g
           id="g7144"
           transform="translate(844.3955,702.769)">
          <path
             d="M 0,0 13.069,22.594 -4.979,32.75 -31.006,17.71 Z"
             style="fill:#1f60a9;fill-opacity:1;fill-rule:nonzero;stroke:none"
             id="path7146" />
        </g>
        <g
           id="g7148"
           transform="translate(813.3711,490.1338)">
          <path
             d="M 0,0 26.028,-15.025 44.094,-4.864 31.024,17.721 Z"
             style="fill:#1f60a9;fill-opacity:1;fill-rule:nonzero;stroke:none"
             id="path7150" />
        </g>
        <g
           id="g7152"
           transform="translate(809.8535,484.0342)">
          <path
             d="m 0,0 0.149,-35.729 h 26.084 l -0.206,20.713 z"
             style="fill:#1f60a9;fill-opacity:1;fill-rule:nonzero;stroke:none"
             id="path7154" />
        </g>
        <g
           id="g7156"
           transform="translate(399.688,720.8491)">
          <path
             d="M 0,0 -26.038,15.039 -44.104,4.875 -31.047,-17.715 Z"
             style="fill:#1f60a9;fill-opacity:1;fill-rule:nonzero;stroke:none"
             id="path7158" />
        </g>
        <g
           id="g7160"
           transform="translate(403.2012,726.9443)">
          <path
             d="m 0,0 -0.169,35.735 -26.098,0.019 0.239,-20.724 z"
             style="fill:#1f60a9;fill-opacity:1;fill-rule:nonzero;stroke:none"
             id="path7162" />
        </g>
        <g
           id="g7164"
           transform="translate(628.1904,883.1074)">
          <path
             d="m 0,0 -17.804,-10.548 v -30.056 l 30.826,17.986 z"
             style="fill:#1f60a9;fill-opacity:1;fill-rule:nonzero;stroke:none"
             id="path7166" />
        </g>
        <g
           id="g7168"
           transform="translate(603.3311,872.5308)">
          <path
             d="M 0,0 -17.827,10.577 -30.883,-12.041 0,-30.051 Z"
             style="fill:#1f60a9;fill-opacity:1;fill-rule:nonzero;stroke:none"
             id="path7170" />
        </g>
        <g
           id="g7172"
           transform="translate(603.3311,827.0054)">
          <path
             d="M 0,0 -37.512,22.285 -50.446,-0.122 0,-30.018 Z"
             style="fill:#1f60a9;fill-opacity:1;fill-rule:nonzero;stroke:none"
             id="path7174" />
        </g>
        <g
           id="g7176"
           transform="translate(647.8281,849.2905)">
          <path
             d="M 0,0 -37.441,-22.262 V -52.28 l 50.389,29.873 z"
             style="fill:#1f60a9;fill-opacity:1;fill-rule:nonzero;stroke:none"
             id="path7178" />
        </g>
        <g
           id="g7180"
           transform="translate(610.3867,338.7939)">
          <path
             d="M 0,0 17.804,-10.554 30.826,12.069 0,30.051 Z"
             style="fill:#1f60a9;fill-opacity:1;fill-rule:nonzero;stroke:none"
             id="path7182" />
        </g>
        <g
           id="g7184"
           transform="translate(585.5044,328.2402)">
          <path
             d="m 0,0 17.827,10.563 v 30.06 l -30.883,-18 z"
             style="fill:#1f60a9;fill-opacity:1;fill-rule:nonzero;stroke:none"
             id="path7186" />
        </g>
        <g
           id="g7188"
           transform="translate(617.9922,901.4028)">
          <path
             d="m 0,0 c 0,-9.065 -4.986,-16.424 -11.147,-16.424 -6.147,0 -11.115,7.359 -11.115,16.424 0,9.089 4.968,16.448 11.115,16.448 C -4.986,16.448 0,9.089 0,0"
             style="fill:#1f60a9;fill-opacity:1;fill-rule:nonzero;stroke:none"
             id="path7190" />
        </g>
        <g
           id="g7192"
           transform="translate(617.9922,309.585)">
          <path
             d="m 0,0 c 0,-9.065 -4.986,-16.42 -11.147,-16.42 -6.147,0 -11.115,7.355 -11.115,16.42 0,9.094 4.968,16.447 11.115,16.447 C -4.986,16.447 0,9.094 0,0"
             style="fill:#1f60a9;fill-opacity:1;fill-rule:nonzero;stroke:none"
             id="path7194" />
        </g>
        <g
           id="g7196"
           transform="translate(868.6826,743.8179)">
          <path
             d="m 0,0 c -7.878,-4.546 -16.729,-3.906 -19.797,1.417 -3.068,5.337 0.785,13.328 8.673,17.866 7.85,4.542 16.719,3.91 19.807,-1.431 C 11.732,12.532 7.841,4.533 0,0"
             style="fill:#1f60a9;fill-opacity:1;fill-rule:nonzero;stroke:none"
             id="path7198" />
        </g>
        <g
           id="g7200"
           transform="translate(356.1641,447.9023)">
          <path
             d="m 0,0 c -7.859,-4.529 -16.733,-3.893 -19.797,1.421 -3.073,5.334 0.81,13.323 8.654,17.87 7.869,4.528 16.724,3.893 19.797,-1.422 C 11.747,12.527 7.854,4.527 0,0"
             style="fill:#1f60a9;fill-opacity:1;fill-rule:nonzero;stroke:none"
             id="path7202" />
        </g>
        <g
           id="g7204"
           transform="translate(356.1548,763.0957)">
          <path
             d="m 0,0 c 7.855,-4.533 11.737,-12.523 8.664,-17.861 -3.087,-5.323 -11.947,-5.963 -19.798,-1.417 -7.863,4.533 -11.75,12.513 -8.663,17.852 C -16.724,3.916 -7.864,4.547 0,0"
             style="fill:#1f60a9;fill-opacity:1;fill-rule:nonzero;stroke:none"
             id="path7206" />
        </g>
        <g
           id="g7208"
           transform="translate(868.6826,467.1934)">
          <path
             d="m 0,0 c 7.841,-4.547 11.732,-12.536 8.663,-17.87 -3.088,-5.314 -11.937,-5.95 -19.807,-1.421 -7.868,4.527 -11.721,12.527 -8.653,17.869 C -16.729,3.893 -7.878,4.528 0,0"
             style="fill:#1f60a9;fill-opacity:1;fill-rule:nonzero;stroke:none"
             id="path7210" />
        </g>
        <g
           id="g7212"
           transform="translate(769.3701,525.6113)">
          <path
             d="M 0,0 49.006,27.591 36.18,50.035 -12.995,22.342 Z"
             style="fill:#1f60a9;fill-opacity:1;fill-rule:nonzero;stroke:none"
             id="path7214" />
        </g>
        <g
           id="g7216"
           transform="translate(731.2822,504.9541)">
          <path
             d="M 0,0 0.581,-56.884 26.458,-56.791 25.842,0 Z"
             style="fill:#1f60a9;fill-opacity:1;fill-rule:nonzero;stroke:none"
             id="path7218" />
        </g>
        <g
           id="g7220"
           transform="translate(457.292,547.2607)">
          <path
             d="M 0,0 -49.783,28.03 -62.623,5.586 -12.944,-22.397 Z"
             style="fill:#1f60a9;fill-opacity:1;fill-rule:nonzero;stroke:none"
             id="path7222" />
        </g>
        <g
           id="g7224"
           transform="translate(455.916,504.9541)">
          <path
             d="M 0,0 -0.604,-57.146 25.248,-57.24 25.851,0 Z"
             style="fill:#1f60a9;fill-opacity:1;fill-rule:nonzero;stroke:none"
             id="path7226" />
        </g>
        <g
           id="g7228"
           transform="translate(771.1016,762.478)">
          <path
             d="m 0,0 -0.618,-56.298 h 4.052 l 21.901,12.657 0.552,43.618 z"
             style="fill:#1f60a9;fill-opacity:1;fill-rule:nonzero;stroke:none"
             id="path7230" />
        </g>
        <g
           id="g7232"
           transform="translate(799.9922,712.7471)">
          <path
             d="m 0,0 -22.94,-13.233 -1.507,-2.644 49.52,-27.856 12.948,22.416 z"
             style="fill:#1f60a9;fill-opacity:1;fill-rule:nonzero;stroke:none"
             id="path7234" />
        </g>
        <g
           id="g7236"
           transform="translate(825.0654,541.6094)">
          <path
             d="m 0,0 -48.969,-27.543 2.124,-3.64 21.752,-12.555 38.041,21.332 z"
             style="fill:#1f60a9;fill-opacity:1;fill-rule:nonzero;stroke:none"
             id="path7238" />
        </g>
        <g
           id="g7240"
           transform="translate(796.4365,491.7617)">
          <path
             d="m 0,0 -22.81,13.192 h -3.162 l 0.637,-56.791 H 0.552 Z"
             style="fill:#1f60a9;fill-opacity:1;fill-rule:nonzero;stroke:none"
             id="path7242" />
        </g>
        <g
           id="g7244"
           transform="translate(601.4893,413.2656)">
          <path
             d="m 0,0 -48.604,-28.806 12.934,-22.398 37.512,22.276 v 25.7 z"
             style="fill:#1f60a9;fill-opacity:1;fill-rule:nonzero;stroke:none"
             id="path7246" />
        </g>
        <g
           id="g7248"
           transform="translate(610.3867,410.1602)">
          <path
             d="M 0,0 V -25.85 L 37.441,-48.099 50.39,-25.7 1.805,3.105 Z"
             style="fill:#1f60a9;fill-opacity:1;fill-rule:nonzero;stroke:none"
             id="path7250" />
        </g>
        <g
           id="g7252"
           transform="translate(440.0864,504.9541)">
          <path
             d="M 0,0 -23.493,-13.558 -24.03,-57.146 1.838,-57.155 2.484,0 Z"
             style="fill:#1f60a9;fill-opacity:1;fill-rule:nonzero;stroke:none"
             id="path7254" />
        </g>
        <g
           id="g7256"
           transform="translate(437.6816,513.3184)">
          <path
             d="M 0,0 -49.716,27.936 -62.642,5.51 l 38.055,-21.34 23.17,13.397 z"
             style="fill:#1f60a9;fill-opacity:1;fill-rule:nonzero;stroke:none"
             id="path7258" />
        </g>
        <g
           id="g7260"
           transform="translate(436.7046,699.48)">
          <path
             d="M 0,0 -23.628,13.646 -61.665,-7.681 -48.739,-30.111 1.178,-2.058 Z"
             style="fill:#1f60a9;fill-opacity:1;fill-rule:nonzero;stroke:none"
             id="path7262" />
        </g>
        <g
           id="g7264"
           transform="translate(442.5708,706.1797)">
          <path
             d="M 0,0 -0.646,56.653 -26.515,56.635 -25.978,13.037 -3.411,0 Z"
             style="fill:#1f60a9;fill-opacity:1;fill-rule:nonzero;stroke:none"
             id="path7266" />
        </g>
        <g
           id="g7268"
           transform="translate(582.0054,447.2656)">
          <path
             d="m 0,0 -48.823,-28.872 13.018,-22.333 48.646,28.788 z"
             style="fill:#1f60a9;fill-opacity:1;fill-rule:nonzero;stroke:none"
             id="path7270" />
        </g>
        <g
           id="g7272"
           transform="translate(618.8906,424.8115)">
          <path
             d="M 0,0 48.585,-28.751 61.59,-6.418 12.995,22.342 Z"
             style="fill:#1f60a9;fill-opacity:1;fill-rule:nonzero;stroke:none"
             id="path7274" />
        </g>
        <g
           id="g7276"
           transform="translate(768.8936,685.2974)">
          <path
             d="m 0,0 -12.883,-22.413 49.539,-27.889 12.826,22.431 z"
             style="fill:#1f60a9;fill-opacity:1;fill-rule:nonzero;stroke:none"
             id="path7278" />
        </g>
        <g
           id="g7280"
           transform="translate(757.1416,706.1797)">
          <path
             d="M 0,0 0.581,56.275 -25.278,56.382 -25.859,0 Z"
             style="fill:#1f60a9;fill-opacity:1;fill-rule:nonzero;stroke:none"
             id="path7282" />
        </g>
        <g
           id="g7284"
           transform="translate(631.4932,763.98)">
          <path
             d="M 0,0 48.987,28.965 35.982,51.293 -12.949,22.356 Z"
             style="fill:#1f60a9;fill-opacity:1;fill-rule:nonzero;stroke:none"
             id="path7286" />
        </g>
        <g
           id="g7288"
           transform="translate(595.104,786.3398)">
          <path
             d="M 0,0 -48.903,28.934 -61.922,6.605 -12.897,-22.379 Z"
             style="fill:#1f60a9;fill-opacity:1;fill-rule:nonzero;stroke:none"
             id="path7290" />
        </g>
        <g
           id="g7292"
           transform="translate(444.5347,685.8721)">
          <path
             d="m 0,0 -49.866,-28.081 12.841,-22.44 49.917,28.114 z"
             style="fill:#1f60a9;fill-opacity:1;fill-rule:nonzero;stroke:none"
             id="path7294" />
        </g>
        <g
           id="g7296"
           transform="translate(481.7671,706.1797)">
          <path
             d="M 0,0 -0.604,56.748 -26.455,56.635 -25.851,0 Z"
             style="fill:#1f60a9;fill-opacity:1;fill-rule:nonzero;stroke:none"
             id="path7298" />
        </g>
        <g
           id="g7300"
           transform="translate(736.624,581.8398)">
          <path
             d="M 0,0 13.043,-22.379 62.282,5.361 53.338,20.808 H 36.872 Z"
             style="fill:#1f60a9;fill-opacity:1;fill-rule:nonzero;stroke:none"
             id="path7302" />
        </g>
        <g
           id="g7304"
           transform="translate(686.4492,751.3916)">
          <path
             d="M 0,0 9.01,15.625 0.729,30.032 -48.268,1.043 -35.721,-20.63 Z"
             style="fill:#1f60a9;fill-opacity:1;fill-rule:nonzero;stroke:none"
             id="path7306" />
        </g>
        <g
           id="g7308"
           transform="translate(692.2129,706.1797)">
          <path
             d="M 0,0 H 25.747 L 26.346,56.425 8.514,56.401 0,41.638 Z"
             style="fill:#1f60a9;fill-opacity:1;fill-rule:nonzero;stroke:none"
             id="path7310" />
        </g>
        <g
           id="g7312"
           transform="translate(749.3574,651.3311)">
          <path
             d="m 0,0 -12.331,-21.472 35.469,-20.443 h 18.281 l 8.13,14.011 z"
             style="fill:#1f60a9;fill-opacity:1;fill-rule:nonzero;stroke:none"
             id="path7314" />
        </g>
        <g
           id="g7316"
           transform="translate(692.2129,504.9541)">
          <path
             d="M 0,0 V -40.455 L 9.411,-56.791 26.346,-56.922 25.728,0 Z"
             style="fill:#1f60a9;fill-opacity:1;fill-rule:nonzero;stroke:none"
             id="path7318" />
        </g>
        <g
           id="g7320"
           transform="translate(651.5332,480.9277)">
          <path
             d="m 0,0 -12.949,-22.248 48.595,-28.76 8.626,14.763 -9.207,15.962 z"
             style="fill:#1f60a9;fill-opacity:1;fill-rule:nonzero;stroke:none"
             id="path7322" />
        </g>
        <g
           id="g7324"
           transform="translate(526.1606,460.7754)">
          <path
             d="M 0,0 -8.757,-15.213 0.336,-30.855 49.184,-1.946 36.141,20.808 Z"
             style="fill:#1f60a9;fill-opacity:1;fill-rule:nonzero;stroke:none"
             id="path7326" />
        </g>
        <g
           id="g7328"
           transform="translate(520.3271,504.9541)">
          <path
             d="m 0,0 h -25.238 l -0.608,-57.277 16.321,0.019 L 0,-40.773 Z"
             style="fill:#1f60a9;fill-opacity:1;fill-rule:nonzero;stroke:none"
             id="path7330" />
        </g>
        <g
           id="g7332"
           transform="translate(440.3672,602.6475)">
          <path
             d="m 0,0 h -17.206 l -9.023,-15.793 49.815,-28.067 13.136,22.697 z"
             style="fill:#1f60a9;fill-opacity:1;fill-rule:nonzero;stroke:none"
             id="path7334" />
        </g>
        <g
           id="g7336"
           transform="translate(476.5044,630.3125)">
          <path
             d="m 0,0 -12.42,21.607 -49.946,-28.132 8.336,-14.371 h 17.967 z"
             style="fill:#1f60a9;fill-opacity:1;fill-rule:nonzero;stroke:none"
             id="path7338" />
        </g>
        <g
           id="g7340"
           transform="translate(535.7593,745.8384)">
          <path
             d="M 0,0 27.029,-15.54 39.795,6.568 -9.263,35.585 -18.071,20.293 -9.641,5.693 Z"
             style="fill:#1f60a9;fill-opacity:1;fill-rule:nonzero;stroke:none"
             id="path7342" />
        </g>
        <g
           id="g7344"
           transform="translate(520.3271,706.1797)">
          <path
             d="M 0,0 V 41.858 L -8.608,56.752 -25.846,56.78 -25.238,0 Z"
             style="fill:#1f60a9;fill-opacity:1;fill-rule:nonzero;stroke:none"
             id="path7346" />
        </g>
        <g
           id="g7348"
           transform="translate(530.5483,717.5889)">
          <path
             d="M 0,0 C 2.54,1.221 5.735,1.492 8.813,0.505 L 22.702,-3.864 28.872,6.848 -3.443,25.415 V -2.947 C -2.586,-1.707 -1.408,-0.697 0,0"
             style="fill:#1f60a9;fill-opacity:1;fill-rule:nonzero;stroke:none"
             id="path7350" />
        </g>
        <g
           id="g7352"
           transform="translate(671.6113,716.3672)">
          <path
             d="m 0,0 3.854,-0.284 c 0,0 5.707,-0.235 9.983,-4.305 V 26.637 L -17.496,8.547 -12.527,0 Z"
             style="fill:#1f60a9;fill-opacity:1;fill-rule:nonzero;stroke:none"
             id="path7354" />
        </g>
        <g
           id="g7356"
           transform="translate(538.688,489.7129)">
          <path
             d="m 0,0 c -1.277,-0.196 -2.742,-0.262 -3.804,-0.262 -0.369,0 -0.758,0.01 -1.136,0.066 C -5.337,-0.252 -6.161,0 -6.161,0 c -1.735,0.412 -3.317,1.244 -4.599,2.424 -0.303,0.27 -0.565,0.607 -0.823,0.917 V -20.61 L 20.259,-2.292 17.196,3.06 C 10.848,1.487 4.921,0.506 0,0"
             style="fill:#1f60a9;fill-opacity:1;fill-rule:nonzero;stroke:none"
             id="path7358" />
        </g>
        <g
           id="g7360"
           transform="translate(679.1045,489.4785)">
          <path
             d="m 0,0 c 0,0 -0.775,-0.252 -1.187,-0.206 -0.413,-0.046 -1.124,0 -1.61,0.057 -1.048,0.093 -2.17,0.187 -2.937,0.337 -3.613,0.364 -7.57,1.01 -12.033,1.964 -1.029,0.206 -2.104,0.525 -3.143,0.758 L -24.109,-2.601 6.353,-20.264 6.325,4.463 C 4.912,2.256 2.686,0.618 0,0"
             style="fill:#1f60a9;fill-opacity:1;fill-rule:nonzero;stroke:none"
             id="path7362" />
        </g>
        <g
           id="g7364"
           transform="translate(645.041,496.2617)">
          <path
             d="m 0,0 c -2.789,1.029 -5.465,2.161 -8.01,3.368 -1.851,0.89 -3.63,1.787 -5.322,2.761 -0.122,0.093 -0.291,0.186 -0.44,0.27 -1.235,0.711 -2.415,1.395 -3.555,2.143 -1.442,0.954 -2.845,1.899 -4.192,2.919 -0.168,0.103 -0.309,0.226 -0.449,0.318 -1.441,1.105 -2.844,2.245 -4.182,3.397 -5.1,4.518 -9.337,9.664 -12.738,15.353 -3.411,-5.736 -7.714,-10.872 -12.85,-15.419 -1.498,-1.282 -3.023,-2.563 -4.683,-3.761 -0.084,-0.037 -0.141,-0.094 -0.202,-0.15 -2.558,-1.889 -5.304,-3.648 -8.218,-5.266 -0.791,-0.459 -1.6,-0.89 -2.414,-1.302 C -68.125,4.145 -69,3.752 -69.907,3.304 -72.419,2.114 -75.063,1.029 -77.79,0 c -1.548,-0.579 -3.106,-1.094 -4.649,-1.59 L -38.247,-78.654 5.968,-1.937 C 3.985,-1.328 2.021,-0.748 0,0"
             style="fill:#0c2d83;fill-opacity:1;fill-rule:nonzero;stroke:none"
             id="path7366" />
        </g>
        <g
           id="g7368"
           transform="translate(733.1533,587.8096)">
          <path
             d="M 0,0 31.735,18.206 0.506,36.197 -10.234,17.533 Z"
             style="fill:#1f60a9;fill-opacity:1;fill-rule:nonzero;stroke:none"
             id="path7370" />
        </g>
        <g
           id="g7372"
           transform="translate(479.8911,624.4282)">
          <path
             d="m 0,0 -31.819,-18.413 32.385,-18.673 10.413,18 z"
             style="fill:#1f60a9;fill-opacity:1;fill-rule:nonzero;stroke:none"
             id="path7374" />
        </g>
        <g
           id="g7376"
           transform="translate(611.3086,663.9282)">
          <path
             d="M 0,0 V -0.487 -5.792 -53.3 c 0,-5.745 -5.096,-10.488 -11.354,-10.488 h -0.149 c -6.241,0 -11.327,4.743 -11.327,10.488 V -5.792 -0.487 0 6.212 h -8.073 c -3.251,0 -6.147,1.08 -8.248,2.789 -0.191,0.159 -0.392,0.346 -0.579,0.532 -1.582,1.516 -2.507,3.444 -2.507,5.539 v 0.285 c 0.177,4.735 5.22,8.576 11.334,8.576 h 8.073 v 22.58 6.029 c 0,2.25 0.768,4.346 2.116,6.082 2.035,2.643 5.422,4.392 9.211,4.392 h 0.149 C -5.096,63.016 0,58.287 0,52.542 v -2.998 h 10.922 c 6.212,0 11.32,-3.972 11.32,-8.855 0,-4.861 -5.108,-8.842 -11.32,-8.842 H 0 v -7.914 h 11.765 c 6.136,0 11.132,-3.841 11.301,-8.576 0,-0.097 0.047,-0.182 0.047,-0.285 0,-2.095 -0.964,-4.023 -2.536,-5.539 C 20.391,9.347 20.185,9.16 19.988,9.001 17.938,7.292 15.02,6.212 11.765,6.212 H 0 Z m -34.351,-54.034 c -0.594,-0.969 -1.352,-1.825 -2.316,-2.517 -0.064,-0.066 -0.116,-0.099 -0.116,-0.099 -1.581,-1.094 -3.536,-1.745 -5.642,-1.745 -5.137,0 -9.328,3.864 -9.328,8.612 0,1.586 0.505,3.101 1.296,4.398 7.56,14.113 6.128,31.44 5.946,33.437 -0.136,0.571 -0.201,1.179 -0.201,1.792 0,1.586 0.477,3.093 1.277,4.364 1.632,2.56 4.64,4.257 8.031,4.257 3.43,0 6.437,-1.697 8.051,-4.257 0.642,-0.977 1.044,-2.114 1.211,-3.321 0.019,-0.047 0.019,-0.117 0.019,-0.13 V -9.28 c 2.368,-27.072 -4.359,-39.843 -8.228,-44.754 m -17.978,41.623 c 1.096,-23.45 -19.076,-44.206 -20.525,-45.67 -1.779,-2.021 -4.482,-3.322 -7.556,-3.322 -1.927,0 -3.709,0.515 -5.244,1.432 -1.885,1.095 -3.367,2.816 -4.06,4.8 -0.015,0.037 -0.015,0.051 -0.023,0.084 -0.272,0.828 -0.398,1.721 -0.398,2.648 0,2.718 1.301,5.15 3.387,6.811 0.201,0.191 0.369,0.359 0.599,0.561 15.464,15.826 14.651,34.803 14.651,34.803 l 0.224,-0.028 c 0.221,1.722 0.997,3.271 2.176,4.5 1.749,1.834 4.388,3.032 7.325,3.032 2.929,0 5.558,-1.198 7.34,-3.032 1.366,-1.458 2.208,-3.344 2.208,-5.416 0,-0.412 -0.024,-0.8 -0.104,-1.203 m -35.102,35.028 c 0.622,1.666 1.829,3.031 3.377,4.01 2.629,1.646 6.25,2.137 9.744,1.043 l 21.561,-6.989 c 3.073,-1.029 5.426,-3.116 6.563,-5.543 0.833,-1.866 0.992,-3.888 0.299,-5.824 0,-0.033 0,-0.104 -0.055,-0.117 -0.019,-0.154 -0.084,-0.28 -0.118,-0.422 -1.922,-4.261 -7.629,-6.333 -12.935,-4.616 l -14.281,4.616 -1.581,0.539 -5.726,1.824 c -2.409,0.768 -4.336,2.241 -5.641,4 -0.262,0.336 -0.473,0.683 -0.712,1.061 -1.042,2.008 -1.295,4.281 -0.495,6.418 M 157.828,35.43 H 78.696 c 0,-0.201 0.037,-0.383 0.019,-0.612 l 0.018,-0.313 C 78.546,24.217 77.994,23.787 76.862,15.357 76.571,13.355 76.264,11.4 75.945,9.533 75.908,9.347 75.87,9.16 75.87,9.001 75.347,5.861 74.729,2.882 74.093,0 74.074,-0.149 74.027,-0.318 73.98,-0.487 c -0.411,-1.819 -0.86,-3.606 -1.309,-5.305 -2.152,-8.321 -4.733,-15.479 -7.447,-21.555 4.078,-6.283 8.99,-12.785 14.913,-19.198 0.169,-0.137 0.318,-0.295 0.449,-0.431 1.571,-1.576 2.535,-3.696 2.535,-5.987 0,-0.74 -0.102,-1.483 -0.318,-2.208 -0.383,-1.479 -1.206,-2.793 -2.301,-3.864 -0.075,-0.075 -0.179,-0.159 -0.253,-0.253 -1.703,-1.525 -4.032,-2.484 -6.54,-2.484 -2.47,0 -4.725,0.913 -6.428,2.376 l -0.093,-0.116 c 0,0 -5.389,5.304 -12.218,14.042 -6.447,-9.009 -11.657,-12.611 -11.657,-12.611 l -0.151,0.089 c -1.665,-1.436 -3.919,-2.34 -6.381,-2.34 -4.153,0 -7.689,2.517 -8.925,5.97 -1.656,-2.432 -4.546,-4.033 -7.896,-4.033 -2.133,0 -4.079,0.651 -5.651,1.745 0,0 -0.038,0.033 -0.113,0.099 -0.944,0.692 -1.739,1.548 -2.32,2.517 -3.836,4.911 -10.6,17.682 -8.214,44.754 v 0.037 c 0,0.013 0,0.083 0.019,0.13 0.121,1.207 0.57,2.344 1.197,3.321 1.619,2.56 4.603,4.257 8.037,4.257 3.434,0 6.409,-1.697 8.055,-4.257 0.804,-1.271 1.272,-2.778 1.272,-4.364 0,-0.613 -0.093,-1.221 -0.233,-1.792 -0.169,-1.997 -1.581,-19.324 5.977,-33.437 0.32,-0.482 0.562,-1.019 0.768,-1.549 0.506,0.81 1.198,1.497 1.908,2.105 5.016,5.203 9.189,10.746 12.594,16.42 -4.116,6.821 -7.99,14.497 -10.872,22.617 -0.673,1.741 -1.253,3.5 -1.759,5.305 -0.056,0.169 -0.074,0.338 -0.168,0.487 -0.842,2.957 -1.562,5.96 -2.096,9.001 -0.055,0.159 -0.075,0.346 -0.093,0.532 -0.356,1.919 -0.618,3.846 -0.824,5.824 -0.112,1.549 -0.233,3.06 -0.28,4.589 h 0.037 c 0,0.146 -0.037,0.243 -0.037,0.366 0,4.762 4.191,8.63 9.356,8.63 4.883,0 8.897,-3.48 9.262,-7.943 h 0.019 c 0,0 0.224,-2.062 1.028,-5.642 0.375,-1.65 0.861,-3.601 1.498,-5.824 C 48.345,9.347 48.448,9.16 48.458,9.001 49.244,6.348 50.18,3.294 51.415,0 c 0.074,-0.149 0.121,-0.318 0.205,-0.487 0.58,-1.576 1.216,-3.2 1.946,-4.869 0.505,1.632 0.992,3.242 1.404,4.869 0.028,0.169 0.075,0.338 0.121,0.487 0.814,3.116 1.487,6.114 2.031,9.001 0,0.159 0.055,0.346 0.055,0.532 0.375,1.985 0.674,3.94 0.927,5.824 1.039,7.789 1.299,10.596 1.169,15.419 -0.635,4.065 -4.014,3.695 -4.014,3.695 H 53.436 35.509 L 34.302,34.43 c -4.949,0.075 -8.925,4.07 -8.925,8.85 0,1.178 -0.01,2.587 0.29,3.645 0.889,3.176 3.425,5.552 7.269,5.594 l 1.731,-0.08 h 5.221 L -4.515,129.083 -51.519,47.551 c 4.313,-2.218 6.568,-6.713 5.029,-10.694 -1.693,-4.588 -7.606,-6.848 -13.061,-5.061 l -11.638,3.634 h -95.519 l 54.109,-94.016 -54.109,-93.596 h 99.725 c 3.255,0.702 6.529,1.393 10.253,2.573 8.883,2.872 18.969,6.745 26.126,14.099 1.712,1.76 3.27,3.349 4.711,5.417 0.126,0.186 0.21,0.345 0.309,0.496 1.777,2.657 3.283,5.539 4.481,8.738 0.075,0.15 0.117,0.337 0.178,0.487 0.58,1.665 1.086,3.368 1.464,5.126 0.262,1.048 0.472,2.171 0.646,3.294 h -54.007 c -6.02,0 -10.961,4.584 -10.961,10.17 v 0.926 c 0,5.595 4.941,10.16 10.961,10.16 h 56.112 v 13.248 c 0,5.558 5.155,10.142 11.493,10.142 h 1.038 c 6.344,0 11.518,-4.584 11.518,-10.142 v -13.248 h 55.714 c 6.007,0 10.974,-4.565 10.974,-10.16 v -0.926 c 0,-5.586 -4.967,-10.17 -10.974,-10.17 H 8.489 c 0.188,-1.123 0.365,-2.246 0.637,-3.294 0.393,-1.758 0.897,-3.461 1.478,-5.126 0.047,-0.15 0.122,-0.337 0.168,-0.487 1.236,-3.199 2.695,-6.081 4.435,-8.738 0.149,-0.151 0.262,-0.31 0.374,-0.496 1.423,-2.068 2.892,-4.023 4.697,-5.66 8.907,-8.084 18.374,-11.545 28.601,-14.427 2.769,-0.777 4.817,-1.442 6.745,-2.002 h 102.204 l -54.039,93.596 z"
             style="fill:#0c2d83;fill-opacity:1;fill-rule:nonzero;stroke:none"
             id="path7378" />
        </g>
        <g
           id="g7380"
           transform="translate(324.6675,919.1978)">
          <path
             d="m 0,0 -37.75,-40.426 4.285,-4.01 c 0,0 15.338,16.448 16.068,17.22 0.631,-0.58 2.783,-2.592 3.392,-3.181 -0.706,-0.777 -14.624,-15.671 -14.624,-15.671 l 4.276,-4.009 c 0,0 28.405,30.426 29.163,31.224 0.775,-0.743 9.061,-8.457 9.061,-8.457 l 6.128,6.578 -13.328,12.461 c 0,0 -13.827,-14.801 -14.515,-15.549 -0.641,0.58 -2.793,2.601 -3.411,3.181 0.725,0.782 15.915,17.06 15.915,17.06 L 0.384,0.412 Z"
             style="fill:#ffffff;fill-opacity:1;fill-rule:nonzero;stroke:none"
             id="path7382" />
        </g>
        <g
           id="g7384"
           transform="translate(293.9062,915.2734)">
          <path
             d="m 0,0 -5.094,-5.455 0.097,-0.313 c 3.018,-9.829 -5.103,-20.218 -7.671,-23.189 l -0.351,-0.407 0.374,-0.453 3.836,-3.552 0.365,0.403 c 10.141,11.391 12.195,19.63 12.059,24.705 5.067,0.21 13.151,2.821 23.807,13.715 l 0.383,0.407 -4.276,4 -0.472,-0.449 C 19.525,5.884 10.211,-2.086 0.552,0.149 L 0.206,0.243 Z"
             style="fill:#ffffff;fill-opacity:1;fill-rule:nonzero;stroke:none"
             id="path7386" />
        </g>
        <g
           id="g7388"
           transform="translate(397.7002,950.4038)">
          <path
             d="M 0,0 C -1.886,3.078 0.8,8.168 5.987,11.326 11.175,14.474 16.91,14.507 18.805,11.41 20.689,8.308 18.005,3.232 12.808,0.084 7.62,-3.073 1.871,-3.115 0,0 M 5.398,34.58 C 5.8,33.906 6.853,32.171 7.25,31.506 6.427,31.001 -1.329,26.295 -2.171,25.771 c -0.398,0.684 -1.451,2.41 -1.852,3.092 0.823,0.496 8.588,5.202 9.421,5.717 m -18.502,-7.266 c 0.515,-0.859 4.861,-8.007 5.39,-8.873 -0.866,-0.515 -11.41,-6.933 -12.266,-7.438 -0.515,0.87 -4.86,7.999 -5.389,8.87 0.851,0.519 11.401,6.937 12.265,7.441 M 6.806,47.538 0.018,43.431 c 0,0 1.895,-3.135 2.348,-3.907 -0.818,-0.491 -8.565,-5.211 -9.397,-5.712 -0.445,0.717 -1.834,3.018 -1.834,3.018 L -35.758,20.495 -24.218,1.488 2.68,17.823 c 0,0 -1.398,2.302 -1.838,3.009 0.842,0.485 8.597,5.21 9.439,5.715 0.454,-0.776 2.99,-4.935 3.631,-6.001 -3.696,-0.472 -7.514,-1.811 -11.101,-4 -9.464,-5.744 -14.178,-15.282 -10.548,-21.26 3.638,-5.979 14.272,-6.184 23.712,-0.44 9.44,5.725 14.16,15.24 10.59,21.228 L 7.283,47.832 Z"
             style="fill:#ffffff;fill-opacity:1;fill-rule:nonzero;stroke:none"
             id="path7390" />
        </g>
        <g
           id="g7392"
           transform="translate(508.0806,1023.9927)">
          <path
             d="M 0,0 C 0.252,-0.87 1.375,-4.701 1.637,-5.576 0.724,-5.848 -6.658,-8 -7.705,-8.313 c -0.056,0.988 -0.15,1.97 -0.421,2.845 -0.257,0.926 -0.73,1.838 -1.245,2.732 C -8.337,-2.437 -0.908,-0.253 0,0 m -32.929,-12.714 c -1.384,4.729 1.17,9.641 5.689,10.96 4.524,1.324 9.332,-1.446 10.703,-6.161 1.399,-4.724 -1.179,-9.65 -5.674,-10.965 -4.547,-1.314 -9.347,1.441 -10.718,6.166 m -8.415,-2.461 c 2.353,-8.06 11.714,-12.411 20.882,-9.735 5.459,1.591 9.819,5.422 11.765,10.273 0.402,0.112 10.989,3.2 11.957,3.485 0.318,-1.085 6.755,-23.104 6.755,-23.104 l 8.341,2.461 -13.351,45.703 -8.356,-2.442 c 0,0 1.451,-4.968 1.727,-5.895 -0.968,-0.284 -11.652,-3.409 -12.031,-3.517 -4.239,2.947 -9.936,3.802 -15.354,2.231 -9.158,-2.68 -14.683,-11.418 -12.335,-19.46"
             style="fill:#ffffff;fill-opacity:1;fill-rule:nonzero;stroke:none"
             id="path7394" />
        </g>
        <g
           id="g7396"
           transform="translate(719.7187,1028.124)">
          <path
             d="m 0,0 -18.937,5.856 -5.491,1.703 -8.486,-27.511 24.942,-7.71 1.722,5.53 c 0,0 -15.549,4.818 -16.56,5.123 0.328,1.033 4.772,15.399 5.09,16.424 1.01,-0.319 16.56,-5.119 16.56,-5.119 l 1.702,5.54 z"
             style="fill:#ffffff;fill-opacity:1;fill-rule:nonzero;stroke:none"
             id="path7398" />
        </g>
        <g
           id="g7400"
           transform="translate(744.2119,1021.8931)">
          <path
             d="m 0,0 -7.802,2.403 c 0,0 -3.069,-9.949 -3.386,-10.987 -0.712,0.209 -2.509,0.785 -3.21,1.004 0.328,1.016 3.415,10.989 3.415,10.989 l -8.328,2.573 -14.089,-45.525 8.327,-2.578 c 0,0 8.626,27.895 8.963,28.998 0.701,-0.21 2.507,-0.766 3.209,-0.981 -0.347,-1.114 -8.973,-29.004 -8.973,-29.004 l 8.327,-2.573 14.071,45.512 z"
             style="fill:#ffffff;fill-opacity:1;fill-rule:nonzero;stroke:none"
             id="path7402" />
        </g>
        <g
           id="g7404"
           transform="translate(612.1084,1045.3052)">
          <path
             d="m 0,0 h -30.875 v -5.791 h 11.138 c -1.379,-13.547 -8.916,-16.527 -12.158,-17.145 l -0.444,-0.098 v -5.913 l 0.604,0.066 c 7.302,0.851 12.741,4.439 16.259,10.511 3.58,-6.123 9.052,-9.711 16.439,-10.526 l 0.627,-0.069 v 5.913 l -0.477,0.083 c -3.284,0.581 -10.914,3.476 -12.318,17.178 H 0.562 l 0,5.791 z"
             style="fill:#ffffff;fill-opacity:1;fill-rule:nonzero;stroke:none"
             id="path7406" />
        </g>
        <g
           id="g7408"
           transform="translate(628.9668,1046.4932)">
          <path
             d="m 0,0 h -8.046 v -47.607 h 8.608 v 30.378 h 6.501 v 5.805 H 0.562 L 0.562,0 Z"
             style="fill:#ffffff;fill-opacity:1;fill-rule:nonzero;stroke:none"
             id="path7410" />
        </g>
        <g
           id="g7412"
           transform="translate(849.6436,971.7549)">
          <path
             d="m 0,0 -6.849,4.247 -13.529,-21.818 7.316,-4.523 c 0,0 4.82,7.774 5.372,8.682 0.813,-0.496 5.333,-3.308 5.333,-3.308 l 3.152,5.085 c 0,0 -4.527,2.821 -5.315,3.294 0.535,0.888 4.979,8.046 4.979,8.046 z"
             style="fill:#ffffff;fill-opacity:1;fill-rule:nonzero;stroke:none"
             id="path7414" />
        </g>
        <g
           id="g7416"
           transform="translate(834.2812,947.3872)">
          <path
             d="m 0,0 -37.751,23.409 -3.144,-5.076 c 0,0 29.874,-18.544 30.8,-19.114 -0.581,-0.927 -6.793,-10.924 -6.793,-10.924 l 7.429,-4.602 9.936,16.012 z"
             style="fill:#ffffff;fill-opacity:1;fill-rule:nonzero;stroke:none"
             id="path7418" />
        </g>
        <g
           id="g7420"
           transform="translate(807.5703,980.8159)">
          <path
             d="m 0,0 c 1.739,2.797 6.259,3.143 10.066,0.786 3.818,-2.368 5.502,-6.578 3.771,-9.357 C 12.106,-11.368 7.597,-11.719 3.779,-9.356 -0.028,-6.989 -1.722,-2.793 0,0 m 18.338,6.736 -6.924,4.313 c 0,0 -1.618,-2.596 -2.058,-3.326 -0.889,0.547 -11.995,7.443 -11.995,7.443 l -2.9,-4.683 c 0,0 2.226,-1.389 3.425,-2.138 C -4.52,7.671 -6.418,6.39 -7.578,4.514 c -3.397,-5.473 0.392,-13.977 8.438,-18.969 8.065,-4.996 17.374,-4.627 20.77,0.842 1.161,1.876 1.461,4.15 0.992,6.61 1.123,-0.693 3.078,-1.904 3.078,-1.904 l 2.892,4.682 c 0,0 -10.947,6.792 -11.846,7.349 0.469,0.735 2.077,3.317 2.077,3.317 z"
             style="fill:#ffffff;fill-opacity:1;fill-rule:nonzero;stroke:none"
             id="path7422" />
        </g>
        <g
           id="g7424"
           transform="translate(933.5557,896.5801)">
          <path
             d="m 0,0 -29.648,32.31 -4.276,-3.924 c 0,0 23.343,-25.42 24.081,-26.219 -0.841,-0.778 -19.74,-18.147 -19.74,-18.147 l 5.932,-6.483 24.026,22.061 z"
             style="fill:#ffffff;fill-opacity:1;fill-rule:nonzero;stroke:none"
             id="path7426" />
        </g>
        <g
           id="g7428"
           transform="translate(911.2891,898.3252)">
          <path
             d="m 0,0 -5.576,6.067 c 0,0 -14.511,-13.337 -15.344,-14.095 -0.599,0.641 -3.724,4.052 -4.322,4.693 0.823,0.771 15.362,14.113 15.362,14.113 l -5.969,6.484 c 0,0 -14.529,-13.347 -15.353,-14.1 -0.654,0.711 -5.866,6.395 -5.866,6.395 l -4.285,-3.915 35.917,-39.122 4.276,3.925 c 0,0 -13.08,14.263 -13.828,15.034 0.842,0.777 15.362,14.105 15.362,14.105 z"
             style="fill:#ffffff;fill-opacity:1;fill-rule:nonzero;stroke:none"
             id="path7430" />
        </g>
        <g
           id="g7432"
           transform="translate(243.314,813.3315)">
          <path
             d="m 0,0 c -7.466,-6.356 -11.156,-2.891 -11.297,-2.741 -4.112,3.101 -1.09,8.434 -0.954,8.663 2.839,5.095 7.269,5.558 7.316,5.563 l 0.145,0.014 0.715,1.267 -7.966,4.44 -0.084,-0.347 c -0.477,-1.969 -3.527,-5.117 -3.55,-5.135 -6.681,-7.697 -3.934,-15.461 -3.911,-15.546 1.988,-6.249 9.417,-7.764 9.491,-7.779 6.937,-1.146 13.599,4.706 13.884,4.949 6.335,5.02 10.469,2.376 10.512,2.348 6.651,-3.704 2.951,-10.969 2.802,-11.273 -3.167,-5.684 -9.145,-6.213 -9.202,-6.213 l -0.271,-0.027 0.066,-0.899 c 0.163,-0.229 7.409,-3.672 7.409,-3.672 3.743,1.034 7.733,8.144 7.901,8.444 2.493,5.103 3.004,9.641 1.539,13.501 C 22.557,0.777 17.725,2.83 17.523,2.91 8.917,7.705 0.084,0.075 0,0"
             style="fill:#ffffff;fill-opacity:1;fill-rule:nonzero;stroke:none"
             id="path7434" />
        </g>
        <g
           id="g7436"
           transform="translate(222.2544,761.4067)">
          <path
             d="m 0,0 c 9.571,-4.008 13.945,-13.154 10.394,-21.775 -3.827,-9.263 -12.303,-12.243 -22.674,-7.967 -10.053,4.149 -14.151,12.649 -10.436,21.64 1.739,4.228 4.617,7.26 8.341,8.79 C -10.189,2.423 -5.22,2.18 0,0 m -28.662,-5.65 c -5.627,-13.66 -0.435,-26.113 13.225,-31.755 13.243,-5.464 26.309,-0.052 31.768,13.188 5.637,13.65 0.44,26.112 -13.225,31.753 C -10.559,13.168 -23.024,8 -28.662,-5.65"
             style="fill:#ffffff;fill-opacity:1;fill-rule:nonzero;stroke:none"
             id="path7438" />
        </g>
        <g
           id="g7440"
           transform="translate(195.978,662.8667)">
          <path
             d="m 0,0 c -10.184,2.048 -16.261,10.174 -14.464,19.315 1.932,9.837 9.656,14.426 20.668,12.269 C 16.869,29.48 22.557,21.962 20.681,12.42 19.802,7.934 17.575,4.388 14.231,2.147 10.465,-0.36 5.548,-1.109 0,0 M 26.992,11.184 C 29.832,25.668 22.295,36.866 7.798,39.72 -6.268,42.471 -18.015,34.593 -20.765,20.555 -23.614,6.062 -16.078,-5.146 -1.567,-7.98 c 14.502,-2.854 25.714,4.672 28.559,19.164"
             style="fill:#ffffff;fill-opacity:1;fill-rule:nonzero;stroke:none"
             id="path7442" />
        </g>
        <g
           id="g7444"
           transform="translate(177.9355,592.1973)">
          <path
             d="M 0,0 C 0.014,0.009 19.226,18.047 19.615,18.417 19.983,18.028 36.375,0.814 36.375,0.814 38.691,-1.956 39,-4.313 39.009,-4.332 l 0.028,-0.243 h 1.384 v 0.271 14.97 h -1.459 l -0.06,-0.192 C 38.719,9.875 38.458,9.523 38.12,9.44 38.06,9.431 38.003,9.421 37.943,9.421 c -0.511,0 -1.086,0.468 -1.287,0.664 0,0 -12.335,12.808 -14.516,15.073 h 13.22 c 2.803,0 3.621,-2.574 3.654,-2.681 l 0.06,-0.196 h 1.347 v 14.202 h -1.417 v -0.272 c 0,-2.811 -3.503,-3.003 -3.652,-3.012 H -0.772 c -3.395,0 -3.859,2.924 -3.877,3.05 l -0.038,0.234 H -6.119 V 22.281 h 1.408 l 0.057,0.206 c 0.683,2.582 3.756,2.666 3.882,2.671 H 15.9 C 14.927,24.259 -1.361,9.15 -1.361,9.15 -5.651,5.398 -6.1,2.872 -6.119,2.778 v -8.963 h 1.989 l 0.05,0.206 C -3.466,-3.612 -0.047,-0.047 0,0"
             style="fill:#ffffff;fill-opacity:1;fill-rule:nonzero;stroke:none"
             id="path7446" />
        </g>
        <g
           id="g7448"
           transform="translate(186.4121,507.2734)">
          <path
             d="m 0,0 c 0.014,0 40.094,17.065 40.094,17.065 l -0.037,0.225 -0.164,0.945 c -0.187,0.197 -32.68,8.513 -37.326,9.702 0.983,0.665 31.778,21.528 31.778,21.528 l -0.051,1.244 -0.037,0.206 -43.384,2.105 c -3.948,0.168 -4.878,2.236 -4.916,2.311 l -0.08,0.215 -1.146,-0.206 2.143,-12.433 1.141,0.205 0.014,0.197 c 0.155,1.75 1.482,2.254 2.306,2.385 0.356,0.066 0.622,0.056 0.655,0.056 0,0 21.145,-0.43 25.219,-0.523 -1.334,-0.917 -27.74,-19.095 -27.74,-19.095 l 0.075,-1.339 C -11.274,24.587 16.138,17.739 21.129,16.485 19.596,15.905 -1.984,7.625 -1.984,7.625 -2.437,7.448 -2.859,7.336 -3.247,7.27 -3.995,7.13 -4.608,7.204 -5.038,7.466 -5.669,7.868 -5.744,8.562 -5.749,8.589 l -0.029,0.29 -1.44,-0.243 2.198,-12.771 1.151,0.197 C -2.746,-1.047 -0.029,-0.019 0,0"
             style="fill:#ffffff;fill-opacity:1;fill-rule:nonzero;stroke:none"
             id="path7450" />
        </g>
        <g
           id="g7452"
           transform="translate(238.5103,470.6357)">
          <path
             d="m 0,0 -0.973,-0.355 v -0.197 c 0.005,-0.009 0.028,-0.795 -0.487,-1.3 -0.154,-0.159 -0.346,-0.28 -0.566,-0.355 -0.262,-0.094 -0.58,-0.131 -0.935,-0.113 0,0.009 -13.955,2.742 -16.256,3.19 0.594,0.684 10.848,12.398 10.848,12.398 -0.014,-0.01 0.782,0.692 1.595,0.617 l 1.137,-0.739 0.201,-0.028 0.786,0.271 -4.463,12.865 -1.029,-0.357 0.07,-0.242 c 0.005,-0.029 0.421,-1.89 -2.984,-6.025 L -26.997,2.882 -42.916,-2.601 c -0.07,-0.018 -2.404,-0.477 -3.579,1.955 l -0.111,0.216 -1.484,-0.514 4.74,-13.632 1.454,0.496 -0.013,0.216 c -0.005,0.037 -0.24,3.153 1.833,3.873 l 15.788,5.482 c -0.005,-0.038 21.294,-4.865 21.294,-4.865 0.065,0 4.547,-0.674 6.105,-2.929 l 0.121,-0.159 0.977,0.338 -0.088,0.253 z"
             style="fill:#ffffff;fill-opacity:1;fill-rule:nonzero;stroke:none"
             id="path7454" />
        </g>
        <g
           id="g7456"
           transform="translate(263.8506,415.2871)">
          <path
             d="m 0,0 -0.959,-0.506 0.023,-0.186 c 0.36,-3.256 -2.592,-4.594 -2.718,-4.641 l -22.44,-11.573 c -2.568,-1.32 -5.01,-1.618 -7.251,-0.87 -3.928,1.309 -5.96,5.426 -5.978,5.463 -0.032,0.057 -2.208,4.071 -1.001,8.028 0.693,2.264 2.344,4.079 4.917,5.398 l 22.426,11.564 c 0.135,0.075 2.918,1.694 5.369,-0.495 l 0.141,-0.114 0.954,0.488 -6.408,12.443 -0.969,-0.506 0.038,-0.206 c 0.023,-0.111 0.537,-3.068 -3.148,-4.976 L -39.903,7.504 c -0.136,-0.067 -13.159,-7.12 -5.109,-22.735 2.826,-5.501 6.456,-8.925 10.788,-10.198 5.735,-1.684 10.544,1.048 10.75,1.16 l 22.885,11.807 c 3.69,1.891 5.804,-0.243 5.889,-0.337 l 0.131,-0.149 0.977,0.506 -0.126,0.242 z"
             style="fill:#ffffff;fill-opacity:1;fill-rule:nonzero;stroke:none"
             id="path7458" />
        </g>
        <g
           id="g7460"
           transform="translate(299.5239,362.2207)">
          <path
             d="m 0,0 0.168,-0.225 c 1.633,-2.095 -0.477,-4.285 -0.565,-4.359 0,0 -19.564,-15.25 -20.63,-16.093 0.234,1.366 7.7,43.748 7.7,43.748 l -0.58,0.899 -0.169,0.224 -31.884,-24.848 c -4.852,-3.781 -6.826,-1.479 -6.906,-1.376 l -0.172,0.216 -1.197,-0.937 8.373,-10.73 1.202,0.926 -0.173,0.224 c -0.398,0.505 -0.547,1.058 -0.463,1.665 0.238,1.647 2.087,3.182 2.614,3.593 0.094,0.075 18.231,14.203 19.292,15.044 -0.238,-1.375 -7.694,-43.682 -7.694,-43.682 l 0.584,-0.898 0.173,-0.215 33.358,25.99 c 3.191,2.488 5.198,0.262 5.282,0.168 l 0.177,-0.196 0.941,0.739 -8.472,10.871 z"
             style="fill:#ffffff;fill-opacity:1;fill-rule:nonzero;stroke:none"
             id="path7462" />
        </g>
        <g
           id="g7464"
           transform="translate(328.5698,297.1602)">
          <path
             d="m 0,0 0.159,-0.196 c 0.06,-0.084 1.501,-1.862 -0.511,-4.763 0,0 -8.336,-8.027 -8.345,-8.036 0.066,0.112 -4.388,1.179 -8.757,6.596 -0.084,0.093 -8.134,10.478 2.063,22.024 0.052,0.056 5.295,5.874 12.579,6.269 4.328,0.223 8.523,-1.498 12.472,-5.091 0.041,-0.047 4.401,-4.089 5.178,-11.161 l 0.519,-0.609 0.187,-0.196 6.452,6.203 -0.328,0.188 c -0.019,0.009 -1.895,1.123 -4.019,4.919 -0.042,0.085 -5.071,10.247 -16.943,12.8 -0.099,0.037 -11.284,2.433 -21.789,-7.709 -0.151,-0.132 -14.923,-14.483 -1.128,-31.922 0.074,-0.094 7.096,-8.215 15.503,-10.759 L 8.537,-6.941 0.959,0.927 Z"
             style="fill:#ffffff;fill-opacity:1;fill-rule:nonzero;stroke:none"
             id="path7466" />
        </g>
        <g
           id="g7468"
           transform="translate(806.6162,246.8633)">
          <path
             d="m 0,0 c -9.506,-2.189 -11.171,2.563 -11.237,2.77 -2.19,4.602 2.91,7.923 3.125,8.064 4.837,3.199 8.972,1.571 9.009,1.562 l 0.131,-0.046 1.217,0.786 -4.996,7.568 -0.233,-0.271 c -1.329,-1.516 -5.455,-2.9 -5.494,-2.91 -9.411,-3.732 -10.552,-11.835 -10.561,-11.928 -1.105,-6.418 4.743,-11.162 4.808,-11.208 5.604,-4.173 14.174,-2.059 14.53,-1.985 7.896,1.526 10.329,-2.693 10.347,-2.74 4.173,-6.315 -2.413,-11.031 -2.694,-11.237 -5.389,-3.555 -10.899,-1.3 -10.966,-1.281 l -0.243,0.122 -0.355,-0.833 c 0.037,-0.272 4.866,-6.633 4.866,-6.633 3.769,-0.805 10.553,3.648 10.843,3.835 4.537,3.368 7.063,7.13 7.531,11.218 0.645,5.51 -2.694,9.534 -2.825,9.702 C 11.395,2.723 0.111,0.027 0,0"
             style="fill:#ffffff;fill-opacity:1;fill-rule:nonzero;stroke:none"
             id="path7470" />
        </g>
        <g
           id="g7472"
           transform="translate(507.5889,202.0674)">
          <path
             d="m 0,0 c -3.682,-9.571 -12.611,-14.146 -21.223,-10.881 -9.277,3.519 -12.472,11.817 -8.538,22.183 3.813,10.057 12.093,14.361 21.102,10.946 4.215,-1.59 7.298,-4.359 8.93,-7.989 C 2.095,10.169 2.007,5.239 0,0 m -6.404,28.199 c -13.664,5.173 -25.841,-0.318 -31.033,-13.988 -5.021,-13.257 0.72,-26.018 13.954,-31.052 13.659,-5.173 25.836,0.319 31.024,13.996 5.192,13.679 -0.295,25.861 -13.945,31.044"
             style="fill:#ffffff;fill-opacity:1;fill-rule:nonzero;stroke:none"
             id="path7474" />
        </g>
        <g
           id="g7476"
           transform="translate(590.6128,174.8232)">
          <path
             d="m 0,0 c 0,0.019 -5.314,43.224 -5.314,43.224 l -0.211,0.038 -0.959,0.093 C -6.727,43.224 -23.693,14.314 -26.126,10.18 c -0.365,1.14 -11.892,36.487 -11.892,36.487 l -1.201,0.299 -0.221,0.019 -14.029,-41.09 c -1.244,-3.743 -3.485,-4.061 -3.569,-4.081 l -0.22,-0.017 -0.136,-1.16 12.542,-1.386 0.13,1.16 -0.201,0.076 c -1.622,0.636 -1.74,2.03 -1.65,2.863 0.042,0.365 0.121,0.617 0.135,0.635 0,0.019 6.263,20.209 7.48,24.083 0.52,-1.535 10.666,-31.922 10.666,-31.922 l 1.305,-0.3 c 0.243,0.122 14.417,24.568 16.994,29.003 0.132,-1.628 2.119,-24.662 2.119,-24.662 0.043,-0.467 0.033,-0.916 -0.008,-1.3 -0.084,-0.758 -0.319,-1.328 -0.698,-1.666 -0.546,-0.495 -1.239,-0.383 -1.262,-0.383 l -0.285,0.057 -0.16,-1.452 12.864,-1.413 0.127,1.161 C 0.253,-2.929 0,-0.028 0,0"
             style="fill:#ffffff;fill-opacity:1;fill-rule:nonzero;stroke:none"
             id="path7478" />
        </g>
        <g
           id="g7480"
           transform="translate(705.0859,226.4482)">
          <path
             d="m 0,0 0.263,0.057 c 2.6,0.635 3.732,-2.208 3.779,-2.33 0,0 5.894,-24.315 6.203,-25.644 -1.15,0.785 -37.002,25.241 -37.002,25.241 l -1.057,-0.159 -0.272,-0.064 9.59,-39.595 c 1.459,-6.025 -1.479,-6.886 -1.6,-6.923 l -0.262,-0.065 0.346,-1.479 13.341,3.228 -0.355,1.478 -0.272,-0.065 c -0.636,-0.15 -1.197,-0.066 -1.729,0.291 -1.396,0.879 -2.06,3.217 -2.219,3.882 -0.018,0.103 -5.483,22.65 -5.801,23.979 1.16,-0.796 36.919,-25.225 36.919,-25.225 l 1.085,0.169 0.28,0.057 -10.048,41.446 C 10.226,2.256 13.117,3.163 13.248,3.2 L 13.491,3.284 13.21,4.454 -0.289,1.189 Z"
             style="fill:#ffffff;fill-opacity:1;fill-rule:nonzero;stroke:none"
             id="path7482" />
        </g>
        <g
           id="g7484"
           transform="translate(461.3242,238.4805)">
          <path
             d="m 0,0 0.664,1.217 -10.768,5.912 -0.562,-1.01 0.192,-0.15 c 0.01,0 0.767,-0.59 0.837,-1.488 0.029,-0.365 -0.065,-0.757 -0.28,-1.15 -0.145,-0.263 -0.356,-0.533 -0.618,-0.805 0,0 -17.696,-15.578 -20.499,-18.038 0.216,1.422 4.875,32.82 4.875,32.82 l -0.169,0.093 -0.972,0.535 c 0,0 -24.19,-20.706 -25.275,-21.641 0.211,1.403 4.097,26.178 4.097,26.178 0.005,0.027 0.084,1.113 0.543,1.945 0.173,0.318 0.398,0.591 0.697,0.768 0.454,0.281 1.039,0.252 1.731,-0.065 l 0.234,-0.103 0.566,1.029 -11.652,6.399 -0.571,-1.039 0.238,-0.139 c 0.014,0 1.521,-0.946 0.557,-7.008 l -6.46,-43.121 1.455,-0.805 c 0,0 24.344,20.789 25.415,21.706 -0.206,-1.404 -4.931,-32.952 -4.931,-32.952 l 1.221,-0.674 34.121,29.378 c 0.986,0.889 3.821,3.031 5.076,2.339 z"
             style="fill:#ffffff;fill-opacity:1;fill-rule:nonzero;stroke:none"
             id="path7486" />
        </g>
        <g
           id="g7488"
           transform="translate(642.4209,176.8262)">
          <path
             d="m 0,0 -10.554,-0.814 c -0.084,-0.01 -2.058,-0.123 -2.198,1.711 0,0 -0.974,12.846 -1.02,13.379 0.524,0.037 10.329,0.786 10.329,0.786 0.018,0 3.723,0 4.781,-2.76 L 1.413,12.105 2.854,12.218 1.89,24.746 0.655,24.652 C 0.374,24.324 -0.617,21.171 -4.21,20.9 c 0,0 -9.487,-0.73 -10.012,-0.767 -0.037,0.506 -0.972,11.938 -1.009,12.443 0.524,0.047 12.855,0.992 12.855,0.992 0.093,0 2.348,0.13 3.434,-2.357 l 0.084,-0.169 1.253,0.084 -0.692,9.094 -0.281,-0.019 -28.039,-2.142 0.084,-1.161 0.233,-0.018 c 0.029,0 3.041,-0.243 3.528,-6.484 l 2.32,-30.546 c 0.018,-0.076 0.692,-5.539 -2.535,-6.437 l -0.216,-0.057 0.094,-1.272 27.956,2.133 0.598,9.45 -1.16,-0.094 C 4.004,3.255 3.003,0.224 0,0"
             style="fill:#ffffff;fill-opacity:1;fill-rule:nonzero;stroke:none"
             id="path7490" />
        </g>
        <g
           id="g7492"
           transform="translate(745.5127,235.4678)">
          <path
             d="M 0,0 8.009,-17.439 12.34,-15.652 6.091,2.498 5.829,2.386 Z"
             style="fill:#ffffff;fill-opacity:1;fill-rule:nonzero;stroke:none"
             id="path7494" />
        </g>
        <g
           id="g7496"
           transform="translate(1015.4756,649.8662)">
          <path
             d="m 0,0 c -2.488,-9.491 -7.503,-8.766 -7.709,-8.724 -5.136,0.201 -5.717,6.306 -5.744,6.567 -0.581,5.821 2.797,8.735 2.825,8.767 l 0.112,0.093 -0.14,1.456 -9.085,-0.917 0.132,-0.346 c 0.729,-1.895 0.037,-6.223 0.018,-6.265 -1.067,-10.127 5.632,-14.936 5.698,-14.987 5.22,-3.991 12.19,-0.987 12.266,-0.95 6.343,3.032 8.457,11.662 8.55,12.031 2.34,7.747 7.242,7.939 7.298,7.939 7.579,0.767 8.71,-7.316 8.757,-7.663 0.656,-6.473 -3.948,-10.328 -3.986,-10.371 l -0.223,-0.168 0.579,-0.701 c 0.253,-0.099 8.176,1.23 8.176,1.23 2.49,2.989 1.695,11.124 1.666,11.461 -0.888,5.613 -3.069,9.641 -6.493,11.97 -4.612,3.153 -9.749,2.059 -9.972,2.017 C 2.92,11.443 0.028,0.117 0,0"
             style="fill:#ffffff;fill-opacity:1;fill-rule:nonzero;stroke:none"
             id="path7498" />
        </g>
        <g
           id="g7500"
           transform="translate(881.0322,326.4629)">
          <path
             d="m 0,0 0.767,-0.777 0.169,0.076 c 3.031,1.337 5.219,-1.095 5.295,-1.19 l 17.963,-18.075 c 2.049,-2.077 3.069,-4.322 3.032,-6.718 -0.057,-4.191 -3.387,-7.389 -3.425,-7.428 -0.037,-0.037 -3.255,-3.358 -7.428,-3.405 -2.394,-0.019 -4.641,1.01 -6.699,3.087 l -17.926,18.076 c -0.122,0.103 -2.545,2.301 -1.179,5.315 l 0.076,0.177 -0.768,0.758 -10.011,-9.936 0.785,-0.786 0.169,0.102 c 0.122,0.066 2.817,1.46 5.764,-1.505 L 4.902,-40.68 c 0.103,-0.111 10.853,-10.497 23.427,1.993 4.436,4.388 6.624,8.925 6.53,13.463 -0.13,6.036 -4.21,9.842 -4.396,10.001 L 12.163,3.218 C 9.216,6.193 10.628,8.869 10.703,8.981 L 10.797,9.15 10.011,9.936 9.824,9.749 Z"
             style="fill:#ffffff;fill-opacity:1;fill-rule:nonzero;stroke:none"
             id="path7502" />
        </g>
        <g
           id="g7504"
           transform="translate(926.0713,380.5215)">
          <path
             d="m 0,0 0.158,0.224 c 1.601,2.152 4.295,0.692 4.407,0.627 0,0 20.116,-14.885 21.21,-15.691 -1.393,-0.13 -44.58,-4.358 -44.58,-4.358 l -0.702,-0.805 -0.169,-0.216 32.746,-24.241 c 4.987,-3.686 3.368,-6.306 3.293,-6.418 l -0.14,-0.215 1.103,-0.814 8.159,11.021 -1.123,0.823 -0.168,-0.224 c -0.374,-0.505 -0.86,-0.795 -1.468,-0.879 -1.685,-0.216 -3.752,1.217 -4.314,1.627 -0.093,0.075 -18.73,13.866 -19.824,14.671 1.393,0.13 44.486,4.341 44.486,4.341 l 0.73,0.814 0.159,0.215 L 9.693,5.875 C 6.418,8.298 8.027,10.853 8.111,10.955 L 8.252,11.17 7.278,11.9 -0.982,0.729 Z"
             style="fill:#ffffff;fill-opacity:1;fill-rule:nonzero;stroke:none"
             id="path7506" />
        </g>
        <g
           id="g7508"
           transform="translate(1031.792,527.127)">
          <path
             d="m 0,0 -2.151,-10.329 c -0.02,-0.074 -0.45,-2.002 -2.246,-1.627 0,0 -12.555,2.619 -13.08,2.731 0.113,0.506 2.106,10.105 2.106,10.105 0,0.018 1.028,3.536 3.957,3.789 l 0.206,0.018 0.29,1.422 -12.247,2.554 -0.262,-1.225 c 0.243,-0.365 2.994,-2.18 2.264,-5.679 0,0 -1.927,-9.29 -2.039,-9.805 -0.505,0.112 -11.686,2.366 -12.191,2.47 0.103,0.524 2.61,12.574 2.61,12.574 0.019,0.094 0.514,2.283 3.19,2.639 l 0.197,0.028 0.262,1.225 -8.906,1.853 -0.048,-0.271 -5.697,-27.432 1.141,-0.233 0.075,0.223 c 0.009,0.02 1.067,2.835 7.176,1.573 L -5.52,-19.61 c 0.075,-0.009 5.483,-0.861 5.446,-4.209 l 0.017,-0.226 1.236,-0.262 L 6.867,3.041 -2.021,6.222 -2.245,5.09 C -2.021,4.725 0.6,2.938 0,0"
             style="fill:#ffffff;fill-opacity:1;fill-rule:nonzero;stroke:none"
             id="path7510" />
        </g>
        <g
           id="g7512"
           transform="translate(947.1035,414.5479)">
          <path
             d="m 0,0 1.066,-0.57 0.131,0.215 c 0.075,0.103 1.628,2.432 5.895,0.122 l 28.684,-15.532 c 0.057,-0.027 4.136,-1.983 3.705,-5.417 l 0.655,-0.561 0.244,-0.14 6.755,12.481 -0.964,0.533 -0.141,-0.188 c -0.092,-0.102 -1.908,-2.367 -6.53,0.16 L 10.44,6.84 C 10.403,6.858 8.036,8.074 7.504,9.796 7.315,10.432 7.372,11.05 7.709,11.648 l 0.131,0.244 -1.086,0.589 -0.13,-0.234 z"
             style="fill:#ffffff;fill-opacity:1;fill-rule:nonzero;stroke:none"
             id="path7514" />
        </g>
        <g
           id="g7516"
           transform="translate(992.0303,690.5176)">
          <path
             d="M 0,0 1.179,0.333 1.113,0.584 C 1.095,0.693 0.599,3.461 5.267,4.767 l 31.408,8.766 c 0.074,0.018 4.359,1.451 6.436,-1.314 l 0.862,0.06 0.271,0.075 -3.818,13.665 -1.057,-0.295 0.019,-0.234 c 0.009,-0.126 0.28,-3.022 -4.809,-4.439 L 2.76,12.162 c -0.028,-0.009 -2.592,-0.776 -4.182,0.099 -0.561,0.313 -0.954,0.8 -1.142,1.464 l -0.065,0.271 -1.18,-0.327 0.067,-0.272 z"
             style="fill:#ffffff;fill-opacity:1;fill-rule:nonzero;stroke:none"
             id="path7518" />
        </g>
        <g
           id="g7520"
           transform="translate(977.0039,475.7637)">
          <path
             d="m 0,0 1.143,-0.393 0.093,0.244 c 0,0 0.318,0.785 1.01,0.962 0.243,0.067 0.506,0.038 0.795,-0.065 0.31,-0.102 0.646,-0.299 1.001,-0.599 0,0 20.125,-18.365 23.362,-21.332 -1.262,-0.074 -29.948,-1.72 -29.948,-1.72 -0.019,0 -1.235,-0.076 -2.218,0.281 -0.402,0.13 -0.766,0.346 -1.001,0.636 -0.29,0.411 -0.317,0.917 -0.093,1.571 l 0.093,0.263 -1.16,0.402 -4.612,-13.164 1.169,-0.411 0.095,0.28 c 0,0.019 0.598,1.702 6.914,2.19 0.007,0 44.654,3.873 44.654,3.873 l 0.656,1.375 c -0.076,0.29 -35.45,33.671 -35.45,33.671 0,0 -1.684,2.003 -1.197,3.406 l 0.092,0.262 -1.16,0.393 -0.084,-0.262 z"
             style="fill:#ffffff;fill-opacity:1;fill-rule:nonzero;stroke:none"
             id="path7522" />
        </g>
        <g
           id="g7524"
           transform="translate(1041.8398,601.7871)">
          <path
             d="m 0,0 c 0,0 -17.214,-10.909 -18.992,-12.042 -0.393,1.834 -2.666,10.096 -11.526,10.432 -0.019,0.01 -0.093,0.02 -0.234,0.02 -1.058,0.046 -5.492,0.008 -8.991,-3.089 -2.657,-2.376 -4.116,-5.95 -4.295,-10.628 l -0.758,-19.46 v -0.262 l 1.264,-0.056 -0.028,0.318 c -0.009,0.029 -0.056,0.805 0.636,1.535 0.842,0.851 2.433,1.272 4.585,1.187 l 32.95,-1.263 c 0.076,0 4.903,0 5.362,-3.048 L 0,-36.582 l 1.105,-0.037 0.542,14.09 -1.103,0.037 -0.038,-0.224 c -0.037,-0.112 -0.73,-2.807 -4.911,-2.638 0,0 -33.784,1.291 -33.823,1.291 0.066,0.018 -0.991,0.992 -0.851,4.416 0.01,0.074 0.29,8.419 6.259,9.786 0.047,0.009 4.061,0.767 6.737,-1.347 0.027,-0.02 2.928,-2.358 2.741,-7.158 l -0.169,-4.537 1.18,-0.038 c 0.158,0.028 21.63,12.911 21.63,12.911 0.122,0.094 2.872,1.927 3.555,3.911 l 0.244,6.053 c 0,0.206 -0.029,1.895 -0.627,2.531 L 1.628,2.586 1.217,2.596 1.366,2.207 C 1.386,2.161 1.722,1.168 0,0"
             style="fill:#ffffff;fill-opacity:1;fill-rule:nonzero;stroke:none"
             id="path7526" />
        </g>
        <g
           id="g7528"
           transform="translate(970.25,760.3311)">
          <path
             d="m 0,0 0.084,-0.211 10.861,-27.913 3.351,0.496 5.369,2.091 -0.299,0.739 c -0.243,0.178 -3.827,0.829 -4.846,3.443 0,0 -2.078,5.342 -2.264,5.81 0.515,0.206 30.921,12.037 30.921,12.037 0,0 0.084,0.032 0.216,0.084 0.878,0.341 4.275,1.464 6.305,-0.753 l 0.861,0.144 0.262,0.103 -5.146,13.22 -1.029,-0.407 0.046,-0.224 c 0.02,-0.122 0.572,-2.985 -4.34,-4.893 0,0 -30.416,-11.841 -30.922,-12.032 -0.187,0.467 -2.207,5.684 -2.207,5.684 -1.03,2.624 1.178,5.519 1.207,5.548 L 8.271,3.724 8.177,3.985 2.882,1.922 C 2.815,1.885 0.187,0.117 0.187,0.117 Z"
             style="fill:#ffffff;fill-opacity:1;fill-rule:nonzero;stroke:none"
             id="path7530" />
        </g>
        <g
           id="g7532"
           transform="translate(938.8604,817.5278)">
          <path
             d="m 0,0 5.988,-11.04 1.038,0.57 -0.074,0.221 c -0.149,0.402 -0.132,0.734 0.047,0.986 0.112,0.159 0.271,0.286 0.458,0.385 0.692,0.373 1.759,0.448 2.218,0.448 0,0 14.697,-0.303 15.605,-0.327 -0.468,-0.777 -8.954,-14.913 -8.954,-14.913 -0.223,-0.337 -0.439,-0.557 -0.655,-0.674 -0.13,-0.07 -0.262,-0.102 -0.383,-0.094 -0.571,0.034 -1.096,0.842 -1.263,1.16 l -0.131,0.253 -1.076,-0.594 6.521,-11.999 1.076,0.58 -0.131,0.244 c -0.843,1.548 0.309,3.639 0.327,3.653 l 12.93,21.64 12.331,6.671 c 0.056,0.014 3.911,2.367 6.549,0.141 l 0.843,0.251 0.243,0.137 -6.775,12.462 -0.972,-0.529 0.085,-0.22 C 45.882,9.295 46.789,6.531 42.148,4.014 L 29.715,-2.736 C 29.724,-2.704 5.886,-1.459 5.886,-1.459 2.339,-1.3 1.076,0.581 1.058,0.594 L 0.927,0.814 -0.14,0.243 Z"
             style="fill:#ffffff;fill-opacity:1;fill-rule:nonzero;stroke:none"
             id="path7534" />
        </g>
      </g>
    </g>
  </g>
</svg>
