<?xml version="1.0" encoding="UTF-8" standalone="no"?>
<!-- Created with Inkscape (http://www.inkscape.org/) -->

<svg
   version="1.1"
   id="svg9674"
   width="793.70135"
   height="1122.52"
   viewBox="0 0 793.70135 1122.52"
   sodipodi:docname="숭실대학교.svg"
   inkscape:version="1.2.1 (9c6d41e410, 2022-07-14)"
   xmlns:inkscape="http://www.inkscape.org/namespaces/inkscape"
   xmlns:sodipodi="http://sodipodi.sourceforge.net/DTD/sodipodi-0.dtd"
   xmlns="http://www.w3.org/2000/svg"
   xmlns:svg="http://www.w3.org/2000/svg">
  <defs
     id="defs9678">
    <clipPath
       clipPathUnits="userSpaceOnUse"
       id="clipPath9690">
      <path
         d="M 0,841.89 H 595.276 V 0 H 0 Z"
         id="path9688" />
    </clipPath>
  </defs>
  <sodipodi:namedview
     id="namedview9676"
     pagecolor="#ffffff"
     bordercolor="#000000"
     borderopacity="0.25"
     inkscape:showpageshadow="2"
     inkscape:pageopacity="0.0"
     inkscape:pagecheckerboard="true"
     inkscape:deskcolor="#d1d1d1"
     showgrid="false"
     inkscape:zoom="4.7572161"
     inkscape:cx="273.47927"
     inkscape:cy="418.52209"
     inkscape:window-width="2560"
     inkscape:window-height="1494"
     inkscape:window-x="-11"
     inkscape:window-y="-11"
     inkscape:window-maximized="1"
     inkscape:current-layer="g9686">
    <inkscape:page
       x="0"
       y="0"
       id="page9680"
       width="793.70135"
       height="1122.52" />
  </sodipodi:namedview>
  <g
     id="g9682"
     inkscape:groupmode="layer"
     inkscape:label="Page 1"
     transform="matrix(1.3333333,0,0,-1.3333333,0,1122.52)">
    <g
       id="g9684">
      <g
         id="g9686"
         clip-path="url(#clipPath9690)">
        <g
           id="g9692"
           transform="translate(231.2217,212.1711)">
          <path
             d="m 0,0 c 0.457,-0.238 1.18,-0.482 1.925,-0.482 0.799,0 1.22,0.328 1.22,0.841 0,0.465 -0.364,0.758 -1.284,1.069 C 0.582,1.887 -0.26,2.6 -0.26,3.719 c 0,1.31 1.104,2.304 2.902,2.304 0.878,0 1.506,-0.169 1.96,-0.386 L 4.214,4.246 C 3.918,4.393 3.362,4.613 2.619,4.613 1.87,4.613 1.506,4.254 1.506,3.865 1.506,3.383 1.925,3.164 2.927,2.777 4.282,2.273 4.909,1.57 4.909,0.479 c 0,-1.29 -0.976,-2.387 -3.086,-2.387 -0.873,0 -1.742,0.24 -2.178,0.482 z"
             style="fill:#514e4f;fill-opacity:1;fill-rule:nonzero;stroke:none"
             id="path9694" />
        </g>
        <g
           id="g9696"
           transform="translate(239.6748,211.505)">
          <path
             d="M 0,0 C 0.684,0 1.104,0.674 1.104,1.674 1.104,2.496 0.789,3.336 0,3.336 -0.819,3.336 -1.141,2.496 -1.141,1.668 -1.141,0.721 -0.742,0 -0.012,0 Z m -0.037,-1.242 c -1.622,0 -2.879,1.07 -2.879,2.875 0,1.795 1.189,2.959 2.984,2.959 1.697,0 2.841,-1.182 2.841,-2.873 0,-2.026 -1.452,-2.961 -2.935,-2.961 z"
             style="fill:#514e4f;fill-opacity:1;fill-rule:nonzero;stroke:none"
             id="path9698" />
        </g>
        <g
           id="g9700"
           transform="translate(246.0557,211.505)">
          <path
             d="M 0,0 C 0.683,0 1.104,0.674 1.104,1.674 1.104,2.496 0.786,3.336 0,3.336 -0.822,3.336 -1.141,2.496 -1.141,1.668 -1.141,0.721 -0.743,0 -0.015,0 Z m -0.033,-1.242 c -1.633,0 -2.883,1.07 -2.883,2.875 0,1.795 1.183,2.959 2.982,2.959 1.699,0 2.836,-1.182 2.836,-2.873 0,-2.026 -1.445,-2.961 -2.925,-2.961 z"
             style="fill:#514e4f;fill-opacity:1;fill-rule:nonzero;stroke:none"
             id="path9702" />
        </g>
        <g
           id="g9704"
           transform="translate(249.8027,214.1847)">
          <path
             d="M 0,0 C 0,0.693 -0.024,1.275 -0.046,1.775 H 1.456 L 1.537,1 h 0.032 c 0.228,0.369 0.79,0.912 1.721,0.912 1.142,0 1.994,-0.775 1.994,-2.414 V -3.791 H 3.555 v 3.082 C 3.555,0.012 3.307,0.5 2.678,0.5 2.199,0.5 1.917,0.168 1.785,-0.15 1.742,-0.26 1.727,-0.42 1.727,-0.586 V -3.791 H 0 Z"
             style="fill:#514e4f;fill-opacity:1;fill-rule:nonzero;stroke:none"
             id="path9706" />
        </g>
        <g
           id="g9708"
           transform="translate(259.7969,213.6906)">
          <path
             d="M 0,0 C 0,0.107 -0.015,0.221 -0.037,0.326 -0.16,0.775 -0.491,1.09 -0.973,1.09 c -0.635,0 -1.14,-0.574 -1.14,-1.582 0,-0.836 0.406,-1.485 1.13,-1.485 0.454,0 0.811,0.295 0.921,0.694 C -0.015,-1.139 0,-0.965 0,-0.818 Z M 1.727,-2.492 C 1.727,-3.563 1.51,-4.439 0.877,-5 0.27,-5.521 -0.562,-5.684 -1.381,-5.684 c -0.743,0 -1.506,0.147 -2.007,0.422 l 0.344,1.324 c 0.351,-0.205 0.953,-0.429 1.618,-0.429 0.816,0 1.446,0.439 1.446,1.48 v 0.348 H 0 c -0.338,-0.453 -0.869,-0.713 -1.511,-0.713 -1.376,0 -2.355,1.111 -2.355,2.707 0,1.803 1.15,2.951 2.527,2.951 0.766,0 1.244,-0.342 1.529,-0.797 H 0.212 L 0.27,2.27 H 1.768 C 1.75,1.91 1.727,1.441 1.727,0.607 Z"
             style="fill:#514e4f;fill-opacity:1;fill-rule:nonzero;stroke:none"
             id="path9710" />
        </g>
        <g
           id="g9712"
           transform="translate(262.9023,211.8976)">
          <path
             d="m 0,0 c 0.318,-0.197 0.98,-0.414 1.492,-0.414 0.523,0 0.741,0.168 0.741,0.453 0,0.301 -0.17,0.432 -0.807,0.654 -1.162,0.373 -1.608,1.008 -1.596,1.662 0,1.047 0.887,1.844 2.264,1.844 0.652,0 1.222,-0.174 1.565,-0.342 L 3.363,2.674 C 3.11,2.799 2.621,2.98 2.153,2.98 1.73,2.98 1.492,2.809 1.492,2.539 1.492,2.266 1.707,2.131 2.391,1.885 3.451,1.537 3.882,0.988 3.898,0.178 c 0,-1.047 -0.813,-1.813 -2.406,-1.813 -0.727,0 -1.379,0.176 -1.799,0.403 z"
             style="fill:#514e4f;fill-opacity:1;fill-rule:nonzero;stroke:none"
             id="path9714" />
        </g>
        <path
           d="m 267.857,215.96 h 1.733 v -5.566 h -1.733 z m 0.855,0.731 c -0.578,0 -0.956,0.406 -0.956,0.918 0,0.527 0.385,0.923 0.98,0.923 0.591,0 0.953,-0.396 0.967,-0.923 0,-0.512 -0.376,-0.918 -0.978,-0.918 z"
           style="fill:#514e4f;fill-opacity:1;fill-rule:nonzero;stroke:none"
           id="path9716" />
        <path
           d="m 270.979,218.478 h 1.729 v -8.084 h -1.729 z"
           style="fill:#514e4f;fill-opacity:1;fill-rule:nonzero;stroke:none"
           id="path9718" />
        <g
           id="g9720"
           transform="translate(278.1895,218.0695)">
          <path
             d="m 0,0 v -4.408 c 0,-1.33 0.513,-2.01 1.39,-2.01 0.911,0 1.415,0.643 1.415,2.01 V 0 h 1.727 v -4.305 c 0,-2.373 -1.195,-3.502 -3.201,-3.502 -1.935,0 -3.06,1.086 -3.06,3.52 V 0 Z"
             style="fill:#514e4f;fill-opacity:1;fill-rule:nonzero;stroke:none"
             id="path9722" />
        </g>
        <g
           id="g9724"
           transform="translate(284.1475,214.1847)">
          <path
             d="M 0,0 C 0,0.693 -0.022,1.275 -0.044,1.775 H 1.463 L 1.535,1 h 0.034 c 0.233,0.369 0.787,0.912 1.723,0.912 1.138,0 1.995,-0.775 1.995,-2.414 V -3.791 H 3.556 v 3.082 C 3.556,0.012 3.302,0.5 2.679,0.5 2.195,0.5 1.914,0.168 1.789,-0.15 1.745,-0.26 1.732,-0.42 1.732,-0.586 V -3.791 H 0 Z"
             style="fill:#514e4f;fill-opacity:1;fill-rule:nonzero;stroke:none"
             id="path9726" />
        </g>
        <path
           d="m 290.828,215.96 h 1.728 v -5.566 h -1.728 z m 0.848,0.731 c -0.574,0 -0.954,0.406 -0.954,0.918 0,0.527 0.386,0.923 0.979,0.923 0.592,0 0.958,-0.396 0.973,-0.923 0,-0.512 -0.381,-0.918 -0.984,-0.918 z"
           style="fill:#514e4f;fill-opacity:1;fill-rule:nonzero;stroke:none"
           id="path9728" />
        <g
           id="g9730"
           transform="translate(295.002,215.9601)">
          <path
             d="m 0,0 0.755,-2.582 c 0.136,-0.473 0.227,-0.916 0.319,-1.361 h 0.031 c 0.096,0.461 0.188,0.877 0.312,1.361 L 2.132,0 H 3.957 L 1.881,-5.566 H 0.149 L -1.876,0 Z"
             style="fill:#514e4f;fill-opacity:1;fill-rule:nonzero;stroke:none"
             id="path9732" />
        </g>
        <g
           id="g9734"
           transform="translate(302.6836,213.8195)">
          <path
             d="M 0,0 C 0,0.412 -0.186,1.129 -0.969,1.129 -1.71,1.129 -2.005,0.457 -2.051,0 Z m -2.041,-1.184 c 0.059,-0.734 0.765,-1.064 1.573,-1.064 0.591,0 1.074,0.072 1.538,0.234 l 0.229,-1.177 c -0.571,-0.235 -1.267,-0.35 -2.014,-0.35 -1.894,0 -2.98,1.092 -2.98,2.846 0,1.41 0.891,2.974 2.816,2.974 1.803,0 2.483,-1.402 2.483,-2.777 0,-0.295 -0.034,-0.563 -0.052,-0.693 z"
             style="fill:#514e4f;fill-opacity:1;fill-rule:nonzero;stroke:none"
             id="path9736" />
        </g>
        <g
           id="g9738"
           transform="translate(305.3398,214.13)">
          <path
             d="M 0,0 C 0,0.818 -0.015,1.352 -0.051,1.83 H 1.434 L 1.502,0.797 h 0.04 c 0.289,0.816 0.961,1.17 1.51,1.17 0.158,0 0.238,-0.024 0.365,-0.045 V 0.297 C 3.266,0.314 3.132,0.336 2.936,0.336 2.299,0.336 1.863,0.008 1.75,-0.531 1.728,-0.654 1.718,-0.775 1.718,-0.922 v -2.814 h -1.733 z"
             style="fill:#514e4f;fill-opacity:1;fill-rule:nonzero;stroke:none"
             id="path9740" />
        </g>
        <g
           id="g9742"
           transform="translate(309.415,211.8976)">
          <path
             d="m 0,0 c 0.317,-0.197 0.983,-0.414 1.494,-0.414 0.524,0 0.737,0.168 0.737,0.453 0,0.301 -0.171,0.432 -0.806,0.654 -1.159,0.373 -1.604,1.008 -1.595,1.662 0,1.047 0.885,1.844 2.267,1.844 0.646,0 1.216,-0.174 1.561,-0.342 L 3.362,2.674 C 3.109,2.799 2.62,2.98 2.152,2.98 1.732,2.98 1.494,2.809 1.494,2.539 1.494,2.266 1.71,2.131 2.394,1.885 3.453,1.537 3.89,0.988 3.895,0.178 c 0,-1.047 -0.807,-1.813 -2.401,-1.813 -0.731,0 -1.382,0.176 -1.801,0.403 z"
             style="fill:#514e4f;fill-opacity:1;fill-rule:nonzero;stroke:none"
             id="path9744" />
        </g>
        <path
           d="m 314.369,215.96 h 1.733 v -5.566 h -1.733 z m 0.857,0.731 c -0.582,0 -0.962,0.406 -0.962,0.918 0,0.527 0.392,0.923 0.984,0.923 0.591,0 0.953,-0.396 0.969,-0.923 0,-0.512 -0.378,-0.918 -0.981,-0.918 z"
           style="fill:#514e4f;fill-opacity:1;fill-rule:nonzero;stroke:none"
           id="path9746" />
        <g
           id="g9748"
           transform="translate(319.4277,217.4777)">
          <path
             d="M 0,0 V -1.518 H 1.242 V -2.793 H 0 v -2.023 c 0,-0.68 0.17,-0.985 0.683,-0.985 0.243,0 0.355,0.012 0.513,0.049 L 1.205,-7.068 C 0.994,-7.145 0.57,-7.215 0.092,-7.215 c -0.561,0 -1.027,0.194 -1.313,0.483 -0.317,0.332 -0.474,0.867 -0.474,1.652 v 2.287 h -0.742 v 1.275 h 0.742 v 1.049 z"
             style="fill:#514e4f;fill-opacity:1;fill-rule:nonzero;stroke:none"
             id="path9750" />
        </g>
        <g
           id="g9752"
           transform="translate(323.0352,215.9601)">
          <path
             d="m 0,0 0.834,-2.736 c 0.091,-0.33 0.203,-0.739 0.273,-1.032 h 0.034 c 0.08,0.293 0.17,0.713 0.248,1.032 L 2.072,0 H 3.936 L 2.631,-3.666 C 1.838,-5.881 1.3,-6.756 0.673,-7.312 0.083,-7.832 -0.554,-8.027 -1.002,-8.076 l -0.361,1.457 c 0.219,0.043 0.484,0.148 0.748,0.297 0.263,0.144 0.561,0.422 0.72,0.695 0.055,0.098 0.09,0.17 0.09,0.252 0,0.055 -0.011,0.146 -0.067,0.285 L -1.923,0 Z"
             style="fill:#514e4f;fill-opacity:1;fill-rule:nonzero;stroke:none"
             id="path9754" />
        </g>
        <g
           id="g9756"
           transform="translate(173.3477,201.7863)">
          <path
             d="m 0,0 h -9.087 c 0.107,0 0.439,0.443 0.521,0.525 0.174,0.2 0.343,0.405 0.502,0.62 0.391,0.533 0.694,1.132 0.918,1.75 0.791,2.125 0.735,4.609 -0.147,6.507 -0.922,1.993 -2.357,3.731 -3.361,5.375 -1.635,2.674 -2.785,5.67 -2.54,8.86 0.154,2.021 1.075,4.232 2.446,5.75 h 8.741 c -2.473,-2.348 -3.204,-5.653 -2.325,-9.051 0.483,-1.881 1.701,-3.641 2.635,-5.07 0.984,-1.512 2.006,-3.045 2.738,-4.694 C 1.934,8.564 2.213,6.268 1.784,4.1 1.583,3.055 1.227,2.023 0.724,1.09 0.638,0.941 0.194,0 0,0"
             style="fill:#00a3cc;fill-opacity:1;fill-rule:nonzero;stroke:none"
             id="path9758" />
        </g>
        <g
           id="g9760"
           transform="translate(178.3877,210.3683)">
          <path
             d="M 0,0 H 15.079 V 24.844 H -4.765 C -6.264,23.527 -7.184,20.887 -6.523,18.18 -6.006,16.063 -4.475,14.15 -3.108,12.336 -0.936,9.455 1.436,6.215 0.773,2.377 0.641,1.592 0.385,0.699 0,0"
             style="fill:#66cbc0;fill-opacity:1;fill-rule:nonzero;stroke:none"
             id="path9762" />
        </g>
        <g
           id="g9764"
           transform="translate(144.5576,235.2121)">
          <path
             d="m 0,0 v -24.844 h 14.838 c 0.709,1.588 0.45,3.455 -0.027,4.604 -1.432,3.5 -3.762,5.392 -5.058,8.447 -1.228,2.893 -1.368,5.535 -0.307,9.338 0.059,0.215 0.65,1.728 1.043,2.455 z"
             style="fill:#005c87;fill-opacity:1;fill-rule:nonzero;stroke:none"
             id="path9766" />
        </g>
        <g
           id="g9768"
           transform="translate(223.9209,235.2121)">
          <path
             d="m 0,0 h -12.319 v -19.707 c 0.005,-0.1 -0.021,-0.578 -0.044,-1.066 -0.136,-3.088 -0.863,-3.706 -1.63,-4.071 H 0 Z"
             style="fill:#00a3cc;fill-opacity:1;fill-rule:nonzero;stroke:none"
             id="path9770" />
        </g>
        <g
           id="g9772"
           transform="translate(196.8174,231.1457)">
          <path
             d="m 0,0 v -24.627 l 0.011,-0.398 c 0.073,-2.192 1.857,-3.94 4.069,-3.94 2.178,0 3.95,1.711 4.074,3.86 l 0.006,0.478 V 0 Z"
             style="fill:#005c87;fill-opacity:1;fill-rule:nonzero;stroke:none"
             id="path9774" />
        </g>
        <g
           id="g9776"
           transform="translate(238.0098,472.1452)">
          <path
             d="m 0,0 c 0,-0.909 -1.316,-1.519 -2.531,-1.519 -1.218,0 -2.539,0.61 -2.539,1.519 0,0.898 1.321,1.515 2.539,1.515 C -1.316,1.515 0,0.898 0,0 m -8.99,4.068 h 5.487 V 2.9 C -5.421,2.652 -7.064,1.446 -7.064,0 c 0,-1.628 2.075,-2.95 4.274,-2.95 h 0.516 c 2.203,0 4.273,1.322 4.273,2.95 0,1.417 -1.582,2.607 -3.447,2.878 v 1.19 H 4.076 V 5.466 H -8.99 Z"
             style="fill:#514e4f;fill-opacity:1;fill-rule:nonzero;stroke:none"
             id="path9778" />
        </g>
        <g
           id="g9780"
           transform="translate(253.5537,476.7609)">
          <path
             d="M 0,0 1.816,0.015 V 5.147 L 0,5.147 Z"
             style="fill:#514e4f;fill-opacity:1;fill-rule:nonzero;stroke:none"
             id="path9782" />
        </g>
        <g
           id="g9784"
           transform="translate(245.082,474.7892)">
          <path
             d="M 0,0 H 8.472 V -0.828 H 0 v -2.559 c 0,-0.367 0.097,-0.639 0.276,-0.797 0.178,-0.152 0.448,-0.234 0.809,-0.234 h 9.203 v 1.395 H 1.893 v 0.859 h 8.395 V 1.398 L 0,1.398 Z"
             style="fill:#514e4f;fill-opacity:1;fill-rule:nonzero;stroke:none"
             id="path9786" />
        </g>
        <g
           id="g9788"
           transform="translate(283.0381,481.9084)">
          <path
             d="m 0,0 h -1.82 v -6.253 h 1.81 L 0,-3.307 h 1.824 v 1.422 H 0 Z"
             style="fill:#514e4f;fill-opacity:1;fill-rule:nonzero;stroke:none"
             id="path9790" />
        </g>
        <g
           id="g9792"
           transform="translate(272.3877,473.6642)">
          <path
             d="m 0,0 h 8.83 v -3.352 l 1.82,-0.002 V 1.424 H 0 Z"
             style="fill:#514e4f;fill-opacity:1;fill-rule:nonzero;stroke:none"
             id="path9794" />
        </g>
        <g
           id="g9796"
           transform="translate(274.1865,479.674)">
          <path
             d="M 0,0 C 0.351,0.27 0.752,0.414 1.221,0.414 1.667,0.414 2.066,0.27 2.424,0 2.783,-0.292 2.965,-0.635 2.965,-1.029 2.965,-1.401 2.783,-1.723 2.424,-2.012 2.066,-2.3 1.667,-2.439 1.221,-2.439 0.752,-2.439 0.351,-2.3 0,-2.012 c -0.348,0.289 -0.525,0.611 -0.525,0.983 0,0.394 0.177,0.737 0.525,1.029 m -2.314,-0.971 c 0,-0.84 0.369,-1.525 1.095,-2.066 0.694,-0.519 1.516,-0.779 2.481,-0.779 0.951,0 1.756,0.26 2.418,0.779 0.715,0.541 1.07,1.226 1.07,2.066 0,0.258 -0.055,0.504 -0.163,0.745 C 4.48,0.008 4.338,0.215 4.152,0.414 H 5.579 V 1.773 H 2.17 V 2.885 H 0.211 V 1.773 H -3.264 V 0.414 h 1.571 C -1.904,0.215 -2.058,0.008 -2.165,-0.226 -2.26,-0.467 -2.314,-0.713 -2.314,-0.971"
             style="fill:#514e4f;fill-opacity:1;fill-rule:nonzero;stroke:none"
             id="path9798" />
        </g>
        <g
           id="g9800"
           transform="translate(267.8564,478.2052)">
          <path
             d="m 0,0 h -1.541 v 3.703 h -1.668 v -11.62 l 1.668,0.016 V -1.43 H 0 v -6.487 l 1.73,0.016 V 3.703 l -1.73,0 z"
             style="fill:#514e4f;fill-opacity:1;fill-rule:nonzero;stroke:none"
             id="path9802" />
        </g>
        <g
           id="g9804"
           transform="translate(259.5176,480.4845)">
          <path
             d="m 0,0 h 3.71 v 1.424 h -5.527 v -7.696 c 0,-0.336 0.113,-0.576 0.34,-0.711 0.169,-0.111 0.441,-0.166 0.806,-0.166 h 4.657 v 1.424 l -3.986,0 z"
             style="fill:#514e4f;fill-opacity:1;fill-rule:nonzero;stroke:none"
             id="path9806" />
        </g>
        <g
           id="g9808"
           transform="translate(294.2754,473.5739)">
          <path
             d="M 0,0 H 1.821 L 1.833,8.335 H -8.276 V 6.911 l 8.276,0 z"
             style="fill:#514e4f;fill-opacity:1;fill-rule:nonzero;stroke:none"
             id="path9810" />
        </g>
        <g
           id="g9812"
           transform="translate(292.4932,472.3581)">
          <path
             d="M 0,0 V 4.771 H -1.791 V 0 H -3.352 V 4.771 H -5.141 V 0 H -7.328 V -1.429 H 4.646 l 0,1.429 z"
             style="fill:#514e4f;fill-opacity:1;fill-rule:nonzero;stroke:none"
             id="path9814" />
        </g>
        <g
           id="g9816"
           transform="translate(232.8174,478.8537)">
          <path
             d="M 0,0 C 1.262,0.307 2.174,0.799 2.723,1.391 3.244,0.799 4.148,0.307 5.414,0.014 6.326,-0.217 7.359,-0.41 8.469,-0.442 L 8.791,1 V 1.01 C 7.225,1.072 6.164,1.346 5.361,1.658 4.354,2.022 3.664,2.642 3.664,3.19 H 1.779 C 1.783,2.696 1.067,2.033 0.059,1.658 -0.744,1.338 -1.797,1.054 -3.35,0.988 v -0.01 l 0.319,-1.42 C -1.937,-0.42 -0.922,-0.228 0,0"
             style="fill:#514e4f;fill-opacity:1;fill-rule:nonzero;stroke:none"
             id="path9818" />
        </g>
        <g
           id="g9820"
           transform="translate(247.8896,479.1339)">
          <path
             d="M 0,0 C 0.479,-0.643 1.074,-1.146 1.795,-1.507 2.404,-1.8 3.51,-2.129 4.235,-2.19 l 0.359,1.437 C 3.392,-0.61 2.07,0.043 1.534,0.729 1.137,1.27 0.939,1.884 0.939,2.753 h -1.95 c 0,-0.881 -0.202,-1.497 -0.612,-2.037 -0.525,-0.68 -1.844,-1.338 -3.057,-1.483 v -0.011 l 0.34,-1.412 c 0.658,0.065 1.745,0.39 2.373,0.671 C -1.133,-1.132 -0.477,-0.633 0,0"
             style="fill:#514e4f;fill-opacity:1;fill-rule:nonzero;stroke:none"
             id="path9822" />
        </g>
        <g
           id="g9824"
           transform="translate(173.2197,461.7687)">
          <path
             d="m 0,0 h -9.076 c 0.108,0 0.437,0.443 0.519,0.526 0.174,0.2 0.343,0.405 0.501,0.619 0.394,0.533 0.696,1.133 0.919,1.748 0.788,2.125 0.733,4.606 -0.148,6.502 -0.92,1.99 -2.353,3.727 -3.36,5.372 -1.63,2.669 -2.78,5.662 -2.535,8.85 0.153,2.017 1.075,4.23 2.444,5.744 h 8.73 c -2.469,-2.346 -3.199,-5.645 -2.32,-9.041 0.484,-1.881 1.699,-3.637 2.633,-5.067 0.98,-1.51 2.002,-3.041 2.732,-4.688 C 1.934,8.559 2.212,6.263 1.783,4.098 1.584,3.053 1.226,2.024 0.725,1.09 0.639,0.941 0.196,0 0,0"
             style="fill:#00a3cc;fill-opacity:1;fill-rule:nonzero;stroke:none"
             id="path9826" />
        </g>
        <g
           id="g9828"
           transform="translate(178.2568,470.3444)">
          <path
             d="M 0,0 H 15.062 V 24.821 H -4.761 c -1.497,-1.318 -2.417,-3.954 -1.756,-6.659 0.516,-2.114 2.046,-4.025 3.412,-5.837 C -0.938,9.447 1.432,6.21 0.771,2.376 0.638,1.592 0.384,0.696 0,0"
             style="fill:#66cbc0;fill-opacity:1;fill-rule:nonzero;stroke:none"
             id="path9830" />
        </g>
        <g
           id="g9832"
           transform="translate(144.46,495.1657)">
          <path
             d="m 0,0 v -24.821 h 14.822 c 0.709,1.587 0.451,3.452 -0.025,4.599 -1.433,3.496 -3.759,5.387 -5.055,8.437 -1.223,2.892 -1.367,5.532 -0.307,9.331 0.059,0.215 0.649,1.725 1.043,2.454 z"
             style="fill:#005c87;fill-opacity:1;fill-rule:nonzero;stroke:none"
             id="path9834" />
        </g>
        <g
           id="g9836"
           transform="translate(223.7412,495.1657)">
          <path
             d="m 0,0 h -12.307 v -19.688 c 0.005,-0.099 -0.019,-0.577 -0.043,-1.067 -0.136,-3.085 -0.859,-3.7 -1.63,-4.066 l 13.98,0 z"
             style="fill:#00a3cc;fill-opacity:1;fill-rule:nonzero;stroke:none"
             id="path9838" />
        </g>
        <g
           id="g9840"
           transform="translate(196.666,491.1022)">
          <path
             d="m 0,0 v -24.603 l 0.013,-0.398 c 0.07,-2.189 1.853,-3.938 4.063,-3.938 2.175,0 3.944,1.711 4.069,3.856 l 0.006,0.48 V 0 Z"
             style="fill:#005c87;fill-opacity:1;fill-rule:nonzero;stroke:none"
             id="path9842" />
        </g>
        <g
           id="g9844"
           transform="translate(116.6055,102.4601)">
          <path
             d="m 0,0 c 0.64,-0.33 1.657,-0.67 2.688,-0.67 1.114,0 1.7,0.467 1.7,1.18 0,0.652 -0.505,1.049 -1.799,1.5 -1.78,0.631 -2.955,1.617 -2.955,3.185 0,1.832 1.541,3.219 4.054,3.219 1.229,0 2.099,-0.244 2.741,-0.543 L 5.886,5.93 C 5.471,6.139 4.693,6.439 3.661,6.439 2.606,6.439 2.098,5.953 2.098,5.404 2.098,4.725 2.688,4.422 4.087,3.879 5.983,3.182 6.852,2.197 6.852,0.668 c 0,-1.797 -1.368,-3.32 -4.306,-3.32 -1.222,0 -2.432,0.33 -3.038,0.668 z"
             style="fill:#514e4f;fill-opacity:1;fill-rule:nonzero;stroke:none"
             id="path9846" />
        </g>
        <g
           id="g9848"
           transform="translate(128.4014,101.5461)">
          <path
             d="M 0,0 C 0.955,0 1.54,0.934 1.54,2.328 1.54,3.475 1.094,4.654 0,4.654 -1.145,4.654 -1.59,3.475 -1.59,2.314 -1.59,0.998 -1.03,0 -0.016,0 Z m -0.047,-1.738 c -2.272,0 -4.015,1.494 -4.015,4.006 0,2.511 1.653,4.117 4.158,4.117 2.369,0 3.956,-1.641 3.956,-3.992 0,-2.829 -2.015,-4.131 -4.081,-4.131 z"
             style="fill:#514e4f;fill-opacity:1;fill-rule:nonzero;stroke:none"
             id="path9850" />
        </g>
        <g
           id="g9852"
           transform="translate(137.3066,101.5461)">
          <path
             d="M 0,0 C 0.955,0 1.537,0.934 1.537,2.328 1.537,3.475 1.096,4.654 0,4.654 -1.148,4.654 -1.593,3.475 -1.593,2.314 -1.593,0.998 -1.033,0 -0.02,0 Z m -0.044,-1.738 c -2.279,0 -4.029,1.494 -4.029,4.006 0,2.511 1.651,4.117 4.166,4.117 2.369,0 3.956,-1.641 3.956,-3.992 0,-2.829 -2.018,-4.131 -4.086,-4.131 z"
             style="fill:#514e4f;fill-opacity:1;fill-rule:nonzero;stroke:none"
             id="path9854" />
        </g>
        <g
           id="g9856"
           transform="translate(142.5332,105.2746)">
          <path
             d="M 0,0 C 0,0.971 -0.032,1.775 -0.065,2.482 H 2.033 L 2.148,1.398 h 0.043 c 0.32,0.512 1.099,1.258 2.406,1.258 1.582,0 2.782,-1.066 2.782,-3.355 V -5.293 H 4.957 v 4.305 c 0,1.006 -0.35,1.687 -1.222,1.687 C 3.067,0.699 2.674,0.242 2.494,-0.209 2.432,-0.365 2.417,-0.586 2.417,-0.805 V -5.293 H 0 Z"
             style="fill:#514e4f;fill-opacity:1;fill-rule:nonzero;stroke:none"
             id="path9858" />
        </g>
        <g
           id="g9860"
           transform="translate(156.4756,104.5929)">
          <path
             d="M 0,0 C 0,0.139 -0.016,0.301 -0.052,0.449 -0.225,1.08 -0.684,1.51 -1.349,1.51 c -0.894,0 -1.592,-0.799 -1.592,-2.211 0,-1.16 0.567,-2.07 1.573,-2.07 0.64,0 1.128,0.419 1.287,0.974 C -0.016,-1.607 0,-1.35 0,-1.141 Z m 2.416,-3.482 c 0,-1.495 -0.303,-2.719 -1.194,-3.497 -0.846,-0.734 -2.004,-0.953 -3.144,-0.953 -1.036,0 -2.101,0.203 -2.802,0.588 l 0.477,1.846 c 0.493,-0.289 1.339,-0.588 2.264,-0.588 1.141,0 2.013,0.598 2.013,2.047 v 0.494 H 0 c -0.461,-0.637 -1.21,-1.002 -2.099,-1.002 -1.924,0 -3.292,1.557 -3.292,3.779 0,2.514 1.609,4.106 3.533,4.106 1.06,0 1.73,-0.461 2.126,-1.094 h 0.033 l 0.075,0.92 H 2.479 C 2.44,2.654 2.416,2.006 2.416,0.84 Z"
             style="fill:#514e4f;fill-opacity:1;fill-rule:nonzero;stroke:none"
             id="path9862" />
        </g>
        <g
           id="g9864"
           transform="translate(160.8145,102.0812)">
          <path
             d="m 0,0 c 0.447,-0.27 1.365,-0.574 2.08,-0.574 0.727,0 1.033,0.242 1.033,0.635 0,0.418 -0.234,0.603 -1.126,0.91 C 0.364,1.494 -0.256,2.389 -0.241,3.293 -0.241,4.756 1,5.85 2.923,5.85 3.828,5.85 4.63,5.627 5.098,5.389 L 4.688,3.738 C 4.34,3.908 3.656,4.164 3.007,4.164 2.408,4.164 2.08,3.924 2.08,3.549 2.08,3.166 2.382,2.971 3.337,2.637 4.815,2.145 5.421,1.379 5.436,0.256 c 0,-1.463 -1.131,-2.529 -3.356,-2.529 -1.018,0 -1.918,0.238 -2.514,0.554 z"
             style="fill:#514e4f;fill-opacity:1;fill-rule:nonzero;stroke:none"
             id="path9866" />
        </g>
        <path
           d="m 167.731,107.757 h 2.409 v -7.775 h -2.409 z m 1.192,1.016 c -0.814,0 -1.333,0.574 -1.333,1.287 0,0.734 0.533,1.287 1.359,1.287 0.832,0 1.34,-0.553 1.356,-1.287 0,-0.713 -0.524,-1.287 -1.367,-1.287 z"
           style="fill:#514e4f;fill-opacity:1;fill-rule:nonzero;stroke:none"
           id="path9868" />
        <path
           d="m 172.088,111.267 h 2.416 V 99.982 h -2.416 z"
           style="fill:#514e4f;fill-opacity:1;fill-rule:nonzero;stroke:none"
           id="path9870" />
        <g
           id="g9872"
           transform="translate(182.1455,110.6964)">
          <path
             d="m 0,0 v -6.15 c 0,-1.86 0.712,-2.797 1.936,-2.797 1.274,0 1.975,0.884 1.975,2.797 V 0 h 2.412 v -6.008 c 0,-3.308 -1.666,-4.881 -4.463,-4.881 -2.708,0 -4.273,1.512 -4.273,4.91 l 0,5.979 z"
             style="fill:#514e4f;fill-opacity:1;fill-rule:nonzero;stroke:none"
             id="path9874" />
        </g>
        <g
           id="g9876"
           transform="translate(190.4551,105.2746)">
          <path
             d="M 0,0 C 0,0.971 -0.032,1.775 -0.061,2.482 H 2.035 L 2.149,1.398 h 0.046 c 0.322,0.512 1.097,1.258 2.404,1.258 1.585,0 2.78,-1.066 2.78,-3.355 V -5.293 H 4.967 v 4.305 C 4.967,0.018 4.613,0.699 3.736,0.699 3.073,0.699 2.677,0.242 2.504,-0.209 2.433,-0.365 2.425,-0.586 2.425,-0.805 V -5.293 H 0 Z"
             style="fill:#514e4f;fill-opacity:1;fill-rule:nonzero;stroke:none"
             id="path9878" />
        </g>
        <path
           d="m 199.777,107.757 h 2.414 v -7.775 h -2.414 z m 1.193,1.016 c -0.81,0 -1.336,0.574 -1.336,1.287 0,0.734 0.541,1.287 1.365,1.287 0.826,0 1.334,-0.553 1.353,-1.287 0,-0.713 -0.527,-1.287 -1.375,-1.287 z"
           style="fill:#514e4f;fill-opacity:1;fill-rule:nonzero;stroke:none"
           id="path9880" />
        <g
           id="g9882"
           transform="translate(205.6064,107.757)">
          <path
             d="M 0,0 1.056,-3.607 C 1.241,-4.266 1.366,-4.881 1.492,-5.5 h 0.049 c 0.13,0.633 0.257,1.225 0.43,1.893 L 2.978,0 H 5.519 L 2.624,-7.775 H 0.213 L -2.625,0 Z"
             style="fill:#514e4f;fill-opacity:1;fill-rule:nonzero;stroke:none"
             id="path9884" />
        </g>
        <g
           id="g9886"
           transform="translate(216.3223,104.7648)">
          <path
             d="M 0,0 C 0,0.576 -0.251,1.574 -1.35,1.574 -2.388,1.574 -2.8,0.633 -2.863,0 Z m -2.848,-1.654 c 0.083,-1.012 1.064,-1.491 2.196,-1.491 0.826,0 1.494,0.11 2.149,0.332 l 0.315,-1.632 c -0.796,-0.338 -1.77,-0.498 -2.813,-0.498 -2.645,0 -4.153,1.527 -4.153,3.976 0,1.969 1.241,4.145 3.928,4.145 2.515,0 3.466,-1.953 3.466,-3.873 0,-0.41 -0.048,-0.78 -0.081,-0.967 z"
             style="fill:#514e4f;fill-opacity:1;fill-rule:nonzero;stroke:none"
             id="path9888" />
        </g>
        <g
           id="g9890"
           transform="translate(220.0215,105.2023)">
          <path
             d="M 0,0 C 0,1.137 -0.012,1.887 -0.062,2.555 H 2.007 L 2.102,1.104 h 0.063 c 0.399,1.146 1.338,1.625 2.096,1.625 0.224,0 0.335,-0.016 0.51,-0.051 V 0.406 C 4.564,0.439 4.371,0.471 4.104,0.471 3.22,0.471 2.612,0.008 2.453,-0.758 2.416,-0.916 2.409,-1.086 2.409,-1.297 v -3.924 h -2.421 z"
             style="fill:#514e4f;fill-opacity:1;fill-rule:nonzero;stroke:none"
             id="path9892" />
        </g>
        <g
           id="g9894"
           transform="translate(225.7168,102.0812)">
          <path
             d="m 0,0 c 0.447,-0.27 1.362,-0.574 2.08,-0.574 0.731,0 1.039,0.242 1.039,0.635 0,0.418 -0.24,0.603 -1.131,0.91 -1.622,0.523 -2.242,1.418 -2.229,2.322 0,1.463 1.239,2.557 3.164,2.557 0.907,0 1.699,-0.223 2.181,-0.461 L 4.687,3.738 C 4.338,3.908 3.652,4.164 3.005,4.164 2.413,4.164 2.08,3.924 2.08,3.549 2.08,3.166 2.389,2.971 3.337,2.637 4.812,2.145 5.417,1.379 5.435,0.256 c 0,-1.463 -1.132,-2.529 -3.355,-2.529 -1.021,0 -1.921,0.238 -2.514,0.554 z"
             style="fill:#514e4f;fill-opacity:1;fill-rule:nonzero;stroke:none"
             id="path9896" />
        </g>
        <path
           d="m 232.629,107.757 h 2.416 v -7.775 h -2.416 z m 1.196,1.016 c -0.815,0 -1.338,0.574 -1.338,1.287 0,0.734 0.54,1.287 1.365,1.287 0.83,0 1.335,-0.553 1.356,-1.287 0,-0.713 -0.526,-1.287 -1.371,-1.287 z"
           style="fill:#514e4f;fill-opacity:1;fill-rule:nonzero;stroke:none"
           id="path9898" />
        <g
           id="g9900"
           transform="translate(239.6875,109.8722)">
          <path
             d="M 0,0 V -2.115 H 1.74 V -3.898 H 0 v -2.827 c 0,-0.937 0.24,-1.369 0.952,-1.369 0.331,0 0.49,0.012 0.714,0.065 l 0.02,-1.83 c -0.304,-0.11 -0.894,-0.205 -1.562,-0.205 -0.778,0 -1.422,0.271 -1.828,0.668 -0.441,0.462 -0.662,1.208 -0.662,2.308 v 3.19 h -1.036 v 1.783 h 1.036 v 1.465 z"
             style="fill:#514e4f;fill-opacity:1;fill-rule:nonzero;stroke:none"
             id="path9902" />
        </g>
        <g
           id="g9904"
           transform="translate(244.7256,107.757)">
          <path
             d="M 0,0 1.159,-3.818 C 1.29,-4.275 1.448,-4.854 1.544,-5.262 h 0.045 c 0.105,0.408 0.238,0.996 0.351,1.444 L 2.889,0 H 5.48 L 3.672,-5.123 C 2.557,-8.205 1.813,-9.428 0.94,-10.209 c -0.831,-0.727 -1.722,-1 -2.34,-1.064 l -0.505,2.031 c 0.297,0.072 0.681,0.215 1.041,0.422 0.371,0.185 0.789,0.584 1.001,0.966 0.081,0.125 0.136,0.235 0.136,0.35 0,0.076 -0.016,0.203 -0.098,0.395 L -2.688,0 Z"
             style="fill:#514e4f;fill-opacity:1;fill-rule:nonzero;stroke:none"
             id="path9906" />
        </g>
        <g
           id="g9908"
           transform="translate(173.3125,118.4132)">
          <path
             d="m 0,0 h -8.939 c 0.102,0 0.43,0.432 0.511,0.518 0.172,0.195 0.338,0.396 0.493,0.607 0.385,0.523 0.684,1.115 0.903,1.723 0.78,2.091 0.721,4.535 -0.145,6.406 -0.905,1.955 -2.317,3.668 -3.307,5.283 -1.609,2.631 -2.74,5.582 -2.5,8.719 0.153,1.99 1.058,4.168 2.407,5.66 h 8.606 C -4.409,26.605 -5.126,23.355 -4.26,20.012 -3.788,18.158 -2.588,16.426 -1.669,15.02 -0.702,13.533 0.306,12.025 1.023,10.4 1.902,8.428 2.18,6.166 1.757,4.035 1.559,3.004 1.207,1.99 0.713,1.07 0.629,0.924 0.192,0 0,0"
             style="fill:#00a3cc;fill-opacity:1;fill-rule:nonzero;stroke:none"
             id="path9910" />
        </g>
        <g
           id="g9912"
           transform="translate(178.2744,126.8566)">
          <path
             d="M 0,0 H 14.834 V 24.447 H -4.689 c -1.475,-1.299 -2.381,-3.894 -1.73,-6.556 0.508,-2.084 2.016,-3.967 3.359,-5.75 C -0.925,9.305 1.411,6.115 0.758,2.34 0.629,1.568 0.375,0.687 0,0"
             style="fill:#66cbc0;fill-opacity:1;fill-rule:nonzero;stroke:none"
             id="path9914" />
        </g>
        <g
           id="g9916"
           transform="translate(144.9844,151.3039)">
          <path
             d="m 0,0 v -24.447 h 14.6 c 0.698,1.564 0.442,3.4 -0.025,4.529 -1.412,3.445 -3.704,5.307 -4.98,8.313 C 8.389,-8.758 8.25,-6.16 9.294,-2.418 9.353,-2.207 9.933,-0.717 10.321,0 Z"
             style="fill:#005c87;fill-opacity:1;fill-rule:nonzero;stroke:none"
             id="path9918" />
        </g>
        <g
           id="g9920"
           transform="translate(223.0771,151.3039)">
          <path
             d="m 0,0 h -12.121 v -19.391 c 0.002,-0.097 -0.019,-0.57 -0.041,-1.052 -0.14,-3.037 -0.851,-3.645 -1.608,-4.004 l 13.77,0 z"
             style="fill:#00a3cc;fill-opacity:1;fill-rule:nonzero;stroke:none"
             id="path9922" />
        </g>
        <g
           id="g9924"
           transform="translate(196.4072,147.3039)">
          <path
             d="m 0,0 v -24.236 l 0.012,-0.391 c 0.07,-2.154 1.828,-3.877 4.006,-3.877 2.138,0 3.884,1.684 4.007,3.797 l 0.004,0.471 V 0 Z"
             style="fill:#005c87;fill-opacity:1;fill-rule:nonzero;stroke:none"
             id="path9926" />
        </g>
        <g
           id="g9928"
           transform="translate(155.0156,546.0568)"
           inkscape:export-filename="..\OneDrive\바탕 화면\잉스케이프-로고\숭실대학교.png"
           inkscape:export-xdpi="336.61227"
           inkscape:export-ydpi="336.61227">
          <path
             d="m 0,0 c 0,-1.047 -1.53,-1.762 -2.938,-1.762 -1.408,0 -2.939,0.715 -2.939,1.762 0,1.046 1.531,1.761 2.939,1.761 C -1.53,1.761 0,1.046 0,0 m -10.424,4.715 h 6.363 V 3.368 C -6.285,3.076 -8.192,1.691 -8.192,0 c 0,-1.886 2.408,-3.417 4.954,-3.417 h 0.616 c 2.546,0 4.938,1.531 4.938,3.417 0,1.653 -1.832,3.023 -3.984,3.346 V 4.715 H 4.74 v 1.631 h -15.164 z"
             style="fill:#514e4f;fill-opacity:1;fill-rule:nonzero;stroke:none"
             id="path9930" />
        </g>
        <g
           id="g9932"
           transform="translate(173.0479,551.4103)">
          <path
             d="M 0,0 2.106,0.023 V 5.97 H 0 Z"
             style="fill:#514e4f;fill-opacity:1;fill-rule:nonzero;stroke:none"
             id="path9934" />
        </g>
        <g
           id="g9936"
           transform="translate(163.2334,549.1252)">
          <path
             d="M 0,0 H 9.814 V -0.962 H 0 v -2.962 c 0,-0.43 0.091,-0.746 0.307,-0.922 0.208,-0.185 0.522,-0.285 0.937,-0.285 h 10.677 v 1.623 H 2.19 v 0.993 h 9.731 v 4.13 L 0,1.615 Z"
             style="fill:#514e4f;fill-opacity:1;fill-rule:nonzero;stroke:none"
             id="path9938" />
        </g>
        <g
           id="g9940"
           transform="translate(207.2422,557.3799)">
          <path
             d="m 0,0 h -2.1 v -7.255 h 2.092 L 0,-3.831 h 2.123 v 1.654 H 0 Z"
             style="fill:#514e4f;fill-opacity:1;fill-rule:nonzero;stroke:none"
             id="path9942" />
        </g>
        <g
           id="g9944"
           transform="translate(194.8867,547.8174)">
          <path
             d="m 0,0 h 10.256 v -3.885 h 2.099 V 1.654 H 0 Z"
             style="fill:#514e4f;fill-opacity:1;fill-rule:nonzero;stroke:none"
             id="path9946" />
        </g>
        <g
           id="g9948"
           transform="translate(196.9805,554.795)">
          <path
             d="m 0,0 c 0.407,0.315 0.878,0.462 1.414,0.462 0.518,0 0.993,-0.147 1.393,-0.462 0.416,-0.339 0.638,-0.73 0.638,-1.208 0,-0.423 -0.222,-0.8 -0.638,-1.131 -0.4,-0.33 -0.875,-0.5 -1.393,-0.5 -0.536,0 -1.007,0.17 -1.414,0.5 -0.4,0.331 -0.615,0.708 -0.615,1.131 C -0.615,-0.73 -0.4,-0.339 0,0 m -2.686,-1.131 c 0,-0.977 0.424,-1.769 1.271,-2.393 0.8,-0.608 1.753,-0.907 2.877,-0.907 1.101,0 2.038,0.299 2.808,0.907 0.831,0.624 1.238,1.416 1.238,2.393 0,0.3 -0.061,0.576 -0.194,0.861 C 5.191,0 5.03,0.254 4.814,0.462 h 1.654 v 1.6 H 2.508 V 3.346 H 0.238 V 2.062 h -4.015 v -1.6 H -1.97 C -2.207,0.254 -2.385,0 -2.51,-0.27 -2.623,-0.555 -2.686,-0.831 -2.686,-1.131"
             style="fill:#514e4f;fill-opacity:1;fill-rule:nonzero;stroke:none"
             id="path9950" />
        </g>
        <g
           id="g9952"
           transform="translate(189.6416,553.088)">
          <path
             d="M 0,0 H -1.785 V 4.292 H -3.716 V -9.179 l 1.931,0.008 v 7.517 H 0 v -7.525 l 1.999,0.008 V 4.292 L 0,4.292 Z"
             style="fill:#514e4f;fill-opacity:1;fill-rule:nonzero;stroke:none"
             id="path9954" />
        </g>
        <g
           id="g9956"
           transform="translate(179.9727,555.7256)">
          <path
             d="m 0,0 h 4.307 v 1.654 h -6.425 v -8.931 c 0,-0.385 0.132,-0.661 0.401,-0.823 0.186,-0.124 0.517,-0.185 0.94,-0.185 h 5.4 v 1.654 H 0 Z"
             style="fill:#514e4f;fill-opacity:1;fill-rule:nonzero;stroke:none"
             id="path9958" />
        </g>
        <g
           id="g9960"
           transform="translate(220.2891,547.7101)">
          <path
             d="M 0,0 2.107,0.016 2.115,9.67 H -9.607 V 8.016 H 0 Z"
             style="fill:#514e4f;fill-opacity:1;fill-rule:nonzero;stroke:none"
             id="path9962" />
        </g>
        <g
           id="g9964"
           transform="translate(218.2129,546.3019)">
          <path
             d="M 0,0 V 5.539 H -2.078 V 0 H -3.885 V 5.539 H -5.954 V 0 H -8.5 V -1.646 H 5.393 l 0,1.646 z"
             style="fill:#514e4f;fill-opacity:1;fill-rule:nonzero;stroke:none"
             id="path9966" />
        </g>
        <g
           id="g9968"
           transform="translate(148.9854,553.8409)">
          <path
             d="m 0,0 c 1.477,0.361 2.53,0.923 3.153,1.616 0.631,-0.693 1.67,-1.255 3.139,-1.6 1.055,-0.27 2.246,-0.493 3.547,-0.532 l 0.369,1.67 V 1.169 C 8.386,1.246 7.153,1.555 6.23,1.923 5.061,2.339 4.262,3.077 4.262,3.708 H 2.069 C 2.077,3.131 1.254,2.362 0.076,1.923 -0.855,1.555 -2.069,1.224 -3.87,1.147 V 1.139 l 0.362,-1.655 C -2.237,-0.492 -1.062,-0.262 0,0"
             style="fill:#514e4f;fill-opacity:1;fill-rule:nonzero;stroke:none"
             id="path9970" />
        </g>
        <g
           id="g9972"
           transform="translate(166.4785,554.1642)">
          <path
             d="m 0,0 c 0.561,-0.738 1.238,-1.331 2.084,-1.738 0.708,-0.354 1.992,-0.724 2.823,-0.801 l 0.409,1.677 C 3.932,-0.708 2.406,0.046 1.777,0.846 1.316,1.478 1.084,2.192 1.084,3.192 H -1.17 C -1.17,2.161 -1.408,1.446 -1.885,0.823 -2.493,0.038 -4.023,-0.723 -5.43,-0.885 V -0.9 l 0.399,-1.639 c 0.761,0.077 2.023,0.447 2.748,0.777 C -1.316,-1.315 -0.555,-0.731 0,0"
             style="fill:#514e4f;fill-opacity:1;fill-rule:nonzero;stroke:none"
             id="path9974" />
        </g>
        <path
           d="m 144.463,539.471 h 79.566 v 1.347 h -79.566 z"
           style="fill:#514e4f;fill-opacity:1;fill-rule:nonzero;stroke:none"
           id="path9976" />
        <path
           d="m 144.463,560.341 h 79.566 v 1.347 h -79.566 z"
           style="fill:#514e4f;fill-opacity:1;fill-rule:nonzero;stroke:none"
           id="path9978" />
        <g
           id="g9980"
           transform="translate(173.3242,569.8047)">
          <path
             d="m 0,0 h -9.109 c 0.106,0 0.438,0.444 0.521,0.528 0.176,0.201 0.344,0.407 0.502,0.622 0.395,0.536 0.697,1.134 0.924,1.753 0.789,2.132 0.734,4.622 -0.148,6.528 -0.924,1.994 -2.363,3.738 -3.373,5.385 -1.639,2.683 -2.79,5.687 -2.545,8.883 0.154,2.028 1.08,4.245 2.452,5.768 H -2.01 C -4.492,27.11 -5.225,23.8 -4.342,20.392 c 0.485,-1.886 1.705,-3.65 2.641,-5.085 0.986,-1.516 2.012,-3.053 2.746,-4.706 C 1.941,8.589 2.221,6.284 1.789,4.113 1.588,3.065 1.231,2.031 0.725,1.094 0.641,0.945 0.197,0 0,0"
             style="fill:#00a3cc;fill-opacity:1;fill-rule:nonzero;stroke:none"
             id="path9982" />
        </g>
        <g
           id="g9984"
           transform="translate(178.3789,578.4092)">
          <path
             d="M 0,0 H 15.117 V 24.911 H -4.778 c -1.503,-1.32 -2.423,-3.969 -1.761,-6.681 0.518,-2.124 2.054,-4.041 3.424,-5.859 C -0.939,9.483 1.439,6.233 0.773,2.386 0.641,1.599 0.387,0.704 0,0"
             style="fill:#66cbc0;fill-opacity:1;fill-rule:nonzero;stroke:none"
             id="path9986" />
        </g>
        <g
           id="g9988"
           transform="translate(144.46,603.3204)">
          <path
             d="m 0,0 v -24.911 h 14.876 c 0.711,1.595 0.45,3.468 -0.026,4.618 -1.437,3.508 -3.773,5.406 -5.072,8.468 -1.229,2.9 -1.371,5.552 -0.308,9.362 0.06,0.215 0.65,1.733 1.047,2.463 z"
             style="fill:#005c87;fill-opacity:1;fill-rule:nonzero;stroke:none"
             id="path9990" />
        </g>
        <g
           id="g9992"
           transform="translate(224.0293,603.3204)">
          <path
             d="m 0,0 h -12.351 v -19.759 c 0.005,-0.099 -0.019,-0.578 -0.044,-1.068 -0.136,-3.097 -0.863,-3.715 -1.634,-4.084 H 0 Z"
             style="fill:#00a3cc;fill-opacity:1;fill-rule:nonzero;stroke:none"
             id="path9994" />
        </g>
        <g
           id="g9996"
           transform="translate(196.8564,599.2443)">
          <path
             d="m 0,0 v -24.692 l 0.011,-0.4 c 0.072,-2.197 1.863,-3.95 4.08,-3.95 2.181,0 3.96,1.715 4.084,3.867 l 0.006,0.483 V 0 Z"
             style="fill:#005c87;fill-opacity:1;fill-rule:nonzero;stroke:none"
             id="path9998" />
        </g>
        <g
           id="g10000"
           transform="translate(432.4189,576.5132)">
          <path
             d="m 0,0 c 0,-1.577 -2.308,-2.651 -4.434,-2.651 -2.126,0 -4.438,1.074 -4.438,2.651 0,1.585 2.312,2.655 4.438,2.655 C -2.308,2.655 0,1.585 0,0 m -15.729,7.116 h 9.596 V 5.074 C -9.481,4.64 -12.357,2.538 -12.357,0 c 0,-2.841 3.619,-5.143 7.466,-5.143 h 0.914 c 3.848,0 7.467,2.302 7.467,5.143 0,2.488 -2.761,4.565 -6.026,5.044 v 2.072 h 9.665 v 2.453 h -22.858 z"
             style="fill:#514e4f;fill-opacity:1;fill-rule:nonzero;stroke:none"
             id="path10002" />
        </g>
        <g
           id="g10004"
           transform="translate(459.6055,584.5895)">
          <path
             d="m 0,0 3.169,0.039 v 8.96 H 0 Z"
             style="fill:#514e4f;fill-opacity:1;fill-rule:nonzero;stroke:none"
             id="path10006" />
        </g>
        <g
           id="g10008"
           transform="translate(444.7861,581.149)">
          <path
             d="M 0,0 H 14.819 V -1.451 H 0 V -5.932 C 0,-6.57 0.159,-7.036 0.476,-7.33 0.8,-7.596 1.257,-7.732 1.896,-7.732 h 16.092 v 2.437 H 3.314 v 1.502 H 17.988 V 2.439 H 0 Z"
             style="fill:#514e4f;fill-opacity:1;fill-rule:nonzero;stroke:none"
             id="path10010" />
        </g>
        <g
           id="g10012"
           transform="translate(511.1689,593.5884)">
          <path
             d="M 0,0 H -3.182 V -10.938 H -0.02 L 0,-5.783 h 3.186 v 2.506 l -3.186,0 z"
             style="fill:#514e4f;fill-opacity:1;fill-rule:nonzero;stroke:none"
             id="path10014" />
        </g>
        <g
           id="g10016"
           transform="translate(492.54,579.1802)">
          <path
             d="m 0,0 h 15.447 v -5.859 l 3.182,-0.008 V 2.488 L 0,2.488 Z"
             style="fill:#514e4f;fill-opacity:1;fill-rule:nonzero;stroke:none"
             id="path10018" />
        </g>
        <g
           id="g10020"
           transform="translate(495.6826,589.6871)">
          <path
             d="M 0,0 C 0.61,0.477 1.326,0.716 2.133,0.716 2.926,0.716 3.627,0.477 4.236,0 4.869,-0.511 5.19,-1.105 5.19,-1.798 5.19,-2.454 4.869,-3.017 4.236,-3.52 3.627,-4.026 2.926,-4.271 2.133,-4.271 1.326,-4.271 0.61,-4.026 0,-3.52 c -0.602,0.503 -0.914,1.066 -0.914,1.722 0,0.693 0.312,1.287 0.914,1.798 m -4.045,-1.7 c 0,-1.469 0.654,-2.67 1.919,-3.619 1.212,-0.907 2.651,-1.352 4.328,-1.352 1.669,0 3.079,0.445 4.244,1.352 1.246,0.949 1.867,2.15 1.867,3.619 0,0.457 -0.103,0.885 -0.282,1.305 C 7.84,0.007 7.589,0.378 7.258,0.716 H 9.761 V 3.108 H 3.795 V 5.052 H 0.377 V 3.108 H -5.699 V 0.716 h 2.736 C -3.318,0.378 -3.6,0.007 -3.779,-0.395 -3.954,-0.815 -4.045,-1.243 -4.045,-1.7"
             style="fill:#514e4f;fill-opacity:1;fill-rule:nonzero;stroke:none"
             id="path10022" />
        </g>
        <g
           id="g10024"
           transform="translate(484.6162,587.1158)">
          <path
             d="m 0,0 h -2.693 v 6.473 h -2.922 v -20.315 l 2.922,0.028 V -2.496 H 0 v -11.346 l 3.022,0.028 V 6.473 L 0,6.473 Z"
             style="fill:#514e4f;fill-opacity:1;fill-rule:nonzero;stroke:none"
             id="path10026" />
        </g>
        <g
           id="g10028"
           transform="translate(470.0361,591.1042)">
          <path
             d="m 0,0 h 6.488 v 2.484 h -9.674 v -13.452 c 0,-0.591 0.204,-1.01 0.595,-1.249 0.294,-0.195 0.777,-0.29 1.418,-0.29 h 8.134 v 2.499 H 0 Z"
             style="fill:#514e4f;fill-opacity:1;fill-rule:nonzero;stroke:none"
             id="path10030" />
        </g>
        <g
           id="g10032"
           transform="translate(530.8271,579.0045)">
          <path
             d="M 0,0 3.182,0.016 3.188,14.584 H -14.477 V 12.1 H 0 Z"
             style="fill:#514e4f;fill-opacity:1;fill-rule:nonzero;stroke:none"
             id="path10034" />
        </g>
        <g
           id="g10036"
           transform="translate(527.7031,576.8942)">
          <path
             d="M 0,0 V 8.343 H -3.136 V 0 H -5.854 V 8.343 H -8.979 V 0 h -3.84 V -2.499 H 8.134 V 0 Z"
             style="fill:#514e4f;fill-opacity:1;fill-rule:nonzero;stroke:none"
             id="path10038" />
        </g>
        <g
           id="g10040"
           transform="translate(423.333,588.2505)">
          <path
             d="M 0,0 C 2.206,0.533 3.795,1.395 4.758,2.439 5.682,1.395 7.25,0.541 9.468,0.02 c 1.604,-0.393 3.393,-0.741 5.348,-0.796 l 0.561,2.533 v 0.007 c -2.744,0.111 -4.591,0.594 -6,1.129 C 7.617,3.539 6.404,4.629 6.404,5.582 H 3.109 C 3.12,4.729 1.871,3.555 0.103,2.893 -1.299,2.335 -3.15,1.848 -5.856,1.734 V 1.711 l 0.557,-2.487 C -3.387,-0.734 -1.614,-0.396 0,0"
             style="fill:#514e4f;fill-opacity:1;fill-rule:nonzero;stroke:none"
             id="path10042" />
        </g>
        <g
           id="g10044"
           transform="translate(449.7002,588.7466)">
          <path
             d="m 0,0 c 0.838,-1.121 1.874,-2.008 3.132,-2.644 1.067,-0.507 3.006,-1.079 4.266,-1.2 l 0.622,2.53 C 5.92,-1.066 3.611,0.061 2.683,1.268 1.98,2.217 1.639,3.283 1.639,4.812 h -3.411 c 0,-1.54 -0.354,-2.619 -1.066,-3.568 -0.926,-1.183 -3.227,-2.338 -5.352,-2.59 v -0.022 l 0.602,-2.469 c 1.143,0.122 3.047,0.686 4.141,1.178 C -1.98,-1.985 -0.838,-1.102 0,0"
             style="fill:#514e4f;fill-opacity:1;fill-rule:nonzero;stroke:none"
             id="path10046" />
        </g>
        <g
           id="g10048"
           transform="translate(356.4463,564.6255)">
          <path
             d="m 0,0 h -9.12 c 0.105,0 0.438,0.443 0.522,0.529 0.176,0.2 0.344,0.407 0.502,0.623 0.397,0.535 0.699,1.133 0.925,1.755 0.79,2.135 0.735,4.628 -0.148,6.534 -0.925,1.998 -2.365,3.742 -3.375,5.392 -1.642,2.687 -2.795,5.693 -2.55,8.893 0.154,2.03 1.081,4.253 2.455,5.774 h 8.777 c -2.486,-2.357 -3.218,-5.672 -2.335,-9.084 0.485,-1.889 1.706,-3.654 2.643,-5.093 0.988,-1.514 2.015,-3.054 2.751,-4.71 C 1.944,8.598 2.223,6.29 1.791,4.117 1.592,3.068 1.232,2.034 0.725,1.094 0.643,0.947 0.197,0 0,0"
             style="fill:#00a3cc;fill-opacity:1;fill-rule:nonzero;stroke:none"
             id="path10050" />
        </g>
        <g
           id="g10052"
           transform="translate(361.5068,573.2389)">
          <path
             d="M 0,0 H 15.135 V 24.94 H -4.783 C -6.288,23.62 -7.211,20.968 -6.545,18.252 -6.029,16.125 -4.49,14.207 -3.119,12.387 -0.939,9.496 1.439,6.242 0.775,2.391 0.643,1.602 0.387,0.707 0,0"
             style="fill:#66cbc0;fill-opacity:1;fill-rule:nonzero;stroke:none"
             id="path10054" />
        </g>
        <g
           id="g10056"
           transform="translate(327.5479,598.1794)">
          <path
             d="m 0,0 v -24.94 h 14.893 c 0.712,1.596 0.453,3.472 -0.024,4.625 -1.439,3.51 -3.777,5.411 -5.08,8.476 -1.228,2.904 -1.373,5.561 -0.307,9.375 0.059,0.216 0.651,1.735 1.045,2.464 z"
             style="fill:#005c87;fill-opacity:1;fill-rule:nonzero;stroke:none"
             id="path10058" />
        </g>
        <g
           id="g10060"
           transform="translate(407.2119,598.1794)">
          <path
             d="m 0,0 h -12.365 v -19.782 c 0.004,-0.099 -0.022,-0.578 -0.045,-1.068 -0.137,-3.1 -0.865,-3.719 -1.637,-4.09 H 0 Z"
             style="fill:#00a3cc;fill-opacity:1;fill-rule:nonzero;stroke:none"
             id="path10062" />
        </g>
        <g
           id="g10064"
           transform="translate(380.0059,594.1011)">
          <path
             d="m 0,0 v -24.722 l 0.013,-0.399 c 0.071,-2.2 1.863,-3.956 4.084,-3.956 2.183,0 3.963,1.715 4.088,3.872 l 0.006,0.483 V 0 Z"
             style="fill:#005c87;fill-opacity:1;fill-rule:nonzero;stroke:none"
             id="path10066" />
        </g>
        <g
           id="g10068"
           transform="translate(233.8633,295.4054)">
          <path
             d="m 0,0 c 0.86,-0.459 2.246,-0.91 3.645,-0.91 1.508,0 2.31,0.629 2.31,1.597 0,0.881 -0.692,1.424 -2.434,2.034 -2.423,0.859 -4.015,2.201 -4.015,4.332 0,2.488 2.087,4.355 5.5,4.355 1.655,0 2.848,-0.316 3.709,-0.73 L 7.982,8.047 C 7.424,8.328 6.365,8.734 4.961,8.734 c -1.43,0 -2.122,-0.658 -2.122,-1.4 0,-0.93 0.806,-1.334 2.7,-2.066 2.572,-0.95 3.759,-2.295 3.759,-4.364 0,-2.437 -1.86,-4.509 -5.851,-4.509 -1.656,0 -3.289,0.46 -4.119,0.906 z"
             style="fill:#514e4f;fill-opacity:1;fill-rule:nonzero;stroke:none"
             id="path10070" />
        </g>
        <g
           id="g10072"
           transform="translate(249.873,294.1554)">
          <path
             d="M 0,0 C 1.29,0 2.092,1.27 2.092,3.164 2.092,4.727 1.498,6.32 0,6.32 -1.559,6.32 -2.162,4.727 -2.162,3.148 -2.162,1.363 -1.404,0 -0.024,0 Z m -0.065,-2.355 c -3.086,0 -5.455,2.039 -5.455,5.441 0,3.406 2.241,5.588 5.654,5.588 3.204,0 5.37,-2.227 5.37,-5.42 0,-3.838 -2.75,-5.609 -5.554,-5.609 z"
             style="fill:#514e4f;fill-opacity:1;fill-rule:nonzero;stroke:none"
             id="path10074" />
        </g>
        <g
           id="g10076"
           transform="translate(261.9541,294.1554)">
          <path
             d="M 0,0 C 1.297,0 2.088,1.27 2.088,3.164 2.088,4.727 1.494,6.32 0,6.32 -1.548,6.32 -2.16,4.727 -2.16,3.148 -2.16,1.363 -1.399,0 -0.02,0 Z m -0.064,-2.355 c -3.091,0 -5.459,2.039 -5.459,5.441 0,3.406 2.245,5.588 5.657,5.588 3.215,0 5.366,-2.227 5.366,-5.42 0,-3.838 -2.73,-5.609 -5.538,-5.609 z"
             style="fill:#514e4f;fill-opacity:1;fill-rule:nonzero;stroke:none"
             id="path10078" />
        </g>
        <g
           id="g10080"
           transform="translate(269.0469,299.2277)">
          <path
             d="M 0,0 C 0,1.307 -0.035,2.414 -0.084,3.365 H 2.77 l 0.148,-1.47 h 0.064 c 0.43,0.687 1.498,1.707 3.265,1.707 2.151,0 3.773,-1.444 3.773,-4.555 V -7.186 H 6.741 v 5.852 c 0,1.35 -0.47,2.279 -1.667,2.279 -0.904,0 -1.449,-0.629 -1.681,-1.23 -0.089,-0.209 -0.115,-0.52 -0.115,-0.817 v -6.084 l -3.278,0 z"
             style="fill:#514e4f;fill-opacity:1;fill-rule:nonzero;stroke:none"
             id="path10082" />
        </g>
        <g
           id="g10084"
           transform="translate(287.9785,298.298)">
          <path
             d="m 0,0 c 0,0.189 -0.024,0.406 -0.073,0.605 -0.233,0.854 -0.861,1.45 -1.766,1.45 -1.207,0 -2.156,-1.09 -2.156,-3.004 0,-1.573 0.781,-2.809 2.141,-2.809 0.856,0 1.528,0.565 1.746,1.315 C -0.024,-2.18 0,-1.834 0,-1.557 Z m 3.275,-4.727 c 0,-2.023 -0.406,-3.689 -1.617,-4.744 -1.142,-0.994 -2.721,-1.301 -4.279,-1.301 -1.395,0 -2.844,0.288 -3.788,0.803 l 0.648,2.502 c 0.667,-0.39 1.805,-0.801 3.052,-0.801 1.563,0 2.749,0.827 2.749,2.789 v 0.672 H 0 c -0.633,-0.871 -1.642,-1.369 -2.849,-1.369 -2.616,0 -4.47,2.115 -4.47,5.139 0,3.412 2.176,5.568 4.787,5.568 1.444,0 2.36,-0.629 2.889,-1.488 h 0.049 l 0.11,1.252 H 3.364 C 3.324,3.605 3.275,2.721 3.275,1.143 Z"
             style="fill:#514e4f;fill-opacity:1;fill-rule:nonzero;stroke:none"
             id="path10086" />
        </g>
        <g
           id="g10088"
           transform="translate(293.8643,294.8859)">
          <path
             d="m 0,0 c 0.604,-0.365 1.855,-0.781 2.829,-0.781 0.989,0 1.4,0.326 1.4,0.871 0,0.558 -0.322,0.82 -1.534,1.226 -2.201,0.713 -3.041,1.924 -3.016,3.145 0,1.994 1.681,3.482 4.288,3.482 1.236,0 2.314,-0.302 2.957,-0.629 L 6.37,5.07 C 5.886,5.312 4.956,5.648 4.08,5.648 3.274,5.648 2.829,5.332 2.829,4.809 2.829,4.293 3.235,4.035 4.525,3.586 6.539,2.918 7.359,1.881 7.379,0.346 c 0,-1.983 -1.533,-3.432 -4.55,-3.432 -1.385,0 -2.621,0.322 -3.413,0.758 z"
             style="fill:#514e4f;fill-opacity:1;fill-rule:nonzero;stroke:none"
             id="path10090" />
        </g>
        <path
           d="m 303.252,302.593 h 3.273 v -10.551 h -3.273 z m 1.617,1.383 c -1.103,0 -1.815,0.771 -1.815,1.74 0,0.994 0.731,1.752 1.864,1.752 1.112,0 1.806,-0.758 1.83,-1.752 0,-0.969 -0.718,-1.74 -1.854,-1.74 z"
           style="fill:#514e4f;fill-opacity:1;fill-rule:nonzero;stroke:none"
           id="path10092" />
        <path
           d="m 309.157,307.359 h 3.283 v -15.316 h -3.283 z"
           style="fill:#514e4f;fill-opacity:1;fill-rule:nonzero;stroke:none"
           id="path10094" />
        <g
           id="g10096"
           transform="translate(322.8213,306.5832)">
          <path
             d="m 0,0 v -8.354 c 0,-2.521 0.964,-3.798 2.636,-3.798 1.717,0 2.671,1.207 2.671,3.798 V 0 h 3.274 v -8.16 c 0,-4.481 -2.266,-6.623 -6.059,-6.623 -3.674,0 -5.811,2.053 -5.811,6.672 l 0,8.111 z"
             style="fill:#514e4f;fill-opacity:1;fill-rule:nonzero;stroke:none"
             id="path10098" />
        </g>
        <g
           id="g10100"
           transform="translate(334.0977,299.2277)">
          <path
             d="M 0,0 C 0,1.307 -0.034,2.414 -0.079,3.365 H 2.77 l 0.148,-1.47 h 0.064 c 0.431,0.687 1.495,1.707 3.264,1.707 2.147,0 3.769,-1.444 3.769,-4.555 V -7.186 H 6.74 v 5.852 c 0,1.35 -0.474,2.279 -1.671,2.279 -0.9,0 -1.444,-0.629 -1.672,-1.23 -0.088,-0.209 -0.108,-0.52 -0.108,-0.817 v -6.084 l -3.289,0 z"
             style="fill:#514e4f;fill-opacity:1;fill-rule:nonzero;stroke:none"
             id="path10102" />
        </g>
        <path
           d="m 346.743,302.593 h 3.279 v -10.551 h -3.279 z m 1.623,1.383 c -1.098,0 -1.82,0.771 -1.82,1.74 0,0.994 0.737,1.752 1.859,1.752 1.123,0 1.816,-0.758 1.84,-1.752 0,-0.969 -0.717,-1.74 -1.854,-1.74 z"
           style="fill:#514e4f;fill-opacity:1;fill-rule:nonzero;stroke:none"
           id="path10104" />
        <g
           id="g10106"
           transform="translate(354.667,302.5929)">
          <path
             d="m 0,0 1.419,-4.896 c 0.267,-0.887 0.435,-1.727 0.613,-2.573 h 0.065 c 0.168,0.862 0.331,1.666 0.578,2.573 L 4.035,0 H 7.487 L 3.551,-10.551 H 0.276 L -3.557,0 Z"
             style="fill:#514e4f;fill-opacity:1;fill-rule:nonzero;stroke:none"
             id="path10108" />
        </g>
        <g
           id="g10110"
           transform="translate(369.2119,298.5363)">
          <path
             d="M 0,0 C 0,0.777 -0.347,2.137 -1.845,2.137 -3.239,2.137 -3.809,0.859 -3.883,0 Z m -3.873,-2.244 c 0.113,-1.381 1.449,-2.029 2.982,-2.029 1.123,0 2.029,0.148 2.918,0.451 L 2.458,-6.043 C 1.37,-6.494 0.064,-6.717 -1.36,-6.717 c -3.586,0 -5.638,2.072 -5.638,5.397 0,2.675 1.687,5.632 5.331,5.632 3.413,0 4.709,-2.65 4.709,-5.261 0,-0.565 -0.074,-1.065 -0.109,-1.321 z"
             style="fill:#514e4f;fill-opacity:1;fill-rule:nonzero;stroke:none"
             id="path10112" />
        </g>
        <g
           id="g10114"
           transform="translate(374.2324,299.1203)">
          <path
             d="M 0,0 C 0,1.553 -0.026,2.566 -0.089,3.473 H 2.72 L 2.848,1.504 h 0.088 c 0.536,1.557 1.811,2.205 2.849,2.205 0.297,0 0.447,-0.025 0.693,-0.068 V 0.564 C 6.191,0.604 5.934,0.637 5.568,0.637 4.351,0.637 3.535,0.02 3.322,-1.02 3.273,-1.227 3.263,-1.469 3.263,-1.752 v -5.326 h -3.289 z"
             style="fill:#514e4f;fill-opacity:1;fill-rule:nonzero;stroke:none"
             id="path10116" />
        </g>
        <g
           id="g10118"
           transform="translate(381.957,294.8859)">
          <path
             d="m 0,0 c 0.607,-0.365 1.859,-0.781 2.819,-0.781 1.004,0 1.414,0.326 1.414,0.871 0,0.558 -0.337,0.82 -1.534,1.226 -2.205,0.713 -3.046,1.924 -3.015,3.145 0,1.994 1.68,3.482 4.288,3.482 1.221,0 2.304,-0.302 2.952,-0.629 L 6.37,5.07 C 5.885,5.312 4.96,5.648 4.085,5.648 3.279,5.648 2.819,5.332 2.819,4.809 2.819,4.293 3.234,4.035 4.54,3.586 6.543,2.918 7.358,1.881 7.384,0.346 c 0,-1.983 -1.533,-3.432 -4.565,-3.432 -1.37,0 -2.591,0.322 -3.403,0.758 z"
             style="fill:#514e4f;fill-opacity:1;fill-rule:nonzero;stroke:none"
             id="path10120" />
        </g>
        <path
           d="m 391.339,302.593 h 3.279 v -10.551 h -3.279 z m 1.627,1.383 c -1.103,0 -1.821,0.771 -1.821,1.74 0,0.994 0.744,1.752 1.856,1.752 1.122,0 1.814,-0.758 1.844,-1.752 0,-0.969 -0.722,-1.74 -1.86,-1.74 z"
           style="fill:#514e4f;fill-opacity:1;fill-rule:nonzero;stroke:none"
           id="path10122" />
        <g
           id="g10124"
           transform="translate(400.9287,305.4601)">
          <path
             d="m 0,0 v -2.867 h 2.344 v -2.42 H 0 v -3.842 c 0,-1.271 0.316,-1.85 1.286,-1.85 0.454,0 0.662,0.014 0.974,0.084 l 0.025,-2.478 c -0.416,-0.158 -1.212,-0.287 -2.117,-0.287 -1.059,0 -1.948,0.367 -2.483,0.906 -0.603,0.627 -0.9,1.641 -0.9,3.125 v 4.342 h -1.414 v 2.42 h 1.414 v 1.982 z"
             style="fill:#514e4f;fill-opacity:1;fill-rule:nonzero;stroke:none"
             id="path10126" />
        </g>
        <g
           id="g10128"
           transform="translate(407.7588,302.5929)">
          <path
             d="M 0,0 1.577,-5.184 C 1.745,-5.803 1.958,-6.58 2.092,-7.143 h 0.064 c 0.149,0.563 0.322,1.36 0.475,1.959 L 3.922,0 H 7.448 L 4.976,-6.955 c -1.504,-4.184 -2.523,-5.84 -3.705,-6.904 -1.118,-0.989 -2.331,-1.36 -3.17,-1.44 l -0.693,2.756 c 0.41,0.09 0.925,0.287 1.429,0.565 0.5,0.261 1.059,0.8 1.36,1.314 0.105,0.178 0.164,0.332 0.164,0.479 0,0.105 -0.02,0.279 -0.12,0.54 L -3.645,0 Z"
             style="fill:#514e4f;fill-opacity:1;fill-rule:nonzero;stroke:none"
             id="path10130" />
        </g>
        <g
           id="g10132"
           transform="translate(173.3516,283.4816)">
          <path
             d="m 0,0 h -9.088 c 0.107,0 0.438,0.443 0.521,0.527 0.175,0.2 0.344,0.403 0.501,0.621 0.394,0.532 0.696,1.129 0.922,1.749 0.787,2.126 0.731,4.609 -0.148,6.509 -0.922,1.991 -2.356,3.727 -3.363,5.371 -1.636,2.676 -2.785,5.674 -2.54,8.862 0.153,2.021 1.076,4.236 2.444,5.752 h 8.745 C -4.482,27.043 -5.212,23.74 -4.331,20.34 -3.849,18.461 -2.632,16.699 -1.698,15.268 -0.714,13.756 0.311,12.223 1.043,10.574 1.937,8.566 2.213,6.266 1.784,4.102 1.586,3.055 1.229,2.025 0.723,1.09 0.64,0.941 0.197,0 0,0"
             style="fill:#00a3cc;fill-opacity:1;fill-rule:nonzero;stroke:none"
             id="path10134" />
        </g>
        <g
           id="g10136"
           transform="translate(178.3945,292.0617)">
          <path
             d="M 0,0 H 15.077 V 24.85 H -4.766 c -1.5,-1.315 -2.42,-3.955 -1.756,-6.663 0.515,-2.119 2.047,-4.031 3.413,-5.843 C -0.938,9.461 1.434,6.221 0.77,2.383 0.639,1.596 0.384,0.705 0,0"
             style="fill:#66cbc0;fill-opacity:1;fill-rule:nonzero;stroke:none"
             id="path10138" />
        </g>
        <g
           id="g10140"
           transform="translate(144.5576,316.9113)">
          <path
             d="m 0,0 v -24.85 h 14.839 c 0.711,1.594 0.451,3.461 -0.024,4.61 -1.433,3.498 -3.763,5.39 -5.06,8.445 -1.226,2.895 -1.368,5.539 -0.306,9.34 0.057,0.217 0.649,1.728 1.041,2.455 z"
             style="fill:#005c87;fill-opacity:1;fill-rule:nonzero;stroke:none"
             id="path10142" />
        </g>
        <g
           id="g10144"
           transform="translate(223.9326,316.9113)">
          <path
             d="m 0,0 h -12.321 v -19.711 c 0.004,-0.096 -0.021,-0.574 -0.043,-1.062 -0.137,-3.088 -0.864,-3.706 -1.632,-4.077 H 0 Z"
             style="fill:#00a3cc;fill-opacity:1;fill-rule:nonzero;stroke:none"
             id="path10146" />
        </g>
        <g
           id="g10148"
           transform="translate(196.8252,312.8488)">
          <path
             d="m 0,0 v -24.633 l 0.011,-0.396 c 0.073,-2.194 1.858,-3.942 4.07,-3.942 2.177,0 3.949,1.709 4.073,3.858 l 0.008,0.48 0,24.633 z"
             style="fill:#005c87;fill-opacity:1;fill-rule:nonzero;stroke:none"
             id="path10150" />
        </g>
        <g
           id="g10152"
           transform="translate(351.4199,117.6437)">
          <path
             d="m 0,0 c 0.588,-0.301 1.552,-0.607 2.53,-0.607 0.899,0 1.342,0.306 1.342,0.804 0,0.465 -0.44,0.742 -1.545,1.117 -1.647,0.582 -2.748,1.5 -2.748,2.954 0,1.73 1.459,3.054 3.931,3.054 1.167,0 2.003,-0.215 2.643,-0.496 L 5.607,4.73 C 5.182,4.922 4.457,5.195 3.478,5.195 2.682,5.195 2.242,4.904 2.242,4.475 2.242,3.977 2.761,3.777 3.995,3.318 5.76,2.668 6.542,1.727 6.542,0.363 c 0,-1.685 -1.31,-3.123 -4.166,-3.123 -1.18,0 -2.32,0.309 -2.878,0.596 z"
             style="fill:#514e4f;fill-opacity:1;fill-rule:nonzero;stroke:none"
             id="path10154" />
        </g>
        <g
           id="g10156"
           transform="translate(363.7744,116.9503)">
          <path
             d="m 0,0 c 1.275,0 2.012,1.227 2.012,2.99 0,1.686 -0.756,2.959 -2.027,2.959 -1.26,0 -2.039,-1.273 -2.039,-2.972 C -2.058,1.227 -1.275,0 -0.015,0 Z m -0.111,-2.074 c -3.032,0 -4.699,2.275 -4.699,4.992 0,2.852 1.866,5.105 4.864,5.105 3.144,0 4.745,-2.332 4.745,-4.951 0,-3.142 -1.889,-5.146 -4.896,-5.146 z"
             style="fill:#514e4f;fill-opacity:1;fill-rule:nonzero;stroke:none"
             id="path10158" />
        </g>
        <g
           id="g10160"
           transform="translate(374.3691,116.9503)">
          <path
             d="m 0,0 c 1.273,0 2.008,1.227 2.008,2.99 0,1.686 -0.752,2.959 -2.025,2.959 -1.262,0 -2.042,-1.273 -2.038,-2.972 C -2.061,1.227 -1.279,0 -0.017,0 Z m -0.112,-2.074 c -3.036,0 -4.698,2.275 -4.698,4.992 0,2.852 1.862,5.105 4.86,5.105 3.145,0 4.748,-2.332 4.748,-4.951 0,-3.142 -1.898,-5.146 -4.895,-5.146 z"
             style="fill:#514e4f;fill-opacity:1;fill-rule:nonzero;stroke:none"
             id="path10162" />
        </g>
        <g
           id="g10164"
           transform="translate(380.5576,115.0343)">
          <path
             d="M 0,0 V 9.781 H 3.092 L 4.648,6.779 C 5.177,5.809 5.747,4.498 6.182,3.354 H 6.221 C 6.074,4.641 6.025,6.01 6.025,7.467 V 9.781 H 8.421 V 0 H 5.654 L 3.998,3.252 C 3.453,4.291 2.818,5.6 2.353,6.787 H 2.299 C 2.367,5.465 2.398,3.998 2.398,2.406 V 0 Z"
             style="fill:#514e4f;fill-opacity:1;fill-rule:nonzero;stroke:none"
             id="path10166" />
        </g>
        <g
           id="g10168"
           transform="translate(399.2578,115.4933)">
          <path
             d="m 0,0 c -0.736,-0.246 -2.1,-0.559 -3.376,-0.559 -1.923,0 -3.237,0.481 -4.111,1.327 -0.925,0.859 -1.406,2.13 -1.4,3.529 0.015,3.396 2.547,5.123 5.72,5.123 1.316,0 2.318,-0.238 2.832,-0.477 L -0.859,6.844 c -0.551,0.24 -1.213,0.41 -2.325,0.41 -1.613,0 -2.952,-0.836 -2.952,-2.82 0,-1.829 1.183,-2.883 2.791,-2.883 0.354,0 0.693,0.029 0.822,0.076 v 1.691 h -1.312 v 2.036 l 3.835,0 z"
             style="fill:#514e4f;fill-opacity:1;fill-rule:nonzero;stroke:none"
             id="path10170" />
        </g>
        <g
           id="g10172"
           transform="translate(401.0781,117.6437)">
          <path
             d="m 0,0 c 0.59,-0.301 1.552,-0.607 2.534,-0.607 0.895,0 1.338,0.306 1.338,0.804 0,0.465 -0.44,0.742 -1.545,1.117 -1.649,0.582 -2.744,1.5 -2.744,2.954 0,1.73 1.457,3.054 3.927,3.054 1.164,0 2.001,-0.215 2.643,-0.496 L 5.605,4.73 C 5.182,4.922 4.457,5.195 3.48,5.195 c -0.798,0 -1.238,-0.291 -1.238,-0.72 0,-0.498 0.519,-0.698 1.749,-1.157 1.77,-0.65 2.553,-1.591 2.553,-2.955 0,-1.685 -1.316,-3.123 -4.168,-3.123 -1.175,0 -2.32,0.309 -2.874,0.596 z"
             style="fill:#514e4f;fill-opacity:1;fill-rule:nonzero;stroke:none"
             id="path10174" />
        </g>
        <path
           d="m 411.652,115.034 h -2.617 v 9.781 h 2.617 z"
           style="fill:#514e4f;fill-opacity:1;fill-rule:nonzero;stroke:none"
           id="path10176" />
        <g
           id="g10178"
           transform="translate(413.46,124.8156)">
          <path
             d="M 0,0 H 2.617 V -7.586 H 6.386 V -9.781 H 0 Z"
             style="fill:#514e4f;fill-opacity:1;fill-rule:nonzero;stroke:none"
             id="path10180" />
        </g>
        <g
           id="g10182"
           transform="translate(353.8467,108.4953)">
          <path
             d="m 0,0 v -5.559 c 0,-1.472 0.509,-2.31 1.546,-2.31 1.04,0 1.548,0.762 1.548,2.31 V 0 h 2.622 v -5.404 c 0,-3.014 -1.504,-4.535 -4.251,-4.535 -2.676,0 -4.086,1.464 -4.086,4.605 l 0,5.334 z"
             style="fill:#514e4f;fill-opacity:1;fill-rule:nonzero;stroke:none"
             id="path10184" />
        </g>
        <g
           id="g10186"
           transform="translate(361.3496,98.7101)">
          <path
             d="M 0,0 V 9.785 H 3.088 L 4.641,6.783 C 5.172,5.809 5.742,4.496 6.179,3.354 H 6.217 C 6.071,4.635 6.024,6.014 6.024,7.473 V 9.785 H 8.418 V 0 H 5.649 L 3.993,3.252 C 3.45,4.289 2.815,5.604 2.345,6.787 H 2.294 c 0.07,-1.328 0.1,-2.799 0.1,-4.383 V 0 Z"
             style="fill:#514e4f;fill-opacity:1;fill-rule:nonzero;stroke:none"
             id="path10188" />
        </g>
        <path
           d="m 374.186,98.71 h -2.615 v 9.785 h 2.615 z"
           style="fill:#514e4f;fill-opacity:1;fill-rule:nonzero;stroke:none"
           id="path10190" />
        <g
           id="g10192"
           transform="translate(378.3691,98.7101)">
          <path
             d="M 0,0 -3.105,9.785 H -0.23 L 0.807,5.934 C 1.114,4.84 1.385,3.766 1.618,2.516 H 1.646 C 1.885,3.711 2.167,4.84 2.447,5.893 L 3.515,9.785 H 6.298 L 3.099,0 Z"
             style="fill:#514e4f;fill-opacity:1;fill-rule:nonzero;stroke:none"
             id="path10194" />
        </g>
        <g
           id="g10196"
           transform="translate(391.8584,102.6554)">
          <path
             d="M 0,0 H -3.515 V -1.809 H 0.416 V -3.945 H -6.132 V 5.84 H 0.212 V 3.695 H -3.515 V 2.121 l 3.515,0 z"
             style="fill:#514e4f;fill-opacity:1;fill-rule:nonzero;stroke:none"
             id="path10198" />
        </g>
        <g
           id="g10200"
           transform="translate(396.3369,104.2589)">
          <path
             d="m 0,0 h 0.678 c 0.987,0 1.557,0.482 1.557,1.215 0,0.73 -0.482,1.152 -1.357,1.156 C 0.389,2.371 0.127,2.348 0,2.313 Z m -2.594,4.098 c 0.737,0.119 1.846,0.207 3.156,0.207 1.499,0 2.571,-0.2 3.311,-0.758 C 4.497,3.068 4.836,2.371 4.836,1.414 4.836,0.195 3.923,-0.674 3.16,-0.951 V -1.002 C 3.808,-1.283 4.161,-1.908 4.412,-2.752 4.705,-3.75 5.029,-5.176 5.218,-5.549 H 2.54 c -0.151,0.285 -0.401,1.053 -0.687,2.254 -0.266,1.172 -0.62,1.412 -1.429,1.412 H 0 v -3.666 h -2.594 z"
             style="fill:#514e4f;fill-opacity:1;fill-rule:nonzero;stroke:none"
             id="path10202" />
        </g>
        <g
           id="g10204"
           transform="translate(402.8691,101.3156)">
          <path
             d="m 0,0 c 0.592,-0.293 1.553,-0.605 2.532,-0.605 0.898,0 1.341,0.312 1.341,0.8 0,0.475 -0.443,0.748 -1.55,1.125 -1.644,0.584 -2.742,1.496 -2.742,2.953 0,1.727 1.459,3.053 3.929,3.053 1.168,0 2.006,-0.217 2.644,-0.502 L 5.608,4.734 C 5.187,4.92 4.459,5.199 3.48,5.199 2.682,5.199 2.243,4.906 2.243,4.475 2.243,3.984 2.764,3.779 3.997,3.318 5.762,2.674 6.544,1.73 6.544,0.373 6.544,-1.318 5.23,-2.76 2.378,-2.76 c -1.18,0 -2.32,0.313 -2.876,0.598 z"
             style="fill:#514e4f;fill-opacity:1;fill-rule:nonzero;stroke:none"
             id="path10206" />
        </g>
        <path
           d="m 413.447,98.71 h -2.62 v 9.785 h 2.62 z"
           style="fill:#514e4f;fill-opacity:1;fill-rule:nonzero;stroke:none"
           id="path10208" />
        <g
           id="g10210"
           transform="translate(417.1475,106.2902)">
          <path
             d="m 0,0 h -2.493 v 2.205 h 7.65 V 0 H 2.622 V -7.58 H 0 Z"
             style="fill:#514e4f;fill-opacity:1;fill-rule:nonzero;stroke:none"
             id="path10212" />
        </g>
        <g
           id="g10214"
           transform="translate(426.2041,98.7101)">
          <path
             d="m 0,0 v 3.957 l -3.083,5.828 h 3.007 L 0.753,7.578 C 1.021,6.895 1.199,6.4 1.411,5.77 H 1.437 C 1.638,6.359 1.831,6.91 2.069,7.578 L 2.876,9.785 H 5.828 L 2.621,4.051 V 0 Z"
             style="fill:#514e4f;fill-opacity:1;fill-rule:nonzero;stroke:none"
             id="path10216" />
        </g>
        <g
           id="g10218"
           transform="translate(353.7578,89.5187)">
          <path
             d="m 0,0 h -0.026 l -1.862,-0.846 -0.416,1.959 2.689,1.19 h 2.139 v -9.434 l -2.524,0 z"
             style="fill:#514e4f;fill-opacity:1;fill-rule:nonzero;stroke:none"
             id="path10220" />
        </g>
        <g
           id="g10222"
           transform="translate(362.7998,90.2433)">
          <path
             d="m 0,0 c -0.621,0 -0.927,-0.42 -0.927,-0.914 0,-0.5 0.507,-0.875 1.134,-1.084 0.378,0.086 0.753,0.51 0.753,0.98 C 0.96,-0.502 0.67,0 0.015,0 Z m 0.064,-6.236 c 0.611,0 1.03,0.416 1.03,0.963 0,0.685 -0.538,1.148 -1.233,1.326 -0.555,-0.153 -0.897,-0.586 -0.897,-1.164 0,-0.571 0.433,-1.125 1.085,-1.125 z m 0.021,7.968 c 2.377,0 3.291,-1.336 3.291,-2.457 0,-0.826 -0.459,-1.595 -1.299,-2.039 v -0.023 c 0.809,-0.311 1.669,-1.059 1.669,-2.313 0,-1.746 -1.453,-2.918 -3.808,-2.918 -2.586,0 -3.653,1.42 -3.653,2.653 0,1.125 0.624,1.869 1.602,2.302 v 0.034 c -0.855,0.461 -1.302,1.22 -1.302,2.052 0,1.647 1.514,2.709 3.479,2.709 z"
             style="fill:#514e4f;fill-opacity:1;fill-rule:nonzero;stroke:none"
             id="path10224" />
        </g>
        <g
           id="g10226"
           transform="translate(370.9746,90.089)">
          <path
             d="m 0,0 c -0.59,0 -1.041,-0.541 -1.034,-1.365 0.005,-0.656 0.332,-1.295 1.126,-1.295 0.5,0 0.806,0.209 0.959,0.451 C 1.12,-2.07 1.15,-1.916 1.15,-1.615 1.16,-0.879 0.874,0 0.015,0 Z m -2.749,-5.812 c 0.292,-0.036 0.497,-0.032 0.933,-0.016 0.648,0.016 1.321,0.166 1.803,0.439 0.621,0.346 1.007,0.879 1.163,1.418 l -0.03,0.016 c -0.377,-0.34 -0.935,-0.531 -1.754,-0.531 -1.552,0 -2.998,1.033 -2.998,2.955 0,1.877 1.562,3.418 3.697,3.418 2.64,0 3.761,-1.987 3.761,-4.084 0,-1.924 -0.59,-3.35 -1.662,-4.317 C 1.19,-7.385 -0.151,-7.82 -1.82,-7.855 -2.143,-7.871 -2.518,-7.84 -2.749,-7.816 Z"
             style="fill:#514e4f;fill-opacity:1;fill-rule:nonzero;stroke:none"
             id="path10228" />
        </g>
        <g
           id="g10230"
           transform="translate(382.917,91.8214)">
          <path
             d="m 0,0 v -1.629 l -3.793,-7.805 h -2.786 l 3.804,7.254 v 0.032 H -6.976 V 0 Z"
             style="fill:#514e4f;fill-opacity:1;fill-rule:nonzero;stroke:none"
             id="path10232" />
        </g>
        <g
           id="g10234"
           transform="translate(380.0459,132.0734)">
          <path
             d="m 0,0 h -9.105 c 0.108,0 0.44,0.441 0.523,0.527 0.176,0.202 0.345,0.407 0.502,0.623 0.395,0.532 0.697,1.131 0.924,1.75 0.787,2.131 0.732,4.618 -0.15,6.522 -0.924,1.994 -2.361,3.732 -3.368,5.381 -1.639,2.679 -2.79,5.683 -2.545,8.875 0.153,2.025 1.079,4.246 2.449,5.763 h 8.76 C -4.491,27.088 -5.22,23.781 -4.341,20.375 -3.857,18.49 -2.638,16.727 -1.7,15.293 -0.715,13.779 0.31,12.242 1.044,10.592 1.939,8.578 2.216,6.277 1.785,4.109 1.587,3.059 1.229,2.029 0.723,1.092 0.641,0.943 0.195,0 0,0"
             style="fill:#00a3cc;fill-opacity:1;fill-rule:nonzero;stroke:none"
             id="path10236" />
        </g>
        <g
           id="g10238"
           transform="translate(385.0977,140.6711)">
          <path
             d="M 0,0 H 15.103 V 24.891 H -4.775 c -1.5,-1.319 -2.423,-3.965 -1.759,-6.676 0.515,-2.123 2.05,-4.037 3.419,-5.854 C -0.939,9.475 1.435,6.229 0.771,2.383 0.638,1.596 0.383,0.703 0,0"
             style="fill:#66cbc0;fill-opacity:1;fill-rule:nonzero;stroke:none"
             id="path10240" />
        </g>
        <g
           id="g10242"
           transform="translate(351.2021,165.5617)">
          <path
             d="m 0,0 v -24.891 h 14.864 c 0.712,1.592 0.453,3.463 -0.022,4.616 -1.437,3.504 -3.772,5.398 -5.07,8.461 -1.228,2.896 -1.371,5.546 -0.307,9.353 0.057,0.217 0.65,1.731 1.045,2.461 z"
             style="fill:#005c87;fill-opacity:1;fill-rule:nonzero;stroke:none"
             id="path10244" />
        </g>
        <g
           id="g10246"
           transform="translate(430.7119,165.5617)">
          <path
             d="m 0,0 h -12.342 v -19.746 c 0.003,-0.096 -0.02,-0.574 -0.043,-1.065 -0.138,-3.095 -0.865,-3.71 -1.636,-4.08 H 0 Z"
             style="fill:#00a3cc;fill-opacity:1;fill-rule:nonzero;stroke:none"
             id="path10248" />
        </g>
        <g
           id="g10250"
           transform="translate(403.5586,161.4914)">
          <path
             d="m 0,0 v -24.676 l 0.011,-0.398 c 0.073,-2.197 1.861,-3.949 4.077,-3.949 2.18,0 3.955,1.712 4.08,3.865 l 0.009,0.482 V 0 Z"
             style="fill:#005c87;fill-opacity:1;fill-rule:nonzero;stroke:none"
             id="path10252" />
        </g>
        <g
           id="g10254"
           transform="translate(173.2852,359.1652)">
          <path
             d="m 0,0 h -9.069 c 0.107,0 0.437,0.439 0.52,0.525 0.175,0.2 0.343,0.403 0.5,0.62 0.394,0.531 0.694,1.127 0.92,1.744 0.785,2.123 0.729,4.597 -0.148,6.492 -0.92,1.988 -2.351,3.721 -3.356,5.363 -1.632,2.668 -2.776,5.656 -2.535,8.838 0.155,2.018 1.076,4.227 2.44,5.738 h 8.727 c -2.472,-2.341 -3.2,-5.636 -2.32,-9.029 0.481,-1.877 1.694,-3.633 2.626,-5.061 C -0.714,13.725 0.308,12.193 1.04,10.549 1.929,8.545 2.207,6.252 1.779,4.092 1.579,3.049 1.224,2.022 0.719,1.086 0.636,0.941 0.194,0 0,0"
             style="fill:#00a3cc;fill-opacity:1;fill-rule:nonzero;stroke:none"
             id="path10256" />
        </g>
        <g
           id="g10258"
           transform="translate(178.3145,367.7238)">
          <path
             d="M 0,0 H 15.041 V 24.793 H -4.756 c -1.495,-1.313 -2.412,-3.947 -1.752,-6.649 0.514,-2.115 2.042,-4.021 3.405,-5.83 C -0.937,9.441 1.429,6.207 0.77,2.377 0.639,1.594 0.383,0.705 0,0"
             style="fill:#66cbc0;fill-opacity:1;fill-rule:nonzero;stroke:none"
             id="path10260" />
        </g>
        <g
           id="g10262"
           transform="translate(144.5576,392.5168)">
          <path
             d="m 0,0 v -24.793 h 14.804 c 0.711,1.59 0.45,3.453 -0.024,4.6 -1.429,3.488 -3.756,5.378 -5.049,8.425 -1.221,2.885 -1.364,5.526 -0.304,9.317 0.058,0.217 0.646,1.724 1.039,2.451 z"
             style="fill:#005c87;fill-opacity:1;fill-rule:nonzero;stroke:none"
             id="path10264" />
        </g>
        <g
           id="g10266"
           transform="translate(223.7441,392.5168)">
          <path
             d="m 0,0 h -12.293 v -19.664 c 0.005,-0.096 -0.02,-0.574 -0.043,-1.063 -0.137,-3.08 -0.86,-3.695 -1.627,-4.066 H 0 Z"
             style="fill:#00a3cc;fill-opacity:1;fill-rule:nonzero;stroke:none"
             id="path10268" />
        </g>
        <g
           id="g10270"
           transform="translate(196.7002,388.4621)">
          <path
             d="m 0,0 v -24.572 l 0.013,-0.399 c 0.071,-2.185 1.853,-3.931 4.06,-3.931 2.172,0 3.938,1.705 4.063,3.847 l 0.007,0.483 V 0 Z"
             style="fill:#005c87;fill-opacity:1;fill-rule:nonzero;stroke:none"
             id="path10272" />
        </g>
        <g
           id="g10274"
           transform="translate(232.4482,371.1437)">
          <path
             d="m 0,0 c 0.862,-0.453 2.239,-0.906 3.642,-0.906 1.508,0 2.306,0.625 2.306,1.595 0,0.883 -0.686,1.424 -2.435,2.03 -2.411,0.859 -4.009,2.199 -4.009,4.33 0,2.478 2.092,4.355 5.497,4.355 1.658,0 2.847,-0.324 3.707,-0.734 L 7.977,8.043 C 7.413,8.32 6.355,8.73 4.959,8.73 3.533,8.73 2.842,8.061 2.842,7.33 2.842,6.404 3.642,5.992 5.537,5.258 8.104,4.311 9.29,2.975 9.29,0.906 c 0,-2.439 -1.853,-4.504 -5.843,-4.504 -1.661,0 -3.296,0.45 -4.116,0.903 z"
             style="fill:#514e4f;fill-opacity:1;fill-rule:nonzero;stroke:none"
             id="path10276" />
        </g>
        <g
           id="g10278"
           transform="translate(248.4424,369.8957)">
          <path
             d="M 0,0 C 1.294,0 2.091,1.27 2.091,3.166 2.091,4.721 1.49,6.314 0,6.314 -1.552,6.314 -2.155,4.721 -2.155,3.146 -2.155,1.357 -1.4,0 -0.023,0 Z m -0.065,-2.35 c -3.081,0 -5.454,2.026 -5.454,5.43 0,3.406 2.244,5.586 5.651,5.586 3.21,0 5.365,-2.221 5.365,-5.414 0,-3.836 -2.737,-5.602 -5.54,-5.602 z"
             style="fill:#514e4f;fill-opacity:1;fill-rule:nonzero;stroke:none"
             id="path10280" />
        </g>
        <g
           id="g10282"
           transform="translate(260.5146,369.8957)">
          <path
             d="M 0,0 C 1.296,0 2.091,1.27 2.091,3.166 2.091,4.721 1.491,6.314 0,6.314 -1.552,6.314 -2.154,4.721 -2.154,3.146 -2.154,1.357 -1.401,0 -0.021,0 Z m -0.063,-2.35 c -3.084,0 -5.454,2.026 -5.454,5.43 0,3.406 2.24,5.586 5.651,5.586 3.211,0 5.363,-2.221 5.363,-5.414 0,-3.836 -2.736,-5.602 -5.54,-5.602 z"
             style="fill:#514e4f;fill-opacity:1;fill-rule:nonzero;stroke:none"
             id="path10284" />
        </g>
        <g
           id="g10286"
           transform="translate(267.6074,374.9601)">
          <path
             d="M 0,0 C 0,1.316 -0.043,2.414 -0.084,3.363 H 2.762 L 2.91,1.898 h 0.065 c 0.432,0.69 1.49,1.704 3.257,1.704 2.155,0 3.771,-1.444 3.771,-4.551 V -7.18 H 6.727 v 5.842 C 6.727,0.02 6.254,0.947 5.065,0.947 4.166,0.947 3.623,0.322 3.387,-0.281 3.298,-0.5 3.278,-0.799 3.278,-1.098 V -7.18 H 0 Z"
             style="fill:#514e4f;fill-opacity:1;fill-rule:nonzero;stroke:none"
             id="path10288" />
        </g>
        <g
           id="g10290"
           transform="translate(286.5156,374.0324)">
          <path
             d="m 0,0 c 0,0.193 -0.023,0.408 -0.064,0.603 -0.237,0.862 -0.864,1.446 -1.769,1.446 -1.208,0 -2.157,-1.078 -2.157,-2.998 0,-1.574 0.777,-2.803 2.136,-2.803 0.862,0 1.53,0.562 1.747,1.316 C -0.023,-2.176 0,-1.832 0,-1.551 Z m 3.276,-4.721 c 0,-2.027 -0.409,-3.685 -1.62,-4.744 -1.138,-0.992 -2.717,-1.291 -4.269,-1.291 -1.397,0 -2.844,0.279 -3.788,0.797 l 0.644,2.5 c 0.667,-0.389 1.81,-0.799 3.059,-0.799 1.553,0 2.74,0.822 2.74,2.783 v 0.668 H 0 c -0.627,-0.861 -1.639,-1.361 -2.846,-1.361 -2.611,0 -4.465,2.117 -4.465,5.135 0,3.402 2.18,5.562 4.787,5.562 1.444,0 2.35,-0.629 2.89,-1.49 H 0.41 L 0.518,4.291 H 3.361 C 3.32,3.602 3.276,2.719 3.276,1.143 Z"
             style="fill:#514e4f;fill-opacity:1;fill-rule:nonzero;stroke:none"
             id="path10292" />
        </g>
        <g
           id="g10294"
           transform="translate(292.4014,370.6281)">
          <path
             d="m 0,0 c 0.603,-0.367 1.853,-0.777 2.819,-0.777 0.995,0 1.407,0.322 1.407,0.863 0,0.559 -0.325,0.818 -1.532,1.228 -2.199,0.711 -3.039,1.92 -3.019,3.147 0,1.982 1.683,3.473 4.291,3.473 1.228,0 2.305,-0.305 2.955,-0.629 L 6.36,5.064 C 5.882,5.299 4.958,5.648 4.071,5.648 3.276,5.648 2.819,5.324 2.819,4.807 2.819,4.287 3.231,4.031 4.523,3.578 6.53,2.908 7.35,1.871 7.371,0.346 c 0,-1.987 -1.529,-3.428 -4.552,-3.428 -1.377,0 -2.603,0.318 -3.406,0.754 z"
             style="fill:#514e4f;fill-opacity:1;fill-rule:nonzero;stroke:none"
             id="path10296" />
        </g>
        <path
           d="m 301.776,378.323 h 3.276 V 367.78 h -3.276 z m 1.62,1.381 c -1.101,0 -1.81,0.774 -1.81,1.746 0,0.989 0.729,1.746 1.851,1.746 1.118,0 1.811,-0.757 1.833,-1.746 0,-0.972 -0.715,-1.746 -1.854,-1.746 z"
           style="fill:#514e4f;fill-opacity:1;fill-rule:nonzero;stroke:none"
           id="path10298" />
        <path
           d="m 307.685,383.087 h 3.277 V 367.78 h -3.277 z"
           style="fill:#514e4f;fill-opacity:1;fill-rule:nonzero;stroke:none"
           id="path10300" />
        <g
           id="g10302"
           transform="translate(321.3311,382.3117)">
          <path
             d="m 0,0 v -8.344 c 0,-2.525 0.968,-3.795 2.63,-3.795 1.723,0 2.67,1.209 2.67,3.795 V 0 h 3.278 v -8.15 c 0,-4.483 -2.263,-6.616 -6.06,-6.616 -3.664,0 -5.796,2.045 -5.796,6.661 l 0,8.105 z"
             style="fill:#514e4f;fill-opacity:1;fill-rule:nonzero;stroke:none"
             id="path10304" />
        </g>
        <g
           id="g10306"
           transform="translate(332.6055,374.9601)">
          <path
             d="M 0,0 C 0,1.316 -0.042,2.414 -0.086,3.363 H 2.76 L 2.913,1.898 h 0.061 c 0.428,0.69 1.487,1.704 3.256,1.704 2.157,0 3.772,-1.444 3.772,-4.551 V -7.18 H 6.725 v 5.842 C 6.725,0.02 6.254,0.947 5.065,0.947 4.16,0.947 3.621,0.322 3.387,-0.281 3.297,-0.5 3.279,-0.799 3.279,-1.098 V -7.18 H 0 Z"
             style="fill:#514e4f;fill-opacity:1;fill-rule:nonzero;stroke:none"
             id="path10308" />
        </g>
        <path
           d="m 345.238,378.323 h 3.275 V 367.78 h -3.275 z m 1.617,1.381 c -1.097,0 -1.808,0.774 -1.808,1.746 0,0.989 0.731,1.746 1.851,1.746 1.124,0 1.811,-0.757 1.835,-1.746 0,-0.972 -0.711,-1.746 -1.853,-1.746 z"
           style="fill:#514e4f;fill-opacity:1;fill-rule:nonzero;stroke:none"
           id="path10310" />
        <g
           id="g10312"
           transform="translate(353.1484,378.3234)">
          <path
             d="M 0,0 1.427,-4.896 C 1.686,-5.777 1.856,-6.619 2.03,-7.461 h 0.064 c 0.172,0.865 0.344,1.662 0.58,2.565 L 4.033,0 H 7.484 L 3.563,-10.543 H 0.282 L -3.554,0 Z"
             style="fill:#514e4f;fill-opacity:1;fill-rule:nonzero;stroke:none"
             id="path10314" />
        </g>
        <g
           id="g10316"
           transform="translate(367.6807,374.2707)">
          <path
             d="M 0,0 C 0,0.773 -0.344,2.131 -1.835,2.131 -3.233,2.131 -3.792,0.863 -3.879,0 Z m -3.86,-2.244 c 0.109,-1.379 1.447,-2.026 2.976,-2.026 1.118,0 2.026,0.153 2.91,0.452 L 2.46,-6.035 c -1.078,-0.455 -2.397,-0.67 -3.817,-0.67 -3.582,0 -5.626,2.066 -5.626,5.391 0,2.671 1.685,5.625 5.322,5.625 3.409,0 4.699,-2.655 4.699,-5.26 0,-0.561 -0.064,-1.057 -0.105,-1.315 z"
             style="fill:#514e4f;fill-opacity:1;fill-rule:nonzero;stroke:none"
             id="path10318" />
        </g>
        <g
           id="g10320"
           transform="translate(372.7051,374.8527)">
          <path
             d="M 0,0 C 0,1.549 -0.025,2.566 -0.088,3.471 H 2.715 L 2.842,1.51 h 0.09 c 0.539,1.551 1.812,2.199 2.845,2.199 0.299,0 0.453,-0.025 0.69,-0.066 V 0.561 C 6.186,0.602 5.93,0.645 5.562,0.645 4.35,0.645 3.535,0.022 3.321,-1.016 3.274,-1.23 3.256,-1.467 3.256,-1.748 v -5.324 h -3.281 z"
             style="fill:#514e4f;fill-opacity:1;fill-rule:nonzero;stroke:none"
             id="path10322" />
        </g>
        <g
           id="g10324"
           transform="translate(380.4238,370.6281)">
          <path
             d="m 0,0 c 0.605,-0.367 1.853,-0.777 2.822,-0.777 0.992,0 1.403,0.322 1.403,0.863 0,0.559 -0.327,0.818 -1.532,1.228 -2.199,0.711 -3.038,1.92 -3.019,3.147 0,1.982 1.683,3.473 4.29,3.473 1.227,0 2.305,-0.305 2.953,-0.629 L 6.357,5.064 C 5.885,5.299 4.957,5.648 4.073,5.648 3.271,5.648 2.822,5.324 2.822,4.807 2.822,4.287 3.23,4.031 4.527,3.578 6.529,2.908 7.352,1.871 7.371,0.346 c 0,-1.987 -1.529,-3.428 -4.549,-3.428 -1.383,0 -2.607,0.318 -3.41,0.754 z"
             style="fill:#514e4f;fill-opacity:1;fill-rule:nonzero;stroke:none"
             id="path10326" />
        </g>
        <path
           d="m 389.799,378.323 h 3.276 V 367.78 h -3.276 z m 1.617,1.381 c -1.104,0 -1.811,0.774 -1.811,1.746 0,0.989 0.735,1.746 1.854,1.746 1.119,0 1.809,-0.757 1.833,-1.746 0,-0.972 -0.714,-1.746 -1.856,-1.746 z"
           style="fill:#514e4f;fill-opacity:1;fill-rule:nonzero;stroke:none"
           id="path10328" />
        <g
           id="g10330"
           transform="translate(399.3691,381.1906)">
          <path
             d="M 0,0 V -2.867 H 2.352 V -5.283 H 0 v -3.836 c 0,-1.272 0.324,-1.852 1.297,-1.852 0.449,0 0.664,0.018 0.968,0.08 l 0.023,-2.474 c -0.409,-0.155 -1.21,-0.28 -2.111,-0.28 -1.06,0 -1.943,0.366 -2.482,0.903 -0.605,0.625 -0.906,1.64 -0.906,3.127 v 4.332 h -1.401 v 2.416 h 1.401 v 1.984 z"
             style="fill:#514e4f;fill-opacity:1;fill-rule:nonzero;stroke:none"
             id="path10332" />
        </g>
        <g
           id="g10334"
           transform="translate(406.1992,378.3234)">
          <path
             d="m 0,0 1.576,-5.176 c 0.172,-0.623 0.389,-1.4 0.52,-1.959 h 0.061 c 0.154,0.559 0.325,1.358 0.477,1.959 L 3.926,0 H 7.442 L 4.979,-6.941 c -1.506,-4.184 -2.52,-5.842 -3.706,-6.899 -1.121,-0.992 -2.326,-1.359 -3.169,-1.445 l -0.689,2.76 c 0.409,0.084 0.926,0.281 1.425,0.56 0.492,0.258 1.055,0.799 1.356,1.313 0.108,0.174 0.173,0.324 0.173,0.474 0,0.11 -0.023,0.283 -0.129,0.543 L -3.64,0 Z"
             style="fill:#514e4f;fill-opacity:1;fill-rule:nonzero;stroke:none"
             id="path10336" />
        </g>
        <g
           id="g10338"
           transform="translate(232.4805,392.1125)">
          <path
             d="M 0,0 H -1.701 V 0.615 H 2.442 V 0 H 0.733 V -4.977 H 0 Z"
             style="fill:#514e4f;fill-opacity:1;fill-rule:nonzero;stroke:none"
             id="path10340" />
        </g>
        <g
           id="g10342"
           transform="translate(235.458,387.1359)">
          <path
             d="m 0,0 h 0.732 v 2.424 c 0,0.135 0.009,0.246 0.047,0.349 0.141,0.393 0.505,0.723 0.982,0.723 0.68,0 0.924,-0.541 0.924,-1.187 V 0 h 0.732 v 2.387 c 0,1.385 -0.854,1.717 -1.4,1.717 C 1.743,4.104 1.486,4.027 1.271,3.902 1.052,3.779 0.868,3.592 0.747,3.389 H 0.732 v 2.5 L 0,5.889 Z"
             style="fill:#514e4f;fill-opacity:1;fill-rule:nonzero;stroke:none"
             id="path10344" />
        </g>
        <g
           id="g10346"
           transform="translate(242.6084,389.5441)">
          <path
             d="M 0,0 C 0.006,0.457 -0.189,1.176 -1.005,1.176 -1.746,1.176 -2.063,0.504 -2.119,0 Z m -2.129,-0.531 c 0.014,-0.981 0.641,-1.385 1.372,-1.385 0.521,0 0.84,0.094 1.109,0.207 l 0.13,-0.523 c -0.257,-0.118 -0.705,-0.256 -1.34,-0.256 -1.236,0 -1.978,0.818 -1.978,2.025 0,1.213 0.717,2.164 1.891,2.164 1.309,0 1.654,-1.146 1.654,-1.888 0,-0.155 -0.01,-0.262 -0.025,-0.35 z"
             style="fill:#514e4f;fill-opacity:1;fill-rule:nonzero;stroke:none"
             id="path10348" />
        </g>
        <path
           d="m 250.147,391.148 h -0.732 v -4.012 h 0.732 z m -0.369,0.74 c 0.292,0 0.477,0.211 0.475,0.472 0,0.264 -0.187,0.471 -0.471,0.471 -0.277,0 -0.472,-0.211 -0.472,-0.471 0,-0.261 0.184,-0.472 0.46,-0.472 z"
           style="fill:#514e4f;fill-opacity:1;fill-rule:nonzero;stroke:none"
           id="path10350" />
        <g
           id="g10352"
           transform="translate(251.3662,389.8957)">
          <path
             d="m 0,0 c 0,0.479 -0.012,0.879 -0.032,1.252 h 0.643 l 0.03,-0.787 h 0.026 c 0.187,0.541 0.63,0.879 1.115,0.879 0.081,0 0.139,-0.006 0.205,-0.022 V 0.631 C 1.905,0.646 1.831,0.652 1.73,0.652 1.216,0.652 0.853,0.266 0.754,-0.279 0.735,-0.381 0.725,-0.498 0.725,-0.617 V -2.76 h -0.733 z"
             style="fill:#514e4f;fill-opacity:1;fill-rule:nonzero;stroke:none"
             id="path10354" />
        </g>
        <g
           id="g10356"
           transform="translate(253.9775,387.882)">
          <path
             d="m 0,0 c 0.222,-0.137 0.605,-0.287 0.968,-0.287 0.531,0 0.776,0.262 0.776,0.596 0,0.349 -0.211,0.533 -0.742,0.734 -0.727,0.26 -1.068,0.656 -1.068,1.137 0,0.646 0.526,1.177 1.391,1.177 0.408,0 0.762,-0.111 0.987,-0.246 L 2.129,2.576 C 1.976,2.674 1.68,2.813 1.304,2.813 0.875,2.813 0.643,2.564 0.643,2.266 0.643,1.934 0.877,1.787 1.403,1.582 2.097,1.326 2.452,0.979 2.456,0.377 c 0,-0.713 -0.554,-1.211 -1.504,-1.211 -0.439,0 -0.847,0.113 -1.13,0.279 z"
             style="fill:#514e4f;fill-opacity:1;fill-rule:nonzero;stroke:none"
             id="path10358" />
        </g>
        <g
           id="g10360"
           transform="translate(258.2539,392.1125)">
          <path
             d="M 0,0 V -0.965 H 1.047 V -1.521 H 0 v -2.153 c 0,-0.5 0.144,-0.783 0.55,-0.783 0.194,0 0.314,0.02 0.424,0.053 L 1.007,-4.963 C 0.864,-5.02 0.638,-5.064 0.352,-5.064 c -0.336,0 -0.616,0.111 -0.789,0.31 -0.201,0.219 -0.285,0.576 -0.285,1.047 v 2.186 h -0.62 v 0.556 h 0.62 v 0.744 z"
             style="fill:#514e4f;fill-opacity:1;fill-rule:nonzero;stroke:none"
             id="path10362" />
        </g>
        <g
           id="g10364"
           transform="translate(262.6367,392.7277)">
          <path
             d="m 0,0 v -3.314 c 0,-1.243 0.551,-1.772 1.303,-1.772 0.82,0 1.354,0.547 1.354,1.772 V 0 h 0.734 v -3.262 c 0,-1.718 -0.904,-2.422 -2.119,-2.422 -1.143,0 -2.006,0.653 -2.006,2.389 V 0 Z"
             style="fill:#514e4f;fill-opacity:1;fill-rule:nonzero;stroke:none"
             id="path10366" />
        </g>
        <g
           id="g10368"
           transform="translate(267.249,387.1359)">
          <path
             d="m 0,0 h 0.733 v 2.416 c 0,0.121 0.018,0.25 0.051,0.338 0.129,0.408 0.5,0.748 0.978,0.748 0.679,0 0.924,-0.543 0.924,-1.191 V 0 h 0.731 v 2.393 c 0,1.377 -0.858,1.711 -1.414,1.711 -0.662,0 -1.127,-0.375 -1.324,-0.75 H 0.658 l -0.04,0.658 h -0.65 C -0.015,3.68 0,3.346 0,2.926 Z"
             style="fill:#514e4f;fill-opacity:1;fill-rule:nonzero;stroke:none"
             id="path10370" />
        </g>
        <path
           d="m 271.857,391.148 h 0.733 v -4.012 h -0.733 z m 0.354,0.74 c -0.276,0 -0.459,0.211 -0.459,0.472 0,0.26 0.195,0.471 0.475,0.471 0.283,0 0.464,-0.207 0.469,-0.471 0,-0.261 -0.182,-0.472 -0.477,-0.472 z"
           style="fill:#514e4f;fill-opacity:1;fill-rule:nonzero;stroke:none"
           id="path10372" />
        <g
           id="g10374"
           transform="translate(274.0898,391.1476)">
          <path
             d="m 0,0 0.785,-2.244 c 0.133,-0.373 0.237,-0.703 0.326,-1.037 h 0.024 c 0.09,0.334 0.206,0.668 0.334,1.037 L 2.25,0 H 3.021 L 1.441,-4.012 H 0.738 L -0.788,0 Z"
             style="fill:#514e4f;fill-opacity:1;fill-rule:nonzero;stroke:none"
             id="path10376" />
        </g>
        <g
           id="g10378"
           transform="translate(278.1348,389.5441)">
          <path
             d="M 0,0 C 0.059,0.504 0.374,1.176 1.116,1.176 1.93,1.176 2.127,0.457 2.12,0 Z m 2.802,-0.537 c 0.015,0.088 0.026,0.195 0.026,0.35 0,0.742 -0.344,1.888 -1.653,1.888 -1.175,0 -1.89,-0.951 -1.89,-2.164 0,-1.207 0.741,-2.025 1.977,-2.025 0.636,0 1.081,0.138 1.341,0.256 l -0.13,0.523 c -0.272,-0.113 -0.591,-0.207 -1.11,-0.207 -0.732,0 -1.357,0.404 -1.371,1.385 z"
             style="fill:#514e4f;fill-opacity:1;fill-rule:nonzero;stroke:none"
             id="path10380" />
        </g>
        <g
           id="g10382"
           transform="translate(281.8701,387.1359)">
          <path
             d="m 0,0 h 0.732 v 2.143 c 0,0.119 0.011,0.236 0.029,0.337 0.099,0.545 0.463,0.932 0.977,0.932 0.1,0 0.174,-0.006 0.257,-0.021 V 4.082 C 1.929,4.098 1.87,4.104 1.792,4.104 1.306,4.104 0.86,3.766 0.675,3.225 H 0.647 L 0.62,4.012 H -0.024 C -0.002,3.639 0.008,3.238 0.008,2.76 Z"
             style="fill:#514e4f;fill-opacity:1;fill-rule:nonzero;stroke:none"
             id="path10384" />
        </g>
        <g
           id="g10386"
           transform="translate(284.4883,387.882)">
          <path
             d="m 0,0 c 0.219,-0.137 0.605,-0.287 0.969,-0.287 0.531,0 0.777,0.262 0.777,0.596 0,0.349 -0.211,0.533 -0.744,0.734 -0.726,0.26 -1.07,0.656 -1.066,1.137 0,0.646 0.527,1.177 1.389,1.177 0.409,0 0.763,-0.111 0.985,-0.246 L 2.13,2.576 C 1.973,2.674 1.68,2.813 1.306,2.813 0.877,2.813 0.643,2.564 0.643,2.266 0.643,1.934 0.879,1.787 1.402,1.582 2.096,1.326 2.455,0.979 2.455,0.377 c 0,-0.713 -0.55,-1.211 -1.502,-1.211 -0.44,0 -0.848,0.113 -1.131,0.279 z"
             style="fill:#514e4f;fill-opacity:1;fill-rule:nonzero;stroke:none"
             id="path10388" />
        </g>
        <path
           d="m 288.617,391.148 h -0.733 v -4.012 h 0.733 z m -0.37,0.74 c 0.293,0 0.476,0.211 0.476,0.472 -0.005,0.264 -0.187,0.471 -0.47,0.471 -0.28,0 -0.475,-0.211 -0.475,-0.471 0,-0.261 0.185,-0.472 0.46,-0.472 z"
           style="fill:#514e4f;fill-opacity:1;fill-rule:nonzero;stroke:none"
           id="path10390" />
        <g
           id="g10392"
           transform="translate(289.9883,391.8918)">
          <path
             d="M 0,0 V -0.744 H -0.621 V -1.301 H 0 v -2.185 c 0,-0.471 0.082,-0.829 0.285,-1.047 0.173,-0.2 0.453,-0.311 0.789,-0.311 0.285,0 0.512,0.045 0.654,0.102 L 1.695,-4.184 C 1.586,-4.217 1.467,-4.236 1.272,-4.236 c -0.407,0 -0.551,0.283 -0.551,0.783 v 2.152 H 1.77 v 0.557 H 0.721 v 0.965 z"
             style="fill:#514e4f;fill-opacity:1;fill-rule:nonzero;stroke:none"
             id="path10394" />
        </g>
        <g
           id="g10396"
           transform="translate(292.9277,391.1476)">
          <path
             d="m 0,0 0.873,-2.365 c 0.096,-0.268 0.191,-0.58 0.258,-0.819 H 1.15 c 0.074,0.235 0.161,0.541 0.256,0.834 L 2.195,0 H 2.978 L 1.881,-2.855 c -0.52,-1.381 -0.876,-2.082 -1.375,-2.518 -0.36,-0.314 -0.717,-0.438 -0.9,-0.471 l -0.181,0.615 c 0.183,0.061 0.421,0.174 0.64,0.356 0.195,0.158 0.439,0.441 0.607,0.811 0.037,0.076 0.057,0.128 0.057,0.173 0,0.041 -0.012,0.102 -0.051,0.188 L -0.803,0 Z"
             style="fill:#514e4f;fill-opacity:1;fill-rule:nonzero;stroke:none"
             id="path10398" />
        </g>
        <path
           d="m 299.065,391.148 h -0.734 v -4.012 h 0.734 z m -0.372,0.74 c 0.295,0 0.477,0.211 0.475,0.472 -0.002,0.264 -0.186,0.471 -0.469,0.471 -0.279,0 -0.472,-0.211 -0.472,-0.471 0,-0.261 0.183,-0.472 0.458,-0.472 z"
           style="fill:#514e4f;fill-opacity:1;fill-rule:nonzero;stroke:none"
           id="path10400" />
        <g
           id="g10402"
           transform="translate(300.2754,390.0617)">
          <path
             d="m 0,0 c 0,0.42 -0.016,0.754 -0.033,1.086 h 0.65 l 0.04,-0.658 h 0.021 c 0.197,0.375 0.662,0.75 1.324,0.75 0.556,0 1.416,-0.334 1.416,-1.711 V -2.926 H 2.685 v 2.311 c 0,0.648 -0.243,1.191 -0.924,1.191 -0.475,0 -0.849,-0.34 -0.978,-0.748 C 0.75,-0.26 0.732,-0.389 0.732,-0.51 V -2.926 H 0 Z"
             style="fill:#514e4f;fill-opacity:1;fill-rule:nonzero;stroke:none"
             id="path10404" />
        </g>
        <g
           id="g10406"
           transform="translate(306.665,392.7277)">
          <path
             d="m 0,0 h 0.729 v -2.693 h 0.025 c 0.145,0.218 0.301,0.412 0.442,0.595 L 2.896,0 H 3.8 L 1.778,-2.379 3.96,-5.592 H 3.095 l -1.83,2.739 -0.536,-0.616 v -2.123 l -0.729,0 z"
             style="fill:#514e4f;fill-opacity:1;fill-rule:nonzero;stroke:none"
             id="path10408" />
        </g>
        <g
           id="g10410"
           transform="translate(312.8027,387.5949)">
          <path
             d="m 0,0 c 0.696,0 1.218,0.652 1.218,1.56 0,0.678 -0.343,1.534 -1.205,1.534 -0.855,0 -1.224,-0.797 -1.224,-1.555 C -1.211,0.66 -0.709,0 -0.008,0 Z m -0.021,-0.551 c -1.09,0 -1.931,0.795 -1.931,2.067 0,1.341 0.882,2.129 1.993,2.129 1.154,0 1.935,-0.836 1.935,-2.061 0,-1.484 -1.032,-2.135 -1.99,-2.135 z"
             style="fill:#514e4f;fill-opacity:1;fill-rule:nonzero;stroke:none"
             id="path10412" />
        </g>
        <g
           id="g10414"
           transform="translate(315.7041,389.8957)">
          <path
             d="M 0,0 C 0,0.479 -0.013,0.879 -0.032,1.252 H 0.612 L 0.64,0.465 h 0.025 c 0.189,0.541 0.63,0.879 1.117,0.879 0.081,0 0.137,-0.006 0.204,-0.022 V 0.631 C 1.903,0.646 1.831,0.652 1.729,0.652 1.215,0.652 0.854,0.266 0.753,-0.279 0.735,-0.381 0.726,-0.498 0.726,-0.617 V -2.76 h -0.735 z"
             style="fill:#514e4f;fill-opacity:1;fill-rule:nonzero;stroke:none"
             id="path10416" />
        </g>
        <g
           id="g10418"
           transform="translate(320.9121,389.5441)">
          <path
             d="M 0,0 C 0.009,0.457 -0.185,1.176 -1.002,1.176 -1.746,1.176 -2.061,0.504 -2.117,0 Z m -2.126,-0.531 c 0.013,-0.981 0.639,-1.385 1.37,-1.385 0.52,0 0.84,0.094 1.11,0.207 l 0.129,-0.523 c -0.256,-0.118 -0.705,-0.256 -1.34,-0.256 -1.235,0 -1.977,0.818 -1.977,2.025 0,1.213 0.717,2.164 1.891,2.164 1.309,0 1.653,-1.146 1.653,-1.888 0,-0.155 -0.008,-0.262 -0.026,-0.35 z"
             style="fill:#514e4f;fill-opacity:1;fill-rule:nonzero;stroke:none"
             id="path10420" />
        </g>
        <g
           id="g10422"
           transform="translate(324.6416,388.4855)">
          <path
             d="m 0,0 c 0,-0.068 -0.01,-0.148 -0.034,-0.227 -0.117,-0.339 -0.449,-0.67 -0.975,-0.67 -0.363,0 -0.678,0.219 -0.678,0.696 0,0.773 0.901,0.914 1.687,0.898 z m 0.718,1.111 c 0,0.807 -0.303,1.643 -1.53,1.643 -0.507,0 -0.994,-0.139 -1.327,-0.35 l 0.166,-0.49 C -1.69,2.1 -1.3,2.213 -0.926,2.213 -0.107,2.217 -0.014,1.617 -0.014,1.291 V 1.207 c -1.55,0.01 -2.409,-0.523 -2.409,-1.496 0,-0.576 0.412,-1.152 1.225,-1.152 0.572,0 1.007,0.283 1.224,0.595 H 0.052 L 0.114,-1.35 h 0.664 c -0.047,0.276 -0.06,0.618 -0.06,0.959 z"
             style="fill:#514e4f;fill-opacity:1;fill-rule:nonzero;stroke:none"
             id="path10424" />
        </g>
        <g
           id="g10426"
           transform="translate(245.8804,392.7511)">
          <path
             d="M 0,0 H 3.024 V -0.608 H 0.725 V -2.475 H 2.849 V -3.074 H 0.725 V -5.615 H 0 Z"
             style="fill:#514e4f;fill-opacity:1;fill-rule:nonzero;stroke:none"
             id="path10428" />
        </g>
      </g>
    </g>
  </g>
</svg>
