<?xml version="1.0" encoding="UTF-8" standalone="no"?>
<!-- Created with Inkscape (http://www.inkscape.org/) -->

<svg
   version="1.1"
   id="svg5725"
   width="793.70667"
   height="1122.52"
   viewBox="0 0 793.70667 1122.52"
   sodipodi:docname="연세대학교.svg"
   inkscape:version="1.2.1 (9c6d41e410, 2022-07-14)"
   xmlns:inkscape="http://www.inkscape.org/namespaces/inkscape"
   xmlns:sodipodi="http://sodipodi.sourceforge.net/DTD/sodipodi-0.dtd"
   xmlns="http://www.w3.org/2000/svg"
   xmlns:svg="http://www.w3.org/2000/svg">
  <defs
     id="defs5729">
    <clipPath
       clipPathUnits="userSpaceOnUse"
       id="clipPath5741">
      <path
         d="M 0,841.89 H 595.28 V 0 H 0 Z"
         id="path5739" />
    </clipPath>
    <clipPath
       clipPathUnits="userSpaceOnUse"
       id="clipPath5761">
      <path
         d="M 0,841.89 H 595.28 V 0 H 0 Z"
         id="path5759" />
    </clipPath>
    <clipPath
       clipPathUnits="userSpaceOnUse"
       id="clipPath5781">
      <path
         d="M 0,841.89 H 595.28 V 0 H 0 Z"
         id="path5779" />
    </clipPath>
  </defs>
  <sodipodi:namedview
     id="namedview5727"
     pagecolor="#ffffff"
     bordercolor="#000000"
     borderopacity="0.25"
     inkscape:showpageshadow="2"
     inkscape:pageopacity="0.0"
     inkscape:pagecheckerboard="true"
     inkscape:deskcolor="#d1d1d1"
     showgrid="false"
     inkscape:zoom="6.7277195"
     inkscape:cx="286.57556"
     inkscape:cy="555.31447"
     inkscape:window-width="2560"
     inkscape:window-height="1494"
     inkscape:window-x="-11"
     inkscape:window-y="-11"
     inkscape:window-maximized="1"
     inkscape:current-layer="g5777">
    <inkscape:page
       x="0"
       y="0"
       id="page5731"
       width="793.70667"
       height="1122.52" />
  </sodipodi:namedview>
  <g
     id="g5733"
     inkscape:groupmode="layer"
     inkscape:label="Page 1"
     transform="matrix(1.3333333,0,0,-1.3333333,0,1122.52)">
    <g
       id="g5735">
      <g
         id="g5737"
         clip-path="url(#clipPath5741)">
        <g
           id="g5743"
           transform="translate(345.0801,458.0063)">
          <path
             d="M 0,0 V -7.385 H -1.94 V 0 h -5.007 v -0.584 h 0.007 c 0.504,0 0.972,-0.861 0.972,-1.77 V -18.241 H -16.295 V -4.03 h 6.876 v 3.363 h -12.172 v -0.599 h 0.001 c 0.498,0 0.979,-0.853 0.979,-1.757 v -18.575 h 14.643 v -5.327 h 4.028 v 16.216 H 0 V -26.925 H 4.323 V 0 H 4.315 Z"
             style="fill:#4f4c4d;fill-opacity:1;fill-rule:nonzero;stroke:none"
             id="path5745" />
        </g>
        <g
           id="g5747"
           transform="translate(408.2812,435.7656)">
          <path
             d="M 0,0 V 21.525 H -0.008 -21.19 V 18.169 H -4.326 V 0 h -3.446 v 9.466 h -4.123 V 0 h -2.333 v 9.466 h -4.815 V 8.868 h 0.01 c 0.503,0 0.975,-0.847 0.975,-1.759 V 0 h -4.563 V -3.366 H 2.611 l 0,3.366 z"
             style="fill:#4f4c4d;fill-opacity:1;fill-rule:nonzero;stroke:none"
             id="path5749" />
        </g>
      </g>
    </g>
    <g
       id="g5751"
       transform="translate(313.6475,458.0063)">
      <path
         d="M 0,0 V -26.925 H 4.323 V 0 H 4.319 Z"
         style="fill:#4f4c4d;fill-opacity:1;fill-rule:nonzero;stroke:none"
         id="path5753" />
    </g>
    <g
       id="g5755">
      <g
         id="g5757"
         clip-path="url(#clipPath5761)">
        <g
           id="g5763"
           transform="translate(306.8525,458.0063)">
          <path
             d="m 0,0 v -0.584 h 0.008 c 0.493,0 0.977,-0.861 0.977,-1.77 v -5.031 h -4.297 v -3.324 H 0.985 V -26.925 H 5.03 L 5.03,0 H 5.021 Z"
             style="fill:#4f4c4d;fill-opacity:1;fill-rule:nonzero;stroke:none"
             id="path5765" />
        </g>
        <g
           id="g5767"
           transform="translate(299.7773,446.475)">
          <path
             d="m 0,0 -0.23,0.176 0.05,0.116 c 1.772,3.321 2.641,6.791 2.641,10.573 v 0.011 h -6.253 v -0.601 l 0.002,-0.004 c 0.056,-0.005 1.368,-0.313 1.368,-2.506 0,-0.141 0.019,-7.435 -7.021,-13.971 0.196,-0.184 1.849,-1.772 1.994,-1.906 l 0.013,0.005 c 0.03,0.017 2.632,1.611 5.388,5.451 l 0.092,0.124 0.122,-0.1 c 1.086,-0.892 2.72,-2.235 5.593,-6.348 0.252,0.342 2.252,3.129 2.364,3.299 C 4.841,-4.017 2.665,-2.006 0,0"
             style="fill:#4f4c4d;fill-opacity:1;fill-rule:nonzero;stroke:none"
             id="path5769" />
        </g>
      </g>
    </g>
    <g
       id="g5771"
       transform="translate(357.1377,436.9174)">
      <path
         d="m 0,0 h 18.044 v -5.814 h 4.324 v 9.18 L 0,3.366 Z"
         style="fill:#4f4c4d;fill-opacity:1;fill-rule:nonzero;stroke:none"
         id="path5773" />
    </g>
    <g
       id="g5775">
      <g
         id="g5777"
         clip-path="url(#clipPath5781)">
        <g
           id="g5783"
           transform="translate(379.5068,458.0346)">
          <path
             d="m 0,0 h -5.306 v -0.594 h 0.001 c 0.504,0 0.979,-0.859 0.979,-1.762 V -15.454 H 0 v 4.742 h 4.24 v 3.318 H 0 Z"
             style="fill:#4f4c4d;fill-opacity:1;fill-rule:nonzero;stroke:none"
             id="path5785" />
        </g>
        <g
           id="g5787"
           transform="translate(355.5088,448.8881)">
          <path
             d="m 0,0 c 0,-3.618 3.442,-6.573 7.669,-6.573 4.227,0 7.661,2.955 7.661,6.573 0,1.954 -1.004,3.708 -2.594,4.913 h 3.494 v 3.358 h -6.043 v 2.28 H 10.184 4.891 V 9.963 h 0.007 c 0.433,0 0.868,-0.707 0.939,-1.529 L 5.851,8.271 H -0.601 V 4.913 H 2.598 C 1.008,3.708 0,1.954 0,0 m 7.669,-3.751 c -1.888,0 -3.409,1.775 -3.409,3.96 0,2.184 1.521,3.963 3.409,3.963 1.871,0 3.403,-1.779 3.403,-3.963 0,-2.185 -1.532,-3.96 -3.403,-3.96"
             style="fill:#4f4c4d;fill-opacity:1;fill-rule:nonzero;stroke:none"
             id="path5789" />
        </g>
        <g
           id="g5791"
           transform="translate(270.4707,440.017)">
          <path
             d="m 0,0 v 0 h -5.298 v -0.594 c 0.5,0 0.983,-0.854 0.983,-1.754 v -6.385 h 20.617 v 3.358 H 0 Z"
             style="fill:#4f4c4d;fill-opacity:1;fill-rule:nonzero;stroke:none"
             id="path5793" />
        </g>
        <g
           id="g5795"
           transform="translate(276.543,445.579)">
          <path
             d="M 0,0 H 5.564 V -7.009 H 9.882 V 12.434 H 4.583 v -0.585 h 0.003 c 0.501,0 0.978,-0.867 0.978,-1.766 V 9.039 h -5.949 c -1.487,1.686 -3.745,2.765 -6.272,2.765 -4.458,0 -8.089,-3.375 -8.089,-7.524 0,-4.15 3.631,-7.521 8.089,-7.521 2.76,0 5.196,1.285 6.657,3.241 M 5.564,5.692 V 3.354 H 1.378 c 0.039,0.305 0.067,0.611 0.067,0.926 0,0.482 -0.054,0.954 -0.151,1.412 z M -10.423,4.293 c 0,2.461 1.694,4.453 3.766,4.453 2.083,0 3.77,-1.992 3.77,-4.453 0,-2.457 -1.687,-4.452 -3.77,-4.452 -2.072,0 -3.766,1.995 -3.766,4.452"
             style="fill:#4f4c4d;fill-opacity:1;fill-rule:nonzero;stroke:none"
             id="path5797" />
        </g>
        <g
           id="g5799"
           transform="translate(278.6572,424.1679)">
          <path
             d="m 0,0 c -3.762,0 -5.472,-2.699 -5.472,-5.201 0,-2.505 1.67,-5.204 5.344,-5.204 3.232,0 5.49,2.236 5.49,5.434 C 5.362,-1.905 3.309,0 0,0 m 0.418,-9.52 c -2.274,0 -3.865,1.939 -3.865,4.722 0,3.427 1.927,3.938 3.074,3.938 2.168,0 3.682,-1.888 3.682,-4.589 0,-3.672 -2.022,-4.071 -2.891,-4.071"
             style="fill:#4f4c4d;fill-opacity:1;fill-rule:nonzero;stroke:none"
             id="path5801" />
        </g>
        <g
           id="g5803"
           transform="translate(302.7012,421.6274)">
          <path
             d="m 0,0 h -0.564 c 0,0 0.063,0.627 -0.31,1.116 -0.194,0.255 -0.551,0.589 -1.319,0.589 -0.866,0 -1.425,-0.477 -1.425,-1.217 0,-0.506 0.204,-0.919 1.328,-1.773 l 0.364,-0.27 c 1.601,-1.247 2.168,-2.134 2.168,-3.403 0,-0.568 -0.163,-1.633 -1.269,-2.357 -0.577,-0.369 -1.275,-0.55 -2.123,-0.55 -0.777,0 -1.855,0.156 -2.254,0.555 v 2.497 h 0.52 c 0,0 0.104,-0.743 0.176,-0.965 0.315,-1.063 1.223,-1.226 1.734,-1.226 1.053,0 1.623,0.7 1.623,1.361 0,0.621 -0.211,1.191 -1.229,1.98 l -0.595,0.466 c -1.378,1.078 -1.966,2.024 -1.966,3.168 0,1.512 1.265,2.569 3.116,2.569 C -0.478,2.54 0,2.158 0,2.158 Z"
             style="fill:#4f4c4d;fill-opacity:1;fill-rule:nonzero;stroke:none"
             id="path5805" />
        </g>
        <g
           id="g5807"
           transform="translate(384.6797,421.6274)">
          <path
             d="m 0,0 h -0.56 c 0,0 0.064,0.627 -0.312,1.116 -0.196,0.255 -0.553,0.589 -1.319,0.589 -0.866,0 -1.427,-0.477 -1.427,-1.217 0,-0.506 0.206,-0.919 1.33,-1.773 l 0.362,-0.27 c 1.608,-1.247 2.176,-2.134 2.176,-3.403 0,-0.568 -0.171,-1.633 -1.278,-2.357 -0.576,-0.369 -1.268,-0.55 -2.122,-0.55 -0.777,0 -1.853,0.156 -2.247,0.555 v 2.497 h 0.511 c 0,0 0.107,-0.743 0.179,-0.965 0.315,-1.063 1.224,-1.226 1.737,-1.226 1.049,0 1.621,0.7 1.621,1.361 0,0.621 -0.209,1.191 -1.229,1.98 l -0.596,0.466 c -1.376,1.078 -1.964,2.024 -1.964,3.168 0,1.512 1.265,2.569 3.117,2.569 C -0.473,2.54 0,2.158 0,2.158 Z"
             style="fill:#4f4c4d;fill-opacity:1;fill-rule:nonzero;stroke:none"
             id="path5809" />
        </g>
        <g
           id="g5811"
           transform="translate(309.9268,423.0903)">
          <path
             d="m 0,0 c 0.89,0 0.923,-0.488 0.923,-1.16 h 0.461 v 2.051 h -6.458 v -0.46 h 0.3 c 0.438,0 0.995,-0.131 0.995,-0.881 v -7.211 c 0,-0.964 -0.273,-1.031 -0.881,-1.028 h -0.218 v -0.458 h 6.595 v 2.214 H 1.239 c 0,-0.983 -0.387,-1.324 -1.064,-1.324 h -2.067 v 4.001 0.009 H 0.03 c 0.667,0 0.683,-0.221 0.683,-0.908 h 0.465 v 2.708 H 0.713 c 0,-0.691 -0.016,-0.911 -0.683,-0.911 H -1.892 V 0 Z"
             style="fill:#4f4c4d;fill-opacity:1;fill-rule:nonzero;stroke:none"
             id="path5813" />
        </g>
        <g
           id="g5815"
           transform="translate(366.4404,423.0903)">
          <path
             d="m 0,0 c 0.889,0 0.924,-0.488 0.924,-1.16 h 0.463 v 2.051 h -6.461 v -0.46 h 0.296 c 0.445,0 0.999,-0.131 0.999,-0.881 0,-0.933 0.006,-7.211 0.006,-7.211 0,-0.964 -0.283,-1.031 -0.888,-1.028 h -0.214 v -0.458 h 6.591 v 2.214 H 1.24 c 0,-0.983 -0.387,-1.324 -1.064,-1.324 h -2.069 v 4.001 0.009 h 1.929 c 0.658,0 0.677,-0.221 0.677,-0.908 h 0.461 v 2.708 H 0.713 c 0,-0.691 -0.019,-0.911 -0.677,-0.911 H -1.893 V 0 Z"
             style="fill:#4f4c4d;fill-opacity:1;fill-rule:nonzero;stroke:none"
             id="path5817" />
        </g>
        <g
           id="g5819"
           transform="translate(317.8604,414.4013)">
          <path
             d="m 0,0 c -0.515,0 -0.962,0.075 -0.962,0.664 v 7.777 c 0,0.648 0.307,0.682 1.1,0.682 v 0.458 h -4.096 v -0.46 h 0.235 c 0.33,-0.003 0.895,-0.09 0.895,-0.68 V 0.664 c 0,-0.643 -0.333,-0.661 -1.13,-0.661 v -0.458 h 4.421 l 0,0.455 z"
             style="fill:#4f4c4d;fill-opacity:1;fill-rule:nonzero;stroke:none"
             id="path5821" />
        </g>
        <g
           id="g5823"
           transform="translate(350.3564,414.4013)">
          <path
             d="m 0,0 c -0.511,0 -0.961,0.075 -0.961,0.664 v 7.777 c 0,0.648 0.305,0.682 1.102,0.682 v 0.458 h -4.093 v -0.46 h 0.234 c 0.329,-0.003 0.891,-0.09 0.891,-0.68 V 0.664 c 0,-0.643 -0.335,-0.661 -1.125,-0.661 v -0.458 h 4.415 l 0,0.455 z"
             style="fill:#4f4c4d;fill-opacity:1;fill-rule:nonzero;stroke:none"
             id="path5825" />
        </g>
        <g
           id="g5827"
           transform="translate(389.9863,414.4013)">
          <path
             d="m 0,0 c -0.518,0 -0.964,0.075 -0.964,0.664 v 7.777 c 0,0.648 0.308,0.682 1.102,0.682 v 0.458 h -4.094 v -0.46 h 0.233 c 0.334,-0.003 0.894,-0.09 0.894,-0.68 V 0.664 c 0,-0.643 -0.333,-0.661 -1.127,-0.661 v -0.458 h 4.418 l 0,0.455 z"
             style="fill:#4f4c4d;fill-opacity:1;fill-rule:nonzero;stroke:none"
             id="path5829" />
        </g>
        <g
           id="g5831"
           transform="translate(266.9395,423.5219)">
          <path
             d="M 0,0 0.214,0.003 V 0.459 H -3.518 V 0.003 c 0,0 0.515,0.015 0.832,-0.165 0.25,-0.139 0.556,-0.477 0.855,-0.908 0.46,-0.684 2.186,-3.524 2.27,-3.716 0.171,-0.374 0.287,-0.64 0.287,-1.312 v -2.184 c 0,-0.833 -0.454,-0.833 -1.099,-0.833 v -0.467 h 4.395 v 0.463 H 3.7 C 3.098,-9.122 2.599,-9.069 2.599,-8.25 v 2.152 c 0,0.412 0,0.806 0.187,1.252 0.225,0.534 2.026,3.569 2.459,4.093 0.281,0.342 0.388,0.455 0.658,0.603 0.183,0.101 0.342,0.153 0.521,0.153 H 6.782 V 0.459 H 3.48 V 0.003 h 0.337 c 0.143,0 0.197,-0.105 0.197,-0.22 0,-0.166 -0.059,-0.358 -0.187,-0.634 -0.089,-0.196 -1.848,-3.362 -1.848,-3.362 0,0 -1.941,3.362 -2.087,3.674 L -0.25,-0.147 -0.167,-0.028 0,0"
             style="fill:#4f4c4d;fill-opacity:1;fill-rule:nonzero;stroke:none"
             id="path5833" />
        </g>
        <g
           id="g5835"
           transform="translate(404.0635,423.5219)">
          <path
             d="M 0,0 0.214,0.003 V 0.459 H -3.514 V 0.003 c 0,0 0.511,0.015 0.83,-0.165 0.247,-0.139 0.554,-0.477 0.853,-0.908 0.462,-0.684 2.19,-3.524 2.272,-3.716 0.168,-0.374 0.289,-0.64 0.289,-1.312 v -2.184 c 0,-0.833 -0.458,-0.833 -1.101,-0.833 v -0.467 h 4.395 v 0.463 H 3.7 C 3.098,-9.122 2.602,-9.069 2.602,-8.25 v 2.152 c 0,0.412 0,0.806 0.183,1.252 0.226,0.534 2.03,3.569 2.461,4.093 0.279,0.342 0.387,0.455 0.66,0.603 0.184,0.101 0.342,0.153 0.521,0.153 H 6.783 L 6.787,0.459 H 3.482 V 0.003 h 0.34 c 0.141,0 0.197,-0.105 0.197,-0.22 0,-0.166 -0.064,-0.358 -0.192,-0.634 C 3.738,-1.047 1.98,-4.213 1.98,-4.213 c 0,0 -1.942,3.362 -2.088,3.674 L -0.251,-0.147 -0.16,-0.028 0,0"
             style="fill:#4f4c4d;fill-opacity:1;fill-rule:nonzero;stroke:none"
             id="path5837" />
        </g>
        <g
           id="g5839"
           transform="translate(288.5518,414.4033)">
          <path
             d="M 0,0 V -0.459 H -3.709 V 0 c 0.581,0 1.183,-0.046 1.183,1.068 v 8.51 h 0.625 C -0.73,8.374 4.87,2.586 5.054,2.395 v 5.743 c 0,1.019 -0.81,0.984 -1.311,0.984 V 9.578 H 7.165 V 9.122 c -0.544,0 -1.08,0.035 -1.08,-0.984 V -0.459 H 5.414 L -1.494,6.599 -1.486,1.068 C -1.486,0.108 -0.929,0 -0.368,0 Z"
             style="fill:#4f4c4d;fill-opacity:1;fill-rule:nonzero;stroke:none"
             id="path5841" />
        </g>
        <g
           id="g5843"
           transform="translate(337.8281,414.4033)">
          <path
             d="M 0,0 V -0.459 H -3.708 V 0 c 0.585,0 1.181,-0.046 1.181,1.068 v 8.51 h 0.628 C -0.727,8.374 4.875,2.586 5.054,2.395 v 5.743 c 0,1.019 -0.807,0.984 -1.311,0.984 V 9.578 H 7.165 V 9.122 C 6.621,9.122 6.086,9.157 6.086,8.138 V -0.459 H 5.419 L -1.487,6.599 -1.486,1.068 C -1.486,0.108 -0.927,0 -0.364,0 Z"
             style="fill:#4f4c4d;fill-opacity:1;fill-rule:nonzero;stroke:none"
             id="path5845" />
        </g>
        <g
           id="g5847"
           transform="translate(330.2246,423.5219)">
          <path
             d="m 0,0 c 0.331,0 0.906,-0.095 0.906,-0.692 v -4.305 c 0,-1.377 -0.055,-2.488 -0.725,-3.16 -0.613,-0.606 -1.412,-0.673 -1.731,-0.673 -0.471,0 -1.015,0.062 -1.565,0.51 -0.501,0.417 -0.984,1.086 -0.984,3.132 v 4.496 c 0,0.651 0.315,0.695 1.109,0.695 V 0.459 H -7.085 V 0 h 0.235 c 0.33,-0.003 0.893,-0.102 0.893,-0.692 v -4.579 c 0,-1.67 0.376,-2.785 1.184,-3.518 1.03,-0.922 2.384,-0.922 2.963,-0.922 0.77,0 1.782,0.105 2.772,0.958 1.114,0.958 1.267,2.484 1.267,3.991 v 4.07 c 0,0.646 0.318,0.695 1.112,0.695 v 0.456 h -3.567 l 0,-0.459 z"
             style="fill:#4f4c4d;fill-opacity:1;fill-rule:nonzero;stroke:none"
             id="path5849" />
        </g>
        <g
           id="g5851"
           transform="translate(393.3057,414.4013)">
          <path
             d="m 0,0 v -0.457 h 4.423 v 0.46 H 4.047 c -0.543,0 -1.049,0.047 -1.049,0.669 v 8.007 h 1.968 c 0.89,0 0.994,-0.485 1.088,-1.154 H 6.591 L 6.294,9.581 H -2.163 L -2.46,7.525 h 0.534 c 0.092,0.669 0.2,1.154 1.087,1.154 H 1.128 V 0.659 C 1.128,0.088 0.876,0 0.263,0 Z"
             style="fill:#4f4c4d;fill-opacity:1;fill-rule:nonzero;stroke:none"
             id="path5853" />
        </g>
        <g
           id="g5855"
           transform="translate(379.5137,414.4238)">
          <path
             d="M 0,0 C -0.204,0.041 -0.713,0.143 -1.399,0.855 -2.063,1.55 -2.818,2.51 -3.772,3.71 l -0.395,0.491 c 1.172,0.973 1.683,1.853 1.683,2.929 0,0.974 -0.599,1.621 -0.923,1.838 -0.744,0.509 -1.658,0.572 -2.456,0.59 h -3.864 v -0.46 h 0.219 c 0.323,0 0.905,-0.092 0.905,-0.691 V 0.636 c 0,-0.574 -0.263,-0.658 -0.886,-0.658 H -9.731 V -0.48 h 4.419 v 0.459 h -0.43 c -0.516,0 -0.991,0.07 -0.991,0.669 v 2.935 h 1.179 L -4.235,1.73 c 0.768,-1.05 1.257,-1.641 1.82,-1.939 0.363,-0.196 0.71,-0.271 1.44,-0.271 h 1.33 v 0.444 C 0.104,-0.018 0,0 0,0 M -4.94,4.603 C -5.154,4.451 -5.301,4.399 -5.81,4.399 h -0.923 v 4.339 h 0.628 c 0.695,0 1.885,-0.463 1.885,-2.263 0,-1.162 -0.453,-1.671 -0.72,-1.872"
             style="fill:#4f4c4d;fill-opacity:1;fill-rule:nonzero;stroke:none"
             id="path5857" />
        </g>
        <g
           id="g5859"
           transform="translate(361.6504,423.5219)">
          <path
             d="M 0,0 V 0.457 H -3.348 V 0 h 0.381 l 0.26,-0.192 c 0.033,-0.16 -0.038,-0.418 -0.112,-0.665 0,0 -2.249,-5.751 -2.365,-6.043 -0.1,0.247 -2.394,6.357 -2.394,6.357 l -0.066,0.359 c 0.02,0.049 0.099,0.179 0.283,0.187 h 0.381 v 0.454 h -3.798 V 0.003 c 0,0 0.523,0.005 0.788,-0.174 0.22,-0.138 0.427,-0.475 0.595,-0.91 l 3.593,-8.609 h 0.425 l 3.965,8.929 c 0,0 0.354,0.774 1.044,0.761 z"
             style="fill:#4f4c4d;fill-opacity:1;fill-rule:nonzero;stroke:none"
             id="path5861" />
        </g>
        <g
           id="g5863"
           transform="translate(182.062,437.9057)">
          <path
             d="m 0,0 c 0,-19.44 15.811,-35.253 35.245,-35.253 19.444,0 35.258,15.813 35.258,35.253 0,19.436 -15.814,35.245 -35.258,35.245 C 15.811,35.245 0,19.436 0,0"
             style="fill:#ffffff;fill-opacity:1;fill-rule:nonzero;stroke:none"
             id="path5865" />
        </g>
        <g
           id="g5867"
           transform="translate(183.1064,437.9081)"
           inkscape:export-filename="..\OneDrive\바탕 화면\잉스케이프-로고\연세대학교.png"
           inkscape:export-xdpi="391.48163"
           inkscape:export-ydpi="391.48163">
          <path
             d="M 0,0 C 0,18.859 15.349,34.206 34.206,34.206 53.073,34.206 68.417,18.859 68.417,0 68.417,-18.867 53.073,-34.219 34.206,-34.219 15.349,-34.219 0,-18.867 0,0"
             style="fill:#15366f;fill-opacity:1;fill-rule:nonzero;stroke:none"
             id="path5869" />
        </g>
        <g
           id="g5871"
           transform="translate(217.3101,412.9706)">
          <path
             d="M 0,0 C -13.763,0 -24.927,11.16 -24.927,24.928 -24.927,38.7 -13.763,49.861 0,49.861 13.771,49.861 24.937,38.7 24.937,24.928 24.937,11.16 13.771,0 0,0"
             style="fill:#ffffff;fill-opacity:1;fill-rule:nonzero;stroke:none"
             id="path5873" />
        </g>
        <g
           id="g5875"
           transform="translate(188.479,429.8085)">
          <path
             d="m 0,0 c 0,-0.531 0.429,-0.965 0.96,-0.965 0.531,0 0.96,0.434 0.96,0.965 0,0.529 -0.429,0.957 -0.96,0.957 C 0.429,0.957 0,0.529 0,0"
             style="fill:#ffffff;fill-opacity:1;fill-rule:nonzero;stroke:none"
             id="path5877" />
        </g>
        <g
           id="g5879"
           transform="translate(246.5039,429.6708)">
          <path
             d="m 0,0 c 0,-0.542 -0.434,-0.978 -0.973,-0.978 -0.542,0 -0.973,0.436 -0.973,0.978 0,0.542 0.431,0.978 0.973,0.978 C -0.434,0.978 0,0.542 0,0"
             style="fill:#ffffff;fill-opacity:1;fill-rule:nonzero;stroke:none"
             id="path5881" />
        </g>
        <g
           id="g5883"
           transform="translate(189.8525,449.3759)">
          <path
             d="m 0,0 c -0.673,0.214 -1.311,0.184 -1.851,-0.1 -0.588,-0.309 -1.035,-0.889 -1.285,-1.676 -0.238,-0.772 -0.204,-1.494 0.108,-2.092 0.304,-0.59 0.86,-1.045 1.524,-1.257 1.178,-0.373 2.694,0.016 3.234,1.738 0.238,0.747 0.195,1.465 -0.125,2.088 C 1.284,-0.689 0.715,-0.225 0,0 m 1.412,-2.999 c -0.344,-1.082 -1.499,-1.541 -2.807,-1.125 -1.624,0.514 -1.571,1.504 -1.403,2.048 0.141,0.431 0.421,0.777 0.827,0.982 0.518,0.267 1.19,0.295 1.892,0.07 0.723,-0.225 1.191,-0.562 1.415,-0.989 0.209,-0.408 0.138,-0.794 0.076,-0.986"
             style="fill:#ffffff;fill-opacity:1;fill-rule:nonzero;stroke:none"
             id="path5885" />
        </g>
        <g
           id="g5887"
           transform="translate(196.6216,455.6293)">
          <path
             d="m 0,0 -0.89,0.851 0.176,0.18 0.405,-0.262 C 0.179,0.518 0.547,0.789 0.72,0.973 1.081,1.35 1.024,1.792 0.792,2.017 0.567,2.229 0.289,2.352 -0.339,2.255 L -0.71,2.201 C -1.565,2.076 -2.104,2.188 -2.513,2.582 -3.054,3.095 -3,3.909 -2.369,4.573 -1.836,5.128 -1.54,5.167 -1.54,5.167 l 0.771,-0.739 -0.188,-0.2 c 0,0 -0.184,0.237 -0.505,0.269 C -1.624,4.511 -1.867,4.499 -2.129,4.228 -2.423,3.917 -2.443,3.554 -2.177,3.299 -1.997,3.129 -1.779,3.062 -1.09,3.171 l 0.222,0.037 C 0.122,3.354 0.636,3.255 1.09,2.824 1.292,2.627 1.62,2.204 1.495,1.562 1.433,1.225 1.258,0.916 0.968,0.615 0.702,0.337 0.279,0.004 0,0"
             style="fill:#ffffff;fill-opacity:1;fill-rule:nonzero;stroke:none"
             id="path5889" />
        </g>
        <g
           id="g5891"
           transform="translate(238.8945,454.4853)">
          <path
             d="M 0,0 1.019,0.699 1.162,0.485 0.814,0.143 C 0.468,-0.28 0.659,-0.694 0.802,-0.903 1.095,-1.336 1.541,-1.374 1.808,-1.19 c 0.255,0.174 0.431,0.418 0.468,1.055 L 2.298,0.234 C 2.355,1.1 2.578,1.604 3.044,1.922 3.664,2.344 4.448,2.122 4.963,1.366 5.396,0.732 5.372,0.434 5.372,0.434 L 4.489,-0.168 4.333,0.059 c 0,0 0.271,0.128 0.371,0.442 C 4.752,0.651 4.791,0.889 4.578,1.203 4.336,1.558 3.984,1.653 3.685,1.448 3.475,1.303 3.363,1.103 3.328,0.409 L 3.317,0.184 C 3.255,-0.817 3.052,-1.299 2.532,-1.653 2.301,-1.81 1.818,-2.04 1.215,-1.788 0.902,-1.658 0.636,-1.423 0.398,-1.073 0.181,-0.756 -0.055,-0.272 0,0"
             style="fill:#ffffff;fill-opacity:1;fill-rule:nonzero;stroke:none"
             id="path5893" />
        </g>
        <g
           id="g5895"
           transform="translate(200.3755,462.079)">
          <path
             d="m 0,0 c 0.26,0.193 0.334,0.113 0.539,-0.162 l 0.18,0.14 -0.798,1.071 -0.184,-0.137 C -0.062,0.639 0,0.547 -0.263,0.351 l -0.761,-0.568 -0.998,1.328 c 0,0 0.597,0.442 0.752,0.559 0.351,0.26 0.509,0.084 0.706,-0.187 l 0.189,0.138 -0.607,0.815 -2.56,-1.915 0.138,-0.187 c 0.171,0.13 0.493,0.41 0.769,0.042 0.279,-0.373 2.134,-2.857 2.134,-2.857 0.32,-0.427 0.162,-0.498 -0.139,-0.722 L -0.488,-3.4 2.125,-1.45 1.461,-0.569 1.274,-0.707 C 1.565,-1.098 1.512,-1.349 1.244,-1.55 1.068,-1.683 0.423,-2.16 0.423,-2.16 l -1.184,1.583 -0.003,0.005 z"
             style="fill:#ffffff;fill-opacity:1;fill-rule:nonzero;stroke:none"
             id="path5897" />
        </g>
        <g
           id="g5899"
           transform="translate(234.3853,461.8061)">
          <path
             d="M 0,0 C 0.272,-0.181 0.217,-0.276 0.025,-0.556 L 0.217,-0.692 0.962,0.426 0.769,0.555 C 0.58,0.271 0.513,0.184 0.242,0.363 l -0.79,0.534 0.923,1.378 c 0,0 0.615,-0.413 0.778,-0.521 C 1.517,1.509 1.399,1.303 1.212,1.027 l 0.19,-0.13 0.565,0.841 -2.652,1.779 -0.129,-0.192 c 0.178,-0.121 0.546,-0.33 0.291,-0.714 -0.258,-0.382 -1.984,-2.963 -1.984,-2.963 -0.296,-0.442 -0.414,-0.315 -0.726,-0.107 l -0.141,-0.208 2.713,-1.814 0.61,0.914 -0.195,0.134 c -0.273,-0.405 -0.526,-0.439 -0.802,-0.255 -0.181,0.122 -0.849,0.572 -0.849,0.572 l 1.103,1.644 0.002,0.006 z"
             style="fill:#ffffff;fill-opacity:1;fill-rule:nonzero;stroke:none"
             id="path5901" />
        </g>
        <g
           id="g5903"
           transform="translate(203.1255,465.9379)">
          <path
             d="M 0,0 C -0.141,0.283 -0.008,0.364 0.342,0.543 L 0.234,0.751 -1.57,-0.175 -1.462,-0.38 c 0,0 0.456,0.324 0.648,-0.042 0.091,-0.181 1.751,-3.421 1.751,-3.421 0.148,-0.281 0.006,-0.368 -0.343,-0.547 l 0.108,-0.204 1.942,0.998 -0.103,0.204 C 2.25,-3.542 1.934,-3.756 1.762,-3.417 1.586,-3.084 0,0 0,0"
             style="fill:#ffffff;fill-opacity:1;fill-rule:nonzero;stroke:none"
             id="path5905" />
        </g>
        <g
           id="g5907"
           transform="translate(213.5742,467.1406)">
          <path
             d="m 0,0 -0.396,1.976 c -0.059,0.314 0.087,0.35 0.472,0.429 L 0.028,2.63 -1.699,2.283 -1.653,2.06 c 0,0 0.529,0.191 0.612,-0.214 l 0.418,-2.092 c 0.138,-0.671 0.214,-1.209 -0.044,-1.6 -0.235,-0.359 -0.62,-0.468 -0.77,-0.501 -0.23,-0.042 -0.501,-0.064 -0.813,0.103 -0.282,0.147 -0.577,0.428 -0.775,1.421 l -0.441,2.184 c -0.06,0.309 0.088,0.35 0.479,0.43 L -3.038,2.017 -5.025,1.619 -4.982,1.394 c 0,0 0.534,0.186 0.616,-0.215 l 0.447,-2.221 c 0.159,-0.812 0.452,-1.315 0.916,-1.594 0.588,-0.35 1.244,-0.217 1.524,-0.163 0.373,0.076 0.853,0.227 1.249,0.738 C 0.22,-1.487 0.146,-0.732 0,0"
             style="fill:#ffffff;fill-opacity:1;fill-rule:nonzero;stroke:none"
             id="path5909" />
        </g>
        <g
           id="g5911"
           transform="translate(225.0879,468.3608)">
          <path
             d="M 0,0 C 0.075,0.314 0.227,0.289 0.608,0.2 L 0.661,0.425 -1.315,0.884 -1.363,0.659 c 0,0 0.556,-0.046 0.466,-0.45 C -0.943,0.01 -1.764,-3.537 -1.764,-3.537 -1.835,-3.846 -1.997,-3.817 -2.38,-3.73 l -0.054,-0.226 2.13,-0.492 0.054,0.22 c -0.322,0.073 -0.698,0.117 -0.614,0.482 C -0.776,-3.378 0,0 0,0"
             style="fill:#ffffff;fill-opacity:1;fill-rule:nonzero;stroke:none"
             id="path5913" />
        </g>
        <g
           id="g5915"
           transform="translate(245.7607,451.2167)">
          <path
             d="m 0,0 c 0.287,0.141 0.363,0.01 0.536,-0.342 l 0.207,0.1 -0.89,1.821 -0.208,-0.103 c 0,0 0.322,-0.462 -0.054,-0.645 -0.18,-0.091 -3.446,-1.699 -3.446,-1.699 -0.289,-0.138 -0.368,0.005 -0.542,0.36 l -0.209,-0.105 0.963,-1.96 0.204,0.099 C -3.583,-2.18 -3.789,-1.862 -3.45,-1.695 -3.112,-1.527 0,0 0,0"
             style="fill:#ffffff;fill-opacity:1;fill-rule:nonzero;stroke:none"
             id="path5917" />
        </g>
        <g
           id="g5919"
           transform="translate(247.418,448.8754)">
          <path
             d="m 0,0 -1.014,-0.146 0.074,-0.255 c 0.335,0.051 0.577,0.07 0.702,-0.352 0.024,-0.079 0.07,-0.233 0.279,-0.938 -0.567,-0.165 -3.808,-1.123 -3.808,-1.123 -0.306,-0.092 -0.359,0.066 -0.469,0.441 l -0.225,-0.063 0.621,-2.1 0.219,0.062 c -0.092,0.317 -0.246,0.669 0.116,0.774 0.336,0.099 3.313,0.981 3.806,1.126 C 0.51,-3.276 0.556,-3.433 0.58,-3.505 0.702,-3.93 0.49,-4.047 0.179,-4.185 l 0.079,-0.255 0.929,0.423 z"
             style="fill:#ffffff;fill-opacity:1;fill-rule:nonzero;stroke:none"
             id="path5921" />
        </g>
        <g
           id="g5923"
           transform="translate(240.4702,459.5742)">
          <path
             d="M 0,0 C -0.087,0.439 -0.384,0.781 -0.664,1.061 L -2.025,2.407 -2.184,2.239 c 0,0 0.454,-0.331 0.163,-0.627 -0.144,-0.146 -2.707,-2.731 -2.707,-2.731 -0.223,-0.226 -0.346,-0.117 -0.627,0.159 l -0.16,-0.168 1.555,-1.533 0.158,0.156 c -0.233,0.233 -0.534,0.467 -0.266,0.735 l 1.024,1.038 0.417,-0.412 -0.185,-1.111 C -2.907,-2.89 -2.94,-3.271 -2.845,-3.57 c 0.059,-0.194 0.16,-0.339 0.414,-0.595 l 0.471,-0.459 0.147,0.15 -0.109,0.135 c -0.059,0.086 -0.2,0.297 -0.195,0.789 0.011,0.476 0.076,1.073 0.157,1.832 l 0.038,0.309 c 0.744,-0.066 1.233,0.065 1.608,0.444 C 0.025,-0.623 0.038,-0.184 0,0 m -1.152,-0.594 c -0.403,-0.409 -0.744,-0.429 -0.907,-0.404 -0.127,0.017 -0.196,0.055 -0.372,0.229 l -0.326,0.322 1.508,1.528 0.22,-0.22 c 0.244,-0.243 0.506,-0.819 -0.123,-1.455"
             style="fill:#ffffff;fill-opacity:1;fill-rule:nonzero;stroke:none"
             id="path5925" />
        </g>
        <g
           id="g5927"
           transform="translate(188.7187,441.1152)">
          <path
             d="m 0,0 c -0.208,0.018 -0.397,0.037 -0.61,0.143 -0.253,0.138 -1.665,1.161 -1.905,1.399 -0.158,0.15 -0.22,0.222 -0.271,0.347 l -0.046,0.263 0.016,0.179 -0.228,0.024 -0.155,-1.627 0.239,-0.023 0.016,0.168 0.112,0.076 0.3,-0.114 1.572,-1.057 c 0,0 -1.743,-0.81 -1.905,-0.865 l -0.197,-0.052 -0.053,0.049 -0.008,0.036 0.008,0.144 -0.227,0.027 -0.166,-1.84 0.226,-0.02 c 0,0 0.013,0.254 0.116,0.404 0.081,0.117 0.26,0.255 0.485,0.381 0.36,0.196 1.836,0.918 1.933,0.95 0.197,0.065 0.331,0.111 0.661,0.084 0,0 0.662,-0.062 1.076,-0.103 C 1.403,-1.062 1.39,-1.29 1.363,-1.604 L 1.579,-1.624 1.775,0.542 1.566,0.56 C 1.533,0.2 1.533,-0.143 1.057,-0.1 0.582,-0.054 0,0 0,0"
             style="fill:#ffffff;fill-opacity:1;fill-rule:nonzero;stroke:none"
             id="path5929" />
        </g>
        <g
           id="g5931"
           transform="translate(245.96,440.1039)">
          <path
             d="M 0,0 C 0.2,0.021 0.393,0.042 0.621,-0.033 0.894,-0.116 2.48,-0.855 2.756,-1.041 2.939,-1.165 3.016,-1.22 3.087,-1.337 L 3.182,-1.588 3.2,-1.764 3.429,-1.738 3.271,-0.116 3.032,-0.138 3.052,-0.304 2.957,-0.401 C 2.875,-0.41 2.77,-0.393 2.639,-0.352 L 0.894,0.396 c 0,0 1.562,1.124 1.711,1.208 L 2.789,1.692 2.853,1.654 2.862,1.625 2.886,1.471 3.111,1.496 2.929,3.33 2.702,3.308 c 0,0 0.033,-0.254 -0.041,-0.42 C 2.607,2.757 2.456,2.589 2.256,2.423 1.941,2.165 0.627,1.178 0.542,1.127 0.363,1.027 0.238,0.956 -0.092,0.922 c 0,0 -0.661,-0.065 -1.073,-0.104 -0.413,-0.045 -0.447,0.183 -0.477,0.499 l -0.217,-0.022 0.214,-2.163 0.208,0.023 c -0.037,0.362 -0.1,0.698 0.377,0.738 C -0.588,-0.059 0,0 0,0"
             style="fill:#ffffff;fill-opacity:1;fill-rule:nonzero;stroke:none"
             id="path5933" />
        </g>
        <g
           id="g5935"
           transform="translate(195.3682,453.8466)">
          <path
             d="m 0,0 -0.171,-0.283 -4.767,-1.073 2.328,-1.439 c 0.493,-0.305 0.659,0.081 0.83,0.355 l 0.2,-0.124 -0.963,-1.559 -0.202,0.122 c 0.151,0.247 0.334,0.483 -0.133,0.772 -0.469,0.288 -3.583,2.213 -3.583,2.213 l 0.162,0.264 c 0.814,0.177 4.706,1.031 4.831,1.058 0,0 -1.984,1.228 -2.416,1.494 -0.428,0.263 -0.618,-0.087 -0.751,-0.3 l -0.197,0.122 0.892,1.44 0.198,-0.125 C -3.881,2.707 -4.044,2.498 -3.617,2.231 -3.187,1.968 0,0 0,0"
             style="fill:#ffffff;fill-opacity:1;fill-rule:nonzero;stroke:none"
             id="path5937" />
        </g>
        <g
           id="g5939"
           transform="translate(220.4761,464.7372)">
          <path
             d="M 0,0 -0.33,0.021 -3.526,3.713 -3.692,0.981 C -3.729,0.404 -3.315,0.435 -2.987,0.418 l -0.016,-0.234 -1.833,0.108 0.011,0.239 c 0.293,-0.021 0.586,-0.068 0.619,0.48 0.034,0.555 0.256,4.203 0.256,4.203 l 0.304,-0.021 c 0.543,-0.627 3.138,-3.652 3.223,-3.753 0,0 0.143,2.329 0.17,2.834 0.031,0.504 -0.368,0.506 -0.615,0.521 L -0.857,5.025 0.835,4.924 0.818,4.686 C 0.548,4.704 0.289,4.746 0.255,4.244 0.23,3.742 0,0 0,0"
             style="fill:#ffffff;fill-opacity:1;fill-rule:nonzero;stroke:none"
             id="path5941" />
        </g>
        <g
           id="g5943"
           transform="translate(232.3066,465.976)">
          <path
             d="M 0,0 0.055,0.229 -1.423,0.878 -1.517,0.661 -1.344,0.588 -1.253,0.459 -1.437,0.176 -2.816,-1.211 -3.705,-2.094 c 0.005,0.127 0.089,1.902 0.13,2.674 l 0.036,0.678 0.046,0.178 0.159,0.017 0.172,-0.078 0.092,0.217 -1.721,0.752 -0.092,-0.206 c 0,0 0.238,-0.098 0.327,-0.23 0.066,-0.105 0.1,-0.303 0.09,-0.533 l -0.075,-4.616 0.196,-0.087 2.619,2.416 0.941,0.853 c 0,0 0.313,0.271 0.623,0.13 z"
             style="fill:#ffffff;fill-opacity:1;fill-rule:nonzero;stroke:none"
             id="path5945" />
        </g>
        <g
           id="g5947"
           transform="translate(218.9292,411.0253)">
          <path
             d="M 0,0 V -1.517 H -0.401 V 0 H -1.43 v -0.122 c 0.102,0 0.199,-0.178 0.199,-0.363 v -3.271 h -2.127 v 2.929 h 1.412 v 0.686 H -4.449 V -0.26 c 0.103,0 0.205,-0.171 0.205,-0.363 v -3.825 h 3.013 v -1.095 h 0.83 v 3.337 H 0 v -3.337 h 0.889 l 0,5.543 z"
             style="fill:#ffffff;fill-opacity:1;fill-rule:nonzero;stroke:none"
             id="path5949" />
        </g>
        <g
           id="g5951"
           transform="translate(242.8931,419.3876)">
          <path
             d="m 0,0 c -0.71,0.593 -3.371,2.802 -3.409,2.832 h -0.004 l -2.785,-3.354 0.53,-0.443 2.221,2.677 c 0,0 2.237,-1.858 2.875,-2.392 -0.239,-0.296 -0.429,-0.527 -0.429,-0.527 l -1.501,1.245 -0.544,-0.652 1.501,-1.244 -0.291,-0.351 -1.504,1.244 -0.631,-0.761 0.098,-0.077 c 0.067,0.079 0.265,0.041 0.406,-0.076 l 1.128,-0.935 -0.635,-0.765 0.534,-0.442 3.318,3.998 -0.536,0.445 C 0.332,0.401 0.192,0.227 0,0"
             style="fill:#ffffff;fill-opacity:1;fill-rule:nonzero;stroke:none"
             id="path5953" />
        </g>
        <g
           id="g5955"
           transform="translate(206.8179,413.1142)">
          <path
             d="m 0,0 -2.315,-5.041 0.808,-0.369 2.318,5.037 H 0.807 Z"
             style="fill:#ffffff;fill-opacity:1;fill-rule:nonzero;stroke:none"
             id="path5957" />
        </g>
        <g
           id="g5959"
           transform="translate(205.5869,413.6786)">
          <path
             d="m 0,0 -0.051,-0.113 h 0.005 c 0.092,-0.042 0.108,-0.242 0.029,-0.413 l -0.43,-0.936 -0.845,0.389 -0.288,-0.631 0.845,-0.385 -1.396,-3.033 0.711,-0.33 2.322,5.038 L 0.899,-0.411 0,0"
             style="fill:#ffffff;fill-opacity:1;fill-rule:nonzero;stroke:none"
             id="path5961" />
        </g>
        <g
           id="g5963"
           transform="translate(203.271,412.1288)">
          <path
             d="m 0,0 -0.025,0.054 0.017,0.017 C 0.613,0.538 1.07,1.113 1.396,1.82 L 0.225,2.359 0.179,2.25 C 0.188,2.238 0.406,2.07 0.217,1.662 V 1.659 C 0.205,1.634 -0.421,0.268 -2.301,-0.348 l 0.209,-0.53 h 0.003 c 0.008,0 0.631,0.075 1.479,0.556 l 0.025,0.015 0.018,-0.028 c 0.125,-0.26 0.317,-0.654 0.501,-1.667 l 0.725,0.41 C 0.56,-1.167 0.327,-0.603 0,0"
             style="fill:#ffffff;fill-opacity:1;fill-rule:nonzero;stroke:none"
             id="path5965" />
        </g>
        <g
           id="g5967"
           transform="translate(228.7852,408.7783)">
          <path
             d="M 0,0 3.35,1.605 3.86,0.529 4.667,0.914 3.851,2.618 -0.304,0.623 Z"
             style="fill:#ffffff;fill-opacity:1;fill-rule:nonzero;stroke:none"
             id="path5969" />
        </g>
        <g
           id="g5971"
           transform="translate(231.0527,414.6894)">
          <path
             d="m 0,0 -0.982,-0.472 0.05,-0.109 c 0.097,0.046 0.26,-0.073 0.339,-0.241 l 1.17,-2.431 0.8,0.385 L 0.939,-1.959 1.726,-1.58 1.458,-1.016 0.673,-1.396 0,0"
             style="fill:#ffffff;fill-opacity:1;fill-rule:nonzero;stroke:none"
             id="path5973" />
        </g>
        <g
           id="g5975"
           transform="translate(227.4062,410.8671)">
          <path
             d="m 0,0 c 0.334,-0.692 1.241,-0.949 2.027,-0.575 0.787,0.378 1.152,1.248 0.821,1.944 -0.166,0.349 -0.487,0.589 -0.861,0.69 0.345,0.163 0.582,0.28 0.595,0.29 L 2.285,2.973 1.162,2.431 0.96,2.854 -0.023,2.382 0.03,2.269 v 0.003 c 0.083,0.037 0.22,-0.05 0.308,-0.2 L 0.358,2.046 -0.84,1.469 -0.542,0.848 C -0.522,0.853 -0.309,0.957 0,1.105 -0.155,0.753 -0.166,0.352 0,0 M 1.772,-0.043 C 1.387,-0.227 0.916,-0.054 0.723,0.347 0.531,0.751 0.687,1.225 1.075,1.412 1.461,1.599 1.93,1.42 2.125,1.019 2.315,0.621 2.159,0.141 1.772,-0.043"
             style="fill:#ffffff;fill-opacity:1;fill-rule:nonzero;stroke:none"
             id="path5977" />
        </g>
        <g
           id="g5979"
           transform="translate(193.3379,419.0048)">
          <path
             d="M 0,0 V 0 L -0.719,0.819 -0.81,0.74 c 0.067,-0.079 0,-0.267 -0.137,-0.389 L -1.941,-0.514 0.848,-3.715 1.371,-3.261 -0.835,-0.73 0,0"
             style="fill:#ffffff;fill-opacity:1;fill-rule:nonzero;stroke:none"
             id="path5981" />
        </g>
        <g
           id="g5983"
           transform="translate(195.0234,418.8085)">
          <path
             d="M 0,0 C 0.255,-0.292 0.748,-0.86 0.748,-0.86 L -0.334,-1.81 0.247,-2.478 3.263,0.155 2.545,0.978 2.453,0.896 c 0.07,-0.077 0,-0.269 -0.14,-0.391 L 2.158,0.364 c 0,0 -0.675,0.767 -0.825,0.943 C 1.379,1.754 1.236,2.231 0.906,2.614 0.299,3.304 -0.707,3.417 -1.345,2.86 -1.981,2.306 -2.013,1.29 -1.404,0.601 -1.032,0.168 -0.498,-0.041 0,0 M 1.634,-0.089 1.271,-0.404 c 0,0 -0.309,0.353 -0.564,0.646 L 0.843,0.35 1.054,0.576 c 0.249,-0.291 0.58,-0.665 0.58,-0.665 M -0.792,2.229 C -0.421,2.548 0.121,2.535 0.421,2.191 0.719,1.849 0.664,1.307 0.292,0.982 -0.079,0.664 -0.626,0.677 -0.922,1.019 c -0.298,0.343 -0.24,0.882 0.13,1.21"
             style="fill:#ffffff;fill-opacity:1;fill-rule:nonzero;stroke:none"
             id="path5985" />
        </g>
        <g
           id="g5987"
           transform="translate(217.3101,449.8764)">
          <path
             d="m 0,0 c -2.022,0 -3.664,-1.639 -3.664,-3.663 0,-2.022 1.642,-3.663 3.664,-3.663 2.022,0 3.667,1.641 3.667,3.663 C 3.667,-1.639 2.022,0 0,0"
             style="fill:#15366f;fill-opacity:1;fill-rule:nonzero;stroke:none"
             id="path5989" />
        </g>
        <g
           id="g5991"
           transform="translate(208.46,419.9213)">
          <path
             d="m 0,0 c 2.301,-1.997 5.193,-3.898 8.855,-5.587 3.663,1.689 6.558,3.59 8.854,5.59 l -8.854,8.87 z"
             style="fill:#15366f;fill-opacity:1;fill-rule:nonzero;stroke:none"
             id="path5993" />
        </g>
        <g
           id="g5995"
           transform="translate(235.335,441.0361)">
          <path
             d="m 0,0 v 12.231 c 0,0 -10.429,-0.335 -18.02,5.503 -7.592,-5.838 -18.018,-5.503 -18.018,-5.503 V 0 c 0,0 -0.071,-2.624 0.389,-5.496 5.701,1.048 11.595,1.602 17.629,1.602 6.037,0 11.925,-0.554 17.632,-1.602 C 0.07,-2.624 0,0 0,0 m -18.02,-1.975 c -3.958,0 -7.164,3.204 -7.164,7.156 0,3.947 3.206,7.153 7.164,7.153 3.957,0 7.163,-3.206 7.163,-7.153 0,-3.952 -3.206,-7.156 -7.163,-7.156"
             style="fill:#15366f;fill-opacity:1;fill-rule:nonzero;stroke:none"
             id="path5997" />
        </g>
        <g
           id="g5999"
           transform="translate(199.8696,434.5146)">
          <path
             d="M 0,0 C 0.08,-0.377 0.167,-0.761 0.267,-1.136 1.111,-4.366 2.62,-8.092 5.71,-11.695 L 17.446,0.063 29.181,-11.695 c 3.087,3.603 4.599,7.329 5.446,10.559 0.1,0.375 0.187,0.759 0.264,1.136 C 29.246,1.04 23.411,1.586 17.446,1.586 11.478,1.586 5.648,1.04 0,0"
             style="fill:#15366f;fill-opacity:1;fill-rule:nonzero;stroke:none"
             id="path6001" />
        </g>
        <g
           id="g6003"
           transform="translate(205.0815,443.352)">
          <path
             d="M 0,0 H 1.686 L 1.788,0.105 V 3.563 L 1.686,3.669 H 0.318 C 0.084,3.669 -0.108,3.48 -0.108,3.246 V 0.105 L 0,0"
             style="fill:#ffffff;fill-opacity:1;fill-rule:nonzero;stroke:none"
             id="path6005" />
        </g>
        <g
           id="g6007"
           transform="translate(202.7451,443.352)">
          <path
             d="m 0,0 h 1.686 l 0.105,0.105 v 3.141 c 0,0.234 -0.19,0.423 -0.422,0.423 H 0 L -0.102,3.563 V 0.105 L 0,0"
             style="fill:#ffffff;fill-opacity:1;fill-rule:nonzero;stroke:none"
             id="path6009" />
        </g>
        <g
           id="g6011"
           transform="translate(207.6553,446.4213)">
          <path
             d="m 0,0 h -0.355 v -3.434 h -2.131 l -0.003,-0.038 c -0.018,-0.211 -0.197,-0.374 -0.409,-0.374 -0.209,0 -0.39,0.163 -0.409,0.374 l -0.005,0.038 h -2.13 V 0 h -0.355 l -0.109,-0.104 v -3.644 l 0.109,-0.106 h 2.135 c 0.149,-0.268 0.434,-0.452 0.764,-0.452 0.326,0 0.615,0.184 0.76,0.452 H 0 l 0.108,0.106 v 3.644 L 0,0"
             style="fill:#ffffff;fill-opacity:1;fill-rule:nonzero;stroke:none"
             id="path6013" />
        </g>
        <g
           id="g6015"
           transform="translate(230.3887,443.7299)">
          <path
             d="m 0,0 h -1.391 l -0.121,-0.122 0.455,-2.909 c 0.017,-0.118 0.114,-0.214 0.243,-0.214 h 0.237 l 0.24,0.214 0.455,2.909 L 0,0"
             style="fill:#ffffff;fill-opacity:1;fill-rule:nonzero;stroke:none"
             id="path6017" />
        </g>
        <g
           id="g6019"
           transform="translate(230.5879,445.0068)">
          <path
             d="M 0,0 C 0.36,0.314 1.195,1.228 1.103,1.742 1.011,2.301 -0.543,3.1 -0.634,3.708 -0.686,3.981 -0.577,4.359 -0.429,4.654 L -0.523,4.675 C -0.554,4.653 -1.821,3.705 -1.83,3.049 -1.833,2.789 -1.653,2.502 -1.34,2.247 -1.085,2.035 -0.752,1.846 -0.498,1.591 -0.378,1.471 -0.272,1.366 -0.209,1.177 -0.084,0.827 -0.442,0.266 -0.664,0 h -0.502 c 0.206,0.246 0.426,0.572 0.51,0.894 0.206,0.784 -1.751,0.981 -1.458,2.163 L -2.196,3.082 C -2.217,3.07 -2.973,2.334 -2.974,1.824 -2.982,1.383 -2.083,0.973 -1.662,0.375 L -1.666,0 h -0.795 c 0,0 -0.19,0.024 -0.111,-0.159 l 0.216,-0.673 c 0,0 0.035,-0.09 0.168,-0.09 h 2.572 c 0.135,0 0.171,0.09 0.171,0.09 L 0.781,-0.15 C 0.838,0.013 0.656,0 0.656,0 Z"
             style="fill:#ffffff;fill-opacity:1;fill-rule:nonzero;stroke:none"
             id="path6021" />
        </g>
        <g
           id="g6023"
           transform="translate(213.8193,421.8954)">
          <path
             d="m 0,0 c -0.13,-0.092 -0.789,-0.529 -0.812,-0.542 l -0.058,-0.092 0.073,-0.086 0.065,0.018 0.109,0.048 0.276,0.112 0.01,-0.073 v -0.463 -0.564 l -0.01,-0.789 -0.103,-0.142 -0.269,-0.021 -0.078,-0.091 0.108,-0.077 0.429,0.004 h 0.173 0.15 l 0.439,-0.004 0.106,0.077 -0.079,0.091 -0.223,0.021 -0.097,0.142 -0.017,0.789 v 0.653 l 0.017,0.872 v 0.051 l -0.087,0.12 z"
             style="fill:#ffffff;fill-opacity:1;fill-rule:nonzero;stroke:none"
             id="path6025" />
        </g>
        <g
           id="g6027"
           transform="translate(215.3667,419.8476)">
          <path
             d="M 0,0 C 0,0.342 0.222,0.534 0.368,0.626 0.661,0.452 0.915,0.296 0.915,-0.018 0.915,-0.306 0.732,-0.501 0.463,-0.501 0.205,-0.501 0,-0.285 0,0 m -0.363,1.415 c 0,-0.333 0.247,-0.526 0.465,-0.65 C -0.275,0.593 -0.5,0.306 -0.5,-0.018 c 0,-0.465 0.37,-0.746 0.937,-0.746 0.653,0 0.993,0.413 0.993,0.83 0,0.427 -0.343,0.652 -0.587,0.791 0.158,0.075 0.465,0.274 0.465,0.652 0,0.366 -0.309,0.592 -0.774,0.592 -0.659,0 -0.897,-0.41 -0.897,-0.686 m 0.472,0.071 c 0,0.172 0.097,0.369 0.379,0.369 0.165,0 0.339,-0.118 0.339,-0.38 C 0.827,1.206 0.672,1.062 0.534,1.001 0.22,1.179 0.109,1.304 0.109,1.486"
             style="fill:#ffffff;fill-opacity:1;fill-rule:nonzero;stroke:none"
             id="path6029" />
        </g>
        <g
           id="g6031"
           transform="translate(217.8154,419.8476)">
          <path
             d="M 0,0 C 0,0.342 0.22,0.534 0.363,0.626 0.661,0.452 0.91,0.296 0.91,-0.018 0.91,-0.306 0.728,-0.501 0.463,-0.501 0.208,-0.501 0,-0.285 0,0 m -0.364,1.415 c 0,-0.333 0.243,-0.526 0.461,-0.65 -0.376,-0.172 -0.602,-0.459 -0.602,-0.783 0,-0.465 0.372,-0.746 0.944,-0.746 0.646,0 0.986,0.413 0.986,0.83 0,0.427 -0.344,0.652 -0.587,0.791 0.165,0.075 0.461,0.274 0.461,0.652 0,0.366 -0.305,0.592 -0.773,0.592 -0.654,0 -0.89,-0.41 -0.89,-0.686 m 0.467,0.071 c 0,0.172 0.105,0.369 0.382,0.369 0.17,0 0.334,-0.118 0.334,-0.38 0,-0.269 -0.15,-0.413 -0.29,-0.474 C 0.22,1.179 0.103,1.304 0.103,1.486"
             style="fill:#ffffff;fill-opacity:1;fill-rule:nonzero;stroke:none"
             id="path6033" />
        </g>
        <g
           id="g6035"
           transform="translate(221.2144,421.9081)">
          <path
             d="m 0,0 -0.227,-0.018 h -0.868 l -0.113,-0.086 -0.087,-0.936 0.109,-0.127 c 0.241,-0.031 0.852,-0.232 0.852,-0.789 0,-0.439 -0.287,-0.596 -0.535,-0.596 -0.291,0 -0.43,0.142 -0.43,0.422 l -0.08,0.109 -0.092,-0.101 -0.011,-0.404 v -0.047 l 0.09,-0.188 h 0.005 c 0.088,-0.038 0.225,-0.063 0.355,-0.063 0.832,0 1.213,0.541 1.213,1.044 0,0.602 -0.595,0.92 -1.167,1.024 l 0.041,0.345 h 0.599 c 0.254,0 0.254,-0.077 0.254,-0.145 l 0.084,-0.095 0.084,0.076 0.049,0.462 -0.083,0.121 z"
             style="fill:#ffffff;fill-opacity:1;fill-rule:nonzero;stroke:none"
             id="path6037" />
        </g>
        <g
           id="g6039"
           transform="translate(205.5796,422.8198)">
          <path
             d="m 0,0 c 0.835,-0.978 1.792,-1.948 2.881,-2.898 l 8.855,8.874 8.852,-8.872 c 1.091,0.948 2.046,1.918 2.883,2.896 L 11.736,11.758 Z"
             style="fill:#ffffff;fill-opacity:1;fill-rule:nonzero;stroke:none"
             id="path6041" />
        </g>
        <g
           id="g6043"
           transform="translate(217.3149,437.142)">
          <path
             d="m 0,0 c -6.034,0 -11.926,-0.555 -17.629,-1.601 0.053,-0.337 0.115,-0.679 0.183,-1.026 5.65,1.039 11.478,1.586 17.446,1.586 5.965,0 11.8,-0.547 17.446,-1.586 0.068,0.347 0.13,0.689 0.185,1.026 C 11.925,-0.555 6.036,0 0,0"
             style="fill:#ffffff;fill-opacity:1;fill-rule:nonzero;stroke:none"
             id="path6045" />
        </g>
        <g
           id="g6047"
           transform="translate(224.478,446.2172)">
          <path
             d="m 0,0 c 0,3.947 -3.205,7.152 -7.163,7.152 -3.957,0 -7.165,-3.205 -7.165,-7.152 0,-3.952 3.208,-7.155 7.165,-7.155 C -3.205,-7.155 0,-3.952 0,0 m -7.168,-3.667 c -2.022,0 -3.664,1.642 -3.664,3.664 0,2.024 1.642,3.662 3.664,3.662 2.022,0 3.667,-1.638 3.667,-3.662 0,-2.022 -1.645,-3.664 -3.667,-3.664"
             style="fill:#ffffff;fill-opacity:1;fill-rule:nonzero;stroke:none"
             id="path6049" />
        </g>
      </g>
    </g>
  </g>
</svg>
