<?xml version="1.0" encoding="UTF-8" standalone="no"?>
<!-- Created with Inkscape (http://www.inkscape.org/) -->

<svg
   version="1.1"
   id="svg12404"
   width="559.37335"
   height="793.70667"
   viewBox="0 0 559.37335 793.70667"
   sodipodi:docname="영산대학교.svg"
   inkscape:version="1.2.1 (9c6d41e410, 2022-07-14)"
   xmlns:inkscape="http://www.inkscape.org/namespaces/inkscape"
   xmlns:sodipodi="http://sodipodi.sourceforge.net/DTD/sodipodi-0.dtd"
   xmlns="http://www.w3.org/2000/svg"
   xmlns:svg="http://www.w3.org/2000/svg">
  <defs
     id="defs12408">
    <clipPath
       clipPathUnits="userSpaceOnUse"
       id="clipPath12420">
      <path
         d="M 0,595.28 H 419.53 V 0 H 0 Z"
         id="path12418" />
    </clipPath>
  </defs>
  <sodipodi:namedview
     id="namedview12406"
     pagecolor="#ffffff"
     bordercolor="#000000"
     borderopacity="0.25"
     inkscape:showpageshadow="2"
     inkscape:pageopacity="0.0"
     inkscape:pagecheckerboard="true"
     inkscape:deskcolor="#d1d1d1"
     showgrid="false"
     inkscape:zoom="9.5148502"
     inkscape:cx="387.49953"
     inkscape:cy="591.70664"
     inkscape:window-width="2560"
     inkscape:window-height="1494"
     inkscape:window-x="-11"
     inkscape:window-y="-11"
     inkscape:window-maximized="1"
     inkscape:current-layer="g12416">
    <inkscape:page
       x="0"
       y="0"
       id="page12410"
       width="559.37335"
       height="793.70667" />
  </sodipodi:namedview>
  <g
     id="g12412"
     inkscape:groupmode="layer"
     inkscape:label="Page 1"
     transform="matrix(1.3333333,0,0,-1.3333333,0,793.70667)">
    <g
       id="g12414">
      <g
         id="g12416"
         clip-path="url(#clipPath12420)">
        <g
           id="g12422"
           transform="translate(73.7754,100.3418)">
          <path
             d="M 0,0 C -0.925,0.735 -2.348,1.24 -4.368,1.772 -4.992,1.963 -5.343,2.1 -5.53,2.234 -5.714,2.37 -5.744,2.49 -5.747,2.703 c 0.003,0.211 0.054,0.338 0.215,0.432 0.165,0.094 0.458,0.143 0.933,0.143 1.242,0 2.654,-0.38 4.531,-1.196 L -0.012,2.059 1.109,5.953 1.062,5.971 c -1.911,0.681 -3.366,1.038 -5.525,1.038 -1.957,0 -3.429,-0.438 -4.413,-1.252 -0.985,-0.816 -1.476,-2.007 -1.474,-3.491 -0.002,-1.492 0.388,-2.485 1.334,-3.237 0.947,-0.752 2.439,-1.269 4.648,-1.856 0.462,-0.123 0.743,-0.232 0.9,-0.361 0.157,-0.125 0.204,-0.265 0.206,-0.49 -0.002,-0.202 -0.075,-0.34 -0.269,-0.443 -0.194,-0.102 -0.514,-0.157 -0.987,-0.157 -1.242,0 -3.202,0.489 -4.913,1.25 l -0.054,0.023 -1.178,-3.809 0.046,-0.022 c 1.832,-0.709 3.884,-1.176 5.991,-1.176 1.833,0.002 3.324,0.385 4.36,1.19 1.037,0.804 1.609,2.029 1.608,3.691 C 1.343,-1.705 0.926,-0.732 0,0"
             style="fill:#595757;fill-opacity:1;fill-rule:nonzero;stroke:none"
             id="path12424" />
        </g>
        <g
           id="g12426"
           transform="translate(86.5337,92.3301)">
          <path
             d="m 0,0 c -4.798,0 -8.316,2.389 -8.316,8.41 v 10.879 h 5.4 V 8.41 c 0,-2.332 0.925,-3.769 2.999,-3.769 2.071,0 2.942,1.437 2.942,3.769 v 10.879 h 5.4 V 8.41 C 8.425,2.389 4.799,0 0,0"
             style="fill:#ea5505;fill-opacity:1;fill-rule:nonzero;stroke:none"
             id="path12428" />
        </g>
        <g
           id="g12430"
           transform="translate(65.6558,103.3037)">
          <path
             d="m 0,0 -3.503,-0.705 c 3.697,6.21 0.346,11.004 0.346,11.004 l 4.386,1.089 C 4.883,5.828 0,0 0,0"
             style="fill:#ea5505;fill-opacity:1;fill-rule:nonzero;stroke:none"
             id="path12432" />
        </g>
        <g
           id="g12434"
           transform="translate(59.6772,111.8223)">
          <path
             d="m 0,0 -1.589,-2.919 c -0.964,-1.903 -1.756,-3.656 -2.134,-4.79 -0.379,1.134 -1.17,2.887 -2.134,4.79 L -7.446,0 h -6.233 l 7.204,-12.119 v -7.072 h 5.449 v 7.155 L 6.178,0 Z"
             style="fill:#595757;fill-opacity:1;fill-rule:nonzero;stroke:none"
             id="path12436" />
        </g>
        <g
           id="g12438"
           transform="translate(106.123,105.9473)">
          <path
             d="m 0,0 v -3.725 h -1.882 v 3.686 l -3.564,5.727 h 2.165 L -1.95,3.455 c 0.336,-0.562 0.847,-1.491 1.021,-1.842 0.176,0.351 0.674,1.25 1.023,1.842 l 1.331,2.233 h 2.137 z"
             style="fill:#595757;fill-opacity:1;fill-rule:nonzero;stroke:none"
             id="path12440" />
        </g>
        <g
           id="g12442"
           transform="translate(111.6748,107.6426)">
          <path
             d="m 0,0 c -0.888,0 -1.304,-0.806 -1.304,-1.896 0,-1.09 0.416,-1.882 1.304,-1.882 0.887,0 1.318,0.899 1.318,1.882 C 1.318,-0.821 0.887,0 0,0 m 0,-5.566 c -1.842,0 -3.187,1.504 -3.187,3.67 0,2.165 1.345,3.685 3.187,3.685 1.842,0 3.2,-1.52 3.2,-3.685 0,-2.166 -1.358,-3.67 -3.2,-3.67"
             style="fill:#595757;fill-opacity:1;fill-rule:nonzero;stroke:none"
             id="path12444" />
        </g>
        <g
           id="g12446"
           transform="translate(120.3062,102.2227)">
          <path
             d="m 0,0 v 0.473 c -0.323,-0.336 -0.914,-0.619 -1.653,-0.619 -1.802,0 -2.609,1.236 -2.609,3.225 v 3.982 h 1.856 V 3.24 c 0,-1.261 0.429,-1.638 1.197,-1.638 C -0.443,1.602 0,1.979 0,3.201 v 3.86 H 1.855 V 0 Z"
             style="fill:#595757;fill-opacity:1;fill-rule:nonzero;stroke:none"
             id="path12448" />
        </g>
        <g
           id="g12450"
           transform="translate(128.0239,102.2227)">
          <path
             d="m 0,0 v 3.82 c 0,1.263 -0.43,1.639 -1.196,1.639 -0.767,0 -1.21,-0.376 -1.21,-1.6 V 0 h -1.856 v 7.061 h 1.856 V 6.588 c 0.323,0.337 0.914,0.621 1.654,0.621 1.801,0 2.607,-1.238 2.607,-3.229 l 0,-3.98 z"
             style="fill:#595757;fill-opacity:1;fill-rule:nonzero;stroke:none"
             id="path12452" />
        </g>
        <g
           id="g12454"
           transform="translate(135.2847,107.0762)">
          <path
             d="m 0,0 c -0.283,0.391 -0.713,0.605 -1.25,0.605 -0.713,0 -1.104,-0.617 -1.104,-1.8 0,-1.453 0.485,-2.057 1.211,-2.057 0.578,0 0.873,0.241 1.143,0.592 z m -1.183,-7.447 -0.659,1.398 C -0.39,-5.848 0,-5.498 0,-4.409 -0.35,-4.717 -0.82,-5 -1.493,-5 c -1.506,0 -2.742,1.128 -2.742,3.764 0,2.111 0.994,3.591 2.742,3.591 0.619,0 1.157,-0.244 1.493,-0.551 v 0.403 h 1.855 v -5.863 c 0,-2.326 -0.564,-3.524 -3.038,-3.791"
             style="fill:#595757;fill-opacity:1;fill-rule:nonzero;stroke:none"
             id="path12456" />
        </g>
        <g
           id="g12458"
           transform="translate(141.4688,102.0762)">
          <path
             d="m 0,0 c -1.115,0 -2.205,0.322 -2.958,0.82 l 0.619,1.412 c 0.752,-0.418 1.546,-0.646 2.447,-0.646 0.726,0 0.941,0.174 0.941,0.539 0,0.322 -0.256,0.482 -1.036,0.713 -1.694,0.51 -2.783,0.926 -2.783,2.418 0,1.467 1.17,2.099 2.824,2.099 0.887,0 1.855,-0.269 2.609,-0.687 L 2.071,5.203 C 1.372,5.58 0.605,5.768 0.013,5.768 -0.739,5.768 -0.94,5.62 -0.94,5.311 -0.94,5.015 -0.726,4.893 0.524,4.49 1.788,4.072 2.877,3.616 2.877,2.204 2.877,0.578 1.588,0 0,0"
             style="fill:#595757;fill-opacity:1;fill-rule:nonzero;stroke:none"
             id="path12460" />
        </g>
        <g
           id="g12462"
           transform="translate(149.6055,105.1816)">
          <path
             d="m 0,0 c -0.323,0.203 -0.632,0.296 -1.292,0.296 -0.699,0 -1.075,-0.322 -1.075,-0.888 0,-0.498 0.283,-0.94 1.075,-0.94 0.605,0 1.09,0.308 1.292,0.644 z m 0,-2.959 v 0.473 c -0.336,-0.351 -0.928,-0.619 -1.587,-0.619 -1.318,0 -2.636,0.805 -2.636,2.513 0,1.559 1.265,2.34 2.865,2.34 0.645,0 1.062,-0.135 1.358,-0.283 v 0.35 c 0,0.498 -0.336,0.9 -1.009,0.9 -0.847,0 -1.291,-0.119 -1.936,-0.47 l -0.712,1.291 c 0.82,0.47 1.505,0.714 2.648,0.714 1.708,0 2.864,-0.889 2.864,-2.477 v -4.732 z"
             style="fill:#595757;fill-opacity:1;fill-rule:nonzero;stroke:none"
             id="path12464" />
        </g>
        <g
           id="g12466"
           transform="translate(157.2559,102.2227)">
          <path
             d="m 0,0 v 3.82 c 0,1.263 -0.432,1.639 -1.197,1.639 -0.767,0 -1.209,-0.376 -1.209,-1.6 V 0 h -1.858 v 7.061 h 1.858 V 6.588 c 0.321,0.337 0.913,0.621 1.652,0.621 1.803,0 2.608,-1.238 2.608,-3.229 l 0,-3.98 z"
             style="fill:#595757;fill-opacity:1;fill-rule:nonzero;stroke:none"
             id="path12468" />
        </g>
        <g
           id="g12470"
           transform="translate(168.3867,102.0762)">
          <path
             d="m 0,0 c -2.271,0 -3.805,1.533 -3.805,4.275 v 5.284 h 1.883 V 4.301 c 0,-1.506 0.727,-2.459 1.922,-2.459 1.197,0 1.937,0.928 1.937,2.433 V 9.559 H 3.819 V 4.301 C 3.819,1.573 2.395,0 0,0"
             style="fill:#595757;fill-opacity:1;fill-rule:nonzero;stroke:none"
             id="path12472" />
        </g>
        <g
           id="g12474"
           transform="translate(178.0566,102.2227)">
          <path
             d="m 0,0 v 3.82 c 0,1.263 -0.43,1.639 -1.196,1.639 -0.767,0 -1.21,-0.376 -1.21,-1.6 V 0 h -1.856 v 7.061 h 1.856 V 6.588 c 0.322,0.337 0.914,0.621 1.653,0.621 1.802,0 2.608,-1.238 2.608,-3.229 l 0,-3.98 z"
             style="fill:#595757;fill-opacity:1;fill-rule:nonzero;stroke:none"
             id="path12476" />
        </g>
        <path
           d="m 181.512,109.283 h 1.855 v -7.061 h -1.855 z m 0.927,0.578 c -0.578,0 -1.061,0.485 -1.061,1.062 0,0.577 0.483,1.061 1.061,1.061 0.58,0 1.063,-0.484 1.063,-1.061 0,-0.577 -0.483,-1.062 -1.063,-1.062"
           style="fill:#595757;fill-opacity:1;fill-rule:nonzero;stroke:none"
           id="path12478" />
        <g
           id="g12480"
           transform="translate(188.8457,102.2227)">
          <path
             d="M 0,0 H -1.908 L -4.45,7.061 h 2.044 l 1.035,-3.268 c 0.175,-0.538 0.363,-1.211 0.443,-1.545 0.081,0.348 0.27,0.992 0.444,1.545 l 1.035,3.268 h 1.99 z"
             style="fill:#595757;fill-opacity:1;fill-rule:nonzero;stroke:none"
             id="path12482" />
        </g>
        <g
           id="g12484"
           transform="translate(194.8809,107.8184)">
          <path
             d="m 0,0 c -0.672,0 -1.088,-0.553 -1.156,-1.266 h 2.42 C 1.211,-0.633 0.834,0 0,0 m 3.039,-2.663 h -4.221 c 0.067,-0.969 0.78,-1.331 1.452,-1.331 0.511,0 0.941,0.187 1.209,0.496 L 2.797,-4.6 C 2.232,-5.326 1.211,-5.742 0.27,-5.742 c -2.031,0 -3.322,1.437 -3.322,3.671 0,2.164 1.359,3.684 3.147,3.684 1.883,0 2.971,-1.668 2.971,-3.684 0,-0.27 -0.013,-0.458 -0.027,-0.592"
             style="fill:#595757;fill-opacity:1;fill-rule:nonzero;stroke:none"
             id="path12486" />
        </g>
        <g
           id="g12488"
           transform="translate(203.3516,107.1172)">
          <path
             d="m 0,0 c -0.296,0.27 -0.658,0.457 -1.075,0.457 -0.727,0 -1.196,-0.309 -1.196,-1.531 v -3.821 h -1.856 v 7.061 h 1.856 V 1.693 c 0.322,0.337 0.792,0.621 1.451,0.621 0.605,0 1.062,-0.244 1.304,-0.499 z"
             style="fill:#595757;fill-opacity:1;fill-rule:nonzero;stroke:none"
             id="path12490" />
        </g>
        <g
           id="g12492"
           transform="translate(207.123,102.0762)">
          <path
             d="m 0,0 c -1.116,0 -2.205,0.322 -2.958,0.82 l 0.618,1.412 c 0.753,-0.418 1.547,-0.646 2.447,-0.646 0.727,0 0.942,0.174 0.942,0.539 0,0.322 -0.256,0.482 -1.035,0.713 -1.696,0.51 -2.784,0.926 -2.784,2.418 0,1.467 1.169,2.099 2.824,2.099 0.887,0 1.855,-0.269 2.608,-0.687 L 2.07,5.203 C 1.371,5.58 0.605,5.768 0.014,5.768 -0.74,5.768 -0.941,5.62 -0.941,5.311 -0.941,5.015 -0.727,4.893 0.524,4.49 1.787,4.072 2.877,3.616 2.877,2.204 2.877,0.578 1.586,0 0,0"
             style="fill:#595757;fill-opacity:1;fill-rule:nonzero;stroke:none"
             id="path12494" />
        </g>
        <path
           d="m 211.506,109.283 h 1.855 v -7.061 h -1.855 z m 0.928,0.578 c -0.579,0 -1.063,0.485 -1.063,1.062 0,0.577 0.484,1.061 1.063,1.061 0.578,0 1.062,-0.484 1.062,-1.061 0,-0.577 -0.484,-1.062 -1.062,-1.062"
           style="fill:#595757;fill-opacity:1;fill-rule:nonzero;stroke:none"
           id="path12496" />
        <g
           id="g12498"
           transform="translate(218.9678,102.5049)">
          <path
             d="m 0,0 c -0.31,-0.241 -0.86,-0.429 -1.438,-0.429 -1.143,0 -1.882,0.887 -1.882,2.125 V 5.03 h -1.185 v 1.748 h 1.185 v 1.815 l 1.854,0.928 V 6.778 H 0.228 V 5.03 H -1.466 V 2.192 c 0,-0.671 0.242,-0.848 0.686,-0.848 0.336,0 0.592,0.149 1.049,0.54 z"
             style="fill:#595757;fill-opacity:1;fill-rule:nonzero;stroke:none"
             id="path12500" />
        </g>
        <g
           id="g12502"
           transform="translate(223.5527,99.7363)">
          <path
             d="m 0,0 h -1.828 l 0.941,2.486 -2.744,7.061 h 2.045 L -0.43,6.145 C -0.242,5.607 -0.054,4.935 0.026,4.598 0.107,4.947 0.295,5.594 0.484,6.145 L 1.641,9.547 H 3.63 Z"
             style="fill:#595757;fill-opacity:1;fill-rule:nonzero;stroke:none"
             id="path12504" />
        </g>
        <g
           id="g12506"
           transform="translate(322.7266,100.9219)">
          <path
             d="m 0,0 c -0.99,0.786 -2.515,1.326 -4.676,1.896 -0.669,0.205 -1.046,0.35 -1.245,0.497 -0.197,0.144 -0.229,0.272 -0.231,0.5 0.002,0.225 0.055,0.36 0.229,0.462 0.177,0.101 0.489,0.154 0.997,0.152 1.331,0 2.843,-0.404 4.854,-1.278 l 0.059,-0.026 1.201,4.17 -0.049,0.019 c -2.047,0.729 -3.605,1.113 -5.918,1.113 -2.095,0 -3.671,-0.47 -4.725,-1.341 -1.056,-0.875 -1.58,-2.15 -1.578,-3.738 -0.002,-1.599 0.414,-2.661 1.429,-3.468 1.013,-0.804 2.61,-1.359 4.977,-1.986 0.493,-0.132 0.793,-0.248 0.963,-0.385 0.167,-0.136 0.218,-0.285 0.22,-0.525 -0.002,-0.219 -0.081,-0.364 -0.287,-0.475 -0.208,-0.11 -0.551,-0.169 -1.057,-0.169 -1.331,0 -3.43,0.522 -5.261,1.338 l -0.059,0.025 -1.26,-4.08 0.049,-0.019 c 1.961,-0.762 4.158,-1.26 6.413,-1.26 1.965,0 3.56,0.409 4.67,1.272 1.11,0.859 1.723,2.174 1.723,3.952 C 1.438,-1.826 0.99,-0.788 0,0"
             style="fill:#595757;fill-opacity:1;fill-rule:nonzero;stroke:none"
             id="path12508" />
        </g>
        <g
           id="g12510"
           transform="translate(336.3887,92.3438)">
          <path
             d="m 0,0 c -5.139,0 -8.905,2.556 -8.905,9.004 v 11.649 h 5.781 V 9.004 c 0,-2.496 0.992,-4.036 3.212,-4.036 2.219,0 3.153,1.54 3.153,4.036 v 11.649 h 5.78 V 9.004 C 9.021,2.556 5.139,0 0,0"
             style="fill:#ea5505;fill-opacity:1;fill-rule:nonzero;stroke:none"
             id="path12512" />
        </g>
        <g
           id="g12514"
           transform="translate(314.0332,104.0928)">
          <path
             d="m 0,0 -3.752,-0.755 c 3.959,6.649 0.371,11.784 0.371,11.784 l 4.694,1.163 C 5.228,6.24 0,0 0,0"
             style="fill:#ea5505;fill-opacity:1;fill-rule:nonzero;stroke:none"
             id="path12516" />
        </g>
        <g
           id="g12518"
           transform="translate(307.6299,113.2129)">
          <path
             d="m 0,0 -1.701,-3.124 c -1.032,-2.039 -1.88,-3.917 -2.286,-5.129 -0.405,1.212 -1.251,3.09 -2.285,5.129 L -7.973,0 h -6.673 l 7.712,-12.976 v -7.573 h 5.835 v 7.662 L 6.615,0 Z"
             style="fill:#595757;fill-opacity:1;fill-rule:nonzero;stroke:none"
             id="path12520" />
        </g>
        <g
           id="g12522"
           transform="translate(275.8076,83.1426)">
          <path
             d="m 0,0 v -2.836 h -1.435 v 2.804 l -2.711,4.361 h 1.649 l 1.014,-1.698 c 0.255,-0.432 0.644,-1.138 0.775,-1.403 0.134,0.265 0.514,0.951 0.779,1.403 l 1.014,1.698 h 1.628 z"
             style="fill:#595757;fill-opacity:1;fill-rule:nonzero;stroke:none"
             id="path12524" />
        </g>
        <g
           id="g12526"
           transform="translate(280.0342,84.4326)">
          <path
             d="m 0,0 c -0.675,0 -0.992,-0.615 -0.992,-1.443 0,-0.829 0.317,-1.433 0.992,-1.433 0.677,0 1.004,0.686 1.004,1.433 C 1.004,-0.625 0.677,0 0,0 m 0,-4.238 c -1.402,0 -2.425,1.146 -2.425,2.795 0,1.646 1.023,2.803 2.425,2.803 1.402,0 2.437,-1.157 2.437,-2.803 0,-1.649 -1.035,-2.795 -2.437,-2.795"
             style="fill:#595757;fill-opacity:1;fill-rule:nonzero;stroke:none"
             id="path12528" />
        </g>
        <g
           id="g12530"
           transform="translate(286.6055,80.3066)">
          <path
             d="m 0,0 v 0.358 c -0.246,-0.254 -0.695,-0.47 -1.259,-0.47 -1.372,0 -1.985,0.942 -1.985,2.456 v 3.029 h 1.413 V 2.468 c 0,-0.962 0.326,-1.249 0.909,-1.249 C -0.338,1.219 0,1.506 0,2.438 V 5.373 H 1.412 V 0 Z"
             style="fill:#595757;fill-opacity:1;fill-rule:nonzero;stroke:none"
             id="path12532" />
        </g>
        <g
           id="g12534"
           transform="translate(292.4814,80.3066)">
          <path
             d="m 0,0 v 2.907 c 0,0.962 -0.328,1.249 -0.911,1.249 -0.583,0 -0.921,-0.287 -0.921,-1.218 V 0 h -1.412 v 5.373 h 1.412 V 5.015 c 0.246,0.256 0.695,0.471 1.26,0.471 1.37,0 1.985,-0.941 1.985,-2.456 l 0,-3.03 z"
             style="fill:#595757;fill-opacity:1;fill-rule:nonzero;stroke:none"
             id="path12536" />
        </g>
        <g
           id="g12538"
           transform="translate(298.0088,84.0029)">
          <path
             d="m 0,0 c -0.214,0.297 -0.543,0.46 -0.952,0.46 -0.542,0 -0.84,-0.471 -0.84,-1.371 0,-1.106 0.369,-1.567 0.921,-1.567 0.44,0 0.666,0.185 0.871,0.45 z m -0.901,-5.673 -0.502,1.066 C -0.297,-4.452 0,-4.188 0,-3.357 c -0.267,-0.236 -0.625,-0.452 -1.137,-0.452 -1.146,0 -2.087,0.86 -2.087,2.866 0,1.607 0.756,2.733 2.087,2.733 0.472,0 0.881,-0.184 1.137,-0.419 v 0.306 h 1.412 v -4.462 c 0,-1.771 -0.431,-2.682 -2.313,-2.888"
             style="fill:#595757;fill-opacity:1;fill-rule:nonzero;stroke:none"
             id="path12540" />
        </g>
        <g
           id="g12542"
           transform="translate(302.7168,80.1943)">
          <path
             d="m 0,0 c -0.849,0 -1.679,0.247 -2.251,0.626 l 0.471,1.073 c 0.573,-0.315 1.176,-0.492 1.863,-0.492 0.553,0 0.715,0.134 0.715,0.411 0,0.245 -0.194,0.368 -0.788,0.543 -1.288,0.389 -2.118,0.704 -2.118,1.841 0,1.116 0.89,1.597 2.149,1.597 0.676,0 1.413,-0.204 1.986,-0.523 L 1.576,3.961 C 1.045,4.248 0.461,4.393 0.01,4.393 c -0.573,0 -0.726,-0.115 -0.726,-0.349 0,-0.225 0.164,-0.317 1.115,-0.626 C 1.361,3.101 2.19,2.754 2.19,1.679 2.19,0.439 1.208,0 0,0"
             style="fill:#595757;fill-opacity:1;fill-rule:nonzero;stroke:none"
             id="path12544" />
        </g>
        <g
           id="g12546"
           transform="translate(308.9102,82.5596)">
          <path
             d="m 0,0 c -0.243,0.152 -0.479,0.226 -0.982,0.226 -0.532,0 -0.819,-0.247 -0.819,-0.677 0,-0.377 0.215,-0.717 0.819,-0.717 0.46,0 0.829,0.235 0.982,0.492 z m 0,-2.253 v 0.358 c -0.257,-0.266 -0.706,-0.47 -1.207,-0.47 -1.004,0 -2.007,0.614 -2.007,1.914 0,1.186 0.964,1.781 2.182,1.781 0.491,0 0.807,-0.101 1.032,-0.216 v 0.267 c 0,0.379 -0.257,0.686 -0.767,0.686 -0.644,0 -0.981,-0.092 -1.473,-0.358 l -0.543,0.982 c 0.625,0.359 1.146,0.542 2.016,0.542 1.3,0 2.181,-0.675 2.181,-1.882 v -3.604 z"
             style="fill:#595757;fill-opacity:1;fill-rule:nonzero;stroke:none"
             id="path12548" />
        </g>
        <g
           id="g12550"
           transform="translate(314.7354,80.3066)">
          <path
             d="m 0,0 v 2.907 c 0,0.962 -0.328,1.249 -0.911,1.249 -0.584,0 -0.922,-0.287 -0.922,-1.218 V 0 h -1.411 v 5.373 h 1.411 V 5.015 c 0.246,0.256 0.696,0.471 1.26,0.471 1.372,0 1.984,-0.941 1.984,-2.456 l 0,-3.03 z"
             style="fill:#595757;fill-opacity:1;fill-rule:nonzero;stroke:none"
             id="path12552" />
        </g>
        <g
           id="g12554"
           transform="translate(323.21,80.1943)">
          <path
             d="m 0,0 c -1.729,0 -2.896,1.167 -2.896,3.256 v 4.021 h 1.432 V 3.275 c 0,-1.146 0.553,-1.872 1.464,-1.872 0.912,0 1.473,0.705 1.473,1.853 V 7.277 H 2.907 V 3.275 C 2.907,1.197 1.821,0 0,0"
             style="fill:#595757;fill-opacity:1;fill-rule:nonzero;stroke:none"
             id="path12556" />
        </g>
        <g
           id="g12558"
           transform="translate(330.5703,80.3066)">
          <path
             d="m 0,0 v 2.907 c 0,0.962 -0.326,1.249 -0.909,1.249 -0.583,0 -0.922,-0.287 -0.922,-1.218 V 0 h -1.414 v 5.373 h 1.414 V 5.015 c 0.245,0.256 0.696,0.471 1.259,0.471 1.372,0 1.986,-0.941 1.986,-2.456 l 0,-3.03 z"
             style="fill:#595757;fill-opacity:1;fill-rule:nonzero;stroke:none"
             id="path12560" />
        </g>
        <path
           d="m 333.202,85.68 h 1.413 v -5.373 h -1.413 z m 0.706,0.441 c -0.441,0 -0.808,0.368 -0.808,0.809 0,0.439 0.367,0.807 0.808,0.807 0.44,0 0.807,-0.368 0.807,-0.807 0,-0.441 -0.367,-0.809 -0.807,-0.809"
           style="fill:#595757;fill-opacity:1;fill-rule:nonzero;stroke:none"
           id="path12562" />
        <g
           id="g12564"
           transform="translate(338.7842,80.3066)">
          <path
             d="m 0,0 h -1.452 l -1.936,5.373 h 1.557 l 0.787,-2.486 c 0.134,-0.408 0.277,-0.921 0.34,-1.176 0.06,0.264 0.203,0.757 0.337,1.176 L 0.42,5.373 h 1.516 z"
             style="fill:#595757;fill-opacity:1;fill-rule:nonzero;stroke:none"
             id="path12566" />
        </g>
        <g
           id="g12568"
           transform="translate(343.3789,84.5645)">
          <path
             d="M 0,0 C -0.51,0 -0.828,-0.417 -0.881,-0.961 H 0.964 C 0.923,-0.48 0.636,0 0,0 M 2.313,-2.026 H -0.9 c 0.051,-0.736 0.593,-1.013 1.105,-1.013 0.39,0 0.718,0.143 0.921,0.378 L 2.131,-3.5 C 1.7,-4.054 0.923,-4.37 0.205,-4.37 c -1.545,0 -2.527,1.096 -2.527,2.795 0,1.646 1.033,2.804 2.395,2.804 1.432,0 2.262,-1.269 2.262,-2.804 0,-0.204 -0.01,-0.348 -0.022,-0.451"
             style="fill:#595757;fill-opacity:1;fill-rule:nonzero;stroke:none"
             id="path12570" />
        </g>
        <g
           id="g12572"
           transform="translate(349.8281,84.0322)">
          <path
             d="M 0,0 C -0.226,0.206 -0.501,0.349 -0.818,0.349 -1.37,0.349 -1.73,0.115 -1.73,-0.818 V -3.726 H -3.143 V 1.647 H -1.73 V 1.289 c 0.247,0.257 0.604,0.472 1.106,0.472 0.46,0 0.809,-0.184 0.993,-0.378 z"
             style="fill:#595757;fill-opacity:1;fill-rule:nonzero;stroke:none"
             id="path12574" />
        </g>
        <g
           id="g12576"
           transform="translate(352.6992,80.1943)">
          <path
             d="m 0,0 c -0.85,0 -1.678,0.247 -2.252,0.626 l 0.472,1.073 c 0.573,-0.315 1.176,-0.492 1.862,-0.492 0.554,0 0.717,0.134 0.717,0.411 0,0.245 -0.195,0.368 -0.788,0.543 -1.292,0.389 -2.119,0.704 -2.119,1.841 0,1.116 0.889,1.597 2.149,1.597 0.675,0 1.413,-0.204 1.985,-0.523 L 1.576,3.961 C 1.044,4.248 0.46,4.393 0.011,4.393 c -0.574,0 -0.727,-0.115 -0.727,-0.349 0,-0.225 0.163,-0.317 1.114,-0.626 C 1.361,3.101 2.19,2.754 2.19,1.679 2.19,0.439 1.209,0 0,0"
             style="fill:#595757;fill-opacity:1;fill-rule:nonzero;stroke:none"
             id="path12578" />
        </g>
        <path
           d="m 356.036,85.68 h 1.413 v -5.373 h -1.413 z m 0.707,0.441 c -0.44,0 -0.809,0.368 -0.809,0.809 0,0.439 0.369,0.807 0.809,0.807 0.439,0 0.808,-0.368 0.808,-0.807 0,-0.441 -0.369,-0.809 -0.808,-0.809"
           style="fill:#595757;fill-opacity:1;fill-rule:nonzero;stroke:none"
           id="path12580" />
        <g
           id="g12582"
           transform="translate(361.7158,80.5225)">
          <path
             d="m 0,0 c -0.234,-0.185 -0.653,-0.328 -1.095,-0.328 -0.869,0 -1.432,0.677 -1.432,1.618 v 2.538 h -0.901 v 1.329 h 0.901 V 6.54 l 1.413,0.707 V 5.157 H 0.175 V 3.828 H -1.114 V 1.667 c 0,-0.511 0.183,-0.644 0.521,-0.644 0.256,0 0.45,0.114 0.799,0.411 z"
             style="fill:#595757;fill-opacity:1;fill-rule:nonzero;stroke:none"
             id="path12584" />
        </g>
        <g
           id="g12586"
           transform="translate(365.208,78.4131)">
          <path
             d="m 0,0 h -1.393 l 0.717,1.894 -2.09,5.373 h 1.557 L -0.327,4.679 C -0.185,4.269 -0.042,3.758 0.02,3.501 0.081,3.768 0.225,4.258 0.368,4.679 l 0.88,2.588 h 1.515 z"
             style="fill:#595757;fill-opacity:1;fill-rule:nonzero;stroke:none"
             id="path12588" />
        </g>
        <g
           id="g12590"
           transform="translate(75.2607,158.0488)">
          <path
             d="m 0,0 c -1.026,0.815 -2.604,1.374 -4.844,1.964 -0.692,0.211 -1.081,0.363 -1.288,0.514 -0.204,0.15 -0.237,0.281 -0.241,0.518 0.004,0.233 0.06,0.374 0.239,0.478 0.183,0.105 0.508,0.16 1.034,0.159 1.378,0 2.942,-0.421 5.025,-1.325 L -0.014,2.28 1.23,6.601 1.178,6.618 c -2.119,0.757 -3.733,1.153 -6.128,1.153 -2.17,0 -3.801,-0.485 -4.892,-1.389 -1.093,-0.904 -1.636,-2.225 -1.636,-3.869 -10e-4,-1.657 0.431,-2.756 1.48,-3.592 1.051,-0.833 2.705,-1.406 5.154,-2.058 0.512,-0.135 0.823,-0.257 0.999,-0.397 0.173,-0.141 0.225,-0.295 0.228,-0.544 -0.003,-0.226 -0.084,-0.377 -0.298,-0.492 -0.215,-0.114 -0.571,-0.175 -1.095,-0.175 -1.377,0 -3.551,0.542 -5.448,1.386 l -0.06,0.026 -1.306,-4.227 0.051,-0.019 c 2.031,-0.789 4.306,-1.305 6.642,-1.305 2.033,0.001 3.687,0.425 4.836,1.318 1.149,0.891 1.784,2.251 1.784,4.092 C 1.489,-1.892 1.026,-0.815 0,0"
             style="fill:#595757;fill-opacity:1;fill-rule:nonzero;stroke:none"
             id="path12592" />
        </g>
        <g
           id="g12594"
           transform="translate(89.4082,149.165)">
          <path
             d="m 0,0 c -5.321,0 -9.222,2.647 -9.222,9.326 v 12.062 h 5.987 V 9.326 c 0,-2.588 1.027,-4.181 3.326,-4.181 2.297,0 3.263,1.593 3.263,4.181 V 21.388 H 9.342 V 9.326 C 9.342,2.647 5.32,0 0,0"
             style="fill:#ea5505;fill-opacity:1;fill-rule:nonzero;stroke:none"
             id="path12596" />
        </g>
        <g
           id="g12598"
           transform="translate(66.2573,161.332)">
          <path
             d="m 0,0 -3.885,-0.782 c 4.1,6.886 0.384,12.203 0.384,12.203 l 4.863,1.205 C 5.414,6.462 0,0 0,0"
             style="fill:#ea5505;fill-opacity:1;fill-rule:nonzero;stroke:none"
             id="path12600" />
        </g>
        <g
           id="g12602"
           transform="translate(59.6284,170.7773)">
          <path
             d="m 0,0 -1.764,-3.236 c -1.069,-2.111 -1.945,-4.054 -2.365,-5.31 -0.42,1.256 -1.297,3.199 -2.367,5.31 L -8.258,0 h -6.91 l 7.987,-13.437 v -7.841 h 6.042 v 7.932 L 6.849,0 Z"
             style="fill:#595757;fill-opacity:1;fill-rule:nonzero;stroke:none"
             id="path12604" />
        </g>
        <g
           id="g12606"
           transform="translate(130.2788,154.1885)">
          <path
             d="m 0,0 v 3.029 h -2.6 v -4.036 c 0,-1.768 0.817,-2.44 2.338,-2.44 h 9.81 v 2.265 H 0.981 C 0.036,-1.182 0,-0.824 0,0 m -11.649,13.788 h -2.671 v -2.26 h 2.671 V 9.436 H -14.32 V 7.178 h 2.671 V 5.076 h 2.673 v 10.346 h -2.673 z m -8.704,-8.561 h -0.005 -0.005 z m -2.125,5.163 c 0,1.639 0.679,2.854 2.12,2.858 1.441,-0.004 2.12,-1.219 2.12,-2.858 0,-1.64 -0.679,-2.834 -2.12,-2.837 -1.441,0.003 -2.12,1.197 -2.12,2.837 m 6.98,0 c 0,3.044 -2.051,5.18 -4.86,5.184 -2.809,-0.004 -4.859,-2.14 -4.859,-5.184 0,-3.042 2.05,-5.16 4.859,-5.163 2.809,0.003 4.86,2.121 4.86,5.163 m -4.865,5.184 h 0.005 0.005 z m 5.146,-17.922 c -1.683,0 -2.93,0.719 -2.93,2.25 0,1.534 1.269,2.276 2.93,2.276 1.515,0 2.908,-0.742 2.908,-2.276 0,-1.531 -1.226,-2.25 -2.908,-2.25 m 0,6.879 c -3.341,0 -5.685,-1.963 -5.685,-4.625 0,-2.663 2.344,-4.607 5.685,-4.607 3.339,0 5.663,1.944 5.663,4.607 0,2.662 -2.324,4.625 -5.663,4.625 M -0.774,9.197 C 0.526,6.355 3.294,4.93 3.294,4.93 l 1.281,1.849 c 0,0 -4.065,2.285 -3.965,7.939 v 0.213 H -2.161 V 14.718 C -2.062,9.064 -6.125,6.779 -6.125,6.779 L -4.846,4.93 c 0,0 2.769,1.425 4.07,4.267 z M 9.271,15.429 H 6.676 V 2.065 h 2.595 v 6.714 h 2.491 v 2.253 H 9.271 Z M 46.102,3.192 36.352,3.191 V 0.936 h 8.498 c 0.945,0 0.992,-0.351 0.992,-1.176 v -3.255 h 2.597 l 10e-4,4.247 c 0,1.768 -0.816,2.44 -2.338,2.44 m -9.75,5.863 c 0,1.209 0.989,1.795 2.286,1.795 1.183,0 2.267,-0.586 2.267,-1.795 0,-1.209 -0.955,-1.778 -2.267,-1.778 -1.313,0 -2.286,0.569 -2.286,1.778 m 6.994,0.002 c 0,1.439 -0.785,2.638 -2.072,3.32 h 2.631 v 2.091 H 40.02 v 1.558 h -2.738 v -1.558 h -3.907 v -2.091 h 2.622 c -1.292,-0.682 -2.084,-1.881 -2.084,-3.32 0,-2.262 1.949,-3.912 4.725,-3.912 2.777,0 4.708,1.65 4.708,3.912 m 5.092,6.378 H 45.842 V 4.438 h 2.598 l -0.002,4.525 h 2.547 v 2.269 h -2.547 z m 15.656,-4.65 V 3.563 h 2.637 v 8.143 c 0,1.202 -0.085,2.823 -2.385,2.823 H 53.65 v -2.301 h 8.893 c 1.512,0 1.551,-0.168 1.551,-1.443 M 62.347,1.092 V 7.043 H 59.79 V 1.092 H 58.059 V 7.043 H 55.522 V 1.092 H 52.34 V -1.219 H 67.721 V 1.092 Z M 17.004,5.705 v 6.577 h 4.905 v 2.254 h -7.48 V 4.503 c 0,-1.724 0.777,-2.404 2.226,-2.438 h 5.482 v 2.264 l -4.044,0.003 c -1.048,0 -1.089,0.457 -1.089,1.373 m 10.75,3.891 h -1.777 v 5.839 H 23.432 V -3.502 h 2.545 V 7.359 h 1.777 V -3.502 h 2.566 v 18.937 h -2.566 z"
             style="fill:#595757;fill-opacity:1;fill-rule:nonzero;stroke:none"
             id="path12608" />
        </g>
        <g
           id="g12610"
           transform="translate(320.5977,157.4492)"
           inkscape:export-filename="..\OneDrive\바탕 화면\잉스케이프-로고\영산대학교.png"
           inkscape:export-xdpi="511.78952"
           inkscape:export-ydpi="511.78952">
          <path
             d="m 0,0 c -0.985,0.783 -2.501,1.319 -4.649,1.886 -0.664,0.202 -1.039,0.348 -1.237,0.491 -0.197,0.145 -0.229,0.272 -0.231,0.499 0.002,0.224 0.056,0.359 0.229,0.459 0.176,0.1 0.487,0.152 0.992,0.152 1.322,0 2.824,-0.403 4.823,-1.272 L -0.015,2.188 1.179,6.336 1.13,6.354 c -2.035,0.725 -3.582,1.105 -5.881,1.105 -2.083,0 -3.649,-0.466 -4.696,-1.332 -1.05,-0.868 -1.572,-2.137 -1.57,-3.716 -0.003,-1.589 0.413,-2.644 1.42,-3.445 1.009,-0.801 2.595,-1.351 4.948,-1.976 0.492,-0.13 0.789,-0.247 0.959,-0.382 0.165,-0.135 0.215,-0.283 0.215,-0.521 0,-0.219 -0.077,-0.362 -0.284,-0.474 -0.207,-0.108 -0.547,-0.168 -1.05,-0.168 -1.323,-0.001 -3.409,0.521 -5.228,1.33 l -0.059,0.026 -1.255,-4.057 0.049,-0.018 c 1.95,-0.758 4.135,-1.252 6.376,-1.252 1.952,0 3.539,0.408 4.643,1.264 1.102,0.856 1.713,2.16 1.712,3.928 C 1.43,-1.814 0.985,-0.781 0,0"
             style="fill:#595757;fill-opacity:1;fill-rule:nonzero;stroke:none"
             id="path12612" />
        </g>
        <g
           id="g12614"
           transform="translate(334.1768,148.9229)">
          <path
             d="m 0,0 c -5.108,0 -8.853,2.541 -8.853,8.95 v 11.578 h 5.749 V 8.95 c 0,-2.483 0.987,-4.012 3.191,-4.012 2.206,0 3.133,1.529 3.133,4.012 V 20.528 H 8.966 V 8.95 C 8.966,2.541 5.105,0 0,0"
             style="fill:#ea5505;fill-opacity:1;fill-rule:nonzero;stroke:none"
             id="path12616" />
        </g>
        <g
           id="g12618"
           transform="translate(311.9551,160.6006)">
          <path
             d="m 0,0 -3.729,-0.75 c 3.935,6.608 0.369,11.714 0.369,11.714 l 4.669,1.155 C 5.196,6.203 0,0 0,0"
             style="fill:#ea5505;fill-opacity:1;fill-rule:nonzero;stroke:none"
             id="path12620" />
        </g>
        <g
           id="g12622"
           transform="translate(305.5908,169.667)">
          <path
             d="m 0,0 -1.69,-3.105 c -1.028,-2.027 -1.87,-3.892 -2.272,-5.098 -0.404,1.206 -1.244,3.071 -2.271,5.098 L -7.925,0 h -6.633 l 7.667,-12.897 v -7.528 h 5.799 v 7.615 L 6.575,0 Z"
             style="fill:#595757;fill-opacity:1;fill-rule:nonzero;stroke:none"
             id="path12624" />
        </g>
        <g
           id="g12626"
           transform="translate(305.0244,134.3828)">
          <path
             d="m 0,0 v 1.706 h -1.463 v -2.273 c 0,-0.996 0.46,-1.374 1.317,-1.374 h 5.522 v 1.276 H 0.553 C 0.021,-0.665 0,-0.464 0,0 M -6.559,7.766 H -8.062 V 6.491 h 1.503 V 5.313 H -8.062 V 4.041 h 1.503 V 2.859 h 1.506 v 5.826 h -1.506 z m -4.9,-4.823 c -0.002,0 -0.002,10e-4 -0.002,10e-4 -0.004,0 -0.005,-10e-4 -0.005,-10e-4 z m -1.197,2.908 c 0,0.923 0.381,1.607 1.193,1.609 0.812,-0.002 1.193,-0.686 1.193,-1.609 0,-0.924 -0.381,-1.596 -1.193,-1.598 -0.812,0.002 -1.193,0.674 -1.193,1.598 m 3.929,0 c 0,1.714 -1.154,2.918 -2.736,2.918 -1.581,0 -2.736,-1.204 -2.736,-2.918 0,-1.713 1.155,-2.906 2.736,-2.907 1.582,10e-4 2.736,1.194 2.736,2.907 m -2.739,2.918 h 0.003 0.004 z m 2.898,-10.091 c -0.948,0 -1.65,0.404 -1.65,1.267 0,0.864 0.714,1.282 1.65,1.282 0.852,0 1.637,-0.418 1.637,-1.282 0,-0.863 -0.69,-1.267 -1.637,-1.267 m 0,3.874 c -1.88,0 -3.202,-1.106 -3.202,-2.605 0,-1.499 1.322,-2.594 3.202,-2.594 1.88,0 3.188,1.095 3.188,2.594 0,1.499 -1.308,2.605 -3.188,2.605 m 8.132,2.627 C 0.297,3.579 1.855,2.776 1.855,2.776 l 0.722,1.042 c 0,0 -2.289,1.286 -2.232,4.47 v 0.12 h -1.561 v -0.12 c 0.057,-3.184 -2.232,-4.47 -2.232,-4.47 l 0.72,-1.042 c 0,0 1.559,0.803 2.291,2.403 z M 5.222,8.688 H 3.759 V 1.163 h 1.463 v 3.78 H 6.624 V 6.212 H 5.222 Z M 25.96,1.799 20.47,1.797 v -1.27 h 4.786 c 0.531,0 0.559,-0.198 0.559,-0.662 v -1.833 h 1.461 l 0.001,2.393 c 0,0.995 -0.461,1.374 -1.317,1.374 m -5.49,3.299 c 0,0.681 0.556,1.011 1.288,1.011 0.665,0 1.275,-0.33 1.275,-1.011 0,-0.679 -0.537,-0.999 -1.275,-0.999 -0.739,0 -1.288,0.32 -1.288,0.999 M 24.408,5.1 c 0,0.811 -0.441,1.485 -1.165,1.87 h 1.481 V 8.147 H 22.536 V 9.024 H 20.994 V 8.147 h -2.2 V 6.97 h 1.477 C 19.544,6.585 19.096,5.911 19.096,5.1 c 0,-1.274 1.098,-2.204 2.662,-2.204 1.563,0 2.65,0.93 2.65,2.204 m 2.867,3.591 h -1.46 V 2.499 h 1.461 L 27.275,5.047 H 28.71 V 6.325 H 27.275 Z M 36.093,6.073 V 2.008 h 1.483 v 4.584 c 0,0.678 -0.047,1.59 -1.343,1.59 H 30.211 V 6.886 h 5.008 c 0.85,0 0.874,-0.096 0.874,-0.813 M 35.108,0.614 v 3.353 h -1.44 V 0.614 H 32.694 V 3.965 H 31.267 V 0.614 h -1.794 v -1.301 h 8.662 v 1.301 z m -25.531,2.6 v 3.702 h 2.759 v 1.269 h -4.21 v -5.65 c 0,-0.971 0.437,-1.353 1.252,-1.372 h 3.088 V 2.438 L 10.188,2.44 C 9.6,2.44 9.577,2.696 9.577,3.214 m 6.051,2.189 h -1 V 8.691 H 13.194 V -1.972 h 1.434 v 6.117 h 1 v -6.117 h 1.446 V 8.691 h -1.446 z"
             style="fill:#595757;fill-opacity:1;fill-rule:nonzero;stroke:none"
             id="path12628" />
        </g>
        <g
           id="g12630"
           transform="translate(139.0327,374.9087)">
          <path
             d="m 0,0 c -1.328,1.055 -3.369,1.779 -6.266,2.543 -0.896,0.271 -1.4,0.469 -1.669,0.663 -0.264,0.194 -0.307,0.366 -0.311,0.672 0.004,0.301 0.077,0.482 0.308,0.618 0.238,0.135 0.658,0.206 1.337,0.205 1.784,0 3.809,-0.543 6.503,-1.715 l 0.08,-0.035 1.61,5.59 -0.068,0.025 c -2.742,0.978 -4.83,1.491 -7.929,1.491 -2.805,0 -4.918,-0.629 -6.33,-1.798 -1.414,-1.17 -2.116,-2.879 -2.116,-5.008 -0.002,-2.143 0.558,-3.566 1.915,-4.646 1.361,-1.079 3.498,-1.822 6.67,-2.664 0.661,-0.174 1.064,-0.331 1.29,-0.513 0.226,-0.183 0.29,-0.382 0.297,-0.705 -0.007,-0.292 -0.11,-0.487 -0.386,-0.637 -0.279,-0.147 -0.739,-0.226 -1.418,-0.226 -1.781,-0.001 -4.594,0.701 -7.049,1.794 l -0.077,0.034 -1.69,-5.468 0.064,-0.026 c 2.629,-1.021 5.573,-1.689 8.596,-1.689 2.63,10e-4 4.771,0.55 6.258,1.704 1.486,1.155 2.308,2.914 2.307,5.296 C 1.927,-2.447 1.328,-1.053 0,0"
             style="fill:#595757;fill-opacity:1;fill-rule:nonzero;stroke:none"
             id="path12632" />
        </g>
        <g
           id="g12634"
           transform="translate(157.3379,363.4141)">
          <path
             d="m 0,0 c -6.884,0 -11.93,3.425 -11.93,12.066 v 15.609 h 7.746 V 12.066 c 0,-3.346 1.33,-5.409 4.304,-5.409 2.97,0 4.223,2.063 4.223,5.409 V 27.675 H 12.09 V 12.066 C 12.09,3.425 6.886,0 0,0"
             style="fill:#ea5505;fill-opacity:1;fill-rule:nonzero;stroke:none"
             id="path12636" />
        </g>
        <g
           id="g12638"
           transform="translate(127.3818,379.1577)">
          <path
             d="m 0,0 -5.027,-1.012 c 5.304,8.91 0.497,15.791 0.497,15.791 l 6.294,1.559 C 7.007,8.362 0,0 0,0"
             style="fill:#ea5505;fill-opacity:1;fill-rule:nonzero;stroke:none"
             id="path12640" />
        </g>
        <g
           id="g12642"
           transform="translate(118.8032,391.3799)">
          <path
             d="m 0,0 -2.28,-4.188 c -1.383,-2.731 -2.518,-5.246 -3.061,-6.87 -0.545,1.624 -1.678,4.139 -3.064,6.87 L -10.684,0 h -8.941 l 10.334,-17.387 v -10.147 h 7.818 V -17.27 L 8.865,0 Z"
             style="fill:#595757;fill-opacity:1;fill-rule:nonzero;stroke:none"
             id="path12644" />
        </g>
        <g
           id="g12646"
           transform="translate(184.4854,351.6763)">
          <path
             d="m 0,0 v -4.396 h -2.222 v 4.348 l -4.207,6.761 h 2.555 l 1.573,-2.634 c 0.396,-0.666 0.998,-1.762 1.206,-2.174 0.205,0.412 0.794,1.476 1.205,2.174 l 1.573,2.634 h 2.522 z"
             style="fill:#595757;fill-opacity:1;fill-rule:nonzero;stroke:none"
             id="path12648" />
        </g>
        <g
           id="g12650"
           transform="translate(191.04,353.6763)">
          <path
             d="m 0,0 c -1.047,0 -1.54,-0.952 -1.54,-2.238 0,-1.285 0.493,-2.222 1.54,-2.222 1.048,0 1.555,1.063 1.555,2.222 C 1.555,-0.968 1.048,0 0,0 m 0,-6.57 c -2.175,0 -3.762,1.777 -3.762,4.332 0,2.555 1.587,4.348 3.762,4.348 2.175,0 3.777,-1.793 3.777,-4.348 C 3.777,-4.793 2.175,-6.57 0,-6.57"
             style="fill:#595757;fill-opacity:1;fill-rule:nonzero;stroke:none"
             id="path12652" />
        </g>
        <g
           id="g12654"
           transform="translate(201.2285,347.2803)">
          <path
             d="m 0,0 v 0.556 c -0.38,-0.398 -1.079,-0.73 -1.951,-0.73 -2.128,0 -3.08,1.46 -3.08,3.808 v 4.698 h 2.19 V 3.825 c 0,-1.492 0.508,-1.936 1.413,-1.936 C -0.522,1.889 0,2.333 0,3.777 V 8.332 H 2.191 V 0 Z"
             style="fill:#595757;fill-opacity:1;fill-rule:nonzero;stroke:none"
             id="path12656" />
        </g>
        <g
           id="g12658"
           transform="translate(210.3398,347.2803)">
          <path
             d="m 0,0 v 4.507 c 0,1.492 -0.508,1.937 -1.413,1.937 -0.905,0 -1.429,-0.445 -1.429,-1.889 V 0 h -2.189 v 8.332 h 2.189 V 7.777 c 0.382,0.397 1.08,0.729 1.952,0.729 2.128,0 3.079,-1.46 3.079,-3.808 L 2.189,0 Z"
             style="fill:#595757;fill-opacity:1;fill-rule:nonzero;stroke:none"
             id="path12660" />
        </g>
        <g
           id="g12662"
           transform="translate(218.9121,353.0093)">
          <path
             d="m 0,0 c -0.334,0.461 -0.843,0.715 -1.477,0.715 -0.842,0 -1.302,-0.73 -1.302,-2.127 0,-1.714 0.571,-2.428 1.428,-2.428 0.683,0 1.031,0.285 1.351,0.698 z m -1.399,-8.793 -0.778,1.651 C -0.462,-6.904 0,-6.491 0,-5.205 c -0.416,-0.366 -0.969,-0.698 -1.765,-0.698 -1.777,0 -3.237,1.332 -3.237,4.443 0,2.492 1.176,4.237 3.237,4.237 0.732,0 1.366,-0.285 1.765,-0.65 v 0.476 h 2.189 v -6.92 c 0,-2.745 -0.668,-4.158 -3.588,-4.476"
             style="fill:#595757;fill-opacity:1;fill-rule:nonzero;stroke:none"
             id="path12664" />
        </g>
        <g
           id="g12666"
           transform="translate(226.2109,347.106)">
          <path
             d="m 0,0 c -1.317,0 -2.604,0.38 -3.49,0.967 l 0.728,1.667 c 0.89,-0.491 1.826,-0.761 2.889,-0.761 0.857,0 1.11,0.206 1.11,0.634 0,0.382 -0.3,0.572 -1.221,0.841 -2,0.604 -3.286,1.095 -3.286,2.857 0,1.73 1.38,2.476 3.333,2.476 1.047,0 2.191,-0.318 3.08,-0.809 L 2.445,6.142 C 1.619,6.586 0.714,6.809 0.016,6.809 c -0.888,0 -1.127,-0.175 -1.127,-0.54 0,-0.35 0.254,-0.492 1.73,-0.968 C 2.11,4.808 3.396,4.269 3.396,2.603 3.396,0.681 1.874,0 0,0"
             style="fill:#595757;fill-opacity:1;fill-rule:nonzero;stroke:none"
             id="path12668" />
        </g>
        <g
           id="g12670"
           transform="translate(235.8164,350.772)">
          <path
             d="m 0,0 c -0.383,0.237 -0.746,0.35 -1.523,0.35 -0.827,0 -1.272,-0.382 -1.272,-1.049 0,-0.587 0.334,-1.111 1.272,-1.111 0.711,0 1.283,0.365 1.523,0.763 z m 0,-3.492 v 0.556 c -0.397,-0.413 -1.097,-0.73 -1.872,-0.73 -1.558,0 -3.113,0.952 -3.113,2.967 0,1.841 1.493,2.762 3.381,2.762 0.761,0 1.253,-0.159 1.604,-0.334 v 0.414 c 0,0.586 -0.397,1.063 -1.191,1.063 -1,0 -1.523,-0.142 -2.287,-0.556 l -0.839,1.524 c 0.967,0.555 1.776,0.841 3.126,0.841 2.016,0 3.379,-1.047 3.379,-2.92 v -5.587 z"
             style="fill:#595757;fill-opacity:1;fill-rule:nonzero;stroke:none"
             id="path12672" />
        </g>
        <g
           id="g12674"
           transform="translate(244.8457,347.2803)">
          <path
             d="m 0,0 v 4.507 c 0,1.492 -0.507,1.937 -1.412,1.937 -0.903,0 -1.429,-0.445 -1.429,-1.889 V 0 h -2.19 v 8.332 h 2.19 V 7.777 c 0.381,0.397 1.078,0.729 1.952,0.729 2.128,0 3.08,-1.46 3.08,-3.808 L 2.191,0 Z"
             style="fill:#595757;fill-opacity:1;fill-rule:nonzero;stroke:none"
             id="path12676" />
        </g>
        <g
           id="g12678"
           transform="translate(257.9883,347.106)">
          <path
             d="m 0,0 c -2.683,0 -4.493,1.809 -4.493,5.047 v 6.237 h 2.222 V 5.078 C -2.271,3.3 -1.413,2.174 0,2.174 c 1.412,0 2.286,1.095 2.286,2.873 v 6.237 H 4.509 V 5.078 C 4.509,1.856 2.824,0 0,0"
             style="fill:#595757;fill-opacity:1;fill-rule:nonzero;stroke:none"
             id="path12680" />
        </g>
        <g
           id="g12682"
           transform="translate(269.4033,347.2803)">
          <path
             d="m 0,0 v 4.507 c 0,1.492 -0.509,1.937 -1.413,1.937 -0.904,0 -1.429,-0.445 -1.429,-1.889 V 0 h -2.189 v 8.332 h 2.189 V 7.777 c 0.38,0.397 1.079,0.729 1.953,0.729 2.126,0 3.078,-1.46 3.078,-3.808 L 2.189,0 Z"
             style="fill:#595757;fill-opacity:1;fill-rule:nonzero;stroke:none"
             id="path12684" />
        </g>
        <path
           d="m 273.48,355.612 h 2.191 v -8.332 h -2.191 z m 1.096,0.683 c -0.68,0 -1.253,0.572 -1.253,1.253 0,0.683 0.573,1.255 1.253,1.255 0.683,0 1.254,-0.572 1.254,-1.255 0,-0.681 -0.571,-1.253 -1.254,-1.253"
           style="fill:#595757;fill-opacity:1;fill-rule:nonzero;stroke:none"
           id="path12686" />
        <g
           id="g12688"
           transform="translate(282.1367,347.2803)">
          <path
             d="m 0,0 h -2.25 l -3.002,8.332 h 2.413 l 1.222,-3.856 c 0.207,-0.635 0.429,-1.429 0.524,-1.826 0.095,0.413 0.318,1.175 0.526,1.826 l 1.22,3.856 h 2.35 z"
             style="fill:#595757;fill-opacity:1;fill-rule:nonzero;stroke:none"
             id="path12690" />
        </g>
        <g
           id="g12692"
           transform="translate(289.2646,353.8823)">
          <path
             d="M 0,0 C -0.794,0 -1.286,-0.65 -1.365,-1.492 H 1.491 C 1.429,-0.746 0.983,0 0,0 m 3.586,-3.142 h -4.983 c 0.08,-1.143 0.919,-1.571 1.714,-1.571 0.604,0 1.112,0.221 1.427,0.587 L 3.301,-5.428 C 2.635,-6.285 1.429,-6.776 0.317,-6.776 c -2.397,0 -3.921,1.697 -3.921,4.332 0,2.555 1.604,4.348 3.713,4.348 2.225,0 3.509,-1.967 3.509,-4.348 0,-0.317 -0.017,-0.539 -0.032,-0.698"
             style="fill:#595757;fill-opacity:1;fill-rule:nonzero;stroke:none"
             id="path12694" />
        </g>
        <g
           id="g12696"
           transform="translate(299.2627,353.0566)">
          <path
             d="m 0,0 c -0.349,0.318 -0.777,0.54 -1.27,0.54 -0.856,0 -1.413,-0.365 -1.413,-1.809 v -4.507 h -2.189 v 8.332 h 2.189 V 2.001 c 0.382,0.397 0.938,0.729 1.715,0.729 0.714,0 1.253,-0.286 1.54,-0.586 z"
             style="fill:#595757;fill-opacity:1;fill-rule:nonzero;stroke:none"
             id="path12698" />
        </g>
        <g
           id="g12700"
           transform="translate(303.7139,347.106)">
          <path
             d="m 0,0 c -1.316,0 -2.603,0.38 -3.493,0.967 l 0.733,1.667 c 0.888,-0.491 1.825,-0.761 2.889,-0.761 0.857,0 1.109,0.206 1.109,0.634 0,0.382 -0.3,0.572 -1.221,0.841 -2,0.604 -3.286,1.095 -3.286,2.857 0,1.73 1.38,2.476 3.334,2.476 1.047,0 2.19,-0.318 3.079,-0.809 l -0.7,-1.73 C 1.618,6.586 0.714,6.809 0.017,6.809 -0.874,6.809 -1.11,6.634 -1.11,6.269 -1.11,5.919 -0.857,5.777 0.618,5.301 2.112,4.808 3.396,4.269 3.396,2.603 3.396,0.681 1.872,0 0,0"
             style="fill:#595757;fill-opacity:1;fill-rule:nonzero;stroke:none"
             id="path12702" />
        </g>
        <path
           d="m 308.889,355.612 h 2.189 v -8.332 h -2.189 z m 1.094,0.683 c -0.682,0 -1.254,0.572 -1.254,1.253 0,0.683 0.572,1.255 1.254,1.255 0.683,0 1.255,-0.572 1.255,-1.255 0,-0.681 -0.572,-1.253 -1.255,-1.253"
           style="fill:#595757;fill-opacity:1;fill-rule:nonzero;stroke:none"
           id="path12704" />
        <g
           id="g12706"
           transform="translate(317.6982,347.6143)">
          <path
             d="m 0,0 c -0.366,-0.287 -1.018,-0.508 -1.698,-0.508 -1.349,0 -2.223,1.047 -2.223,2.507 v 3.936 h -1.396 v 2.063 h 1.396 v 2.143 l 2.192,1.095 V 7.998 h 2 V 5.935 h -2 V 2.586 c 0,-0.793 0.284,-1 0.806,-1 0.398,0 0.699,0.175 1.24,0.636 z"
             style="fill:#595757;fill-opacity:1;fill-rule:nonzero;stroke:none"
             id="path12708" />
        </g>
        <g
           id="g12710"
           transform="translate(323.1094,344.3433)">
          <path
             d="m 0,0 h -2.159 l 1.11,2.937 -3.237,8.332 h 2.414 L -0.508,7.254 C -0.286,6.619 -0.063,5.825 0.031,5.429 0.128,5.841 0.35,6.603 0.571,7.254 l 1.365,4.015 h 2.35 z"
             style="fill:#595757;fill-opacity:1;fill-rule:nonzero;stroke:none"
             id="path12712" />
        </g>
        <g
           id="g12714"
           transform="translate(210.2725,369.9526)">
          <path
             d="M 0,0 V 3.914 H -3.36 V -1.3 c 0,-2.284 1.056,-3.153 3.022,-3.153 h 12.672 v 2.926 H 1.266 C 0.046,-1.527 0,-1.065 0,0 m -15.048,17.813 h -3.45 v -2.919 h 3.45 V 12.19 h -3.45 V 9.272 h 3.45 V 6.559 h 3.452 v 13.365 h -3.452 z M -26.293,6.752 h -0.009 -0.006 z m -2.745,6.67 c 0,2.12 0.876,3.689 2.736,3.693 1.865,-0.004 2.742,-1.573 2.742,-3.693 0,-2.117 -0.877,-3.66 -2.742,-3.665 -1.86,0.005 -2.736,1.548 -2.736,3.665 m 9.018,0 c 0,3.934 -2.65,6.694 -6.282,6.698 -3.627,-0.004 -6.276,-2.764 -6.276,-6.698 0,-3.93 2.649,-6.665 6.276,-6.67 3.632,0.005 6.282,2.74 6.282,6.67 m -6.288,6.698 h 0.006 0.009 z m 6.65,-23.153 c -2.175,0 -3.785,0.929 -3.785,2.908 0,1.98 1.638,2.939 3.785,2.939 1.958,0 3.757,-0.959 3.757,-2.939 0,-1.979 -1.583,-2.908 -3.757,-2.908 m 0,8.887 c -4.316,0 -7.344,-2.536 -7.344,-5.976 0,-3.44 3.028,-5.951 7.344,-5.951 4.313,0 7.316,2.511 7.316,5.951 0,3.44 -3.003,5.976 -7.316,5.976 M -1,11.882 C 0.68,8.21 4.255,6.369 4.255,6.369 l 1.654,2.39 c 0,0 -5.25,2.951 -5.121,10.255 V 19.29 H -2.791 V 19.014 C -2.663,11.71 -7.914,8.759 -7.914,8.759 l 1.654,-2.39 c 0,0 3.576,1.841 5.256,5.513 z m 12.979,8.051 H 8.623 V 2.669 h 3.356 v 8.673 h 3.216 v 2.911 H 11.979 Z M 59.558,4.125 46.963,4.123 V 1.208 h 10.979 c 1.221,0 1.281,-0.452 1.281,-1.518 v -4.205 h 3.355 v 5.487 c 0,2.283 -1.056,3.153 -3.02,3.153 m -12.595,7.573 c 0,1.562 1.277,2.319 2.953,2.319 1.528,0 2.929,-0.757 2.929,-2.319 0,-1.561 -1.235,-2.295 -2.929,-2.295 -1.696,0 -2.953,0.734 -2.953,2.295 m 9.036,10e-4 c 0,1.862 -1.016,3.41 -2.677,4.29 h 3.399 v 2.702 h -5.019 v 2.013 h -3.539 v -2.013 h -5.044 v -2.702 h 3.383 c -1.668,-0.88 -2.691,-2.428 -2.691,-4.29 0,-2.921 2.519,-5.054 6.105,-5.054 3.586,0 6.083,2.133 6.083,5.054 m 6.578,8.241 H 59.223 V 5.733 h 3.355 l -0.001,5.846 h 3.291 v 2.932 H 62.577 Z M 82.802,13.933 V 4.604 h 3.406 v 10.519 c 0,1.553 -0.107,3.647 -3.08,3.647 H 69.31 v -2.973 h 11.489 c 1.954,0 2.003,-0.217 2.003,-1.864 M 80.546,1.409 V 9.1 H 77.241 V 1.409 H 75.006 V 9.098 H 71.729 V 1.409 H 67.618 V -1.574 H 87.487 V 1.409 Z M 21.969,7.371 v 8.496 h 6.335 v 2.912 H 18.641 V 5.817 c 0,-2.227 1.004,-3.106 2.875,-3.148 h 7.083 v 2.923 l -5.224,0.006 c -1.354,0 -1.406,0.589 -1.406,1.773 m 13.886,5.025 H 33.559 V 19.94 H 30.272 V -4.523 h 3.287 V 9.508 h 2.296 V -4.523 H 39.17 V 19.94 h -3.315 z"
             style="fill:#595757;fill-opacity:1;fill-rule:nonzero;stroke:none"
             id="path12716" />
        </g>
        <g
           id="g12718"
           transform="translate(104.4077,40.2021)">
          <path
             d="m 0,0 c -0.204,0.393 -0.53,0.621 -1.045,0.621 -0.857,0 -1.347,-0.752 -1.347,-1.812 0,-1.03 0.498,-1.813 1.356,-1.813 0.514,0 0.816,0.221 1.118,0.727 l 0.963,-0.572 c -0.392,-0.807 -1.078,-1.289 -2.114,-1.289 -1.494,0 -2.497,1.142 -2.497,2.947 0,1.739 1.045,2.946 2.538,2.946 1.077,0 1.73,-0.523 2.089,-1.265 z"
             style="fill:#595757;fill-opacity:1;fill-rule:nonzero;stroke:none"
             id="path12720" />
        </g>
        <g
           id="g12722"
           transform="translate(107.8481,39.4434)">
          <path
             d="m 0,0 c -0.539,0 -0.792,-0.49 -0.792,-1.15 0,-0.662 0.253,-1.144 0.792,-1.144 0.539,0 0.8,0.548 0.8,1.144 C 0.8,-0.498 0.539,0 0,0 m 0,-3.379 c -1.118,0 -1.935,0.914 -1.935,2.229 0,1.313 0.817,2.236 1.935,2.236 1.119,0 1.942,-0.923 1.942,-2.236 0,-1.315 -0.823,-2.229 -1.942,-2.229"
             style="fill:#595757;fill-opacity:1;fill-rule:nonzero;stroke:none"
             id="path12724" />
        </g>
        <g
           id="g12726"
           transform="translate(110.5854,36.1543)">
          <path
             d="M 0,0 V 5.387 L 1.126,5.95 V 0 Z"
             style="fill:#595757;fill-opacity:1;fill-rule:nonzero;stroke:none"
             id="path12728" />
        </g>
        <g
           id="g12730"
           transform="translate(112.7671,36.1543)">
          <path
             d="M 0,0 V 5.387 L 1.126,5.95 V 0 Z"
             style="fill:#595757;fill-opacity:1;fill-rule:nonzero;stroke:none"
             id="path12732" />
        </g>
        <g
           id="g12734"
           transform="translate(116.5391,39.5498)">
          <path
             d="m 0,0 c -0.408,0 -0.661,-0.335 -0.702,-0.768 h 1.47 C 0.735,-0.384 0.506,0 0,0 m 1.845,-1.616 h -2.563 c 0.041,-0.588 0.473,-0.808 0.882,-0.808 0.309,0 0.571,0.113 0.734,0.302 l 0.8,-0.67 c -0.343,-0.44 -0.963,-0.693 -1.534,-0.693 -1.233,0 -2.017,0.873 -2.017,2.228 0,1.314 0.825,2.236 1.911,2.236 1.142,0 1.803,-1.011 1.803,-2.236 0,-0.164 -0.008,-0.278 -0.016,-0.359"
             style="fill:#595757;fill-opacity:1;fill-rule:nonzero;stroke:none"
             id="path12736" />
        </g>
        <g
           id="g12738"
           transform="translate(121.5293,39.1006)">
          <path
             d="m 0,0 c -0.171,0.236 -0.433,0.367 -0.759,0.367 -0.433,0 -0.67,-0.376 -0.67,-1.094 0,-0.881 0.295,-1.248 0.736,-1.248 0.351,0 0.53,0.146 0.693,0.359 z m -0.718,-4.521 -0.4,0.848 C -0.236,-3.551 0,-3.338 0,-2.678 c -0.212,-0.187 -0.498,-0.358 -0.906,-0.358 -0.914,0 -1.665,0.684 -1.665,2.285 0,1.281 0.604,2.18 1.665,2.18 0.375,0 0.702,-0.148 0.906,-0.335 v 0.245 h 1.127 v -3.56 c 0,-1.412 -0.344,-2.138 -1.845,-2.3"
             style="fill:#595757;fill-opacity:1;fill-rule:nonzero;stroke:none"
             id="path12740" />
        </g>
        <g
           id="g12742"
           transform="translate(125.2788,39.5498)">
          <path
             d="M 0,0 C -0.408,0 -0.661,-0.335 -0.701,-0.768 H 0.768 C 0.735,-0.384 0.506,0 0,0 m 1.845,-1.616 h -2.563 c 0.041,-0.588 0.474,-0.808 0.882,-0.808 0.31,0 0.571,0.113 0.734,0.302 l 0.8,-0.67 c -0.343,-0.44 -0.963,-0.693 -1.534,-0.693 -1.233,0 -2.017,0.873 -2.017,2.228 0,1.314 0.825,2.236 1.911,2.236 1.143,0 1.804,-1.011 1.804,-2.236 0,-0.164 -0.009,-0.278 -0.017,-0.359"
             style="fill:#595757;fill-opacity:1;fill-rule:nonzero;stroke:none"
             id="path12744" />
        </g>
        <g
           id="g12746"
           transform="translate(131.8779,39.4434)">
          <path
             d="m 0,0 c -0.539,0 -0.792,-0.49 -0.792,-1.15 0,-0.662 0.253,-1.144 0.792,-1.144 0.539,0 0.8,0.548 0.8,1.144 C 0.8,-0.498 0.539,0 0,0 m 0,-3.379 c -1.118,0 -1.935,0.914 -1.935,2.229 0,1.313 0.817,2.236 1.935,2.236 1.119,0 1.942,-0.923 1.942,-2.236 0,-1.315 -0.823,-2.229 -1.942,-2.229"
             style="fill:#595757;fill-opacity:1;fill-rule:nonzero;stroke:none"
             id="path12748" />
        </g>
        <g
           id="g12750"
           transform="translate(136.272,41.1416)">
          <path
             d="m 0,0 c -0.334,0 -0.416,-0.106 -0.416,-0.343 v -0.359 h 0.727 v -1.062 h -0.727 v -3.223 h -1.126 v 3.223 h -0.515 v 1.062 h 0.515 v 0.514 c 0,0.799 0.44,1.126 1.224,1.126 0.277,0 0.514,-0.041 0.711,-0.123 V -0.09 C 0.278,-0.033 0.164,0 0,0"
             style="fill:#595757;fill-opacity:1;fill-rule:nonzero;stroke:none"
             id="path12752" />
        </g>
        <g
           id="g12754"
           transform="translate(140.9282,40.75)">
          <path
             d="m 0,0 v -1.078 h 1.723 v -1.11 H 0 V -4.596 H -1.142 V 1.117 H 2.947 L 2.947,0 Z"
             style="fill:#595757;fill-opacity:1;fill-rule:nonzero;stroke:none"
             id="path12756" />
        </g>
        <g
           id="g12758"
           transform="translate(145.5586,39.4434)">
          <path
             d="m 0,0 c -0.538,0 -0.791,-0.49 -0.791,-1.15 0,-0.662 0.253,-1.144 0.791,-1.144 0.539,0 0.801,0.548 0.801,1.144 C 0.801,-0.498 0.539,0 0,0 m 0,-3.379 c -1.117,0 -1.934,0.914 -1.934,2.229 0,1.313 0.817,2.236 1.934,2.236 1.119,0 1.943,-0.923 1.943,-2.236 0,-1.315 -0.824,-2.229 -1.943,-2.229"
             style="fill:#595757;fill-opacity:1;fill-rule:nonzero;stroke:none"
             id="path12760" />
        </g>
        <g
           id="g12762"
           transform="translate(150.7617,39.125)">
          <path
             d="m 0,0 c -0.18,0.163 -0.399,0.277 -0.652,0.277 -0.442,0 -0.727,-0.187 -0.727,-0.929 v -2.319 h -1.127 v 4.285 h 1.127 V 1.028 c 0.195,0.204 0.483,0.376 0.882,0.376 0.366,0 0.644,-0.147 0.792,-0.301 z"
             style="fill:#595757;fill-opacity:1;fill-rule:nonzero;stroke:none"
             id="path12764" />
        </g>
        <g
           id="g12766"
           transform="translate(153.1396,39.5498)">
          <path
             d="m 0,0 c -0.407,0 -0.661,-0.335 -0.701,-0.768 h 1.47 C 0.735,-0.384 0.507,0 0,0 m 1.845,-1.616 h -2.563 c 0.041,-0.588 0.474,-0.808 0.881,-0.808 0.311,0 0.572,0.113 0.735,0.302 l 0.8,-0.67 c -0.343,-0.44 -0.963,-0.693 -1.535,-0.693 -1.232,0 -2.016,0.873 -2.016,2.228 0,1.314 0.825,2.236 1.911,2.236 1.142,0 1.804,-1.011 1.804,-2.236 0,-0.164 -0.009,-0.278 -0.017,-0.359"
             style="fill:#595757;fill-opacity:1;fill-rule:nonzero;stroke:none"
             id="path12768" />
        </g>
        <path
           d="m 155.82,40.439 h 1.126 v -4.285 h -1.126 z m 0.563,0.351 c -0.352,0 -0.645,0.294 -0.645,0.645 0,0.351 0.293,0.645 0.645,0.645 0.35,0 0.644,-0.294 0.644,-0.645 0,-0.351 -0.294,-0.645 -0.644,-0.645"
           style="fill:#595757;fill-opacity:1;fill-rule:nonzero;stroke:none"
           id="path12770" />
        <g
           id="g12772"
           transform="translate(160.3115,39.1006)">
          <path
             d="m 0,0 c -0.172,0.236 -0.434,0.367 -0.76,0.367 -0.432,0 -0.669,-0.376 -0.669,-1.094 0,-0.881 0.294,-1.248 0.735,-1.248 0.351,0 0.53,0.146 0.694,0.359 z m -0.719,-4.521 -0.399,0.848 C -0.237,-3.551 0,-3.338 0,-2.678 c -0.213,-0.187 -0.499,-0.358 -0.906,-0.358 -0.914,0 -1.665,0.684 -1.665,2.285 0,1.281 0.603,2.18 1.665,2.18 0.375,0 0.702,-0.148 0.906,-0.335 v 0.245 h 1.126 v -3.56 c 0,-1.412 -0.343,-2.138 -1.845,-2.3"
             style="fill:#595757;fill-opacity:1;fill-rule:nonzero;stroke:none"
             id="path12774" />
        </g>
        <g
           id="g12776"
           transform="translate(165.0156,36.1543)">
          <path
             d="m 0,0 v 2.318 c 0,0.767 -0.261,0.995 -0.727,0.995 -0.464,0 -0.734,-0.228 -0.734,-0.971 V 0 h -1.127 v 4.285 h 1.127 V 3.999 c 0.196,0.204 0.555,0.376 1.004,0.376 1.094,0 1.584,-0.751 1.584,-1.96 V 0 Z"
             style="fill:#595757;fill-opacity:1;fill-rule:nonzero;stroke:none"
             id="path12778" />
        </g>
        <g
           id="g12780"
           transform="translate(169.5098,36.1543)">
          <path
             d="M 0,0 V 5.713 H 1.142 V 1.126 H 4.007 V 0 Z"
             style="fill:#595757;fill-opacity:1;fill-rule:nonzero;stroke:none"
             id="path12782" />
        </g>
        <g
           id="g12784"
           transform="translate(176.6211,37.9502)">
          <path
             d="m 0,0 c -0.195,0.122 -0.383,0.179 -0.783,0.179 -0.424,0 -0.653,-0.196 -0.653,-0.538 0,-0.303 0.171,-0.573 0.653,-0.573 0.368,0 0.661,0.188 0.783,0.393 z m 0,-1.796 v 0.285 c -0.203,-0.212 -0.563,-0.375 -0.963,-0.375 -0.799,0 -1.6,0.49 -1.6,1.527 0,0.946 0.768,1.42 1.74,1.42 0.391,0 0.644,-0.082 0.823,-0.172 v 0.213 c 0,0.301 -0.203,0.546 -0.611,0.546 -0.514,0 -0.784,-0.073 -1.176,-0.286 l -0.432,0.784 c 0.497,0.286 0.914,0.433 1.608,0.433 1.037,0 1.738,-0.539 1.738,-1.503 v -2.872 z"
             style="fill:#595757;fill-opacity:1;fill-rule:nonzero;stroke:none"
             id="path12786" />
        </g>
        <g
           id="g12788"
           transform="translate(181.2695,36.1543)">
          <path
             d="m 0,0 v 2.318 c 0,0.767 -0.262,0.995 -0.727,0.995 -0.465,0 -0.734,-0.228 -0.734,-0.971 V 0 h -1.127 v 4.285 h 1.127 V 3.999 c 0.195,0.204 0.555,0.376 1.004,0.376 1.094,0 1.584,-0.751 1.584,-1.96 V 0 Z"
             style="fill:#595757;fill-opacity:1;fill-rule:nonzero;stroke:none"
             id="path12790" />
        </g>
        <g
           id="g12792"
           transform="translate(185.6807,39.1006)">
          <path
             d="m 0,0 c -0.171,0.236 -0.433,0.367 -0.759,0.367 -0.433,0 -0.67,-0.376 -0.67,-1.094 0,-0.881 0.294,-1.248 0.736,-1.248 0.35,0 0.53,0.146 0.693,0.359 z m -0.719,-4.521 -0.399,0.848 C -0.236,-3.551 0,-3.338 0,-2.678 c -0.213,-0.187 -0.498,-0.358 -0.906,-0.358 -0.914,0 -1.665,0.684 -1.665,2.285 0,1.281 0.603,2.18 1.665,2.18 0.375,0 0.702,-0.148 0.906,-0.335 v 0.245 h 1.127 v -3.56 c 0,-1.412 -0.344,-2.138 -1.846,-2.3"
             style="fill:#595757;fill-opacity:1;fill-rule:nonzero;stroke:none"
             id="path12794" />
        </g>
        <g
           id="g12796"
           transform="translate(190.3438,36.1543)">
          <path
             d="M 0,0 V 0.285 C -0.195,0.081 -0.555,-0.09 -1.004,-0.09 c -1.094,0 -1.584,0.75 -1.584,1.959 v 2.416 h 1.127 V 1.967 C -1.461,1.199 -1.2,0.972 -0.734,0.972 -0.269,0.972 0,1.199 0,1.942 V 4.285 H 1.126 V 0 Z"
             style="fill:#595757;fill-opacity:1;fill-rule:nonzero;stroke:none"
             id="path12798" />
        </g>
        <g
           id="g12800"
           transform="translate(194.8037,37.9502)">
          <path
             d="m 0,0 c -0.195,0.122 -0.383,0.179 -0.783,0.179 -0.425,0 -0.654,-0.196 -0.654,-0.538 0,-0.303 0.171,-0.573 0.654,-0.573 0.367,0 0.661,0.188 0.783,0.393 z m 0,-1.796 v 0.285 c -0.204,-0.212 -0.563,-0.375 -0.963,-0.375 -0.8,0 -1.6,0.49 -1.6,1.527 0,0.946 0.768,1.42 1.74,1.42 0.39,0 0.644,-0.082 0.823,-0.172 v 0.213 c 0,0.301 -0.204,0.546 -0.612,0.546 -0.514,0 -0.784,-0.073 -1.175,-0.286 L -2.22,2.146 c 0.498,0.286 0.914,0.433 1.608,0.433 1.037,0 1.739,-0.539 1.739,-1.503 v -2.872 z"
             style="fill:#595757;fill-opacity:1;fill-rule:nonzero;stroke:none"
             id="path12802" />
        </g>
        <g
           id="g12804"
           transform="translate(199.2148,39.1006)">
          <path
             d="m 0,0 c -0.171,0.236 -0.433,0.367 -0.759,0.367 -0.432,0 -0.67,-0.376 -0.67,-1.094 0,-0.881 0.294,-1.248 0.736,-1.248 0.35,0 0.53,0.146 0.693,0.359 z m -0.719,-4.521 -0.399,0.848 C -0.236,-3.551 0,-3.338 0,-2.678 c -0.213,-0.187 -0.498,-0.358 -0.906,-0.358 -0.914,0 -1.665,0.684 -1.665,2.285 0,1.281 0.603,2.18 1.665,2.18 0.375,0 0.702,-0.148 0.906,-0.335 v 0.245 h 1.127 v -3.56 c 0,-1.412 -0.344,-2.138 -1.846,-2.3"
             style="fill:#595757;fill-opacity:1;fill-rule:nonzero;stroke:none"
             id="path12806" />
        </g>
        <g
           id="g12808"
           transform="translate(202.9639,39.5498)">
          <path
             d="m 0,0 c -0.408,0 -0.661,-0.335 -0.702,-0.768 h 1.47 C 0.734,-0.384 0.506,0 0,0 m 1.845,-1.616 h -2.563 c 0.04,-0.588 0.473,-0.808 0.881,-0.808 0.31,0 0.571,0.113 0.735,0.302 l 0.799,-0.67 c -0.342,-0.44 -0.963,-0.693 -1.534,-0.693 -1.232,0 -2.017,0.873 -2.017,2.228 0,1.314 0.826,2.236 1.912,2.236 1.142,0 1.803,-1.011 1.803,-2.236 0,-0.164 -0.008,-0.278 -0.016,-0.359"
             style="fill:#595757;fill-opacity:1;fill-rule:nonzero;stroke:none"
             id="path12810" />
        </g>
        <g
           id="g12812"
           transform="translate(73.5283,43.8398)">
          <path
             d="m 0,0 c -0.922,0.73 -2.339,1.233 -4.35,1.764 -0.621,0.188 -0.97,0.324 -1.157,0.46 -0.182,0.134 -0.212,0.254 -0.215,0.466 0.003,0.207 0.054,0.336 0.214,0.429 0.163,0.093 0.455,0.143 0.928,0.142 1.237,0 2.642,-0.376 4.512,-1.189 L -0.014,2.048 1.103,5.925 1.057,5.943 c -1.903,0.679 -3.351,1.035 -5.502,1.035 -1.948,0 -3.413,-0.437 -4.393,-1.249 -0.981,-0.81 -1.469,-1.997 -1.468,-3.473 -0.002,-1.488 0.387,-2.476 1.328,-3.225 0.944,-0.749 2.428,-1.262 4.628,-1.846 0.46,-0.123 0.739,-0.231 0.896,-0.359 0.156,-0.127 0.204,-0.264 0.205,-0.488 C -3.25,-3.866 -3.324,-4 -3.515,-4.104 c -0.194,-0.102 -0.512,-0.157 -0.984,-0.157 -1.236,0 -3.189,0.489 -4.891,1.244 l -0.054,0.024 -1.173,-3.796 0.045,-0.018 c 1.824,-0.705 3.867,-1.169 5.965,-1.169 1.825,0 3.31,0.38 4.341,1.182 1.032,0.801 1.603,2.022 1.601,3.677 C 1.337,-1.699 0.921,-0.732 0,0"
             style="fill:#595757;fill-opacity:1;fill-rule:nonzero;stroke:none"
             id="path12814" />
        </g>
        <g
           id="g12816"
           transform="translate(86.2305,35.8643)">
          <path
             d="m 0,0 c -4.777,0 -8.28,2.376 -8.28,8.372 v 10.83 h 5.376 V 8.372 c 0,-2.324 0.921,-3.754 2.986,-3.754 2.062,0 2.93,1.43 2.93,3.754 v 10.83 H 8.388 V 8.372 C 8.388,2.376 4.777,0 0,0"
             style="fill:#ea5505;fill-opacity:1;fill-rule:nonzero;stroke:none"
             id="path12818" />
        </g>
        <g
           id="g12820"
           transform="translate(65.4434,46.7871)">
          <path
             d="m 0,0 -3.487,-0.702 c 3.68,6.183 0.344,10.959 0.344,10.959 l 4.367,1.08 C 4.862,5.804 0,0 0,0"
             style="fill:#ea5505;fill-opacity:1;fill-rule:nonzero;stroke:none"
             id="path12822" />
        </g>
        <g
           id="g12824"
           transform="translate(59.4922,55.2686)">
          <path
             d="m 0,0 -1.584,-2.905 c -0.96,-1.896 -1.748,-3.641 -2.124,-4.768 -0.378,1.127 -1.165,2.872 -2.125,4.768 L -7.415,0 h -6.205 l 7.171,-12.064 v -7.041 h 5.426 v 7.124 L 6.149,0 Z"
             style="fill:#595757;fill-opacity:1;fill-rule:nonzero;stroke:none"
             id="path12826" />
        </g>
        <g
           id="g12828"
           transform="translate(105.6914,49.4092)">
          <path
             d="m 0,0 v -3.679 h -1.86 v 3.639 l -3.519,5.658 h 2.139 l 1.315,-2.205 c 0.331,-0.558 0.836,-1.475 1.008,-1.818 0.173,0.343 0.665,1.234 1.011,1.818 L 1.408,5.618 H 3.52 Z"
             style="fill:#595757;fill-opacity:1;fill-rule:nonzero;stroke:none"
             id="path12830" />
        </g>
        <g
           id="g12832"
           transform="translate(111.4561,51.082)">
          <path
             d="m 0,0 c -0.877,0 -1.289,-0.798 -1.289,-1.872 0,-1.076 0.412,-1.859 1.289,-1.859 0.876,0 1.302,0.889 1.302,1.859 C 1.302,-0.81 0.876,0 0,0 m 0,-5.498 c -1.819,0 -3.148,1.486 -3.148,3.626 0,2.138 1.329,3.639 3.148,3.639 1.82,0 3.161,-1.501 3.161,-3.639 0,-2.14 -1.341,-3.626 -3.161,-3.626"
             style="fill:#595757;fill-opacity:1;fill-rule:nonzero;stroke:none"
             id="path12834" />
        </g>
        <g
           id="g12836"
           transform="translate(119.9839,45.7305)">
          <path
             d="m 0,0 v 0.464 c -0.32,-0.332 -0.904,-0.61 -1.635,-0.61 -1.78,0 -2.577,1.22 -2.577,3.188 v 3.932 h 1.834 V 3.201 C -2.378,1.952 -1.953,1.58 -1.196,1.58 -0.439,1.58 0,1.952 0,3.16 V 6.974 H 1.833 V 0 Z"
             style="fill:#595757;fill-opacity:1;fill-rule:nonzero;stroke:none"
             id="path12838" />
        </g>
        <g
           id="g12840"
           transform="translate(127.6074,45.7305)">
          <path
             d="m 0,0 v 3.771 c 0,1.249 -0.425,1.621 -1.182,1.621 -0.757,0 -1.195,-0.372 -1.195,-1.58 V 0 H -4.21 v 6.974 h 1.833 V 6.508 c 0.318,0.332 0.903,0.61 1.633,0.61 1.78,0 2.577,-1.221 2.577,-3.188 l 0,-3.93 z"
             style="fill:#595757;fill-opacity:1;fill-rule:nonzero;stroke:none"
             id="path12842" />
        </g>
        <g
           id="g12844"
           transform="translate(134.7803,50.5244)">
          <path
             d="m 0,0 c -0.279,0.385 -0.704,0.598 -1.235,0.598 -0.704,0 -1.089,-0.611 -1.089,-1.78 0,-1.434 0.478,-2.032 1.195,-2.032 0.571,0 0.863,0.239 1.129,0.584 z m -1.168,-7.359 -0.651,1.381 C -0.385,-5.777 0,-5.432 0,-4.356 -0.345,-4.662 -0.81,-4.94 -1.474,-4.94 c -1.487,0 -2.71,1.116 -2.71,3.717 0,2.087 0.983,3.547 2.71,3.547 0.611,0 1.141,-0.238 1.474,-0.545 V 2.18 h 1.833 v -5.792 c 0,-2.299 -0.557,-3.481 -3.001,-3.747"
             style="fill:#595757;fill-opacity:1;fill-rule:nonzero;stroke:none"
             id="path12846" />
        </g>
        <g
           id="g12848"
           transform="translate(140.8901,45.584)">
          <path
             d="m 0,0 c -1.102,0 -2.177,0.319 -2.922,0.81 l 0.611,1.393 c 0.744,-0.41 1.528,-0.636 2.418,-0.636 0.717,0 0.93,0.173 0.93,0.532 0,0.317 -0.253,0.477 -1.024,0.702 -1.674,0.506 -2.749,0.917 -2.749,2.391 0,1.449 1.156,2.073 2.79,2.073 0.876,0 1.833,-0.266 2.576,-0.677 L 2.045,5.14 C 1.355,5.512 0.599,5.698 0.013,5.698 -0.73,5.698 -0.929,5.552 -0.929,5.247 -0.929,4.954 -0.717,4.834 0.519,4.436 1.767,4.024 2.843,3.573 2.843,2.178 2.843,0.571 1.569,0 0,0"
             style="fill:#595757;fill-opacity:1;fill-rule:nonzero;stroke:none"
             id="path12850" />
        </g>
        <g
           id="g12852"
           transform="translate(148.9277,48.6514)">
          <path
             d="m 0,0 c -0.318,0.199 -0.625,0.293 -1.275,0.293 -0.691,0 -1.063,-0.319 -1.063,-0.877 0,-0.49 0.279,-0.93 1.063,-0.93 0.597,0 1.077,0.305 1.275,0.637 z m 0,-2.921 v 0.464 c -0.332,-0.345 -0.917,-0.61 -1.566,-0.61 -1.303,0 -2.604,0.795 -2.604,2.483 0,1.541 1.248,2.313 2.828,2.313 0.639,0 1.049,-0.133 1.342,-0.281 v 0.347 c 0,0.49 -0.332,0.888 -0.996,0.888 -0.836,0 -1.275,-0.119 -1.912,-0.463 l -0.705,1.274 c 0.81,0.465 1.488,0.703 2.617,0.703 1.687,0 2.829,-0.876 2.829,-2.442 v -4.676 z"
             style="fill:#595757;fill-opacity:1;fill-rule:nonzero;stroke:none"
             id="path12854" />
        </g>
        <g
           id="g12856"
           transform="translate(156.4863,45.7305)">
          <path
             d="m 0,0 v 3.771 c 0,1.249 -0.426,1.621 -1.183,1.621 -0.756,0 -1.195,-0.372 -1.195,-1.58 V 0 h -1.833 v 6.974 h 1.833 V 6.508 c 0.318,0.332 0.903,0.61 1.633,0.61 1.781,0 2.577,-1.221 2.577,-3.188 l 0,-3.93 z"
             style="fill:#595757;fill-opacity:1;fill-rule:nonzero;stroke:none"
             id="path12858" />
        </g>
        <g
           id="g12860"
           transform="translate(167.4834,45.584)">
          <path
             d="m 0,0 c -2.244,0 -3.759,1.513 -3.759,4.223 v 5.22 h 1.86 V 4.249 C -1.899,2.762 -1.181,1.82 0,1.82 c 1.183,0 1.913,0.915 1.913,2.403 v 5.22 h 1.86 V 4.249 C 3.773,1.554 2.365,0 0,0"
             style="fill:#595757;fill-opacity:1;fill-rule:nonzero;stroke:none"
             id="path12862" />
        </g>
        <g
           id="g12864"
           transform="translate(177.0361,45.7305)">
          <path
             d="m 0,0 v 3.771 c 0,1.249 -0.425,1.621 -1.183,1.621 -0.756,0 -1.194,-0.372 -1.194,-1.58 V 0 h -1.834 v 6.974 h 1.834 V 6.508 c 0.319,0.332 0.903,0.61 1.634,0.61 1.779,0 2.576,-1.221 2.576,-3.188 l 0,-3.93 z"
             style="fill:#595757;fill-opacity:1;fill-rule:nonzero;stroke:none"
             id="path12866" />
        </g>
        <path
           d="m 180.45,52.704 h 1.833 V 45.73 h -1.833 z m 0.917,0.57 c -0.571,0 -1.051,0.48 -1.051,1.049 0,0.573 0.48,1.048 1.051,1.048 0.571,0 1.048,-0.475 1.048,-1.048 0,-0.569 -0.477,-1.049 -1.048,-1.049"
           style="fill:#595757;fill-opacity:1;fill-rule:nonzero;stroke:none"
           id="path12868" />
        <g
           id="g12870"
           transform="translate(187.7686,45.7305)">
          <path
             d="m 0,0 h -1.886 l -2.511,6.974 h 2.019 l 1.024,-3.23 c 0.171,-0.53 0.358,-1.194 0.437,-1.525 0.079,0.344 0.267,0.982 0.439,1.525 l 1.022,3.23 H 2.51 Z"
             style="fill:#595757;fill-opacity:1;fill-rule:nonzero;stroke:none"
             id="path12872" />
        </g>
        <g
           id="g12874"
           transform="translate(193.7314,51.2559)">
          <path
             d="M 0,0 C -0.665,0 -1.075,-0.546 -1.142,-1.249 H 1.249 C 1.195,-0.624 0.824,0 0,0 m 3.002,-2.631 h -4.171 c 0.066,-0.956 0.771,-1.314 1.434,-1.314 0.506,0 0.93,0.185 1.196,0.49 L 2.763,-4.543 C 2.205,-5.261 1.195,-5.672 0.265,-5.672 c -2.005,0 -3.281,1.42 -3.281,3.626 0,2.138 1.342,3.639 3.109,3.639 1.86,0 2.935,-1.648 2.935,-3.639 0,-0.266 -0.012,-0.451 -0.026,-0.585"
             style="fill:#595757;fill-opacity:1;fill-rule:nonzero;stroke:none"
             id="path12876" />
        </g>
        <g
           id="g12878"
           transform="translate(202.0996,50.5645)">
          <path
             d="m 0,0 c -0.292,0.267 -0.651,0.452 -1.063,0.452 -0.717,0 -1.182,-0.306 -1.182,-1.515 V -4.834 H -4.077 V 2.14 h 1.832 V 1.674 c 0.318,0.332 0.783,0.61 1.434,0.61 0.598,0 1.05,-0.238 1.289,-0.491 z"
             style="fill:#595757;fill-opacity:1;fill-rule:nonzero;stroke:none"
             id="path12880" />
        </g>
        <g
           id="g12882"
           transform="translate(205.8975,45.584)">
          <path
             d="m 0,0 c -1.102,0 -2.177,0.319 -2.922,0.81 l 0.611,1.393 c 0.745,-0.41 1.528,-0.636 2.418,-0.636 0.718,0 0.93,0.173 0.93,0.532 0,0.317 -0.253,0.477 -1.023,0.702 -1.673,0.506 -2.749,0.917 -2.749,2.391 0,1.449 1.154,2.073 2.789,2.073 0.876,0 1.833,-0.266 2.577,-0.677 L 2.046,5.14 C 1.355,5.512 0.6,5.698 0.014,5.698 c -0.743,0 -0.943,-0.146 -0.943,-0.451 0,-0.293 0.212,-0.413 1.447,-0.811 C 1.768,4.024 2.843,3.573 2.843,2.178 2.843,0.571 1.568,0 0,0"
             style="fill:#595757;fill-opacity:1;fill-rule:nonzero;stroke:none"
             id="path12884" />
        </g>
        <path
           d="m 210.229,52.704 h 1.833 V 45.73 h -1.833 z m 0.916,0.57 c -0.571,0 -1.05,0.48 -1.05,1.049 0,0.573 0.479,1.048 1.05,1.048 0.572,0 1.048,-0.475 1.048,-1.048 0,-0.569 -0.476,-1.049 -1.048,-1.049"
           style="fill:#595757;fill-opacity:1;fill-rule:nonzero;stroke:none"
           id="path12886" />
        <g
           id="g12888"
           transform="translate(217.6006,46.0088)">
          <path
             d="m 0,0 c -0.307,-0.24 -0.851,-0.425 -1.421,-0.425 -1.13,0 -1.86,0.876 -1.86,2.099 V 4.967 H -4.45 v 1.728 h 1.169 v 1.792 l 1.833,0.916 V 6.695 H 0.226 V 4.967 H -1.448 V 2.166 c 0,-0.665 0.239,-0.838 0.677,-0.838 0.332,0 0.584,0.147 1.037,0.531 z"
             style="fill:#595757;fill-opacity:1;fill-rule:nonzero;stroke:none"
             id="path12890" />
        </g>
        <g
           id="g12892"
           transform="translate(222.1299,43.2725)">
          <path
             d="m 0,0 h -1.807 l 0.93,2.458 -2.71,6.974 h 2.02 L -0.426,6.07 C -0.24,5.539 -0.054,4.876 0.026,4.543 0.105,4.888 0.292,5.526 0.478,6.07 L 1.62,9.432 h 1.966 z"
             style="fill:#595757;fill-opacity:1;fill-rule:nonzero;stroke:none"
             id="path12894" />
        </g>
        <path
           d="m 82.631,44.755 h -1.912 v 1.912 h 1.912 z"
           style="fill:none;stroke:#00a1e9;stroke-width:0.018;stroke-linecap:butt;stroke-linejoin:miter;stroke-miterlimit:4;stroke-dasharray:none;stroke-opacity:1"
           id="path12896" />
        <g
           id="g12898"
           transform="translate(275.6172,47.4932)">
          <path
             d="m 0,0 c -0.888,0.705 -2.255,1.19 -4.191,1.701 -0.599,0.183 -0.937,0.315 -1.117,0.443 -0.174,0.131 -0.205,0.245 -0.207,0.45 0.002,0.201 0.051,0.322 0.206,0.414 0.159,0.09 0.44,0.138 0.894,0.136 1.193,0 2.547,-0.363 4.349,-1.146 L -0.013,1.975 1.063,5.713 1.019,5.729 c -1.834,0.654 -3.23,0.997 -5.302,0.997 -1.877,0 -3.29,-0.42 -4.235,-1.202 -0.944,-0.783 -1.415,-1.926 -1.415,-3.35 -10e-4,-1.432 0.373,-2.383 1.282,-3.106 0.908,-0.723 2.339,-1.218 4.46,-1.781 0.442,-0.116 0.713,-0.222 0.864,-0.345 0.149,-0.122 0.194,-0.255 0.195,-0.469 -10e-4,-0.196 -0.071,-0.327 -0.256,-0.426 -0.186,-0.1 -0.494,-0.151 -0.948,-0.151 -1.191,0 -3.072,0.467 -4.714,1.199 l -0.053,0.021 -1.128,-3.655 0.043,-0.019 c 1.758,-0.681 3.725,-1.128 5.749,-1.128 1.757,0 3.188,0.369 4.183,1.139 0.994,0.774 1.544,1.95 1.544,3.541 C 1.288,-1.635 0.887,-0.704 0,0"
             style="fill:#595757;fill-opacity:1;fill-rule:nonzero;stroke:none"
             id="path12900" />
        </g>
        <g
           id="g12902"
           transform="translate(287.8584,39.8076)">
          <path
             d="m 0,0 c -4.604,0 -7.979,2.291 -7.979,8.069 v 10.436 h 5.18 V 8.069 c 0,-2.239 0.888,-3.619 2.878,-3.619 1.987,0 2.824,1.38 2.824,3.619 V 18.505 H 8.084 V 8.069 C 8.084,2.291 4.604,0 0,0"
             style="fill:#ea5505;fill-opacity:1;fill-rule:nonzero;stroke:none"
             id="path12904" />
        </g>
        <g
           id="g12906"
           transform="translate(267.8252,50.334)">
          <path
             d="m 0,0 -3.36,-0.675 c 3.547,5.957 0.332,10.56 0.332,10.56 l 4.207,1.042 C 4.685,5.593 0,0 0,0"
             style="fill:#ea5505;fill-opacity:1;fill-rule:nonzero;stroke:none"
             id="path12908" />
        </g>
        <g
           id="g12910"
           transform="translate(262.0898,58.5078)">
          <path
             d="m 0,0 -1.526,-2.798 c -0.925,-1.828 -1.683,-3.511 -2.047,-4.597 -0.365,1.086 -1.121,2.769 -2.048,4.597 L -7.146,0 h -5.979 l 6.911,-11.625 v -6.787 h 5.229 v 6.863 L 5.928,0 Z"
             style="fill:#595757;fill-opacity:1;fill-rule:nonzero;stroke:none"
             id="path12912" />
        </g>
        <g
           id="g12914"
           transform="translate(307.5273,29.9053)">
          <path
             d="m 0,0 h -0.704 c -0.104,0 -0.132,0.021 -0.132,0.132 v 6.371 c 0,0.103 0.028,0.131 0.132,0.131 H 0 c 0.104,0 0.132,-0.028 0.132,-0.131 V 0.132 C 0.132,0.021 0.104,0 0,0 m -3.257,5.417 c -0.464,0 -0.789,-0.298 -0.789,-0.789 0,-0.491 0.325,-0.781 0.789,-0.781 0.45,0 0.803,0.29 0.803,0.781 0,0.478 -0.353,0.789 -0.803,0.789 m 2.075,-3.915 c -1.265,-0.201 -2.8,-0.242 -4.101,-0.207 -0.112,0 -0.132,0.041 -0.132,0.144 v 0.499 c 0,0.104 0.028,0.144 0.132,0.144 0.505,-0.019 1.037,-0.019 1.57,-0.013 v 1.072 c -0.72,0.167 -1.244,0.719 -1.244,1.487 0,0.914 0.76,1.57 1.7,1.57 0.947,0 1.716,-0.656 1.716,-1.57 0,-0.747 -0.52,-1.314 -1.231,-1.48 v -1.05 c 0.504,0.027 0.996,0.075 1.473,0.151 0.138,0.021 0.158,0.008 0.18,-0.103 l 0.055,-0.5 C -1.043,1.516 -1.092,1.522 -1.182,1.502"
             style="fill:#595757;fill-opacity:1;fill-rule:nonzero;stroke:none"
             id="path12916" />
        </g>
        <g
           id="g12918"
           transform="translate(314.8086,33.3164)">
          <path
             d="m 0,0 h -2.49 v -0.879 h 1.197 c 0.4,0 0.483,-0.124 0.483,-0.518 v -1.874 c 0,-0.09 -0.041,-0.14 -0.131,-0.14 h -0.678 c -0.104,0 -0.152,0.05 -0.152,0.14 v 1.5 c 0,0.069 -0.035,0.103 -0.096,0.103 h -3.251 c -0.077,0 -0.14,0.015 -0.14,0.118 v 0.547 c 0,0.117 0.063,0.124 0.14,0.124 h 1.667 V 0 h -2.49 C -6.053,0 -6.08,0.034 -6.08,0.139 v 0.497 c 0,0.111 0.008,0.152 0.139,0.152 h 4.135 c 0.076,0.401 0.138,1.148 0.138,1.315 0,0.138 -0.013,0.193 -0.186,0.193 H -4.98 c -0.09,0 -0.146,0.007 -0.146,0.125 V 2.96 c 0,0.103 0.056,0.118 0.146,0.118 h 3.769 c 0.332,0 0.484,-0.125 0.484,-0.477 0,-0.492 -0.034,-1.169 -0.166,-1.813 H 0 c 0.097,0 0.145,-0.049 0.145,-0.152 V 0.139 C 0.145,0.027 0.083,0 0,0"
             style="fill:#595757;fill-opacity:1;fill-rule:nonzero;stroke:none"
             id="path12920" />
        </g>
        <g
           id="g12922"
           transform="translate(317.4678,35.3145)">
          <path
             d="m 0,0 c -0.457,0 -0.782,-0.643 -0.782,-1.521 0,-0.851 0.325,-1.501 0.782,-1.501 0.477,0 0.81,0.665 0.81,1.501 C 0.81,-0.643 0.477,0 0,0 m 0,-3.845 c -1.052,0 -1.722,1.017 -1.722,2.324 0,1.355 0.67,2.344 1.722,2.344 0.968,0 1.583,-0.788 1.715,-1.929 h 0.906 v 2.2 c 0,0.103 0.021,0.131 0.125,0.131 h 0.698 c 0.104,0 0.131,-0.028 0.131,-0.131 v -6.371 c 0,-0.111 -0.027,-0.132 -0.131,-0.132 H 2.746 c -0.104,0 -0.125,0.021 -0.125,0.132 v 3.382 H 1.723 C 1.611,-3.049 0.968,-3.845 0,-3.845"
             style="fill:#595757;fill-opacity:1;fill-rule:nonzero;stroke:none"
             id="path12924" />
        </g>
        <g
           id="g12926"
           transform="translate(327.9775,29.9053)">
          <path
             d="M 0,0 H -0.698 C -0.803,0 -0.823,0.021 -0.823,0.126 V 3.363 H -1.369 V 0.381 c 0,-0.117 -0.021,-0.124 -0.124,-0.124 h -0.651 c -0.104,0 -0.131,0.007 -0.131,0.124 v 6.004 c 0,0.104 0.027,0.125 0.131,0.125 h 0.651 c 0.103,0 0.124,-0.021 0.124,-0.125 V 4.144 h 0.546 V 6.51 c 0,0.103 0.028,0.124 0.132,0.124 H 0 c 0.104,0 0.125,-0.021 0.125,-0.124 V 0.126 C 0.125,0.021 0.104,0 0,0 m -2.732,2.021 c -0.623,-0.167 -1.57,-0.194 -2.2,-0.16 -0.386,0.022 -0.574,0.165 -0.574,0.547 v 3.265 c 0,0.366 0.09,0.443 0.478,0.443 h 1.916 c 0.103,0 0.138,-0.021 0.138,-0.125 V 5.444 c 0,-0.103 -0.035,-0.117 -0.138,-0.117 h -1.35 c -0.089,0 -0.096,-0.042 -0.096,-0.097 V 2.761 c 0,-0.105 0.021,-0.117 0.132,-0.124 0.47,-0.029 1.066,0.012 1.556,0.116 0.117,0.021 0.145,0.008 0.166,-0.097 L -2.621,2.173 C -2.601,2.069 -2.629,2.049 -2.732,2.021"
             style="fill:#595757;fill-opacity:1;fill-rule:nonzero;stroke:none"
             id="path12928" />
        </g>
        <g
           id="g12930"
           transform="translate(335.0635,33.8555)">
          <path
             d="m 0,0 h -0.857 v -1.334 c 0,-0.111 -0.021,-0.139 -0.125,-0.139 h -0.699 c -0.09,0 -0.138,0.048 -0.138,0.145 v 3.881 c 0,0.103 0.035,0.131 0.138,0.131 h 0.699 c 0.104,0 0.125,-0.028 0.125,-0.131 V 0.789 H 0 c 0.083,0 0.139,-0.008 0.139,-0.125 V 0.131 C 0.139,0.027 0.083,0 0,0 m -4.047,0.118 c -0.387,0 -0.629,-0.201 -0.629,-0.415 0,-0.222 0.242,-0.436 0.629,-0.436 0.396,0 0.631,0.209 0.631,0.436 0,0.214 -0.235,0.415 -0.631,0.415 m 3.051,-4.081 h -0.678 c -0.103,0 -0.152,0.048 -0.152,0.139 v 1.105 c 0,0.07 -0.033,0.105 -0.097,0.105 h -3.044 c -0.076,0 -0.131,0.007 -0.131,0.117 v 0.525 c 0,0.132 0.055,0.132 0.131,0.132 h 3.618 c 0.395,0 0.485,-0.132 0.485,-0.518 v -1.466 c 0,-0.091 -0.041,-0.139 -0.132,-0.139 m -2.172,5.942 h -1.799 c -0.076,0 -0.144,0.012 -0.144,0.144 v 0.409 c 0,0.117 0.068,0.138 0.144,0.138 h 1.799 c 0.104,0 0.152,-0.049 0.152,-0.146 V 2.131 c 0,-0.105 -0.02,-0.152 -0.152,-0.152 m -0.885,-3.424 c -0.823,0 -1.529,0.456 -1.529,1.148 0,0.678 0.706,1.134 1.535,1.134 0.831,0 1.543,-0.456 1.543,-1.134 0,-0.692 -0.712,-1.148 -1.549,-1.148 m 1.771,2.482 h -3.624 c -0.098,0 -0.146,0.049 -0.146,0.147 v 0.393 c 0,0.097 0.048,0.146 0.152,0.146 h 3.618 c 0.104,0 0.151,-0.049 0.151,-0.146 V 1.176 c 0,-0.09 -0.047,-0.139 -0.151,-0.139"
             style="fill:#595757;fill-opacity:1;fill-rule:nonzero;stroke:none"
             id="path12932" />
        </g>
        <g
           id="g12934"
           transform="translate(323.252,44.1914)">
          <path
             d="m 0,0 v 2.616 h -2.246 v -3.487 c 0,-1.529 0.707,-2.109 2.02,-2.109 h 8.478 v 1.958 H 0.849 C 0.032,-1.022 0,-0.715 0,0 m -10.066,11.915 h -2.31 V 9.962 h 2.31 V 8.153 h -2.31 v -1.95 h 2.31 V 4.386 h 2.309 v 8.94 h -2.309 z M -17.59,4.517 h -0.004 -0.005 z m -1.836,4.462 c 0,1.417 0.586,2.467 1.832,2.469 1.246,-0.002 1.834,-1.052 1.834,-2.469 0,-1.418 -0.588,-2.451 -1.834,-2.454 -1.246,0.003 -1.832,1.036 -1.832,2.454 m 6.033,0 c 0,2.63 -1.772,4.476 -4.201,4.479 -2.427,-0.003 -4.199,-1.849 -4.199,-4.479 0,-2.629 1.772,-4.459 4.199,-4.462 2.429,0.003 4.201,1.833 4.201,4.462 m -4.206,4.479 h 0.005 0.004 z m 4.449,-15.487 c -1.455,0 -2.532,0.621 -2.532,1.943 0,1.325 1.095,1.967 2.532,1.967 1.309,0 2.513,-0.642 2.513,-1.967 0,-1.322 -1.06,-1.943 -2.513,-1.943 m 0,5.945 c -2.887,0 -4.913,-1.699 -4.913,-3.999 0,-2.3 2.026,-3.98 4.913,-3.98 2.885,0 4.894,1.68 4.894,3.98 0,2.3 -2.009,3.999 -4.894,3.999 M -0.668,7.947 C 0.456,5.49 2.848,4.26 2.848,4.26 l 1.107,1.597 c 0,0 -3.514,1.976 -3.428,6.863 v 0.182 H -1.867 V 12.72 C -1.78,7.833 -5.293,5.857 -5.293,5.857 L -4.187,4.26 c 0,0 2.393,1.23 3.517,3.687 z m 8.682,5.387 H 5.771 V 1.783 h 2.243 v 5.803 h 2.152 V 9.532 H 8.014 Z M 39.844,2.757 h -8.426 v -1.95 h 7.346 c 0.816,0 0.856,-0.302 0.856,-1.016 v -2.812 h 2.243 l 0.002,3.67 c 0,1.528 -0.705,2.108 -2.021,2.108 m -8.426,5.066 c 0,1.046 0.855,1.552 1.976,1.552 1.022,0 1.96,-0.506 1.96,-1.552 0,-1.043 -0.828,-1.533 -1.96,-1.533 -1.134,0 -1.976,0.49 -1.976,1.533 m 6.045,0.002 c 0,1.245 -0.678,2.28 -1.79,2.871 h 2.273 v 1.807 h -3.357 v 1.347 h -2.368 v -1.347 h -3.375 v -1.807 h 2.264 c -1.116,-0.591 -1.8,-1.626 -1.8,-2.871 0,-1.954 1.684,-3.381 4.084,-3.381 2.398,0 4.069,1.427 4.069,3.381 m 4.4,5.514 H 39.62 V 3.833 h 2.245 l -0.002,3.912 h 2.202 V 9.707 H 41.863 Z M 55.396,9.32 V 3.077 h 2.277 v 7.039 c 0,1.039 -0.073,2.439 -2.062,2.439 h -9.243 v -1.988 h 7.687 c 1.306,0 1.341,-0.146 1.341,-1.247 M 53.884,0.942 v 5.144 h -2.21 V 0.942 H 50.179 V 6.086 H 47.986 V 0.942 H 45.235 V -1.055 H 58.529 V 0.942 Z M 14.697,4.931 v 5.682 h 4.239 v 1.95 H 12.471 V 3.891 c 0,-1.491 0.673,-2.078 1.924,-2.108 h 4.739 v 1.956 l -3.496,0.004 c -0.907,0 -0.941,0.395 -0.941,1.188 m 9.291,3.361 h -1.536 v 5.047 h -2.2 V -3.026 h 2.2 V 6.36 h 1.536 v -9.386 h 2.217 v 16.365 h -2.217 z"
             style="fill:#595757;fill-opacity:1;fill-rule:nonzero;stroke:none"
             id="path12936" />
        </g>
      </g>
    </g>
  </g>
</svg>
