<?xml version="1.0" encoding="UTF-8" standalone="no"?>
<!-- Created with Inkscape (http://www.inkscape.org/) -->

<svg
   version="1.1"
   id="svg38822"
   width="800"
   height="800"
   viewBox="0 0 800 800"
   sodipodi:docname="중앙대학교.svg"
   inkscape:version="1.2.1 (9c6d41e410, 2022-07-14)"
   xmlns:inkscape="http://www.inkscape.org/namespaces/inkscape"
   xmlns:sodipodi="http://sodipodi.sourceforge.net/DTD/sodipodi-0.dtd"
   xmlns="http://www.w3.org/2000/svg"
   xmlns:svg="http://www.w3.org/2000/svg">
  <defs
     id="defs38826">
    <clipPath
       clipPathUnits="userSpaceOnUse"
       id="clipPath38838">
      <path
         d="M 0,600 H 600 V 0 H 0 Z"
         id="path38836" />
    </clipPath>
  </defs>
  <sodipodi:namedview
     id="namedview38824"
     pagecolor="#ffffff"
     bordercolor="#000000"
     borderopacity="0.25"
     inkscape:showpageshadow="2"
     inkscape:pageopacity="0.0"
     inkscape:pagecheckerboard="0"
     inkscape:deskcolor="#d1d1d1"
     showgrid="false"
     inkscape:zoom="0.834386"
     inkscape:cx="224.1169"
     inkscape:cy="403.88981"
     inkscape:window-width="2560"
     inkscape:window-height="1494"
     inkscape:window-x="-11"
     inkscape:window-y="-11"
     inkscape:window-maximized="1"
     inkscape:current-layer="g38830">
    <inkscape:page
       x="0"
       y="0"
       id="page38828"
       width="800"
       height="800" />
  </sodipodi:namedview>
  <g
     id="g38830"
     inkscape:groupmode="layer"
     inkscape:label="Page 1"
     transform="matrix(1.3333333,0,0,-1.3333333,0,800)">
    <g
       id="g38832"
       inkscape:export-filename="..\OneDrive\바탕 화면\잉스케이프-로고\중앙대학교.png"
       inkscape:export-xdpi="63.111687"
       inkscape:export-ydpi="63.111687">
      <g
         id="g38834"
         clip-path="url(#clipPath38838)">
        <g
           id="g38840"
           transform="translate(266.9048,295.1592)">
          <path
             d="m 0,0 c 0.017,0.028 9.165,12.12 11.102,14.545 0.086,0.108 0.011,0.256 -0.124,0.275 -0.604,0.086 -0.145,1.032 -0.044,1.823 0.936,0.187 7.953,10.661 10.389,12.761 0.035,0.221 0.059,0.424 0.092,0.639 0.111,0.03 1.901,-5.694 3.022,-6.863 C 22.848,18.877 21.265,14.538 19.666,10.227 18.971,6.646 19.624,3.084 18.541,-0.349 17.42,-3.915 13.117,-8.248 9.273,-9.347 7.313,-9.94 5.798,-9.906 3.939,-10.779 0.26,-13.076 -3.417,-15.402 -7.089,-17.702 H -7.091 C -12.059,-15.424 -0.619,-4.526 0,0 m 45.519,10.63 -0.066,-0.476 c 0.681,0.047 0.528,0.182 0.438,-0.463 -0.15,0.172 -0.292,0.295 -0.438,0.463 -0.513,-0.032 -0.327,0.119 0.066,0.476 M -83.064,-76.757 c 1.096,0.534 2.199,1.056 3.293,1.595 3.922,0.26 6.235,1.916 9.62,3.17 0.989,0.358 1.998,0.693 2.999,1.027 0.167,0.014 0.331,0.029 0.504,0.029 -1.085,-7.867 -6.658,-15.611 -3.313,-22.969 0.686,-1.043 1.386,-2.095 2.052,-3.16 0,0 0,-0.001 0,-0.001 1.088,-0.387 2.166,-0.786 3.269,-1.178 1.222,-0.555 2.149,-1.745 3.413,-2.237 0.79,0.051 0.827,-0.463 1.343,-0.787 2.245,-1.484 3.973,-0.583 6.253,1.28 0.023,0.163 0.037,0.318 0.072,0.494 2.008,0.127 2.917,-0.621 5.059,0.328 10e-4,0 10e-4,10e-4 10e-4,10e-4 0.21,1.567 -0.35,2.577 0.108,4.344 -0.764,-0.042 1.669,1.407 2.281,2.076 0.925,0.054 -0.01,1.739 -0.155,2.395 -0.664,-0.045 -0.528,-0.199 -0.445,0.459 0.213,0.09 0.445,0.162 0.677,0.246 1.576,2.724 3.161,5.45 4.738,8.167 1.735,2.133 3.506,4.259 5.274,6.387 0.474,1.076 0.545,1.853 0.294,2.793 3.124,0.198 4.113,7.384 3.807,9.417 1.122,0.068 6.394,5.572 8.051,6.666 1.668,0.757 3.351,1.507 5.04,2.258 l 0.209,0.133 c 0.808,0.051 0.572,1.277 0.782,1.985 0.109,0.785 -0.227,0.463 -0.949,0.423 l 0.07,0.475 c 0.973,-0.063 1.942,-0.154 2.917,-0.242 h 0.004 c 2.141,0.774 4.264,1.528 6.393,2.306 0.088,0.64 1.127,1.333 0.799,1.68 1.474,0.125 2.964,0.23 4.451,0.347 2.721,0.607 10.415,4.271 12.471,6.368 0.337,0.016 0.684,0.037 1.005,0.062 -0.077,-0.67 -0.216,-0.508 0.447,-0.463 0.108,0.766 1.076,0.828 1.644,1.075 0.095,0.643 -0.073,0.476 0.583,0.516 l -0.074,-0.485 c 1.122,0.084 0.589,-10.328 2.285,-12.384 0.168,0.009 0.342,0.017 0.516,0.026 -0.264,-0.643 -0.516,-1.314 -0.781,-1.989 -0.104,-0.006 -0.018,-1.905 -0.41,-2.912 0.174,0.008 0.337,0.02 0.509,0.024 -0.223,-1.652 4.86,0.59 5.643,0.854 0.023,0.173 0.04,0.324 0.073,0.496 -0.017,-0.345 -0.033,-0.714 -0.033,-1.064 -0.304,-1.523 -1.292,-2.662 -2.534,-3.652 -5.773,-4.615 -3.16,-10.956 -2.476,-15.951 0.104,-1.671 0.183,-3.364 0.277,-5.075 0,-0.002 0,-0.003 10e-4,-0.005 0.445,-1.021 0.879,-2.062 1.315,-3.094 0,-0.001 0,-0.002 0,-0.003 -0.167,-1.057 -0.323,-2.135 -0.471,-3.222 -0.174,-2.504 0.236,-4.684 1.036,-6.709 l -0.072,-0.483 c 0.521,0.038 1.644,3.089 3.582,4.095 l -0.138,-0.342 c -0.608,-1.264 -1.209,-2.545 -1.807,-3.815 -0.925,-3.32 -0.437,-9.127 1.851,-10.809 0.003,-0.002 0.003,-0.005 0.003,-0.008 -0.332,-2.452 -0.809,-4.388 1.795,-5.18 0.072,0.486 0.145,0.969 0.213,1.458 0.154,1.219 1.308,2.467 1.88,3.547 0.562,1.472 1.152,2.936 1.72,4.41 1.1,0.071 -0.799,1.755 -1.169,2.333 -0.711,-0.048 -0.134,1.61 -0.169,2.397 0.662,0.044 1.338,0.088 2.027,0.124 0.458,3.341 -0.324,5.772 -1.889,8.082 -0.723,-0.041 0.205,0.336 0.566,0.523 0.029,0.162 0.042,0.322 0.071,0.495 0.721,0.038 0.151,-0.109 0.44,-0.469 -0.024,-0.141 -0.036,-0.31 -0.062,-0.483 0.638,0.045 0.568,0.036 0.752,0.615 1.574,4.489 3.244,8.931 5.196,13.279 0.812,0.052 0.497,0.44 0.466,1.041 0.207,1.607 0.434,3.209 0.65,4.804 0.356,3.89 0.343,8.471 1.885,12.199 -0.614,-0.039 -0.862,4.147 -1.78,5.179 0.098,0.751 0.658,1.044 1.216,1.532 0.002,10e-4 0.003,0.003 0.003,0.005 0.205,1.46 0.41,2.924 0.605,4.373 0.161,1.097 1.548,2.292 2.422,3.054 0.148,1.085 0.065,2.061 0.067,3.133 0,0.725 -0.217,1.472 -0.772,1.938 -0.188,0.158 -0.323,0.382 -0.504,0.633 -0.662,-0.036 -0.526,-0.19 -0.432,0.458 1.008,0.067 1.937,1.462 2.278,2.246 0.37,1.427 0.744,2.84 1.107,4.249 2.984,6.14 6.719,7.156 12.279,10.29 0.827,0.604 1.642,1.181 2.444,1.759 0.139,0.917 -1.113,0.747 -1.877,0.834 0.016,0.171 0.034,0.326 0.072,0.495 1.393,0.093 7.765,5.563 9.598,7.589 0.219,0.242 0.386,0.509 0.507,0.812 l 1.038,2.575 c 0,10e-4 10e-4,10e-4 0.002,0.002 1.203,0.472 2.509,-0.121 3.356,-0.394 l 0.075,0.489 c 1.083,0.559 2.166,1.107 3.244,1.664 0.095,0.727 0.379,0.504 1.077,0.547 0.114,0.789 -0.747,0.721 -1.372,0.881 0.12,0.871 0.938,0.815 1.643,1.065 0.017,0.176 0.042,0.318 0.067,0.488 -0.453,-0.023 -0.844,0.013 -0.941,0.425 0.398,2.866 2.084,3.106 4.39,2.697 0.047,0.335 2.853,4.584 3.208,5.031 0.711,0.048 0.825,1.421 1.277,2.009 -0.126,-0.853 0.987,-0.104 1.53,0.106 -0.14,-0.943 1.262,1.029 1.716,1.557 -0.778,-0.053 -0.868,0.488 -1.386,0.875 0.031,0.164 0.06,0.312 0.073,0.488 0.849,0.222 1.727,0.428 2.594,0.645 l 0.067,0.483 c 4.628,0.305 7.119,3.488 11.319,4.535 0.21,0.053 0.361,0.222 0.427,0.429 0.257,0.807 0.955,1.187 1.708,1.711 0.085,0.479 0.151,0.966 0.217,1.452 -0.361,-0.016 -0.691,-0.043 -1.018,-0.059 -0.119,-0.866 -1.607,-1.511 -2.287,-2.076 -0.614,-0.037 -1.655,1.061 -2.336,1.284 0.019,0.174 0.048,0.332 0.08,0.495 1.889,0.117 2.226,2.517 4.243,1.711 0.157,0.018 0.332,0.03 0.506,0.044 0.066,0.54 -0.066,0.642 -0.379,0.942 0.186,1.217 -0.188,0.589 -0.296,1.421 0.108,0.718 -5.189,-1.549 -6.267,-1.845 0.109,0.773 0.772,-0.422 0.163,-0.068 l 0.067,0.48 c 1.589,0.105 2.443,2.369 3.225,3.398 0.098,0.7 -0.529,0.682 -1.094,0.813 -3.13,0.708 -14.125,-3.716 -17.52,-4.961 -2.595,-0.913 -5.188,-1.854 -7.771,-2.779 -1.747,-0.947 -3.487,-1.926 -5.22,-2.891 -5.738,-2.633 -11.696,-4.22 -17.321,-7.09 0.024,0.173 0.047,0.33 0.07,0.487 -0.571,-0.037 -0.581,0.089 -0.937,0.424 0.22,1.59 0.489,2.832 0.055,4.029 -0.217,0.597 -0.22,1.252 0.005,1.845 0.143,0.378 0.287,0.757 0.424,1.139 0.068,0.188 0.114,0.383 0.139,0.581 0.538,4.107 1.093,8.211 1.631,12.334 -0.851,-0.057 0.353,0.909 0.721,1.502 0.896,0.05 0.18,0.823 -0.009,1.322 -1.584,4.035 0.418,8.96 0.108,13.628 -0.164,2.752 -1.395,4.172 -0.028,7.23 -0.755,-0.054 -0.56,0.279 -0.704,0.762 -1.217,3.921 -2.92,2.536 -6.217,3.618 0.046,0.312 0.101,0.659 0.136,0.967 0.724,0.051 1.614,0.793 2.155,1.111 0.29,2.012 -3.17,3.355 -4.448,4.037 -0.07,-0.511 -3.342,-1.022 -4.143,-1.358 -1.947,-0.867 -4.033,-1.621 -6.23,-1.48 -1.421,0.083 -2.691,0.837 -4.396,0.446 C 17.739,62.04 7.807,52.63 3.691,48.913 3.854,48.921 4.01,48.936 4.2,48.947 4.077,48.102 5.365,48.167 6.088,48.102 6.046,47.786 6.001,47.454 5.943,47.132 5.287,47.087 5.465,47.251 5.383,46.608 4.01,46.516 0.712,45.179 -0.384,44.204 -2.619,42.159 -3.474,38.791 -5.32,36.411 -6.366,35.052 -8.531,34.706 -9.218,32.929 -9.237,32.517 -9.237,32.099 -9.241,31.678 L -9.306,31.19 c -4.965,-0.319 -14.4,-23.34 -19.205,-26.331 -0.062,-0.325 -0.096,-0.651 -0.142,-0.974 -0.18,-0.01 -0.332,-0.015 -0.509,-0.024 -0.217,-3.214 -2.137,-4.542 -3.478,-7.182 -0.785,-1.593 -1.054,-2.859 -2.131,-4.29 0.851,0.06 0.229,-0.454 -0.125,-0.965 0.721,0.042 -0.479,-1.174 -0.685,-1.969 -0.665,-2.626 -2.889,-4.417 -4.106,-6.735 -2.603,-5.033 -5.407,-9.344 -6.986,-14.92 -0.05,-0.176 -0.209,-0.298 -0.39,-0.326 -2.608,-0.409 -1.465,-3.616 -0.304,-4.359 l -0.071,-0.486 c -3.303,-0.214 -3.669,-3.683 -3.846,-6.032 l -0.5,-0.03 c 0.099,0.731 -0.224,0.441 -0.736,0.279 -4.296,-1.474 -7.969,-2.641 -11.587,-5.907 -0.931,-0.065 0.019,-0.63 0.372,-0.936 l -0.07,-0.495 c -3.138,-0.206 -4.806,-0.551 -7.84,-2.487 -2.608,-1.687 -5.954,-5.824 -9.291,-5.37 -0.191,-0.018 -0.341,-0.027 -0.514,-0.044 l -0.073,-0.478 c -0.828,-0.053 -0.53,-0.879 -0.707,-1.501 -0.115,-0.77 -1.977,-1.95 -2.5,-2.738 -0.801,-1.228 -2.057,-1.974 -2.987,-3.147 -1.655,-2.131 -3.157,-4.55 -3.612,-7.181 -0.329,-1.997 6.403,-3.655 8.265,-3.319"
             style="fill:#006db4;fill-opacity:1;fill-rule:nonzero;stroke:none"
             id="path38842" />
        </g>
        <g
           id="g38844"
           transform="translate(510.2998,319.7612)">
          <path
             d="M 0,0 C -2.813,0.176 -5.329,-1.755 -7.551,-3.458 L -9.7,-5.022 v 0 l -9.296,-5.463 -8.884,-5.217 c -5.107,-2.374 -9.434,-4.028 -13.583,-5.174 l -2.799,-1.028 c -0.706,-0.342 -1.367,-0.665 -2.637,-0.958 l -0.174,-0.04 -0.061,-0.11 c -0.187,0.127 -0.488,0.336 -0.488,0.336 l -0.469,0.348 c -1.433,0.884 -1.824,3.075 -1.824,5.63 0,1.589 0.15,3.316 0.296,4.957 0.137,1.657 0.276,3.255 0.276,4.675 0,0.692 -0.068,1.296 -0.144,1.889 1.775,0.619 2.034,4.535 2.251,8.069 0.096,1.535 0.18,2.984 0.391,3.546 0.338,0.867 1.313,1.685 2.18,2.405 l 0.198,0.166 0.066,0.332 -0.09,2.511 c 1.463,1.683 3.558,8.737 3.582,8.821 0.102,0.391 0.144,0.768 0.144,1.134 0,0.46 -0.084,0.873 -0.163,1.282 0.5,0.253 0.694,0.828 0.807,1.185 l 0.102,0.307 0.074,0.301 0.108,0.038 1.023,0.45 c 0,0 -0.156,0.241 -0.277,0.426 0.055,0.115 0.92,2.003 1.108,2.405 0.175,0.033 0.36,0.103 0.494,0.304 l 0.108,0.371 -0.126,0.377 c 0.638,0.359 1.196,1.165 1.702,1.898 l 0.657,0.884 2.161,2.109 c 1.385,1.304 2.698,2.534 3.841,4.127 0,0 0.001,0 0.001,0 l 1.083,2.775 0.525,1.36 0.717,0.932 c 0.901,1.151 1.907,2.436 1.907,4.087 0,0.2 -0.018,0.401 -0.042,0.612 -0.368,2.588 -2.632,3.557 -4.443,4.336 l -0.398,0.167 0.071,0.484 -0.577,0.008 -0.372,0.019 c -0.59,0.025 -1.049,0.06 -1.386,0.105 0.567,0.667 0.857,1.762 1.031,2.549 0.355,0.083 0.619,0.247 0.854,0.49 l 0.688,0.734 -1.163,0.187 -0.079,0.264 -0.173,0.651 -0.386,0.011 -1.656,0.095 -0.608,-1.665 c -0.47,0.129 -0.824,0.399 -1.151,1.048 l -0.126,0.262 -0.517,0.056 -0.037,0.047 0.031,0.061 0.084,0.424 -0.819,0.338 c 0.108,0.203 0.248,0.44 0.248,0.44 l -0.741,0.099 0.029,0.166 c 0.037,0.161 0.079,0.352 0.079,0.548 0,0.199 -0.049,0.405 -0.186,0.59 l -0.422,0.198 c -0.121,0.52 -0.506,0.832 -0.746,0.968 l -0.121,0.075 0.127,0.518 -0.585,0.192 c -0.554,0.031 -1.384,0.343 -2.27,0.674 -1.837,0.688 -3.906,1.468 -5.405,0.559 -0.698,-0.427 -1.12,-1.259 -1.362,-2.332 -0.251,0.093 -0.498,0.164 -0.764,0.352 0,0 -0.27,0.175 -0.457,0.295 -0.055,0.221 -0.103,0.446 -0.103,0.446 l -0.806,0.237 h -0.778 l -0.088,-0.47 c -0.211,-1.822 -0.549,-2.215 -1.879,-3.091 l -1.235,-0.816 c 0,0 0.698,-0.078 1.12,-0.124 l -0.108,-0.175 -0.711,-1.339 c -2.011,-3.733 -3.924,-7.491 -3.924,-9.586 0,-0.238 0.071,-0.411 0.126,-0.604 -0.59,0.035 -2.084,0.127 -2.084,0.127 l -0.06,-0.503 c -0.427,-3.54 -1.403,-4.82 -3.021,-6.946 l -1.354,-1.823 h -0.001 l -1.715,-3.245 -0.556,-1.051 c -1.305,-1.69 -2.245,-3.711 -3.154,-5.667 -0.91,-1.953 -1.764,-3.797 -3.006,-5.407 L -74.55,19.3 c -0.97,-1.308 -1.813,-3.068 -2.704,-4.931 -1.054,-2.185 -2.138,-4.446 -3.342,-5.782 L -80.77,8.458 -82.461,7.171 c -2.873,-2.713 -6.694,-6.728 -8.007,-10.947 l -0.488,-0.107 -0.078,-0.052 c -4.734,-3.063 -9.013,-8.033 -12.793,-12.421 l -1.439,-1.67 -1.958,-2.434 -0.522,-0.664 -2.187,-1.537 c -0.957,-0.592 -1.951,-1.205 -2.889,-2.17 l -2.324,-3.044 -0.307,-0.393 c -0.578,-0.528 -1.625,-0.425 -2.734,-0.314 l -2.907,0.281 c -0.029,0.003 -0.051,0.03 -0.047,0.059 0.918,6.565 2.545,12.028 5.465,18.322 0.175,0.035 0.357,0.096 0.488,0.277 l 0.132,0.411 c 0,0.185 -0.066,0.361 -0.114,0.498 l -0.073,0.231 c -0.042,0.181 -0.066,0.399 -0.066,0.645 0,2.643 2.193,8.737 3.481,11.481 l 0.174,0.376 -0.325,0.196 0.109,0.19 0.366,0.687 0.393,2.213 0.462,2.661 c 0.608,3.274 1.952,9.331 4.131,13.705 l 0.662,-0.046 -0.055,0.659 -0.035,0.351 c -0.078,0.577 -0.121,1.155 -0.121,1.733 0,2.038 0.524,4.1 1.492,6.174 l 0.717,-0.044 -0.211,1.048 c -1.173,4.331 -5.381,11.127 -11.739,11.166 -7.892,0.039 -15.924,-19.892 -17.364,-27.039 -0.427,-0.081 -1.42,-0.277 -1.42,-0.277 l -0.38,-0.075 -0.042,-0.385 c -0.198,-1.636 -0.812,-2.995 -1.45,-4.434 l -0.914,-2.198 -2.619,-6.787 -1.482,-3.717 0.585,-0.159 c 0,0 0.691,-0.191 1.294,-0.359 -0.56,0.03 -2.221,0.122 -2.221,0.122 l -0.055,-0.5 c -0.156,-1.304 -0.704,-2.561 -1.228,-3.777 l -0.784,-1.931 -0.132,-0.748 -0.584,-3.497 -1.065,-2.05 -0.554,-1.097 c -0.938,-2.406 -1.343,-4.767 -1.77,-7.266 l -0.456,-2.582 -0.387,-1.938 c -0.391,-1.908 -0.77,-3.762 -0.77,-5.549 0,-1.855 0.463,-3.628 1.692,-5.318 l -0.013,-0.117 -2.046,0.57 -0.205,-1.424 0.392,-0.201 c 0,0 0.517,-0.223 0.86,-0.371 -0.09,-0.837 -0.156,-1.664 -0.156,-2.461 0,-4.464 1.402,-8.303 4.322,-11.913 l 0.891,-1.047 c 0.886,-1.007 1.584,-1.804 2.071,-3.246 l 0.121,-0.341 5.857,-0.35 0.024,0.251 c 0.613,-0.241 3.528,-1.378 3.528,-1.378 l 0.2,0.025 2.902,0.284 c 2.401,0.133 5.05,0.316 6.398,1.393 0.109,-0.008 0.278,-0.016 0.56,-0.034 l -0.048,-0.37 -0.09,-1.001 h 0.554 c 2.606,-0.152 4.262,1.306 5.863,2.715 l 1.921,1.576 0.061,0.23 0.024,0.394 c 0,0.504 -0.163,0.879 -0.308,1.242 0.379,0.07 0.831,0.292 1.439,0.645 l 0.975,0.527 -0.047,0.228 -0.23,0.778 -0.385,0.22 c 0.962,0.082 1.806,0.304 2.499,0.57 0.903,0.341 1.396,0.864 1.871,1.368 l 1.061,0.956 2.473,1.387 c 2.217,1.166 4.691,2.501 6.088,4.722 0.366,0.108 1.03,0.526 2.408,2.162 l 0.102,0.122 0.043,0.345 c 0.354,0.212 0.607,0.534 0.728,0.802 l 0.234,0.403 h 0.024 c 3.078,0.833 5.057,3.999 6.966,7.06 1.264,2.034 2.583,4.139 4.105,5.412 l 0.163,0.139 0.019,0.146 0.426,-0.025 0.062,0.538 0.084,0.653 -0.319,0.307 -0.277,0.137 c -0.26,0.127 -0.566,0.304 -0.783,0.485 1.547,0.408 2.926,1.458 3.484,2.787 0.182,0.435 0.272,0.876 0.272,1.315 0,0.485 -0.15,0.961 -0.366,1.425 0.186,0.018 2.341,0.216 2.466,0.226 0.207,-0.367 0.399,-0.885 0.562,-1.428 0.45,-1.501 1.083,-3.404 2.678,-4.489 -0.253,0.015 -1.036,0.062 -1.036,0.062 l -0.059,-0.436 -0.429,0.023 -0.065,-0.498 c -0.025,-0.214 -0.035,-0.423 -0.035,-0.633 0,-2.62 1.908,-4.984 3.864,-5.968 l 0.055,-0.028 -0.037,-0.28 -0.18,-0.084 -0.12,-0.456 c 0,-0.592 0.487,-1.329 1.112,-2.276 0.65,-0.985 1.512,-2.281 1.512,-3.139 l -0.042,-0.21 -0.253,-0.279 -0.048,-0.236 c 0,-0.558 0.873,-1.496 6.315,-5.45 l 0.609,-0.443 1.173,-1.407 c 0.411,-0.577 0.867,-1.143 1.463,-1.609 -0.103,-0.277 -0.306,-0.557 -0.531,-0.831 l -0.974,-1.222 1.041,-0.045 c 0.555,-0.036 1.855,-0.955 2.901,-1.697 1.078,-0.765 2.103,-1.49 2.909,-1.775 l 0.633,-0.23 0.337,2.848 c 0,0.001 0,0.001 10e-4,0.001 l 3.297,-0.193 0.819,0.213 0.259,0.791 c 0.463,-0.245 0.908,-0.576 1.361,-0.97 l 2.222,-1.678 0.035,0.951 0.013,0.073 c 1.041,0.193 1.963,0.994 2.431,1.493 0.331,-0.009 1.482,-0.042 1.482,-0.042 4.299,-0.255 5.798,1.914 7.7,4.659 l 0.746,1.064 0.114,1.163 -0.572,0.008 -0.414,0.026 -0.236,0.254 c -0.325,0.19 -0.656,-0.01 -0.999,-0.22 l -0.446,0.068 -0.011,0.042 c 0,0.209 0.15,0.828 1.071,2.326 0.205,-0.067 1.86,-0.623 1.86,-0.623 l 0.074,0.655 0.089,0.207 c 0.301,0.134 1.192,-0.238 1.879,-0.676 0.042,-0.197 0.072,-0.4 0.203,-0.532 0.295,-0.277 0.68,-0.273 1.049,-0.23 0.132,-0.391 0.337,-0.723 0.554,-0.968 v -0.028 c 0,-0.227 0.047,-0.455 0.216,-0.629 0.247,-0.258 0.566,-0.226 0.801,-0.206 l 0.741,0.029 0.12,0.461 0.072,0.488 -0.145,0.356 -0.372,0.15 c -0.032,0.138 -0.036,0.174 -0.074,0.349 l 0.109,0.107 0.126,0.307 c 0.211,-0.012 0.952,-0.06 0.952,-0.06 v 0.021 c 0.355,-0.058 0.687,0.171 0.945,0.362 l 0.067,0.044 c 0.234,0.033 2.04,0.297 2.04,0.297 l -0.042,0.989 0.121,-0.131 0.029,-0.15 -0.029,-0.147 c 0.126,0.205 0.848,0.81 4.321,2.594 l 0.277,0.157 0.826,-0.034 0.036,0.498 0.132,1.115 -0.667,-0.081 c 0,0 -2.048,-0.233 -2.354,-0.266 l 0.096,0.718 0.005,0.147 c 0,0.331 -0.138,0.544 -0.259,0.673 -0.313,0.335 -0.812,0.402 -1.323,0.399 l 0.029,0.03 0.013,0.199 c 0,0 0.072,0.567 0.12,0.958 2.01,0.221 4.274,2.258 5.309,3.616 l 0.657,-0.043 0.248,1.978 -0.459,0.018 0.108,0.485 0.2,0.062 0.596,0.239 2.034,0.941 c 2.541,1.118 4.238,1.908 4.599,2.632 l 2.427,5.701 -0.066,0.074 c 0.675,0.904 4.533,4.052 5.695,4.315 l 0.372,0.084 0.042,0.377 0.007,0.142 c 0,0.775 -0.669,1.742 -1.264,2.6 0,0 -0.205,0.317 -0.361,0.558 0.151,0.229 0.33,0.523 0.619,0.998 0.778,1.268 2.596,4.235 3.161,4.585 l 0.223,0.138 0.193,1.699 z"
             style="fill:#006db4;fill-opacity:1;fill-rule:nonzero;stroke:none"
             id="path38846" />
        </g>
        <g
           id="g38848"
           transform="translate(509.54,419.7534)">
          <path
             d="m 0,0 v -80.873 c 0,-10e-4 0,-0.002 -0.001,-0.002 H -80.87 c -10e-4,0 -10e-4,0.001 -10e-4,0.002 v 80.872 c 0,0 0,0.001 10e-4,0.001 z m 3.227,6.458 h -90.551 c -0.001,0 -0.001,-0.001 -0.001,-0.002 v -93.777 c 0,-0.001 0,-0.001 0.001,-0.001 H 6.458 c 10e-4,0 0.002,0 0.002,0.001 V 6.456 c 0,10e-4 -0.001,0.002 -0.002,0.002 z"
             style="fill:#e41f1f;fill-opacity:1;fill-rule:nonzero;stroke:none"
             id="path38850" />
        </g>
        <g
           id="g38852"
           transform="translate(182.6445,348.9775)">
          <path
             d="m 0,0 c -2.981,0.749 -6.96,1.49 -9.515,1.817 l -0.163,-0.119 -1.07,-0.793 -0.033,-0.1 c -0.458,0.043 -0.855,-0.044 -1.239,-0.139 l 0.023,0.075 -0.428,0.081 -1.899,0.327 c -0.455,0.079 -0.961,-0.318 -1.447,-0.703 l -0.281,-0.21 -0.675,0.897 -0.183,-0.758 -0.076,-0.239 -0.143,0.024 c -0.043,0.164 -0.344,0.239 -1.416,-0.866 -0.248,0.129 -0.888,0.459 -0.888,0.459 l -0.251,-0.311 c -0.131,-0.155 -0.902,-0.437 -1.193,-0.54 l -0.026,-0.009 -0.049,0.068 c -0.1,0.033 -0.253,0.063 -0.468,-0.196 l -0.457,0.166 -0.343,0.04 -0.152,-0.181 c 0,0 -0.841,-1.179 -0.982,-1.376 l -0.091,0.014 0.009,0.593 -1.135,0.19 -0.254,-0.836 -0.2,0.035 -0.076,-0.179 -0.916,0.493 -0.093,-0.467 c -0.031,-0.095 -0.229,-0.437 -1.608,-0.9 l -0.185,-0.063 -0.057,-0.19 c -0.058,-0.185 -0.33,-0.377 -0.573,-0.545 l -0.471,-0.351 -0.017,-0.087 c -1.232,0.062 -2.422,-0.439 -3.571,-0.926 l -1.622,-0.634 -0.077,-0.187 c -0.312,-1.018 -0.783,-2.49 -1.519,-3.149 l -0.287,0.346 0.151,0.49 -0.429,0.067 c -0.596,0.102 -1.055,-0.786 -1.385,-1.732 l -0.005,0.226 -0.3,0.031 -0.058,0.009 0.047,0.159 -0.387,0.198 c -0.389,0.064 -0.649,-0.144 -0.841,-0.435 l -0.059,0.551 -0.287,0.09 c -0.428,0.072 -1.406,-0.343 -3.383,-1.243 l -2.09,-0.898 -0.085,-0.183 c -0.241,-0.792 -0.87,-1.354 -1.536,-1.949 -0.533,-0.476 -1.058,-0.987 -1.452,-1.629 -1.289,0.187 -2.154,-0.022 -3.155,-1.303 l -0.239,-0.094 c -0.166,-0.163 -0.222,-0.398 -0.222,-0.693 0,-0.153 0.026,-0.334 0.047,-0.514 -0.202,0.037 -0.409,0.073 -0.409,0.073 l 0.259,-0.654 0.062,-0.133 c -0.086,-0.13 -0.231,-0.19 -0.61,-0.218 l -0.215,-0.034 c 0.096,0.213 0.271,0.594 0.271,0.594 l -0.01,0.002 0.029,0.044 -0.715,0.273 -0.027,-0.06 c -0.091,-0.269 -0.557,-0.634 -0.937,-0.934 l -1.82,-1.616 1.416,0.317 0.263,0.053 c -0.037,-0.245 -0.131,-0.84 -0.162,-1.025 -1.436,-0.802 -5.177,-5.262 -5.214,-5.314 l -0.45,-0.883 c 0,0 -0.19,-0.383 -0.341,-0.686 -0.275,-0.04 -0.747,-0.261 -1.787,-1.048 l -0.018,0.025 -0.064,0.233 -0.283,0.196 c -0.643,0.106 -0.79,-0.401 -0.869,-0.674 l -0.413,-1.391 c -0.399,-1.429 -0.508,-1.704 -2.236,-2.592 l -0.103,1.322 -0.604,-1.202 c 0,0 -1.248,-2.239 -1.403,-2.514 l -1.383,1.054 c -0.334,-0.203 -0.438,-0.551 -0.518,-1.006 l -0.382,0.068 -0.081,-0.281 -0.176,0.036 -0.126,-0.24 -1.139,-1.924 -1.064,-2.165 v 0 l -1.249,-1.573 c -1.209,-1.451 -2.431,-2.962 -2.787,-4.922 -1.425,-0.417 -2.792,-5.584 -7.073,-13.175 l -2.536,-4.326 -0.166,-1.023 0.002,-0.082 c 0,-0.31 -0.036,-0.427 -0.539,-0.694 l -0.14,-0.075 -0.047,-0.151 c -0.441,-1.464 -0.784,-2.257 -1.742,-3.38 l -0.129,-0.29 -0.156,-0.448 0.158,-0.053 c -0.156,-0.275 -0.836,-1.463 -0.836,-1.463 l -0.063,-0.397 c 0,-0.398 0.189,-0.733 0.347,-1.019 l 0.288,-0.61 0.344,-0.126 0.173,-0.03 c -0.564,-1.222 -1.119,-2.462 -1.119,-3.44 0,-0.289 0.047,-0.558 0.159,-0.799 0.159,-0.34 0.496,-0.528 0.872,-0.682 -0.365,-0.882 -0.966,-2.352 -0.976,-3.442 l 0.254,0.069 -0.179,-0.591 0.392,-0.176 0.799,-0.147 c -0.041,-0.291 -0.234,-1.674 -0.234,-1.674 l 0.164,-0.042 c -0.103,-0.097 -0.186,-0.216 -0.186,-0.438 0,-0.34 0.105,-0.836 0.27,-1.522 l -0.286,0.16 -0.632,-2.672 -0.214,-0.835 -0.018,-3.278 c -0.055,-0.723 -0.464,-1.486 -0.861,-2.138 l -0.049,-0.083 -0.016,-0.392 0.199,-0.28 0.097,-0.333 0.093,-0.367 -0.093,-0.045 -0.196,-0.636 0.875,0.199 c 0.694,0.159 1.786,-1.505 2.372,-2.402 0,0 0.257,-0.375 0.4,-0.584 l -0.014,-0.035 -0.568,-0.419 0.053,-0.117 -0.002,-0.057 c 0,-0.176 0.128,-0.272 0.239,-0.379 l -0.025,-0.321 0.17,-0.059 c -0.015,-0.107 -0.145,-1.131 -0.169,-1.325 l -0.002,-0.002 10e-4,-0.004 -0.018,-0.144 0.758,-0.047 -0.156,-0.102 -0.185,0.027 0.453,-0.827 0.143,-0.069 -0.026,-0.175 0.182,-0.454 c 0.971,-1.029 1.352,-1.706 1.352,-2.689 0,-0.731 -0.208,-1.627 -0.536,-2.958 l -0.072,-0.298 -0.162,-0.191 -0.19,-0.246 h -0.011 l -0.012,-0.034 c -0.275,-0.358 -0.947,-1.236 -0.947,-1.236 l -0.051,-0.151 -0.051,-0.564 0.341,-0.137 c 0.658,-0.116 0.942,0.573 1.152,1.134 0.188,-0.095 0.409,-0.167 0.472,-0.335 l 0.129,-0.371 0.166,0.12 c 0,0 0.324,0.124 0.621,0.236 l -0.313,-1.024 -0.059,-0.201 0.299,-0.144 c 0.055,-0.062 0.163,-0.345 0.163,-0.719 0,-0.281 -0.062,-0.614 -0.254,-0.942 l -0.042,-0.29 c 0,-0.5 0.347,-1.095 0.815,-1.85 l 0.284,-0.472 -0.11,0.009 -0.124,-0.412 1.167,-0.213 0.135,0.245 0.437,0.81 0.32,-0.084 c 0,0 0.957,-0.112 1.258,-0.146 l 0.1,-0.693 0.325,0.021 2.037,-0.013 0.082,0.274 c 0.236,0.775 0.456,0.942 0.998,1.291 0.195,0.002 0.467,0.003 0.467,0.003 0.329,0.042 0.406,0.039 0.513,-0.105 l 0.091,-0.122 0.068,-0.011 v -0.018 c 0,-0.354 -0.414,-1.287 -0.557,-1.611 l -0.378,-0.877 0.482,-0.065 0.554,-0.096 0.101,0.272 0.174,-0.037 0.124,0.231 0.923,1.494 0.103,0.193 0.017,0.052 0.241,-0.122 0.051,-0.004 -0.026,-0.275 -0.307,-1.7 -0.271,-1.491 0.405,-1.181 0.509,-1.303 -0.02,-0.038 -0.149,-0.443 0.244,-0.089 -0.17,-0.551 0.498,0.149 0.915,0.219 c 0.451,0.038 1.465,0.024 1.637,-0.462 l 0.078,-0.211 0.886,-0.156 0.239,0.303 c 0.117,0.388 0.858,0.299 1.084,0.261 0.005,-0.004 0.383,-0.136 0.629,-0.223 l -0.115,-0.369 0.431,-0.071 c 0.368,-0.061 0.581,0.148 0.72,0.417 0.215,-0.336 0.534,-0.644 1.043,-0.86 l 0.421,-0.386 0.513,-0.444 c 1.261,-0.515 2.521,-0.225 3.631,0.033 l 1.333,0.267 0.603,-1.002 0.238,0.842 c 0.214,0.7 1.036,1.023 2.512,0.993 0.571,-0.099 1.061,0.677 1.688,1.781 l 0.195,0.337 c 0.2,0.038 0.818,0.159 1.061,0.207 l -0.063,-0.188 0.447,-0.064 c -0.188,-0.456 -0.495,-1.199 -0.495,-1.199 -0.371,-0.774 -0.753,-1.57 -0.867,-2.618 l -0.036,-0.359 0.919,-0.156 0.105,0.32 c 0.193,0.643 0.729,1.313 1.24,1.81 l 0.077,-0.027 0.118,-0.015 0.447,-0.852 0.202,-0.449 0.689,-0.103 1.146,1.847 0.058,0.183 c 0.27,0.045 1.146,0.2 1.146,0.2 l 1.21,0.209 2.456,-0.144 1.162,0.421 c 0.611,0.3 1.003,0.469 1.284,0.267 l 0.434,-0.313 0.194,0.629 c 0.331,0.119 0.727,0.337 1.116,0.614 l -0.192,-0.356 1.328,-0.228 0.062,0.194 0.387,-0.163 0.748,-0.347 0.097,0.439 0.181,0.605 -0.368,0.142 -0.02,0.304 0.015,0.037 0.192,-0.114 0.7,-0.44 0.112,0.495 c 0.128,0.422 0.545,0.78 1.142,0.984 0.683,0.233 1.381,0.183 1.632,0.004 l 0.435,-0.31 0.151,0.51 c 0.232,0.752 1.692,1.191 2.435,1.319 l 0.308,0.055 3.824,0.879 0.624,0.065 0.096,0.255 0.187,0.631 -0.054,0.016 0.159,0.173 c 0.621,0.046 3.069,0.288 3.722,0.547 l 0.171,0.068 0.195,0.64 c 0.326,0.064 0.719,0.134 1.075,0.185 0.726,-0.143 1.969,0.878 2.368,1.75 l 0.034,0.003 c 0.324,-0.223 0.563,0.131 0.991,0.783 l 0.17,0.231 -0.01,-0.093 7.039,3.627 0.419,0.303 0.433,0.002 0.066,0.309 c 0.192,1.02 0.673,1.75 1.386,2.115 0.674,0.342 1.513,0.328 2.294,-0.04 l 0.596,-0.281 -0.069,0.631 c -0.027,0.359 0.117,2.889 0.286,3.24 0.308,0.345 0.688,0.404 1.169,0.476 0.492,0.076 1.052,0.159 1.534,0.652 l 0.467,0.656 0.427,0.61 1.127,0.449 c 0.6,0.177 1.278,0.377 1.757,0.928 0.556,0.659 0.757,1.53 0.949,2.376 l 0.527,1.651 h 10e-4 c 0.537,1.023 4.861,3.444 5.64,3.166 l 0.441,-0.157 0.036,0.236 c 0.882,0.525 4.079,8.538 4.127,8.632 l 1.939,-0.249 0.06,0.223 0.005,0.064 c 1.922,0.323 3.354,1.858 4.729,3.391 1.262,1.41 2.027,4.56 3.513,4.853 l 0.287,0.056 0.023,0.292 0.005,0.233 c 0,0.537 -0.148,0.905 -0.453,1.132 -0.579,0.418 -1.426,0.076 -2.11,-0.197 l -0.564,-0.217 -0.027,-0.261 c -1.348,-0.183 -2.642,-0.696 -3.688,-1.223 l 0.007,0.091 -0.449,-0.037 c -0.467,-0.041 -0.888,-0.4 -1.259,-0.714 l -0.505,-0.384 -1.313,-0.528 -0.057,0.109 c -0.309,0.139 -0.54,-0.109 -0.71,-0.287 l -0.112,-0.114 C 10.6,-80.614 6.021,-84.09 4.364,-84.181 L 4.05,-84.197 4.013,-84.471 3.677,-84.477 3.501,-84.749 C 3.34,-84.934 2.289,-85.093 1.594,-85.077 l -0.24,0.006 -0.133,-0.284 c -0.332,-0.649 -4.926,-3.493 -5.695,-3.345 -0.574,0.01 -0.693,-0.237 -0.734,-0.454 -0.189,0.053 -0.807,0.232 -0.807,0.232 l -0.198,-0.398 c -0.054,-0.402 -0.944,-1.259 -6.124,-2.495 l 0.012,0.075 -0.572,0.089 -0.328,-0.022 -0.162,-0.281 c -0.11,-0.195 -0.949,-0.524 -1.307,-0.664 l -0.819,-0.346 0.004,-0.097 c -0.277,-0.017 -0.645,-0.252 -1.344,-0.699 -0.573,-0.367 -1.445,-0.929 -1.774,-0.963 l -0.262,-0.025 -0.051,-0.19 c -0.22,-0.004 -0.592,-0.113 -1.374,-0.354 l -1.568,-0.432 -0.105,-0.199 c -1.521,0.12 -3.682,-0.561 -5.04,-1.351 l -0.029,0.086 c -0.149,0.21 -0.382,0.213 -0.521,0.215 l -0.127,0.008 -0.421,0.076 -0.24,-0.283 c -0.084,-0.087 -0.53,-0.089 -0.7,-0.091 l -0.448,-0.014 -0.509,0.743 -0.33,-0.588 c -0.149,-0.23 -1.3,-0.527 -1.919,-0.69 0,0 -1.097,-0.366 -1.409,-0.47 -0.068,0.011 -0.206,0.035 -0.384,0.065 l -0.134,0.231 c -0.306,0.159 -0.574,-0.106 -0.934,-0.56 -0.253,0.132 -0.589,0.304 -0.589,0.304 l -0.329,0.077 -0.334,0.059 -0.117,-0.322 c -0.064,-0.206 -0.495,-0.266 -0.809,-0.311 l -0.588,-0.102 -0.04,-0.154 c -0.319,0.079 -1.1,0.274 -1.1,0.274 l -2.603,-0.575 -1.442,0.114 -1.8,0.123 c -3.379,0.744 -7.52,4.055 -8.211,8.096 -0.105,0.597 -0.144,1.194 -0.144,1.797 0,0.972 0.106,1.974 0.217,3.065 l 0.021,0.196 0.07,1.328 c 0.031,0.881 0.058,1.714 0.335,2.703 l 1.141,2.795 0.715,1.561 0.762,2.519 1.089,2.114 0.167,1.573 0.03,0.352 0.27,1.068 c 0,0 0.087,0.344 0.164,0.659 l 0.028,-0.28 c 0,-0.297 -0.028,-0.715 -0.108,-1.305 l -0.052,-0.369 0.899,-0.149 0.116,0.259 0.607,1.253 1.146,1.105 2.231,2.797 1.434,2.192 c 0.887,1.455 1.892,3.107 2.852,3.703 l 0.095,0.057 0.014,0.032 0.192,-0.107 0.708,-0.418 0.107,0.484 c 0.082,0.277 0.113,0.56 0.113,0.834 0,0.456 -0.085,0.899 -0.167,1.308 l -0.029,0.191 c 0.207,-0.293 0.487,-0.593 1.011,-0.559 1.194,0.076 4.903,3.458 5.944,4.846 l 0.408,-0.292 0.543,-0.569 0.325,0.485 0.728,0.925 c 0.492,0.499 1.063,1.144 1.37,2.004 0.23,0.055 1.159,0.274 1.621,0.383 0.126,-0.289 0.344,-0.523 0.536,-0.674 l -0.124,-0.4 0.536,-0.146 0.443,-0.077 0.152,0.488 -0.027,-0.011 c 0.272,0.17 0.426,0.496 0.487,0.744 l 0.122,0.383 0.811,0.748 0.091,0.072 0.342,-0.124 0.12,-0.014 c 0.267,-0.068 1.235,-1.139 1.432,-1.554 l 0.424,-0.895 0.288,0.945 c 0.127,0.42 0.371,0.699 0.737,0.852 0.553,0.23 1.319,0.104 1.756,-0.131 l 0.217,-0.117 0.243,0.208 c 0.316,0.237 3.098,1.074 3.63,1.127 h 10e-4 l 2.28,-0.149 c 0.921,-0.132 1.874,-0.272 2.871,-0.092 1.313,0.246 2.573,1.015 3.789,1.758 l 2.018,1.138 2.807,0.926 2.853,0.94 c 1.872,0.898 3.762,1.863 5.23,2.94 l 3.116,2.669 1.137,0.71 c 0.77,0.447 1.567,0.91 2.296,1.724 0.891,1.015 1.265,2.318 1.627,3.581 l 0.755,2.207 0.955,1.552 c 0.741,2.034 1.104,4.01 1.104,6.036 0,1.577 -0.22,3.186 -0.656,4.875 l -0.488,1.598 -1.478,1.926 c -1.27,1.502 -2.48,2.929 -2.48,5.081 0,0.323 0.025,0.668 0.085,1.032 l 0.074,0.444 -2.486,0.009 -0.088,-0.295 -0.097,0.175 c -0.979,0.823 -1.007,1.311 -1.066,2.279 0,0 -0.118,1.132 -0.137,1.309 L 10.389,-3.722 9.447,-3.561 9.295,-3.875 9.223,-4.107 8.603,-4 8.946,-4.75 8.86,-4.779 C 8.282,-4.801 7.349,-4.243 7.235,-3.952 l -0.079,0.2 -0.775,0.137 -0.107,-0.323 C 6.208,-4.158 6.187,-4.165 6.143,-4.175 L 6.063,-4.152 5.734,-4.097 5.701,-4.198 C 5.275,-3.481 4.938,-2.944 4.643,-2.755 L 4.546,-2.729 4.418,-2.48 C 4.113,-2.289 3.333,-2.996 3.329,-3 0.692,-1.034 0,0 0,0"
             style="fill:#006db4;fill-opacity:1;fill-rule:nonzero;stroke:none"
             id="path38854" />
        </g>
      </g>
    </g>
  </g>
</svg>
