<?xml version="1.0" encoding="UTF-8" standalone="no"?>
<!-- Created with Inkscape (http://www.inkscape.org/) -->

<svg
   version="1.1"
   id="svg40404"
   width="793.70074"
   height="1122.5197"
   viewBox="0 0 793.70074 1122.5197"
   sodipodi:docname="충북대학교.svg"
   inkscape:version="1.2.1 (9c6d41e410, 2022-07-14)"
   xmlns:inkscape="http://www.inkscape.org/namespaces/inkscape"
   xmlns:sodipodi="http://sodipodi.sourceforge.net/DTD/sodipodi-0.dtd"
   xmlns="http://www.w3.org/2000/svg"
   xmlns:svg="http://www.w3.org/2000/svg">
  <defs
     id="defs40408" />
  <sodipodi:namedview
     id="namedview40406"
     pagecolor="#ffffff"
     bordercolor="#000000"
     borderopacity="0.25"
     inkscape:showpageshadow="2"
     inkscape:pageopacity="0.0"
     inkscape:pagecheckerboard="true"
     inkscape:deskcolor="#d1d1d1"
     showgrid="false"
     inkscape:zoom="1.6819305"
     inkscape:cx="280.03535"
     inkscape:cy="429.26862"
     inkscape:window-width="2560"
     inkscape:window-height="1494"
     inkscape:window-x="-11"
     inkscape:window-y="-11"
     inkscape:window-maximized="1"
     inkscape:current-layer="g40412">
    <inkscape:page
       x="0"
       y="0"
       id="page40410"
       width="793.70074"
       height="1122.5197" />
  </sodipodi:namedview>
  <g
     id="g40412"
     inkscape:groupmode="layer"
     inkscape:label="Page 1"
     transform="matrix(1.3333333,0,0,-1.3333333,0,1122.5197)">
    <g
       id="g40414"
       transform="scale(1,-1)"
       inkscape:export-filename="..\OneDrive\바탕 화면\잉스케이프-로고\충북대학교.png"
       inkscape:export-xdpi="72.522034"
       inkscape:export-ydpi="72.522034">
      <path
         d="m 109.52441,-565.59375 c 0,-100.8833 81.78077,-182.66357 182.66114,-182.66357 100.88086,0 182.66113,81.78027 182.66113,182.66357 0,100.89111 -81.78027,182.66699 -182.66113,182.66699 -100.88037,0 -182.66114,-81.77588 -182.66114,-182.66699 z"
         style="fill:#ffffff;fill-opacity:1;fill-rule:nonzero;stroke:none"
         id="path40416" />
      <path
         d="m 109.52441,-565.59375 c 0,-100.8833 81.78077,-182.66357 182.66114,-182.66357 100.88086,0 182.66113,81.78027 182.66113,182.66357 0,100.89111 -81.78027,182.66699 -182.66113,182.66699 -100.88037,0 -182.66114,-81.77588 -182.66114,-182.66699 z"
         style="fill:none;stroke:#948884;stroke-width:4;stroke-linecap:butt;stroke-linejoin:miter;stroke-miterlimit:4;stroke-dasharray:none;stroke-opacity:1"
         id="path40418" />
      <path
         d="m 163.09473,-565.59375 c 0,-71.29102 57.79736,-129.08838 129.09082,-129.08838 71.28808,0 129.09082,57.79736 129.09082,129.08838 0,71.29346 -57.80274,129.09619 -129.09082,129.09619 -71.29346,0 -129.09082,-57.80273 -129.09082,-129.09619 z"
         style="fill:#901747;fill-opacity:1;fill-rule:nonzero;stroke:none"
         id="path40420" />
      <path
         d="m 334.4707,-632.17627 c 0,0 0,13.20117 0,13.20117 0,2.43067 -0.93945,4.71094 -2.65429,6.42871 -1.71485,1.70899 -4.00879,2.6543 -6.42286,2.6543 0,0 -11.98339,0 -11.98339,0 0,0 0,-22.28418 0,-22.28418 0,0 -42.96827,0 -42.96827,0 0,0 0,22.28418 0,22.28418 0,0 -11.46435,0 -11.46435,0 -2.42529,0 -4.70264,-0.94531 -6.42334,-2.6543 -1.71484,-1.71777 -2.66553,-3.99804 -2.66553,-6.42871 0,0 0,-13.20117 0,-13.20117 0,0 -41.40625,0 -41.40625,0 0,0 0,63.16309 0,63.16309 0,52.67431 32.35059,99.56982 80.49121,116.69824 0,0 0.46485,0.16406 0.46485,0.16406 0,0 2.74707,0.97217 2.74707,0.97217 0,0 2.74707,-0.97217 2.74707,-0.97217 0,0 0.45898,-0.16406 0.45898,-0.16406 48.15137,-17.12842 80.50195,-64.02393 80.50195,-116.69824 0,0 0,-63.16309 0,-63.16309 0,0 -41.42285,0 -41.42285,0 z"
         style="fill:none;stroke:#ffffff;stroke-width:3;stroke-linecap:butt;stroke-linejoin:miter;stroke-miterlimit:4;stroke-dasharray:none;stroke-opacity:1"
         id="path40422" />
      <path
         d="m 342.6748,-569.01318 c 0,7.75586 -0.97753,15.46826 -2.88378,22.96191 -13.30469,-6.39062 -23.75879,-17.16113 -29.74024,-30.61914 0,0 21.42774,0 21.42774,0 0,0 1.37011,0 1.37011,0 0,0 0,-0.15283 0,-0.15283 3.33203,-0.12061 6.61426,-0.71045 9.82617,-1.78076 0,0 0,9.59082 0,9.59082 z m -50.48925,81.62207 c -15.71387,-7.48243 -29.18262,-20.01172 -38.13477,-35.4253 15.72461,-7.23193 29.14453,-19.23681 38.13477,-34.08203 8.99023,14.84522 22.41504,26.8501 38.13476,34.08203 -8.95215,15.41358 -22.41601,27.94287 -38.13476,35.4253 z m -47.60547,-58.66016 c -1.90332,-7.49365 -2.87842,-15.20605 -2.87842,-22.96191 0,0 0,-9.59082 0,-9.59082 3.20068,1.07031 6.49414,1.66015 9.82031,1.78076 0,0 0,0.0767 0,0.0767 0,0.0762 1.36573,0.0762 1.36573,0.0762 0,0 21.4375,0 21.4375,0 -5.98047,13.45801 -16.44532,24.22852 -29.74512,30.61914 z m 98.09472,-77.92969 c 0,0 0,5.00586 0,5.00586 0,9.54688 -7.73925,17.28662 -17.28125,17.28662 0,0 -20.18164,0 -20.18164,0 0,0 0,-22.29248 0,-22.29248 0,0 -26.57177,0 -26.57177,0 0,0 0,22.29248 0,22.29248 0,0 -19.6626,0 -19.6626,0 -9.54736,0 -17.27588,-7.73974 -17.27588,-17.28662 0,0 0,-5.00586 0,-5.00586 0,0 -25.021,0 -25.021,0 0,0 0,54.96778 0,54.96778 0,49.20068 30.16065,92.99414 75.0459,108.97558 0,0 0.45899,0.15821 0.45899,0.15821 0,0 0.45898,-0.15821 0.45898,-0.15821 44.89063,-15.98144 75.0459,-59.7749 75.0459,-108.97558 0,0 0,-54.96778 0,-54.96778 0,0 -25.01563,0 -25.01563,0 z"
         style="fill:#ffffff;fill-opacity:1;fill-rule:nonzero;stroke:none"
         id="path40424" />
      <path
         d="m 233.10449,-659.57861 c 0,0 3.11914,0 3.11914,0 0,0 0,16.72168 0,16.72168 0,0 -3.25537,0 -3.25537,0 0,0 -2.42822,-5.95118 -2.42822,-5.95118 -0.83008,-1.99316 -1.49609,-4.01953 -2.23096,-6.65234 0,0 -0.0518,0 -0.0518,0 0.11719,1.3877 0.24854,3.08301 0.33594,4.771 0.10352,1.67431 0.1582,3.35107 0.1582,4.68896 0,0 0,3.14356 0,3.14356 0,0 -3.11035,0 -3.11035,0 0,0 0,-16.72168 0,-16.72168 0,0 3.2251,0 3.2251,0 0,0 2.43067,6.08447 2.43067,6.08447 0.79443,1.93896 1.46386,3.92139 2.22265,6.64404 0,0 0.0469,0 0.0469,0 -0.11231,-1.51562 -0.22168,-3.14062 -0.3086,-4.74902 -0.0933,-1.61133 -0.15332,-3.21143 -0.15332,-4.70801 0,0 0,-3.27148 0,-3.27148 z"
         style="fill:#ffffff;fill-opacity:1;fill-rule:nonzero;stroke:none"
         id="path40426" />
      <path
         d="m 243.95215,-648.61133 c 0,1.38721 0.10058,3.63526 2.24463,3.63526 2.22851,0 2.25049,-2.29395 2.25049,-3.90528 0,0 0,-4.27929 0,-4.27929 0,-1.33301 0.0708,-4.30713 -2.25049,-4.30713 -2.45264,0 -2.24463,2.92773 -2.24463,4.21923 0,0 0,4.63721 0,4.63721 z m -3.21729,-3.94336 c 0.13379,-4.26025 0.46973,-7.42822 5.46192,-7.42822 4.99756,0 5.32519,3.16797 5.46191,7.42822 0,0 0,2.38135 0,2.38135 0,4.45703 -0.33887,7.71484 -5.46191,7.71484 -5.12598,0 -5.46192,-3.25781 -5.46192,-7.71484 0,0 0,-2.38135 0,-2.38135 z"
         style="fill:#ffffff;fill-opacity:1;fill-rule:nonzero;stroke:none"
         id="path40428" />
      <path
         d="m 263.23779,-659.57861 c 0,0 3.34229,0 3.34229,0 0,0 -3.60449,16.72168 -3.60449,16.72168 0,0 -4.17286,0 -4.17286,0 0,0 -3.70312,-16.72168 -3.70312,-16.72168 0,0 3.34277,0 3.34277,0 0,0 1.96582,10.71582 1.96582,10.71582 0.17481,0.94531 0.29493,1.90136 0.37696,2.8623 0.0493,0.44238 0.13672,0.91748 0.13672,1.37891 0,0 0.0439,0 0.0439,0 0,-0.46143 0.0869,-0.93653 0.13623,-1.37891 0.0928,-0.96094 0.19678,-1.91699 0.37695,-2.8623 0,0 1.75879,-10.71582 1.75879,-10.71582 z"
         style="fill:#ffffff;fill-opacity:1;fill-rule:nonzero;stroke:none"
         id="path40430" />
      <path
         d="m 273.52783,-649.55078 c 0,0 2.68164,0 2.68164,0 0,0 -0.85205,-4.74658 -0.85205,-4.74658 -0.16357,-0.78077 -0.23486,-1.53418 -0.3164,-2.31543 -0.0166,-0.38233 -0.0713,-0.76465 -0.10938,-1.10889 0,0 -0.0439,0 -0.0439,0 -0.0435,0.34424 -0.0874,0.72656 -0.11426,1.10889 -0.082,0.78125 -0.15332,1.53466 -0.31153,2.31543 0,0 -0.93408,4.74658 -0.93408,4.74658 z m -4.65869,6.69385 c 0,0 3.99219,-16.72168 3.99219,-16.72168 0,0 4.21142,0 4.21142,0 0,0 3.78467,16.72168 3.78467,16.72168 0,0 -3.34228,0 -3.34228,0 0,0 -0.82471,-4.23584 -0.82471,-4.23584 0,0 -3.6543,0 -3.6543,0 0,0 -0.81933,4.23584 -0.81933,4.23584 0,0 -3.34766,0 -3.34766,0 z"
         style="fill:#ffffff;fill-opacity:1;fill-rule:nonzero;stroke:none"
         id="path40432" />
      <path
         d="m 287.55957,-649.55078 c 0,0 2.67578,0 2.67578,0 0,0 -0.85156,-4.74658 -0.85156,-4.74658 -0.15332,-0.78077 -0.21289,-1.53418 -0.30566,-2.31543 -0.0225,-0.38233 -0.0713,-0.76465 -0.11524,-1.10889 0,0 -0.0439,0 -0.0439,0 -0.043,0.34424 -0.0811,0.72656 -0.1084,1.10889 -0.0937,0.78125 -0.15918,1.53466 -0.31153,2.31543 0,0 -0.93945,4.74658 -0.93945,4.74658 z m -4.65381,6.69385 c 0,0 3.99268,-16.72168 3.99268,-16.72168 0,0 4.20019,0 4.20019,0 0,0 3.7959,16.72168 3.7959,16.72168 0,0 -3.34277,0 -3.34277,0 0,0 -0.83008,-4.23584 -0.83008,-4.23584 0,0 -3.64844,0 -3.64844,0 0,0 -0.83008,4.23584 -0.83008,4.23584 0,0 -3.3374,0 -3.3374,0 z"
         style="fill:#ffffff;fill-opacity:1;fill-rule:nonzero;stroke:none"
         id="path40434" />
      <path
         d="m 301.37207,-652.30908 c 0,0 1.67188,0 1.67188,0 1.36523,0 2.27148,-0.58155 2.27148,-2.61035 0,-1.91748 -0.75879,-2.20948 -2.52246,-2.20948 0,0 -1.4209,0 -1.4209,0 0,0 0,4.81983 0,4.81983 z m -3.12402,9.45215 c 0,0 0,-16.72168 0,-16.72168 0,0 6.38476,0 6.38476,0 2.98242,0 3.89453,2.39746 3.89453,4.74609 0,1.43115 -0.38281,3.03711 -1.5625,3.96582 -0.98242,0.78613 -2.29296,1.021 -3.49511,1.00732 0,0 -2.09766,0 -2.09766,0 0,0 0,7.00245 0,7.00245 0,0 -3.12402,0 -3.12402,0 z"
         style="fill:#ffffff;fill-opacity:1;fill-rule:nonzero;stroke:none"
         id="path40436" />
      <path
         d="m 312.19238,-642.85693 c 0,0 0,-16.72168 0,-16.72168 0,0 8.78809,0 8.78809,0 0,0 0,2.4497 0,2.4497 0,0 -5.6582,0 -5.6582,0 0,0 0,4.21338 0,4.21338 0,0 5.20996,0 5.20996,0 0,0 0,2.45264 0,2.45264 0,0 -5.20996,0 -5.20996,0 0,0 0,5.15088 0,5.15088 0,0 5.6582,0 5.6582,0 0,0 0,2.45508 0,2.45508 0,0 -8.78809,0 -8.78809,0 z"
         style="fill:#ffffff;fill-opacity:1;fill-rule:nonzero;stroke:none"
         id="path40438" />
      <path
         d="m 328.14648,-652.51367 c 0,0 2.45215,0 2.45215,0 1.03223,-0.0684 1.83008,-0.73487 1.83008,-2.40576 0,-1.87403 -0.78125,-2.18506 -1.9668,-2.20948 0,0 -2.31543,0 -2.31543,0 0,0 0,4.61524 0,4.61524 z m 0,2.45508 c 0,0 0,7.20166 0,7.20166 0,0 -3.12402,0 -3.12402,0 0,0 0,-16.72168 0,-16.72168 0,0 5.90918,0 5.90918,0 2.7041,0 4.75195,0.94482 4.75195,4.01172 0,1.82714 -0.46972,3.74707 -2.5664,4.0332 0,0 0,0.0439 0,0.0439 1.85644,0.25098 2.4082,1.43116 2.4082,3.03125 0,0.69922 -0.0928,4.79297 0.66602,5.29004 0,0 0,0.31153 0,0.31153 0,0 -3.42969,0 -3.42969,0 -0.37695,-1.07911 -0.31152,-3.12696 -0.33301,-4.23584 -0.0273,-1.02979 0,-2.43067 -1.07129,-2.75293 -0.84082,-0.23487 -1.75781,-0.21289 -2.65429,-0.21289 0,0 -0.55665,0 -0.55665,0 z"
         style="fill:#ffffff;fill-opacity:1;fill-rule:nonzero;stroke:none"
         id="path40440" />
      <path
         d="m 340.34766,-642.85693 c 0,0 0,-16.72168 0,-16.72168 0,0 3.125,0 3.125,0 0,0 0,16.72168 0,16.72168 0,0 -3.125,0 -3.125,0 z"
         style="fill:#ffffff;fill-opacity:1;fill-rule:nonzero;stroke:none"
         id="path40442" />
      <path
         d="m 351.2168,-648.61133 c 0,1.38721 0.10937,3.63526 2.25097,3.63526 2.22852,0 2.25,-2.29395 2.25,-3.90528 0,0 0,-4.27929 0,-4.27929 0,-1.33301 0.0654,-4.30713 -2.25,-4.30713 -2.44726,0 -2.25097,2.92773 -2.25097,4.21923 0,0 0,4.63721 0,4.63721 z m -3.21094,-3.94336 c 0.13086,-4.26025 0.46973,-7.42822 5.46191,-7.42822 4.99707,0 5.33106,3.16797 5.46192,7.42822 0,0 0,2.38135 0,2.38135 0,4.45703 -0.33399,7.71484 -5.46192,7.71484 -5.1289,0 -5.46191,-3.25781 -5.46191,-7.71484 0,0 0,-2.38135 0,-2.38135 z"
         style="fill:#ffffff;fill-opacity:1;fill-rule:nonzero;stroke:none"
         id="path40444" />
      <path
         d="m 274.74023,-519.74707 c 0,0 -2.22851,0 -2.22851,0 0,0 0,-1.66553 0,-1.66553 1.18555,0.0161 2.64355,-0.34424 2.90039,-1.64453 0,0 1.65527,0 1.65527,0 0,0 0,10.69434 0,10.69434 0,0 -2.32715,0 -2.32715,0 0,0 0,-7.38428 0,-7.38428 z"
         style="fill:#ffffff;fill-opacity:1;fill-rule:nonzero;stroke:none"
         id="path40446" />
      <path
         d="m 285.88281,-519.52881 c 0,0.66699 -0.0713,1.71533 0.85742,1.71533 0.89063,0 0.80274,-1.03759 0.80274,-1.64941 0,-0.67725 0.16894,-2.01025 -0.83594,-2.01025 -0.89551,0 -0.82422,1.35449 -0.82422,1.94433 z m 0.0381,4.59912 c 0.0215,0.56787 0.14746,1.00537 0.80859,1.00537 0.92871,0 0.79199,-1.25683 0.79199,-1.8789 0,0 0,-0.73242 0,-0.73242 -0.5791,0.43164 -0.92871,0.53515 -1.65039,0.53515 -1.98193,0 -2.42968,-1.62695 -2.42968,-3.27685 0,-2.45752 0.66064,-4.02002 3.35839,-4.02002 2.43653,0 3.16309,1.66064 3.16309,3.8457 0,0 0,2.88867 0,2.88867 0,2.2666 -0.30078,4.46289 -3.02637,4.46289 -2.08105,0 -3.25488,-0.63379 -3.32617,-2.82959 0,0 2.31055,0 2.31055,0 z"
         style="fill:#ffffff;fill-opacity:1;fill-rule:nonzero;stroke:none"
         id="path40448" />
      <path
         d="m 294.6377,-517.10352 c 0,0 0.29003,-5.95361 0.29003,-5.95361 0,0 5.64161,0 5.64161,0 0,0 0,1.95557 0,1.95557 0,0 -3.80176,0 -3.80176,0 0,0 -0.10352,2.04248 -0.10352,2.04248 0.50782,-0.44727 1.02149,-0.66602 1.7041,-0.66602 2.27247,0 2.6543,1.92285 2.6543,3.76856 0,2.36523 -0.78613,3.85644 -3.35351,3.85644 -1.87305,0 -2.76856,-0.87402 -3.09668,-2.65478 0,0 0,-0.83008 0,-0.83008 0,0 2.2998,0 2.2998,0 0.0547,0.52392 -0.0606,1.57275 0.75293,1.66064 0.96191,0.0977 0.96191,-1.23437 0.96191,-1.81347 0,-0.67774 0.10352,-2.16309 -0.94531,-2.16309 -0.51269,0 -0.81347,0.28418 -0.85742,0.79736 0,0 -2.14648,0 -2.14648,0 z"
         style="fill:#ffffff;fill-opacity:1;fill-rule:nonzero;stroke:none"
         id="path40450" />
      <path
         d="m 307.97559,-519.74707 c 0,0 -2.22852,0 -2.22852,0 0,0 0,-1.66553 0,-1.66553 1.18555,0.0161 2.63867,-0.34424 2.90039,-1.64453 0,0 1.64942,0 1.64942,0 0,0 0,10.69434 0,10.69434 0,0 -2.32129,0 -2.32129,0 0,0 0,-7.38428 0,-7.38428 z"
         style="fill:#ffffff;fill-opacity:1;fill-rule:nonzero;stroke:none"
         id="path40452" />
      <path
         d="m 142.03369,-570.06152 c 3.17334,0.13623 5.94776,-0.73194 6.17188,-4.43506 0.32226,-5.13428 -6.9751,-5.66944 -10.50342,-5.87696 -3.62647,-0.38232 -11.71289,-0.95019 -12.04883,4.46778 -0.22363,3.52295 2.61621,4.44629 5.5166,4.99219 0.60108,0.10937 1.20166,0.18554 1.80811,0.29492 0,0 -0.18848,2.95508 -0.18848,2.95508 -0.52441,-0.10401 -1.10351,-0.13672 -1.625,-0.2461 -2.16846,-0.30566 -3.7959,-0.52441 -5.5708,-1.92285 -1.84082,-1.50684 -2.78857,-3.42969 -2.63574,-5.98584 0.51367,-8.24756 8.48535,-8.02881 14.86181,-7.62451 6.01612,0.37109 13.52637,1.72558 13.05372,9.31738 -0.32471,5.06885 -4.25733,7.47217 -9.02588,7.02442 0,0 0.18603,-2.96045 0.18603,-2.96045 z"
         style="fill:#948884;fill-opacity:1;fill-rule:nonzero;stroke:none"
         id="path40454" />
      <path
         d="m 123.16016,-561.28955 c 0,0 26.70849,-1.91211 26.70849,-1.91211 0,0 0.21826,2.94922 0.21826,2.94922 0,0 -11.15576,0.80859 -11.15576,0.80859 0,0 0.74024,10.21387 0.74024,10.21387 0,0 11.14209,-0.80859 11.14209,-0.80859 0,0 0.22119,2.96582 0.22119,2.96582 0,0 -26.71094,1.91699 -26.71094,1.91699 0,0 -0.22119,-2.95996 -0.22119,-2.95996 0,0 12.89258,-0.91797 12.89258,-0.91797 0,0 -0.73438,-10.22461 -0.73438,-10.22461 0,0 -12.88183,0.92871 -12.88183,0.92871 0,0 -0.21875,-2.95996 -0.21875,-2.95996 z"
         style="fill:#948884;fill-opacity:1;fill-rule:nonzero;stroke:none"
         id="path40456" />
      <path
         d="m 151.65723,-542.73047 c 0,0 0.63916,2.88379 0.63916,2.88379 0,0 -18.78858,4.11865 -18.78858,4.11865 -2.06445,0.41504 -5.30908,1.4961 -4.2876,6.1333 1.01612,4.63721 4.40772,4.25489 6.45069,3.77393 0,0 18.80469,-4.11816 18.80469,-4.11816 0,0 0.63086,2.89501 0.63086,2.89501 0,0 -19.84278,4.34766 -19.84278,4.34766 -4.67285,1.02686 -7.6167,-1.58398 -8.65967,-6.32471 -1.03222,-4.73535 0.55713,-8.34033 5.21582,-9.36181 0,0 19.83741,-4.34766 19.83741,-4.34766 z"
         style="fill:#948884;fill-opacity:1;fill-rule:nonzero;stroke:none"
         id="path40458" />
      <path
         d="m 161.04395,-510.48389 c 0,0 1.04589,2.78028 1.04589,2.78028 0,0 -25.04296,9.46533 -25.04296,9.46533 0,0 -1.71485,-4.54443 -1.71485,-4.54443 0,0 17.38477,-14.58301 17.38477,-14.58301 0.97802,-0.82471 2.00488,-1.56201 3.41406,-2.35938 0,0 -0.0195,-0.0654 -0.0195,-0.0654 -1.25293,0.51319 -2.55567,1.0376 -3.82031,1.51856 0,0 -19.95752,7.54785 -19.95752,7.54785 0,0 -1.0542,-2.77442 -1.0542,-2.77442 0,0 25.04248,-9.45996 25.04248,-9.45996 0,0 1.7041,4.50049 1.7041,4.50049 0,0 -17.81397,14.86182 -17.81397,14.86182 -0.6582,0.59521 -1.3623,1.13086 -2.40576,1.90625 0,0 0.022,0.0708 0.022,0.0708 0.88476,-0.37647 1.84619,-0.78076 2.77734,-1.13037 0,0 20.43848,-7.73438 20.43848,-7.73438 z"
         style="fill:#948884;fill-opacity:1;fill-rule:nonzero;stroke:none"
         id="path40460" />
      <path
         d="m 148.12891,-476.63135 c 0,0 -1.1084,-1.99902 -1.1084,-1.99902 0,0 3.65381,-2.02051 3.65381,-2.02051 0,0 -0.0327,-0.0654 -0.0327,-0.0654 -3.03711,0.78613 -5.5791,-0.55176 -7.01318,-3.13525 -3.85889,-6.96924 2.76904,-11.33887 8.2749,-14.39209 5.46191,-3.03125 12.55664,-5.69678 16.31445,1.08691 2.4795,4.45703 0.98877,8.62988 -3.4165,10.98926 0,0 -1.45557,-2.63281 -1.45557,-2.63281 2.85645,-1.61133 4.17871,-3.94336 2.59473,-6.93653 -2.74463,-5.17773 -8.65186,-1.98828 -12.6499,0.23536 -3.56104,1.96582 -9.875,5.2373 -7.52637,9.97851 2.44678,4.92676 7.09473,2.92774 10.78711,0.81934 0,0 -2.88916,-5.19971 -2.88916,-5.19971 0,0 2.34033,-1.31104 2.34033,-1.31104 0,0 4.32861,7.81055 4.32861,7.81055 0,0 -12.20214,6.77246 -12.20214,6.77246 z"
         style="fill:#948884;fill-opacity:1;fill-rule:nonzero;stroke:none"
         id="path40462" />
      <path
         d="m 166.79785,-476.81689 c 0,0 1.58399,2.11376 1.58399,2.11376 2.02636,2.99854 3.80664,4.2876 7.06738,1.78614 2.64892,-1.97705 2.69287,-3.52832 -0.0625,-7.08399 0,0 -1.56494,-2.08642 -1.56494,-2.08642 0,0 -7.02393,5.27051 -7.02393,5.27051 z m -7.30273,11.32812 c 1.90332,2.58887 3.87011,2.58887 6.66357,0.49121 4.24951,-3.14551 1.90625,-5.66894 0.082,-8.10547 0,0 -1.58398,-2.10791 -1.58398,-2.10791 0,0 -7.97168,5.98584 -7.97168,5.98584 0,0 2.81006,3.73633 2.81006,3.73633 z m -6.72608,-4.50098 c 0,0 21.41309,-16.0791 21.41309,-16.0791 0,0 4.58545,6.11719 4.58545,6.11719 3.03369,3.79004 1.90039,6.92529 -1.21533,9.44336 -2.30518,1.85693 -4.36963,2.20117 -7.11133,0.33301 0,0 -0.0523,0.0439 -0.0523,0.0439 1.77832,3.08008 0.36328,5.4834 -2.24463,7.48242 -4.23291,3.22266 -8.21728,2.55664 -11.12841,-1.69287 0,0 -4.24659,-5.64795 -4.24659,-5.64795 z"
         style="fill:#948884;fill-opacity:1;fill-rule:nonzero;stroke:none"
         id="path40464" />
      <path
         d="m 185.55371,-471.31104 c 0,0 2.08106,2.1084 2.08106,2.1084 0,0 -13.66553,13.54493 -13.66553,13.54493 -1.51563,1.45312 -3.67578,4.09082 -0.3335,7.47167 3.34278,3.36475 6.00293,1.23438 7.47217,-0.27246 0,0 13.6709,-13.55664 13.6709,-13.55664 0,0 2.08642,2.11914 2.08642,2.11914 0,0 -14.43017,14.29883 -14.43017,14.29883 -3.40283,3.36475 -7.28076,2.73682 -10.70801,-0.70996 -3.41064,-3.45166 -4.00635,-7.34033 -0.60351,-10.70508 0,0 14.43017,-14.29883 14.43017,-14.29883 z"
         style="fill:#948884;fill-opacity:1;fill-rule:nonzero;stroke:none"
         id="path40466" />
      <path
         d="m 183.94238,-435.75439 c 0,0 16.29004,-21.25196 16.29004,-21.25196 0,0 2.34033,1.80762 2.34033,1.80762 0,0 -8.35644,10.90185 -8.35644,10.90185 0,0 0.0571,0.0435 0.0571,0.0435 0,0 16.0332,-5.02441 16.0332,-5.02441 0,0 2.94971,2.26074 2.94971,2.26074 0,0 -13.59473,3.70898 -13.59473,3.70898 0,0 -2.49072,17.69043 -2.49072,17.69043 0,0 -2.88916,-2.21728 -2.88916,-2.21728 0,0 2.10547,-14.65967 2.10547,-14.65967 0,0 -4.41846,1.19629 -4.41846,1.19629 0,0 -5.64502,7.36816 -5.64502,7.36816 0,0 -2.38135,-1.82421 -2.38135,-1.82421 z"
         style="fill:#948884;fill-opacity:1;fill-rule:nonzero;stroke:none"
         id="path40468" />
      <path
         d="m 233.98926,-435.7876 c 0,0 2.65478,1.31104 2.65478,1.31104 0,0 -11.86328,23.99902 -11.86328,23.99902 0,0 -4.35596,-2.15234 -4.35596,-2.15234 0,0 2.77735,-22.51807 2.77735,-22.51807 0.14502,-1.27295 0.39892,-2.50732 0.89306,-4.05859 0,0 -0.0684,-0.0327 -0.0684,-0.0327 -0.57325,1.23438 -1.15235,2.49072 -1.75293,3.70313 0,0 -9.46534,19.13867 -9.46534,19.13867 0,0 -2.64941,-1.31055 -2.64941,-1.31055 0,0 11.86328,-24 11.86328,-24 0,0 4.31494,2.14112 4.31494,2.14112 0,0 -2.89502,23.01709 -2.89502,23.01709 -0.0708,0.87304 -0.2373,1.75781 -0.46679,3.03515 0,0 0.063,0.0274 0.063,0.0274 0.39844,-0.87891 0.81885,-1.82813 1.26709,-2.71485 0,0 9.6836,-19.58545 9.6836,-19.58545 z"
         style="fill:#948884;fill-opacity:1;fill-rule:nonzero;stroke:none"
         id="path40470" />
      <path
         d="m 246.7373,-428.64307 c 0,0 -0.0654,-0.0273 -0.0654,-0.0273 0,0 -7.84327,12.41553 -7.84327,12.41553 0,0 6.71241,2.21679 6.71241,2.21679 0,0 1.19628,-14.60498 1.19628,-14.60498 z m -1.16308,-2.64355 c 0,0 3.73047,1.23437 3.73047,1.23437 0,0 -1.27295,27.78955 -1.27295,27.78955 0,0 -3.11328,-1.0371 -3.11328,-1.0371 0,0 0.4209,-7.97461 0.4209,-7.97461 0,0 -8.021,-2.66602 -8.021,-2.66602 0,0 -4.29834,6.70703 -4.29834,6.70703 0,0 -3.11572,-1.03711 -3.11572,-1.03711 0,0 15.66992,-23.01611 15.66992,-23.01611 z"
         style="fill:#948884;fill-opacity:1;fill-rule:nonzero;stroke:none"
         id="path40472" />
      <path
         d="m 256.24658,-427.80225 c 0,0 16.49463,3.25537 16.49463,3.25537 0,0 -0.50781,2.63233 -0.50781,2.63233 0,0 -6.79981,-1.34326 -6.79981,-1.34326 0,0 -4.66992,23.63965 -4.66992,23.63965 0,0 -2.91113,-0.56836 -2.91113,-0.56836 0,0 4.67529,-23.63916 4.67529,-23.63916 0,0 -6.80029,-1.3545 -6.80029,-1.3545 0,0 0.51904,-2.62207 0.51904,-2.62207 z"
         style="fill:#948884;fill-opacity:1;fill-rule:nonzero;stroke:none"
         id="path40474" />
      <path
         d="m 273.01465,-397.77246 c 0,0 2.77441,-26.63233 2.77441,-26.63233 0,0 2.93848,0.30567 2.93848,0.30567 0,0 -2.76904,26.63135 -2.76904,26.63135 0,0 -2.94385,-0.30469 -2.94385,-0.30469 z"
         style="fill:#948884;fill-opacity:1;fill-rule:nonzero;stroke:none"
         id="path40476" />
      <path
         d="m 291.93945,-421.33545 c -4.56543,-0.0107 -5.70703,4.77393 -5.67968,10.73877 0.0273,7.73828 0.81347,11.8457 5.74511,11.85156 4.92188,0 5.70801,-4.10742 5.75684,-11.85156 0.0332,-5.95312 -1.10254,-10.73877 -5.82227,-10.73877 z m 0.14746,-2.68701 c 7.82129,0.0112 8.77735,7.2207 8.73926,13.35937 -0.0488,7.42774 -1.01074,14.59375 -8.83203,14.59375 -7.81543,-0.006 -8.73877,-7.17578 -8.79883,-14.61523 0,-6.12891 0.92871,-13.33789 8.8916,-13.33789 z"
         style="fill:#948884;fill-opacity:1;fill-rule:nonzero;stroke:none"
         id="path40478" />
      <path
         d="m 317.56152,-425.63916 c 0,0 2.93848,-0.41504 2.93848,-0.41504 0,0 3.76855,26.51221 3.76855,26.51221 0,0 -4.81152,0.67578 -4.81152,0.67578 0,0 -10.43848,-20.14258 -10.43848,-20.14258 -0.59472,-1.14697 -1.08105,-2.30469 -1.56152,-3.85596 0,0 -0.0654,0.0108 -0.0654,0.0108 0.22949,1.33886 0.45801,2.71484 0.64453,4.05224 0,0 3.02051,21.13867 3.02051,21.13867 0,0 -2.93359,0.41407 -2.93359,0.41407 0,0 -3.7793,-26.50049 -3.7793,-26.50049 0,0 4.77344,-0.68799 4.77344,-0.68799 0,0 10.61816,20.62402 10.61816,20.62402 0.42578,0.77539 0.79688,1.58399 1.32715,2.77344 0,0 0.0713,-0.01 0.0713,-0.01 -0.16992,-0.95508 -0.35547,-1.9668 -0.49707,-2.96094 0,0 -3.0752,-21.62842 -3.0752,-21.62842 z"
         style="fill:#948884;fill-opacity:1;fill-rule:nonzero;stroke:none"
         id="path40480" />
      <path
         d="m 332.15039,-426.92822 c 0,0 -0.0772,0.022 -0.0772,0.022 0,0 0.53516,14.65918 0.53516,14.65918 0,0 6.79492,-1.95508 6.79492,-1.95508 0,0 -7.25293,-12.72607 -7.25293,-12.72607 z m -2.44726,-1.51856 c 0,0 3.77441,-1.09228 3.77441,-1.09228 0,0 14.61523,23.66113 14.61523,23.66113 0,0 -3.15625,0.89453 -3.15625,0.89453 0,0 -4.1455,-6.82617 -4.1455,-6.82617 0,0 -8.13282,2.33203 -8.13282,2.33203 0,0 0.23438,7.94727 0.23438,7.94727 0,0 -3.15625,0.90625 -3.15625,0.90625 0,0 -0.0332,-27.82276 -0.0332,-27.82276 z"
         style="fill:#948884;fill-opacity:1;fill-rule:nonzero;stroke:none"
         id="path40482" />
      <path
         d="m 353.22754,-407.96387 c 0,0 -10.55274,-24.60107 -10.55274,-24.60107 0,0 2.72559,-1.16895 2.72559,-1.16895 0,0 9.49805,22.14307 9.49805,22.14307 0,0 10.04492,-4.30469 10.04492,-4.30469 0,0 1.04785,2.45703 1.04785,2.45703 0,0 -12.76367,5.47461 -12.76367,5.47461 z"
         style="fill:#948884;fill-opacity:1;fill-rule:nonzero;stroke:none"
         id="path40484" />
      <path
         d="m 364.94336,-443.23193 c 0,0 2.45215,-1.65479 2.45215,-1.65479 0,0 10.77051,15.94873 10.77051,15.94873 1.14746,1.75879 3.34765,4.36914 7.28613,1.70947 3.93262,-2.65966 2.33203,-5.66406 1.11426,-7.39013 0,0 -10.77051,-15.94824 -10.77051,-15.94824 0,0 2.45801,-1.66065 2.45801,-1.66065 0,0 11.37109,16.8335 11.37109,16.8335 2.67676,3.97656 1.34375,7.66845 -2.67578,10.38867 -4.02539,2.71973 -7.95801,2.56689 -10.64063,-1.3877 0,0 -11.36523,-16.83886 -11.36523,-16.83886 z"
         style="fill:#948884;fill-opacity:1;fill-rule:nonzero;stroke:none"
         id="path40486" />
      <path
         d="m 391.54199,-463.83936 c 0,0 2.18457,-1.99902 2.18457,-1.99902 0,0 17.99707,19.8374 17.99707,19.8374 0,0 -3.59375,3.26612 -3.59375,3.26612 0,0 -19.95215,-10.8252 -19.95215,-10.8252 -1.125,-0.62305 -2.18457,-1.30566 -3.44628,-2.32715 0,0 -0.0547,0.0547 -0.0547,0.0547 0.93945,0.9834 1.90625,1.98291 2.80762,2.99316 0,0 14.35351,15.80665 14.35351,15.80665 0,0 -2.19531,1.99365 -2.19531,1.99365 0,0 -18.00293,-19.83203 -18.00293,-19.83203 0,0 3.57715,-3.2334 3.57715,-3.2334 0,0 20.3623,11.1206 20.3623,11.1206 0.78613,0.39307 1.5459,0.85157 2.6543,1.54541 0,0 0.0547,-0.0493 0.0547,-0.0493 -0.67188,-0.69336 -1.39844,-1.43067 -2.07032,-2.16797 0,0 -14.67578,-16.1836 -14.67578,-16.1836 z"
         style="fill:#948884;fill-opacity:1;fill-rule:nonzero;stroke:none"
         id="path40488" />
      <path
         d="m 417.03809,-451.85059 c 0,0 -19.93555,-17.86035 -19.93555,-17.86035 0,0 1.98242,-2.21191 1.98242,-2.21191 0,0 19.93555,17.87109 19.93555,17.87109 0,0 -1.98242,2.20117 -1.98242,2.20117 z"
         style="fill:#948884;fill-opacity:1;fill-rule:nonzero;stroke:none"
         id="path40490" />
      <path
         d="m 410.49512,-486.59326 c 0,0 1.93847,-2.64356 1.93847,-2.64356 0,0 17.01368,22.05469 17.01368,22.05469 0,0 -2.17383,2.97168 -2.17383,2.97168 0,0 -26.11817,-9.65723 -26.11817,-9.65723 0,0 1.93848,-2.65429 1.93848,-2.65429 0,0 23.51367,9.60205 23.51367,9.60205 0,0 0.0439,-0.0547 0.0439,-0.0547 0,0 -16.15625,-19.61865 -16.15625,-19.61865 z"
         style="fill:#948884;fill-opacity:1;fill-rule:nonzero;stroke:none"
         id="path40492" />
      <path
         d="m 436.67871,-477.89307 c 0,0 -23.38183,-13.04785 -23.38183,-13.04785 0,0 6.53808,-11.68847 6.53808,-11.68847 0,0 2.33203,1.2998 2.33203,1.2998 0,0 -5.08008,9.11035 -5.08008,9.11035 0,0 7.72852,4.30371 7.72852,4.30371 0,0 4.76855,-8.53125 4.76855,-8.53125 0,0 2.3379,1.29981 2.3379,1.29981 0,0 -4.77344,8.54248 -4.77344,8.54248 0,0 8.64062,4.81738 8.64062,4.81738 0,0 5.11231,-9.15381 5.11231,-9.15381 0,0 2.34277,1.29981 2.34277,1.29981 0,0 -6.56543,11.74804 -6.56543,11.74804 z"
         style="fill:#948884;fill-opacity:1;fill-rule:nonzero;stroke:none"
         id="path40494" />
      <path
         d="m 433.99707,-504.15869 c 0,0 1.7207,-4.3584 1.7207,-4.3584 0.47559,-1.30029 1.70411,-4.9707 -2.67675,-6.62012 -4.30372,-1.63281 -5.7295,1.68262 -6.4668,3.5503 0,0 -1.54004,3.8667 -1.54004,3.8667 0,0 8.96289,3.56152 8.96289,3.56152 z m 13.44727,5.32519 c 0,0 -1.09278,2.74707 -1.09278,2.74707 0,0 -24.90039,-9.85302 -24.90039,-9.85302 0,0 2.54004,-6.41211 2.54004,-6.41211 2.05859,-5.21045 4.74121,-7.99073 10.41016,-5.54932 2.88379,1.24512 4.27148,3.87793 3.52246,6.92578 0,0 0.0664,0.0215 0.0664,0.0215 1.57813,-3.10205 2.92188,-3.48438 6.39551,-2.57764 1.90625,0.64404 3.79004,1.20166 5.75684,1.67139 0.50195,0.0869 1.68164,0.3164 1.94433,-0.34961 0,0 0.55664,0.22949 0.55664,0.22949 0,0 -1.27734,3.22217 -1.27734,3.22217 -1.82422,-0.0381 -5.01465,-0.99365 -6.6748,-1.64942 -2.49024,-0.98291 -5.01368,-0.83545 -6.30274,2.41407 0,0 -1.90039,4.81738 -1.90039,4.81738 0,0 10.95606,4.34228 10.95606,4.34228 z"
         style="fill:#948884;fill-opacity:1;fill-rule:nonzero;stroke:none"
         id="path40496" />
      <path
         d="m 438.12598,-534.40674 c -2.64844,-0.87402 -5.05176,0.0879 -5.75098,2.96045 -1.02734,4.21631 1.50195,5.29834 3.51758,5.78955 1.80762,0.43701 3.10742,-0.0874 4.13476,-1.60058 0.86231,-1.26172 1.71485,-2.48487 2.56641,-3.75196 3.04297,-4.47851 4.99219,-4.95947 8.43359,-4.12402 4.91602,1.20703 7.05664,4.99219 5.83887,9.99023 -0.63379,2.57227 -2.10254,5.45069 -5.86035,6.10645 -1.4209,0.24023 -3.49609,-0.29492 -4.89453,-0.60108 0,0 0.69922,-2.88378 0.69922,-2.88378 3.81836,1.08154 6.42871,0.94482 7.48828,-3.39747 0.70508,-2.90576 -0.28906,-5.31982 -3.34278,-6.0625 -3.9541,-0.97216 -4.37988,0.62256 -6.02441,3.01514 -0.91211,1.28906 -2.19531,3.39697 -3.25488,4.60938 -1.85156,2.15234 -4.08594,2.27783 -6.65235,1.64453 -4.30468,-1.04346 -6.37988,-4.74658 -5.34765,-8.97412 1.1582,-4.75196 4.33105,-7.07325 9.15918,-5.60401 0,0 -0.70996,2.88379 -0.70996,2.88379 z"
         style="fill:#948884;fill-opacity:1;fill-rule:nonzero;stroke:none"
         id="path40498" />
      <path
         d="m 459.18164,-540.2124 c 0,0 -26.52246,-3.75244 -26.52246,-3.75244 0,0 0.41504,-2.93311 0.41504,-2.93311 0,0 26.52832,3.75244 26.52832,3.75244 0,0 -0.4209,2.93311 -0.4209,2.93311 z"
         style="fill:#948884;fill-opacity:1;fill-rule:nonzero;stroke:none"
         id="path40500" />
      <path
         d="m 433.68066,-549.88525 c 0,0 0.84082,-16.82276 0.84082,-16.82276 0,0 2.6709,0.15283 2.6709,0.15283 0,0 -0.34375,6.91504 -0.34375,6.91504 0,0 24.0752,1.19043 24.0752,1.19043 0,0 -0.1416,2.97119 -0.1416,2.97119 0,0 -24.08106,-1.2124 -24.08106,-1.2124 0,0 -0.34472,6.92578 -0.34472,6.92578 0,0 -2.67579,-0.12011 -2.67579,-0.12011 z"
         style="fill:#948884;fill-opacity:1;fill-rule:nonzero;stroke:none"
         id="path40502" />
      <path
         d="m 447.32422,-576.8667 c 0,0 -13.83496,-5.31445 -13.83496,-5.31445 0,0 -0.22949,-3.27198 -0.22949,-3.27198 0,0 16.91503,6.91456 16.91503,6.91456 0,0 10.36719,-0.73145 10.36719,-0.73145 0,0 0.20215,2.95459 0.20215,2.95459 0,0 -10.36719,0.7373 -10.36719,0.7373 0,0 -15.76269,9.16504 -15.76269,9.16504 0,0 -0.2461,-3.26611 -0.2461,-3.26611 0,0 12.95606,-7.1875 12.95606,-7.1875 z"
         style="fill:#948884;fill-opacity:1;fill-rule:nonzero;stroke:none"
         id="path40504" />
      <path
         d="m 410.7627,-648.24805 c 0,0 9.67773,-6.8955 9.67773,-6.8955 0,0 -2.68652,-3.77393 -2.68652,-3.77393 0,0 -9.67871,6.89795 -9.67871,6.89795 0,0 -2.6709,-3.74414 -2.6709,-3.74414 0,0 9.85351,-7.0293 9.85351,-7.0293 0,0 -2.69336,-3.77148 -2.69336,-3.77148 0,0 -13.03711,9.31006 -13.03711,9.31006 0,0 14.46875,20.29882 14.46875,20.29882 0,0 3.19532,-2.28027 3.19532,-2.28027 0,0 -6.42871,-9.01221 -6.42871,-9.01221 z"
         style="fill:#948884;fill-opacity:1;fill-rule:nonzero;stroke:none"
         id="path40506" />
      <path
         d="m 419.2832,-647.6582 c 0,0 2.67578,3.76318 2.67578,3.76318 0,0 15.10254,-10.76269 15.10254,-10.76269 0,0 -14.11914,-19.79395 -14.11914,-19.79395 0,0 -3.18457,2.26953 -3.18457,2.26953 0,0 11.4209,16.03906 11.4209,16.03906 0,0 -11.89551,8.48487 -11.89551,8.48487 z"
         style="fill:#948884;fill-opacity:1;fill-rule:nonzero;stroke:none"
         id="path40508" />
      <path
         d="m 293.95508,-734.90869 c 0,0 0,19.14111 0,19.14111 0,0 -10.2461,0 -10.2461,0 0,0 0,-15.21387 0,-15.21387 0,0 6.73926,0 6.73926,0 0,0 0,-3.92724 0,-3.92724 0,0 -11.36035,0 -11.36035,0 0,0 0,23.06543 0,23.06543 0,0 14.86719,0 14.86719,0 0,0 0,5.59277 0,5.59277 0,0 4.51172,0 4.51172,0 0,0 0,-24.73096 0,-24.73096 0,0 2.15234,0 2.15234,0 0,0 0,24.73096 0,24.73096 0,0 4.63672,0 4.63672,0 0,0 0,-24.73096 0,-24.73096 0,0 0,-3.9165 0,-3.9165 0,0 0,-0.0107 0,-0.0107 0,0 -11.30078,0 -11.30078,0 z"
         style="fill:#948884;fill-opacity:1;fill-rule:nonzero;stroke:none"
         id="path40510" />
      <path
         d="m 225.91943,-712.55322 c 0,0 -14.47656,7.48535 -14.47656,7.48535 0,0 -1.11963,-2.14356 -1.11963,-2.14356 0,0 14.48194,-7.48535 14.48194,-7.48535 0,0 1.11425,2.14356 1.11425,2.14356 z m -4.03906,-7.80469 c 0,0 1.23731,2.40039 1.23731,2.40039 0,0 -14.4712,7.48535 -14.4712,7.48535 0,0 -1.23974,-2.40332 -1.23974,-2.40332 0,0 -4.11865,2.12988 -4.11865,2.12988 0,0 5.66406,10.93213 5.66406,10.93213 0,0 0.0713,0.14209 0.0713,0.14209 0,0 22.68847,-11.73486 22.68847,-11.73486 0,0 -0.0654,-0.14746 -0.0654,-0.14746 0,0 -5.65869,-10.9292 -5.65869,-10.9292 0,0 -4.10742,2.125 -4.10742,2.125 z"
         style="fill:#948884;fill-opacity:1;fill-rule:nonzero;stroke:none"
         id="path40512" />
      <path
         d="m 210.96484,-694.01025 c 0,0 10.01172,-5.1836 10.01172,-5.1836 0,0 0.99414,1.92871 0.99414,1.92871 0,0 -9.22802,4.77344 -9.22802,4.77344 0,0 1.79736,3.48438 1.79736,3.48438 0,0 18.58105,-9.6128 18.58105,-9.6128 0,0 2.20655,4.271 2.20655,4.271 0,0 4.10742,-2.12988 4.10742,-2.12988 0,0 -4.00342,-7.75 -4.00342,-7.75 0,0 -9.23096,4.7788 -9.23096,4.7788 0,0 -1.00488,-1.92236 -1.00488,-1.92236 0,0 10.02246,-5.18359 10.02246,-5.18359 0,0 -1.81299,-3.48194 -1.81299,-3.48194 0,0 -24.24804,12.54346 -24.24804,12.54346 0,0 1.80761,3.48438 1.80761,3.48438 z"
         style="fill:#948884;fill-opacity:1;fill-rule:nonzero;stroke:none"
         id="path40514" />
      <path
         d="m 377.27051,-712.01514 c 0,0 -7.19336,13.91114 -7.19336,13.91114 0,0 4.1123,2.12207 4.1123,2.12207 0,0 5.39649,-10.4209 5.39649,-10.4209 0,0 2.8623,1.49072 2.8623,1.49072 0,0 1.80762,-3.4873 1.80762,-3.4873 0,0 -6.98535,-3.61573 -6.98535,-3.61573 z"
         style="fill:#948884;fill-opacity:1;fill-rule:nonzero;stroke:none"
         id="path40516" />
      <path
         d="m 349.91211,-706.00439 c 0,0 -1.79688,3.48437 -1.79688,3.48437 0,0 19.12696,9.89746 19.12696,9.89746 0,0 -3.13477,6.05957 -3.13477,6.05957 0,0 4.10742,2.12744 4.10742,2.12744 0,0 4.9375,-9.54199 4.9375,-9.54199 0,0 -23.24023,-12.02685 -23.24023,-12.02685 z"
         style="fill:#948884;fill-opacity:1;fill-rule:nonzero;stroke:none"
         id="path40518" />
      <path
         d="m 364.5,-714.19727 c 1.9502,1.01319 2.70996,3.41944 1.70508,5.36914 -1.01074,1.96045 -3.41992,2.72266 -5.375,1.71485 -1.95508,-1.01026 -2.71973,-3.42188 -1.7041,-5.37158 1.00488,-1.95264 3.41406,-2.72559 5.37402,-1.71241 z m -9.48145,-0.40966 c -2.01562,3.87793 -0.21777,8.80468 4.00879,10.98925 4.22266,2.18457 9.28028,0.8086 11.29004,-3.07519 0.69922,-1.37598 0.87989,-2.7959 0.65528,-4.16406 0,0 2.13574,1.09765 2.13574,1.09765 0,0 1.80273,-3.47949 1.80273,-3.47949 0,0 -6.60351,-3.41602 -6.60351,-3.41602 0,0 1.16894,-2.2666 1.16894,-2.2666 0,0 -4.42968,-2.2998 -4.42968,-2.2998 0,0 -1.17969,2.27246 -1.17969,2.27246 0,0 -6.16114,-3.18457 -6.16114,-3.18457 0,0 -1.80761,3.47949 -1.80761,3.47949 0,0 2.12988,1.09766 2.12988,1.09766 -1.24512,0.62011 -2.31055,1.58935 -3.00977,2.94922 z"
         style="fill:#948884;fill-opacity:1;fill-rule:nonzero;stroke:none"
         id="path40520" />
      <path
         d="m 143.39355,-607.38818 c 2.4087,0 4.375,-1.96289 4.375,-4.37989 0,-2.42285 -1.9663,-4.3833 -4.375,-4.3833 -2.42236,0 -4.38037,1.96045 -4.38037,4.3833 0,2.417 1.95801,4.37989 4.38037,4.37989 z"
         style="fill:#948884;fill-opacity:1;fill-rule:nonzero;stroke:none"
         id="path40522" />
      <path
         d="m 441.13574,-607.38818 c 2.41992,0 4.38574,-1.96289 4.38574,-4.37989 0,-2.42285 -1.96582,-4.3833 -4.38574,-4.3833 -2.41406,0 -4.37988,1.96045 -4.37988,4.3833 0,2.417 1.96582,4.37989 4.37988,4.37989 z"
         style="fill:#948884;fill-opacity:1;fill-rule:nonzero;stroke:none"
         id="path40524" />
      <path
         d="m 163.77734,-667.06396 c -1.1582,1.625 -2.90283,2.52587 -4.53906,2.51464 0,0 5.65625,-7.93554 5.65625,-7.93554 0,0 -3.19287,-2.27784 -3.19287,-2.27784 0,0 -6.10352,8.5669 -6.10352,8.5669 0,0 -2.02343,-1.43945 -2.02343,-1.43945 0,0 -2.89502,4.06933 -2.89502,4.06933 0,0 2.01562,1.43653 2.01562,1.43653 0,0 -6.10644,8.56933 -6.10644,8.56933 0,0 3.19238,2.27246 3.19238,2.27246 0,0 5.68066,-7.96338 5.68066,-7.96338 0.54883,1.53174 0.27295,3.47119 -0.88769,5.09619 0,0 -3.09717,4.3501 -3.09717,4.3501 0,0 3.12451,2.22852 3.12451,2.22852 0,0 3.09668,-4.34522 3.09668,-4.34522 1.84326,-2.583 2.58594,-5.54345 2.25,-8.13525 2.56201,-0.52686 5.10742,-2.1958 6.95313,-4.77881 0,0 2.95508,-4.14307 2.95508,-4.14307 0,0 -3.12989,-2.22851 -3.12989,-2.22851 0,0 -2.94922,4.14307 -2.94922,4.14307 z"
         style="fill:#948884;fill-opacity:1;fill-rule:nonzero;stroke:none"
         id="path40526" />
      <path
         d="m 176.84766,-653.59814 c 1.67089,1.19628 1.83496,3.82324 0.36865,5.88281 -1.4668,2.05859 -4.01172,2.7666 -5.68311,1.57031 -1.67675,-1.19336 -1.83496,-3.82617 -0.37158,-5.87988 1.46924,-2.05908 4.00928,-2.76953 5.68604,-1.57324 z m -2.01026,-12.55665 c 0,0 -3.12402,-2.22265 -3.12402,-2.22265 0,0 -15.83399,22.19678 -15.83399,22.19678 0,0 3.12989,2.22802 3.12989,2.22802 0,0 6.53222,-9.16455 6.53222,-9.16455 0,0 1.17432,0.83008 1.17432,0.83008 -1.62793,3.78272 -0.89307,7.95557 2.03467,10.04443 3.48193,2.4795 8.74707,1.07618 11.75097,-3.12988 3.00391,-4.21094 2.60792,-9.63965 -0.87402,-12.12793 -2.9331,-2.0918 -7.11377,-1.41992 -10.15869,1.34668 0,0 -1.16895,-0.83301 -1.16895,-0.83301 0,0 6.5376,-9.16797 6.5376,-9.16797 z"
         style="fill:#948884;fill-opacity:1;fill-rule:nonzero;stroke:none"
         id="path40528" />
    </g>
  </g>
</svg>
