<?xml version="1.0" encoding="UTF-8" standalone="no"?>
<!-- Created with Inkscape (http://www.inkscape.org/) -->

<svg
   version="1.1"
   id="svg68260"
   width="793.70135"
   height="793.70135"
   viewBox="0 0 793.70135 793.70135"
   sodipodi:docname="한국항공대학교.svg"
   inkscape:version="1.2.1 (9c6d41e410, 2022-07-14)"
   xmlns:inkscape="http://www.inkscape.org/namespaces/inkscape"
   xmlns:sodipodi="http://sodipodi.sourceforge.net/DTD/sodipodi-0.dtd"
   xmlns="http://www.w3.org/2000/svg"
   xmlns:svg="http://www.w3.org/2000/svg">
  <defs
     id="defs68264">
    <clipPath
       clipPathUnits="userSpaceOnUse"
       id="clipPath68290">
      <path
         d="M 0,595.276 H 595.276 V 0 H 0 Z"
         id="path68288" />
    </clipPath>
  </defs>
  <sodipodi:namedview
     id="namedview68262"
     pagecolor="#ffffff"
     bordercolor="#000000"
     borderopacity="0.25"
     inkscape:showpageshadow="2"
     inkscape:pageopacity="0.0"
     inkscape:pagecheckerboard="true"
     inkscape:deskcolor="#d1d1d1"
     showgrid="false"
     inkscape:zoom="2.3787284"
     inkscape:cx="295.95644"
     inkscape:cy="403.57696"
     inkscape:window-width="2560"
     inkscape:window-height="1494"
     inkscape:window-x="-11"
     inkscape:window-y="-11"
     inkscape:window-maximized="1"
     inkscape:current-layer="g68268">
    <inkscape:page
       x="0"
       y="0"
       id="page68266"
       width="793.70135"
       height="793.70135" />
  </sodipodi:namedview>
  <g
     id="g68268"
     inkscape:groupmode="layer"
     inkscape:label="Page 1"
     transform="matrix(1.3333333,0,0,-1.3333333,0,793.70133)">
    <g
       id="g68270"
       transform="translate(213.6799,313.4955)">
      <path
         d="M 0,0 V 2.724 H -4.306 V 0 H -9.923 V -3.589 H 5.765 l 0,3.589 z"
         style="fill:#002970;fill-opacity:1;fill-rule:nonzero;stroke:none"
         id="path68272" />
    </g>
    <path
       d="m 195.587,309.907 h 1.711 v -11.524 h -1.711 z m -6.017,0 h 1.711 v -11.524 h -1.711 z m 12.035,0 v 2.77 0.819 h -6.018 v 2.724 h -4.306 v -2.724 h -6.017 v -0.819 -2.77 -11.524 h -1.452 v -3.589 h 1.452 v -15.738 h 4.306 v 15.738 h 1.711 v -15.738 h 4.306 v 15.738 h 1.711 v -15.738 h 4.307 v 15.738 h 1.451 v 3.589 h -1.451 z"
       style="fill:#002970;fill-opacity:1;fill-rule:nonzero;stroke:none"
       id="path68274" />
    <g
       id="g68276"
       transform="translate(214.9908,305.7981)">
      <path
         d="m 0,0 h -6.928 -3.992 -0.314 v -26.742 h 4.306 V -3.588 H 0 V -26.742 H 4.307 V 0 H 3.096 Z"
         style="fill:#002970;fill-opacity:1;fill-rule:nonzero;stroke:none"
         id="path68278" />
    </g>
    <g
       id="g68280"
       transform="translate(397.6789,313.4955)">
      <path
         d="M 0,0 V 2.724 H -4.306 V 0 h -13.783 v -34.439 h 4.306 v 30.85 H -8.9 v -30.85 h 4.306 v 30.85 h 4.883 v -30.85 h 4.306 v 30.85 h 4.883 v -30.85 h 4.306 l 0,34.439 z"
         style="fill:#002970;fill-opacity:1;fill-rule:nonzero;stroke:none"
         id="path68282" />
    </g>
    <g
       id="g68284"
       inkscape:export-filename="..\..\OneDrive\바탕 화면\잉스케이프-로고\한국항공대학교.png"
       inkscape:export-xdpi="72.638908"
       inkscape:export-ydpi="72.638908">
      <g
         id="g68286"
         clip-path="url(#clipPath68290)">
        <g
           id="g68292"
           transform="translate(113.2738,297.628)">
          <path
             d="m 0,0 c 0,101.81 82.544,184.374 184.369,184.374 101.818,0 184.359,-82.564 184.359,-184.374 0,-101.827 -82.541,-184.354 -184.359,-184.354 C 82.544,-184.354 0,-101.827 0,0 m 55.779,0 c 0,-70.893 57.689,-128.574 128.59,-128.574 70.894,0 128.574,57.681 128.574,128.574 0,70.894 -57.68,128.579 -128.574,128.579 C 113.468,128.579 55.779,70.894 55.779,0"
             style="fill:#002970;fill-opacity:1;fill-rule:nonzero;stroke:none"
             id="path68294" />
        </g>
        <g
           id="g68296"
           transform="translate(256.0606,347.5225)">
          <path
             d="m 0,0 c 0.328,-0.393 5.247,-8.399 9.179,-16.769 3.928,-8.367 3.814,-9.785 5.939,-14.99 2.133,-5.218 4.04,-18.288 4.04,-18.288 1.924,-0.745 4.408,-6.943 4.408,-6.943 0,2.239 -1.342,12.13 -3.149,19.089 -1.79,6.982 -6.627,17.982 -7.735,20.55 -1.099,2.572 -5.757,10.77 -8.798,15.566 -3.044,4.76 -5.475,7.033 -5.475,7.033 L -0.883,1.506 C -0.883,1.506 -0.32,0.407 0,0"
             style="fill:#002970;fill-opacity:1;fill-rule:nonzero;stroke:none"
             id="path68298" />
        </g>
        <g
           id="g68300"
           transform="translate(248.3217,353.3337)">
          <path
             d="m 0,0 c 2.831,-3.661 10.173,-16.539 10.173,-16.539 2.662,-4.23 6.378,-14.701 7.924,-19.286 2.054,-6.084 3.378,-13.964 3.378,-13.964 2.073,-2.18 4.36,-9.696 4.36,-9.696 0.073,3.92 -0.903,8.807 -2.218,14.63 -1.324,5.842 -4.369,13.138 -6.39,18.204 -2.021,5.05 -8.143,15.88 -9.019,17.603 C 7.328,-7.315 1.131,2.23 -2.028,6.11 -5.17,10 -7.083,11.634 -7.083,11.634 l 2.146,-4.861 c 0,0 2.123,-3.099 4.937,-6.773"
             style="fill:#002970;fill-opacity:1;fill-rule:nonzero;stroke:none"
             id="path68302" />
        </g>
        <g
           id="g68304"
           transform="translate(234.8835,361.1449)">
          <path
             d="m 0,0 c 2.276,-3.26 8.374,-12.468 10.603,-16.034 2.237,-3.563 8.119,-13.059 8.665,-14.07 0.553,-0.96 4.216,-8.571 5.895,-12.678 1.702,-4.106 3.606,-12.144 3.606,-12.144 2.02,-1.063 4.259,-8.421 4.259,-8.421 0.525,0.585 0.579,5.518 0.579,5.518 -0.693,5.964 -3.659,14.233 -6.284,21.692 -2.596,7.431 -7.839,15.657 -9.597,19.06 -1.764,3.428 -7.495,10.943 -13.364,18.465 -5.865,7.521 -11.505,11.587 -11.505,11.435 0,-0.143 4.338,-8.837 4.338,-8.837 0,0 0.527,-0.711 2.805,-3.986"
             style="fill:#002970;fill-opacity:1;fill-rule:nonzero;stroke:none"
             id="path68306" />
        </g>
        <g
           id="g68308"
           transform="translate(263.3528,287.1061)">
          <path
             d="m 0,0 c -0.106,0.791 -1.876,6.008 -3.593,10.663 -1.739,4.675 -5.612,10.232 -5.576,10.088 0.031,-0.133 -0.632,-8.295 -0.632,-8.295 0.658,-1.546 3.517,-8.74 3.517,-8.74 C -1.881,2.186 0,0 0,0"
             style="fill:#002970;fill-opacity:1;fill-rule:nonzero;stroke:none"
             id="path68310" />
        </g>
        <g
           id="g68312"
           transform="translate(247.3239,308.9628)">
          <path
             d="m 0,0 c 0,0 0.332,-11.669 0.442,-11.808 0.119,-0.154 2.521,-2.754 3.121,-3.415 0.579,-0.665 4.576,-2.88 4.576,-2.88 C 7.78,-16.039 5.541,-11.108 4.8,-9.427 4.064,-7.737 0,0 0,0"
             style="fill:#002970;fill-opacity:1;fill-rule:nonzero;stroke:none"
             id="path68314" />
        </g>
        <g
           id="g68316"
           transform="translate(225.6348,334.1485)">
          <path
             d="m 0,0 c 0,0 1.425,-1.473 1.682,-1.692 0.264,-0.212 5.98,-6.19 7.224,-7.904 1.248,-1.739 5.326,-7.983 6.037,-9.823 0.704,-1.768 3.334,-6.465 5.651,-14.048 l -0.408,9.743 c 0,0 -4.466,9.802 -5.869,12.18 -1.4,2.404 -9.247,15.418 -10.313,16.739 0,0 -12.642,17.326 -14.892,18.601 0,0 5.678,-10.389 6.055,-10.968 C -4.459,12.23 -0.626,2.678 0,0"
             style="fill:#002970;fill-opacity:1;fill-rule:nonzero;stroke:none"
             id="path68318" />
        </g>
        <g
           id="g68320"
           transform="translate(225.998,347.2311)">
          <path
             d="m 0,0 c 0.414,-0.527 8.043,-11.669 12.215,-18.567 4.178,-6.906 8.767,-17.043 8.767,-17.043 1.583,0 5.485,-9.47 5.485,-9.47 l 0.724,6.507 c -0.409,1.258 -4.211,12.56 -5.939,16.419 -1.714,3.848 -7.596,14.013 -8.253,15.372 C 12.338,-5.427 4.707,5.944 4.085,6.715 3.454,7.497 -5.891,19.752 -6.854,20.804 c -0.94,1.057 -5.39,5.587 -5.39,5.587 0,0 4.221,-9.591 4.694,-10.641 C -7.066,14.679 -0.4,0.515 0,0"
             style="fill:#002970;fill-opacity:1;fill-rule:nonzero;stroke:none"
             id="path68322" />
        </g>
        <g
           id="g68324"
           transform="translate(219.5429,370.3368)">
          <path
             d="m 0,0 c 0.223,-0.585 0.478,-1.169 0.478,-1.169 0,0 2.319,-2.526 2.455,-2.76 0.14,-0.219 3.686,-4.54 4.18,-5.206 0.515,-0.656 7.597,-10.484 7.815,-10.795 0.222,-0.272 7.241,-11.586 7.372,-11.84 0.156,-0.257 5.876,-10.896 6.651,-12.729 0.767,-1.824 3.095,-5.717 6.348,-16.088 0,0 1.387,-1.541 2.987,-4.334 1.549,-2.753 3.339,-7.014 3.339,-7.014 0,0 1.123,6.088 1.159,6.455 0.043,0.367 -0.196,1.862 -0.477,3.038 -0.3,1.186 -3.956,13.279 -7.636,19.885 -3.668,6.601 -9.935,16.751 -11.397,18.808 -1.462,2.047 -7.413,10.835 -7.599,11.176 -0.185,0.328 -3.448,5.097 -4.005,5.831 -0.538,0.749 -13.164,14.967 -14.827,15.959 0,0 -0.363,0.295 -0.022,-0.541 C -2.855,7.824 -0.229,0.599 0,0"
             style="fill:#002970;fill-opacity:1;fill-rule:nonzero;stroke:none"
             id="path68326" />
        </g>
        <g
           id="g68328"
           transform="translate(278.9936,271.0262)">
          <path
             d="M 0,0 C -0.128,0.03 -0.005,0 -0.005,0 Z"
             style="fill:#002970;fill-opacity:1;fill-rule:nonzero;stroke:none"
             id="path68330" />
        </g>
        <g
           id="g68332"
           transform="translate(326.3875,255.1707)">
          <path
             d="m 0,0 c 22.411,2.048 24.194,12.223 24.194,12.223 0,0 -5.323,-3.629 -13.127,-5.721 C 3.044,4.352 -5.582,5.067 -5.582,5.067 -6.299,4.807 -7.124,4.453 -7.124,4.453 c 0,0 0.796,-2.712 0.982,-3.809 C -5.969,0.579 -3.452,-0.315 0,0"
             style="fill:#002970;fill-opacity:1;fill-rule:nonzero;stroke:none"
             id="path68334" />
        </g>
        <g
           id="g68336"
           transform="translate(354.3862,274.2919)">
          <path
             d="m 0,0 -2.412,-1.264 c 0,0 -3.956,-1.972 -6.129,-2.945 -2.081,-0.935 -12.126,-4.813 -18.212,-3.983 0,0 -1.192,-2.305 -6.152,-1.134 0,0 0.535,-2.131 0,-3.303 0,0 1.732,-0.16 4.139,-0.16 2.372,0 5.403,0.16 8.146,0.747 C -15.092,-10.839 -3.44,-7.362 0,0"
             style="fill:#002970;fill-opacity:1;fill-rule:nonzero;stroke:none"
             id="path68338" />
        </g>
        <g
           id="g68340"
           transform="translate(358.0869,286.819)">
          <path
             d="m 0,0 c 0,0 -4.258,-2.557 -7.342,-3.539 -3.081,-0.985 -8.124,-2.198 -10.084,-2.601 -3.261,-0.669 -9.574,-0.734 -10.898,-0.436 0,0 -0.524,-1.148 -2.407,-1.359 0,0 1.688,-1.495 1.955,-3.772 0,0 6.15,-0.756 15.656,2.086 3.197,0.95 9.657,3.912 11.221,5.767 C -0.901,-2.669 0,0 0,0"
             style="fill:#002970;fill-opacity:1;fill-rule:nonzero;stroke:none"
             id="path68342" />
        </g>
        <g
           id="g68344"
           transform="translate(322.1765,333.536)">
          <path
             d="M 0,0 C 0.283,0.168 3.585,2.779 4.44,3.578 5.289,4.392 7.714,6.822 8.59,8.713 9.462,10.608 8.538,11.684 8.128,12.07 7.714,12.471 7.176,12.514 7.176,12.514 7.023,12.051 2.659,8.713 2.659,8.713 c 0,0 -0.13,-0.255 -0.13,-0.384 C 2.529,8.204 1.935,5.827 1.734,5.066 1.531,4.323 0,0 0,0"
             style="fill:#002970;fill-opacity:1;fill-rule:nonzero;stroke:none"
             id="path68346" />
        </g>
        <g
           id="g68348"
           transform="translate(362.1815,294.0382)">
          <path
             d="m 0,0 c -0.989,-0.328 -2.302,-1.222 -2.488,-1.334 0,0 -5.156,-2.855 -7.182,-3.667 -2.017,-0.804 -7.741,-2.79 -9.832,-3.223 -2.098,-0.425 -8.583,-1.053 -12.187,-0.539 0,0 1.284,-2.303 -0.204,-4.234 0,0 5.779,-0.282 10.718,0.878 4.958,1.114 11.08,2.44 16.619,6.154 0,0 5.545,6.289 4.556,5.965"
             style="fill:#002970;fill-opacity:1;fill-rule:nonzero;stroke:none"
             id="path68350" />
        </g>
        <g
           id="g68352"
           transform="translate(365.1161,300.168)">
          <path
             d="m 0,0 c -0.218,-0.117 -1.713,-0.849 -2.084,-1.028 -9.051,-4.189 -11.659,-4.264 -17.093,-5.629 -4.289,-1.077 -12.911,-1.77 -12.911,-1.77 0.218,-3.594 -2.536,-5.239 -2.536,-5.239 0.338,-0.696 8.299,0.367 9.508,0.505 1.213,0.147 7.55,1.727 8.316,1.982 0.773,0.264 4.444,1.361 7.53,2.976 3.561,1.884 6.989,3.959 7.469,4.35 C -1.335,-3.45 0.224,0.111 0,0"
             style="fill:#002970;fill-opacity:1;fill-rule:nonzero;stroke:none"
             id="path68354" />
        </g>
        <g
           id="g68356"
           transform="translate(350.514,307.6413)">
          <path
             d="m 0,0 c -8.466,-2.395 -9.489,-2.516 -16.945,-3.186 0,0 -0.025,-2.163 -1.851,-3.197 l 0.812,-0.912 c 0,0 5.403,-0.118 13.158,1.364 4.471,0.854 12.766,2.707 16.684,5.009 3.929,2.328 7.633,5.312 10.799,11.612 0,0 -4.353,-1.024 -4.537,-1.124 0,0 -7.883,-6.67 -18.12,-9.566"
             style="fill:#002970;fill-opacity:1;fill-rule:nonzero;stroke:none"
             id="path68358" />
        </g>
        <g
           id="g68360"
           transform="translate(372.8981,331.4565)">
          <path
             d="m 0,0 c 0,0 -2.93,-3.816 -3.77,-4.592 -0.838,-0.783 -4.193,-4.919 -11.998,-9.098 -7.814,-4.189 -16.549,-6.523 -16.804,-6.523 -0.261,0 -1.717,-0.516 -5.55,-1.445 l -2.941,-0.755 c 0,0 1.901,-1.72 1.598,-3.505 0,0 6.899,0.258 15.861,3.12 3.244,1.036 8.793,3.465 12.131,5.404 3.339,1.955 11.117,6.754 14.339,12.439 C 6.099,0.741 6.906,2.156 7.191,3.57 7.496,4.952 0.371,0.149 0,0"
             style="fill:#002970;fill-opacity:1;fill-rule:nonzero;stroke:none"
             id="path68362" />
        </g>
        <g
           id="g68364"
           transform="translate(367.9058,327.7571)">
          <path
             d="m 0,0 c 4.636,5.719 8.779,12.147 9.948,15.827 1.184,3.737 3.386,9.159 3.667,16.012 0,0 -7.12,-8.58 -7.452,-9.064 -0.326,-0.467 -3.444,-6.539 -4.654,-8.251 0,0 -4.772,-6.89 -7.365,-9.415 -2.613,-2.53 -6.649,-5.967 -10.657,-9 -5.472,-4.142 -15.302,-7.922 -19.453,-8.68 0,0 0.752,-2.175 -0.572,-5.091 0,0 10.356,3.116 16.296,5.172 C -14.306,-10.431 -4.604,-5.731 0,0"
             style="fill:#002970;fill-opacity:1;fill-rule:nonzero;stroke:none"
             id="path68366" />
        </g>
        <g
           id="g68368"
           transform="translate(372.4024,365.5262)">
          <path
             d="m 0,0 c -1.865,-5.604 -4.337,-9.857 -5.511,-12.064 -1.186,-2.184 -5.219,-7.917 -7.597,-10.825 -2.382,-2.874 -10.458,-9.537 -10.458,-9.537 -9.095,-7.572 -15.327,-10.445 -15.327,-10.445 0.406,-4.707 -1.674,-6.218 -1.674,-6.218 0.015,-0.022 0.037,-0.022 0.056,-0.022 0.551,0 5.347,1.727 10.922,4.296 5.761,2.627 12.994,8.337 14.754,10.013 1.76,1.682 7.436,7.984 9.069,10.065 1.6,2.052 5.418,9.122 5.934,10.183 0.525,1.064 2.425,5.429 4.407,10.791 3.121,8.448 2.63,20.095 2.561,19.737 C 7.067,15.614 2.324,8.75 2.287,8.633 2.251,8.536 1.872,5.617 0,0"
             style="fill:#002970;fill-opacity:1;fill-rule:nonzero;stroke:none"
             id="path68370" />
        </g>
        <g
           id="g68372"
           transform="translate(359.4432,362.909)">
          <path
             d="m 0,0 c -1.909,-3.435 -3.088,-5.598 -4.222,-7.346 -1.137,-1.755 -6.026,-8.374 -9.796,-11.267 -3.775,-2.903 -7.375,-5.588 -13.391,-8.065 l 0.011,-0.037 c 0,0 3.884,-3.425 -0.916,-9.479 0,0 1.268,-0.83 1.644,-2.079 0,-0.069 0.06,-0.096 0.166,-0.096 1.796,0 17.186,11.287 19.741,13.569 2.723,2.387 9.512,8.755 13.323,16.486 3.818,7.751 5.91,14.319 6.677,17.662 0.762,3.328 2.866,12.244 3.302,20.238 0,0 -9.5,-8.198 -9.5,-8.312 0,-0.12 -1.824,-7.685 -2.09,-8.567 C 4.694,11.84 1.898,3.404 0,0"
             style="fill:#002970;fill-opacity:1;fill-rule:nonzero;stroke:none"
             id="path68374" />
        </g>
        <g
           id="g68376"
           transform="translate(346.422,358.8157)">
          <path
             d="m 0,0 c -3.183,-6.708 -9.212,-13.032 -10.093,-13.914 -0.868,-0.871 -4.053,-3.134 -4.053,-3.134 -0.447,-1.447 -3.656,-4.422 -3.656,-4.422 0,-0.009 0.054,-0.02 0.138,-0.02 0.59,0 2.724,0.489 2.724,0.489 13.349,5.5 19.35,14.303 20.369,15.685 1.023,1.397 4.254,5.839 7.556,12.536 3.302,6.658 5.42,16.831 5.528,17.444 0.112,0.632 1.85,10.097 1.334,8.182 C 19.32,30.948 16.763,27.826 14.675,25.062 12.574,22.324 5.519,14.339 5.519,14.339 4.377,10.076 3.203,6.712 0,0"
             style="fill:#002970;fill-opacity:1;fill-rule:nonzero;stroke:none"
             id="path68378" />
        </g>
        <g
           id="g68380"
           transform="translate(339.104,363.3334)">
          <path
             d="m 0,0 c -0.43,-2.045 -0.829,-4.688 -2.855,-8.367 -2.01,-3.651 -2.759,-4.806 -4.919,-7.41 0,0 1.84,-0.439 1.697,-3.45 0,0 5.06,5.071 6.062,6.357 0.976,1.271 6.081,7.841 8.575,14.706 2.492,6.864 4.034,12.884 4.55,18.351 0,0 -3.903,-4.811 -6.483,-7.984 L -0.015,3.899 C -0.015,3.899 0.397,1.931 0,0"
             style="fill:#002970;fill-opacity:1;fill-rule:nonzero;stroke:none"
             id="path68382" />
        </g>
        <g
           id="g68384"
           transform="translate(263.582,342.481)">
          <path
             d="m 0,0 0.04,-0.22 0.057,-0.316 c 0,0 0.006,-0.01 0.023,-0.033 0.469,-0.626 7.728,-10.534 12.567,-26.966 0.006,-0.016 0.01,-0.03 0.013,-0.043 0.962,-3.268 1.827,-6.793 2.523,-10.554 0.625,-3.368 1.114,-6.926 1.414,-10.657 0.046,-0.563 0.09,-1.128 0.126,-1.697 0.063,-0.989 0.114,-1.99 0.15,-3.004 0.004,-0.012 0.006,-0.016 0.01,-0.028 2.614,-7.396 1.87,-15.174 1.85,-15.227 1.218,-0.283 2.343,-0.476 3.378,-0.596 7.545,-0.872 10.294,2.163 10.464,2.356 v 0.004 c -0.073,-0.063 -7.298,-0.807 -9.328,12.627 v 0.004 c -0.826,2.862 -1.661,6.33 -2.487,10.53 -2.243,11.413 -6.04,21.111 -9.814,28.67 C 5.604,-4.377 0.273,2.047 -0.442,2.889 c -0.007,0.007 -0.014,0.013 -0.017,0.02 -0.043,0.05 -0.067,0.076 -0.067,0.076 l 0.004,-0.02 z"
             style="fill:#002970;fill-opacity:1;fill-rule:nonzero;stroke:none"
             id="path68386" />
        </g>
        <g
           id="g68388"
           transform="translate(280.4986,288.9791)">
          <path
             d="M 0,0 C -0.003,0.007 -0.003,0.01 -0.003,0.01 V 0.012 C -0.601,1.702 0,-0.003 0,0"
             style="fill:#002970;fill-opacity:1;fill-rule:nonzero;stroke:none"
             id="path68390" />
        </g>
        <g
           id="g68392"
           transform="translate(275.1301,296.4817)">
          <path
             d="m 0,0 c -0.118,-0.19 0.011,-4.516 0.011,-4.516 2.813,-8.182 2.343,-15.87 2.239,-17.143 1.18,-0.233 2.415,-0.495 3.709,-0.792 C 6.73,-7.377 0,0 0,0"
             style="fill:#002970;fill-opacity:1;fill-rule:nonzero;stroke:none"
             id="path68394" />
        </g>
        <g
           id="g68396"
           transform="translate(276.1499,275.0596)">
          <path
             d="m 0,0 c 0.227,1.612 -0.06,7.257 -1.07,12.65 -1.048,5.732 -5.703,13.874 -5.703,13.874 0,0 -0.355,-6.515 -0.323,-6.661 0.003,-0.009 0.006,-0.015 0,-0.002 0.006,-0.013 0.003,-0.007 0,0.002 -0.029,0.067 -0.17,0.306 1.764,-5.717 C -3.384,8.108 -3.338,1.909 -3.353,0.566 -2.292,0.406 -1.177,0.219 0,0"
             style="fill:#002970;fill-opacity:1;fill-rule:nonzero;stroke:none"
             id="path68398" />
        </g>
        <g
           id="g68400"
           transform="translate(269.6004,276.0491)">
          <path
             d="M 0,0 C 0.638,-0.072 1.301,-0.154 1.99,-0.249 2.304,3.258 1.526,6.807 -0.305,13.8 c -1.868,7.152 -5.15,14.518 -5.943,14.855 -0.228,-0.88 -1.482,-7.642 -1.627,-8.333 1.743,-4.414 2.386,-7.296 2.939,-9.98 C -1.079,6.781 -0.163,1.26 0,0"
             style="fill:#002970;fill-opacity:1;fill-rule:nonzero;stroke:none"
             id="path68402" />
        </g>
        <g
           id="g68404"
           transform="translate(256.47,275.7712)">
          <path
             d="M 0,0 C 1.613,0.43 5.299,1.043 12.012,0.394 11.536,2.458 10.636,4.649 9.498,6.219 L 9.495,6.222 c -3.581,4.803 -9.894,7.089 -9.898,7.092 -2.851,1.282 -6.849,4.041 -8.769,6.77 -1.917,2.729 -5.917,13.623 -5.917,13.626 -2.386,6.493 -5.801,11.865 -9.405,16.062 -6.071,7.059 -12.134,10.79 -12.324,10.904 0,-0.004 0.004,-0.004 0.004,-0.007 0.189,-0.24 3.647,-4.66 7.138,-10.714 0.003,-0.006 0.007,-0.016 0.01,-0.023 6.696,-10.497 7.631,-18.369 9.116,-23.301 C -15.177,8.733 -1.533,0.84 0,0"
             style="fill:#002970;fill-opacity:1;fill-rule:nonzero;stroke:none"
             id="path68406" />
        </g>
        <g
           id="g68408"
           transform="translate(325.0941,344.4379)">
          <path
             d="m 0,0 c 0.07,0.047 0.163,0.11 0.28,0.19 0.079,0.053 0.166,0.113 0.262,0.183 0.037,0.027 0.073,0.053 0.11,0.08 0.04,0.03 0.08,0.056 0.117,0.086 0.029,0.02 0.059,0.04 0.09,0.067 0.069,0.053 0.143,0.107 0.219,0.163 0.027,0.02 0.057,0.04 0.084,0.063 0.126,0.097 0.262,0.203 0.402,0.313 0.12,0.096 0.243,0.196 0.373,0.303 0.11,0.09 0.226,0.19 0.346,0.29 0.14,0.116 0.283,0.242 0.429,0.369 0.103,0.093 0.21,0.186 0.316,0.283 0.061,0.053 0.12,0.106 0.18,0.166 3.015,2.832 4.982,5.918 5.422,6.554 0.435,0.612 1.803,3.611 2.639,5.541 0.925,2.756 1.458,5.891 1.288,9.392 v 0.034 c -0.004,0.06 -0.007,0.116 -0.01,0.173 -0.02,0.233 -0.04,0.466 -0.064,0.702 -0.01,0.137 -0.026,0.27 -0.046,0.402 -0.014,0.127 -0.034,0.254 -0.053,0.377 -0.403,2.433 -1.405,4.38 -2.786,5.934 C 9.359,31.934 9.107,32.19 8.847,32.436 9.175,30.189 9.804,23.505 7.079,16.569 3.929,8.548 -0.096,5.325 -0.096,5.325 0.126,4.553 -0.143,-0.093 -0.143,-0.093 c 0,0 0.05,0.03 0.143,0.093"
             style="fill:#002970;fill-opacity:1;fill-rule:nonzero;stroke:none"
             id="path68410" />
        </g>
        <g
           id="g68412"
           transform="translate(330.1036,328.1028)">
          <path
             d="m 0,0 c 2.009,2.069 1.52,4.619 1.499,4.849 -0.011,0.213 -0.214,1.63 -1.456,2.472 -1.25,0.865 -2.52,0.335 -2.52,0.335 L -2.797,7.255 C -4.102,5.828 -7.982,3.099 -9.014,2.382 -9.17,2.275 -9.268,2.207 -9.268,2.207 L -9.73,1.165 c -0.421,-1.155 -1.733,-3.588 -2.713,-5.414 -0.925,-1.557 -1.631,-2.567 -1.631,-2.567 l 5.322,1.34 c 1.046,0.335 1.943,0.734 2.716,1.18 C -3.782,-3.114 -1.412,-1.44 0,0"
             style="fill:#002970;fill-opacity:1;fill-rule:nonzero;stroke:none"
             id="path68414" />
        </g>
        <g
           id="g68416"
           transform="translate(350.417,277.6399)">
          <path
             d="m 0,0 c -1.691,-0.706 -3.638,-1.431 -5.641,-1.997 0,0 -7.875,-2.884 -15.714,-1.965 0,0 -0.853,-2.348 -3.006,-1.905 0,0 1.924,-2.241 1.827,-4.378 13.163,-0.126 26.407,9.257 26.407,9.257 l 1.761,3.73 z"
             style="fill:#002970;fill-opacity:1;fill-rule:nonzero;stroke:none"
             id="path68418" />
        </g>
        <g
           id="g68420"
           transform="translate(289.4055,244.1276)">
          <path
             d="M 0,0 V 0.033 H 0.003 C 0,0.014 0,0 0,0 m -7.913,-8.98 c -0.593,0.186 -1.331,0.156 -1.697,0.073 -0.376,-0.059 -1.884,-0.452 -2.582,-0.811 -0.693,-0.353 -0.578,-1.215 -1.093,-1.152 -0.493,0.02 -1.384,1.2 -1.158,1.889 0.223,0.689 0.374,0.782 1.033,1.015 0.846,0.333 2.827,0.545 3.21,0.738 0.352,0.17 0.894,0.221 1.291,-0.055 0.406,-0.313 1.345,-1.104 1.477,-1.287 0.107,-0.15 0.101,-0.577 -0.481,-0.41 m -1.808,-7.527 c -0.47,-1.466 -1.145,-4.005 -1.715,-4.316 -1.586,-0.865 -2.588,-1.213 -3.024,0.278 -0.436,1.501 0.66,0.86 1.493,1.474 1.2,0.886 1.496,2.111 1.789,2.694 0.286,0.589 0.348,1.535 1.204,1.312 0.772,-0.216 0.862,-0.293 0.253,-1.442 m -5.973,1.448 c 0,0 -0.997,1.401 -0.559,2.793 0.261,0.836 0.476,1.431 1.29,1.263 0,0 1.096,-0.089 0.336,-1.464 -0.76,-1.376 -1.067,-2.592 -1.067,-2.592 m -0.04,-6.596 c -0.49,-0.128 -2.495,-0.067 -3.37,3.564 0,0 0.995,-1.055 2.89,-1.435 0.869,-0.174 0.99,-0.196 1.142,-1.04 0.166,-0.918 -0.396,-1.02 -0.662,-1.089 m -4.722,13.984 c -2.344,1.412 -2.988,0.582 -3.449,1.015 -0.393,0.649 1.288,2.044 1.771,1.664 0.472,-0.342 3.533,-1.909 4.279,-2.199 1.088,-0.424 3.006,-0.203 2.124,-2.045 -0.481,-1.001 -4.193,1.245 -4.725,1.565 m -24.379,-11.117 c 0,0 -0.283,2.55 1.647,3.002 1.321,0.309 2.027,-0.26 2.097,-0.719 -0.107,0.043 -2.383,0.929 -3.744,-2.283 m 116.277,16.28 c -0.146,-1.376 -1.451,-9.328 -12.154,-9.45 0,0 7.603,2.24 7.409,9.84 l -43.73,3.603 c -1.182,0.206 -0.556,3.674 2.183,3.637 0.948,-0.014 8.15,0.386 8.54,0.436 18.806,0.948 22.181,9.276 22.181,9.276 -11.399,-6.696 -25.27,-4.456 -25.27,-4.456 -0.979,-4.592 -6.47,-1.485 -9.541,0.582 -3.095,2.043 -4.759,4.932 -6.074,8.148 -1.325,3.238 0.489,10.956 0.799,11.692 0.283,0.739 2.935,6.536 3.804,10.058 0.878,3.501 -0.5,8.214 -0.656,8.573 -0.153,0.376 -3.005,7.845 -3.005,7.845 -1.435,3.754 0.123,7.092 1.215,8.787 0.289,0.392 0.589,0.795 0.871,1.178 0.44,0.589 0.849,1.131 1.145,1.531 0.296,0.396 0.486,0.645 0.486,0.645 18.787,23.781 14.697,45.698 14.697,45.698 C 34.465,102.51 17.549,81.492 12.181,75.145 L 12.177,75.142 C 12.12,75.085 11.435,74.436 10.57,73.275 L 10.566,73.272 C 10.497,73.175 10.427,73.082 10.35,72.979 8.463,70.356 5.927,65.477 6.832,59.046 7.116,57.03 7.355,55.149 7.701,53.415 10.3,40.455 12.986,29.552 3.281,27.838 c -5.654,-0.999 -8.556,1.018 -14.174,-1.162 0.047,-0.017 7.498,0.223 14.86,-4.536 1.521,-0.886 -13.142,-2.354 -15.745,-3.295 -2.612,-0.962 -1.358,-1.585 -0.885,-1.714 1.457,-0.403 3.627,-0.44 4.733,-0.693 0.828,-0.189 0.945,-0.555 0.265,-1.171 -5.474,-4.989 -11.121,-3.705 -11.042,-3.881 0.077,-0.19 1.518,-3.654 0.396,-6.666 -0.456,-1.235 -0.992,-0.862 -1.421,-0.094 -0.912,1.644 -2.762,2.939 -4.453,3.705 -3.598,1.634 -6.12,0.951 -6.12,0.951 0,0 2.812,-1.381 3.937,-3.275 2.683,-4.533 3.025,-7.643 2.592,-9.417 -2.306,0.24 -3.984,-0.903 -3.984,-0.903 -2.638,-1.901 -0.708,-4.94 -0.708,-4.94 0.05,1.655 2.073,2.164 2.073,2.164 1.402,0.285 3.099,-2.177 3.099,-2.177 -1.658,-6.706 -8.786,-9.622 -8.786,-9.622 -3.428,-1.275 -6.47,0.876 -8.027,3.075 -1.574,2.207 -4.024,0.25 -4.024,0.25 -0.29,-0.03 -0.576,-0.133 -1.022,0.336 -0.436,0.493 -3.906,3.741 -3.906,3.741 -3.382,2.277 -5.525,-1.584 -5.525,-1.584 -1.621,-0.28 -1.867,-1.614 -1.867,-1.614 -0.486,-2.243 2.059,-3.621 2.059,-3.621 -0.682,2.446 0.979,3.178 0.979,3.178 0,0 0.246,-0.323 1.078,-0.379 0.829,-0.054 1.072,0.103 1.378,0.146 0.287,0.037 0.383,0.133 2.536,-0.752 2.143,-0.862 1.415,-2.05 1.415,-2.23 0,-0.2 -0.889,-1.508 -1.139,-2.257 -0.153,-0.456 -0.322,-1.597 -0.166,-3.361 0.15,-1.748 2.287,-2.713 2.287,-2.713 0,0 -0.35,1.152 -0.28,1.841 0.066,0.656 0.249,2.077 2.093,2.916 1.008,0.459 2.25,-0.803 2.25,-0.803 1.667,-1.933 4.992,-1.787 5.175,-1.887 0.196,-0.1 2.06,-1.464 2.343,-2.017 1.098,-1.348 -0.063,-3.002 -1.085,-3.638 -0.872,-0.532 -1.993,-0.712 -1.993,-0.712 1.52,-1.238 4.066,-0.732 6.213,2.004 1.687,2.156 -0.862,4.729 -1.708,5.182 -0.828,0.453 1.841,2.177 3.668,2.496 1.83,0.32 3.421,-3.331 7.555,-5.601 2.696,-1.481 10.935,1.384 10.935,1.384 0,0 1.342,-1.883 7.042,-2.213 3.808,-0.223 5.652,0.522 6.068,0.642 -0.17,-3.132 -0.353,-7.085 -0.257,-8.114 0.164,-1.727 2.204,-5.342 7.668,-5.415 0.25,-0.007 0.4,0 0.4,0 l -0.188,2.252 c -5.368,1.08 -5.375,4.613 -5.375,4.613 0.877,-2.342 4.174,-2.912 5.244,-3.038 l -1.149,13.806 c 0.675,-3.129 2.756,-11.915 5.787,-16.744 1.531,-2.42 3.675,-3.166 5.695,-3.166 2.952,0 5.607,1.535 5.607,1.535 l -1.325,2.562 c -0.638,-0.355 -5.525,-2.835 -8.721,2.527 0,0 3.036,-3.335 8.048,-1.225 l -10.183,19.693 c 0.29,-0.449 9.569,-14.791 11.446,-17.313 l 0.057,-0.077 c 2.194,-2.931 5.679,-4.679 9.336,-4.521 5.964,0.26 10.928,3.919 10.928,3.919 l -3.452,3.063 c -0.762,-0.648 -6.873,-5.536 -13.474,-1.476 0,0 6.883,-2.1 11.865,2.903 l -20.672,18.341 c 0.566,-0.436 18.631,-14.374 19.29,-14.88 0.13,-0.108 0.314,-0.241 0.524,-0.384 1.362,-0.929 2.848,-1.683 4.423,-2.169 13.173,-4.06 18.895,7.978 18.895,7.978 l -4.459,1.618 c -7.432,-10.044 -16.783,-4.479 -16.783,-4.479 8.59,-2.231 12.715,3.949 13.653,5.615 L 24.664,-8.617 48.14,-14.178 c 13.422,-3.834 19.515,-1.472 19.515,-1.472 9.831,2.786 9.458,12.674 9.458,12.674 z"
             style="fill:#002970;fill-opacity:1;fill-rule:nonzero;stroke:none"
             id="path68422" />
        </g>
        <g
           id="g68424"
           transform="translate(289.4055,244.1276)">
          <path
             d="M 0,0 C 0,0 0,0.014 0.003,0.033 H 0 Z"
             style="fill:#002970;fill-opacity:1;fill-rule:nonzero;stroke:none"
             id="path68426" />
        </g>
        <g
           id="g68428"
           transform="translate(309.6783,311.5521)">
          <path
             d="M 0,0 C 32.133,4.169 20.026,13.976 20.026,13.976 14.785,8.953 5.114,8.021 5.114,8.021 3.997,3.796 0,0 0,0"
             style="fill:#002970;fill-opacity:1;fill-rule:nonzero;stroke:none"
             id="path68430" />
        </g>
        <g
           id="g68432"
           transform="translate(308.8648,310.3345)">
          <path
             d="m 0,0 c -3.21,-1.881 -2.741,-5.879 -2.741,-5.879 0,0 19.982,1.201 23.867,5.409 1.949,2.112 0.502,5.322 0.502,5.322 C 10.717,-0.184 0,0 0,0"
             style="fill:#002970;fill-opacity:1;fill-rule:nonzero;stroke:none"
             id="path68434" />
        </g>
        <g
           id="g68436"
           transform="translate(330.4924,307.8598)">
          <path
             d="m 0,0 c -5.661,-4.055 -24.302,-4.453 -24.302,-4.453 -0.024,-1.389 1.432,-4.435 1.432,-4.435 0,0 20.813,-0.527 23.544,3.18 C 3.658,-1.659 0,0 0,0"
             style="fill:#002970;fill-opacity:1;fill-rule:nonzero;stroke:none"
             id="path68438" />
        </g>
        <g
           id="g68440"
           transform="translate(330.7406,300.228)">
          <path
             d="m 0,0 c 0,0 -2.781,-3.064 -22.724,-2.326 0,0 1.524,-2.566 1.955,-5.135 0,0 27.594,-1.023 20.769,7.461"
             style="fill:#002970;fill-opacity:1;fill-rule:nonzero;stroke:none"
             id="path68442" />
        </g>
        <g
           id="g68444"
           transform="translate(310.0915,291.7498)">
          <path
             d="m 0,0 c 0,0 0.691,-2.905 0.522,-4.969 0,0 28.252,-3.443 19.399,7.017 0,0 -2.186,-2.657 -19.921,-2.048"
             style="fill:#002970;fill-opacity:1;fill-rule:nonzero;stroke:none"
             id="path68446" />
        </g>
        <g
           id="g68448"
           transform="translate(329.2095,286.1052)">
          <path
             d="m 0,0 c 0,0 -4.372,-2.546 -18.786,-0.378 0,0 -0.365,-2.611 -1.306,-4.298 0,0 25.57,-6.89 20.092,4.676"
             style="fill:#002970;fill-opacity:1;fill-rule:nonzero;stroke:none"
             id="path68450" />
        </g>
        <g
           id="g68452"
           transform="translate(315.8672,274.6974)">
          <path
             d="m 0,0 c -0.011,0 -0.011,-0.004 -0.011,-0.004 0,0 -0.069,0.047 0.011,0.004 m -8.515,2.065 c 0,0 1.247,-2.597 12.805,-4.105 13.369,-1.743 6.056,5.804 6.056,5.804 C -1.312,3.149 -6.993,5.684 -6.993,5.684 -7.851,3.356 -8.515,2.065 -8.515,2.065"
             style="fill:#002970;fill-opacity:1;fill-rule:nonzero;stroke:none"
             id="path68454" />
        </g>
        <g
           id="g68456"
           transform="translate(315.8672,274.6974)">
          <path
             d="m 0,0 c -0.08,0.043 -0.011,-0.004 -0.011,-0.004 0,0 0,0.004 0.011,0.004"
             style="fill:#002970;fill-opacity:1;fill-rule:nonzero;stroke:none"
             id="path68458" />
        </g>
        <g
           id="g68460"
           transform="translate(305.4986,271.1361)">
          <path
             d="M 0,0 C 29.992,-12.258 19.07,0.106 19.07,0.106 4.768,0.719 1.245,4.455 1.245,4.455 0.115,1.992 0,0 0,0"
             style="fill:#002970;fill-opacity:1;fill-rule:nonzero;stroke:none"
             id="path68462" />
        </g>
        <g
           id="g68464"
           transform="translate(320.3836,265.0761)">
          <path
             d="m 0,0 c -11.266,2.684 -15.051,5.202 -15.051,5.202 -0.581,-3.21 0.166,-4.15 0.166,-4.15 C 3.042,-10.879 0,0 0,0"
             style="fill:#002970;fill-opacity:1;fill-rule:nonzero;stroke:none"
             id="path68466" />
        </g>
        <g
           id="g68468"
           transform="translate(305.3049,265.408)">
          <path
             d="m 0,0 c 0,0 0.596,-5.899 7.138,-10.044 4.455,-2.822 7.941,-3.274 5.442,3.843 0,0 -3.56,-1.297 -12.58,6.201"
             style="fill:#002970;fill-opacity:1;fill-rule:nonzero;stroke:none"
             id="path68470" />
        </g>
        <g
           id="g68472"
           transform="translate(359.7782,304.1666)">
          <path
             d="m 0,0 c -6.807,-2.912 -17.792,-4.506 -21.401,-4.797 -3.449,-0.278 -5.543,-0.039 -5.543,-0.039 1.051,-3.762 -2.094,-4.86 -2.094,-4.86 1.346,-0.328 1.836,-1.223 1.836,-1.223 7.012,0.29 16.993,3.102 19.339,3.658 5.613,1.33 8.981,3.108 12.69,5.017 2.051,1.056 3.038,3.128 3.512,4.796 H 5.199 C 3.908,1.812 2.208,0.944 0,0"
             style="fill:#002970;fill-opacity:1;fill-rule:nonzero;stroke:none"
             id="path68474" />
        </g>
        <g
           id="g68476"
           transform="translate(238.5359,250.0411)">
          <path
             d="m 0,0 c 0.468,-0.04 0.898,-0.029 1.287,0.017 0.016,10e-4 0.032,0.002 0.049,0.003 2.254,0.198 3.199,1.236 3.199,1.236 0,0 -3.21,2.005 -3.517,6.742 0,0 -0.965,-0.254 -2.626,0.217 0,0 -3.75,-2.588 -3.037,-6.102 0.713,-3.514 3.678,-5.51 4.16,-5.702 0,0 -1.588,2.41 -0.944,3.854 C -1.121,0.158 -0.65,0.042 0,0"
             style="fill:#002970;fill-opacity:1;fill-rule:nonzero;stroke:none"
             id="path68478" />
        </g>
        <g
           id="g68480"
           transform="translate(248.9768,257.7838)">
          <path
             d="m 0,0 c -0.936,-2.068 -5.199,-3.086 -7.441,1.106 -0.062,0.116 -0.042,0.259 0.047,0.355 0.644,0.69 3.479,3.231 9.359,1.973 C 1.965,3.434 1.198,2.649 0,0 m 26.103,5.245 c 2.229,2.324 15.839,3.448 15.839,3.448 -9.898,4.909 -15.722,2.536 -15.722,3.874 0,1.025 5.954,2.184 5.954,2.184 0,0 -12.66,4.137 -26.821,1.787 C -7.762,14.364 -13.303,7.515 -13.443,4.619 -13.49,3.677 -13.51,0.935 -9.862,1.264 c 0.377,0.034 0.706,0.123 1.005,0.25 l 0.083,-1.078 c 0,0 1.048,-10.435 11.665,-7.329 2.007,0.588 5.295,3.662 9.235,3.501 5.534,0.253 9.152,-4.902 9.152,-4.902 1.072,6.05 -4.193,7.987 0.712,7.488 4.906,-0.502 9.245,2.623 9.245,2.623 -3.667,-0.053 -7.17,1.302 -5.132,3.428"
             style="fill:#002970;fill-opacity:1;fill-rule:nonzero;stroke:none"
             id="path68482" />
        </g>
        <g
           id="g68484"
           transform="translate(243.3937,259.665)">
          <path
             d="M 0,0 C 0.743,0.526 2.237,1.263 4.395,1.072 4.633,1.051 4.806,0.999 4.566,0.745 4.235,0.398 3.493,0.18 3.155,-0.816 2.642,-2.33 0.287,-2.423 -0.516,-1.154 -0.752,-0.781 -0.832,-0.589 0,0"
             style="fill:#002970;fill-opacity:1;fill-rule:nonzero;stroke:none"
             id="path68486" />
        </g>
        <g
           id="g68488"
           transform="translate(280.1691,180.3949)">
          <path
             d="m 0,0 h -1.788 v 11.856 l -3.587,-1.317 v 1.616 l 5.097,1.912 H 0 Z"
             style="fill:#002970;fill-opacity:1;fill-rule:nonzero;stroke:none"
             id="path68490" />
        </g>
        <g
           id="g68492"
           transform="translate(290.0494,186.5496)">
          <path
             d="M 0,0 C 0.596,0 1.145,0.182 1.648,0.547 2.152,0.912 2.519,1.365 2.75,1.904 v 0.71 C 2.75,3.782 2.496,4.73 1.991,5.462 1.483,6.191 0.842,6.558 0.068,6.558 c -0.784,0 -1.411,-0.301 -1.885,-0.9 -0.476,-0.6 -0.712,-1.39 -0.712,-2.369 0,-0.956 0.229,-1.743 0.688,-2.361 C -1.383,0.309 -0.77,0 0,0 M 2.739,0 C 2.367,-0.443 1.925,-0.799 1.409,-1.068 0.893,-1.338 0.326,-1.471 -0.289,-1.471 c -0.807,0 -1.511,0.198 -2.11,0.596 -0.599,0.397 -1.063,0.957 -1.389,1.678 -0.327,0.72 -0.491,1.516 -0.491,2.388 0,0.936 0.178,1.779 0.534,2.529 0.356,0.751 0.86,1.324 1.514,1.722 0.654,0.398 1.416,0.596 2.288,0.596 1.385,0 2.476,-0.518 3.274,-1.553 C 4.129,5.45 4.528,4.037 4.528,2.25 V 1.73 C 4.528,-0.994 3.99,-2.983 2.913,-4.237 1.836,-5.489 0.212,-6.132 -1.961,-6.165 h -0.347 v 1.511 h 0.374 c 1.469,0.025 2.597,0.407 3.386,1.147 C 2.241,-2.769 2.67,-1.6 2.739,0"
             style="fill:#002970;fill-opacity:1;fill-rule:nonzero;stroke:none"
             id="path68494" />
        </g>
        <g
           id="g68496"
           transform="translate(299.2243,187.4148)">
          <path
             d="M 0,0 0.712,6.98 H 7.885 V 5.337 H 2.222 L 1.798,1.518 c 0.686,0.405 1.466,0.607 2.336,0.607 1.277,0 2.29,-0.423 3.04,-1.265 0.749,-0.843 1.124,-1.982 1.124,-3.419 0,-1.442 -0.389,-2.578 -1.167,-3.408 -0.78,-0.831 -1.868,-1.246 -3.264,-1.246 -1.239,0 -2.248,0.344 -3.03,1.03 -0.781,0.685 -1.228,1.635 -1.337,2.846 h 1.683 c 0.109,-0.801 0.394,-1.405 0.856,-1.812 0.461,-0.408 1.07,-0.612 1.828,-0.612 0.826,0 1.475,0.282 1.945,0.847 0.473,0.564 0.707,1.342 0.707,2.336 0,0.936 -0.253,1.689 -0.764,2.255 C 5.246,0.245 4.568,0.528 3.721,0.528 2.946,0.528 2.336,0.358 1.895,0.019 L 1.424,-0.367 Z"
             style="fill:#002970;fill-opacity:1;fill-rule:nonzero;stroke:none"
             id="path68498" />
        </g>
        <g
           id="g68500"
           transform="translate(320.0168,180.3949)">
          <path
             d="m 0,0 h -9.173 v 1.279 l 4.846,5.385 c 0.717,0.814 1.212,1.476 1.485,1.985 0.273,0.509 0.408,1.037 0.408,1.583 0,0.73 -0.22,1.329 -0.663,1.798 -0.441,0.467 -1.032,0.702 -1.768,0.702 -0.886,0 -1.572,-0.252 -2.064,-0.756 -0.49,-0.502 -0.735,-1.204 -0.735,-2.1 h -1.779 c 0,1.289 0.416,2.329 1.246,3.125 0.828,0.794 1.94,1.191 3.332,1.191 1.301,0 2.329,-0.34 3.085,-1.023 0.757,-0.683 1.136,-1.591 1.136,-2.727 0,-1.378 -0.879,-3.019 -2.636,-4.923 L -7.03,1.452 H 0 Z"
             style="fill:#002970;fill-opacity:1;fill-rule:nonzero;stroke:none"
             id="path68502" />
        </g>
        <g
           id="g68504"
           transform="translate(141.9877,290.8365)">
          <path
             d="m 0,0 8.367,-6.064 -3.195,9.826 8.355,6.07 H 3.192 L 0,19.667 -3.178,9.832 h -10.34 l 8.349,-6.07 -3.184,-9.826 z"
             style="fill:#ffffff;fill-opacity:1;fill-rule:nonzero;stroke:none"
             id="path68506" />
        </g>
        <g
           id="g68508"
           transform="translate(466.8051,300.6688)">
          <path
             d="M 0,0 H -10.335 L -13.527,9.835 -16.705,0 h -10.34 l 8.348,-6.071 -3.182,-9.825 8.352,6.064 8.366,-6.064 -3.193,9.825 z"
             style="fill:#ffffff;fill-opacity:1;fill-rule:nonzero;stroke:none"
             id="path68510" />
        </g>
        <g
           id="g68512"
           transform="translate(181.291,421.0134)">
          <path
             d="m 0,0 2.944,-2.944 c 0.691,-0.691 1.338,-1.404 1.956,-2.138 0.603,-0.731 1.08,-1.45 1.39,-2.16 l -15.345,-15.346 2.554,-2.554 9.263,9.264 3.654,-3.653 -6.622,-6.623 2.547,-2.546 13.12,13.12 6.653,-6.655 4.009,4.008 -7.113,7.114 c -1.413,1.413 -2.893,1.284 -4.195,-0.018 l -4.398,-4.399 -3.654,3.653 9.444,9.445 -2.554,2.554 -3.86,-3.86 C 9.717,-3.11 9.376,-2.308 8.767,-1.327 8.166,-0.345 7.537,0.484 6.861,1.16 L 3.549,4.472 C 2.139,5.882 0.656,5.756 -0.65,4.449 l -14.992,-14.993 2.548,-2.55 z"
             style="fill:#ffffff;fill-opacity:1;fill-rule:nonzero;stroke:none"
             id="path68514" />
        </g>
        <g
           id="g68516"
           transform="translate(140.9932,352.3035)">
          <path
             d="M 0,0 C 0.342,0.827 1.03,1.399 2.063,1.71 3.094,2.034 4.144,1.967 5.215,1.523 6.284,1.08 7.08,0.383 7.595,-0.581 8.113,-1.535 8.203,-2.429 7.86,-3.256 7.529,-4.056 6.835,-4.621 5.788,-4.945 4.742,-5.262 3.682,-5.202 2.612,-4.759 1.542,-4.315 0.756,-3.611 0.255,-2.652 -0.248,-1.687 -0.332,-0.799 0,0 m -8.805,-7.207 3.332,-1.38 1.704,4.114 c 0.281,-1.158 0.796,-2.195 1.54,-3.137 0.749,-0.948 1.672,-1.658 2.78,-2.117 2.019,-0.836 4.077,-0.749 6.18,0.267 2.092,1.007 3.598,2.613 4.506,4.805 0.923,2.23 0.994,4.431 0.221,6.609 C 10.68,4.138 9.286,5.652 7.268,6.488 6.16,6.947 5.01,7.11 3.816,6.982 2.628,6.854 1.525,6.473 0.502,5.84 l 1.688,4.074 -3.332,1.38 -2.749,-6.636 -1.108,0.458 c -1.846,0.765 -3.164,0.087 -3.872,-1.62 l -1.028,-2.482 3.84,-1.591 z"
             style="fill:#ffffff;fill-opacity:1;fill-rule:nonzero;stroke:none"
             id="path68518" />
        </g>
        <g
           id="g68520"
           transform="translate(162.8202,363.429)">
          <path
             d="m 0,0 -11.031,4.57 2.173,5.246 -3.368,1.395 -2.173,-5.247 -4.643,1.924 c -1.847,0.765 -3.163,0.09 -3.868,-1.612 l -0.035,0.015 -1.031,-2.488 21.809,-9.034 z"
             style="fill:#ffffff;fill-opacity:1;fill-rule:nonzero;stroke:none"
             id="path68522" />
        </g>
        <g
           id="g68524"
           transform="translate(154.7471,344.2032)">
          <path
             d="M 0,0 -1.027,-2.479 5.881,-5.34 c 1.084,-0.449 2.075,-0.466 2.974,-0.04 0.909,0.428 1.572,1.163 2.001,2.198 l 7.518,18.15 -3.33,1.379 L 8.202,-0.173 3.868,1.622 C 2.024,2.386 0.706,1.704 0,0"
             style="fill:#ffffff;fill-opacity:1;fill-rule:nonzero;stroke:none"
             id="path68526" />
        </g>
        <g
           id="g68528"
           transform="translate(425.8873,367.0554)">
          <path
             d="m 0,0 -3.338,-1.382 12.769,-30.828 3.337,1.382 -2.09,5.045 c 0.61,-0.17 1.482,-0.163 2.621,0.025 1.137,0.179 2.143,0.443 3.027,0.809 l 13.933,5.772 c 1.842,0.763 2.293,2.182 1.586,3.889 l -9.19,22.186 -3.33,-1.38 8.161,-19.704 -13.453,-5.573 c -0.902,-0.374 -1.809,-0.698 -2.722,-0.99 -0.907,-0.276 -1.754,-0.441 -2.529,-0.456 l -1.275,3.08 8.741,3.622 c 1.848,0.765 2.301,2.173 1.596,3.874 l 0.035,0.015 -1.031,2.488 -11.508,-4.768 -1.278,3.087 8.741,3.621 c 1.848,0.765 2.301,2.174 1.596,3.875 l 0.035,0.014 -1.03,2.488 -11.509,-4.767 z"
             style="fill:#ffffff;fill-opacity:1;fill-rule:nonzero;stroke:none"
             id="path68530" />
        </g>
        <g
           id="g68532"
           transform="translate(345.3508,439.64)">
          <path
             d="m 0,0 5.915,-2.733 c 1.065,-0.493 2.122,-0.83 3.178,-1.026 0.606,-0.11 1.108,-0.1 1.65,-0.135 l -5.024,-10.874 4.843,-2.238 9.279,20.084 2.625,-1.213 -9.279,-20.084 4.837,-2.235 13.515,29.252 c 0.838,1.815 0.213,3.159 -1.461,3.933 l -2.137,0.986 -3.961,-8.575 -2.625,1.213 2.721,5.891 c 0.839,1.815 0.212,3.16 -1.467,3.935 l -2.135,0.987 -8.545,-18.494 c -0.454,0.085 -0.864,0.125 -1.377,0.269 -0.945,0.267 -1.935,0.641 -2.972,1.12 l -4.618,2.134 6.967,15.079 7.21,-3.332 1.338,2.895 L 6.12,22.548 -1.992,4.992 C -2.458,3.982 -2.516,3.02 -2.167,2.114 -1.809,1.213 -1.094,0.505 0,0"
             style="fill:#ffffff;fill-opacity:1;fill-rule:nonzero;stroke:none"
             id="path68534" />
        </g>
        <g
           id="g68536"
           transform="translate(224.6545,446.0154)">
          <path
             d="M 0,0 C 0.327,1.039 0.896,1.725 1.696,2.056 2.522,2.399 3.413,2.317 4.364,1.807 5.321,1.307 6.016,0.517 6.46,-0.554 6.903,-1.624 6.972,-2.68 6.655,-3.726 6.346,-4.766 5.778,-5.462 4.952,-5.805 4.152,-6.136 3.262,-6.044 2.292,-5.533 1.328,-5.018 0.621,-4.226 0.178,-3.156 -0.266,-2.085 -0.323,-1.031 0,0 m -8.246,-0.145 4.114,1.704 c -0.62,-1.018 -0.989,-2.115 -1.129,-3.308 -0.141,-1.2 0.009,-2.355 0.469,-3.463 0.835,-2.018 2.352,-3.412 4.558,-4.18 2.191,-0.768 4.391,-0.697 6.584,0.211 2.229,0.924 3.835,2.43 4.829,4.516 0.994,2.095 1.08,4.151 0.242,6.17 C 10.962,2.613 10.265,3.541 9.33,4.295 8.4,5.044 7.351,5.554 6.18,5.831 L 10.254,7.519 8.874,10.85 2.238,8.102 1.779,9.209 c -0.765,1.846 -2.177,2.299 -3.884,1.592 L -4.587,9.773 -2.996,5.933 -9.627,3.187 Z"
             style="fill:#ffffff;fill-opacity:1;fill-rule:nonzero;stroke:none"
             id="path68538" />
        </g>
        <g
           id="g68540"
           transform="translate(248.2594,443.8607)">
          <path
             d="m 0,0 -3.179,7.675 5.247,2.173 -1.395,3.368 -5.247,-2.173 -1.923,4.643 c -0.765,1.847 -2.173,2.3 -3.874,1.596 l -0.015,0.035 -2.487,-1.031 7.643,-18.453 z"
             style="fill:#ffffff;fill-opacity:1;fill-rule:nonzero;stroke:none"
             id="path68542" />
        </g>
        <g
           id="g68544"
           transform="translate(244.854,428.516)">
          <path
             d="M 0,0 C -1.981,-0.821 -4.289,0.209 -5.155,2.299 -6.021,4.39 -5.117,6.75 -3.136,7.571 -1.155,8.391 1.152,7.362 2.018,5.271 2.884,3.181 1.981,0.821 0,0 m -4.545,10.974 c -4.803,-1.99 -7.363,-6.821 -5.718,-10.791 1.643,-3.969 6.869,-5.575 11.673,-3.586 4.802,1.99 7.362,6.821 5.718,10.79 -1.645,3.97 -6.871,5.575 -11.673,3.587"
             style="fill:#ffffff;fill-opacity:1;fill-rule:nonzero;stroke:none"
             id="path68546" />
        </g>
        <g
           id="g68548"
           transform="translate(401.8698,388.546)">
          <path
             d="m 0,0 4.008,-4.008 7.113,7.113 C 12.533,4.518 12.405,5.998 11.102,7.3 L -3.919,22.322 -6.171,20.069 6.949,6.949 Z"
             style="fill:#ffffff;fill-opacity:1;fill-rule:nonzero;stroke:none"
             id="path68550" />
        </g>
        <g
           id="g68552"
           transform="translate(405.3738,413.7226)">
          <path
             d="M 0,0 C 0.107,1.088 0.568,2.044 1.387,2.863 2.206,3.682 3.158,4.139 4.235,4.235 5.32,4.33 6.171,4.068 6.783,3.456 7.416,2.823 7.681,1.969 7.573,0.895 7.478,-0.181 7.014,-1.126 6.194,-1.945 5.376,-2.764 4.427,-3.232 3.339,-3.34 2.26,-3.453 1.4,-3.194 0.766,-2.561 0.154,-1.949 -0.102,-1.091 0,0 m 4.203,-7.879 c 2.315,-0.117 4.247,0.592 5.793,2.137 0.847,0.848 1.438,1.848 1.776,3.001 0.337,1.146 0.406,2.31 0.213,3.498 l 3.119,-3.118 2.549,2.55 -5.079,5.079 0.848,0.848 c 1.413,1.413 1.291,2.891 -0.015,4.198 L 11.508,12.213 8.569,9.274 3.495,14.349 0.945,11.799 4.093,8.65 C 2.915,8.833 1.76,8.754 0.604,8.427 -0.558,8.098 -1.567,7.517 -2.415,6.669 -3.96,5.124 -4.666,3.189 -4.532,0.857 c 0.129,-2.318 1.037,-4.324 2.715,-6.002 1.706,-1.707 3.712,-2.614 6.02,-2.734"
             style="fill:#ffffff;fill-opacity:1;fill-rule:nonzero;stroke:none"
             id="path68554" />
        </g>
        <g
           id="g68556"
           transform="translate(416.6506,395.3234)">
          <path
             d="m 0,0 5.874,5.874 4.015,-4.015 2.577,2.577 -4.015,4.016 3.554,3.553 c 1.414,1.414 1.294,2.889 -0.009,4.191 l 0.028,0.027 -1.905,1.904 L -4.003,4.004 Z"
             style="fill:#ffffff;fill-opacity:1;fill-rule:nonzero;stroke:none"
             id="path68558" />
        </g>
        <g
           id="g68560"
           transform="translate(313.6999,456.102)">
          <path
             d="m 0,0 h -5.459 c 0.39,0.498 0.716,1.306 0.979,2.43 0.269,1.12 0.411,2.151 0.411,3.108 v 6.763 c 0,1.994 -1.138,2.953 -2.986,2.953 H -29.817 V 11.649 H -9.741 V 5.406 C -9.741,4.428 -9.788,3.467 -9.869,2.51 -9.96,1.567 -10.131,0.721 -10.414,0 h -4.604 v 4.365 c 0,1.999 -1.128,2.957 -2.969,2.957 V 7.36 H -20.68 V 0 H -32.115 V -3.612 H 0 Z"
             style="fill:#ffffff;fill-opacity:1;fill-rule:nonzero;stroke:none"
             id="path68562" />
        </g>
        <g
           id="g68564"
           transform="translate(302.0219,442.8587)">
          <path
             d="m 0,0 c 0,-2.263 -1.96,-4.097 -4.379,-4.097 -2.419,0 -4.38,1.834 -4.38,4.097 0,2.263 1.961,4.097 4.38,4.097 C -1.96,4.097 0,2.263 0,0 m -14.57,0 c 0,-4.297 4.563,-7.78 10.191,-7.78 C 1.248,-7.78 5.81,-4.297 5.81,0 5.81,4.297 1.248,7.78 -4.379,7.78 -10.007,7.78 -14.57,4.297 -14.57,0"
             style="fill:#ffffff;fill-opacity:1;fill-rule:nonzero;stroke:none"
             id="path68566" />
        </g>
        <g
           id="g68568"
           transform="translate(158.539,249.6717)">
          <path
             d="m 0,0 -1.02,3.648 -11.271,6.348 8.81,2.461 -0.775,2.774 -17.979,-5.023 0.775,-2.774 5.894,1.647 3.425,-1.998 -6.764,-8.793 0.968,-3.467 8.247,10.83 z"
             style="fill:#ffffff;fill-opacity:1;fill-rule:nonzero;stroke:none"
             id="path68570" />
        </g>
        <g
           id="g68572"
           transform="translate(150.5144,231.9083)">
          <path
             d="m 0,0 c -0.778,0.275 -1.468,0.696 -2.069,1.265 -0.601,0.569 -1.075,1.272 -1.423,2.11 -0.347,0.837 -0.509,1.67 -0.486,2.497 0.023,0.827 0.206,1.616 0.55,2.364 0.344,0.749 0.844,1.423 1.501,2.022 0.656,0.599 1.435,1.086 2.339,1.46 0.919,0.381 1.819,0.59 2.698,0.628 0.88,0.037 1.706,-0.088 2.479,-0.373 C 6.361,11.687 7.048,11.259 7.65,10.691 8.252,10.123 8.726,9.419 9.073,8.582 9.42,7.743 9.582,6.911 9.559,6.084 9.536,5.256 9.348,4.472 8.992,3.727 8.636,2.983 8.136,2.309 7.491,1.705 6.847,1.102 6.073,0.612 5.169,0.238 4.266,-0.137 3.374,-0.338 2.491,-0.367 1.608,-0.396 0.778,-0.274 0,0 m 6.293,-2.472 c 1.264,0.524 2.348,1.218 3.25,2.083 0.902,0.865 1.598,1.845 2.086,2.942 0.488,1.098 0.741,2.252 0.759,3.462 0.018,1.21 -0.225,2.424 -0.728,3.638 -0.504,1.216 -1.19,2.245 -2.059,3.087 -0.869,0.843 -1.86,1.481 -2.973,1.915 -1.113,0.434 -2.294,0.637 -3.544,0.61 C 1.835,15.238 0.57,14.959 -0.711,14.428 -1.993,13.897 -3.084,13.199 -3.986,12.335 -4.889,11.47 -5.579,10.491 -6.059,9.397 -6.54,8.303 -6.789,7.151 -6.807,5.941 c -0.018,-1.21 0.225,-2.423 0.729,-3.639 0.503,-1.215 1.19,-2.244 2.058,-3.087 0.87,-0.842 1.864,-1.479 2.986,-1.909 1.121,-0.431 2.306,-0.632 3.555,-0.605 1.25,0.027 2.507,0.303 3.772,0.827"
             style="fill:#ffffff;fill-opacity:1;fill-rule:nonzero;stroke:none"
             id="path68574" />
        </g>
        <g
           id="g68576"
           transform="translate(165.6682,226.9932)">
          <path
             d="M 0,0 2.269,-3.986 C 2.595,-4.557 2.772,-5.137 2.8,-5.725 2.827,-6.312 2.709,-6.851 2.445,-7.339 2.18,-7.827 1.778,-8.224 1.238,-8.533 0.758,-8.805 0.265,-8.953 -0.243,-8.977 -0.751,-9 -1.219,-8.898 -1.645,-8.671 c -0.427,0.228 -0.768,0.566 -1.023,1.014 l -2.639,4.635 z m -3.061,-10.981 c 0.895,-0.513 1.854,-0.786 2.875,-0.817 1.021,-0.033 1.972,0.202 2.853,0.704 0.972,0.553 1.717,1.285 2.234,2.193 0.516,0.907 0.779,1.881 0.791,2.921 0.011,1.039 -0.247,2.023 -0.775,2.949 l -3.933,6.906 -16.221,-9.238 1.425,-2.503 6.095,3.471 2.11,-3.704 -4.14,-6.904 1.706,-3.049 4.392,7.524 c 0.197,-0.15 0.37,-0.328 0.588,-0.453"
             style="fill:#ffffff;fill-opacity:1;fill-rule:nonzero;stroke:none"
             id="path68578" />
        </g>
        <g
           id="g68580"
           transform="translate(164.2427,204.3718)">
          <path
             d="m 0,0 4.382,3.179 4.353,-6.002 2.246,1.629 -4.353,6.002 3.993,2.896 5.214,-7.189 2.245,1.629 -6.905,9.52 -15.111,-10.961 6.906,-9.52 2.245,1.629 z"
             style="fill:#ffffff;fill-opacity:1;fill-rule:nonzero;stroke:none"
             id="path68582" />
        </g>
        <g
           id="g68584"
           transform="translate(185.5802,195.3182)">
          <path
             d="M 0,0 C -0.303,-0.539 -0.582,-1.026 -0.836,-1.461 -1.09,-1.895 -1.245,-2.174 -1.301,-2.297 l -1.865,-3.659 -3.833,4.223 3.719,1.457 c 0.296,0.124 0.665,0.28 1.109,0.466 0.442,0.186 0.911,0.39 1.407,0.611 0.495,0.222 0.965,0.432 1.409,0.631 0.08,0.035 0.144,0.063 0.219,0.097 C 0.852,1.509 0.847,1.499 0.836,1.479 0.581,1.032 0.302,0.539 0,0 m 2.325,4.739 -18.68,-7.194 1.972,-2.173 4.621,1.812 5.249,-5.783 -2.253,-4.421 2.06,-2.271 9.002,17.858 z"
             style="fill:#ffffff;fill-opacity:1;fill-rule:nonzero;stroke:none"
             id="path68586" />
        </g>
        <g
           id="g68588"
           transform="translate(202.399,179.4984)">
          <path
             d="m 0,0 c -0.219,-0.578 -0.42,-1.102 -0.605,-1.57 -0.186,-0.467 -0.298,-0.767 -0.334,-0.896 l -1.292,-3.899 -4.426,3.597 3.457,2.001 c 0.273,0.168 0.615,0.377 1.025,0.628 0.41,0.251 0.843,0.523 1.299,0.817 C -0.42,0.971 0.013,1.249 0.422,1.513 0.502,1.565 0.548,1.592 0.623,1.64 0.615,1.62 0.611,1.61 0.603,1.589 0.419,1.108 0.218,0.579 0,0 m 1.584,5.036 -17.382,-9.929 2.277,-1.85 4.296,2.488 6.06,-4.926 -1.561,-4.71 2.38,-1.934 6.206,19.011 z"
             style="fill:#ffffff;fill-opacity:1;fill-rule:nonzero;stroke:none"
             id="path68590" />
        </g>
        <g
           id="g68592"
           transform="translate(216.4739,162.7676)">
          <path
             d="m 0,0 1.503,2.331 -6.231,4.017 2.673,4.147 7.464,-4.812 1.502,2.331 -9.884,6.372 -10.115,-15.689 9.884,-6.372 1.503,2.331 -7.463,4.811 2.933,4.55 z"
             style="fill:#ffffff;fill-opacity:1;fill-rule:nonzero;stroke:none"
             id="path68594" />
        </g>
        <g
           id="g68596"
           transform="translate(233.3326,158.9712)">
          <path
             d="m 0,0 c -0.246,-0.493 -0.574,-0.89 -0.983,-1.193 -0.41,-0.302 -0.854,-0.478 -1.335,-0.526 -0.482,-0.048 -0.953,0.043 -1.414,0.273 L -8.505,0.935 -5.777,6.4 -1.673,4.353 C -1.085,4.059 -0.615,3.676 -0.265,3.202 0.085,2.729 0.286,2.217 0.339,1.664 0.39,1.111 0.278,0.557 0,0 M 3.248,1.732 C 3.172,2.774 2.849,3.73 2.28,4.6 1.71,5.469 0.949,6.143 -0.005,6.619 l -7.111,3.549 -8.335,-16.704 2.577,-1.286 3.132,6.276 3.814,-1.904 0.403,-8.039 3.114,-1.583 -0.539,8.695 c 0.247,-0.016 0.491,-0.067 0.742,-0.049 1.028,0.072 1.977,0.379 2.843,0.921 0.866,0.541 1.525,1.265 1.978,2.172 0.5,1.002 0.712,2.023 0.635,3.065"
             style="fill:#ffffff;fill-opacity:1;fill-rule:nonzero;stroke:none"
             id="path68598" />
        </g>
        <g
           id="g68600"
           transform="translate(251.4889,148.2716)">
          <path
             d="m 0,0 c -0.326,-0.922 -0.773,-1.721 -1.341,-2.397 -0.569,-0.676 -1.215,-1.212 -1.939,-1.606 -0.724,-0.395 -1.498,-0.626 -2.323,-0.694 -0.826,-0.067 -1.665,0.051 -2.52,0.353 -0.855,0.302 -1.583,0.737 -2.183,1.308 -0.6,0.57 -1.063,1.233 -1.39,1.99 -0.326,0.756 -0.493,1.578 -0.501,2.467 -0.006,0.888 0.153,1.794 0.479,2.716 0.331,0.939 0.777,1.747 1.337,2.427 0.56,0.678 1.205,1.209 1.934,1.593 0.73,0.383 1.507,0.609 2.331,0.676 0.825,0.066 1.665,-0.051 2.521,-0.352 0.855,-0.302 1.582,-0.739 2.182,-1.308 0.6,-0.57 1.058,-1.236 1.374,-1.998 C 0.276,4.413 0.443,3.59 0.461,2.708 0.479,1.825 0.326,0.922 0,0 m 0.53,9.231 c -0.888,0.822 -1.953,1.452 -3.193,1.89 -1.241,0.438 -2.465,0.616 -3.672,0.533 -1.208,-0.083 -2.345,-0.393 -3.412,-0.931 -1.066,-0.538 -2.007,-1.281 -2.823,-2.227 -0.814,-0.948 -1.453,-2.075 -1.914,-3.383 -0.462,-1.308 -0.673,-2.586 -0.633,-3.835 0.039,-1.249 0.306,-2.418 0.798,-3.506 0.493,-1.088 1.183,-2.043 2.072,-2.866 0.887,-0.822 1.951,-1.453 3.192,-1.891 1.241,-0.437 2.465,-0.615 3.673,-0.533 1.206,0.083 2.345,0.398 3.415,0.944 1.07,0.546 2.011,1.293 2.827,2.24 0.815,0.947 1.45,2.066 1.906,3.358 C 3.222,0.314 3.43,1.584 3.39,2.833 3.35,4.082 3.085,5.254 2.596,6.351 2.106,7.448 1.417,8.408 0.53,9.231"
             style="fill:#ffffff;fill-opacity:1;fill-rule:nonzero;stroke:none"
             id="path68602" />
        </g>
        <g
           id="g68604"
           transform="translate(261.9099,151.5136)">
          <path
             d="M 0,0 C 0.37,0.309 0.83,0.511 1.38,0.606 1.929,0.701 2.542,0.673 3.219,0.522 3.809,0.389 4.342,0.165 4.817,-0.151 5.294,-0.467 5.705,-0.869 6.05,-1.356 6.396,-1.844 6.679,-2.413 6.898,-3.063 l 2.415,1.508 C 9.069,-0.772 8.697,-0.074 8.197,0.54 7.697,1.152 7.084,1.668 6.358,2.086 5.632,2.504 4.8,2.818 3.864,3.028 2.979,3.227 2.126,3.286 1.307,3.205 0.486,3.125 -0.257,2.918 -0.923,2.585 -1.591,2.251 -2.154,1.808 -2.615,1.256 -3.076,0.703 -3.388,0.063 -3.551,-0.666 -3.718,-1.412 -3.756,-2.11 -3.666,-2.758 c 0.092,-0.649 0.32,-1.261 0.683,-1.834 0.364,-0.574 0.856,-1.094 1.48,-1.562 0.624,-0.468 1.383,-0.902 2.277,-1.303 0.566,-0.236 1.059,-0.479 1.477,-0.727 0.418,-0.249 0.775,-0.507 1.07,-0.773 0.296,-0.267 0.526,-0.538 0.693,-0.812 0.166,-0.274 0.271,-0.561 0.312,-0.863 0.042,-0.3 0.028,-0.607 -0.042,-0.919 -0.105,-0.469 -0.354,-0.85 -0.749,-1.144 -0.394,-0.294 -0.883,-0.485 -1.467,-0.572 -0.584,-0.088 -1.207,-0.059 -1.866,0.089 -1.076,0.242 -1.95,0.684 -2.626,1.328 -0.676,0.643 -1.303,1.667 -1.88,3.072 l -2.422,-1.78 c 0.363,-0.901 0.827,-1.693 1.394,-2.376 0.567,-0.683 1.241,-1.249 2.025,-1.697 0.782,-0.449 1.668,-0.785 2.657,-1.006 1.371,-0.308 2.602,-0.342 3.693,-0.104 1.093,0.238 2.003,0.721 2.732,1.451 0.727,0.729 1.222,1.675 1.483,2.837 0.14,0.626 0.135,1.236 -0.013,1.834 -0.149,0.598 -0.433,1.172 -0.857,1.723 -0.423,0.55 -0.972,1.07 -1.646,1.558 -0.674,0.488 -1.465,0.944 -2.372,1.366 -0.645,0.29 -1.19,0.58 -1.636,0.872 -0.444,0.291 -0.784,0.586 -1.017,0.884 -0.234,0.298 -0.387,0.615 -0.457,0.949 -0.071,0.335 -0.066,0.685 0.016,1.049 C -0.611,-0.715 -0.369,-0.309 0,0"
             style="fill:#ffffff;fill-opacity:1;fill-rule:nonzero;stroke:none"
             id="path68606" />
        </g>
        <g
           id="g68608"
           transform="translate(284.2183,145.594)">
          <path
             d="m 0,0 c -0.064,-0.548 -0.241,-1.033 -0.531,-1.455 -0.29,-0.423 -0.646,-0.749 -1.066,-0.978 -0.42,-0.229 -0.868,-0.315 -1.346,-0.261 l -4.635,0.535 0.685,5.935 4.636,-0.536 C -1.78,3.186 -1.363,3.003 -1.004,2.693 -0.647,2.384 -0.374,1.993 -0.187,1.525 0.001,1.055 0.063,0.547 0,0 M 2.505,2.637 C 2.111,3.559 1.533,4.32 0.769,4.918 0.006,5.516 -0.879,5.873 -1.885,5.99 l -7.551,0.871 -2.142,-18.543 2.861,-0.331 0.82,7.1 4.689,-0.542 c 1.007,-0.116 1.951,0.039 2.832,0.465 0.882,0.426 1.62,1.043 2.214,1.851 0.595,0.809 0.953,1.743 1.076,2.802 C 3.036,0.723 2.9,1.714 2.505,2.637"
             style="fill:#ffffff;fill-opacity:1;fill-rule:nonzero;stroke:none"
             id="path68610" />
        </g>
        <g
           id="g68612"
           transform="translate(292.242,139.6195)">
          <path
             d="m 0,0 1.481,3.711 c 0.111,0.3 0.25,0.676 0.418,1.126 C 2.066,5.288 2.238,5.769 2.415,6.282 2.593,6.795 2.761,7.281 2.92,7.741 2.948,7.823 2.972,7.889 2.998,7.966 3.005,7.945 3.008,7.934 3.015,7.913 3.168,7.421 3.336,6.881 3.522,6.291 3.708,5.701 3.873,5.165 4.017,4.682 4.16,4.201 4.257,3.897 4.309,3.771 l 1.394,-3.863 z m 1.656,11.229 -7.528,-18.548 2.932,-0.047 1.84,4.61 7.809,-0.126 1.684,-4.669 3.066,-0.049 -6.87,18.781 z"
             style="fill:#ffffff;fill-opacity:1;fill-rule:nonzero;stroke:none"
             id="path68614" />
        </g>
        <g
           id="g68616"
           transform="translate(318.1054,136.9169)">
          <path
             d="m 0,0 c -0.467,-0.348 -0.976,-0.629 -1.528,-0.842 -0.551,-0.213 -1.119,-0.347 -1.702,-0.404 -0.957,-0.091 -1.843,-0.019 -2.66,0.216 -0.817,0.235 -1.537,0.617 -2.158,1.148 -0.623,0.53 -1.127,1.191 -1.516,1.985 -0.387,0.793 -0.629,1.695 -0.725,2.703 -0.091,0.957 -0.016,1.852 0.226,2.688 0.242,0.836 0.614,1.571 1.116,2.208 0.502,0.638 1.113,1.155 1.834,1.555 0.722,0.399 1.516,0.639 2.383,0.722 0.548,0.053 1.101,0.015 1.658,-0.11 0.556,-0.126 1.112,-0.336 1.667,-0.631 0.555,-0.296 1.114,-0.676 1.675,-1.14 l 1.723,2.173 c -0.502,0.577 -1.126,1.075 -1.87,1.496 -0.746,0.421 -1.561,0.726 -2.446,0.919 -0.884,0.193 -1.777,0.246 -2.68,0.16 -1.274,-0.121 -2.437,-0.472 -3.489,-1.055 -1.052,-0.583 -1.953,-1.347 -2.702,-2.293 -0.75,-0.946 -1.305,-2.012 -1.664,-3.199 -0.361,-1.186 -0.477,-2.443 -0.351,-3.77 0.132,-1.399 0.472,-2.661 1.016,-3.788 0.545,-1.127 1.257,-2.081 2.135,-2.864 0.877,-0.782 1.878,-1.353 3.002,-1.71 1.123,-0.357 2.331,-0.474 3.624,-0.352 0.866,0.083 1.718,0.276 2.556,0.578 0.837,0.303 1.587,0.683 2.249,1.139 0.662,0.456 1.173,0.942 1.535,1.459 l -1.656,2.2 C 0.884,0.744 0.466,0.348 0,0"
             style="fill:#ffffff;fill-opacity:1;fill-rule:nonzero;stroke:none"
             id="path68618" />
        </g>
        <g
           id="g68620"
           transform="translate(328.0482,137.7263)">
          <path
             d="M 0,0 -1.093,5.302 6.167,6.799 5.608,9.515 -1.653,8.018 -2.65,12.85 6.048,14.643 5.488,17.36 -6.031,14.984 -2.26,-3.298 9.258,-0.923 8.698,1.793 Z"
             style="fill:#ffffff;fill-opacity:1;fill-rule:nonzero;stroke:none"
             id="path68622" />
        </g>
        <g
           id="g68624"
           transform="translate(355.3861,162.4092)">
          <path
             d="m 0,0 -2.579,-0.948 3.896,-10.587 c 0.313,-0.851 0.392,-1.688 0.241,-2.512 -0.152,-0.823 -0.492,-1.559 -1.021,-2.208 -0.528,-0.649 -1.209,-1.126 -2.043,-1.433 -0.785,-0.289 -1.58,-0.354 -2.387,-0.196 -0.806,0.158 -1.534,0.501 -2.183,1.03 -0.648,0.528 -1.129,1.217 -1.442,2.069 l -3.896,10.587 -2.703,-0.995 3.978,-10.812 c 0.485,-1.318 1.223,-2.387 2.216,-3.206 0.993,-0.818 2.132,-1.328 3.418,-1.527 1.286,-0.199 2.604,-0.05 3.956,0.447 1.351,0.497 2.452,1.237 3.302,2.223 0.85,0.985 1.387,2.111 1.613,3.378 0.225,1.267 0.095,2.56 -0.389,3.878 z"
             style="fill:#ffffff;fill-opacity:1;fill-rule:nonzero;stroke:none"
             id="path68626" />
        </g>
        <g
           id="g68628"
           transform="translate(370.1579,169.8268)">
          <path
             d="m 0,0 2.845,-5.433 c 0.363,-0.693 0.722,-1.359 1.076,-1.996 0.354,-0.638 0.696,-1.245 1.03,-1.823 0.332,-0.579 0.657,-1.122 0.973,-1.628 0.315,-0.508 0.619,-0.981 0.909,-1.421 0.095,-0.144 0.181,-0.256 0.274,-0.392 l -16.369,7.843 -2.291,-1.199 8.661,-16.538 2.551,1.337 -3.6,6.874 c -0.074,0.142 -0.165,0.306 -0.272,0.49 -0.107,0.185 -0.244,0.419 -0.413,0.702 -0.168,0.283 -0.394,0.646 -0.676,1.091 -0.283,0.443 -0.627,0.986 -1.032,1.627 -0.291,0.459 -0.644,1.016 -1.026,1.619 l 16.233,-7.578 2.338,1.224 -8.66,16.538 z"
             style="fill:#ffffff;fill-opacity:1;fill-rule:nonzero;stroke:none"
             id="path68630" />
        </g>
        <g
           id="g68632"
           transform="translate(389.1634,162.9309)">
          <path
             d="m 0,0 -7.406,11.088 2.506,1.674 -1.482,2.218 -7.406,-4.947 1.481,-2.218 2.506,1.673 7.406,-11.088 -2.506,-1.674 1.481,-2.217 7.407,4.947 -1.482,2.218 z"
             style="fill:#ffffff;fill-opacity:1;fill-rule:nonzero;stroke:none"
             id="path68634" />
        </g>
        <g
           id="g68636"
           transform="translate(395.1329,187.7)">
          <path
             d="m 0,0 4.009,-11.379 c 0.234,-0.705 0.454,-1.329 0.66,-1.874 0.206,-0.543 0.401,-1.04 0.585,-1.487 0.031,-0.075 0.06,-0.142 0.091,-0.216 -0.256,0.16 -0.522,0.325 -0.811,0.505 -0.328,0.201 -0.699,0.42 -1.111,0.656 -0.412,0.236 -0.877,0.499 -1.391,0.79 l -10.64,5.923 -2.533,-2.084 17.626,-9.673 2.162,1.78 -6.052,19.193 z"
             style="fill:#ffffff;fill-opacity:1;fill-rule:nonzero;stroke:none"
             id="path68638" />
        </g>
        <g
           id="g68640"
           transform="translate(412.409,182.2449)">
          <path
             d="m 0,0 -3.88,3.775 5.169,5.314 -1.988,1.934 -5.169,-5.314 -3.536,3.44 6.192,6.365 -1.988,1.935 -8.201,-8.43 13.38,-13.018 8.202,8.431 -1.988,1.933 z"
             style="fill:#ffffff;fill-opacity:1;fill-rule:nonzero;stroke:none"
             id="path68642" />
        </g>
        <g
           id="g68644"
           transform="translate(418.1454,198.9412)">
          <path
             d="m 0,0 -4.814,3.757 2.821,3.616 c 0.405,0.519 0.874,0.903 1.407,1.153 C -0.053,8.775 0.49,8.87 1.042,8.811 1.593,8.753 2.115,8.532 2.605,8.149 3.04,7.811 3.364,7.41 3.579,6.95 3.794,6.488 3.878,6.017 3.83,5.536 3.781,5.055 3.599,4.611 3.282,4.205 Z M 6.505,5.106 C 6.638,6.129 6.526,7.119 6.167,8.076 5.809,9.032 5.23,9.822 4.431,10.446 3.548,11.134 2.589,11.545 1.552,11.677 0.517,11.809 -0.485,11.682 -1.45,11.298 -2.415,10.912 -3.227,10.3 -3.883,9.458 L -8.772,3.194 5.943,-8.291 l 1.772,2.27 -5.528,4.315 2.622,3.361 7.96,-1.201 2.171,2.737 -8.63,1.198 c 0.064,0.239 0.162,0.468 0.195,0.717"
             style="fill:#ffffff;fill-opacity:1;fill-rule:nonzero;stroke:none"
             id="path68646" />
        </g>
        <g
           id="g68648"
           transform="translate(437.4975,219.6535)">
          <path
             d="M 0,0 C -0.545,0.336 -1.124,0.531 -1.738,0.585 -2.352,0.64 -2.988,0.557 -3.647,0.337 -4.305,0.115 -4.974,-0.234 -5.656,-0.712 -6.336,-1.19 -7.025,-1.79 -7.719,-2.51 c -0.484,-0.516 -0.938,-0.937 -1.357,-1.262 -0.42,-0.327 -0.81,-0.551 -1.168,-0.675 -0.359,-0.123 -0.707,-0.164 -1.047,-0.121 -0.339,0.041 -0.668,0.16 -0.986,0.356 -0.439,0.271 -0.744,0.631 -0.915,1.082 -0.172,0.45 -0.213,0.951 -0.124,1.501 0.088,0.551 0.315,1.122 0.679,1.712 0.317,0.514 0.703,0.945 1.157,1.292 0.454,0.346 0.967,0.604 1.542,0.773 0.573,0.168 1.203,0.249 1.889,0.245 l -0.639,2.774 c -0.82,0.025 -1.601,-0.099 -2.344,-0.372 -0.743,-0.274 -1.43,-0.685 -2.061,-1.235 -0.633,-0.55 -1.2,-1.234 -1.704,-2.052 -0.476,-0.771 -0.809,-1.558 -1,-2.359 -0.192,-0.801 -0.238,-1.572 -0.14,-2.31 0.098,-0.74 0.333,-1.418 0.705,-2.033 0.372,-0.616 0.877,-1.119 1.512,-1.511 0.651,-0.401 1.297,-0.665 1.942,-0.79 0.643,-0.125 1.294,-0.11 1.955,0.047 0.66,0.157 1.314,0.454 1.959,0.891 0.646,0.438 1.304,1.014 1.974,1.729 0.408,0.458 0.798,0.845 1.169,1.159 0.371,0.314 0.731,0.568 1.079,0.76 0.349,0.192 0.68,0.322 0.992,0.39 0.314,0.068 0.62,0.073 0.918,0.015 0.298,-0.058 0.583,-0.172 0.856,-0.34 0.409,-0.252 0.688,-0.612 0.838,-1.08 0.15,-0.469 0.171,-0.994 0.063,-1.575 -0.108,-0.58 -0.339,-1.158 -0.693,-1.733 -0.579,-0.939 -1.282,-1.623 -2.11,-2.052 -0.829,-0.429 -2.001,-0.688 -3.518,-0.776 l 0.895,-2.87 c 0.97,0.049 1.87,0.231 2.7,0.545 0.83,0.313 1.585,0.766 2.265,1.361 0.678,0.593 1.284,1.322 1.816,2.184 0.737,1.195 1.171,2.349 1.301,3.458 0.132,1.11 -0.03,2.128 -0.482,3.055 C 1.747,-1.401 1.013,-0.625 0,0"
             style="fill:#ffffff;fill-opacity:1;fill-rule:nonzero;stroke:none"
             id="path68650" />
        </g>
        <g
           id="g68652"
           transform="translate(444.2546,226.691)">
          <path
             d="m 0,0 -11.946,5.922 1.338,2.701 -2.389,1.184 -3.957,-7.98 2.39,-1.185 1.338,2.7 11.947,-5.922 -1.339,-2.701 2.389,-1.184 3.956,7.98 -2.389,1.184 z"
             style="fill:#ffffff;fill-opacity:1;fill-rule:nonzero;stroke:none"
             id="path68654" />
        </g>
        <g
           id="g68656"
           transform="translate(439.5109,249.5374)">
          <path
             d="m 0,0 -2.584,1.009 -4.906,-12.571 2.583,-1.008 1.901,4.869 14.806,-5.779 1.047,2.682 -14.806,5.78 z"
             style="fill:#ffffff;fill-opacity:1;fill-rule:nonzero;stroke:none"
             id="path68658" />
        </g>
        <g
           id="g68660"
           transform="translate(441.5607,267.1538)">
          <path
             d="m 0,0 -0.87,-3.191 6.166,-6.768 -8.872,-3.163 -0.911,-3.346 11.972,4.367 7.974,-2.173 0.756,2.78 -8.021,2.185 z"
             style="fill:#ffffff;fill-opacity:1;fill-rule:nonzero;stroke:none"
             id="path68662" />
        </g>
      </g>
    </g>
    <path
       style="fill:#ffffff;stroke-width:0.420393"
       d="M 385.50008,567.73231 C 344.42026,564.71355 307.19037,548.08811 277.7278,519.60534 248.56141,491.4089 230.40392,453.69002 226.3251,412.8256 c -0.78117,-7.82636 -0.6714,-25.80628 0.20611,-33.75958 5.43589,-49.26798 31.11119,-93.08012 71.36823,-121.78223 50.50289,-36.0071 116.84571,-41.66681 172.95778,-14.75503 12.43936,5.96601 23.58121,13.15099 35.50575,22.89639 5.30632,4.33661 16.71203,15.62232 21.08411,20.86226 12.27059,14.70631 21.73053,30.44691 28.45025,47.33899 16.67328,41.91344 16.15459,88.5553 -1.44562,129.99327 -14.35844,33.80551 -39.31886,62.12282 -71.52123,81.13998 -20.11366,11.87816 -44.28914,19.82646 -68.00291,22.35768 -7.34534,0.78405 -22.74683,1.10591 -29.42749,0.61498 z m -11.5608,-23.95439 c 0,-5.31797 -0.13236,-9.66903 -0.29413,-9.66903 -0.16178,0 -1.86437,0.59264 -3.78354,1.31698 -3.25473,1.22842 -3.4894,1.39805 -3.4894,2.52236 0,1.3794 0.28585,1.44852 2.377,0.57478 0.83007,-0.34682 1.67529,-0.63059 1.87827,-0.63059 0.20298,0 0.36905,3.49977 0.36905,7.77727 v 7.77726 h 1.47138 1.47137 z m 13.14876,9.22336 c 2.26308,-0.62846 4.3219,-2.60403 5.10311,-4.89676 0.74938,-2.1993 0.88265,-7.52286 0.24572,-9.81561 -1.20585,-4.3407 -7.35767,-5.66604 -10.10256,-2.17647 -2.10775,2.67957 -1.90545,7.31667 0.41625,9.54099 1.49572,1.43299 4.053,1.84269 5.86366,0.93941 1.13171,-0.56457 1.29998,-0.56836 1.29998,-0.0293 0,2.07705 -2.73035,4.36102 -5.21334,4.36102 -0.93368,0 -1.09255,0.18339 -1.09255,1.26118 0,1.43018 0.68675,1.59113 3.47973,0.81551 z m 20.5161,-0.27154 c 2.56585,-1.51569 3.39877,-6.63655 1.53041,-9.40902 -1.32516,-1.9664 -2.62095,-2.55065 -5.24229,-2.36364 -2.41681,0.17242 -2.48023,0.0879 -1.94432,-2.59172 l 0.26275,-1.31372 h 3.73098 3.73099 v -1.47138 -1.47137 h -4.98435 -4.98434 l -0.27668,3.04784 c -0.15217,1.67632 -0.38943,3.92039 -0.52724,4.98682 -0.24182,1.87131 -0.20905,1.94691 0.93902,2.16638 0.69248,0.13237 1.54152,-0.0191 2.03179,-0.3625 1.26144,-0.88355 2.98685,-0.71354 4.31012,0.42468 0.97942,0.84247 1.17952,1.34785 1.17952,2.97915 0,1.63129 -0.2001,2.13668 -1.17952,2.97914 -0.64874,0.55802 -1.65052,1.01459 -2.22618,1.01459 -1.16071,0 -3.11039,-1.70087 -3.11039,-2.71345 0,-0.44162 -0.4039,-0.64969 -1.26118,-0.64969 -0.9911,0 -1.26118,0.18452 -1.26118,0.86166 0,1.36291 1.16758,3.26442 2.42255,3.94536 1.59326,0.8645 5.35079,0.8321 6.85954,-0.0591 z m 19.30462,-0.54397 v -1.26118 h -4.43328 -4.43328 l 3.20626,-3.60373 c 4.57913,-5.14679 5.5403,-7.57224 4.15644,-10.4885 -1.78076,-3.75267 -8.70064,-3.59498 -10.76015,0.2452 -1.1951,2.22839 -1.02913,2.91682 0.70321,2.91682 1.19111,0 1.47137,-0.16014 1.47137,-0.84078 0,-2.33878 4.28271,-3.5422 5.65147,-1.58803 1.52233,2.17343 0.62508,4.02326 -4.86511,10.03028 -2.39045,2.61548 -3.30871,3.92976 -3.30871,4.73564 v 1.11546 h 6.30589 6.30589 z m -9.10369,-27.57852 c 1.11224,-0.37898 2.12056,-0.94523 2.24071,-1.25834 0.12016,-0.3131 -0.19778,-1.24277 -0.70651,-2.06591 -0.74735,-1.20923 -1.0983,-1.44101 -1.82755,-1.20695 -3.30016,1.0592 -5.56069,0.92307 -7.67483,-0.46217 -1.45121,-0.95087 -1.17036,-1.07691 1.19398,-0.53588 1.48339,0.33945 2.57628,0.32308 4.30841,-0.0646 1.27646,-0.28566 2.32084,-0.62615 2.32084,-0.75664 0,-0.13049 -2.00441,-4.10311 -4.45425,-8.82804 -2.44984,-4.72493 -4.37394,-8.67108 -4.27579,-8.76923 0.0982,-0.0982 2.6228,3.46174 5.61032,7.91087 5.86584,8.7356 7.67054,10.57392 11.73777,11.95643 2.9433,1.00048 7.31664,0.89818 11.15448,-0.26093 3.34051,-1.00889 8.81417,-3.67119 8.81417,-4.28706 0,-0.46901 -3.18783,-3.39612 -4.24737,-3.90001 -0.56429,-0.26836 -1.01776,-0.18159 -1.54511,0.29566 -2.7961,2.53043 -9.82378,3.95511 -13.33231,2.70278 l -1.6785,-0.59912 3.1688,-0.0328 c 2.09575,-0.0217 3.92792,-0.32127 5.41055,-0.88462 2.71398,-1.03124 5.57817,-2.94975 5.41004,-3.6238 -0.0674,-0.27028 -3.5842,-3.57207 -7.81508,-7.33732 -4.23087,-3.76523 -7.6022,-6.93618 -7.49184,-7.04654 0.11035,-0.11036 3.51508,2.35303 7.56604,5.47421 8.29044,6.38758 10.60717,7.65377 15.72271,8.59308 6.41966,1.17876 12.47673,-0.59269 17.17707,-5.02361 2.58258,-2.43455 5.36631,-6.24346 4.87549,-6.67103 -0.17,-0.14809 -1.56017,-0.70085 -3.08928,-1.22836 l -2.78019,-0.95909 -2.48562,2.47472 c -4.54627,4.52633 -9.39292,6.22397 -14.7419,5.16366 l -2.85605,-0.56615 3.36314,-0.2669 c 2.17825,-0.17288 4.1037,-0.61322 5.4651,-1.24986 2.39115,-1.11818 7.05007,-5.59708 6.85542,-6.59052 -0.0889,-0.45357 -5.23807,-2.5056 -16.5158,-6.58182 -9.01266,-3.25753 -16.10679,-5.97462 -15.76473,-6.03797 0.34207,-0.0634 6.95937,1.4102 14.7051,3.27456 17.77975,4.27949 20.09626,4.69629 26.27454,4.72739 7.50949,0.0378 11.64924,-1.28412 15.8193,-5.05152 2.33237,-2.10716 4.60488,-6.90952 4.87765,-10.30765 l 0.21711,-2.70469 -2.63633,-0.27555 c -4.75296,-0.49678 -5.45575,-0.40554 -5.45575,0.70829 0,1.57598 -2.4261,5.99122 -4.09933,7.46034 -1.90712,1.67447 -5.17677,3.19672 -7.67167,3.5717 l -1.89176,0.28433 1.89176,-1.35639 c 1.04048,-0.74601 2.33393,-1.85826 2.87435,-2.47167 1.62922,-1.84924 3.00258,-5.15296 3.00704,-7.23363 l 0.004,-1.91443 -27.43062,-2.2229 c -15.08685,-1.2226 -28.28192,-2.35116 -29.32239,-2.50792 -2.29953,-0.34645 -2.68027,-1.44114 -1.12864,-3.24501 1.01261,-1.17723 1.05892,-1.18624 7.69488,-1.49543 16.63626,-0.77515 25.41175,-2.95739 31.54929,-7.84553 2.26654,-1.80514 4.6254,-4.56736 4.23435,-4.95841 -0.12486,-0.12486 -1.14441,0.2372 -2.26568,0.80458 -3.14709,1.59247 -8.98956,3.5411 -13.06351,4.35705 -2.65838,0.53243 -5.75051,0.74228 -11.06877,0.7512 l -7.37987,0.0124 -0.82375,1.26118 c -0.68511,1.04893 -1.14407,1.28214 -2.72709,1.38573 -2.78946,0.18255 -8.06616,-2.55049 -11.49664,-5.95461 -3.71228,-3.68375 -5.80886,-7.85603 -6.04572,-12.03119 -0.27118,-4.7803 0.79647,-9.85146 3.46451,-16.45578 4.6577,-11.52945 4.69421,-14.29651 0.33712,-25.55445 -4.01836,-10.38272 -3.74411,-12.301 3.0764,-21.518 7.87203,-10.63798 12.56462,-19.26468 15.74086,-28.93741 3.35605,-10.2203 5.05949,-23.73181 3.84582,-30.50466 -0.2916,-1.6273 -0.31791,-1.57555 -0.81512,1.60317 -1.88665,12.06159 -12.82626,30.70276 -29.62399,50.4795 -3.27645,3.85751 -5.43182,7.95325 -6.44602,12.24903 -0.87305,3.69793 -0.59027,9.11541 0.87714,16.80409 0.57368,3.0058 1.45764,7.64063 1.96436,10.29962 0.62557,3.28256 0.92898,6.52141 0.94517,10.08942 0.021,4.63105 -0.0923,5.51202 -0.95443,7.42061 -1.18687,2.62754 -2.17004,3.59709 -4.90927,4.84129 -1.88061,0.85419 -2.98502,0.97926 -10.71478,1.21334 -5.68185,0.17207 -9.04774,0.44979 -9.87923,0.81515 -1.23609,0.54315 -1.19427,0.56453 2.10197,1.07525 5.98142,0.92675 10.5987,2.41558 14.39988,4.64322 1.41992,0.83212 1.75477,1.2046 1.30782,1.45472 -0.33042,0.18492 -4.85112,1.03234 -10.046,1.88316 -10.30402,1.68761 -12.17789,2.22485 -12.17789,3.49139 0,0.91807 0.68056,1.1608 4.43169,1.58059 3.75457,0.42018 3.91604,0.63489 1.82407,2.42554 -2.66152,2.27816 -5.85016,3.62521 -9.88313,4.17515 l -3.54444,0.48332 0.32787,1.27141 c 0.52811,2.04798 0.39439,7.26001 -0.20153,7.85515 -0.42533,0.42477 -0.66936,0.32547 -1.24148,-0.50516 -2.32463,-3.37504 -6.95889,-5.86832 -11.51314,-6.19417 -1.60799,-0.11505 -2.90111,-0.0376 -2.90111,0.17371 0,0.2097 0.64796,0.73023 1.43991,1.15672 2.04448,1.10103 3.33161,2.59472 4.87886,5.66185 1.52977,3.03249 2.49744,6.30497 2.50387,8.46765 0.004,1.42452 -0.0507,1.47515 -1.72382,1.5901 -4.33495,0.29782 -6.46767,3.26629 -5.20499,7.24466 0.30475,0.96018 1.04892,1.12633 1.04892,0.23419 0,-0.70404 1.95531,-2.34267 2.79542,-2.34267 0.31904,0 1.27694,0.63863 2.12867,1.41919 l 1.5486,1.41919 -1.32261,2.6866 c -1.58301,3.21555 -4.24865,6.10212 -7.68777,8.32493 -4.6882,3.03013 -7.67211,2.71588 -11.91706,-1.25507 -2.84747,-2.66366 -4.06896,-3.04998 -6.35311,-2.00926 -1.02429,0.4667 -1.25637,0.33221 -3.90841,-2.26494 -3.25437,-3.18701 -4.10052,-3.69632 -6.14092,-3.69632 -1.15499,0 -1.97855,0.42373 -3.70608,1.90679 -1.2216,1.04874 -2.45756,2.09667 -2.74658,2.32874 -1.21291,0.9739 -0.3941,4.23627 1.39502,5.55822 l 1.02224,0.75532 v -1.30844 c 0,-2.39045 0.47877,-2.76645 3.3725,-2.64855 2.71967,0.11081 5.3017,1.10102 6.03934,2.31611 0.32037,0.52772 0.20164,1.17669 -0.46144,2.52235 -0.87789,1.78159 -1.14495,3.38626 -1.02406,6.15319 0.0575,1.3149 1.94651,3.8563 2.86643,3.8563 0.19119,0 0.34763,-0.96227 0.34763,-2.13837 0,-1.82173 0.17466,-2.28859 1.17952,-3.15294 1.56539,-1.34649 2.26215,-1.2782 4.41415,0.43262 0.99557,0.79147 2.3671,1.54635 3.04784,1.67749 0.68075,0.13115 1.82651,0.35273 2.54615,0.49242 1.72025,0.33392 4.57707,2.92565 4.57707,4.15237 0,1.38353 -1.47245,3.0265 -3.23315,3.60759 -1.43347,0.47308 -1.4849,0.54686 -0.75386,1.08141 2.65531,1.94161 8.61133,-1.62367 8.61133,-5.15475 0,-1.75509 -0.91034,-3.64166 -2.20467,-4.5689 l -0.94828,-0.67934 1.26118,-1.02676 c 0.69365,-0.56473 1.86674,-1.228 2.60687,-1.47395 1.71189,-0.56888 2.49169,-0.16715 5.80098,2.98845 4.17008,3.97642 5.34458,4.60344 8.62281,4.60344 1.61623,0 4.56691,-0.44056 6.87916,-1.02711 l 4.04898,-1.0271 2.2274,1.01973 c 3.7616,1.72212 10.22882,2.24784 14.49136,1.17801 l 0.99186,-0.24894 -0.29784,5.09188 c -0.25139,4.29796 -0.18512,5.387 0.42506,6.98473 1.29845,3.39995 4.93836,5.68529 9.05506,5.68529 h 1.78468 l -0.29447,-1.57647 c -0.16196,-0.86706 -0.3249,-1.5902 -0.36208,-1.60698 -0.0372,-0.0168 -0.9189,-0.35298 -1.95937,-0.7471 -3.39264,-1.28512 -4.75682,-2.92017 -1.45528,-1.74426 0.91601,0.32626 2.09764,0.6015 2.62584,0.61165 0.89918,0.0173 0.94584,-0.10877 0.73242,-1.97841 -0.50504,-4.42448 -1.07444,-12.00399 -0.91384,-12.16458 0.0941,-0.0941 0.30454,0.54712 0.46762,1.42496 0.5089,2.73931 3.55665,11.43415 5.04142,14.3825 1.54543,3.0688 4.15826,5.7511 5.9979,6.15735 0.64167,0.1417 1.35586,0.33135 1.58707,0.42144 0.78646,0.30643 4.63189,-0.21934 6.66104,-0.91074 z M 316.95462,463.70662 c -0.33502,-0.80183 -0.60816,-1.8896 -0.60696,-2.41726 0.002,-0.90395 0.16807,-0.96004 2.87336,-0.97067 2.02566,-0.008 3.2062,-0.2308 4.00881,-0.75668 l 1.13761,-0.7454 -1.66725,-1.89409 c -1.56091,-1.7733 -2.99156,-4.87676 -2.99156,-6.48952 0,-0.52568 -0.50978,-0.77863 -1.97358,-0.97927 -1.82586,-0.25026 -2.08028,-0.168 -3.39901,1.09894 -2.00266,1.92401 -2.61548,3.30125 -2.61093,5.86779 0.005,2.57925 1.59904,5.79373 3.78713,7.63488 1.77352,1.49232 2.17142,1.39612 1.44238,-0.34872 z m 43.54521,-6.83442 c -0.2206,-1.20813 -0.69215,-2.75944 -1.04789,-3.44736 -1.03239,-1.99642 -0.87995,-2.13252 2.40105,-2.14359 3.84454,-0.0129 6.09184,-0.53094 9.55224,-2.20169 l 2.74425,-1.32497 -2.90474,-0.5393 c -3.4941,-0.64871 -4.97584,-1.50417 -4.79319,-2.76726 0.31599,-2.18506 5.36867,-3.85031 15.79049,-5.2042 3.06361,-0.39799 5.5702,-0.85017 5.5702,-1.00484 0,-0.46973 -6.31742,-2.78606 -9.60247,-3.52082 -1.69752,-0.37968 -4.86623,-0.80724 -7.04158,-0.95014 -2.17536,-0.14289 -3.95519,-0.40685 -3.95519,-0.58658 0,-0.44071 4.21987,-1.99416 6.3364,-2.33261 0.95551,-0.15279 1.54408,-0.43169 1.34054,-0.63523 -0.51494,-0.51494 -7.51439,-1.99867 -12.72165,-2.69672 -5.30145,-0.71067 -15.17503,-0.78037 -20.38905,-0.14394 -15.83098,1.93236 -29.19244,10.68048 -27.78353,18.19065 0.36086,1.92351 1.61933,2.78518 4.06774,2.78518 h 1.95128 l 0.25895,1.88917 c 0.57764,4.21438 3.99471,8.53475 7.50368,9.48727 3.50571,0.95164 6.85968,0.29575 12.34888,-2.4149 4.7171,-2.32938 5.10332,-2.44545 8.1371,-2.44545 3.8954,0 6.95868,1.32731 10.01818,4.34086 l 1.995,1.96503 0.3122,-1.05098 c 0.1717,-0.57804 0.1317,-2.03945 -0.0889,-3.24758 z m 64.13492,-2.00657 c 0.52129,-0.79558 0.61689,-1.52524 0.39433,-3.00943 -0.52066,-3.47202 -0.75514,-3.77423 -3.14831,-4.05766 -2.84563,-0.33703 -6.98536,-2.40878 -11.31624,-5.66327 -1.93724,-1.45576 -3.58741,-2.58168 -3.66704,-2.50205 -0.31263,0.31263 0.82028,3.58426 2.03844,5.88662 2.45124,4.63295 9.99491,10.39601 13.60806,10.39601 1.03197,0 1.58448,-0.27753 2.09076,-1.05022 z m 14.83183,-1.70786 c 11.67116,-1.71385 19.76968,-5.04155 24.64022,-10.12472 1.79605,-1.87447 3.90604,-5.42861 3.47732,-5.85733 -0.10943,-0.10944 -1.38426,0.47099 -2.83294,1.28983 -9.33391,5.27584 -18.15947,7.64992 -29.85496,8.031 -8.01881,0.26129 -9.24864,0.43164 -9.24864,1.28109 0,0.35856 0.29457,1.66524 0.65461,2.90371 0.62239,2.14095 0.74135,2.27123 2.41726,2.64714 2.68274,0.60173 5.82693,0.55179 10.74713,-0.17072 z m -13.08525,-7.41883 c 0.77953,-0.64417 1.51595,-3.47057 1.21582,-4.66637 -0.21401,-0.85269 -0.67188,-1.14116 -2.47239,-1.55765 -3.51296,-0.81261 -12.33169,-3.73337 -15.31862,-5.07352 -1.50382,-0.67471 -2.81117,-1.22675 -2.90522,-1.22675 -0.0941,0 -0.17101,1.23346 -0.17101,2.74103 v 2.74103 l 2.83765,1.83004 c 7.92287,5.10959 14.47863,7.14184 16.81377,5.21219 z m 12.67817,-0.7644 c 7.6383,-0.67606 15.00447,-2.80662 21.90106,-6.33457 4.66422,-2.38598 7.78949,-4.83518 10.10905,-7.92222 1.54323,-2.05385 2.09569,-3.2401 1.34665,-2.89156 -0.17341,0.0807 -2.95666,1.43744 -6.18501,3.01501 -10.18099,4.97506 -17.73965,7.30626 -25.02914,7.71938 -3.56275,0.20191 -4.64402,0.41996 -5.60607,1.13055 -0.96039,0.70936 -1.75665,0.87072 -4.09883,0.8306 l -2.90688,-0.0498 v 2.23268 2.23268 l 1.78667,0.16092 c 3.39821,0.30607 3.90932,0.29879 8.6825,-0.12368 z m -4.38376,-6.02509 c 1.11147,-0.81273 0.97882,-2.7721 -0.34004,-5.02257 -1.08403,-1.84975 -1.20086,-1.92085 -3.5383,-2.15352 -10.15337,-1.01063 -15.8415,-2.30207 -19.76591,-4.48767 l -2.2145,-1.23331 -0.41544,1.09268 c -0.85874,2.25867 -1.35675,4.87044 -0.99274,5.20634 1.05566,0.9741 16.7424,6.27949 20.34073,6.87941 2.48188,0.41379 6.18104,0.26352 6.9262,-0.28136 z m 13.6417,-3.01475 c 6.93249,-1.67861 13.17933,-4.30844 20.69659,-8.71295 3.45792,-2.02607 3.69362,-2.2582 4.72855,-4.65675 0.59906,-1.38841 1.02421,-2.58939 0.94476,-2.66883 -0.0794,-0.0795 -2.1153,0.79701 -4.52413,1.94767 -8.90249,4.25263 -18.6038,6.75174 -26.71372,6.8816 -4.53169,0.0726 -4.72505,0.11389 -5.76033,1.23116 -0.617,0.66588 -1.51585,1.15608 -2.11982,1.15608 h -1.0486 l 1.23872,2.35485 c 0.6813,1.29517 1.23872,2.74001 1.23872,3.21076 0,0.81601 0.16521,0.8425 3.54453,0.5683 1.94949,-0.15817 5.44812,-0.74853 7.77473,-1.31189 z m -11.87526,-6.33497 c 1.43611,-1.0679 1.68793,-2.5806 0.74073,-4.44973 -1.43222,-2.82626 -1.52661,-2.86556 -6.8821,-2.86556 -5.53598,0 -10.82872,-0.55899 -14.53246,-1.53484 -4.51892,-1.19062 -4.09919,-1.31209 -5.18046,1.49926 -0.5371,1.39646 -0.85477,2.73605 -0.70594,2.97686 0.51034,0.82575 4.5198,2.59079 7.7249,3.40066 8.61607,2.17712 16.65766,2.59268 18.83533,0.97335 z m -44.18448,-1.24446 c 2.7292,-1.37276 3.39633,-2.2873 1.66852,-2.2873 -0.60652,0 -1.80464,-0.36232 -2.66249,-0.80516 -3.71191,-1.91617 -6.55466,-6.54257 -8.04176,-13.08745 -0.75669,-3.33027 -1.98469,-8.65297 -5.13591,-22.26116 -2.98059,-12.87136 -7.8337,-25.61177 -14.27826,-37.48335 -4.56601,-8.41108 -13.91049,-21.85235 -13.25029,-19.05946 0.10932,0.46243 0.32356,1.64345 0.47611,2.62449 0.17219,1.10737 1.09493,3.0202 2.43354,5.04471 3.14527,4.75692 8.63355,15.83583 11.17163,22.55162 4.26804,11.29329 7.08456,23.06628 8.25835,34.51965 0.87327,8.52117 1.30585,11.51896 2.30516,15.97492 0.46667,2.08094 0.96997,6.287 1.11844,9.34679 l 0.26994,5.56326 1.51195,0.25157 c 0.83157,0.13836 1.70113,0.32729 1.93234,0.41983 0.23122,0.0925 2.52289,0.11316 5.09259,0.0458 4.19946,-0.11007 4.92091,-0.24755 7.13014,-1.35877 z m -17.18607,-0.45598 c 0.50176,-1.30758 -0.68607,-12.47198 -1.74688,-16.41879 -1.72134,-6.4044 -5.69346,-14.04624 -6.59034,-12.67897 -0.51281,0.78178 -0.0397,5.41294 0.9173,8.97936 1.18169,4.40376 1.72318,8.22843 2.02336,14.2915 l 0.27048,5.46326 2.10196,0.48698 c 2.82702,0.65497 2.72384,0.65917 3.02412,-0.12334 z m -6.73492,-5.93015 c -0.34163,-6.84945 -1.2531,-12.35486 -2.81953,-17.03032 -1.31332,-3.92001 -5.76196,-13.34305 -6.29928,-13.34305 -0.17457,0 -0.40025,2.03365 -0.50151,4.51922 -0.17232,4.2294 -0.0928,4.81127 1.23937,9.07306 2.11111,6.75356 3.02501,11.29434 3.3274,16.53242 l 0.2708,4.69095 2.35501,0.4049 c 1.29525,0.2227 2.43152,0.42919 2.52505,0.45887 0.0935,0.0297 0.0497,-2.35804 -0.0973,-5.30605 z m 78.5407,4.9309 c 8.11363,-0.90541 14.0965,-2.54276 20.70212,-5.6656 5.75757,-2.72192 7.48515,-4.1086 8.95463,-7.18763 0.68316,-1.43143 1.24211,-2.71901 1.24211,-2.86129 0,-0.14229 -2.042,0.76539 -4.53777,2.01707 -7.77421,3.89891 -18.63096,6.53183 -27.93181,6.77387 -4.37372,0.11382 -6.00271,0.31002 -6.71473,0.80873 -0.51704,0.36216 -1.27633,0.65846 -1.68732,0.65846 -0.99224,0 -0.94483,0.27441 0.30386,1.75839 0.57811,0.68704 1.17477,1.75482 1.3259,2.37284 0.15115,0.61802 0.48215,1.26267 0.73557,1.43254 0.63606,0.42636 3.14135,0.391 7.60744,-0.10738 z m -94.4392,-1.40004 5.61425,0.0626 -0.26432,-1.32379 c -0.44885,-2.24801 -2.59326,-6.38449 -4.27458,-8.2455 -2.26998,-2.51261 -5.95688,-5.01769 -11.35634,-7.71611 -5.38025,-2.68882 -10.38389,-6.47432 -12.21825,-9.2437 -1.41032,-2.12919 -3.93093,-7.86378 -7.5192,-17.10677 -4.23739,-10.91506 -8.53275,-17.84001 -15.71438,-25.33461 -5.22622,-5.45399 -13.1952,-12.08638 -13.79791,-11.48367 -0.0847,0.0847 0.97322,1.73499 2.35094,3.6673 3.99472,5.6028 9.2622,14.44471 11.86037,19.90861 2.66404,5.60243 3.86903,9.06278 6.07531,17.4463 2.50501,9.51859 4.81339,14.83386 9.50354,21.88282 3.15862,4.74717 10.94078,12.72716 15.50826,15.90251 l 3.15295,2.19195 2.73255,-0.33528 c 1.5029,-0.18441 5.25897,-0.30711 8.34681,-0.27267 z m 9.8895,-0.43039 c 0.66736,-2.65898 -2.09506,-15.74954 -5.28953,-25.06598 -1.8509,-5.39804 -5.11901,-12.61178 -5.71364,-12.61178 -0.21299,0 -0.88872,2.51325 -1.50162,5.58501 l -1.11437,5.58502 1.21275,3.34832 c 0.667,1.84159 1.55645,4.86175 1.97655,6.71148 0.57843,2.54691 1.09821,3.74273 2.14165,4.92717 1.81792,2.06358 3.69867,5.84957 4.56315,9.18569 0.87305,3.36922 0.84853,3.33343 2.28369,3.33343 0.90284,0 1.25139,-0.24142 1.44137,-0.99836 z M 252.86619,411.35423 v -10.50982 h 1.05098 1.05098 v 10.50982 10.50981 h 2.94275 2.94275 v -10.50981 -10.50982 h 1.05098 1.05099 v 10.50982 10.50981 h 2.94274 2.94275 v -10.50981 -10.50982 h 1.05098 c 1.00428,0 1.05099,-0.11211 1.05099,-2.52236 0,-2.41024 -0.0467,-2.52235 -1.05099,-2.52235 h -1.05098 v -10.08943 -10.08942 h -3.99373 -3.99373 v -1.89177 -1.89176 h -2.94275 -2.94275 v 1.89176 1.89177 h -3.99373 -3.99373 v 10.08942 10.08943 h -1.05098 c -1.00427,0 -1.05098,0.11211 -1.05098,2.52235 0,2.41025 0.0467,2.52236 1.05098,2.52236 h 1.05098 v 10.50982 10.50981 h 2.94275 2.94275 z m 24.80317,-5.04471 v -15.55453 h 4.41412 4.41412 v 15.55453 15.55452 h 3.15295 3.15294 v -18.07688 -18.07689 h -10.72001 -10.72001 v 18.07689 18.07688 h 3.15294 3.15295 z m 234.57911,-5.04472 v -20.59924 h 2.94275 2.94275 v 20.59924 20.59924 h 3.15294 3.15295 V 401.2648 380.66556 h 2.94274 2.94275 v 20.59924 20.59924 h 3.15295 3.15294 V 401.2648 380.66556 h 2.94275 2.94275 v 20.59924 20.59924 h 3.15295 3.15294 v -23.12159 -23.1216 h -9.24864 -9.24864 v -1.89177 -1.89176 h -2.94275 -2.94274 v 1.89176 1.89177 h -9.24864 -9.24864 v 23.1216 23.12159 h 3.15294 3.15295 z m -74.92346,18.85162 c 2.35525,-1.16844 3.20669,-2.98983 2.61795,-5.60023 -0.4944,-2.19212 -0.9075,-2.50322 -2.59078,-1.95105 -3.83809,1.25903 -13.25935,1.35294 -21.81872,0.21751 l -1.95508,-0.25935 -0.28332,1.77175 c -0.15582,0.97447 -0.56097,2.30869 -0.90034,2.96495 -0.33936,0.65625 -0.47583,1.27394 -0.30326,1.37264 0.17256,0.0987 1.77911,0.50052 3.5701,0.89294 9.7005,2.12545 18.1079,2.35475 21.66345,0.59084 z m 11.05013,-1.19653 c 4.84939,-0.45987 14.582,-2.69635 19.04624,-4.37669 5.35418,-2.01531 9.24639,-4.32375 11.24029,-6.66653 3.21331,-3.77557 4.65515,-5.75495 4.50973,-6.19102 -0.0771,-0.23125 -1.18069,0.14971 -2.45238,0.8466 -9.83545,5.38979 -19.21582,9.09248 -25.68418,10.13826 -1.712,0.27679 -5.71134,0.51951 -8.88744,0.53937 -5.58712,0.0349 -5.76497,0.0634 -5.47476,0.8769 0.37288,1.04516 0.33047,3.05858 -0.0908,4.30902 -0.29818,0.88519 -0.20082,0.94587 1.51707,0.94554 1.00964,-2e-4 3.83391,-0.18985 6.27618,-0.42145 z M 437.54992,411.117 c 4.72898,-1.42372 5.99768,-3.93435 3.84466,-7.6082 -1.04799,-1.78826 -1.60191,-2.18363 -2.04802,-1.46181 -0.81737,1.32253 -10.50301,2.58096 -19.86467,2.58096 h -6.07661 l 0.26788,3.04784 c 0.14733,1.67632 0.33846,3.27505 0.42474,3.55273 0.21116,0.67961 3.81881,0.88154 13.23125,0.74059 5.93039,-0.0888 8.35752,-0.29116 10.22077,-0.85211 z m 12.58515,0.46926 c 11.4462,-1.41991 20.88928,-4.66707 31.08437,-10.68885 3.2504,-1.91987 3.60013,-2.26212 4.73258,-4.63147 0.67254,-1.40713 1.1133,-2.66793 0.97945,-2.80177 -0.13384,-0.13384 -1.18358,0.23309 -2.33275,0.81542 -8.7857,4.45205 -20.9775,7.94444 -32.4664,9.30012 -9.01694,1.064 -8.40786,0.89038 -8.40786,2.39663 0,1.4876 -1.74138,4.72918 -2.74805,5.11547 -1.27558,0.48948 -0.1334,1.1032 2.05315,1.1032 1.20903,0 4.40651,-0.27394 7.10551,-0.60875 z m -100.8247,-7.22941 c -1.08258,-3.20353 -2.68978,-7.5064 -3.57156,-9.56194 -1.98598,-4.62956 -6.38884,-12.06604 -6.85389,-11.5763 -0.0937,0.0987 -0.3768,2.54421 -0.62898,5.43441 l -0.45852,5.25491 2.40394,6.16576 c 2.37737,6.09759 2.42192,6.17169 4.02957,6.70227 0.89409,0.29507 2.78917,1.34689 4.21129,2.33738 1.42211,0.99048 2.64209,1.636 2.71106,1.43449 0.069,-0.20151 -0.76034,-2.98746 -1.84291,-6.19098 z m 23.38285,-2.32593 c -1.9951,-16.13698 -4.66395,-25.95096 -11.60063,-42.65821 -4.0358,-9.72038 -11.86747,-23.76235 -17.33103,-31.07406 -2.5031,-3.34982 -4.72763,-5.70913 -4.7001,-4.98487 0.10189,2.68099 1.44209,5.98972 4.41438,10.89839 4.34721,7.17932 10.89258,20.16217 13.35242,26.48474 5.537,14.23181 6.84795,18.70876 8.87157,30.29679 0.91452,5.2369 1.17447,6.06571 2.27042,7.23893 0.68071,0.72871 2.03554,2.85855 3.01073,4.73299 0.97519,1.87444 1.86841,3.31274 1.98493,3.19622 0.11652,-0.11652 -0.006,-1.97543 -0.27269,-4.13092 z m -31.96496,3.46287 c 0,-1.68914 -10.13227,-23.98706 -10.90007,-23.98761 -0.28141,-2.1e-4 -0.1284,9.975 0.21016,13.70095 0.21838,2.40336 0.37927,2.71912 2.62363,5.14893 1.31504,1.4237 3.51491,3.25107 4.8886,4.06081 2.61405,1.54088 3.17768,1.73189 3.17768,1.07692 z m 91.8558,-2.93434 c 4.14881,-0.84315 6.91401,-1.85442 8.38409,-3.06619 1.23679,-1.01947 1.49514,-1.50964 1.49514,-2.83681 0,-0.92178 -0.32369,-2.00412 -0.76079,-2.54392 -0.71983,-0.88896 -0.82814,-0.90469 -2.01243,-0.29227 -3.28732,1.69994 -16.9129,3.05896 -25.288,2.52223 -2.13874,-0.13707 -3.88863,-0.11855 -3.88863,0.0412 0,0.15969 0.35728,0.99222 0.79395,1.85007 0.43667,0.85785 1.04148,2.3882 1.34401,3.40077 l 0.55007,1.84105 8.64031,-0.24445 c 4.75217,-0.13446 9.5862,-0.43669 10.74228,-0.67164 z m 17.75939,-0.43613 c 6.33425,-0.93193 21.04183,-4.43513 25.75125,-6.13371 4.30125,-1.55136 10.46329,-4.66145 11.91459,-6.0135 1.28965,-1.20145 2.79915,-3.83293 2.79915,-4.87968 0,-0.49365 -0.48286,-0.64733 -2.03388,-0.64733 -1.56582,0 -2.8961,0.43063 -5.7804,1.87119 -4.49779,2.24642 -9.63433,3.96874 -16.28395,5.46013 -6.54071,1.46696 -15.6923,2.74338 -19.7277,2.75153 l -3.25805,0.007 v 1.94723 c 0,1.66565 -0.2044,2.14001 -1.41358,3.2804 l -1.41357,1.33317 1.30848,0.8974 c 1.62859,1.11694 1.42756,1.11381 8.13766,0.1266 z m -84.86837,-4.11656 c -0.30786,-4.50234 -2.26301,-14.60101 -3.95871,-20.44742 -6.13731,-21.16007 -23.69895,-53.54266 -36.58532,-67.46114 -1.52834,-1.65075 -2.94353,-3.00135 -3.14489,-3.00135 -0.36034,0 0.30128,1.74219 2.07547,5.4651 0.49585,1.04047 2.76806,4.42354 5.04937,7.51792 6.93155,9.40203 16.65123,25.88082 19.84068,33.63799 4.89913,11.91532 7.97752,21.42014 9.61276,29.68026 0.69773,3.52445 1.39747,5.58149 2.94203,8.64871 1.11461,2.21342 2.46385,5.38213 2.99831,7.04158 0.53446,1.65945 1.07948,3.01718 1.21116,3.01718 0.13167,0 0.11329,-1.84447 -0.0409,-4.09883 z m -7.75324,-2.10523 c 0.51485,-1.62214 0.30327,-8.45234 -0.35475,-11.45243 -1.74814,-7.97013 -7.33895,-24.51188 -10.72743,-31.73965 -2.51633,-5.36745 -9.97585,-18.75283 -12.75435,-22.88644 -5.48569,-8.16114 -16.50142,-22.18504 -21.26998,-27.07837 -3.84166,-3.94218 -8.25534,-7.83918 -8.87854,-7.83918 -0.94102,0 5.25729,11.71985 9.17912,17.35599 11.30336,16.2443 23.7001,36.26492 28.42934,45.9131 4.78322,9.75831 6.37955,13.82633 8.41326,21.44003 1.05195,3.93824 1.88956,6.23322 2.53163,6.93648 1.2319,1.34929 2.84436,4.59752 3.80855,7.67217 0.78402,2.50009 1.21943,2.9503 1.62315,1.6783 z m -8.39003,-4.82579 c 0.44529,-2.52865 0.61042,-4.77842 0.43197,-5.8855 -0.72599,-4.5042 -6.39391,-20.27108 -9.54741,-26.55877 -1.85265,-3.69396 -11.64944,-20.182 -14.89514,-25.06857 -11.79634,-17.76004 -17.31331,-25.41572 -22.55635,-31.30057 -8.00215,-8.98169 -14.02632,-15.18476 -14.3967,-14.82423 -0.1751,0.17046 0.79443,3.38646 2.15451,7.14668 1.89079,5.22745 2.82814,7.23259 3.98213,8.51834 2.81756,3.13925 8.20534,10.06688 13.07794,16.8157 13.33849,18.47451 25.43657,40.97823 30.83803,57.36198 0.71508,2.16899 1.85235,4.47735 2.9212,5.92929 0.96264,1.30765 2.86943,4.67003 4.23731,7.47195 1.36788,2.80192 2.60959,4.95775 2.75936,4.79074 0.14977,-0.16702 0.59668,-2.14569 0.99315,-4.39704 z m 75.23137,3.88002 c 13.28111,-0.86015 17.73267,-2.53165 18.56552,-6.97111 0.31893,-1.70008 -0.62047,-4.22416 -1.73071,-4.6502 -0.35538,-0.13637 -1.76683,0.25499 -3.13655,0.86968 -4.40207,1.97553 -12.80923,3.63347 -21.44211,4.22852 -1.96533,0.13546 -4.76715,0.35134 -6.22624,0.47972 l -2.65291,0.23342 0.28845,1.31332 c 0.15865,0.72233 0.63633,2.12488 1.0615,3.11676 l 0.77304,1.80344 4.11377,-0.009 c 2.26257,-0.005 6.93638,-0.19147 10.38624,-0.41489 z m 34.29542,-2.95462 c 6.47684,-1.10971 15.00966,-3.26735 19.75845,-4.99621 6.74608,-2.45599 13.73331,-8.24425 17.3412,-14.36554 0.86706,-1.47109 1.57648,-2.89662 1.57648,-3.16785 0,-0.74312 -5.76122,0.8514 -7.32881,2.02838 -5.32405,3.99739 -12.74547,8.15549 -18.10495,10.1439 -7.20805,2.67423 -17.43728,5.06729 -23.80684,5.56945 l -3.62798,0.28601 -0.48316,1.61264 c -0.26574,0.88696 -0.8861,1.89487 -1.37857,2.23981 -0.78271,0.54823 -0.82142,0.71631 -0.30763,1.3354 0.51518,0.62075 1.23743,0.67773 5.84734,0.4613 2.89276,-0.13582 7.62427,-0.6521 10.51447,-1.14729 z m -130.57798,-5.76537 -0.26722,-6.62119 -4.54392,-9.24864 c -2.69665,-5.48871 -6.90561,-13.07249 -10.35318,-18.65453 -8.30924,-13.45366 -25.73364,-36.39111 -26.81955,-35.3052 -0.0993,0.0993 1.70212,3.57874 4.00316,7.73208 3.83697,6.92568 6.98906,14.01899 9.47791,21.32862 0.87329,2.56483 1.47077,3.37703 6.03046,8.19766 2.78363,2.94293 5.88585,6.45379 6.89382,7.80192 4.85718,6.49633 10.577,17.58483 13.69845,26.55594 0.72405,2.08095 1.4004,4.02001 1.503,4.30903 0.52387,1.47577 0.61995,-0.0775 0.37707,-6.09569 z m 9.03324,0.21019 0.48441,-4.30902 -1.846,-5.46511 c -4.72914,-14.00072 -6.23293,-17.3884 -13.80602,-31.10147 -5.58047,-10.1049 -12.92011,-21.06379 -21.96908,-32.80226 -6.3414,-8.22616 -14.76242,-17.76071 -15.25309,-17.27004 -0.21671,0.21672 5.67464,13.40035 11.0068,24.63096 4.16197,8.76594 5.52388,11.13463 12.08549,21.01963 9.3779,14.1277 11.16515,17.14298 16.57045,27.95611 2.4272,4.85554 5.02442,9.51367 5.7716,10.35141 0.74718,0.83774 2.39288,3.71765 3.65711,6.39982 1.26423,2.68216 2.41455,4.88169 2.55626,4.88783 0.14171,0.006 0.47564,-1.92789 0.74207,-4.29786 z m 84.06028,0.0969 c 7.38284,-1.06477 12.4532,-2.33837 15.68776,-3.94052 3.36346,-1.66601 4.35078,-2.99545 4.34921,-5.85627 -0.002,-3.78824 -0.0531,-3.8141 -4.21387,-2.13634 -5.40949,2.18128 -12.69234,3.9184 -19.53712,4.66002 -3.35263,0.36326 -6.49972,0.91069 -6.99353,1.21653 -1.24023,0.76812 -2.6755,3.8996 -2.6755,5.8374 v 1.60916 l 3.88863,-0.29075 c 2.13875,-0.15991 6.41123,-0.65456 9.49442,-1.09923 z m 28.99099,-0.65057 c 6.08565,-0.90364 14.69576,-3.12631 19.45444,-5.02211 13.20946,-5.26249 25.40926,-13.54332 30.13275,-20.45315 2.30667,-3.37435 6.83104,-11.88363 6.83104,-12.84759 0,-1.49663 -1.11492,-1.19532 -5.6978,1.53986 -3.57224,2.132 -4.54794,2.96779 -6.69723,5.73687 -8.51817,10.97457 -23.74876,19.36 -44.98857,24.7691 -3.46824,0.88325 -6.47211,1.75116 -6.67528,1.92869 -0.20316,0.17753 0.0202,0.81811 0.49643,1.42349 0.4762,0.60539 0.98851,1.65935 1.13848,2.34214 0.31914,1.45304 0.2134,1.44277 6.00574,0.5827 z m -157.56164,-7.74911 v -2.52236 h -3.78353 -3.78353 v -1.89177 -1.89176 h -3.15295 -3.15294 v 1.89176 1.89177 h -3.78354 -3.78353 v 2.52236 2.52235 h 10.72001 10.72001 z m 159.38656,-0.87561 c 12.44266,-3.9409 16.47886,-5.46622 22.01569,-8.31994 9.14405,-4.71291 13.84387,-8.49115 18.95097,-15.23491 6.89402,-9.10332 9.93004,-14.69679 12.52407,-23.07391 2.2354,-7.21902 3.88792,-16.42847 2.93823,-16.37469 -0.20035,0.0114 -2.55054,2.70711 -5.22266,5.9906 -3.34913,4.11539 -5.80223,7.6677 -7.89667,11.43507 -3.87047,6.96201 -8.83901,13.67888 -13.69575,18.51499 -3.67743,3.6618 -11.87394,10.45966 -15.79866,13.10276 -4.54704,3.06222 -15.71944,7.98675 -21.29134,9.38472 l -2.16348,0.54282 -0.18922,2.76934 c -0.10406,1.52314 -0.33309,3.10041 -0.50895,3.50503 -0.22386,0.51509 -0.13137,0.73569 0.30846,0.73569 0.34551,0 4.8587,-1.3399 10.02931,-2.97757 z m -32.84836,0.2218 c 10.03092,-1.65279 17.21201,-4.15789 20.56775,-7.17498 2.30134,-2.0691 3.19723,-4.07189 2.74417,-6.13467 -0.32413,-1.47572 -2.18877,-4.53382 -2.76446,-4.53382 -0.19825,0 -1.57332,0.83037 -3.05573,1.84526 -3.33421,2.2827 -8.16722,4.17904 -13.28642,5.21325 l -3.90157,0.78822 -1.15874,2.48762 c -1.16775,2.50693 -1.95316,3.69352 -4.56422,6.89553 l -1.42548,1.7481 1.42548,-0.23823 c 0.78402,-0.13103 3.22267,-0.53435 5.41922,-0.89628 z m 29.33686,-7.58858 c 13.66691,-5.37366 22.59609,-11.21574 31.75674,-20.77745 6.91613,-7.21894 9.41965,-10.47074 13.17466,-17.11251 5.59962,-9.90448 10.07863,-21.50186 11.50326,-29.78511 0.96857,-5.63154 1.64381,-17.70287 0.96685,-17.28449 -0.23051,0.14246 -1.8016,2.34989 -3.49131,4.9054 -2.88209,4.35886 -3.15972,4.98806 -4.48661,10.16823 -3.0991,12.09885 -8.70743,23.07382 -17.72515,34.68644 -5.72849,7.37689 -24.21908,22.45431 -33.49058,27.30856 l -2.21911,1.16185 -0.21173,2.63771 c -0.12879,1.60448 -0.56046,3.22877 -1.10201,4.14662 -0.48965,0.8299 -0.89027,1.59269 -0.89027,1.69508 0,0.50182 1.71738,0.0182 6.21526,-1.75033 z m -23.24117,-5.36806 c 4.75316,-1.23343 6.22547,-1.86132 9.7694,-4.16634 6.17977,-4.01939 8.37985,-7.80056 6.86187,-11.79316 -1.02637,-2.69954 -4.48377,-3.77256 -6.16139,-1.91223 -0.44047,0.48844 -2.52895,2.18794 -4.64108,3.77666 -2.91936,2.19592 -3.99811,3.28316 -4.49859,4.53398 -0.68345,1.7081 -3.75117,7.38747 -5.07942,9.40368 -0.915,1.38892 -0.98518,1.38597 3.74921,0.15741 z m 26.65166,-8.01343 c 22.1865,-14.90605 31.46537,-24.70231 38.48326,-40.62907 1.49798,-3.3996 3.47075,-8.42416 4.38393,-11.16569 2.66506,-8.00101 5.67531,-22.97682 6.20909,-30.88986 l 0.26595,-3.94262 -1.21258,1.08468 c -0.66693,0.59657 -3.38812,2.97865 -6.04711,5.29351 -2.65898,2.31487 -5.05156,4.47523 -5.31685,4.80082 -0.26529,0.32559 -1.09652,3.14587 -1.84718,6.26729 -5.18281,21.55132 -16.52636,40.09284 -30.67131,50.13362 -2.19655,1.55922 -6.19317,3.96559 -8.88137,5.34748 l -4.88764,2.51253 0.99901,1.9733 c 0.54945,1.08531 0.99901,2.40755 0.99901,2.93833 0,1.42102 -1.21629,4.75651 -2.33458,6.40222 l -0.9765,1.43705 1.31907,1.57116 c 1.21561,1.44794 1.41626,1.53729 2.55814,1.13923 0.68149,-0.23757 3.81243,-2.16086 6.95766,-4.27398 z m -19.10686,-9.88737 c 5.44914,-4.45267 8.64032,-8.61083 8.64032,-11.25852 0,-1.41245 -1.05119,-3.05303 -1.9562,-3.05303 -0.35604,0 -2.03203,1.08776 -3.72443,2.41725 -2.88602,2.26718 -3.10849,2.56082 -3.58306,4.72942 -0.27829,1.27169 -1.05087,3.85773 -1.71684,5.74675 -0.66597,1.88903 -1.21086,3.54432 -1.21086,3.67844 0,0.53173 0.60704,0.14534 3.55107,-2.26031 z m 13.89523,-5.47457 c 12.58901,-6.33686 20.85871,-14.5973 29.23446,-29.20169 4.29695,-7.4924 6.90753,-14.16837 9.38743,-24.00626 1.17461,-4.65971 3.35821,-16.57507 3.0872,-16.84608 -0.0957,-0.0957 -0.66162,0.76601 -1.25767,1.91486 -1.47218,2.83758 -6.24394,9.05731 -12.74721,16.61533 l -5.41125,6.28888 -1.74445,5.27192 c -5.11515,15.45854 -11.3237,25.06195 -23.28106,36.01129 -1.04048,0.95275 -2.93224,2.92335 -4.20393,4.3791 l -2.31216,2.64682 2.10196,-0.26742 c 1.33252,-0.16952 3.94865,-1.19697 7.14668,-2.80675 z m -8.46082,-10.47612 c 3.09321,-2.91991 6.89738,-8.23807 8.73107,-12.20587 2.51464,-5.44126 3.04155,-7.864 3.06893,-14.11111 0.0225,-5.12799 -0.0484,-5.6196 -1.14886,-7.96972 -1.19115,-2.54377 -3.04343,-5.27308 -3.57799,-5.27212 -0.16165,2.9e-4 -0.30405,2.79065 -0.31644,6.2008 -0.018,4.95493 -0.21128,6.9596 -0.96227,9.98088 -1.56489,6.29571 -6.40752,15.4325 -9.89989,18.67857 -1.03239,0.95958 -1.09649,1.25128 -1.09649,4.98951 v 3.97034 l 1.57647,-1.16354 c 0.86706,-0.63995 2.49852,-2.03393 3.62547,-3.09774 z m 10.24768,-0.20491 c 4.72087,-4.90138 9.43893,-11.66835 12.63683,-18.12461 3.45921,-6.98383 7.08336,-19.24889 8.32242,-28.16525 0.26722,-1.92287 0.23306,-2.05201 -0.40314,-1.52402 -0.3823,0.31728 -4.38351,5.15801 -8.89157,10.75717 l -8.19649,10.1803 v 2.52198 c 0,5.58275 -3.36492,14.18909 -8.16159,20.87467 l -2.31092,3.22093 1.03232,1.03233 c 0.64422,0.64421 1.03233,1.51367 1.03233,2.31262 0,0.70415 0.1652,1.28028 0.3671,1.28028 0.20191,0 2.25962,-1.96488 4.57271,-4.3664 z"
       id="path68664"
       transform="matrix(0.75000002,0,0,-0.75000002,0,595.27601)" />
    <path
       style="fill:#ffffff;stroke-width:0.297263"
       d="m 385.16802,544.26961 c -1.00069,-0.70091 -1.55075,-2.01253 -1.55075,-3.69774 0,-2.51404 1.24604,-4.16167 3.14731,-4.16167 1.93369,0 3.39246,2.07417 3.39246,4.82362 0,1.29356 -0.13229,1.73301 -0.66884,2.22171 -1.4803,1.3483 -3.11712,1.65673 -4.32018,0.81408 z"
       id="path68666"
       transform="matrix(0.75000002,0,0,-0.75000002,0,595.27601)" />
  </g>
</svg>
