<?xml version="1.0" encoding="UTF-8" standalone="no"?>
<!-- Created with Inkscape (http://www.inkscape.org/) -->

<svg
   version="1.1"
   id="svg73231"
   width="377.95334"
   height="377.95334"
   viewBox="0 0 377.95334 377.95334"
   sodipodi:docname="한양대학교.svg"
   inkscape:version="1.2.1 (9c6d41e410, 2022-07-14)"
   xmlns:inkscape="http://www.inkscape.org/namespaces/inkscape"
   xmlns:sodipodi="http://sodipodi.sourceforge.net/DTD/sodipodi-0.dtd"
   xmlns="http://www.w3.org/2000/svg"
   xmlns:svg="http://www.w3.org/2000/svg">
  <defs
     id="defs73235">
    <clipPath
       clipPathUnits="userSpaceOnUse"
       id="clipPath73247">
      <path
         d="M 0,283.465 H 283.465 V 0 H 0 Z"
         id="path73245" />
    </clipPath>
  </defs>
  <sodipodi:namedview
     id="namedview73233"
     pagecolor="#ffffff"
     bordercolor="#000000"
     borderopacity="0.25"
     inkscape:showpageshadow="2"
     inkscape:pageopacity="0.0"
     inkscape:pagecheckerboard="true"
     inkscape:deskcolor="#d1d1d1"
     showgrid="false"
     inkscape:zoom="2.4976628"
     inkscape:cx="33.231067"
     inkscape:cy="191.77929"
     inkscape:window-width="2560"
     inkscape:window-height="1494"
     inkscape:window-x="-11"
     inkscape:window-y="-11"
     inkscape:window-maximized="1"
     inkscape:current-layer="g73239">
    <inkscape:page
       x="0"
       y="0"
       id="page73237"
       width="377.95334"
       height="377.95334" />
  </sodipodi:namedview>
  <g
     id="g73239"
     inkscape:groupmode="layer"
     inkscape:label="Page 1"
     transform="matrix(1.3333333,0,0,-1.3333333,0,377.95333)">
    <g
       id="g73241"
       inkscape:export-filename="..\..\OneDrive\바탕 화면\잉스케이프-로고\한양대학교.png"
       inkscape:export-xdpi="96.41642"
       inkscape:export-ydpi="96.41642">
      <g
         id="g73243"
         clip-path="url(#clipPath73247)">
        <g
           id="g73249"
           transform="translate(3.7368,141.7271)">
          <path
             d="m 0,0 c 0,76.008 61.835,137.834 137.837,137.834 75.995,0 137.825,-61.826 137.825,-137.834 0,-76.004 -61.83,-137.831 -137.825,-137.831 C 61.835,-137.831 0,-76.004 0,0 m -1.067,0 c 0,-76.587 62.313,-138.894 138.904,-138.894 76.583,0 138.891,62.307 138.891,138.894 0,76.588 -62.308,138.904 -138.891,138.904 C 61.246,138.904 -1.067,76.588 -1.067,0"
             style="fill:#004583;fill-opacity:1;fill-rule:nonzero;stroke:none"
             id="path73251" />
        </g>
        <g
           id="g73253"
           transform="translate(197.4492,185.9077)">
          <path
             d="M 0,0 V -4.646 H 8.635 C 8.631,-5.649 8.6,-21.202 8.6,-22.208 h -8.895 v -23.115 h 8.86 c 0,-1.009 0.03,-16.784 0.03,-17.792 -1.074,0.008 -58.291,0.101 -59.358,0.101 v 4.064 h -4.558 v -4.165 h -40.558 c -7.922,0 -15.554,3.498 -19.903,9.132 -3.737,4.369 -5.963,10.027 -5.963,15.133 0,6.801 1.731,11.954 5.445,16.216 l 0.792,0.913 c 0,0 -3.679,-0.012 -4.488,-0.016 v 17.091 h 34.062 v 4.567 h 19.313 v -4.567 h 46.994 v 4.605 C -18.613,-0.038 -1.014,-0.005 0,0 m -20.724,1.055 v -4.602 h -44.795 v 4.568 h -21.516 v -4.568 h -34.058 v -19.288 c 0,0 2.192,0.003 3.306,0.006 -3.393,-4.294 -5.055,-9.398 -5.055,-16.021 0,-5.362 2.321,-11.283 6.21,-15.826 4.541,-5.874 12.499,-9.537 20.753,-9.537 h 41.652 v 4.167 h 2.368 V -64.11 L 9.696,-64.213 9.662,-44.228 H 0.801 v 20.923 H 9.696 L 9.737,-3.547 H 1.104 v 4.649 z"
             style="fill:#004583;fill-opacity:1;fill-rule:nonzero;stroke:none"
             id="path73255" />
        </g>
        <g
           id="g73257"
           transform="translate(181.2852,163.146)">
          <path
             d="M 0,0 H -4.401 V -4.303 H 0 v -2.993 h -4.401 v -13.496 h -0.012 c -0.04,-4.573 -4.975,-8.298 -11.181,-8.298 -6.203,0 -11.14,3.725 -11.176,8.298 0.036,4.577 4.973,8.296 11.176,8.296 2.215,0 4.273,-0.475 5.997,-1.297 V 7.386 h 5.196 V 2.999 l 4.401,0 z m -31.662,-1.609 c 0,4.643 4.449,8.415 10.303,8.415 5.886,0 10.324,-3.772 10.324,-8.415 0,-4.661 -4.438,-8.421 -10.324,-8.421 -5.854,0 -10.303,3.76 -10.303,8.421 m -15.961,-2.694 h -4.232 v -12.723 h -5.189 V 7.386 h 5.189 v -8.701 h 4.232 z m -3.895,-23.8 -17.797,0.018 c -3.673,0 -5.935,2.121 -5.935,5.6 v 6.925 h 5.638 v -9.546 h 18.094 z M -79.22,-5.521 c 0,2.303 1.347,4.343 3.522,5.675 h -3.597 v 2.997 h 19.091 V 0.154 h -3.602 c 2.163,-1.332 3.509,-3.372 3.509,-5.675 0,-4.004 -4.075,-7.257 -9.461,-7.257 -5.386,0 -9.462,3.253 -9.462,7.257 m 4.396,12.907 h 10.16 V 4.398 h -10.16 z M 21.35,3.39 v 11.332 h -8.729 v 4.419 H -0.146 v -4.419 h -53.551 v 4.419 h -12.767 v -4.419 h -33.614 V 3.39 h 10.114 c -7.013,-3.061 -11.536,-9.747 -11.536,-19.517 0,-13.112 12.33,-20.577 22.258,-20.577 h 37.076 v 3.985 h 10.494 v -3.985 H 21.35 v 11.33 H 12.621 V 3.39 Z m -36.944,-18.754 c -3.154,0 -6,-2.037 -6,-5.428 0,-3.354 2.846,-5.416 6,-5.416 3.164,0 5.997,2.062 5.997,5.416 0,3.391 -2.833,5.428 -5.997,5.428 m -49.565,9.843 c 0,2.988 -2.051,5.244 -4.599,5.244 -2.536,0 -4.594,-2.256 -4.594,-5.244 0,-3.04 2.058,-5.246 4.594,-5.246 2.548,0 4.599,2.206 4.599,5.246 m 48.824,3.912 c 0,3.492 -2.25,5.832 -5.024,5.832 -2.758,0 -5.008,-2.34 -5.008,-5.832 0,-3.585 2.257,-5.856 5.008,-5.856 2.78,0 5.024,2.271 5.024,5.856"
             style="fill:#004583;fill-opacity:1;fill-rule:nonzero;stroke:none"
             id="path73259" />
        </g>
        <g
           id="g73261"
           transform="translate(228.3125,218.0815)">
          <path
             d="M 0,0 C 1.418,1.324 1.907,2.842 0.59,4.364 0.333,4.644 0.007,4.944 -0.221,5.052 L -5.246,0.385 -4.704,-0.186 C -3.387,-1.606 -1.48,-1.367 0,0 m 1.517,-139.719 c -2.052,-0.312 -3.494,-2.219 -3.195,-4.281 0.297,-2.066 2.203,-3.502 4.268,-3.208 2.069,0.302 3.504,2.218 3.199,4.278 -0.291,2.067 -2.209,3.502 -4.272,3.211 m -160.434,150.32 c -1.078,0.916 -2.786,2.455 -3.928,3.498 l -0.082,-0.067 c 0.804,-1.323 2.081,-3.364 2.757,-4.53 l 2.426,-4.188 2.494,2.107 z m 107.884,-190.476 c -1.836,0.901 -4.051,0.149 -4.955,-1.687 -0.904,-1.815 -0.141,-4.046 1.692,-4.932 1.823,-0.909 4.044,-0.167 4.954,1.664 0.899,1.836 0.141,4.053 -1.691,4.955 m -147.432,141.598 -0.041,-0.093 c 1.376,-0.718 3.522,-1.811 4.711,-2.461 l 4.238,-2.329 1.043,3.093 -4.785,0.827 c -1.394,0.219 -3.651,0.665 -5.166,0.963 M -170.972,-144 c 0.291,2.062 -1.143,3.969 -3.195,4.281 -2.064,0.291 -3.987,-1.144 -4.267,-3.211 -0.309,-2.06 1.119,-3.976 3.189,-4.278 2.064,-0.294 3.976,1.142 4.273,3.208 m 49.347,-35.875 c -1.824,-0.902 -2.582,-3.119 -1.689,-4.955 0.92,-1.831 3.136,-2.573 4.965,-1.664 1.831,0.886 2.583,3.117 1.68,4.932 -0.903,1.836 -3.107,2.588 -4.956,1.687 m 151.473,71.012 c -4.313,-4.868 -10.406,-6.509 -10.406,-6.509 0,0 0.887,6.242 5.188,11.117 4.315,4.869 10.162,5.903 10.162,5.903 0,0 -0.642,-5.642 -4.944,-10.511 m -7.019,-18.141 c -5.083,-4.053 -11.373,-4.627 -11.373,-4.627 0,0 1.965,6.004 7.047,10.06 5.096,4.044 11.03,4.044 11.03,4.044 0,0 -1.602,-5.432 -6.704,-9.477 M 9.544,-146.163 c -1.639,-0.235 -3.195,-0.075 -4.402,0.39 0.781,-1.036 1.377,-2.478 1.615,-4.134 0.496,-3.451 -0.577,-7.771 -2.611,-8.06 -2.052,-0.297 -4.291,3.542 -4.782,6.991 -0.237,1.657 -0.075,3.214 0.385,4.429 -1.031,-0.785 -2.478,-1.375 -4.133,-1.606 -3.463,-0.51 -7.782,0.567 -8.073,2.61 -0.292,2.039 3.555,4.281 7.019,4.765 1.65,0.245 3.207,0.088 4.414,-0.373 -0.788,1.024 -1.376,2.469 -1.616,4.125 -0.502,3.454 0.571,7.777 2.617,8.073 2.042,0.295 4.274,-3.551 4.781,-7.011 0.239,-1.655 0.063,-3.214 -0.385,-4.411 1.019,0.775 2.46,1.367 4.121,1.602 3.452,0.495 7.783,-0.571 8.069,-2.603 0.303,-2.039 -3.551,-4.293 -7.019,-4.787 m -21.39,-24.894 c -5.968,-1.364 -11.553,0.72 -11.553,0.72 0,0 4.121,4.307 10.103,5.683 5.962,1.357 11.017,-1.069 11.017,-1.069 0,0 -3.585,-3.958 -9.567,-5.334 m -16.789,-10.234 c -5.835,0.012 -10.574,3.157 -10.574,3.157 0,0 4.75,3.109 10.604,3.081 5.846,-0.01 10.009,-3.347 10.009,-3.347 0,0 -4.186,-2.911 -10.039,-2.891 m -11.165,-8.241 c -0.89,-1.806 -5.246,-1.492 -8.294,0.015 -1.474,0.721 -2.64,1.721 -3.359,2.752 0.058,-1.257 -0.268,-2.754 -0.996,-4.233 -1.498,-3.052 -4.757,-5.958 -6.558,-5.05 -1.819,0.881 -1.493,5.219 0.024,8.294 0.716,1.464 1.712,2.624 2.744,3.342 -1.266,-0.061 -2.751,0.268 -4.226,0.99 -3.067,1.504 -5.97,4.757 -5.065,6.576 0.881,1.807 5.234,1.49 8.301,-0.018 1.468,-0.719 2.629,-1.725 3.352,-2.748 -0.07,1.258 0.256,2.751 0.984,4.215 1.511,3.074 4.764,5.967 6.571,5.071 1.812,-0.891 1.486,-5.243 -0.018,-8.303 -0.728,-1.471 -1.713,-2.621 -2.751,-3.35 1.265,0.054 2.758,-0.248 4.219,-0.977 3.074,-1.517 5.966,-4.774 5.072,-6.576 m -46.934,-4.351 c -2.566,0 -4.646,2.075 -4.646,4.646 0,2.559 2.08,4.635 4.646,4.635 2.56,0 4.641,-2.076 4.641,-4.635 0,-2.571 -2.081,-4.646 -4.641,-4.646 m -25.458,10.461 c -1.463,-0.722 -2.954,-1.051 -4.226,-0.99 1.038,-0.718 2.035,-1.878 2.752,-3.342 1.516,-3.075 1.836,-7.413 0.029,-8.294 -1.813,-0.908 -5.072,1.998 -6.576,5.05 -0.728,1.479 -1.044,2.976 -0.985,4.233 -0.723,-1.031 -1.878,-2.031 -3.359,-2.752 -3.06,-1.507 -7.397,-1.821 -8.301,-0.015 -0.887,1.802 2,5.059 5.072,6.576 1.469,0.729 2.961,1.031 4.226,0.977 -1.037,0.729 -2.023,1.879 -2.757,3.35 -1.504,3.06 -1.825,7.412 -0.012,8.303 1.813,0.896 5.055,-1.997 6.577,-5.071 0.723,-1.464 1.043,-2.957 0.979,-4.215 0.717,1.023 1.871,2.029 3.352,2.748 3.067,1.508 7.415,1.825 8.307,0.018 0.893,-1.819 -2.012,-5.072 -5.078,-6.576 m -31.824,2.131 c -5.853,-0.02 -10.033,2.891 -10.033,2.891 0,0 4.163,3.337 10.005,3.347 5.852,0.028 10.604,-3.081 10.604,-3.081 0,0 -4.74,-3.145 -10.576,-3.157 m -16.789,10.234 c -5.987,1.376 -9.567,5.334 -9.567,5.334 0,0 5.049,2.426 11.018,1.069 5.981,-1.376 10.104,-5.683 10.104,-5.683 0,0 -5.586,-2.084 -11.555,-0.72 m -11.205,20.081 c -0.495,-3.449 -2.74,-7.288 -4.774,-6.991 -2.052,0.289 -3.119,4.609 -2.635,8.06 0.256,1.656 0.839,3.098 1.62,4.134 -1.201,-0.465 -2.763,-0.625 -4.407,-0.39 -3.457,0.494 -7.311,2.748 -7.013,4.787 0.297,2.032 4.617,3.098 8.069,2.603 1.661,-0.235 3.107,-0.827 4.121,-1.602 -0.449,1.197 -0.624,2.756 -0.379,4.411 0.501,3.46 2.74,7.306 4.781,7.011 2.04,-0.296 3.118,-4.619 2.617,-8.073 -0.24,-1.656 -0.828,-3.101 -1.615,-4.125 1.212,0.461 2.763,0.618 4.418,0.373 3.453,-0.484 7.305,-2.726 7.019,-4.765 -0.302,-2.043 -4.622,-3.12 -8.085,-2.61 -1.65,0.231 -3.102,0.821 -4.122,1.606 0.461,-1.215 0.619,-2.772 0.385,-4.429 m -30.175,33.449 c 0,0 5.941,0 11.03,-4.044 5.084,-4.056 7.043,-10.06 7.043,-10.06 0,0 -6.285,0.574 -11.38,4.627 -5.084,4.045 -6.693,9.477 -6.693,9.477 m -5.246,19.175 c 0,0 5.836,-1.034 10.143,-5.903 4.303,-4.875 5.195,-11.117 5.195,-11.117 0,0 -6.086,1.641 -10.395,6.509 -4.314,4.869 -4.943,10.511 -4.943,10.511 m 15.227,2.532 c 0.035,-3.573 -2.198,-6.481 -2.198,-6.481 0,0 -2.279,2.864 -2.326,6.435 -0.035,3.56 2.186,6.489 2.186,6.489 0,0 2.292,-2.877 2.338,-6.443 m 6.821,-9.813 c -1.248,-5.379 -5.037,-9.084 -5.037,-9.084 0,0 -1.539,4.493 -0.291,9.853 1.235,5.382 5.107,8.346 5.107,8.346 0,0 1.457,-3.747 0.221,-9.115 m -23.056,43.279 9.28,-1.207 0.606,4.617 -9.35,1.207 0.821,4.422 22.975,-3.008 -0.816,-4.422 -9.52,1.259 -0.606,-4.623 9.514,-1.262 -0.35,-4.416 -22.98,3.014 z m 29.247,-58.391 c -0.297,-5.503 -3.381,-9.82 -3.381,-9.82 0,0 -2.291,4.153 -2.011,9.676 0.302,5.503 3.603,9.087 3.603,9.087 0,0 2.069,-3.433 1.789,-8.943 m -22.648,86.463 23.592,-3.188 -1.556,-4.067 -5.282,0.749 -1.323,-3.905 4.64,-2.641 -1.224,-4.238 -20.532,12.382 z m 7.502,16.647 16.825,-2.657 0.035,0.055 -14.008,7.482 2.092,3.343 20.136,-11.502 -2.233,-3.457 -16.288,2.559 -0.193,0.091 13.694,-7.518 -1.772,-3.524 -20.165,11.546 z m 12.738,18.868 5.328,-2.41 c 1.388,-0.641 2.961,-1.406 4.483,-2.248 l 0.036,0.05 c -1.085,1.291 -2.117,2.661 -3.102,4.025 l -3.299,4.6 3.112,3.36 7.311,-12.889 6.885,-5.85 -2.903,-3.393 -6.74,5.739 -14.055,5.326 z m 18.072,17.912 18.597,-14.904 -3.522,-2.681 -4.238,3.477 -3.148,-2.658 2.694,-4.781 -3.201,-2.999 -11.257,21.1 z m 15.024,10.371 7.513,-6.203 c 1.452,-1.224 3.854,-3.23 5.393,-4.669 l 0.058,0.023 c -1.287,2.049 -3.486,5.393 -5.532,9.077 l -2.49,4.506 3.499,1.778 11.275,-20.299 -3.65,-1.775 -7.404,6.004 c -1.603,1.333 -3.923,3.352 -5.375,4.921 l -0.064,-0.035 c 1.213,-1.976 3.073,-4.988 5.323,-9.036 l 2.559,-4.62 -3.358,-2.061 -11.234,20.278 z m 26.828,11.752 c 1.655,0.522 2.99,0.595 3.778,0.49 l 0.424,-3.9 c -0.71,0.097 -1.572,0.029 -2.651,-0.312 -2.88,-0.93 -4.548,-3.64 -2.724,-9.348 1.685,-5.249 4.332,-6.468 6.309,-5.836 0.39,0.126 0.664,0.251 0.815,0.363 l -1.696,5.281 -1.941,-0.624 -1.119,3.472 5.87,1.889 3.737,-11.677 c -0.805,-0.691 -2.694,-1.723 -4.279,-2.23 -2.501,-0.801 -4.612,-0.688 -6.535,0.303 -2.454,1.213 -4.507,4.127 -5.648,7.911 -2.45,7.969 1.031,12.726 5.66,14.218 m 28.553,4.793 0.502,-14.959 c 0.117,-3.37 1.178,-4.355 2.326,-4.317 1.294,0.044 2.185,0.996 2.065,4.465 l -0.534,14.938 4.485,-0.028 0.477,-13.98 c 0.199,-5.879 -1.905,-9.153 -6.324,-9.304 -4.798,-0.167 -6.78,3.066 -6.978,8.814 l -0.479,14.032 z m 20.049,-0.613 3.975,-0.501 3.324,-16.553 0.063,-0.012 2.187,15.629 3.865,-0.807 -3.889,-22.841 -3.97,0.825 -3.125,16.527 -0.064,0.015 -2.36,-15.568 -3.912,0.457 z m 23.405,-4.975 4.228,-1.435 -7.446,-21.911 -4.218,1.443 z m 11.788,-4.402 4.484,-2.017 -5.714,-17.358 0.064,-0.026 10.634,14.816 4.231,-2.437 -15.174,-17.995 -4.408,2.258 z m 28.921,-17.687 -2.413,-3.169 -4.396,3.315 -3.176,-4.209 4.179,-3.16 -2.226,-2.958 -4.187,3.156 -3.731,-4.943 4.727,-3.568 -2.39,-3.203 -8.283,6.247 13.939,18.497 z M 2.787,7.273 C 4.449,5.48 5.592,3.58 5.615,1.551 5.65,-0.312 4.804,-1.665 3.354,-3.008 1.552,-4.681 -0.873,-5.311 -3.27,-4.334 l -0.051,-0.041 c 0.623,-1.568 0.075,-3.136 -1.417,-5.13 -1.57,-2.061 -3.336,-4.746 -3.674,-5.623 l -3.061,3.729 c 0.286,0.634 1.633,2.579 3.253,4.546 1.807,2.256 1.919,3.332 0.905,4.431 l -0.439,0.466 -6.704,-6.229 -3.188,3.143 16.983,15.763 C 0.352,9.736 1.634,8.521 2.787,7.273 M 7.823,-9.502 c 3.096,1.991 6.99,1.588 9.596,-2.445 0.799,-1.263 1.236,-2.686 1.26,-3.482 L 15.065,-16.9 c -0.007,0.754 -0.227,1.787 -0.932,2.88 -1.031,1.603 -2.496,1.752 -3.528,1.084 -1.142,-0.734 -1.382,-1.697 -1.293,-4.6 0.093,-3.535 -1.243,-5.73 -3.277,-7.039 -3.52,-2.264 -7.515,-1.156 -9.951,2.62 -0.987,1.539 -1.568,3.32 -1.599,4.183 l 3.586,1.54 c 0.064,-1.044 0.6,-2.56 1.3,-3.644 1.137,-1.784 2.611,-2.059 3.871,-1.242 1.399,0.912 1.532,2.206 1.538,4.512 -0.092,3.67 1.295,5.979 3.043,7.104 m -155.547,-159.471 c 0,0 -3.923,2.816 -6.098,7.995 -2.157,5.184 -0.71,9.94 -0.71,9.94 0,0 3.433,-2.247 5.591,-7.413 2.155,-5.203 1.217,-10.522 1.217,-10.522 m 15.396,-7.266 c 0,0 -4.477,1.844 -7.747,6.424 -3.277,4.547 -2.945,9.496 -2.945,9.496 0,0 3.849,-1.398 7.119,-5.958 3.283,-4.564 3.573,-9.962 3.573,-9.962 m 99.741,6.424 c -3.259,-4.58 -7.735,-6.424 -7.735,-6.424 0,0 0.296,5.398 3.566,9.962 3.266,4.56 7.118,5.958 7.118,5.958 0,0 0.339,-4.949 -2.949,-9.496 m 13.758,8.837 c -2.18,-5.179 -6.104,-7.995 -6.104,-7.995 0,0 -0.933,5.319 1.226,10.522 2.155,5.166 5.583,7.413 5.583,7.413 0,0 1.445,-4.756 -0.705,-9.94 m -68.272,-6.978 c -50.585,0.197 -91.444,41.379 -91.24,91.966 0.198,50.59 41.38,91.445 91.969,91.244 50.578,-0.199 91.421,-41.382 91.217,-91.972 -0.193,-50.584 -41.367,-91.442 -91.946,-91.238 M 25.522,-27.35 4.629,-37.088 l -1.871,4.048 20.893,9.727 z m 6.874,-19.998 -3.946,-1.213 -1.061,3.943 -18.195,-5.593 -1.312,4.262 18.195,5.59 -1.289,3.845 3.941,1.198 z M 9.928,-130.565 c 0,0 -3.095,4.317 -3.38,9.82 -0.286,5.51 1.789,8.943 1.789,8.943 0,0 3.3,-3.584 3.585,-9.087 0.299,-5.523 -1.994,-9.676 -1.994,-9.676 m 7.836,15.848 c 0,0 -3.784,3.705 -5.031,9.084 -1.237,5.368 0.22,9.115 0.22,9.115 0,0 3.861,-2.964 5.103,-8.346 1.258,-5.36 -0.292,-9.853 -0.292,-9.853 m 6.308,18.851 c -0.036,-3.571 -2.32,-6.435 -2.32,-6.435 0,0 -2.234,2.908 -2.193,6.481 0.047,3.566 2.332,6.443 2.332,6.443 0,0 2.22,-2.929 2.181,-6.489 m 10.428,37.581 -10.132,-4.005 0.011,-0.073 10.763,-1.166 0.361,-4.556 -14.498,3.391 -8.86,-1.114 -0.578,4.44 8.709,1.078 13.439,6.733 z M -86.22,54.916 C -158.701,55.202 -217.708,-3.331 -218,-75.833 c -0.28,-72.497 58.261,-131.491 130.742,-131.779 72.486,-0.288 131.488,58.241 131.774,130.74 0.292,72.5 -58.25,131.499 -130.736,131.788"
             style="fill:#004583;fill-opacity:1;fill-rule:nonzero;stroke:none"
             id="path73263" />
        </g>
        <g
           id="g73265"
           transform="translate(127.3901,99.292)">
          <path
             d="m 0,0 c -0.479,-0.099 -0.903,-0.273 -1.283,-0.516 -0.367,-0.234 -0.671,-0.56 -0.892,-0.962 -0.216,-0.402 -0.326,-0.899 -0.326,-1.5 0,-0.597 0.11,-1.095 0.326,-1.501 0.221,-0.403 0.525,-0.716 0.892,-0.964 0.38,-0.233 0.804,-0.406 1.283,-0.514 0.482,-0.101 0.967,-0.154 1.469,-0.154 0.501,0 0.973,0.053 1.463,0.154 0.478,0.108 0.903,0.281 1.277,0.514 0.378,0.248 0.676,0.561 0.898,0.964 0.209,0.406 0.314,0.904 0.314,1.501 0,0.601 -0.105,1.098 -0.314,1.5 C 4.885,-1.076 4.587,-0.75 4.209,-0.516 3.835,-0.273 3.41,-0.099 2.932,0 2.442,0.101 1.97,0.162 1.469,0.162 0.967,0.162 0.482,0.101 0,0 m -4.156,-9.919 0.371,-0.214 c 0,-0.117 0.018,-0.243 0.054,-0.405 0.023,-0.158 0.082,-0.306 0.163,-0.423 0.209,-0.296 0.489,-0.558 0.839,-0.773 0.362,-0.218 0.734,-0.403 1.144,-0.534 0.396,-0.139 0.815,-0.251 1.223,-0.296 0.415,-0.062 0.8,-0.092 1.126,-0.092 3.235,0 4.96,1.829 5.176,5.461 C 5.06,-7.682 4.185,-8.097 3.316,-8.446 2.436,-8.793 1.527,-8.964 0.571,-8.964 c -0.753,0 -1.516,0.108 -2.315,0.307 -0.786,0.211 -1.504,0.526 -2.134,0.972 -0.635,0.437 -1.159,1.011 -1.556,1.696 -0.402,0.687 -0.611,1.52 -0.611,2.496 0,1.169 0.232,2.18 0.71,3.009 0.449,0.832 1.067,1.517 1.819,2.062 0.746,0.543 1.586,0.933 2.507,1.191 0.933,0.264 1.842,0.377 2.757,0.377 1.143,0 2.186,-0.208 3.137,-0.638 0.944,-0.42 1.766,-1.026 2.449,-1.798 0.682,-0.772 1.218,-1.691 1.579,-2.748 0.379,-1.063 0.572,-2.229 0.572,-3.504 0,-1.507 -0.217,-2.863 -0.641,-4.064 -0.42,-1.214 -1.032,-2.255 -1.814,-3.119 -0.8,-0.871 -1.725,-1.522 -2.821,-1.977 -1.085,-0.44 -2.321,-0.673 -3.662,-0.673 -0.926,0 -1.736,0.078 -2.378,0.223 -0.659,0.157 -1.207,0.334 -1.638,0.559 -0.437,0.212 -0.793,0.405 -1.055,0.582 -0.275,0.172 -0.502,0.261 -0.665,0.261 -0.216,0 -0.426,-0.075 -0.583,-0.211 l -0.251,0.246 z"
             style="fill:#004583;fill-opacity:1;fill-rule:nonzero;stroke:none"
             id="path73267" />
        </g>
        <g
           id="g73269"
           transform="translate(161.1777,99.292)">
          <path
             d="m 0,0 c -0.482,-0.099 -0.909,-0.273 -1.286,-0.516 -0.361,-0.234 -0.666,-0.56 -0.888,-0.962 -0.21,-0.402 -0.327,-0.899 -0.327,-1.5 0,-0.597 0.117,-1.095 0.327,-1.501 0.222,-0.403 0.527,-0.716 0.888,-0.964 0.377,-0.233 0.804,-0.406 1.286,-0.514 0.479,-0.101 0.963,-0.154 1.471,-0.154 0.501,0 0.973,0.053 1.457,0.154 0.482,0.108 0.908,0.281 1.288,0.514 0.374,0.248 0.664,0.561 0.892,0.964 0.214,0.406 0.321,0.904 0.321,1.501 0,0.601 -0.107,1.098 -0.321,1.5 C 4.88,-1.076 4.59,-0.75 4.216,-0.516 3.836,-0.273 3.41,-0.099 2.928,0 2.444,0.101 1.972,0.162 1.471,0.162 0.963,0.162 0.479,0.101 0,0 m -4.155,-9.919 0.372,-0.214 c 0,-0.117 0.024,-0.243 0.058,-0.405 0.024,-0.158 0.076,-0.306 0.158,-0.423 0.216,-0.296 0.489,-0.558 0.846,-0.773 0.348,-0.218 0.729,-0.403 1.135,-0.534 0.402,-0.139 0.817,-0.251 1.232,-0.296 0.412,-0.062 0.792,-0.092 1.119,-0.092 3.24,0 4.96,1.829 5.176,5.461 C 5.067,-7.682 4.187,-8.097 3.318,-8.446 2.444,-8.793 1.522,-8.964 0.572,-8.964 c -0.745,0 -1.521,0.108 -2.314,0.307 -0.793,0.211 -1.511,0.526 -2.141,0.972 -0.634,0.437 -1.153,1.011 -1.561,1.696 -0.396,0.687 -0.605,1.52 -0.605,2.496 0,1.169 0.236,2.18 0.709,3.009 0.46,0.832 1.069,1.517 1.819,2.062 0.752,0.543 1.591,0.933 2.513,1.191 0.921,0.264 1.85,0.377 2.751,0.377 1.145,0 2.187,-0.208 3.137,-0.638 0.951,-0.42 1.779,-1.026 2.453,-1.798 0.684,-0.772 1.215,-1.691 1.587,-2.748 0.373,-1.063 0.559,-2.229 0.559,-3.504 0,-1.507 -0.203,-2.863 -0.64,-4.064 -0.416,-1.214 -1.027,-2.255 -1.814,-3.119 -0.793,-0.871 -1.724,-1.522 -2.815,-1.977 -1.09,-0.44 -2.314,-0.673 -3.661,-0.673 -0.933,0 -1.733,0.078 -2.379,0.223 -0.658,0.157 -1.207,0.334 -1.644,0.559 -0.437,0.212 -0.787,0.405 -1.049,0.582 -0.281,0.172 -0.495,0.261 -0.665,0.261 -0.221,0 -0.419,-0.075 -0.589,-0.211 l -0.244,0.246 z"
             style="fill:#004583;fill-opacity:1;fill-rule:nonzero;stroke:none"
             id="path73271" />
        </g>
        <g
           id="g73273"
           transform="translate(138.1748,99.7246)">
          <path
             d="M 0,0 0.373,0.311 C 0.535,0.2 0.717,0.146 0.896,0.146 1.014,0.146 1.188,0.277 1.48,0.542 1.759,0.808 2.169,1.095 2.711,1.426 3.248,1.764 3.936,2.051 4.78,2.309 5.625,2.58 6.646,2.714 7.853,2.714 8.664,2.714 9.468,2.631 10.29,2.449 11.111,2.26 11.846,1.965 12.511,1.551 13.186,1.151 13.745,0.638 14.16,0 c 0.426,-0.635 0.635,-1.402 0.635,-2.294 0,-0.841 -0.209,-1.601 -0.652,-2.3 -0.438,-0.714 -1.034,-1.151 -1.783,-1.344 v -0.068 c 0.884,-0.22 1.613,-0.684 2.184,-1.365 0.572,-0.684 0.858,-1.539 0.858,-2.583 0,-1.175 -0.267,-2.149 -0.793,-2.906 -0.53,-0.769 -1.201,-1.373 -1.97,-1.82 -0.787,-0.457 -1.658,-0.748 -2.595,-0.894 -0.933,-0.155 -1.823,-0.234 -2.646,-0.234 -0.939,0 -1.814,0.103 -2.623,0.298 -0.818,0.186 -1.527,0.427 -2.146,0.685 -0.619,0.262 -1.138,0.502 -1.54,0.729 -0.405,0.213 -0.705,0.323 -0.862,0.323 -0.099,0 -0.193,-0.021 -0.269,-0.076 -0.069,-0.041 -0.145,-0.086 -0.232,-0.125 l -0.281,0.094 1.808,4.975 0.345,-0.192 C 1.581,-9.152 1.563,-9.226 1.563,-9.348 v -0.237 c 0,-0.532 0.231,-1.011 0.692,-1.421 0.456,-0.426 0.993,-0.777 1.627,-1.058 0.636,-0.287 1.306,-0.507 1.994,-0.667 0.705,-0.137 1.288,-0.223 1.76,-0.223 0.374,0 0.821,0.038 1.33,0.126 0.502,0.083 0.991,0.234 1.423,0.44 0.442,0.209 0.816,0.487 1.13,0.836 0.308,0.371 0.473,0.842 0.473,1.416 0,0.561 -0.151,1.007 -0.443,1.335 -0.304,0.351 -0.665,0.599 -1.097,0.794 -0.431,0.181 -0.887,0.3 -1.376,0.361 -0.484,0.058 -0.903,0.088 -1.253,0.088 -0.508,0 -0.933,-0.046 -1.301,-0.158 C 6.16,-7.817 5.917,-8.077 5.795,-8.491 H 5.422 v 4.705 h 0.373 c 0.039,-0.461 0.268,-0.773 0.664,-0.913 0.407,-0.162 0.856,-0.231 1.364,-0.231 0.326,0 0.717,0.029 1.155,0.104 0.431,0.066 0.838,0.192 1.219,0.374 0.377,0.187 0.705,0.447 0.967,0.762 0.268,0.319 0.408,0.731 0.408,1.206 0,0.467 -0.117,0.831 -0.36,1.124 -0.231,0.286 -0.537,0.506 -0.922,0.666 C 9.904,-0.531 9.485,-0.417 9.012,-0.36 8.551,-0.308 8.08,-0.271 7.602,-0.271 7.041,-0.271 6.47,-0.343 5.889,-0.494 5.305,-0.611 4.775,-0.804 4.297,-1.041 3.823,-1.26 3.428,-1.527 3.118,-1.798 2.798,-2.075 2.647,-2.354 2.647,-2.626 c 0,-0.105 0.016,-0.21 0.028,-0.326 C 2.698,-3.09 2.729,-3.214 2.77,-3.323 L 2.495,-3.536 Z"
             style="fill:#004583;fill-opacity:1;fill-rule:nonzero;stroke:none"
             id="path73275" />
        </g>
        <g
           id="g73277"
           transform="translate(114.1094,84.4238)">
          <path
             d="m 0,0 c 0.215,0 0.391,0.059 0.548,0.197 0.153,0.12 0.239,0.377 0.239,0.777 v 11.567 c -0.157,0 -0.321,0 -0.513,-0.035 -0.203,-0.015 -0.39,-0.054 -0.582,-0.114 -0.192,-0.061 -0.357,-0.14 -0.514,-0.246 -0.157,-0.104 -0.262,-0.245 -0.321,-0.434 h -0.372 v 4.361 h 0.372 c 0,-0.204 0.094,-0.347 0.281,-0.42 0.197,-0.09 0.362,-0.128 0.53,-0.128 0.35,0 0.653,0.128 0.892,0.372 0.245,0.234 0.361,0.533 0.361,0.88 0,0.323 -0.064,0.53 -0.198,0.614 -0.14,0.095 -0.315,0.172 -0.548,0.218 v 0.406 H 5.201 V 17.609 C 4.961,17.563 4.746,17.472 4.576,17.365 4.419,17.245 4.332,17.076 4.332,16.843 V 0.974 c 0,-0.4 0.087,-0.657 0.244,-0.777 C 4.746,0.059 4.933,0 5.142,0 V -0.41 H 0 Z"
             style="fill:#004583;fill-opacity:1;fill-rule:nonzero;stroke:none"
             id="path73279" />
        </g>
      </g>
    </g>
    <path
       style="fill:#ffffff;stroke-width:0.200187"
       d="m 182.17031,310.86438 c -22.35773,-1.42924 -42.37784,-8.04522 -60.45652,-19.97886 -30.229298,-19.95417 -49.98685,-51.95672 -54.140995,-87.69556 -1.189549,-10.2339 -1.045735,-21.61343 0.398949,-31.56763 3.305104,-22.77289 12.467164,-43.17942 27.530907,-61.31921 2.784215,-3.35276 11.247519,-11.816067 14.600279,-14.600282 19.81921,-16.458376 41.78036,-25.649186 67.56316,-28.275402 4.93099,-0.502266 17.23242,-0.501409 22.22078,0.0015 14.73987,1.486165 27.62083,4.977532 40.54892,10.990731 20.0695,9.334854 37.86408,24.740053 50.24031,43.494253 20.07421,30.41927 25.42303,68.36577 14.57447,103.39667 -4.71425,15.22272 -12.4711,29.36815 -23.16259,42.23949 -2.79734,3.36768 -10.3967,11.05989 -13.73711,13.90495 -19.68034,16.76203 -42.40231,26.43101 -68.26381,29.04866 -2.95518,0.2991 -15.0659,0.54289 -17.91675,0.36064 z m -7.35081,-45.37395 c 3.69237,-1.28407 6.18074,-4.12945 7.27862,-8.32288 0.52572,-2.00803 0.57492,-5.77192 0.0998,-7.63427 -1.07547,-4.21549 -3.98486,-7.24978 -7.68862,-8.01867 -1.68715,-0.35025 -4.84307,-0.14318 -6.55227,0.42992 -2.70849,0.90816 -4.80438,2.80204 -5.7397,5.18651 -0.33185,0.84599 -0.43362,1.54154 -0.43937,3.0028 -0.009,2.28608 0.35787,3.26881 1.793,4.80308 1.60599,1.71693 4.02409,2.60855 7.0484,2.59895 2.02878,-0.006 2.96756,-0.24095 5.20617,-1.30057 l 1.86288,-0.88177 -0.13736,0.94348 c -0.31029,2.13111 -1.44626,4.22108 -2.71847,5.00145 -3.12049,1.91411 -8.63533,0.9747 -9.80532,-1.67027 -0.21563,-0.48747 -0.47728,-0.8863 -0.58144,-0.8863 -0.10417,0 -0.77,1.15866 -1.47963,2.57481 -0.93204,1.86 -1.22959,2.63545 -1.07179,2.79325 0.15093,0.15093 0.33592,0.15557 0.59855,0.015 0.29922,-0.16013 0.7081,-0.0369 1.92116,0.57915 1.35291,0.68704 1.90413,0.88269 3.74311,1.32857 0.2202,0.0534 1.48288,0.0667 2.80594,0.0297 1.93343,-0.0542 2.69032,-0.16642 3.85635,-0.57193 z m 23.76615,0.16008 c 1.73998,-0.46299 2.77452,-1.01552 4.00213,-2.13749 1.98957,-1.81835 2.75894,-4.50425 2.01916,-7.049 -0.37434,-1.28769 -1.53271,-2.63638 -2.66815,-3.10654 -0.60691,-0.25131 -0.88426,-0.6212 -0.46578,-0.6212 0.41258,0 1.46857,-1.11526 1.96758,-2.078 0.44625,-0.86096 0.53079,-1.28108 0.52851,-2.6264 -0.003,-1.85968 -0.29605,-2.67781 -1.39356,-3.89262 -1.61053,-1.78267 -3.77275,-2.60959 -7.21637,-2.75983 -3.73529,-0.16296 -6.28817,0.56075 -8.87208,2.51514 -0.76012,0.57494 -1.21731,0.79074 -1.51625,0.71571 -0.2354,-0.0591 -0.52501,0.011 -0.64358,0.15569 -0.1636,0.19965 0.17792,0.82872 1.41616,2.60853 1.71171,2.46037 2.286,2.86877 2.17128,1.54412 -0.0823,-0.94986 0.46943,-1.61029 1.97261,-2.36144 1.63431,-0.81667 3.10741,-1.08697 5.3819,-0.98753 2.06999,0.0905 3.29207,0.52974 3.90378,1.40306 0.4368,0.62363 0.39232,1.92837 -0.0929,2.72419 -1.18625,1.9457 -6.47752,2.41538 -6.94788,0.61674 -0.0547,-0.20899 -0.26903,-0.37998 -0.47639,-0.37998 -0.35354,0 -0.37703,0.19957 -0.37703,3.20299 0,3.05042 0.0187,3.20299 0.39333,3.20299 0.21634,0 0.48812,-0.1771 0.60397,-0.39357 0.30115,-0.5627 1.67128,-0.87492 3.20663,-0.7307 2.05093,0.19264 2.8178,0.48621 3.77776,1.44617 0.86067,0.86067 0.87471,0.89622 0.7844,1.98525 -0.076,0.91644 -0.20649,1.22705 -0.75193,1.78981 -0.895,0.9234 -2.30005,1.48845 -4.05175,1.62943 -3.95745,0.3185 -8.7669,-2.04 -8.7669,-4.29919 0,-0.50444 -0.10474,-0.82399 -0.29387,-0.89657 -0.16163,-0.062 -0.33455,-0.0469 -0.38427,0.0335 -0.34178,0.553 -2.32789,6.47543 -2.22656,6.63939 0.0696,0.11268 0.34186,0.15084 0.60494,0.0848 0.32701,-0.0821 1.22561,0.19899 2.8404,0.88843 3.25398,1.38928 4.56015,1.64841 7.76713,1.54092 1.45836,-0.0489 3.13046,-0.22773 3.80355,-0.40683 z m 21.13419,-0.0829 c 3.61045,-1.13575 6.32296,-4.20651 7.4201,-8.40011 0.52511,-2.00711 0.57286,-5.74847 0.0984,-7.71168 -0.97326,-4.02738 -4.02617,-7.18129 -7.68696,-7.94126 -1.68715,-0.35025 -4.84307,-0.14318 -6.55227,0.42992 -2.70849,0.90816 -4.80438,2.80204 -5.7397,5.18651 -0.33185,0.84599 -0.43362,1.54154 -0.43937,3.0028 -0.009,2.28608 0.35787,3.26881 1.793,4.80308 1.60599,1.71693 4.02408,2.60855 7.0484,2.59895 2.03128,-0.006 2.96737,-0.24087 5.2205,-1.30736 l 1.87722,-0.88855 -0.1337,0.85017 c -0.36879,2.34514 -1.33276,4.12639 -2.74434,5.07109 -1.7708,1.18511 -4.8849,1.38903 -7.21093,0.47219 -1.508,-0.5944 -2.16205,-1.13012 -2.58533,-2.11759 -0.20604,-0.48066 -0.46725,-0.87393 -0.58048,-0.87393 -0.11323,0 -0.78648,1.15866 -1.49611,2.57481 -1.32426,2.64271 -1.41771,3.25104 -0.43029,2.80114 0.35155,-0.16017 0.72233,-0.0467 1.92727,0.58986 0.82059,0.4335 1.89736,0.88713 2.39283,1.00805 0.49546,0.12092 1.08101,0.26354 1.30121,0.31693 0.99484,0.24121 5.23727,-0.0614 6.52053,-0.46502 z m -60.67115,0.0942 c 0,-0.15774 -0.17996,-0.34391 -0.39991,-0.41372 -0.21995,-0.0698 -0.44756,-0.32361 -0.5058,-0.564 -0.0582,-0.2404 -0.081,-5.34547 -0.0505,-11.34461 l 0.0554,-10.90753 0.55051,-0.26383 c 0.30279,-0.14511 0.55052,-0.39404 0.55052,-0.55319 0,-0.24132 -0.58149,-0.28935 -3.50328,-0.28935 -3.0025,0 -3.50327,0.0435 -3.50327,0.30457 0,0.16752 0.22521,0.40719 0.50046,0.5326 1.0739,0.4893 0.28789,2.36582 -0.99095,2.36582 -0.36389,0 -0.77376,-0.13512 -0.91082,-0.30028 -0.13707,-0.16515 -0.37331,-0.30028 -0.52498,-0.30028 -0.22198,0 -0.27577,0.58573 -0.27577,3.00281 0,3.18692 0.10277,3.48429 0.89982,2.60355 0.30472,-0.3367 1.42688,-0.79684 1.95285,-0.80075 0.0826,-6e-4 0.15014,3.59582 0.15014,7.99207 0,6.99962 -0.0391,8.03229 -0.31458,8.30777 -0.17302,0.17302 -0.39823,0.31458 -0.50047,0.31458 -0.10224,0 -0.18589,0.13512 -0.18589,0.30028 0,0.25547 0.52271,0.30028 3.50327,0.30028 2.90733,0 3.50328,-0.0488 3.50328,-0.28679 z m 32.02994,-52.66271 v -2.70253 h 1.50141 1.5014 v 2.70253 2.70252 h 41.14207 41.14208 l -0.0481,-9.65903 c -0.0264,-5.31246 -0.077,-11.34811 -0.11226,-13.41254 l -0.0642,-3.7535 h -5.89698 -5.89697 v -13.81292 -13.81291 h 6.00562 6.00561 V 147.9383 134.62586 h -5.80543 -5.80543 v -3.13367 -3.13366 l -2.43367,0.13086 c -1.33852,0.072 -7.91467,0.13085 -14.61366,0.13085 h -12.17999 v 3.00281 3.00281 H 205.79239 176.0646 v -3.00281 -3.00281 h -14.51357 -14.51357 v 3.00281 3.00281 h -22.62115 -22.62114 v 13.01216 13.01217 h 2.00187 c 1.10103,0 2.00187,0.0312 2.00187,0.0694 0,0.0382 -0.49838,0.81403 -1.10751,1.72408 -5.304844,7.92551 -6.780528,19.52559 -3.67486,28.88741 2.05831,6.2046 6.58503,12.68379 11.7167,16.77034 4.75391,3.78572 11.46751,6.55617 17.88887,7.38206 0.71567,0.092 14.61116,0.17878 30.87887,0.19274 l 29.57765,0.0254 z"
       id="path73281"
       transform="matrix(0.75000002,0,0,-0.75000002,0,283.465)" />
    <path
       style="fill:#ffffff;stroke-width:0.200187"
       d="m 132.12352,213.97055 c -8.63256,-1.00073 -15.6523,-4.20146 -20.86624,-9.51418 -5.17642,-5.2745 -8.49169,-11.36831 -9.78292,-17.98204 -0.52566,-2.69244 -0.47489,-8.18541 0.10639,-11.51076 1.01514,-5.80732 3.12317,-10.43417 6.58809,-14.46 0.67839,-0.7882 1.23344,-1.47281 1.23344,-1.52134 0,-0.0485 -1.35127,-0.0403 -3.00281,0.0182 l -3.00281,0.10643 V 147.7672 136.42754 h 22.72124 22.72125 v -3.1029 -3.1029 h 12.71188 12.71188 v 3.1029 3.1029 h 31.42939 31.42938 v -3.1029 -3.1029 h 13.01216 13.01217 v 3.1029 3.1029 h 5.80543 5.80542 l -2e-4,3.05286 c -1.4e-4,1.67907 -0.0598,6.90395 -0.13269,11.61085 l -0.13249,8.558 h -5.87292 -5.87293 v 15.51451 15.5145 h 5.90552 5.90553 v 11.71095 11.71095 h -39.43687 -39.43687 v -2.80262 -2.80262 h -3.1029 -3.1029 v 2.80262 2.80262 l -28.37653,-0.03 c -15.60709,-0.0165 -28.64678,-0.0613 -28.97709,-0.0996 z m 53.55006,-7.17722 v -2.70253 h 6.80055 6.80056 l 0.0559,2.65248 0.0559,2.65248 35.48317,0.0506 35.48318,0.0506 v -7.70776 -7.70776 h -5.90553 -5.90552 v -19.01778 -19.01778 h 5.90552 5.90553 v -7.7072 -7.70721 h -5.90553 -5.90552 v -2.90271 -2.90271 h -8.60804 -8.60805 v 2.90271 2.90271 h -35.53322 -35.53322 v -2.90271 -2.90271 h -8.60805 -8.60804 v 2.90271 2.90271 H 130.6222 108.20124 v 7.70721 7.7072 l 6.45604,0.003 6.45604,0.003 -1.50141,0.81728 c -6.66401,3.62754 -10.97049,9.69277 -12.60539,17.75338 -1.22682,6.04863 -0.79181,12.3543 1.17887,17.08806 3.8901,9.34445 13.67265,16.28401 24.774,17.57421 0.75145,0.0873 12.91958,0.17063 27.04028,0.1851 l 25.674,0.0263 z"
       id="path73283"
       transform="matrix(0.75000002,0,0,-0.75000002,0,283.465)" />
    <path
       style="fill:#ffffff;stroke-width:0.200187"
       d="m 145.93643,177.13606 c -4.27018,-0.88761 -7.47117,-3.02643 -8.91319,-5.95558 -1.18099,-2.39893 -1.01344,-5.2899 0.43884,-7.57201 0.60473,-0.95028 2.82854,-3.15847 3.1808,-3.15847 0.10383,0 0.18878,-0.0901 0.18878,-0.20019 0,-0.12233 -0.93421,-0.20018 -2.40225,-0.20018 h -2.40224 v -1.90178 -1.90178 h 12.61179 12.61179 v 1.90178 1.90178 h -2.30215 c -1.26619,0 -2.30216,0.0827 -2.30216,0.18386 0,0.10112 0.31138,0.3763 0.69195,0.6115 0.98385,0.60806 2.40637,2.25343 3.00018,3.47018 1.62164,3.32286 0.87711,6.83502 -2.02427,9.54912 -1.49213,1.39581 -3.85147,2.60585 -6.0114,3.08309 -1.32887,0.2936 -5.29603,0.41118 -6.36647,0.18868 z m 5.34052,-2.86332 c 2.48893,-1.28311 3.67918,-3.60444 3.53123,-6.88696 -0.0991,-2.19828 -0.67459,-3.6432 -1.96505,-4.93367 -1.17892,-1.17892 -2.38099,-1.67368 -4.10408,-1.6892 -3.25639,-0.0293 -5.74248,2.41558 -6.20283,6.10009 -0.17887,1.43159 0.18917,3.4363 0.8568,4.66703 0.6896,1.27121 2.25265,2.6583 3.41628,3.03167 1.29281,0.41482 3.3621,0.28098 4.46765,-0.28896 z"
       id="path73285"
       transform="matrix(0.75000002,0,0,-0.75000002,0,283.465)" />
    <path
       style="fill:#ffffff;stroke-width:0.200187"
       d="m 151.34148,197.69513 c -4.51482,-0.10827 -4.62764,-0.12132 -5.80542,-0.67139 -2.16604,-1.01164 -3.44873,-2.67503 -3.88574,-5.03903 -0.11996,-0.64889 -0.2181,-3.32527 -0.2181,-5.94752 v -4.76773 h 3.70346 3.70347 v 6.40599 6.40599 h 12.01122 12.01123 v 1.90178 1.90178 l -8.4579,-0.0397 c -4.65185,-0.0219 -10.52985,-0.0894 -13.06222,-0.15014 z"
       id="path73287"
       transform="matrix(0.75000002,0,0,-0.75000002,0,283.465)" />
    <path
       style="fill:#ffffff;stroke-width:0.200187"
       d="m 165.65487,166.85599 v -16.21516 h 3.40318 3.40318 v 5.80543 5.80542 h 2.80262 2.80262 v 1.90178 1.90178 h -2.80262 -2.80262 v 8.50795 8.50796 h -3.40318 -3.40318 z"
       id="path73289"
       transform="matrix(0.75000002,0,0,-0.75000002,0,283.465)" />
    <path
       style="fill:#ffffff;stroke-width:0.200187"
       d="m 142.03278,152.54261 v -1.90178 h 6.70627 6.70627 v 1.90178 1.90178 h -6.70627 -6.70627 z"
       id="path73291"
       transform="matrix(0.75000002,0,0,-0.75000002,0,283.465)" />
    <path
       style="fill:#ffffff;stroke-width:0.200187"
       d="m 209.79613,173.33008 c -4.73634,-1.01275 -8.39765,-3.9885 -9.71771,-7.89811 -0.35683,-1.05682 -0.41891,-1.62562 -0.35807,-3.28038 0.0662,-1.80066 0.14554,-2.15325 0.78933,-3.50801 1.31951,-2.7767 3.76236,-4.92066 6.9843,-6.12975 4.14013,-1.55366 8.83634,-1.36024 12.71188,0.52354 8.16453,3.96852 8.98631,13.25777 1.60936,18.19178 -1.52523,1.02014 -3.68724,1.84873 -5.80001,2.22286 -1.64913,0.29203 -4.54899,0.23517 -6.21908,-0.12193 z m 5.34747,-3.14366 c 1.90088,-0.57208 3.58347,-2.20941 4.26995,-4.15508 1.53431,-4.34871 0.0195,-9.0162 -3.48223,-10.72943 -2.19073,-1.07182 -5.10119,-0.61549 -7.06356,1.10749 -0.86124,0.75618 -1.83653,2.55611 -2.17652,4.01682 -0.34588,1.48603 -0.15693,4.22715 0.39079,5.66938 0.71766,1.88971 2.52529,3.59944 4.41569,4.17656 0.81926,0.25011 2.67495,0.20647 3.64588,-0.0857 z"
       id="path73293"
       transform="matrix(0.75000002,0,0,-0.75000002,0,283.465)" />
    <path
       style="fill:#ffffff;stroke-width:0.200187"
       d="m 217.10296,198.71178 c -5.25,-1.15039 -9.13437,-4.08072 -10.5205,-7.93654 -0.53103,-1.47716 -0.48995,-4.06962 0.0879,-5.54703 1.29251,-3.30464 4.57303,-5.97354 8.93865,-7.27215 1.37644,-0.40943 2.38963,-0.55817 4.35115,-0.63876 2.98643,-0.12269 4.90979,0.13385 7.28278,0.97142 0.90146,0.31817 1.69127,0.5785 1.75514,0.5785 0.0639,0 0.11611,-6.35094 0.11611,-14.1132 v -14.11319 h 3.30309 3.30309 v 2.90271 2.90272 h 2.90271 2.90272 v 1.90178 1.90177 h -2.90272 -2.90271 v 3.00281 3.00281 h 2.90271 2.90272 v 1.90178 1.90177 h -2.90272 -2.90271 v 9.46683 c 0,10.3112 -0.0413,10.76855 -1.15767,12.82515 -1.15531,2.12832 -3.81613,4.29367 -6.64963,5.41139 -2.2753,0.89754 -3.592,1.1522 -6.40599,1.23896 -2.13059,0.0657 -3.06263,0.004 -4.40412,-0.28953 z m 5.61332,-3.43075 c 2.39229,-0.45369 4.42595,-1.8742 5.50376,-3.84438 0.49891,-0.91198 0.59018,-1.32513 0.65869,-2.98166 0.068,-1.64433 0.0169,-2.06495 -0.35233,-2.90271 -1.43724,-3.26064 -4.23323,-4.85085 -8.15399,-4.63754 -2.30619,0.12546 -3.73295,0.67655 -5.18323,2.00203 -1.61141,1.47273 -2.14347,2.62388 -2.2457,4.85878 -0.0682,1.49171 -0.008,1.99805 0.3477,2.94307 1.27743,3.38986 5.31137,5.34257 9.4251,4.56241 z"
       id="path73295"
       transform="matrix(0.75000002,0,0,-0.75000002,0,283.465)" />
    <path
       style="fill:#ffffff;stroke-width:0.200187"
       d="m 169.65731,253.34998 c -0.99866,-0.30378 -1.79068,-0.82787 -2.34055,-1.5488 -0.50149,-0.65748 -0.56086,-0.89758 -0.56086,-2.2679 0,-1.37113 0.0592,-1.6102 0.56211,-2.26953 0.86145,-1.12942 1.94047,-1.59053 3.96177,-1.69301 3.22086,-0.1633 5.1116,0.83878 5.56416,2.94898 0.48377,2.25577 -0.53579,4.09111 -2.61582,4.70881 -1.07551,0.31939 -3.69156,0.38891 -4.57081,0.12145 z"
       id="path73297"
       transform="matrix(0.75000002,0,0,-0.75000002,0,283.465)" />
    <path
       style="fill:#ffffff;stroke-width:0.200187"
       d="m 214.41201,253.23832 c -1.77508,-0.63234 -2.70751,-1.90831 -2.70751,-3.70504 0,-1.85169 1.12219,-3.28633 2.97267,-3.80034 1.07646,-0.29901 3.41226,-0.24557 4.59306,0.10509 2.08855,0.62024 3.15642,2.53194 2.63303,4.71368 -0.31748,1.32341 -1.24259,2.2639 -2.63303,2.67682 -1.28318,0.38107 -3.80175,0.38614 -4.85822,0.01 z"
       id="path73299"
       transform="matrix(0.75000002,0,0,-0.75000002,0,283.465)" />
    <path
       style="fill:#ffffff;stroke-width:0.200187"
       d="m 79.63892,284.54636 c -1.287246,-0.21492 -3.504128,-1.03757 -4.274745,-1.5863 l -0.579079,-0.41234 0.684948,-0.89733 c 1.322936,-1.73314 1.44708,-3.50256 0.415327,-5.91965 -0.112582,-0.26374 0.04745,-0.36889 0.823758,-0.54123 1.842248,-0.40898 2.597383,-0.45362 4.223913,-0.24967 4.96833,0.62298 9.742637,3.57655 9.742637,6.02717 0,2.55671 -5.832485,4.44826 -11.036759,3.57935 z"
       id="path73301"
       transform="matrix(0.75000002,0,0,-0.75000002,0,283.465)" />
    <path
       style="fill:#ffffff;stroke-width:0.200187"
       d="m 74.611342,274.44156 c -0.472567,-0.3711 -1.238283,-0.77729 -1.701591,-0.90263 -1.114946,-0.30164 -2.98334,-0.11784 -3.819962,0.37578 l -0.672267,0.39664 -0.218532,-1.02841 c -0.718967,-3.38346 -0.292991,-6.37299 1.40401,-9.85344 1.289185,-2.64405 3.375238,-4.5291 4.656233,-4.20759 1.891755,0.4748 3.256701,3.45586 3.446627,7.52747 0.147776,3.168 -0.598402,6.44696 -1.783401,7.83688 l -0.451904,0.53004 z"
       id="path73303"
       transform="matrix(0.75000002,0,0,-0.75000002,0,283.465)" />
    <path
       style="fill:#ffffff;stroke-width:0.200187"
       d="m 68.063631,297.41444 c -0.853315,-0.53919 -1.211022,-0.99216 -1.800775,-2.28035 -1.640157,-3.58257 -1.346761,-9.62686 0.612474,-12.61766 l 0.490257,-0.74838 0.907609,0.69279 c 0.499186,0.38104 1.286835,0.79539 1.750332,0.92079 1.121846,0.3035 2.985139,0.11707 3.833673,-0.38357 l 0.685633,-0.40454 0.221623,1.0334 c 0.422383,1.9695 0.4526,3.21727 0.123768,5.11091 -0.96535,5.55916 -4.548572,10.11478 -6.824594,8.67661 z"
       id="path73305"
       transform="matrix(0.75000002,0,0,-0.75000002,0,283.465)" />
    <path
       style="fill:#ffffff;stroke-width:0.200187"
       d="m 61.857829,282.02458 c -3.912165,-0.51604 -8.280669,-2.84193 -9.302576,-4.95291 -0.528428,-1.09159 -0.447334,-1.62599 0.391752,-2.58166 2.401906,-2.73562 10.692446,-3.09167 14.463699,-0.62117 l 0.748382,0.49026 -0.692793,0.90761 c -0.381037,0.49918 -0.79539,1.28683 -0.920785,1.75033 -0.285021,1.05353 -0.13391,2.87347 0.309834,3.73158 0.185333,0.35839 0.298321,0.69027 0.251084,0.73751 -0.04724,0.0472 -0.706989,0.21747 -1.466117,0.37829 -1.323808,0.28046 -2.494631,0.33004 -3.78248,0.16016 z"
       id="path73307"
       transform="matrix(0.75000002,0,0,-0.75000002,0,283.465)" />
    <path
       style="fill:#ffffff;stroke-width:0.200187"
       d="m 60.700056,260.42423 c -0.524505,-1.01952 -1.513401,-4.19 -1.87723,-6.01854 -0.521897,-2.62297 -0.471991,-7.44053 0.09886,-9.54281 0.657865,-2.42273 1.673228,-4.72893 2.932827,-6.66132 1.350725,-2.07219 1.321987,-2.0822 2.274969,0.79175 1.651544,4.98062 1.658297,10.51773 0.01879,15.41132 -0.693011,2.0685 -1.67069,4.2351 -2.535672,5.61922 l -0.613485,0.98168 z"
       id="path73311"
       transform="matrix(0.75000002,0,0,-0.75000002,0,283.465)" />
    <path
       style="fill:#ffffff;stroke-width:0.200187"
       d="m 57.653899,262.41116 c -4.073412,-0.8937 -7.669409,-2.15608 -10.24546,-3.59669 -3.952113,-2.21015 -7.650823,-5.86814 -10.164304,-10.05241 -0.772543,-1.28608 -2.346048,-4.66599 -2.227448,-4.78459 0.129689,-0.12969 4.272119,0.56577 5.528234,0.92812 6.240634,1.80021 10.89833,5.2409 14.63572,10.81155 1.423485,2.12173 2.472802,4.04864 3.17537,5.83107 0.426367,1.0817 0.406458,1.10617 -0.702112,0.86295 z"
       id="path73313"
       transform="matrix(0.75000002,0,0,-0.75000002,0,283.465)" />
    <path
       style="fill:#ffffff;stroke-width:0.200187"
       d="m 50.368216,239.17915 c -0.730584,-2.79804 -0.952633,-8.05647 -0.450375,-10.66552 0.849496,-4.41283 2.600112,-7.89224 5.519873,-10.97095 1.040802,-1.09746 1.426705,-1.39208 1.545459,-1.17988 0.342512,0.61204 0.770778,3.90529 0.770015,5.92121 -0.0023,5.99375 -2.229468,11.8791 -6.28001,16.59486 l -0.907499,1.05654 z"
       id="path73315"
       transform="matrix(0.75000002,0,0,-0.75000002,0,283.465)" />
    <path
       style="fill:#ffffff;stroke-width:0.200187"
       d="m 47.344261,240.58745 c -8.42317,-2.97304 -14.775891,-8.87626 -17.807819,-16.54778 -0.666557,-1.68655 -1.676524,-5.33575 -1.520051,-5.49222 0.170034,-0.17004 3.528314,0.96868 5.202204,1.76394 7.567869,3.59549 12.721713,10.5073 14.811099,19.86314 0.124952,0.55952 -0.021,0.64744 -0.685433,0.41292 z"
       id="path73317"
       transform="matrix(0.75000002,0,0,-0.75000002,0,283.465)" />
    <path
       style="fill:#ffffff;stroke-width:0.200187"
       d="m 44.6736,222.55806 c -1.251488,-1.98362 -2.022356,-4.05834 -2.339968,-6.2978 -0.359701,-2.53622 0.389541,-5.78151 1.964276,-8.50812 l 0.718028,-1.24325 0.488873,0.71944 c 0.741458,1.09115 1.763512,3.4139 2.142871,4.86995 0.495589,1.90216 0.32281,5.19479 -0.376815,7.1809 -0.476995,1.35411 -1.82872,4.02959 -2.035855,4.02959 -0.04828,0 -0.300916,-0.33782 -0.56141,-0.75071 z"
       id="path73319"
       transform="matrix(0.75000002,0,0,-0.75000002,0,283.465)" />
    <path
       style="fill:#ffffff;stroke-width:0.200187"
       d="m 105.82037,310.88357 c -1.50359,-1.41794 -3.43821,-3.78522 -4.57869,-5.60267 -2.580778,-4.1127 -3.793828,-9.17069 -3.273313,-13.64857 0.385802,-3.31897 0.272705,-3.26351 2.367103,-1.16078 4.8055,4.82463 7.31021,11.16129 7.24026,18.31713 -0.0124,1.26618 -0.0797,2.56922 -0.1497,2.89564 l -0.1272,0.59349 z"
       id="path73321"
       transform="matrix(0.75000002,0,0,-0.75000002,0,283.465)" />
    <path
       style="fill:#ffffff;stroke-width:0.200187"
       d="m 93.187118,315.67043 c -4.484979,-0.57189 -8.246708,-1.95181 -11.811042,-4.33265 -1.562327,-1.04357 -3.803556,-2.88686 -3.803556,-3.12821 0,-0.0765 0.743195,-0.37837 1.651544,-0.67079 7.478018,-2.40737 14.831467,-1.27812 21.745546,3.33941 1.58638,1.05945 4.02855,3.05606 4.02855,3.29356 0,0.20849 -1.73806,0.69543 -4.00374,1.12171 -1.688954,0.31776 -6.463607,0.5483 -7.807302,0.37697 z"
       id="path73323"
       transform="matrix(0.75000002,0,0,-0.75000002,0,283.465)" />
    <path
       style="fill:#ffffff;stroke-width:0.200187"
       d="m 181.36956,372.51615 c -6.61387,-0.39679 -8.42036,-0.52571 -10.9102,-0.7786 C 125.89675,367.21106 84.890253,346.79273 54.26157,313.8793 34.784091,292.94889 20.309281,267.48749 12.38886,240.22458 5.5556693,216.70403 3.4987942,192.13053 6.3230915,167.75683 10.050016,135.59345 22.248341,105.05363 41.743651,79.077631 52.932467,64.169396 66.760747,50.582233 81.576263,39.939558 l 2.50234,-1.797547 7.790617,-0.0032 c 4.284838,-0.0017 7.75308,0.03048 7.707205,0.07162 -0.04588,0.04114 -1.299549,0.816941 -2.785938,1.724008 -1.48639,0.907066 -4.233959,2.687613 -6.105708,3.956769 -35.601605,24.139991 -61.217843,60.559252 -71.634795,101.845012 -3.914266,15.51351 -5.527122,29.5834 -5.276593,46.0308 0.116226,7.63032 0.245759,9.87561 0.947728,16.4276 4.860589,45.36743 27.712139,87.36085 63.428259,116.55964 26.235452,21.44811 58.762782,34.95592 92.410072,38.37564 6.03717,0.61359 8.14769,0.73034 15.31432,0.84715 7.47617,0.12186 12.75664,-0.0579 19.21796,-0.65421 51.96701,-4.79598 98.91578,-32.53361 128.56029,-75.95421 15.26758,-22.36256 25.39456,-49.06605 28.7732,-75.87093 5.76919,-45.77053 -6.16446,-91.1181 -33.58426,-127.619301 C 315.87955,66.624201 299.49285,51.584278 281.43392,40.36765 l -3.4324,-2.131904 7.70768,-0.05242 7.70767,-0.05242 1.32996,0.940356 c 12.62546,8.926903 25.11824,20.520728 35.44668,32.896013 13.16625,15.7755 24.25519,35.144385 31.34578,54.751195 4.49505,12.42965 7.7363,25.87244 9.38816,38.93639 3.53456,27.95364 0.77829,55.52503 -8.22513,82.27692 -4.32558,12.85264 -10.73319,26.30534 -18.28219,38.38324 -7.33946,11.74268 -15.51579,21.98095 -25.71484,32.19976 -6.42991,6.44238 -11.33029,10.79045 -17.824,15.81517 -32.36945,25.04683 -72.10501,38.53138 -112.80546,38.2813 -3.13794,-0.0192 -6.15576,-0.0621 -6.70627,-0.0951 z"
       id="path73325"
       transform="matrix(0.75000002,0,0,-0.75000002,0,283.465)" />
    <path
       style="fill:#ffffff;stroke-width:0.200187"
       d="m 110.00284,328.6812 c -2.30095,-0.32952 -3.56712,-0.60232 -5.20487,-1.12141 -1.93428,-0.61309 -5.40505,-2.23006 -5.40505,-2.51813 0,-0.2376 2.92825,-1.93962 4.34139,-2.5234 6.64078,-2.74337 13.6666,-2.32788 20.76438,1.22797 1.33943,0.67102 1.71356,0.9412 1.50141,1.08422 -1.00463,0.67727 -3.78556,1.92177 -5.76524,2.58002 -3.33511,1.10893 -7.63388,1.6428 -10.23202,1.27073 z"
       id="path73327"
       transform="matrix(0.75000002,0,0,-0.75000002,0,283.465)" />
    <path
       style="fill:#ffffff;stroke-width:0.200187"
       d="m 126.03187,320.9983 c -2.38299,-1.41971 -3.66752,-2.42431 -5.6193,-4.3947 -2.98052,-3.00895 -4.90985,-6.30434 -5.8824,-10.04749 -0.48964,-1.88452 -0.90819,-5.37454 -0.64456,-5.37454 0.31338,0 2.1287,1.03984 3.48077,1.99384 4.12988,2.91397 7.40937,7.45396 9.13912,12.6518 0.68967,2.07244 1.39655,5.32736 1.27733,5.88161 -0.0474,0.2206 -0.48847,0.0416 -1.75096,-0.71052 z"
       id="path73329"
       transform="matrix(0.75000002,0,0,-0.75000002,0,283.465)" />
    <path
       style="fill:#ffffff;stroke-width:0.200187"
       d="m 138.19958,328.25205 c -4.34262,-4.60341 -5.1466,-14.05832 -1.19542,-14.05832 3.36357,0 8.35052,6.26644 8.92151,11.21048 l 0.12716,1.10103 -1.5596,0.005 c -1.20802,0.004 -1.7444,0.10248 -2.37931,0.43863 -0.8883,0.47031 -1.96883,1.58415 -2.17893,2.2461 -0.0722,0.22744 -0.20435,0.41353 -0.2937,0.41353 -0.0893,0 -0.73812,-0.61024 -1.44171,-1.35609 z"
       id="path73331"
       transform="matrix(0.75000002,0,0,-0.75000002,0,283.465)" />
    <path
       style="fill:#ffffff;stroke-width:0.200187"
       d="m 129.52109,341.23327 c -2.97014,-0.71679 -3.02601,-3.33334 -0.13778,-6.45297 2.50379,-2.7044 6.12972,-4.59318 9.23362,-4.80987 l 0.88817,-0.062 -0.051,1.13235 c -0.0773,1.71663 0.30566,2.71294 1.50788,3.92238 0.57459,0.57804 1.18571,1.05098 1.35805,1.05098 0.17233,0 0.31333,0.0704 0.31333,0.15641 0,0.3053 -2.31779,2.41667 -3.31881,3.02322 -2.78231,1.68591 -7.3323,2.63345 -9.79344,2.03951 z"
       id="path73333"
       transform="matrix(0.75000002,0,0,-0.75000002,0,283.465)" />
    <path
       style="fill:#ffffff;stroke-width:0.200187"
       d="m 149.94017,348.08878 c -1.37415,-0.71184 -4.05534,-3.45688 -5.09137,-5.21262 -0.94284,-1.59782 -1.69558,-3.76547 -1.90097,-5.47421 l -0.13397,-1.11451 1.21786,0.0881 c 2.02537,0.1465 3.9284,-0.86128 4.80302,-2.54351 l 0.37466,-0.7206 1.29759,1.32203 c 2.16379,2.20454 3.6232,5.69459 3.87534,9.26752 0.28833,4.0856 -1.53974,5.89131 -4.44216,4.38781 z"
       id="path73335"
       transform="matrix(0.75000002,0,0,-0.75000002,0,283.465)" />
    <path
       style="fill:#ffffff;stroke-width:0.200187"
       d="m 149.39987,331.82511 c 0.14607,-2.01946 -0.99912,-4.17179 -2.56476,-4.8203 -0.32912,-0.13632 -0.5984,-0.31669 -0.5984,-0.40081 0,-0.0841 0.58794,-0.70294 1.30654,-1.37515 3.7162,-3.47633 11.18547,-4.98914 13.45039,-2.72422 1.33917,1.33918 0.66698,3.34034 -2.02202,6.01965 -2.49836,2.48936 -5.54056,4.07277 -8.44524,4.39559 l -1.21547,0.13509 z"
       id="path73337"
       transform="matrix(0.75000002,0,0,-0.75000002,0,283.465)" />
    <path
       style="fill:#ffffff;stroke-width:0.200187"
       d="m 187.17498,345.3551 c -1.2487,-0.41365 -1.94135,-0.83647 -2.73134,-1.66731 -1.58581,-1.66782 -2.12166,-3.86996 -1.45962,-5.99852 0.51782,-1.66487 2.29903,-3.44638 3.96337,-3.96402 2.85251,-0.8872 5.84989,0.42442 7.28927,3.18972 0.69746,1.33995 0.74882,3.54813 0.11465,4.92909 -1.2663,2.75746 -4.57075,4.37417 -7.17633,3.51104 z"
       id="path73339"
       transform="matrix(0.75000002,0,0,-0.75000002,0,283.465)" />
    <path
       style="fill:#ffffff;stroke-width:0.200187"
       d="m 227.01223,332.71584 c -4.36756,-0.95871 -9.0758,-4.73792 -9.94326,-7.98125 -0.34936,-1.30622 0.0941,-2.20519 1.36525,-2.76747 3.33981,-1.47736 9.71488,0.27865 13.02356,3.58732 1.05865,1.05865 1.09581,1.12875 0.67984,1.28263 -0.85338,0.31569 -1.76425,1.17961 -2.34031,2.21969 -0.49653,0.89651 -0.58139,1.26619 -0.57458,2.50321 0.008,1.42709 -5e-4,1.45109 -0.50069,1.43544 -0.27978,-0.009 -1.0492,-0.13456 -1.70981,-0.27957 z"
       id="path73341"
       transform="matrix(0.75000002,0,0,-0.75000002,0,283.465)" />
    <path
       style="fill:#ffffff;stroke-width:0.200187"
       d="m 225.46096,348.22929 c -1.63639,-1.28718 -1.64623,-5.47079 -0.0226,-9.61273 0.65086,-1.66037 2.06683,-3.79476 3.10961,-4.68734 l 0.81186,-0.69492 0.62789,0.93366 c 0.34696,0.51593 1.06861,1.20497 1.61295,1.54006 0.87956,0.54145 1.15529,0.60639 2.57463,0.60639 h 1.58958 l -0.12571,1.22962 c -0.23105,2.25989 -1.28164,4.67997 -3.0345,6.9901 -2.50534,3.30183 -5.60526,4.9053 -7.1437,3.69516 z"
       id="path73343"
       transform="matrix(0.75000002,0,0,-0.75000002,0,283.465)" />
    <path
       style="fill:#ffffff;stroke-width:0.200187"
       d="m 245.12916,341.29143 c -1.65883,-0.31498 -3.68112,-0.99751 -5.02113,-1.69467 -1.53433,-0.79824 -3.993,-2.80491 -3.98096,-3.2491 0.003,-0.12839 0.39968,-0.47199 0.88045,-0.76355 1.31896,-0.79989 1.98097,-2.07388 2.11127,-4.06298 l 0.10485,-1.60076 0.99749,0.0621 c 1.40529,0.0874 3.78105,0.88353 5.28989,1.7726 1.57234,0.92649 4.17326,3.33188 4.98732,4.61237 1.94544,3.06014 0.82819,4.87147 -3.06702,4.97238 -0.99093,0.0257 -2.0269,0.004 -2.30216,-0.0484 z"
       id="path73345"
       transform="matrix(0.75000002,0,0,-0.75000002,0,283.465)" />
    <path
       style="fill:#ffffff;stroke-width:0.200187"
       d="m 238.64704,329.06099 c -0.37621,-0.71833 -1.44027,-1.71365 -2.32611,-2.17584 -0.48824,-0.25474 -1.14811,-0.36774 -2.17659,-0.37274 l -1.47592,-0.007 0.10918,-1.30557 c 0.35264,-4.2165 4.54532,-9.91134 7.97165,-10.82774 2.43828,-0.65214 3.5381,0.96405 3.32408,4.88478 -0.17911,3.28137 -1.48777,6.64601 -3.46255,8.90245 -1.27325,1.45485 -1.59639,1.60325 -1.96374,0.90183 z"
       id="path73347"
       transform="matrix(0.75000002,0,0,-0.75000002,0,283.465)" />
    <path
       style="fill:#ffffff;stroke-width:0.200187"
       d="m 250.86424,321.05241 c 0.24404,-1.89421 1.25471,-5.47027 2.12903,-7.53314 1.98736,-4.68897 5.78163,-9.0267 10.10639,-11.55394 0.73766,-0.43107 1.42354,-0.78376 1.52416,-0.78376 0.29568,0 -0.006,3.35922 -0.46145,5.14445 -1.01567,3.97798 -2.91935,7.19148 -6.20956,10.48202 -1.98522,1.98542 -4.29463,3.71526 -6.36409,4.76695 l -0.84728,0.43059 z"
       id="path73349"
       transform="matrix(0.75000002,0,0,-0.75000002,0,283.465)" />
    <path
       style="fill:#ffffff;stroke-width:0.200187"
       d="m 262.84573,328.52587 c -3.21685,-0.54004 -6.978,-1.81912 -9.37198,-3.18718 l -1.1643,-0.66535 1.1643,-0.61805 c 4.63509,-2.46045 10.23673,-3.70492 14.63021,-3.25026 1.07168,0.11091 2.8043,0.42752 3.85028,0.70358 1.9509,0.5149 5.85045,2.29814 6.88731,3.14952 l 0.58141,0.4774 -1.88263,0.9266 c -3.5679,1.75607 -6.69615,2.54108 -10.59077,2.65768 -1.52598,0.0457 -3.1272,-0.03 -4.10383,-0.19394 z"
       id="path73351"
       transform="matrix(0.75000002,0,0,-0.75000002,0,283.465)" />
    <path
       style="fill:#ffffff;stroke-width:0.200187"
       d="m 279.46126,315.57725 c -1.98689,-0.24104 -5.90552,-1.15989 -5.90552,-1.38473 0,-0.23483 2.84532,-2.50163 4.4342,-3.53262 3.08995,-2.00501 6.84561,-3.54192 9.97927,-4.08377 2.07541,-0.35886 5.92763,-0.31101 8.10758,0.10071 1.99656,0.37708 4.90459,1.27787 4.90459,1.51925 0,0.26664 -2.03694,2.00341 -3.54188,3.01993 -2.86005,1.93184 -5.88689,3.23802 -9.2701,4.00035 -2.03314,0.45813 -6.41105,0.63956 -8.70814,0.36088 z"
       id="path73353"
       transform="matrix(0.75000002,0,0,-0.75000002,0,283.465)" />
    <path
       style="fill:#ffffff;stroke-width:0.200187"
       d="m 271.05924,310.29958 c -0.43221,-5.76484 1.23123,-11.84888 4.57206,-16.72237 1.09657,-1.59964 4.24794,-4.88186 4.52364,-4.71146 0.34405,0.21263 0.66098,3.62457 0.54865,5.90647 -0.27699,5.62692 -2.57191,10.54429 -7.12397,15.2647 -1.14295,1.18522 -2.14568,2.15494 -2.2283,2.15494 -0.0826,0 -0.21406,-0.85153 -0.29208,-1.89228 z"
       id="path73355"
       transform="matrix(0.75000002,0,0,-0.75000002,0,283.465)" />
    <path
       style="fill:#ffffff;stroke-width:0.200187"
       d="m 309.04613,297.64168 c -0.63686,-0.12852 -2.3087,-1.69518 -3.06244,-2.8698 -0.86708,-1.35123 -1.6852,-3.40967 -2.10487,-5.29602 -0.37575,-1.68894 -0.33688,-5.13304 0.0694,-6.14584 l 0.21474,-0.53535 1.0138,0.38521 c 1.89243,0.71907 4.37323,0.27312 5.4947,-0.98772 0.20974,-0.23581 0.44492,-0.42875 0.52262,-0.42875 0.30036,0 1.42685,2.45032 1.80346,3.92287 0.54082,2.11456 0.54058,5.45505 -5.4e-4,7.57079 -0.81958,3.20454 -2.20108,4.73772 -3.95085,4.38461 z"
       id="path73357"
       transform="matrix(0.75000002,0,0,-0.75000002,0,283.465)" />
    <path
       style="fill:#ffffff;stroke-width:0.200187"
       d="m 292.8738,284.44208 c -1.75944,-0.366 -3.72261,-1.30469 -4.39176,-2.09992 -0.58463,-0.6948 -0.6743,-1.68768 -0.23003,-2.54682 0.8413,-1.62688 4.11889,-3.64874 7.22422,-4.45643 1.89377,-0.49256 4.90373,-0.5876 6.45059,-0.20367 l 1.04553,0.2595 -0.43282,0.83214 c -0.32317,0.62131 -0.43283,1.18716 -0.43283,2.23344 0,1.51035 0.37818,2.51074 1.34073,3.5467 l 0.50536,0.54389 -0.63631,0.39326 c -2.63934,1.6312 -6.87866,2.23929 -10.44268,1.49791 z"
       id="path73359"
       transform="matrix(0.75000002,0,0,-0.75000002,0,283.465)" />
    <path
       style="fill:#ffffff;stroke-width:0.200187"
       d="m 302.49215,274.29044 c -1.28902,-2.19955 -1.89939,-5.54328 -1.54734,-8.47662 0.41267,-3.43835 1.50595,-5.78529 2.98234,-6.40217 0.64714,-0.27039 0.8052,-0.26741 1.58351,0.0298 1.20403,0.45982 2.52712,2.00924 3.57908,4.19131 1.06973,2.21894 1.47409,3.68926 1.63406,5.94178 0.11938,1.68085 -0.19049,4.26945 -0.53668,4.48341 -0.0862,0.0533 -0.54876,-0.081 -1.02785,-0.29837 -1.64521,-0.74655 -3.78828,-0.44364 -5.15838,0.72911 -0.42955,0.36769 -0.83045,0.66852 -0.89088,0.66852 -0.0604,0 -0.33847,-0.39006 -0.61786,-0.8668 z"
       id="path73361"
       transform="matrix(0.75000002,0,0,-0.75000002,0,283.465)" />
    <path
       style="fill:#ffffff;stroke-width:0.200187"
       d="m 313.89345,282.0509 c -0.22021,-0.0502 -0.87332,-0.1869 -1.45136,-0.30381 -0.57804,-0.11692 -1.05098,-0.23211 -1.05098,-0.25599 0,-0.0239 0.18017,-0.3968 0.40038,-0.82872 0.2818,-0.55273 0.40037,-1.18054 0.40037,-2.11984 0,-1.5179 -0.33023,-2.46291 -1.21129,-3.46639 l -0.61158,-0.69655 0.46101,-0.30095 c 2.52904,-1.65094 6.69886,-2.32046 10.20253,-1.63815 3.80273,0.74055 5.63882,2.13581 5.28594,4.01682 -0.33709,1.79689 -3.79182,4.17789 -7.40144,5.10107 -1.56052,0.39912 -4.26847,0.6646 -5.02358,0.49251 z"
       id="path73363"
       transform="matrix(0.75000002,0,0,-0.75000002,0,283.465)" />
    <path
       style="fill:#ffffff;stroke-width:0.200187"
       d="m 320.12338,261.8062 c 0.73758,-1.79286 2.59195,-5.10345 3.83739,-6.85086 4.47278,-6.2755 10.75746,-9.95862 18.62586,-10.91561 1.04384,-0.12696 1.06428,-0.1197 0.92806,0.32967 -0.30274,0.99869 -1.92066,4.14297 -2.86314,5.56426 -3.96925,5.98572 -9.73572,9.99718 -17.08115,11.88254 -1.02831,0.26393 -2.29511,0.54114 -2.81511,0.61601 l -0.94546,0.13614 z"
       id="path73365"
       transform="matrix(0.75000002,0,0,-0.75000002,0,283.465)" />
    <path
       style="fill:#ffffff;stroke-width:0.200187"
       d="m 317.0636,260.09315 c -0.77599,-1.2264 -1.96069,-3.8166 -2.54083,-5.55519 -0.9424,-2.82423 -1.22664,-4.67605 -1.21373,-7.90739 0.0137,-3.43472 0.41377,-5.7141 1.49162,-8.49919 l 0.65513,-1.69283 0.68918,0.79199 c 0.95845,1.10142 2.94509,5.25482 3.49079,7.29806 0.39328,1.47255 0.45411,2.18664 0.45192,5.30496 -0.002,3.23886 -0.0569,3.8201 -0.53985,5.7459 -0.49757,1.98405 -1.67146,5.36449 -1.86286,5.36449 -0.0457,0 -0.32528,-0.38286 -0.62137,-0.8508 z"
       id="path73367"
       transform="matrix(0.75000002,0,0,-0.75000002,0,283.465)" />
    <path
       style="fill:#ffffff;stroke-width:0.200187"
       d="m 327.0528,238.77322 c -4.49392,-5.40272 -6.79015,-12.43057 -6.08781,-18.63242 0.13311,-1.17535 0.36514,-2.58742 0.51563,-3.13793 l 0.27361,-1.00094 1.33575,1.39128 c 5.24162,5.45951 7.059,13.02778 5.20613,21.68029 -0.0766,0.35784 -0.20976,0.65061 -0.29585,0.65061 -0.0861,0 -0.51244,-0.4279 -0.94746,-0.95089 z"
       id="path73369"
       transform="matrix(0.75000002,0,0,-0.75000002,0,283.465)" />
    <path
       style="fill:#ffffff;stroke-width:0.200187"
       d="m 330.60922,240.39642 c 4.4e-4,-1.14204 1.68886,-6.08907 2.87321,-8.41844 1.11681,-2.19651 3.05803,-4.83997 4.90956,-6.68557 2.15879,-2.15189 4.15188,-3.57138 6.88376,-4.90262 1.92825,-0.93964 5.08016,-2.02394 5.28574,-1.81836 0.19138,0.19138 -0.69771,3.48109 -1.46969,5.43799 -2.81948,7.14707 -8.12313,12.47792 -15.63724,15.71743 -2.43289,1.04888 -2.84552,1.14598 -2.84534,0.66957 z"
       id="path73371"
       transform="matrix(0.75000002,0,0,-0.75000002,0,283.465)" />
    <path
       style="fill:#ffffff;stroke-width:0.200187"
       d="m 333.03541,222.74203 c -1.27705,-1.79345 -2.42633,-5.3778 -2.42633,-7.56718 0,-2.00102 0.57604,-4.16678 1.69289,-6.36479 0.5553,-1.09285 1.11568,-2.02153 1.24529,-2.06374 0.34939,-0.11377 2.00815,3.40273 2.46885,5.23385 0.44782,1.77992 0.50167,3.28631 0.18004,5.03598 -0.28207,1.5344 -1.20813,3.90316 -2.05746,5.2627 l -0.66972,1.07206 z"
       id="path73373"
       transform="matrix(0.75000002,0,0,-0.75000002,0,283.465)" />
    <path
       style="fill:#ffffff;stroke-width:0.200187"
       d="m 341.98243,175.56853 -9.5462,-2.23638 -5.26765,0.65451 c -2.8972,0.35999 -5.54177,0.69584 -5.87681,0.74635 l -0.60916,0.0918 -0.35315,-2.80525 c -0.19423,-1.54289 -0.31951,-2.83889 -0.2784,-2.88 0.0411,-0.0411 2.67965,-0.39598 5.86343,-0.78861 l 5.78868,-0.71387 8.69111,-4.4048 c 4.78011,-2.42264 8.7549,-4.33252 8.83287,-4.24417 0.24258,0.27485 1.0482,5.69927 0.86929,5.85309 -0.0931,0.0801 -3.09704,1.2969 -6.67539,2.70408 -3.57834,1.40718 -6.54361,2.59346 -6.58949,2.63618 -0.0459,0.0427 -0.0459,0.11473 0,0.16002 0.0459,0.0453 3.23636,0.41907 7.08996,0.8306 3.85361,0.41154 7.06547,0.80238 7.13749,0.86854 0.12949,0.11897 0.63786,5.63703 0.52705,5.72083 -0.0316,0.0239 -4.35322,-0.96295 -9.60363,-2.19296 z"
       id="path73375"
       transform="matrix(0.75000002,0,0,-0.75000002,0,283.465)" />
    <path
       style="fill:#ffffff;stroke-width:0.200187"
       d="m 316.68287,153.76677 c -0.044,-0.12277 -0.4263,-1.35337 -0.84955,-2.73466 l -0.76955,-2.51144 11.99963,-3.688 c 6.59979,-2.0284 12.03552,-3.78153 12.07939,-3.89585 0.0439,-0.11432 -0.28097,-1.2816 -0.72186,-2.59396 -0.4409,-1.31235 -0.77993,-2.40239 -0.75342,-2.42229 0.26822,-0.2014 4.88386,-1.43864 4.97701,-1.33412 0.22156,0.24862 4.78888,15.51195 4.67561,15.62522 -0.0603,0.0603 -1.18683,0.44154 -2.5033,0.84711 l -2.3936,0.73741 -0.19477,-0.72782 c -0.10713,-0.4003 -0.40813,-1.53358 -0.66889,-2.5184 -0.26077,-0.98482 -0.5619,-1.81984 -0.66919,-1.8556 -0.10729,-0.0358 -5.57987,1.59112 -12.16129,3.6153 -7.60642,2.33943 -11.99537,3.599 -12.04622,3.4571 z"
       id="path73377"
       transform="matrix(0.75000002,0,0,-0.75000002,0,283.465)" />
    <path
       style="fill:#ffffff;stroke-width:0.200187"
       d="m 310.41194,135.99747 c -0.10119,-0.25892 -0.63107,-1.42309 -1.1775,-2.58703 l -0.99352,-2.11626 13.71025,-6.39169 c 7.54063,-3.51543 13.76709,-6.41338 13.83656,-6.43989 0.20993,-0.0801 2.46068,5.00118 2.28823,5.16588 -0.13043,0.12456 -26.40263,12.41809 -27.23258,12.74291 -0.1361,0.0533 -0.33025,-0.11499 -0.43144,-0.37392 z"
       id="path73379"
       transform="matrix(0.75000002,0,0,-0.75000002,0,283.465)" />
    <path
       style="fill:#ffffff;stroke-width:0.200187"
       d="m 304.93942,120.94414 c -2.46864,-0.84132 -4.60186,-2.71263 -6.12292,-5.37118 -0.79002,-1.3808 -1.7698,-4.31837 -1.52233,-4.56421 0.10117,-0.10049 1.12533,-0.58799 2.27593,-1.08334 l 2.092,-0.90062 0.42288,1.43991 c 1.03417,3.52138 2.77826,5.54375 4.78091,5.54375 0.9723,0 1.57419,-0.26733 2.51448,-1.11683 1.05667,-0.95464 1.34046,-1.99759 1.49368,-5.48934 0.13868,-3.16033 0.48724,-4.81738 1.35632,-6.44794 1.54348,-2.89587 5.07223,-4.795407 8.34625,-4.492829 3.60344,0.333022 7.19092,3.722769 8.34925,7.889049 0.19128,0.68798 0.31043,1.27855 0.26479,1.31237 -0.0456,0.0338 -1.08772,0.47397 -2.31572,0.97811 l -2.23274,0.91662 -0.13013,-0.86783 c -0.0716,-0.4773 -0.39981,-1.40748 -0.7294,-2.06705 -1.34842,-2.69843 -3.71642,-3.53795 -5.66218,-2.0074 -1.0304,0.81051 -1.18748,1.41389 -1.35044,5.18727 -0.21533,4.9859 -0.75073,6.61382 -2.8646,8.70997 -2.62649,2.60445 -5.87421,3.48521 -8.96603,2.43152 z"
       id="path73381"
       transform="matrix(0.75000002,0,0,-0.75000002,0,283.465)" />
    <path
       style="fill:#ffffff;stroke-width:0.200187"
       d="m 291.42579,105.00308 c -2.3895,-2.90011 -2.28628,-2.54963 -1.22055,-4.14424 0.50205,-0.7512 1.69232,-2.356753 2.64504,-3.567885 2.87731,-3.657772 3.3129,-5.035321 2.11505,-6.688904 -0.33605,-0.463899 -0.7379,-0.815231 -0.89302,-0.780737 -0.15511,0.03449 -1.87665,1.549106 -3.82566,3.365804 -1.949,1.816698 -3.89133,3.604598 -4.3163,3.973108 l -0.77266,0.670021 -1.94737,-1.855177 c -1.07106,-1.020346 -1.97366,-1.918691 -2.00578,-1.99632 -0.066,-0.159437 21.84215,-20.570249 22.24532,-20.724961 0.35284,-0.135399 5.43158,5.09455 6.48087,6.673825 1.30813,1.96885 1.73984,3.263694 1.75106,5.252018 0.008,1.44209 -0.0727,1.877216 -0.53008,2.853196 -0.98547,2.102862 -3.43064,4.275904 -5.65173,5.022749 -1.18792,0.399437 -3.32594,0.430527 -4.53724,0.06598 l -0.88302,-0.26575 -0.001,1.717107 c -10e-4,1.543064 -0.0658,1.838847 -0.63796,2.918228 -0.3502,0.660617 -1.45037,2.327175 -2.44482,3.703458 -0.99446,1.37629 -2.23862,3.24164 -2.76481,4.14523 -0.52619,0.90359 -1.00239,1.64678 -1.05823,1.65155 -0.0558,0.005 -0.84192,-0.88998 -1.74686,-1.9883 z m 11.45798,-16.690388 c 1.26499,-0.589081 2.93439,-2.383828 3.2751,-3.521012 0.4001,-1.335397 -0.0626,-2.771666 -1.23916,-3.846262 -0.34341,-0.313652 -0.68933,-0.570278 -0.76871,-0.570278 -0.22285,0 -6.66506,6.037119 -6.73208,6.308759 -0.0746,0.302482 1.22969,1.459919 2.0455,1.81515 0.94632,0.41206 2.29177,0.338732 3.41935,-0.186357 z"
       id="path73383"
       transform="matrix(0.75000002,0,0,-0.75000002,0,283.465)" />
    <path
       style="fill:#ffffff;stroke-width:0.200187"
       d="m 269.01087,83.516783 c -2.77493,-2.113263 -5.14831,-3.945556 -5.27418,-4.07176 -0.17181,-0.172281 2.04891,-3.252701 8.91162,-12.361556 5.02725,-6.672652 9.19766,-12.132095 9.26757,-12.132095 0.20356,0 10.2578,7.621569 10.25211,7.771566 -0.003,0.07471 -0.65999,1.004916 -1.46035,2.067135 l -1.45519,1.931308 -2.94981,-2.208864 c -1.6224,-1.214875 -2.97868,-2.174048 -3.01397,-2.131495 -1.0528,1.269666 -4.1465,5.6233 -4.09675,5.765179 0.038,0.108457 1.26034,1.089287 2.71623,2.179622 l 2.64707,1.982427 -1.34586,1.824079 c -0.74022,1.003243 -1.39802,1.827368 -1.46177,1.831385 -0.0638,0.004 -1.31781,-0.893533 -2.7868,-1.994562 -1.46898,-1.10103 -2.72513,-2.001872 -2.79145,-2.001872 -0.12917,0 -5.01585,6.480162 -5.01585,6.651458 0,0.05621 1.392,1.160049 3.09334,2.45299 l 3.09333,2.350801 -1.49915,1.979581 c -0.82453,1.08877 -1.56342,1.974494 -1.64198,1.968276 -0.0786,-0.0062 -2.41322,-1.740339 -5.18816,-3.853603 z"
       id="path73385"
       transform="matrix(0.75000002,0,0,-0.75000002,0,283.465)" />
    <path
       style="fill:#ffffff;stroke-width:0.200187"
       d="m 248.88839,70.759679 c -1.74583,-0.884661 -2.7127,-1.483625 -2.65313,-1.6436 0.0515,-0.138436 1.80005,-6.859825 3.88558,-14.936425 2.08552,-8.076599 3.83614,-14.728998 3.89025,-14.783109 0.0762,-0.07616 5.46968,2.228189 5.6798,2.426666 0.0344,0.03252 -5.48081,16.955178 -7.45916,22.887285 -0.31268,0.937581 1.07517,-0.878543 7.30506,-9.559294 l 7.03998,-9.809529 0.837,0.487631 c 0.46036,0.268196 1.67599,0.976918 2.70142,1.574936 l 1.86441,1.087306 -9.93979,11.787914 c -5.46689,6.483353 -10.04437,11.806859 -10.17218,11.830017 -0.12781,0.02316 -1.46847,-0.584252 -2.97924,-1.349798 z"
       id="path73387"
       transform="matrix(0.75000002,0,0,-0.75000002,0,283.465)" />
    <path
       style="fill:#ffffff;stroke-width:0.200187"
       d="m 231.18006,63.293431 c -1.34109,-0.459273 -2.49916,-0.897088 -2.57349,-0.972923 -0.10706,-0.10922 9.3213,-28.296687 9.64316,-28.829671 0.0467,-0.07733 1.28873,0.27507 2.76007,0.783115 l 2.67516,0.923719 -3.00174,8.825868 c -1.65095,4.854228 -3.85894,11.370748 -4.90664,14.481155 -1.04771,3.110408 -1.9619,5.648197 -2.03155,5.639533 -0.0696,-0.0087 -1.22388,-0.391524 -2.56497,-0.850796 z"
       id="path73389"
       transform="matrix(0.75000002,0,0,-0.75000002,0,283.465)" />
    <path
       style="fill:#ffffff;stroke-width:0.200187"
       d="m 217.00287,59.396282 c -1.32124,-0.278346 -2.42963,-0.526372 -2.46311,-0.551167 -0.0335,-0.0248 -0.99549,-4.973454 -2.13783,-10.997021 -1.14234,-6.023567 -2.12401,-10.998977 -2.1815,-11.056467 -0.16078,-0.160779 -0.21808,0.178991 -1.80823,10.721704 -0.81945,5.432981 -1.51893,9.906904 -1.55439,9.942048 -0.0655,0.06488 -4.82,-0.486526 -4.90198,-0.568503 -0.0785,-0.07846 5.07274,-29.963396 5.18388,-30.074539 0.0904,-0.09043 5.00783,0.467757 5.07313,0.575863 0.0124,0.02059 0.99686,4.947029 2.1876,10.947639 1.19074,6.00061 2.19584,10.947735 2.23356,10.993612 0.0377,0.04588 0.11695,0.03505 0.17605,-0.02405 0.0591,-0.0591 0.75725,-4.735974 1.55145,-10.393049 l 1.44399,-10.285591 2.40225,0.48288 c 1.32123,0.265584 2.43237,0.505908 2.46919,0.534052 0.10422,0.07966 -5.05889,30.313809 -5.17172,30.284591 -0.055,-0.01425 -1.1811,-0.253657 -2.50234,-0.532002 z"
       id="path73391"
       transform="matrix(0.75000002,0,0,-0.75000002,0,283.465)" />
    <path
       style="fill:#ffffff;stroke-width:0.200187"
       d="m 180.92925,56.137095 c -3.12502,-0.99031 -5.03492,-3.868571 -5.64525,-8.507515 -0.23512,-1.787049 -0.9352,-21.057213 -0.77097,-21.221439 0.19348,-0.193479 5.3955,-0.523983 5.54539,-0.352321 0.081,0.09278 0.2984,4.898118 0.48306,10.678522 0.21762,6.811838 0.42774,10.897233 0.59718,11.610855 0.49916,2.102309 1.20007,2.969518 2.546,3.150044 1.16775,0.156629 2.05913,-0.352889 2.61071,-1.492309 0.61851,-1.277672 0.6547,-3.532778 0.23624,-14.719966 l -0.35756,-9.558954 2.85267,1.8e-5 c 1.56896,10e-6 2.8615,0.02254 2.8723,0.05007 0.0108,0.02753 0.17994,4.464174 0.37586,9.859218 0.36921,10.167145 0.31903,12.529725 -0.31228,14.701331 -1.20794,4.155175 -3.98866,6.238971 -8.2829,6.206981 -0.91614,-0.0068 -1.99718,-0.165821 -2.75045,-0.40453 z"
       id="path73393"
       transform="matrix(0.75000002,0,0,-0.75000002,0,283.465)" />
    <path
       style="fill:#ffffff;stroke-width:0.200187"
       d="m 145.3886,62.551916 c -5.27734,-0.888617 -9.12832,-5.451603 -11.08343,-13.132648 -0.75929,-2.982997 -0.80305,-6.626841 -0.10668,-8.88137 1.10111,-3.564875 3.09941,-5.953752 6.25581,-7.478535 1.983,-0.957946 4.54482,-1.605304 5.9095,-1.493299 l 0.77375,0.06351 0.23126,2.001871 c 0.35664,3.087361 0.38778,2.902714 -0.48948,2.902714 -1.02601,0 -2.84263,0.491335 -4.01714,1.086505 -2.4944,1.264011 -3.73341,4.296896 -3.23253,7.912724 0.79075,5.708387 3.35959,10.50163 6.28269,11.722979 1.3931,0.582077 4.54971,0.16274 4.26961,-0.567194 -0.0562,-0.146441 -0.57127,-1.745928 -1.1446,-3.554413 -0.57333,-1.808486 -1.07185,-3.319855 -1.10781,-3.358598 -0.0532,-0.05724 -1.40717,0.340907 -2.40947,0.708508 -0.20258,0.0743 -1.65084,-4.271553 -1.46735,-4.403131 0.21509,-0.154237 7.41007,-2.385646 7.47426,-2.318022 0.0404,0.04261 1.16433,3.499906 2.49752,7.682881 l 2.42398,7.605408 -0.45154,0.350011 c -0.78608,0.609338 -3.80446,2.088945 -5.15593,2.527437 -0.71567,0.232203 -1.93181,0.512031 -2.70253,0.621839 -1.55665,0.221784 -1.43789,0.221748 -2.74989,8.01e-4 z"
       id="path73395"
       transform="matrix(0.75000002,0,0,-0.75000002,0,283.465)" />
    <path
       style="fill:#ffffff;stroke-width:0.200187"
       d="m 109.32735,64.049702 c -4.0581,-7.327446 -7.3454,-13.352665 -7.30513,-13.389373 0.0403,-0.03671 1.03956,-0.662039 2.22064,-1.389621 l 2.14742,-1.322878 5.96016,4.936834 c 3.27809,2.715259 6.89478,5.754924 8.03708,6.754812 2.61688,2.290615 3.22918,2.784416 3.32893,2.684665 0.0439,-0.04385 -0.51384,-1.022512 -1.23932,-2.1748 -2.98871,-4.746996 -4.52444,-7.319935 -6.84889,-11.474558 -1.34621,-2.406146 -2.41945,-4.399236 -2.38498,-4.42909 0.0345,-0.02985 1.02373,-0.56507 2.19836,-1.189369 l 2.1357,-1.135091 1.09727,1.960812 c 4.72627,8.445842 13.74921,24.763458 13.74921,24.864883 0,0.06903 -1.0184,0.632441 -2.26312,1.252028 l -2.26312,1.126521 -5.18972,-4.19927 c -6.27327,-5.076023 -7.21993,-5.888034 -9.84999,-8.449014 -1.12727,-1.097657 -2.10248,-1.942831 -2.16715,-1.878163 -0.0647,0.06467 0.95979,1.904941 2.27657,4.089498 3.51321,5.828457 8.10142,14.108876 7.91087,14.276881 -0.32146,0.283435 -3.86671,2.406924 -4.01846,2.406924 -0.0847,0 -3.47424,-5.995185 -7.53233,-13.322631 z"
       id="path73397"
       transform="matrix(0.75000002,0,0,-0.75000002,0,283.465)" />
    <path
       style="fill:#ffffff;stroke-width:0.200187"
       d="M 88.531381,80.211833 C 84.48586,72.635015 81.175889,66.384179 81.175889,66.321087 c 0,-0.174736 5.009401,-4.363164 5.218386,-4.363164 0.100489,0 5.675411,4.405604 12.388716,9.79023 l 12.206009,9.790231 -2.26156,1.698702 -2.26156,1.6987 -2.18521,-1.80368 c -1.20188,-0.992024 -2.47665,-2.027834 -2.83284,-2.301798 l -0.64761,-0.498117 -2.104959,1.765624 c -1.157729,0.971092 -2.104961,1.841524 -2.104961,1.934288 0,0.09277 0.770404,1.523418 1.712009,3.179226 0.941606,1.655808 1.684801,3.077894 1.651544,3.160191 -0.108456,0.268391 -3.711188,3.616347 -3.891546,3.616347 -0.09649,0 -3.485406,-6.199216 -7.530926,-13.776034 z m 7.36445,-1.478095 c 1.348458,-1.142255 1.64886,-1.490861 1.448162,-1.680543 -0.139274,-0.13163 -1.387925,-1.217204 -2.77478,-2.412387 -1.386855,-1.195183 -3.574495,-3.10834 -4.861423,-4.251459 -1.286927,-1.143119 -2.392682,-2.025583 -2.457235,-1.961031 -0.06455,0.06455 1.05344,2.080842 2.484426,4.480644 1.430986,2.399803 2.977262,5.016388 3.436169,5.814634 0.458907,0.798247 0.876883,1.451357 0.928835,1.451357 0.05195,0 0.860082,-0.648547 1.795846,-1.441215 z"
       id="path73399"
       transform="matrix(0.75000002,0,0,-0.75000002,0,283.465)" />
    <path
       style="fill:#ffffff;stroke-width:0.200187"
       d="M 81.603118,101.2309 77.18389,97.463642 68.519924,94.188004 c -4.765182,-1.8016 -8.957145,-3.395786 -9.315473,-3.542634 l -0.651507,-0.266996 1.840258,-2.29909 c 1.012143,-1.2645 1.911464,-2.299091 1.998492,-2.299091 0.294678,0 9.062571,4.027121 10.949112,5.028961 1.030696,0.547347 1.948782,0.968488 2.04019,0.935869 0.09141,-0.03262 -0.592338,-1.031918 -1.519436,-2.220662 -1.998452,-2.562456 -6.698771,-9.093622 -6.698771,-9.308046 0,-0.148793 3.574995,-4.102048 3.791047,-4.192167 0.06193,-0.02583 2.274623,3.775933 4.917094,8.448369 l 4.804491,8.495336 4.541908,3.847265 c 4.466692,3.783552 4.536313,3.854312 4.20393,4.272852 -0.574885,0.72389 -3.308919,3.91019 -3.35518,3.91019 -0.02405,0 -2.032384,-1.69527 -4.462961,-3.76726 z"
       id="path73401"
       transform="matrix(0.75000002,0,0,-0.75000002,0,283.465)" />
    <path
       style="fill:#ffffff;stroke-width:0.200187"
       d="m 57.053338,123.5009 c -6.826382,-3.91215 -12.790916,-7.33523 -13.25452,-7.60683 l -0.842916,-0.49382 1.123777,-2.14819 c 0.618078,-1.18151 1.179616,-2.21331 1.247862,-2.29289 0.09642,-0.11244 20.52208,2.96807 22.096912,3.33255 1.158071,0.26803 -0.709877,-0.82485 -8.876251,-5.19322 -5.006087,-2.67787 -9.101976,-4.94367 -9.101976,-5.03511 0,-0.2448 2.379658,-4.06765 2.5328,-4.068869 0.11702,-9.32e-4 24.716977,13.971049 26.035181,14.787139 l 0.541781,0.33542 -1.438619,2.23963 c -1.180208,1.83733 -1.511259,2.22308 -1.842999,2.14748 -0.222406,-0.0507 -5.043713,-0.81509 -10.714014,-1.6987 -5.670301,-0.88361 -10.444765,-1.65428 -10.609919,-1.71262 -1.112893,-0.39306 1.337678,1.02735 9.008421,5.2215 4.789478,2.61875 8.748515,4.79622 8.797859,4.83881 0.108886,0.094 -2.0324,4.47064 -2.18442,4.46483 -0.05905,-0.002 -5.692578,-3.20496 -12.518959,-7.11711 z"
       id="path73403"
       transform="matrix(0.75000002,0,0,-0.75000002,0,283.465)" />
    <path
       style="fill:#ffffff;stroke-width:0.200187"
       d="m 46.614008,147.48812 -13.442137,-8.12626 1.090409,-3.11185 c 0.599725,-1.71152 1.118904,-3.14034 1.153731,-3.17517 0.08084,-0.0808 30.951929,4.09262 31.058044,4.19874 0.09337,0.0934 -1.680323,4.7886 -1.89337,5.01204 -0.0801,0.084 -1.668877,-0.0687 -3.530611,-0.33925 -1.861735,-0.27059 -3.41224,-0.46472 -3.445571,-0.43139 -0.241122,0.24112 -1.83489,5.21909 -1.710191,5.3416 0.08695,0.0854 1.464311,0.89247 3.060803,1.79343 1.596493,0.90096 2.919858,1.65203 2.940812,1.66906 0.118853,0.0965 -1.482378,5.20464 -1.64438,5.24574 -0.107472,0.0273 -6.244363,-3.60725 -13.637539,-8.07669 z m 5.930933,-4.91747 c 0.355404,-1.08045 0.614342,-1.99195 0.575422,-2.02555 -0.03892,-0.0336 -2.277832,-0.44191 -4.975354,-0.90737 -2.697521,-0.46546 -5.696709,-1.00696 -6.66486,-1.20335 -1.197866,-0.24299 -1.736467,-0.28483 -1.685758,-0.13097 0.04098,0.12435 0.923193,0.66731 1.960462,1.20658 1.03727,0.53926 3.685629,1.95558 5.885242,3.14738 2.199614,1.1918 4.057653,2.10185 4.128978,2.02233 0.07132,-0.0795 0.420465,-1.02859 0.775868,-2.10905 z"
       id="path73405"
       transform="matrix(0.75000002,0,0,-0.75000002,0,283.465)" />
    <path
       style="fill:#ffffff;stroke-width:0.200187"
       d="m 40.904531,178.09244 c -8.00102,-1.06068 -14.610896,-1.99209 -14.688612,-2.0698 -0.12497,-0.12497 0.260417,-5.37075 0.405808,-5.52374 0.03165,-0.0333 2.792391,0.29749 6.134983,0.73509 3.342592,0.43761 6.108165,0.76493 6.145717,0.72738 0.114801,-0.1148 0.88287,-6.1249 0.794086,-6.21368 -0.04567,-0.0457 -2.809823,-0.43761 -6.142554,-0.87096 -3.332731,-0.43336 -6.090291,-0.8187 -6.127911,-0.85632 -0.07745,-0.0774 0.899877,-5.43069 1.012942,-5.54836 0.07302,-0.076 30.151024,3.80008 30.288072,3.90314 0.08706,0.0655 -0.887069,5.46246 -1.007726,5.58312 -0.04653,0.0465 -2.817684,-0.27744 -6.158123,-0.71994 -3.340441,-0.44249 -6.181945,-0.76292 -6.314453,-0.71208 -0.225109,0.0864 -1.077263,6.05656 -0.885344,6.20271 0.04407,0.0336 2.854062,0.42629 6.244422,0.87273 3.39036,0.44644 6.19991,0.84733 6.243445,0.89087 0.04354,0.0435 -0.02082,1.31589 -0.143012,2.82745 l -0.22217,2.74829 -0.51613,-0.0237 c -0.283872,-0.013 -7.062421,-0.89152 -15.06344,-1.9522 z"
       id="path73407"
       transform="matrix(0.75000002,0,0,-0.75000002,0,283.465)" />
    <path
       style="fill:#ffffff;stroke-width:0.200187"
       d="m 58.333552,318.04733 c -2.266693,-2.28463 -4.96997,-5.09976 -6.00728,-6.25584 C 17.974349,273.50633 1.3352487,223.73068 5.8176122,172.66142 8.870938,137.87372 21.977009,104.53416 43.557629,76.657385 48.536483,70.225948 52.572751,65.691463 59.233902,59.046113 68.456736,49.845155 76.663749,43.098139 87.072986,36.159494 123.89183,11.616598 167.50077,1.3020733 211.49772,6.7301589 245.26335,10.895962 277.6031,24.678093 304.1728,46.225183 c 9.43767,7.653615 19.75913,17.976435 27.35163,27.355171 13.80038,17.047149 24.69211,36.905156 31.51509,57.458886 16.50769,49.72828 11.07915,103.85578 -14.96479,149.21278 -7.86762,13.70191 -17.29273,26.06086 -28.67613,37.60243 l -4.30403,4.36382 -6.2763,-0.0586 -6.27631,-0.0586 1.97228,-1.72335 c 20.1051,-17.5676 36.45454,-40.64269 46.64963,-65.83981 10.34622,-25.57068 14.46048,-53.63505 11.95914,-81.57626 C 356.64966,100.65112 305.44785,39.420637 235.31999,20.126469 206.40953,12.172377 175.06685,11.819238 146.02648,19.120398 109.00799,28.427368 76.069299,49.616063 52.04826,79.574392 23.662593,114.97616 10.267223,159.69909 14.42345,205.19183 c 3.172271,34.72266 16.624304,67.52973 38.825555,94.68852 5.146992,6.29631 12.605807,14.1159 18.220562,19.10184 1.539926,1.36746 2.977531,2.65116 3.194678,2.85266 0.383247,0.35564 0.210155,0.36637 -5.907308,0.36637 h -6.302122 z"
       id="path73409"
       transform="matrix(0.75000002,0,0,-0.75000002,0,283.465)" />
  </g>
</svg>
